<svg xmlns="http://www.w3.org/2000/svg" xmlns:xlink="http://www.w3.org/1999/xlink" width="399" height="417" viewBox="0 0 399 417">
  <defs>
    <clipPath id="clip-path">
      <rect id="Rectángulo_346851" data-name="Rectángulo 346851" width="399" height="406" rx="26" transform="translate(1021 449)" fill="#fff" stroke="#707070" stroke-width="1" opacity="0.66"/>
    </clipPath>
    <clipPath id="clip-path-2">
      <rect id="Rectángulo_345583" data-name="Rectángulo 345583" width="313.628" height="237.718" transform="translate(0 0)" fill="#4db1f0" opacity="0.38"/>
    </clipPath>
    <clipPath id="clip-path-3">
      <rect id="Rectángulo_345579" data-name="Rectángulo 345579" width="306.408" height="254.141" transform="translate(0 0)" fill="#4db1f0"/>
    </clipPath>
    <clipPath id="clip-path-4">
      <path id="Trazado_705812" data-name="Trazado 705812" d="M213.557,221.353s-26.688-9.452-86.18-61.16c-19.316-12.151-42.125-3.617-62.457,4.916-15.953,6.7-30.382,13.391-40.4,10.1C1.715,170.47.053,131.281.053,131.281S0,130.3,0,128.5v-.381C.039,107.259,6.482-9.509,146.281.621c164.575,14.456,154.567,144,154.567,144s3.336,69.5-48.372,81.732a50.486,50.486,0,0,1-11.947,1.4,62.022,62.022,0,0,1-26.972-6.405" fill="#4db1f0"/>
    </clipPath>
    <clipPath id="clip-path-6">
      <rect id="Rectángulo_345581" data-name="Rectángulo 345581" width="222.603" height="184.631" fill="#4db1f0"/>
    </clipPath>
    <clipPath id="clip-path-7">
      <path id="Trazado_705814" data-name="Trazado 705814" d="M155.147,160.81s-19.389-6.867-62.609-44.432c-14.033-8.827-30.6-2.628-45.375,3.572-11.59,4.864-22.073,9.729-29.352,7.334C1.246,123.844.039,95.374.039,95.374S0,94.659,0,93.355v-.277C.029,77.922,4.709-6.908,106.272.452c119.562,10.5,112.292,104.617,112.292,104.617s2.424,50.491-35.142,59.377a36.676,36.676,0,0,1-8.68,1.018,45.059,45.059,0,0,1-19.595-4.653" fill="#4db1f0"/>
    </clipPath>
    <clipPath id="clip-path-8">
      <rect id="Rectángulo_345582" data-name="Rectángulo 345582" width="222.603" height="184.631" fill="#0098e8"/>
    </clipPath>
    <clipPath id="clip-path-9">
      <rect id="Rectángulo_346850" data-name="Rectángulo 346850" width="399.219" height="331.635" transform="translate(689.563 1186.125)" fill="#ed9aa9" opacity="0.63"/>
    </clipPath>
    <clipPath id="clip-path-10">
      <rect id="Rectángulo_346844" data-name="Rectángulo 346844" width="399.219" height="405.723" fill="none"/>
    </clipPath>
  </defs>
  <g id="Grupo_1003670" data-name="Grupo 1003670" transform="translate(-1021 -440)">
    <rect id="Rectángulo_346852" data-name="Rectángulo 346852" width="399" height="86" transform="translate(1021 771)" fill="#112e4c"/>
    <g id="Enmascarar_grupo_1000158" data-name="Enmascarar grupo 1000158" transform="translate(0 -9)" clip-path="url(#clip-path)">
      <rect id="Rectángulo_346849" data-name="Rectángulo 346849" width="399.219" height="331.635" transform="translate(1020.781 449.052)" fill="#005b8b"/>
      <g id="Grupo_1000195" data-name="Grupo 1000195" transform="translate(1014.354 773.2) rotate(-90)" opacity="0.38">
        <g id="Enmascarar_grupo_927360" data-name="Enmascarar grupo 927360" transform="matrix(-0.259, 0.966, -0.966, -0.259, 336.205, 91.329)" clip-path="url(#clip-path-2)">
          <g id="Grupo_1000162" data-name="Grupo 1000162" transform="matrix(0.883, -0.469, 0.469, 0.883, -43.67, 86.089)">
            <g id="Grupo_1000157" data-name="Grupo 1000157" transform="translate(0 0)">
              <g id="Grupo_1000156" data-name="Grupo 1000156" transform="translate(0)" clip-path="url(#clip-path-3)">
                <path id="Trazado_705811" data-name="Trazado 705811" d="M24.517,175.205c20.572,4.448,68.388-36.7,102.86-15.012,59.492,51.708,86.18,61.16,86.18,61.16s18.348,10.008,38.92,5c51.708-12.232,48.372-81.732,48.372-81.732S310.856,15.077,146.281.622C-7.174-10.5.054,131.281.054,131.281S3.39,170.2,24.517,175.205" transform="translate(0 4.538)" fill="#4db1f0"/>
              </g>
            </g>
          </g>
          <g id="Grupo_1000169" data-name="Grupo 1000169" transform="matrix(0.616, 0.788, -0.788, 0.616, 181.669, -32.736)">
            <g id="Grupo_1000164" data-name="Grupo 1000164" transform="translate(0 0)">
              <g id="Grupo_1000163" data-name="Grupo 1000163" transform="translate(0)" clip-path="url(#clip-path-6)">
                <path id="Trazado_705813" data-name="Trazado 705813" d="M17.812,127.284c14.945,3.231,49.683-26.659,74.727-10.906,43.22,37.565,62.609,44.432,62.609,44.432s13.33,7.271,28.275,3.635c37.565-8.886,35.142-59.377,35.142-59.377S225.834,10.954,106.272.452C-5.212-7.627.039,95.374.039,95.374s2.424,28.275,17.773,31.91" transform="translate(0 3.297)" fill="#4db1f0"/>
              </g>
            </g>
            <g id="Grupo_1000168" data-name="Grupo 1000168" transform="translate(0 0)">
              <g id="Grupo_1000167" data-name="Grupo 1000167" transform="translate(0)" clip-path="url(#clip-path-8)">
                <path id="Trazado_705815" data-name="Trazado 705815" d="M17.812,127.284c14.945,3.231,49.683-26.659,74.727-10.906,43.22,37.565,62.609,44.432,62.609,44.432s13.33,7.271,28.275,3.635c37.565-8.886,35.142-59.377,35.142-59.377S225.834,10.954,106.272.452C-5.212-7.627.039,95.374.039,95.374s2.424,28.275,17.773,31.91" transform="translate(0 3.297)" fill="#0098e8"/>
              </g>
            </g>
          </g>
        </g>
      </g>
      <g id="Enmascarar_grupo_1000157" data-name="Enmascarar grupo 1000157" transform="translate(331.219 -737.074)" clip-path="url(#clip-path-9)">
        <g id="Grupo_1000198" data-name="Grupo 1000198" transform="translate(-437.333 -6165)" opacity="0.41">
          <path id="Trazado_705816" data-name="Trazado 705816" d="M133.989,11.266h-3.2l-.517,1.309h-1.984l3.177-7.4h1.984l3.1,7.4H134.5Zm-.57-1.478-1.013-2.639-1.034,2.639Z" transform="translate(1095.065 7424.449)" fill="#112e4c"/>
          <path id="Trazado_705865" data-name="Trazado 705865" d="M25.9,368.812a8.113,8.113,0,0,1-6.38-2.954l2.2-3.269a5.863,5.863,0,0,0,3.843,2.066c1.177,0,1.909-.732,1.909-2.117v-8.315H21.2v-3.947H32.283v12.367c0,3.922-2.458,6.17-6.38,6.17" transform="translate(1022.994 7178.515)" fill="#112e4c"/>
          <path id="Trazado_705874" data-name="Trazado 705874" d="M25.9,368.812a8.113,8.113,0,0,1-6.38-2.954l2.2-3.269a5.863,5.863,0,0,0,3.843,2.066c1.177,0,1.909-.732,1.909-2.117v-8.315H21.2v-3.947H32.283v12.367c0,3.922-2.458,6.17-6.38,6.17" transform="translate(1491.654 7178.515)" fill="#112e4c"/>
          <path id="Trazado_705818" data-name="Trazado 705818" d="M135.474,282.334l-3.33-4.96L130.5,279.2v3.13h-3.35V269.5h3.35v5.38l4.813-5.38h3.88l-4.759,5.308,5.051,7.522Z" transform="translate(1095.297 7370.776)" fill="#112e4c"/>
          <path id="Trazado_705866" data-name="Trazado 705866" d="M135.474,282.334l-3.33-4.96L130.5,279.2v3.13h-3.35V269.5h3.35v5.38l4.813-5.38h3.88l-4.759,5.308,5.051,7.522Z" transform="translate(973.856 7294.962)" fill="#112e4c"/>
          <path id="Trazado_708133" data-name="Trazado 708133" d="M135.474,282.334l-3.33-4.96L130.5,279.2v3.13h-3.35V269.5h3.35v5.38l4.813-5.38h3.88l-4.759,5.308,5.051,7.522Z" transform="translate(1252.606 7277.822)" fill="#112e4c"/>
          <path id="Trazado_705819" data-name="Trazado 705819" d="M27.15,277.887l6.04,8.016v-8.016h3.229V291.2H33.381l-6.041-7.978V291.2H24.092V277.887Z" transform="translate(1117.463 7369.074)" fill="#112e4c"/>
          <path id="Trazado_705867" data-name="Trazado 705867" d="M27.15,277.887l6.04,8.016v-8.016h3.229V291.2H33.381l-6.041-7.978V291.2H24.092V277.887Z" transform="translate(1022.066 7193.214)" fill="#112e4c"/>
          <path id="Trazado_705873" data-name="Trazado 705873" d="M27.15,277.887l6.04,8.016v-8.016h3.229V291.2H33.381l-6.041-7.978V291.2H24.092V277.887Z" transform="translate(1490.727 7193.214)" fill="#112e4c"/>
          <path id="Trazado_705820" data-name="Trazado 705820" d="M378.21,243.357l1.963,4.317,1.964-4.317h2.11v7.4h-1.709l-.01-4.687-1.721,3.948H379.54l-1.721-3.948v4.687H376.1v-7.4Z" transform="translate(1044.746 7376.086)" fill="#112e4c"/>
          <path id="Trazado_705858" data-name="Trazado 705858" d="M378.21,243.357l1.963,4.317,1.964-4.317h2.11v7.4h-1.709l-.01-4.687-1.721,3.948H379.54l-1.721-3.948v4.687H376.1v-7.4Z" transform="translate(923.306 7300.271)" fill="#112e4c"/>
          <path id="Trazado_705821" data-name="Trazado 705821" d="M378.21,243.357l1.963,4.317,1.964-4.317h2.11v7.4h-1.709l-.01-4.687-1.721,3.948H379.54l-1.721-3.948v4.687H376.1v-7.4Z" transform="translate(871.831 7165.44)" fill="#112e4c"/>
          <path id="Trazado_705822" data-name="Trazado 705822" d="M303.2,3.2l1.963,4.317L307.125,3.2h2.111v7.4h-1.71l-.01-4.687L305.8,9.864h-1.266l-1.721-3.947V10.6h-1.721V3.2Z" transform="translate(1059.978 7424.85)" fill="#112e4c"/>
          <path id="Trazado_705823" data-name="Trazado 705823" d="M451.814,286.363v10.571h5.761v3.026h-9.31v-13.6Z" transform="translate(1030.092 7367.353)" fill="#112e4c"/>
          <path id="Trazado_705859" data-name="Trazado 705859" d="M451.814,286.363v10.571h5.761v3.026h-9.31v-13.6Z" transform="translate(908.652 7291.539)" fill="#112e4c"/>
          <path id="Trazado_708132" data-name="Trazado 708132" d="M451.814,286.363v10.571h5.761v3.026h-9.31v-13.6Z" transform="translate(775.69 7399.125)" fill="#112e4c"/>
          <path id="Trazado_705825" data-name="Trazado 705825" d="M213.246,48.478v5.752h3.135v1.647h-5.067v-7.4Z" transform="translate(1078.206 7415.656)" fill="#112e4c"/>
          <path id="Trazado_705871" data-name="Trazado 705871" d="M213.246,48.478v5.752h3.135v1.647h-5.067v-7.4Z" transform="translate(983.572 7458.339)" fill="#112e4c"/>
          <path id="Trazado_705826" data-name="Trazado 705826" d="M434.584,135.154c-1.658,0-2.751.6-2.751,1.809,0,4.371,13.906,1.884,13.906,11.38,0,5.389-4.748,8.14-10.627,8.14a19.844,19.844,0,0,1-12.172-4.221l2.675-5.389c2.713,2.337,6.821,3.994,9.572,3.994,2.035,0,3.316-.754,3.316-2.148,0-4.484-13.906-1.771-13.906-11.117,0-4.936,4.183-8.064,10.552-8.064a20.266,20.266,0,0,1,10.552,2.977l-2.6,5.465c-2.789-1.583-6.33-2.826-8.516-2.826" transform="translate(1035.235 7399.197)" fill="#112e4c"/>
          <path id="Trazado_705827" data-name="Trazado 705827" d="M335.556,298.036c-1.658,0-2.751.6-2.751,1.809,0,4.371,13.906,1.884,13.906,11.38,0,5.389-4.748,8.141-10.627,8.141a19.85,19.85,0,0,1-12.172-4.221l2.675-5.389c2.713,2.337,6.821,4,9.572,4,2.035,0,3.316-.754,3.316-2.149,0-4.484-13.906-1.771-13.906-11.117,0-4.936,4.183-8.064,10.552-8.064a20.267,20.267,0,0,1,10.552,2.977l-2.6,5.465c-2.788-1.582-6.33-2.826-8.516-2.826" transform="translate(1055.343 7366.123)" fill="#112e4c"/>
          <path id="Trazado_705860" data-name="Trazado 705860" d="M335.556,298.036c-1.658,0-2.751.6-2.751,1.809,0,4.371,13.906,1.884,13.906,11.38,0,5.389-4.748,8.141-10.627,8.141a19.85,19.85,0,0,1-12.172-4.221l2.675-5.389c2.713,2.337,6.821,4,9.572,4,2.035,0,3.316-.754,3.316-2.149,0-4.484-13.906-1.771-13.906-11.117,0-4.936,4.183-8.064,10.552-8.064a20.267,20.267,0,0,1,10.552,2.977l-2.6,5.465c-2.788-1.582-6.33-2.826-8.516-2.826" transform="translate(933.902 7290.309)" fill="#112e4c"/>
          <path id="Trazado_705828" data-name="Trazado 705828" d="M236.816,94.243c0,6.73-4.927,11.3-12.236,11.3h-9.5V82.973H224.8c7.149,0,12.012,4.573,12.012,11.27m-6.022.065c0-3.9-2.544-6.537-6.118-6.537h-3.7v13.009h3.993c3.413,0,5.828-2.608,5.828-6.473" transform="translate(1077.441 7408.652)" fill="#112e4c"/>
          <path id="Trazado_705829" data-name="Trazado 705829" d="M236.816,94.243c0,6.73-4.927,11.3-12.236,11.3h-9.5V82.973H224.8c7.149,0,12.012,4.573,12.012,11.27m-6.022.065c0-3.9-2.544-6.537-6.118-6.537h-3.7v13.009h3.993c3.413,0,5.828-2.608,5.828-6.473" transform="translate(1110.081 7268.151)" fill="#112e4c"/>
          <path id="Trazado_705830" data-name="Trazado 705830" d="M386.754,192.536l-2-3.8h-2.665v3.8h-3.584V178.8h6.17c3.644,0,5.72,1.763,5.72,4.819a4.644,4.644,0,0,1-2.448,4.428l2.86,4.486Zm-4.663-6.661H384.7a2.006,2.006,0,0,0,2.292-2.135c0-1.352-.842-2.077-2.292-2.077h-2.606Z" transform="translate(1044.257 7389.193)" fill="#112e4c"/>
          <path id="Trazado_705831" data-name="Trazado 705831" d="M386.754,192.536l-2-3.8h-2.665v3.8h-3.584V178.8h6.17c3.644,0,5.72,1.763,5.72,4.819a4.644,4.644,0,0,1-2.448,4.428l2.86,4.486Zm-4.663-6.661H384.7a2.006,2.006,0,0,0,2.292-2.135c0-1.352-.842-2.077-2.292-2.077h-2.606Z" transform="translate(871.341 7178.548)" fill="#112e4c"/>
          <path id="Trazado_705832" data-name="Trazado 705832" d="M401.272,287.159v4.62h-6.426v16.828h-5.6V291.779h-6.364v-4.62Z" transform="translate(1043.369 7367.191)" fill="#112e4c"/>
          <path id="Trazado_705861" data-name="Trazado 705861" d="M401.272,287.159v4.62h-6.426v16.828h-5.6V291.779h-6.364v-4.62Z" transform="translate(921.928 7291.377)" fill="#112e4c"/>
          <path id="Trazado_708131" data-name="Trazado 708131" d="M401.272,287.159v4.62h-6.426v16.828h-5.6V291.779h-6.364v-4.62Z" transform="translate(903.54 7380.154)" fill="#112e4c"/>
          <path id="Trazado_705833" data-name="Trazado 705833" d="M337.439,230.723a3.887,3.887,0,0,1-3.026,3.8,4.326,4.326,0,0,1,3.6,4.425c0,3-2.625,4.875-6.75,4.875h-8.651V226.3h8.326c3.975,0,6.5,1.725,6.5,4.425m-4.7.8c0-1.05-.775-1.674-2.051-1.65h-3.5v3.4h3.5c1.275,0,2.051-.65,2.051-1.751m.55,6.851c0-1.1-1-1.8-2.6-1.775h-3.5v3.675h3.5c1.6,0,2.6-.7,2.6-1.9" transform="translate(1055.606 7379.549)" fill="#112e4c"/>
          <path id="Trazado_705862" data-name="Trazado 705862" d="M337.439,230.723a3.887,3.887,0,0,1-3.026,3.8,4.326,4.326,0,0,1,3.6,4.425c0,3-2.625,4.875-6.75,4.875h-8.651V226.3h8.326c3.975,0,6.5,1.725,6.5,4.425m-4.7.8c0-1.05-.775-1.674-2.051-1.65h-3.5v3.4h3.5c1.275,0,2.051-.65,2.051-1.751m.55,6.851c0-1.1-1-1.8-2.6-1.775h-3.5v3.675h3.5c1.6,0,2.6-.7,2.6-1.9" transform="translate(934.166 7303.735)" fill="#112e4c"/>
          <path id="Trazado_705835" data-name="Trazado 705835" d="M433.1,27.481a3.886,3.886,0,0,1-3.026,3.8,4.326,4.326,0,0,1,3.6,4.425c0,3-2.625,4.875-6.75,4.875h-8.651V23.056H426.6c3.976,0,6.5,1.725,6.5,4.425m-4.7.8c0-1.05-.775-1.675-2.05-1.65h-3.5v3.4h3.5c1.275,0,2.05-.65,2.05-1.751m.551,6.851c0-1.1-1-1.8-2.6-1.775h-3.5v3.676h3.5c1.6,0,2.6-.7,2.6-1.9" transform="translate(969.539 7331.061)" fill="#112e4c"/>
          <path id="Trazado_705836" data-name="Trazado 705836" d="M433.1,27.481a3.886,3.886,0,0,1-3.026,3.8,4.326,4.326,0,0,1,3.6,4.425c0,3-2.625,4.875-6.75,4.875h-8.651V23.056H426.6c3.976,0,6.5,1.725,6.5,4.425m-4.7.8c0-1.05-.775-1.675-2.05-1.65h-3.5v3.4h3.5c1.275,0,2.05-.65,2.05-1.751m.551,6.851c0-1.1-1-1.8-2.6-1.775h-3.5v3.676h3.5c1.6,0,2.6-.7,2.6-1.9" transform="translate(775.182 7338.81)" fill="#112e4c"/>
          <path id="Trazado_705837" data-name="Trazado 705837" d="M176.005,237.974a4.955,4.955,0,0,0,0,9.9,6.5,6.5,0,0,0,4.351-2.051l2.675,2.875a10.473,10.473,0,0,1-7.275,3.25,8.873,8.873,0,0,1-9.2-9c0-5.05,4.025-8.85,9.375-8.85a10.055,10.055,0,0,1,7.075,3l-2.65,3.176a5.965,5.965,0,0,0-4.351-2.3" transform="translate(1087.295 7403.937)" fill="#112e4c"/>
          <path id="Trazado_705864" data-name="Trazado 705864" d="M176.005,237.974a4.955,4.955,0,0,0,0,9.9,6.5,6.5,0,0,0,4.351-2.051l2.675,2.875a10.473,10.473,0,0,1-7.275,3.25,8.873,8.873,0,0,1-9.2-9c0-5.05,4.025-8.85,9.375-8.85a10.055,10.055,0,0,1,7.075,3l-2.65,3.176a5.965,5.965,0,0,0-4.351-2.3" transform="translate(909.558 7162.785)" fill="#112e4c"/>
          <path id="Trazado_705875" data-name="Trazado 705875" d="M176.005,237.974a4.955,4.955,0,0,0,0,9.9,6.5,6.5,0,0,0,4.351-2.051l2.675,2.875a10.473,10.473,0,0,1-7.275,3.25,8.873,8.873,0,0,1-9.2-9c0-5.05,4.025-8.85,9.375-8.85a10.055,10.055,0,0,1,7.075,3l-2.65,3.176a5.965,5.965,0,0,0-4.351-2.3" transform="translate(1378.218 7162.785)" fill="#112e4c"/>
          <path id="Trazado_705857" data-name="Trazado 705857" d="M421.893,353.288a4.955,4.955,0,0,0,0,9.9,6.5,6.5,0,0,0,4.351-2.051l2.674,2.875a10.468,10.468,0,0,1-7.275,3.251,8.873,8.873,0,0,1-9.2-9c0-5.05,4.025-8.85,9.375-8.85a10.055,10.055,0,0,1,7.075,3l-2.65,3.176a5.965,5.965,0,0,0-4.351-2.3" transform="translate(917.167 7278.736)" fill="#112e4c"/>
          <path id="Trazado_705839" data-name="Trazado 705839" d="M355,53.971H343.583l-1.848,4.673h-7.083l11.343-26.417h7.085l11.079,26.417H356.81ZM352.967,48.7l-3.619-9.422L345.655,48.7Z" transform="translate(1053.162 7418.956)" fill="#112e4c"/>
          <path id="Trazado_705840" data-name="Trazado 705840" d="M355,53.971H343.583l-1.848,4.673h-7.083l11.343-26.417h7.085l11.079,26.417H356.81ZM352.967,48.7l-3.619-9.422L345.655,48.7Z" transform="translate(1100.415 7347.165)" fill="#112e4c"/>
          <path id="Trazado_705841" data-name="Trazado 705841" d="M281.781,41.264v5.567h-4.549V41.388l-6.413-11.981h4.549l4.126,7.482,4.027-7.482h4.549Z" transform="translate(1066.124 7419.528)" fill="#112e4c"/>
          <path id="Trazado_705842" data-name="Trazado 705842" d="M166.92,76.314c2.255,0,3.813-1.531,3.813-4.064V60.922h5.094V72.251c0,5.149-3.452,8.406-8.935,8.406-5.512,0-9.046-3.257-9.046-8.406V60.922h5.093V72.251a3.806,3.806,0,0,0,3.981,4.064" transform="translate(1089.063 7413.13)" fill="#112e4c"/>
          <path id="Trazado_705843" data-name="Trazado 705843" d="M86.486,295.994l-.031,4.433H76.131v4.738h9.535V309.6H76.131v7.683H70.575V295.994Z" transform="translate(1108.024 7365.397)" fill="#112e4c"/>
          <path id="Trazado_705868" data-name="Trazado 705868" d="M86.486,295.994l-.031,4.433H76.131v4.738h9.535V309.6H76.131v7.683H70.575V295.994Z" transform="translate(1012.628 7189.537)" fill="#112e4c"/>
          <path id="Trazado_705876" data-name="Trazado 705876" d="M86.486,295.994l-.031,4.433H76.131v4.738h9.535V309.6H76.131v7.683H70.575V295.994Z" transform="translate(1481.288 7189.537)" fill="#112e4c"/>
          <path id="Trazado_705844" data-name="Trazado 705844" d="M6.083,210.092v6.482H12.5v-6.482h4.148v15.889H12.5v-6.1H6.083v6.1H1.935V210.092Z" transform="translate(1121.962 7382.84)" fill="#112e4c"/>
          <path id="Trazado_705869" data-name="Trazado 705869" d="M6.083,210.092v6.482H12.5v-6.482h4.148v15.889H12.5v-6.1H6.083v6.1H1.935V210.092Z" transform="translate(1026.565 7206.98)" fill="#112e4c"/>
          <rect id="Rectángulo_345584" data-name="Rectángulo 345584" width="4.126" height="15.804" transform="translate(1415.815 7507.791)" fill="#112e4c"/>
          <path id="Trazado_705845" data-name="Trazado 705845" d="M217.691,9.544c0,5.512-4.355,9.653-10.19,9.653s-10.191-4.141-10.191-9.653C197.311,4.06,201.667,0,207.5,0s10.19,4.087,10.19,9.544m-15.325.027A5.317,5.317,0,0,0,207.555,15a5.214,5.214,0,0,0,5.082-5.431,5.167,5.167,0,0,0-5.082-5.378,5.253,5.253,0,0,0-5.189,5.378" transform="translate(1081.05 7425.5)" fill="#112e4c"/>
          <path id="Trazado_705870" data-name="Trazado 705870" d="M217.691,9.544c0,5.512-4.355,9.653-10.19,9.653s-10.191-4.141-10.191-9.653C197.311,4.06,201.667,0,207.5,0s10.19,4.087,10.19,9.544m-15.325.027A5.317,5.317,0,0,0,207.555,15a5.214,5.214,0,0,0,5.082-5.431,5.167,5.167,0,0,0-5.082-5.378,5.253,5.253,0,0,0-5.189,5.378" transform="translate(997.199 7577.005)" fill="#112e4c"/>
          <path id="Trazado_705846" data-name="Trazado 705846" d="M217.691,9.544c0,5.512-4.355,9.653-10.19,9.653s-10.191-4.141-10.191-9.653C197.311,4.06,201.667,0,207.5,0s10.19,4.087,10.19,9.544m-15.325.027A5.317,5.317,0,0,0,207.555,15a5.214,5.214,0,0,0,5.082-5.431,5.167,5.167,0,0,0-5.082-5.378,5.253,5.253,0,0,0-5.189,5.378" transform="translate(955.3 7396.999)" fill="#112e4c"/>
          <path id="Trazado_705847" data-name="Trazado 705847" d="M427.413,216.094l4.7,13.632,4.733-13.632H441.9l-7.367,18.848h-5.108l-7.313-18.848Z" transform="translate(1035.402 7381.621)" fill="#112e4c"/>
          <path id="Trazado_705877" data-name="Trazado 705877" d="M427.413,216.094l4.7,13.632,4.733-13.632H441.9l-7.367,18.848h-5.108l-7.313-18.848Z" transform="translate(1098.866 7381.621)" fill="#112e4c"/>
          <path id="Trazado_705863" data-name="Trazado 705863" d="M427.413,216.094l4.7,13.632,4.733-13.632H441.9l-7.367,18.848h-5.108l-7.313-18.848Z" transform="translate(913.962 7305.807)" fill="#112e4c"/>
          <path id="Trazado_705848" data-name="Trazado 705848" d="M427.413,216.094l4.7,13.632,4.733-13.632H441.9l-7.367,18.848h-5.108l-7.313-18.848Z" transform="translate(862.486 7170.976)" fill="#112e4c"/>
          <path id="Trazado_705849" data-name="Trazado 705849" d="M310.49,98.237l2.6,7.528,2.613-7.528h2.791l-4.068,10.409H311.6l-4.038-10.409Z" transform="translate(1058.662 7405.553)" fill="#112e4c"/>
          <path id="Trazado_705850" data-name="Trazado 705850" d="M310.49,98.237l2.6,7.528,2.613-7.528h2.791l-4.068,10.409H311.6l-4.038-10.409Z" transform="translate(818.874 7264.173)" fill="#112e4c"/>
          <path id="Trazado_705851" data-name="Trazado 705851" d="M19.694,45.111c0,3.294-2.057,5.211-5.631,5.211h-2.5V54.2H7.913v-14h6.15c3.574,0,5.631,1.8,5.631,4.912m-3.475.12c0-1.378-.858-2.117-2.336-2.117H11.567v4.293h2.317a2.044,2.044,0,0,0,2.336-2.176" transform="translate(1119.507 7417.337)" fill="#112e4c"/>
          <path id="Trazado_705852" data-name="Trazado 705852" d="M19.694,45.111c0,3.294-2.057,5.211-5.631,5.211h-2.5V54.2H7.913v-14h6.15c3.574,0,5.631,1.8,5.631,4.912m-3.475.12c0-1.378-.858-2.117-2.336-2.117H11.567v4.293h2.317a2.044,2.044,0,0,0,2.336-2.176" transform="translate(1317.248 7352.402)" fill="#112e4c"/>
          <path id="Trazado_705853" data-name="Trazado 705853" d="M437.788,77.506l2.9,6.372,2.9-6.372H446.7v10.92h-2.523l-.016-6.917-2.539,5.826h-1.87l-2.539-5.826v6.917h-2.539V77.506Z" transform="translate(1032.853 7409.762)" fill="#112e4c"/>
          <path id="Trazado_705855" data-name="Trazado 705855" d="M46.526,129.918v5.5H32.583v4.936H45.17v5.465l-12.587.037v4.975H46.9v5.5H25.686V129.918Z" transform="translate(1117.139 7399.12)" fill="#112e4c"/>
          <path id="Trazado_705856" data-name="Trazado 705856" d="M89.557,18.123v4.522L75.613,39H89.783v5.54H66.38V40.056L80.324,23.663H66.87v-5.54Z" transform="translate(1107.636 7421.82)" fill="#112e4c"/>
          <path id="Trazado_705872" data-name="Trazado 705872" d="M6.083,210.092v6.482H12.5v-6.482h4.148v15.889H12.5v-6.1H6.083v6.1H1.935V210.092Z" transform="translate(1495.226 7206.98)" fill="#112e4c"/>
          <path id="Trazado_705834" data-name="Trazado 705834" d="M433.1,27.481a3.886,3.886,0,0,1-3.026,3.8,4.326,4.326,0,0,1,3.6,4.425c0,3-2.625,4.875-6.75,4.875h-8.651V23.056H426.6c3.976,0,6.5,1.725,6.5,4.425m-4.7.8c0-1.05-.775-1.675-2.05-1.65h-3.5v3.4h3.5c1.275,0,2.05-.65,2.05-1.751m.551,6.851c0-1.1-1-1.8-2.6-1.775h-3.5v3.676h3.5c1.6,0,2.6-.7,2.6-1.9" transform="translate(1036.182 7420.818)" fill="#112e4c"/>
          <path id="Trazado_705824" data-name="Trazado 705824" d="M386.243,5.175v5.752h3.135v1.647h-5.067v-7.4Z" transform="translate(1043.079 7424.449)" fill="#112e4c"/>
          <path id="Trazado_705880" data-name="Trazado 705880" d="M86.486,295.994l-.031,4.433H76.131v4.738h9.535V309.6H76.131v7.683H70.575V295.994Z" transform="translate(1324.037 7092.963)" fill="#112e4c"/>
          <path id="Trazado_705854" data-name="Trazado 705854" d="M437.788,77.506l2.9,6.372,2.9-6.372H446.7v10.92h-2.523l-.016-6.917-2.539,5.826h-1.87l-2.539-5.826v6.917h-2.539V77.506Z" transform="translate(1056.475 7296.097)" fill="#112e4c"/>
        </g>
      </g>
      <g id="Grupo_1003559" data-name="Grupo 1003559" transform="translate(1020.781 449.052)">
        <g id="Grupo_1003553" data-name="Grupo 1003553">
          <g id="Grupo_1003552" data-name="Grupo 1003552" clip-path="url(#clip-path-10)">
            <path id="Trazado_708040" data-name="Trazado 708040" d="M378.886,486.423c1.631-8.144-.269-28.515-.62-33.445-.378-5.307-1.395-10.576-1.967-15.869-.568-5.251-.764-10.507-1.614-15.738-.973-5.98-2.255-11.931-3.665-17.855a1.694,1.694,0,0,0-1.677-1.187,2.344,2.344,0,0,0-2.151-1.279,285.915,285.915,0,0,0-76.7,5.058c-7.1,1.457-14.04,3.227-20.887,5.257a2.092,2.092,0,0,0-.555.257,1.821,1.821,0,0,0-1.868,1.182,195.943,195.943,0,0,0-5.353,28.963c-1.208,9.765-2.9,19.467-3.377,29.257-.25,5.132-.461,10.27-.446,15.4Z" transform="translate(-52.004 -80.7)" fill="#005554"/>
            <path id="Trazado_708041" data-name="Trazado 708041" d="M386.143,455.937c-.851-10.963-2.066-21.992-5.4-32.425a1.732,1.732,0,0,0-3.349.852c1.684,10.689,4.023,21.235,5.246,32.013a209.651,209.651,0,0,1,.7,32.693c-.1,2.369,3.647,2.37,3.748,0a276.326,276.326,0,0,0-.948-33.133" transform="translate(-76.064 -85.123)" fill="#24403a"/>
            <path id="Trazado_708042" data-name="Trazado 708042" d="M322.081,495.434c-.128-1.66-.26-3.319-.383-4.98-.24-3.234-.39-6.458-.414-9.71a9.4,9.4,0,0,0-.491-4.1,4.255,4.255,0,0,0-3.358-2.091c-3.248-.64-6.455-1.365-9.8-1.064-1.118.1-1.724,1.539-.671,2.149a28.616,28.616,0,0,0,7.983,2.774,11.463,11.463,0,0,0,1.931.469c.017.114.026.23.043.336.219,1.411.41,2.83.608,4.245.392,2.811.594,5.653.806,8.488q.166,2.241.335,4.482a8.9,8.9,0,0,0,.871,4.106,1.32,1.32,0,0,0,2.363-.3c.622-1.491.3-3.265.181-4.8" transform="translate(-61.762 -95.423)" fill="#24403a"/>
            <path id="Trazado_708043" data-name="Trazado 708043" d="M213.494,379.452a68.258,68.258,0,0,0,10.949-.837l.048-.006c.166-.052.331-.1.5-.159l.4-.135a31.84,31.84,0,0,0,5.976-2.826c.054-.042.476-.318.559-.374.223-.151.45-.295.675-.442q.759-.5,1.515-1.009c.991-.664,1.979-1.333,2.977-1.987a64.981,64.981,0,0,1,6.4-3.8c1.059-.532,2.17-.958,3.2-1.543l.276-.158.029-.018c.2-.144.391-.284.58-.437s.358-.3.529-.458c.072-.066.141-.136.212-.2a.515.515,0,0,0,.088-.109c.042-.144.066-.105,0,0l0,.016.049-.057c.077-.1.158-.193.235-.292q.2-.256.382-.525c.1-.152.2-.307.3-.463,0-.008.081-.159.137-.249.366-.743.71-1.489,1.016-2.26.7-1.777,1.344-3.584,2.116-5.334a23.353,23.353,0,0,1,4.836-6.717c.846-.881,1.72-1.74,2.615-2.569.444-.412.9-.816,1.342-1.225a5.2,5.2,0,0,1,.392-.359c.022-.016.018-.01.032-.021.147-.17.292-.342.434-.515,3.183-3.9,5.269-8.514,8.151-12.616,3-4.275,6.5-8.162,9.7-12.286a132.552,132.552,0,0,0,8.776-12.8q.981-1.631,1.914-3.291l.174-.31c-.226.4,0,0,.039-.073.152-.279.3-.558.456-.838q.451-.842.893-1.689c.708-1.363,1.383-2.742,2.042-4.129a74.963,74.963,0,0,0,.469-18.083,46.02,46.02,0,0,0-6.069-19.555,36.368,36.368,0,0,0-2.953-4.132.914.914,0,0,0-.454-.3.869.869,0,0,0-.509-1.349c-11.058-2.32-17.522-3.692-25.339,4.47-4.736,4.945-12.934,18.4-15.841,24.578-1.5,3.187-2.857,6.439-4.16,9.707-.606,1.519-1.131,3.092-1.809,4.581a2.953,2.953,0,0,1-1.111,1.456,7.156,7.156,0,0,1-2.024.517c-4.294.909-7.334,6.049-6.011,10.088a11.742,11.742,0,0,0-2.912.812,7.9,7.9,0,0,0-3.591,2.506,4.632,4.632,0,0,0-.774,1.825,10.519,10.519,0,0,0,.12,2.878c.155,1.959-1.353,3.418-2.712,4.638a63.439,63.439,0,0,1-5.361,4.068l-5.622,4.055c-3.063,2.21-6.458,4.379-8.459,7.731-1.889,1.4-2.5,4.483-2.632,6.731-.285,4.772-.448,9.549-.671,14.321q-.171,3.682-.344,7.363c-.53,11.321,7.485,15.388,16.4,14.419.482-.052.963-.133,1.444-.22" transform="translate(-39.432 -50.621)" fill="#f0c27a"/>
            <path id="Trazado_708044" data-name="Trazado 708044" d="M375.9,431.843l-45.04-4.358c-7.459-.721-14.927-1.55-22.424-1.955a39.322,39.322,0,0,0-10.952.688,58.031,58.031,0,0,0-10.04,3.616c-7.37,3.208-16.828-.236-23.511,4.289-1,.675,6.9,17.464,9.642,20.993a105.219,105.219,0,0,0,9.016,10.083q2.752,2.733,5.75,5.2a1,1,0,0,0,1.637-.446c1.579-5.062,3.4-10.08,5.388-15.009s4.316-9.727,6.56-14.564c1.072-2.311,2.1-4.7,3.393-6.914,2.326,4.1,2.015,9.378,3.54,13.8a50.223,50.223,0,0,0,3.82,7.78,41.064,41.064,0,0,1,3.339,7.908c.948,3.091,1.917,6.142,3.849,8.745a1.229,1.229,0,0,0,1.474.195c8.923-4.111,17.879-8.149,26.814-12.234a118.84,118.84,0,0,0,12.413-6.033,33.985,33.985,0,0,0,9.045-8.182,80.43,80.43,0,0,0,7.31-11.725,1.231,1.231,0,0,0-1.021-1.873" transform="translate(-53.181 -85.752)" fill="#fdf8ef"/>
            <path id="Trazado_708045" data-name="Trazado 708045" d="M376.222,264.5a49.035,49.035,0,0,0-12.14-16.033,49.785,49.785,0,0,0-7.8-5.836c-2.883-1.632-6.607-1.808-9.919-2.469-3.131-.625-6.036-1.65-9.246-1.326a1.6,1.6,0,0,0-.063-.731,2.013,2.013,0,0,0-2.462-1.087c-9.193,1.828-18.359,4.157-27.523,6.688a258.308,258.308,0,0,0-24.762,7.73c-11.521,4.47-19.877,26.638-20.88,37.658a108.765,108.765,0,0,0-.326,11.145,121.622,121.622,0,0,0,.511,12.221c2.386,21.075,3.765,16.9,5.2,36.2.652,8.8-3.608,27.945-4.555,37.121-3.452,31.205,33.44,21.184,56.769,18.731a111.807,111.807,0,0,1,15.729-.573c4.162.152,8.3.461,12.462.478,8.05.035,23.861-.343,29.922-6.416,8.405-8.42-3.884-21.813-.605-57.17.529-9.349,2.043-18.447,3.341-27.453,2.361-16.375,3.443-34.254-3.651-48.879" transform="translate(-52.626 -47.762)" fill="#f0c27a"/>
            <path id="Trazado_708046" data-name="Trazado 708046" d="M378.26,432.433a12.746,12.746,0,0,1-6.669,5.509c-3.554,1.266-7.412,1.342-11.138,1.57-7.984.488-15.978.771-23.962,1.227s-15.909,1.215-23.843,2.15a207.807,207.807,0,0,1-23.758,1.885,58.689,58.689,0,0,1-13.044-1.062,17.317,17.317,0,0,1-5.2-2.08,11.537,11.537,0,0,1-3.608-3.688.684.684,0,0,0-1.25.509c.437,3.235,3.345,5.841,6.158,7.173,3.6,1.7,7.774,1.963,11.69,2.175,8.393.454,16.788-.342,25.12-1.3,8.454-.969,16.885-1.938,25.382-2.462,8.376-.516,16.762-.8,25.139-1.293,4.46-.262,9.235-.258,13.462-1.867,3.363-1.282,6.845-3.883,7.392-7.689a1.022,1.022,0,0,0-1.868-.76" transform="translate(-53.571 -87.059)" fill="#ebaa43"/>
            <path id="Trazado_708047" data-name="Trazado 708047" d="M447.509,334.918a48.2,48.2,0,0,0-6.16-17.538,45.661,45.661,0,0,0-13.462-14.5c1.511-2.483,2.562-5.582.6-7.947-.985-1.186-2.572-1.581-3.994-2.071a6.449,6.449,0,0,1-3.256-2.319c-1.75-2.394-2.31-5.464-3.143-8.264-.928-3.121-1.966-6.209-3.163-9.232a55.281,55.281,0,0,0-9.774-16.623,40.413,40.413,0,0,0-16.479-10.906c-7.584-2.788-15.633-3.88-23.7-4.854a1.113,1.113,0,0,0-1.1,1.039.877.877,0,0,0,.231.649c-3.2,16.645,5.716,31.605,10.812,46.609,2.549,7.5,4.308,15.3,7.384,22.606a48.571,48.571,0,0,0,5.6,10.044c2.278,3.092,4.961,5.854,7.414,8.8a38.685,38.685,0,0,1,3.707,5.135c.949,1.622,1.72,3.333,2.571,5.006,1.38,2.715,3.238,5.732,6.59,5.746a16.089,16.089,0,0,0,2.122,3.474,17.9,17.9,0,0,0,3.159,3.246,20.692,20.692,0,0,0,8.705,3.654,40.093,40.093,0,0,0,12.453-.046c2.064-.278,4.118-.645,6.169-1.027,1.734-.323,3.748-.561,5-1.978,1.154-1.309,1.365-3.073,1.629-4.691a44.572,44.572,0,0,0,.516-4.8,47.391,47.391,0,0,0-.43-9.219" transform="translate(-73.254 -48.508)" fill="#f0c27a"/>
            <path id="Trazado_708048" data-name="Trazado 708048" d="M351.866,159.462c-2.337-36.422-33.027-50.433-63.206-33.125a1.422,1.422,0,0,0-.22-.07,19.565,19.565,0,0,0-14.018,1.971,18.46,18.46,0,0,0-8.16,10.448c-2.459,7.717-.18,15.525,3.586,22.294a39.35,39.35,0,0,0,2.423,7.07l62,27.948c.678-10.226,18.159-27.7,17.593-36.535m-83.179-18.7a13.184,13.184,0,0,1,10.693-12.028c-6.764,3.318-9.885,10.222-10.644,17.76a20.04,20.04,0,0,1-.05-5.731" transform="translate(-53.462 -23.979)" fill="#38312f"/>
            <path id="Trazado_708049" data-name="Trazado 708049" d="M302.2,268.572s-9.82-10.46-9.935-14.51c-.192-6.727,12.253-26.6,12.253-26.6l42.369-1.539-24.468,23.026Z" transform="translate(-58.91 -45.538)" fill="#fdf8ef"/>
            <path id="Trazado_708050" data-name="Trazado 708050" d="M339.65,180.784l4.1,50.155L309.773,255.4l-6.429-73.7Z" transform="translate(-61.143 -36.439)" fill="#eeb990"/>
            <path id="Trazado_708051" data-name="Trazado 708051" d="M304.713,268.572c9.7-25.655,44.687-42.645,44.687-42.645l5.758,19.414s-12.491,12.393-21.947,16.06c-11.262,4.367-28.5,7.171-28.5,7.171" transform="translate(-61.419 -45.538)" fill="#fdf8ef"/>
            <path id="Trazado_708052" data-name="Trazado 708052" d="M296.6,207.31c16.857,3,31.551-7.152,37.987-19.338,28.978,1.987,25.284-42.01-.6-28.919a37.2,37.2,0,0,0-7.249-14.155,27.9,27.9,0,0,0-3.345-3.386.105.105,0,0,1-.03-.028c-5.615-4.776-13.967-7.881-26.142-4.8a28.042,28.042,0,0,0-10.765,5.35A29.158,29.158,0,0,0,282.7,145.6c-16.476,18.587-13.261,56.873,13.908,61.71" transform="translate(-54.956 -27.302)" fill="#eeb990"/>
            <path id="Trazado_708053" data-name="Trazado 708053" d="M330,218.015c-2.992,1.9-5.822,3.961-9.2,5.142a28.808,28.808,0,0,1-5.1,1.272,31.131,31.131,0,0,1-5.286.479c-.849-.018-1.138,1.371-.259,1.486a21.933,21.933,0,0,0,5.647.194,26.209,26.209,0,0,0,5.593-1.306c3.583-1.273,7.268-3.163,9.614-6.23.466-.609-.376-1.44-1.012-1.036" transform="translate(-62.408 -43.922)" fill="#da893e"/>
            <path id="Trazado_708054" data-name="Trazado 708054" d="M367.338,179.977a11.864,11.864,0,0,0-2.392-1.346,6.941,6.941,0,0,0-2.817-.379,10.143,10.143,0,0,0-5.4,1.911,10.733,10.733,0,0,0-3.461,4.348,10.485,10.485,0,0,0-.773,2.668c-.137.882-.328,2.066.362,2.732a.925.925,0,0,0,1.448-.212l.038.015a2.133,2.133,0,0,0,.342-1.167,6.739,6.739,0,0,1,2.369-2.968,4.71,4.71,0,0,1,2.33-.925,2.465,2.465,0,0,1,1.879.788c.4.351,1.265.16,1.228-.49a2.63,2.63,0,0,0-2.046-2.251,5.183,5.183,0,0,0-3.92.737c-.04.023-.074.052-.114.076a7.931,7.931,0,0,1,5.621-3.1,9.357,9.357,0,0,1,4.739.469.535.535,0,0,0,.564-.907" transform="translate(-71.024 -35.926)" fill="#da893e"/>
            <path id="Trazado_708055" data-name="Trazado 708055" d="M311.437,195.136a2.533,2.533,0,0,0-.125-.55,1.175,1.175,0,0,0-.77-.789.842.842,0,0,0-.807.212,1.406,1.406,0,0,0-.394.825c.025-.134.013-.068-.01.026s-.043.158-.065.237c-.084.3-.15.589-.259.881,0,.007,0,0-.01.014-.045.075-.084.153-.13.227s-.1.147-.147.219l-.052.07-.03.038a2.489,2.489,0,0,1-.251.247c-.065.06-.135.115-.2.173a.2.2,0,0,0-.018.017.137.137,0,0,0-.018.01,4.894,4.894,0,0,1-.441.249c-.076.037-.153.071-.231.1.227-.1-.074.021-.1.03-.176.056-.355.1-.536.137-.1.021-.2.042-.295.058-.03.006-.068.01-.1.014-.359.034-.722.038-1.081.042a4.814,4.814,0,0,1-1.063-.088.914.914,0,0,0-1.036.5.806.806,0,0,0,.322,1.056,6.474,6.474,0,0,0,2.9.648,5.413,5.413,0,0,0,2.814-.885,5.233,5.233,0,0,0,1.879-2.26,2.872,2.872,0,0,0,.257-1.462" transform="translate(-61.113 -39.055)" fill="#da893e"/>
            <path id="Trazado_708056" data-name="Trazado 708056" d="M327.545,148.771a10.851,10.851,0,0,0-6.118-.085c-7.234,2.165,3,6.978,6.067,7.489,1.911.319,8.475.809,7.223-2.416-.891-2.3-4.665-4.244-7.172-4.988" transform="translate(-64.277 -29.889)" fill="#38312f"/>
            <path id="Trazado_708057" data-name="Trazado 708057" d="M282.577,149.556a5.606,5.606,0,0,0-3.487,2.14c-2.912,4.122,5.414,3.826,7.412,3.084,1.245-.463,5.2-2.478,2.773-4.295-1.729-1.3-4.89-1.306-6.7-.929" transform="translate(-56.131 -30.101)" fill="#38312f"/>
            <path id="Trazado_708058" data-name="Trazado 708058" d="M266.488,163.9a14.166,14.166,0,0,1,2.764-5.182,11.863,11.863,0,0,1,4.945-3.5,11.621,11.621,0,0,1,5.985-.554,13.7,13.7,0,0,1,5.365,2.181,17,17,0,0,1,6.533,8.9,17.783,17.783,0,0,1,.01,11.062,14.556,14.556,0,0,1-2.857,4.96,11.32,11.32,0,0,1-10.454,3.737,13.838,13.838,0,0,1-5.174-2.016,17.157,17.157,0,0,1-6.687-8.515,17.941,17.941,0,0,1-.43-11.073m7.655,18.83a10.874,10.874,0,0,0,10.016,1.429,11.528,11.528,0,0,0,6.744-7.674,16.406,16.406,0,0,0-.413-10.158,16.043,16.043,0,0,0-6.111-7.837,10.838,10.838,0,0,0-9.513-1.335,10.529,10.529,0,0,0-4.113,2.81,12.8,12.8,0,0,0-2.557,4.395,16.217,16.217,0,0,0-.01,10.147,15.894,15.894,0,0,0,5.958,8.222" transform="translate(-53.577 -31.14)" fill="#fdf8ef"/>
            <path id="Trazado_708059" data-name="Trazado 708059" d="M310.242,163.982a15.806,15.806,0,0,1,3.2-5.419,12.191,12.191,0,0,1,5.53-3.5,11.615,11.615,0,0,1,6.531.053,14.181,14.181,0,0,1,5.472,3.088,19.58,19.58,0,0,1,5.889,10.479,21.044,21.044,0,0,1-.912,12.063,15.225,15.225,0,0,1-3.44,5.247,12.027,12.027,0,0,1-5.5,3.118,11.579,11.579,0,0,1-6.138-.282,14.4,14.4,0,0,1-5.107-3.011,20.047,20.047,0,0,1-6.06-9.922,21.645,21.645,0,0,1,.539-11.91m6.129,21.182a12.47,12.47,0,0,0,4.835,2.719,9.789,9.789,0,0,0,5.521.032,10.283,10.283,0,0,0,4.641-2.986,13.948,13.948,0,0,0,2.781-4.775,19.026,19.026,0,0,0,.313-10.837,18.82,18.82,0,0,0-5.368-9.107,12.724,12.724,0,0,0-4.469-2.642,9.78,9.78,0,0,0-5.127-.261,10.086,10.086,0,0,0-4.613,2.6,13.282,13.282,0,0,0-3.025,4.6,16.354,16.354,0,0,0-1.185,5.449,22.1,22.1,0,0,0,.5,5.541,18.306,18.306,0,0,0,5.2,9.663" transform="translate(-62.306 -31.165)" fill="#fdf8ef"/>
            <path id="Trazado_708060" data-name="Trazado 708060" d="M322.468,174.889c.057,2.493,1.357,4.434,2.9,4.336s2.756-2.2,2.7-4.69-1.357-4.434-2.9-4.336-2.756,2.2-2.7,4.69" transform="translate(-64.997 -34.305)" fill="#38312f"/>
            <path id="Trazado_708061" data-name="Trazado 708061" d="M286.738,175.312c.057,2.493,1.357,4.434,2.9,4.336s2.756-2.2,2.7-4.69-1.357-4.434-2.9-4.336-2.756,2.2-2.7,4.69" transform="translate(-57.795 -34.39)" fill="#38312f"/>
            <path id="Trazado_708062" data-name="Trazado 708062" d="M301.415,172.6c.835-1.758,1.59-3.55,2.412-5.311a.731.731,0,1,0-1.262-.74,41.447,41.447,0,0,0-3.421,5.676c-.973,1.994-1.844,4.037-2.634,6.1-.7,1.827-1.311,3.861-.591,5.719.686,1.769,2.359,2.575,4.075,3.075,1.048.305,1.862-1.378.827-1.854-1.2-.553-2.724-1.258-2.918-2.742-.205-1.572.674-3.325,1.25-4.767.7-1.743,1.454-3.463,2.26-5.16" transform="translate(-59.582 -33.497)" fill="#da893e"/>
            <path id="Trazado_708063" data-name="Trazado 708063" d="M308.632,166.215a11.176,11.176,0,0,0-2.973-1.1,14.184,14.184,0,0,0-3.194-.346,12.44,12.44,0,0,0-3.24.442,10.2,10.2,0,0,0-3,1.344l.358.74a22.038,22.038,0,0,1,2.9-.7,17.93,17.93,0,0,1,2.922-.236,24.887,24.887,0,0,1,2.94.16c.975.113,1.971.275,2.93.461Z" transform="translate(-59.709 -33.212)" fill="#fdf8ef"/>
            <path id="Trazado_708064" data-name="Trazado 708064" d="M347.525,151.6c-5.355-6.853-11.28-13.429-19.139-17.608-6.9-3.672-15.334-5.3-23.2-3.166-.606.1-1.21.206-1.808.345a26.2,26.2,0,0,0-6.232,2.384,1.592,1.592,0,0,0-.768.969,2.047,2.047,0,0,0-.069,3.2,38.572,38.572,0,0,0,19.725,7.762,50.167,50.167,0,0,0,10.959-.43,16.186,16.186,0,0,1,3.82-.08c2.919,4.189,4.039,25.961,9.747,24.1,4.245-1.38,2.853-10.314,7.136-15.665a1.494,1.494,0,0,0-.172-1.818" transform="translate(-59.576 -26.177)" fill="#38312f"/>
            <path id="Trazado_708065" data-name="Trazado 708065" d="M468.9,215.908l.02,11.83s-25.219-2.929-34.052-6.469c0,0-12.448,12.591-39.327,12.409l-.826-5.235-6.031.279-.736-5.215Z" transform="translate(-78.197 -43.519)" fill="#fdf8ef"/>
            <path id="Trazado_708066" data-name="Trazado 708066" d="M378.432,130.58l3.559,75.717a2.67,2.67,0,0,0,3.035,2.5l38.406-4.462,9.267-1.074c.065,0,.121-.013.178-.016l12.031-.649a2.3,2.3,0,0,1,.378,0l2.676.206,19.833,1.534a2.942,2.942,0,0,0,3.165-2.968l-2.53-72.021a2.632,2.632,0,0,0-1.815-2.413L443.066,119.1a2.411,2.411,0,0,0-.628-.121,2.038,2.038,0,0,0-.406-.014l-8.3.424a2.235,2.235,0,0,0-.3.03l-14.987,2.336-37.521,5.854a2.927,2.927,0,0,0-2.494,2.969" transform="translate(-76.277 -23.979)" fill="#d26634"/>
            <path id="Trazado_708067" data-name="Trazado 708067" d="M468.242,210.933c.11.839.354,1.4,1.242,1.606a15.85,15.85,0,0,0,2.353.288c1.662.134,3.34.168,4.986.414,1.669.249,3.27.946,5,.59a.985.985,0,0,0,.194-.061.742.742,0,0,0,.829-.745,29.226,29.226,0,0,0-.123-3.074c-.109-.938-.205-1.862-.248-2.809s-.081-1.875-.121-2.812a2.72,2.72,0,0,0-.664-2.149,4.737,4.737,0,0,0-1.955-.679c-.824-.195-1.651-.373-2.483-.54-1.66-.333-3.33-.644-5.02-.844-1.2-.141-3.3-.73-3.822.862a11.379,11.379,0,0,0-.35,2.466c-.073.806-.1,1.615-.113,2.422a35.4,35.4,0,0,0,.3,5.066" transform="translate(-94.319 -40.291)" fill="#de8644"/>
            <path id="Trazado_708068" data-name="Trazado 708068" d="M428.55,121.757l4.984,82.582,9.267-1.074c.064,0,.121-.013.178-.016l12.031-.65a2.387,2.387,0,0,1,.378,0l2.676.205c-1.5-24.366-4.33-69.465-5.524-83.824a1.923,1.923,0,0,0-.406-.014l-8.3.424a2.109,2.109,0,0,0-.3.03Z" transform="translate(-86.38 -23.978)" fill="#38312f"/>
            <path id="Trazado_708069" data-name="Trazado 708069" d="M448.894,121.281c.3,10.3.813,20.586,1.447,30.859.628,10.16,1.135,20.331,1.665,30.5.3,5.777.7,11.545.57,17.349a.8.8,0,0,1-1.6.081c-.645-5.108-.858-10.254-1.121-15.409s-.525-10.284-.787-15.426c-.519-10.167-.9-20.347-1.436-30.512q-.456-8.672-1.095-17.322a1.184,1.184,0,0,1,2.361-.121" transform="translate(-90.004 -24.233)" fill="#494341"/>
            <path id="Trazado_708070" data-name="Trazado 708070" d="M431.334,206.68c.925,1.293,2.949,1.64,4.486,1.614a13.321,13.321,0,0,0,8.511-3.591c1.45.844,2.894,1.681,4.344,2.518a4.569,4.569,0,0,0-3.516.054c-1.151.651-1.9,2.018-2.666,3.038-1.792,2.379-3.765,4.672-5.425,7.132s-1.274,5.021-.394,7.577a3.484,3.484,0,0,0,1.911,2.415,12.8,12.8,0,0,0,.183,4.406,7.457,7.457,0,0,0,2.615,3.335,1.963,1.963,0,0,0,2.256.361c.172-.072.35-.149.522-.232-.172,3.039-.747,6.124-.8,9.133a16.448,16.448,0,0,0,1.317,7.2,10.635,10.635,0,0,0,1.072,1.835c-.01.85-.069,1.7-.141,2.544-.18,2.051-.411,4.1-.616,6.143-.428,4.267-.818,8.529-1.219,12.791-.087.926-.18,1.859-.267,2.785q-.4,4.216-.8,8.424l-.02.2c-.151,1.568-.481,3.345,1.2,4.163a17.026,17.026,0,0,0,5.083,1.138,39.782,39.782,0,0,0,5.686.351,38.021,38.021,0,0,0,5.027-.386,17.165,17.165,0,0,0,5.073-1.167.511.511,0,0,1,.067-.039,3.9,3.9,0,0,0,2.525-2.574,8.77,8.77,0,0,0-.409-4.549q-.744-2.881-1.3-5.814c-.079-.414-.157-.829-.224-1.242q-.938-5.193-1.426-10.46c-.519-5.536-.831-11.109-1.068-16.686.453-3.135,1-6.265,1.727-9.36.451-1.912.983-3.813,1.587-5.686.6-1.848,1.4-3.6,2.078-5.417a8.374,8.374,0,0,0,.39-5.461c-.258-.9-.626-1.761-.843-2.68a11.93,11.93,0,0,1-.126-2.831c-.008-2-.89-3.718-1.653-5.5-.786-1.856-1.613-3.69-2.431-5.536a1.086,1.086,0,0,0-.5-.791,73.885,73.885,0,0,0-11.18-6.193c-1.74-.791-3.479-1.645-5.267-2.32a6.281,6.281,0,0,0-4.883-.226,19.175,19.175,0,0,0-4.077,3,24.381,24.381,0,0,1-4.592,3.1c-.8.409-1.72.712-2.094,1.61a1.9,1.9,0,0,0,.273,1.872" transform="translate(-86.858 -39.645)" fill="#eeb990"/>
            <path id="Trazado_708071" data-name="Trazado 708071" d="M443.327,230.622q1.3-1.333,2.669-2.589t2.791-2.457c.809-.685,1.579-1.734,2.735-1.372a13.748,13.748,0,0,1,3.012,1.686q1.617,1.025,3.163,2.144a65.244,65.244,0,0,1,5.686,4.712c.515.466-.219,1.162-.756.786-3.606-2.517-7.431-4.767-11.189-7.063-.516-.315-.657-.544-1.194-.137-.461.347-.909.715-1.353,1.083-.832.687-1.628,1.417-2.409,2.16s-1.544,1.5-2.287,2.284a6.457,6.457,0,0,1-2.307,1.855.342.342,0,0,1-.44-.4,6.029,6.029,0,0,1,1.879-2.687" transform="translate(-88.978 -45.176)" fill="#da893e"/>
            <path id="Trazado_708072" data-name="Trazado 708072" d="M447.2,237.659a.66.66,0,0,1,.9-.045c.18.148.362.3.543.455.077-.1.151-.2.229-.3a11.241,11.241,0,0,1,.757-.854q.383-.4.783-.789a4.257,4.257,0,0,1,.514-.421,4.7,4.7,0,0,1-.01-3.009c.149-.64,1.265-.59,1.185.089a3.4,3.4,0,0,0,.484,2.478,11.385,11.385,0,0,0,1.718,1.9,21.337,21.337,0,0,0,2.208,1.873c.4.295.794.6,1.19.9a2.414,2.414,0,0,1,1,1.2.633.633,0,0,1-.533.8A4.426,4.426,0,0,1,457,243.444c-.517.571-1.011,1.165-1.479,1.774a22.369,22.369,0,0,0-2.5,4.174,29.916,29.916,0,0,0-1.582,4.459,20.538,20.538,0,0,0-.907,4.843.262.262,0,0,1-.523.027,23.3,23.3,0,0,1-.076-4.983,18.593,18.593,0,0,1,1.379-4.9,23.242,23.242,0,0,1,2.472-4.489,21.141,21.141,0,0,1,1.6-2.022,8.137,8.137,0,0,1,1.121-1.148l-.057-.049c-.422-.356-.833-.719-1.23-1.1-.775-.742-1.609-1.426-2.425-2.124a12.517,12.517,0,0,1-.954-.89l-.007.01c-.065.07-.141.136-.211.2q-.4.389-.779.794-.569.6-1.129,1.213a3.287,3.287,0,0,1,.274.466,2.627,2.627,0,0,1,.2,1.624,1.755,1.755,0,0,1-1.166,1.263.581.581,0,0,1-.749-.687c.013-.04.022-.081.034-.121l0-.01c0-.024.01-.069.011-.077l.014-.115c0-.073.074-.555.089-.644l0-.019s0-.011.007-.041a.215.215,0,0,1,.01-.052.222.222,0,0,0-.006.022,2.245,2.245,0,0,0,0-.253c-.006-.086-.016-.171-.024-.256v-.006c0-.027-.013-.086-.014-.094-.017-.077-.037-.152-.061-.227l-.029-.085c-.01-.022-.026-.059-.03-.067a3.957,3.957,0,0,0-.309-.5c-.051-.071-.1-.141-.16-.21l-.057-.062c-.03-.033-.06-.065-.091-.1-.145-.152-.294-.3-.443-.448a.621.621,0,0,1-.009-.878" transform="translate(-90.103 -46.811)" fill="#da893e"/>
            <path id="Trazado_708073" data-name="Trazado 708073" d="M448.776,243.043c0,.014-.006.027-.007.041a.153.153,0,0,1,.01-.071v.006l0,.025" transform="translate(-90.455 -48.982)" fill="#da893e"/>
            <path id="Trazado_708074" data-name="Trazado 708074" d="M441.257,226.718a16.563,16.563,0,0,1,2.688-4.3,29.092,29.092,0,0,1,3.789-3.61c1.289-1.063,2.62-2.537,4.225-3.1a.629.629,0,0,1,.171-.026.233.233,0,0,1,.033-.006h.01a.455.455,0,0,1,.057,0,5.988,5.988,0,0,1,2.917.969q1.473.762,2.9,1.6a37.391,37.391,0,0,1,5.312,3.729c.463.4-.133,1.242-.673.911-1.82-1.119-3.623-2.25-5.493-3.293q-1.363-.761-2.769-1.448a10.672,10.672,0,0,1-2.156-1.194,26.327,26.327,0,0,0-3.731,2.412,24.083,24.083,0,0,0-3.266,3.382,17.475,17.475,0,0,0-2.329,3.838,12.5,12.5,0,0,0-.687,2.043,5.232,5.232,0,0,0-.232,2.319c.22.958-1.25,1.426-1.526.47-.44-1.523.161-3.255.763-4.7" transform="translate(-88.757 -43.472)" fill="#da893e"/>
            <path id="Trazado_708075" data-name="Trazado 708075" d="M453.5,209.258c1.948.452,3.876.965,5.824,1.415q1.436.332,2.848.74a8.117,8.117,0,0,1,2.657,1.119c.335.248.053.784-.327.808a8.265,8.265,0,0,1-2.911-.528c-.928-.285-1.847-.576-2.759-.9-1.868-.661-3.757-1.259-5.624-1.918-.425-.15-.138-.836.292-.736" transform="translate(-91.307 -42.176)" fill="#da893e"/>
            <path id="Trazado_708076" data-name="Trazado 708076" d="M447.462,273.887c-.023,1.384,1.087,2.085,2.261,2.581,2.532,1.07,5.435.806,8.164.754,2.87-.056,5.863-.382,8.348-2.04a4.716,4.716,0,0,0,1.333-1.147,3.442,3.442,0,0,0,.36-2.024,31.326,31.326,0,0,0-.079-5.034.6.6,0,0,0-.691-.468.7.7,0,0,0-.588.08,17.851,17.851,0,0,1-8.487,2.5c-3.133.141-6.155-.669-9.232-.958a.717.717,0,0,0-.837.68c-.129,1.689-.525,3.378-.552,5.072" transform="translate(-90.191 -53.711)" fill="#38312f"/>
            <path id="Trazado_708077" data-name="Trazado 708077" d="M455.672,277.036l1.745-.14.793-.063c.173-.014.378-.01.571-.03.026-.124.056-.246.084-.369.046-.2.092-.4.13-.608.087-.451.153-.905.195-1.361,0-.038,0-.077.006-.116a.607.607,0,0,1-.09-.053c-.088.008-.279.012-.3.014l-.827.087-.827.088a2.305,2.305,0,0,1-1.11-.061.682.682,0,0,1-.012-1.19,2.642,2.642,0,0,1,1.171-.25l.954-.083a6.864,6.864,0,0,1,1.091-.06q0-.545-.01-1.088a5.637,5.637,0,0,0-.049-1.052c-.069-.331-.257-.231-.572-.241a9.924,9.924,0,0,1-2.618-.547.414.414,0,0,1,.2-.8,5.661,5.661,0,0,0,2.1.107,2.07,2.07,0,0,1,1.878.33,2.287,2.287,0,0,1,.474,1.668c0,.724,0,1.448-.031,2.173s-.07,1.444-.155,2.162a5.352,5.352,0,0,1-.475,2.1c-.426.7-1.4.545-2.086.56l-2.221.046a.61.61,0,0,1-.013-1.221" transform="translate(-91.726 -54.24)" fill="#605f69"/>
            <path id="Trazado_708078" data-name="Trazado 708078" d="M417.915,161.222c-.307-4.865-.632-11.851-.779-15.149a1.779,1.779,0,0,0-1.991-1.675c-9.02.887-17.784,2.024-26.743,3.567a1.952,1.952,0,0,0-1.634,1.979c.255,4.919.814,10.09,1.467,14.961a1.781,1.781,0,0,0,2.02,1.506l25.938-3.173a1.946,1.946,0,0,0,1.722-2.015" transform="translate(-77.957 -29.103)" fill="#de8644"/>
            <path id="Trazado_708079" data-name="Trazado 708079" d="M478.233,338.957a14.881,14.881,0,0,0-.734-3.584c-.179-.583-.407-1.145-.6-1.721a10.753,10.753,0,0,1-.4-2.158c-.324-2.621-.537-5.259-.855-7.881-.327-2.689-.744-5.354-1.2-8.02q-.333-1.967-.676-3.929a18.441,18.441,0,0,0-.706-3.517c-1.052-2.684-4.116-1.714-6.39-1.291L450,309.959c-1.378.256-2.754.519-4.128.8a1.137,1.137,0,0,0-.617.358.847.847,0,0,0-.783.712,36.026,36.026,0,0,1-2.023,6.928,66.781,66.781,0,0,1-3.3,6.534c-1.01,1.9-1.958,3.71-1.412,5.85a4.061,4.061,0,0,0,2.066,2.676c-.15.252-.293.519-.45.82-.4.771-.97,1.412-1.3,2.233a13.872,13.872,0,0,0-.755,2.419,5.06,5.06,0,0,0,.321,2.568,8.161,8.161,0,0,0,1.436,2.314,1.789,1.789,0,0,1,.563,1.21,6.37,6.37,0,0,1-.71,1.852,31.457,31.457,0,0,0-2.2,7.458,11.322,11.322,0,0,0-.315,3.456,3.931,3.931,0,0,0,1.534,2.45,47.341,47.341,0,0,0,5.958,4.179,30.691,30.691,0,0,0,6.879,3.13,12.823,12.823,0,0,0,7.394.388,13.453,13.453,0,0,0,5.585-3.958c1.749-1.894,3.431-3.834,5.122-5.775a67.625,67.625,0,0,0,4.84-5.881,27.8,27.8,0,0,0,3.444-6.614,18.7,18.7,0,0,0,1.087-7.11" transform="translate(-87.949 -61.745)" fill="#f0c27a"/>
            <path id="Trazado_708080" data-name="Trazado 708080" d="M472.6,298.334c-1.026-1.773-2.794-4.355-5.334-3.476,0,0,.3,1.8.369,2.254a2.216,2.216,0,0,1-.538,1.777,4.62,4.62,0,0,1-2.327,1.711,28.587,28.587,0,0,1-6.835,1.305c-3.9.386-12.183,1.531-12.429-3.886-2.854.979-2.837,4.863-3.06,5.694a24.533,24.533,0,0,0-1.072,5.2c-.077,1.772.525,3.439.521,5.2a36.969,36.969,0,0,1-.813,5.37.743.743,0,0,0,.323.7c1.158.774,2.172,1.727,3.353,2.472a11.648,11.648,0,0,0,3.618,1.562,23.964,23.964,0,0,0,8.025.157,48.712,48.712,0,0,0,8.97-1.815,2.729,2.729,0,0,0,2.034-2.6c.145-1.5.236-3.007.317-4.51.094-1.749.149-3.5.152-5.248a26,26,0,0,1,.137-3.14,19.823,19.823,0,0,1,2.213,5.735,20.886,20.886,0,0,1,.362,7.565.779.779,0,0,0,1.119.76,26.763,26.763,0,0,0,3.311-1.522q.775-.416,1.528-.869c.406-.244,1.056-.521,1.286-.945a3.9,3.9,0,0,0,.188-1.591c.022-.6.009-1.2,0-1.8a22.986,22.986,0,0,0-.272-3.381c-.71-4.517-2.894-8.785-5.148-12.678" transform="translate(-88.904 -59.396)" fill="#fdf8ef"/>
            <path id="Trazado_708081" data-name="Trazado 708081" d="M227.626,362.9q-4.192-19.813-8.384-39.625c-.663-3.139-1.294-6.288-2-9.416a26.934,26.934,0,0,0-2.821-7.895,28.287,28.287,0,0,0-5.679-6.178,53.039,53.039,0,0,1-5.326-6.077,23.214,23.214,0,0,0-2.7-2.9,15.6,15.6,0,0,0-3.7-2.2,19.374,19.374,0,0,0-7.844-1.821,39.62,39.62,0,0,0-8.729.853c-1.362.26-2.839.369-3.739,1.548a31.2,31.2,0,0,0-2.474,3.955,37.318,37.318,0,0,0-4.787,15.938c-.283,5.465-.212,10.946,1.207,16.2.842,3.12,2.122,6.215,2.486,9.457.358,3.186-1.427,6.314-1.894,9.453-.393,2.636-.572,5.283.923,7.569a5.828,5.828,0,0,0,2.768,2.312,12.675,12.675,0,0,0-.02,6.939,13.021,13.021,0,0,0,2.262,4.263c.466.631.836,1.329,1.325,1.952a22.413,22.413,0,0,1,1.929,2.323,29.227,29.227,0,0,1,2.379,5.082,28.458,28.458,0,0,0,1.963,5.179c1.765,2.965,5.28,4.924,8.6,5.827,4.584,1.246,9.274.78,13.974.13a1.341,1.341,0,0,0,1.637.051,34.51,34.51,0,0,0,5.808-4.656A41.485,41.485,0,0,0,219.5,375.3a42.558,42.558,0,0,0,3.484-6.423,32.162,32.162,0,0,0,1.294-3.381c1.493.627,3.78-.533,3.344-2.593" transform="translate(-34.127 -57.802)" fill="#f0c27a"/>
            <path id="Trazado_708082" data-name="Trazado 708082" d="M161.581,280.668c.192.009.385.014.577.02-.652-.023-.007,0,.109,0,.834-.006,1.674-.019,2.51-.063a29.942,29.942,0,0,0,4.519-.588c.263-.055.524-.116.786-.173l.071-.014c.319-.071.642-.177.949-.267.706-.208,1.409-.433,2.1-.675q1.138-.4,2.245-.879.46-.2.912-.415c.192-.091.992-.354,1.073-.536q-.6.323-.168.089c.087-.047.173-.1.259-.145q.216-.121.429-.246.511-.3,1.008-.62.9-.581,1.761-1.233.462-.352.908-.724c.136-.113.268-.23.4-.344h0c.5-.484.992-.97,1.452-1.49s.889-1.072,1.3-1.634c-4.443-7.25-15.393-25.043-17.487-27.715-3.6-4.6-10.269-5.974-16.2-6.822-3.032-.433-6.155-.479-9.089-1.294-4.305-1.2-7.9-3.956-11.94-5.8s-9.172-2.628-12.932,0a2.306,2.306,0,0,0-1.13,1.519c-.087.965.917,1.6,1.79,2.011,5.012,2.381,10.037,4.761,15.221,6.778a54.8,54.8,0,0,0-14.585,3.917c-.356.152-.774.4-.76.771.011.334.365.527.674.656,11.412,4.769,18.092,10.031,29.79,14.144.877.307,7.762,13.225,12.192,21.681.416.041.834.073,1.254.093" transform="translate(-23.382 -45.838)" fill="#eeb990"/>
            <path id="Trazado_708083" data-name="Trazado 708083" d="M85.287,234.662a1.262,1.262,0,0,1,.387-.916,5.369,5.369,0,0,1,4.3-1.675,9.635,9.635,0,0,1,4.371,1.476c-1-2.728-2.291-5.51-3.287-8.238a1.1,1.1,0,0,1-.092-.682,1.011,1.011,0,0,1,.291-.418,4.245,4.245,0,0,1,5.236-.042,11.186,11.186,0,0,1,3.172,4.443,38.523,38.523,0,0,0,4.533,7.725c-.04-3.3.121-6.385.082-9.683l-.029-2.384-.05-4.248a1.436,1.436,0,0,1,.223-.962,1.362,1.362,0,0,1,.9-.386,5.671,5.671,0,0,1,4.687,1.582,5.436,5.436,0,0,1,1.45,4.652,6.089,6.089,0,0,1,3.634,3.855,9.026,9.026,0,0,1-.046,5.06,7.37,7.37,0,0,0-.287,1.343,6.448,6.448,0,0,0,2.1,2.572c1.05.955,2.141,1.868,3.279,2.724,1.1.831,2.257,1.6,3.425,2.343.125.08.255.153.382.229,4.174,1.171,8.674.755,13.014.814a30.362,30.362,0,0,1,11.624,2.446,45.755,45.755,0,0,1,9.613,2.494,21.706,21.706,0,0,1,2.434,1.122c-1.347,2.509-2.493,5.11-3.717,7.679-.347.713-.692,1.426-1.046,2.137a3.722,3.722,0,0,0-.4,1.527c-.188.406-.359.82-.521,1.238-11.008-.949-29.923-5.991-37.053-8.314-4.179-1.361-7.911-1.966-12.168-3.1a11.122,11.122,0,0,1-4.861-2.183,10.685,10.685,0,0,1-2.41-4.389c-4.11-3-8.424-5.971-12.512-9a1.369,1.369,0,0,1-.656-.839" transform="translate(-17.19 -44.068)" fill="#eeb990"/>
            <path id="Trazado_708084" data-name="Trazado 708084" d="M113.911,225.961a1.469,1.469,0,0,1,2.258,0c.206.282-.168.657-.43.394s-.669-.067-.957.09a1.2,1.2,0,0,0-.6,1.066,19.117,19.117,0,0,0,.35,3.116,62.335,62.335,0,0,1,.077,6.3,29.051,29.051,0,0,0,.347,5.787,12.517,12.517,0,0,0,1.565,4.444,7.988,7.988,0,0,0,3.817,3.2.53.53,0,0,1-.326,1.008,7.8,7.8,0,0,1-4.166-3.177,13.731,13.731,0,0,1-2.1-4.9c-.937-4.623.358-9.451-.314-14.111-.153-1.062-.41-2.347.484-3.224" transform="translate(-22.831 -45.439)" fill="#da893e"/>
            <path id="Trazado_708085" data-name="Trazado 708085" d="M109.75,240.746c.89,2.68-.046,5.751,1.168,8.338,1.281,2.729,4.1,4.053,6.861,5.037a23.73,23.73,0,0,1,4.7,1.995.452.452,0,0,1-.38.8,52.974,52.974,0,0,1-8.859-3.392,7.086,7.086,0,0,1-3.183-3.239,12.1,12.1,0,0,1-.687-4.2,21.81,21.81,0,0,0-.687-5.086c-.2-.652.852-.891,1.063-.258" transform="translate(-21.902 -48.451)" fill="#da893e"/>
            <path id="Trazado_708086" data-name="Trazado 708086" d="M97.068,237.793c.722,1.554,1.354,3.144,2.177,4.649.4.724.786,1.45,1.16,2.187a6.857,6.857,0,0,1,.937,2.41.39.39,0,0,1-.649.347,6.784,6.784,0,0,1-1.309-2.217c-.347-.752-.674-1.511-1-2.273-.668-1.58-1.521-3.06-2.291-4.589-.3-.6.687-1.127.972-.513" transform="translate(-19.358 -47.875)" fill="#da893e"/>
            <path id="Trazado_708087" data-name="Trazado 708087" d="M128.929,246.116a13.1,13.1,0,0,0,1.6,1.282,6.313,6.313,0,0,0,1.855,1.027,10.366,10.366,0,0,0,2.081.124c.711.07,1.421.128,2.135.167.366.02.732.03,1.1.038l.018-.022a11.013,11.013,0,0,0,1.85-.049c-.021.024-.044.046-.065.069,2.418-.043,4.839-.219,7.253-.109a25.931,25.931,0,0,1,14.995,5.345,23.95,23.95,0,0,1,3.234,3.075,15.257,15.257,0,0,1,2.37,3.851c.2.447-.461,1-.786.556-.775-1.06-1.677-2.036-2.526-3.04a24.886,24.886,0,0,0-2.764-2.771,27.075,27.075,0,0,0-6.694-4.159,22.153,22.153,0,0,0-7.8-1.9c-2.879-.149-5.758.394-8.637.541l0,0a.517.517,0,0,1-.5.018c-.32.01-.64.022-.96.019a13,13,0,0,1-2.391-.246,18.154,18.154,0,0,1-2.184-.888,21.093,21.093,0,0,1-2.166-.727,6.827,6.827,0,0,1-1.9-1.379c-.534-.521.363-1.347.892-.819" transform="translate(-25.775 -49.574)" fill="#da893e"/>
            <path id="Trazado_708088" data-name="Trazado 708088" d="M211.909,292.238a8.777,8.777,0,0,0-1.081-2.377,21.058,21.058,0,0,0-1.437-2.232,25.664,25.664,0,0,0-3.6-4.019c-1.377-1.23-2.862-2.339-4.3-3.495-.786-.63-1.561-1.273-2.3-1.956a20.678,20.678,0,0,0-2.142-1.919,3.806,3.806,0,0,0-4.776.1.548.548,0,0,0-.115.634,16.541,16.541,0,0,0,1.252,2.468c-.629,1.575-2.43,2.866-3.71,3.843a25.622,25.622,0,0,1-5.275,3.054A33.853,33.853,0,0,1,172.66,289.1c-.572.028-1.166.081-1.737.055a2.053,2.053,0,0,1-1.452-.865,9.913,9.913,0,0,1-2.087-3.361.71.71,0,0,0-1.232-.185.6.6,0,0,0-.228.122,7.536,7.536,0,0,0-2.182,6.177,17.729,17.729,0,0,0,1.1,5.105s0,.007,0,.011c.3,2.287.35,4.668.454,6.98.1,2.253.136,4.511.18,6.768a19.187,19.187,0,0,0,.1,3.167c.212,1.092,1.377,1.394,2.312,1.709a21.148,21.148,0,0,0,3.178.779,10.554,10.554,0,0,0,3.346.212,9.3,9.3,0,0,0,3.293-1.562c1.174-.72,2.34-1.456,3.514-2.177a.969.969,0,0,0,.412-1.27,32.09,32.09,0,0,1-2.416-6.887,24.5,24.5,0,0,1-.787-4.8,49.68,49.68,0,0,0,3.532,5.421,24.158,24.158,0,0,1,2.181,3.7c.5,1.108.675,3.028,2.05,3.439a5.327,5.327,0,0,0,2.514-.245,26.705,26.705,0,0,0,2.706-.783c1.722-.6,3.441-1.224,5.11-1.966a25.475,25.475,0,0,0,4.609-2.491,20.827,20.827,0,0,0,3.653-3.7,49.949,49.949,0,0,0,3.531-4.635c.141-.216.278-.439.418-.66.108-.129.219-.255.326-.384q.891-1.073,1.747-2.174c.553-.712,1.289-1.406,1.111-2.362" transform="translate(-33.002 -55.52)" fill="#fdf8ef"/>
            <path id="Trazado_708089" data-name="Trazado 708089" d="M269.027,343.534c-.08-5.631-.5-11.235-.923-16.831-.8-10.471-1.539-20.991-.415-31.536A69.814,69.814,0,0,1,271.524,278c.268-.715-.67-1.293-1.04-.62-10.614,19.26-5.5,42.66-4.768,63.612.108,3.1.022,6.185.018,9.286q0,2.387-.069,4.779a42.119,42.119,0,0,0,.26,4.751c.055.645.8.617,1.012.1a20.95,20.95,0,0,0,1.255-3.688c.276-1.407.462-2.846.6-4.273a74.37,74.37,0,0,0,.231-8.414" transform="translate(-53.181 -55.85)" fill="#ebaa43"/>
            <path id="Trazado_708090" data-name="Trazado 708090" d="M423.6,320.015a3.316,3.316,0,0,0-1.794.6,12.94,12.94,0,0,0-1.345,1.234,25.952,25.952,0,0,0-2.476,2.945,25.662,25.662,0,0,0-3.382,6.625c-.75,2.114-1.315,4.317-1.977,6.479-.109-1.739-.29-3.463-.346-5.08a31.665,31.665,0,0,1,2.643-14.271,32.409,32.409,0,0,1,4.128-6.781c.853-1.071,1.794-2.068,2.614-3.165a11.4,11.4,0,0,0,1.788-3.573,1.124,1.124,0,0,0-1.364-1.365,24.419,24.419,0,0,0-13.126,11.1c-3.3,5.995-3.28,12.669-2.061,19.245.719,3.88,1.582,7.725,2.244,11.616a.966.966,0,0,0,.1.752.209.209,0,0,1-.035.013c-.368.055-.89-.8-1.09-1.028a45.3,45.3,0,0,1-3.933-5.284q-2.646-4.068-5.43-8.035a39.736,39.736,0,0,0-3.505-6.581c-1.431-2.372-2.877-4.735-4.292-7.116a134.762,134.762,0,0,1-7.8-14.7c-2.191-5-4.054-10.084-4.594-15.556a46.31,46.31,0,0,1,1.194-15.95,54,54,0,0,1,7.39-16.387c.973-1.471-1.368-2.754-2.364-1.343-6.418,9.09-9.111,20.6-8.543,31.641a59.678,59.678,0,0,0,2.275,13.4c-1.24-2.173-2.433-4.372-3.547-6.612-1.187-2.386-2.462-4.91-2.6-7.622-.143-2.788,1.276-5.417,2.382-7.893A1.239,1.239,0,0,0,372.6,276.1a13.517,13.517,0,0,0-2.831,8.4,21.225,21.225,0,0,0,2.731,8.629q2.208,4.365,4.764,8.546a23.6,23.6,0,0,0,3.878,5.044,107,107,0,0,0,5.661,10.947c1.545,2.668,3.147,5.3,4.741,7.939-2.835,9.7-1.931,19.907-.611,29.807.721,5.412,1.476,10.816,2.05,16.246.515,4.87,1.139,9.774,1.249,14.674a43.71,43.71,0,0,1-.46,7.643,30.486,30.486,0,0,1-2.419,7.5c-.44,1.011.819,2.256,1.678,1.278,3.052-3.473,4.213-8.51,4.417-13.026a71.978,71.978,0,0,0-1.214-14.437c-.878-5.593-1.713-11.191-2.389-16.813-.636-5.288-1.252-10.591-1.373-15.921a61.536,61.536,0,0,1,1.054-13.6,41.264,41.264,0,0,0,2.4,3.668c1.7,2.945,3.451,5.867,5.27,8.747,1.546,2.449,6.608,11.234,9.785,6.209.046-.073.083-.151.127-.225a1.141,1.141,0,0,0,.762-1.155c-.008-.113-.021-.227-.03-.341.065-.167.119-.338.175-.509,2.34-3.668,3.358-7.882,4.752-12a26.95,26.95,0,0,1,3.129-6.522,21.207,21.207,0,0,1,2.275-2.8c.422-.44.878-.84,1.312-1.267a4.187,4.187,0,0,0,.953-1.661.756.756,0,0,0-.835-1.087m-8.743-9.362a20.521,20.521,0,0,1,4.938-3.621c-.727.959-1.548,1.868-2.233,2.763a32.959,32.959,0,0,0-3.5,5.7,37.151,37.151,0,0,0-3.489,12.365c-.392,3.881.231,7.756.267,11.625-.965-4.518-2.226-8.994-2.26-13.648a21.085,21.085,0,0,1,6.276-15.182" transform="translate(-74.53 -51.156)" fill="#ebaa43"/>
            <path id="Trazado_708091" data-name="Trazado 708091" d="M427.989,305.412a14.121,14.121,0,0,0-9.555,4.318,31.611,31.611,0,0,0-3.626,4.208c-1.135,1.535-2.028,3.2-3.057,4.8-.575.9.8,1.6,1.405.8,1.036-1.376,2.2-2.666,3.325-3.972a31.036,31.036,0,0,1,3.61-3.626,21.085,21.085,0,0,1,8.194-4.226,1.172,1.172,0,0,0-.3-2.3" transform="translate(-82.966 -61.56)" fill="#ebaa43"/>
            <path id="Trazado_708092" data-name="Trazado 708092" d="M241.424,362.244a26.506,26.506,0,0,0-1.678-7.09,16.891,16.891,0,0,0-2.372-6.792c-1.085-1.764-3.015-2.708-4.515-4.053a8.293,8.293,0,0,1-2.444-4.43c-.937-4.02-.585-8.237-2.518-12-.3-.577-1.312-.188-1.072.437,1.316,3.425.6,7.211.854,10.784a12.479,12.479,0,0,0,1.355,5.19,11.888,11.888,0,0,0,4.258,3.919.6.6,0,0,0,.353.465c3.318,1.521,1.737,5.8.351,8.1a29.363,29.363,0,0,1-5.762,6.8,38.316,38.316,0,0,1-7.239,4.981c-1.309.7-2.658,1.337-4.031,1.906-1.324.548-2.988.968-4.019,2.015a1.008,1.008,0,0,0,.453,1.675,7.458,7.458,0,0,0,3.922-.7c1.258-.477,2.5-1.023,3.7-1.623a38.608,38.608,0,0,0,7.008-4.455,33.516,33.516,0,0,0,5.593-5.728,19.727,19.727,0,0,0,3.87-7.135c.053.345.1.691.168,1.034a12.456,12.456,0,0,1-.1,2.344c-.606,4.292-2.9,8.166-5.041,11.849a57.137,57.137,0,0,0-3.488,6.726,16.08,16.08,0,0,0-1.628,7.266,1.245,1.245,0,0,0,2.307.609c1.745-2.381,3.895-4.45,5.7-6.79a37.989,37.989,0,0,0,4.585-7.085,15.713,15.713,0,0,0,1.432-8.209m-3.844,7.654a37.933,37.933,0,0,1-3.964,6.511c-.875,1.211-1.8,2.469-2.814,3.629a20.285,20.285,0,0,1,.861-2.5,65.264,65.264,0,0,1,3.164-6.083,48.142,48.142,0,0,0,4.114-8.6,15.58,15.58,0,0,1-1.361,7.045" transform="translate(-42.865 -66.03)" fill="#ebaa43"/>
            <path id="Trazado_708093" data-name="Trazado 708093" d="M210.284,367.656a20.809,20.809,0,0,0-3.475,1.222,32.437,32.437,0,0,1-3.569,1.108,56.9,56.9,0,0,1-7.3,1.451,52.4,52.4,0,0,1-7.509.176,34.909,34.909,0,0,1-7.461-.893.924.924,0,0,0-.469,1.786,37.519,37.519,0,0,0,7.709,2.143,31.443,31.443,0,0,0,8.069,0,29.334,29.334,0,0,0,7.742-1.848c2.307-.945,5.278-2.023,6.94-3.967a.712.712,0,0,0-.678-1.181" transform="translate(-36.252 -74.103)" fill="#ebaa43"/>
            <path id="Trazado_708094" data-name="Trazado 708094" d="M252.059,338.511a24.254,24.254,0,0,0-4.65-7.8,23.857,23.857,0,0,0-3.409-3.06c-1.175-.882-2.5-1.523-3.748-2.288-1.08-.661-2.03,1.029-.969,1.707a21.024,21.024,0,0,1,3.1,2.7c.988.948,1.935,1.955,2.836,2.986a43,43,0,0,1,4.813,6.574c.605,1.04,2.486.378,2.026-.825" transform="translate(-48.137 -65.551)" fill="#ebaa43"/>
            <path id="Trazado_708095" data-name="Trazado 708095" d="M347.193,346.84a1.67,1.67,0,0,0-1.824-.769c-13.084,4.461-26.427,8.9-40.4,8.981a48.249,48.249,0,0,1-11.775-1.272.885.885,0,0,0-.449,1.712,57.646,57.646,0,0,0,20.921,1.939,102.012,102.012,0,0,0,20.973-4.419c3.124-.959,6.222-2,9.318-3.045a10.6,10.6,0,0,1-1.757,1.37q-2.137,1.45-4.411,2.684a51.946,51.946,0,0,1-9.927,4.124,52.821,52.821,0,0,1-10.392,2.028c-3.606.322-7.223.241-10.827.465a1.024,1.024,0,0,0-.259,2.006,28.547,28.547,0,0,0,9.368.913,55.7,55.7,0,0,0,27.049-8.723c2.4-1.552,6.735-4.65,4.392-7.993" transform="translate(-58.878 -69.741)" fill="#ebaa43"/>
            <path id="Trazado_708096" data-name="Trazado 708096" d="M335.47,291.955c-7.378,1.266-14.534,3.8-22.086,3.893-7.32.094-14.4-2.375-20.792-5.785a.8.8,0,0,0-.785,1.383,64.354,64.354,0,0,0,10.067,5.563,30.227,30.227,0,0,0,11.319,2.063,55.489,55.489,0,0,0,22.976-5.4c1.025-.474.277-1.887-.7-1.72" transform="translate(-58.74 -58.445)" fill="#ebaa43"/>
            <path id="Trazado_708097" data-name="Trazado 708097" d="M116.42,346.036c-3.386-3.853-9.323-4.9-14.132-3.119S93.828,348.938,92,353.73A31.092,31.092,0,0,0,90.682,368.9c.905,6.785,3.567,13.755,9.112,17.768s14.408,3.8,18.375-1.774c3.456,5.607,13.55,4.884,18.313.121,6.019-6.019,9.83-16.039,9.182-24.247a20.566,20.566,0,0,0-6.191-13.542c-6.092-5.591-16.813-6.616-23.053-1.191" transform="translate(-18.204 -68.949)" fill="#cb4d12"/>
            <path id="Trazado_708098" data-name="Trazado 708098" d="M127.213,347.879a23.594,23.594,0,0,1-2.647.776c-.909.109-1.944.272-2.665.3a16.842,16.842,0,0,1-2.513-.051,5.365,5.365,0,0,1-2.606-.994c-.6-.43-1.492.442-.922.984,1.668,1.586,3.581,3.1,5.951,3.342a7.034,7.034,0,0,0,3.558-.531,7.147,7.147,0,0,0,2.925-2.082c.519-.728-.12-1.989-1.08-1.747" transform="translate(-23.316 -70.103)" fill="#b03b00"/>
            <path id="Trazado_708099" data-name="Trazado 708099" d="M151.533,326.215c-3.881,2.819-9.244,1.887-13.911,2.992a19.137,19.137,0,0,0-13.181,12.17c4.946,1.933,11.248,3.992,16.627,1.626,6.327-2.783,10.2-10.1,10.465-16.788" transform="translate(-25.082 -65.753)" fill="#a09e46"/>
            <path id="Trazado_708100" data-name="Trazado 708100" d="M150.759,330.468a52.848,52.848,0,0,1-14.36,7.106q-1.266.4-2.555.709a18.866,18.866,0,0,0-2.743.709c-.917.375-.425,1.619.458,1.567a11.565,11.565,0,0,0,2.747-.691q1.243-.4,2.47-.847a50.6,50.6,0,0,0,5.138-2.2,51.7,51.7,0,0,0,9.183-5.936c.271-.216-.061-.616-.339-.415" transform="translate(-26.326 -66.599)" fill="#264138"/>
            <path id="Trazado_708101" data-name="Trazado 708101" d="M126.053,329.989a1.252,1.252,0,0,0-1.6.727,60.092,60.092,0,0,0-2.735,16.105c-.052,1.542,2.321,1.806,2.4.245a67.574,67.574,0,0,1,2.656-15.482,1.271,1.271,0,0,0-.727-1.6" transform="translate(-24.534 -66.499)" fill="#264138"/>
            <path id="Trazado_708102" data-name="Trazado 708102" d="M150.63,371.422a19.1,19.1,0,0,1-1.951,5.225,49.133,49.133,0,0,1-2.913,4.448,42.422,42.422,0,0,1-3.4,4.172c-.55.626-1.087,1.249-1.687,1.83-.334.323-.68.636-.982.989a10.323,10.323,0,0,0-.783,1.223.5.5,0,0,0,.481.779,7.984,7.984,0,0,0,1.425-.294,6.38,6.38,0,0,0,1.3-.758,21.03,21.03,0,0,0,2.36-1.792,22.233,22.233,0,0,0,3.694-4.572c2.067-3.266,2.787-7.394,3.278-11.165.069-.535-.717-.595-.819-.085" transform="translate(-27.984 -74.794)" fill="#b03b00"/>
            <path id="Trazado_708103" data-name="Trazado 708103" d="M104.49,347.607A11.406,11.406,0,0,0,100.156,350a13.513,13.513,0,0,0-3,4.194,19.682,19.682,0,0,0-1.327,12.056c.142.716,1.341.995,1.547.158.885-3.59.952-7.357,2.193-10.859a16.14,16.14,0,0,1,2.025-3.918,9.91,9.91,0,0,1,3.274-3.161.471.471,0,0,0-.379-.862" transform="translate(-19.236 -70.059)" fill="#faead2"/>
            <path id="Trazado_708104" data-name="Trazado 708104" d="M98.632,378.966c-.082-.344-.186-.682-.265-1.027l-.014-.068c0-.011,0-.026-.01-.046a2.342,2.342,0,0,0-.107-.432c-.057-.151-.12-.3-.175-.452-.632-1.758-1.363-1.215-1.528.585a2.721,2.721,0,0,0,.045.751,6.917,6.917,0,0,0,.3,1.263,2.851,2.851,0,0,0,.343.64,1.589,1.589,0,0,0,.268.311.834.834,0,0,0,.279.153c-.021-.007.165.029.167.03a.42.42,0,0,0,.553-.169,1.667,1.667,0,0,0,.141-1.539" transform="translate(-19.455 -75.761)" fill="#faead2"/>
            <path id="Trazado_708105" data-name="Trazado 708105" d="M150.452,358.408a2.54,2.54,0,0,0-.18-.708l-.4-.961a1.044,1.044,0,0,0-.572-.541,1.013,1.013,0,0,0-1.3.594,1.06,1.06,0,0,0,.022.763l.41.936a3.655,3.655,0,0,0,.243.423,1.37,1.37,0,0,0,.136.19c.11.126.222.248.341.366a.907.907,0,0,0,.319.229.749.749,0,0,0,.473.012.719.719,0,0,0,.335-.207.686.686,0,0,0,.2-.433c0-.222-.01-.442-.03-.663" transform="translate(-29.819 -71.784)" fill="#b03b00"/>
            <path id="Trazado_708106" data-name="Trazado 708106" d="M147.475,362.717a1.5,1.5,0,0,0-.223-.5l-.422-.755a.645.645,0,0,0-.336-.317.6.6,0,0,0-.766.348.573.573,0,0,0,.013.448l.446.759.11.187.055.093a1.137,1.137,0,0,0,.1.153,1.01,1.01,0,0,0,.132.122,1.427,1.427,0,0,0,.406.255.374.374,0,0,0,.329-.034.387.387,0,0,0,.18-.282,1.478,1.478,0,0,0-.022-.477" transform="translate(-29.365 -72.786)" fill="#b03b00"/>
            <path id="Trazado_708107" data-name="Trazado 708107" d="M151.578,364.219a3.272,3.272,0,0,0-.162-.525c-.038-.111-.076-.222-.114-.332a.7.7,0,0,0-.22-.3.956.956,0,0,0-1-.178.94.94,0,0,0-.5.524.983.983,0,0,0,.02.7c.044.108.089.216.133.323.022.05.042.1.063.151a2.222,2.222,0,0,0,.19.343l.09.141a.992.992,0,0,0,.248.249c.036.028.071.057.107.083a1.276,1.276,0,0,0,.266.134.618.618,0,0,0,.462-.013l.141-.086a.606.606,0,0,0,.188-.261l.03-.064a.939.939,0,0,0,.061-.231c.01-.047.018-.1.028-.144a1.5,1.5,0,0,0-.033-.517" transform="translate(-30.139 -73.129)" fill="#b03b00"/>
            <path id="Trazado_708108" data-name="Trazado 708108" d="M107.483,387.076c-.024-.129-.043-.26-.071-.389-.037-.172-.1-.343-.152-.512l-.23-.763a.636.636,0,0,0-.358-.339.635.635,0,0,0-.816.371l-.037.158a.626.626,0,0,0,.05.319l.226.75c.037.122.068.248.112.368s.1.243.156.363a.589.589,0,0,0,1.119-.327" transform="translate(-21.329 -77.608)" fill="#b03b00"/>
            <path id="Trazado_708109" data-name="Trazado 708109" d="M110.379,387.225c-.006-.055-.01-.112-.021-.166s-.027-.1-.041-.15c-.028-.1-.057-.208-.085-.313a.745.745,0,0,0-.159-.355l-.145-.136a.738.738,0,0,0-.356-.134.766.766,0,0,0-.817.665.741.741,0,0,0,.059.376l.093.31c.014.049.026.1.045.149s.047.1.07.152a.549.549,0,0,0,.169.228.534.534,0,0,0,.233.152l.177.042a.538.538,0,0,0,.271-.031.35.35,0,0,0,.17-.076.543.543,0,0,0,.212-.189l.086-.163a.715.715,0,0,0,.037-.359" transform="translate(-21.92 -77.796)" fill="#b03b00"/>
            <path id="Trazado_708110" data-name="Trazado 708110" d="M109.323,391.47l-.077-.145a.53.53,0,0,0-.431-.313l-.135,0a.532.532,0,0,0-.253.113.592.592,0,0,0-.192.357.527.527,0,0,0,.042.267.544.544,0,0,0,.177.219l.127.105.113.06a.371.371,0,0,0,.188.027.251.251,0,0,0,.125-.019.379.379,0,0,0,.175-.088l.091-.1c.021-.038.041-.076.061-.113a.38.38,0,0,0,.027-.188.373.373,0,0,0-.038-.187" transform="translate(-21.815 -78.813)" fill="#b03b00"/>
            <path id="Trazado_708111" data-name="Trazado 708111" d="M135.372,373.762a.638.638,0,0,0-.064-.318.645.645,0,0,0-.2-.27.621.621,0,0,0-.275-.18.843.843,0,0,0-1.086.493c-.053.16-.108.32-.16.481a4.2,4.2,0,0,0-.1.426l-.053.246a.569.569,0,0,0,.033.291.577.577,0,0,0,.135.27l.149.141a.575.575,0,0,0,.271.115.377.377,0,0,0,.192.02.575.575,0,0,0,.288-.058l.175-.107a.755.755,0,0,0,.233-.324l.117-.222c.038-.073.082-.146.114-.223.063-.153.121-.308.18-.462a.641.641,0,0,0,.046-.318" transform="translate(-26.895 -75.171)" fill="#b03b00"/>
            <path id="Trazado_708112" data-name="Trazado 708112" d="M132.727,371.528a.59.59,0,0,0-.127-.284.653.653,0,0,0-.4-.216.594.594,0,0,0-.545.247c-.034.043-.066.087-.1.13l-.067.127a.424.424,0,0,0-.03.21.271.271,0,0,0,.022.14.415.415,0,0,0,.1.2l.109.1.128.068a.621.621,0,0,0,.418-.012l.148-.072a.594.594,0,0,0,.352-.484c0-.05,0-.1,0-.152" transform="translate(-26.496 -74.785)" fill="#b03b00"/>
            <path id="Trazado_708113" data-name="Trazado 708113" d="M131.108,375.126a.493.493,0,0,0-.154-.208.487.487,0,0,0-.212-.138l-.16-.038a.654.654,0,0,0-.327.052l-.148.09a.653.653,0,0,0-.2.275c-.062.249-.135.5-.172.753a.443.443,0,0,0,.026.228.45.45,0,0,0,.106.212l.117.11a.463.463,0,0,0,.212.091.307.307,0,0,0,.152.015.448.448,0,0,0,.227-.046l.137-.085a.6.6,0,0,0,.184-.255c.022-.047.048-.093.065-.142l.052-.141.106-.287a.5.5,0,0,0,.036-.244.489.489,0,0,0-.049-.243" transform="translate(-26.149 -75.533)" fill="#b03b00"/>
            <path id="Trazado_708114" data-name="Trazado 708114" d="M134.77,448.211l-.537,8.416a5.74,5.74,0,0,1-5.683,5.326l-100.12-.411.374,6.988,102.848.259a10.185,10.185,0,0,0,10.06-9.347l1.014-14a9.132,9.132,0,0,0-9.012-9.988L26.973,434.343l.4,7.415,102.3.883a5.148,5.148,0,0,1,5.1,5.57" transform="translate(-5.437 -87.547)" fill="#bd4939"/>
            <path id="Trazado_708115" data-name="Trazado 708115" d="M31.484,443.668l.99,19.769,92.84.374a10.2,10.2,0,0,0,10.1-9.493,9.122,9.122,0,0,0-9.065-9.838Z" transform="translate(-6.346 -89.427)" fill="#dddce0"/>
            <path id="Trazado_708116" data-name="Trazado 708116" d="M197.33,452.962a18.415,18.415,0,0,1-11.522,14.96c-.088.037-.176.073-.263.1a16.945,16.945,0,0,1-1.954.6,16.4,16.4,0,0,1-4,.48l-40.14-.133.309-6.843,39.688.195c.181,0,.367,0,.544-.013s.363-.026.541-.046.334-.041.5-.067a.95.95,0,0,0,.124-.021c.146-.026.291-.052.438-.089.173-.036.347-.077.522-.13.153-.042.3-.089.454-.142a8.853,8.853,0,0,0,1.064-.421c.155-.069.306-.148.451-.222a.4.4,0,0,1,.067-.037.865.865,0,0,0,.1-.053,9.941,9.941,0,0,0,.978-.615.86.86,0,0,0,.125-.085c.183-.133.36-.265.533-.409s.347-.292.511-.447.311-.293.453-.447a.312.312,0,0,0,.047-.043c.125-.133.25-.271.37-.416s.265-.315.382-.481c.078-.1.152-.2.22-.3.1-.134.192-.273.275-.407s.17-.268.248-.407c.057-.092.109-.188.155-.279.033-.059.065-.124.1-.188.119-.237.233-.473.331-.715.034-.076.063-.151.093-.226.064-.162.128-.324.182-.491.03-.1.062-.2.093-.3s.057-.189.082-.287c.024-.081.043-.162.061-.243.027-.114.055-.228.077-.341s.043-.217.065-.325l0-.043a2.278,2.278,0,0,0,.043-.271c.019-.136.038-.276.052-.412a8.94,8.94,0,0,0-2.1-6.839,8.583,8.583,0,0,0-6.473-2.918l-40.528-.384.327-7.255,41.619.466a14.819,14.819,0,0,1,11.214,5.124,15.464,15.464,0,0,1,3.539,11.861" transform="translate(-28.107 -87.783)" fill="#d26d57"/>
            <path id="Trazado_708117" data-name="Trazado 708117" d="M189.033,454.731a8.453,8.453,0,0,1-.149.96,10.621,10.621,0,0,1-4.355,6.616,10.009,10.009,0,0,1-5.783,1.844l-42.766-.211.808-19.38,43.671.414a8.586,8.586,0,0,1,6.474,2.918,8.943,8.943,0,0,1,2.1,6.839" transform="translate(-27.408 -89.607)" fill="#fdf8ef"/>
            <path id="Trazado_708118" data-name="Trazado 708118" d="M189.124,457.2a8.452,8.452,0,0,1-.149.96L136.43,457.8l.041-.972Z" transform="translate(-27.499 -92.079)" fill="#dddce0"/>
            <path id="Trazado_708119" data-name="Trazado 708119" d="M193.053,465.543c-.145.074-.3.153-.451.222a8.99,8.99,0,0,1-1.064.422c-.154.053-.3.1-.454.141-.175.053-.349.094-.522.131-.147.037-.292.062-.438.089a.946.946,0,0,1-.124.02c-.168.026-.335.052-.5.067s-.359.036-.541.046-.363.014-.544.014l-4.468-.022.532-9.5,9.124.065Z" transform="translate(-37.077 -92.149)" fill="#38312f"/>
            <path id="Trazado_708120" data-name="Trazado 708120" d="M192.464,475.108a16.382,16.382,0,0,1-4,.48l-4.994-.017.382-6.787,4.468.022c.181,0,.367,0,.544-.014s.364-.025.541-.046.333-.041.5-.067a.837.837,0,0,0,.124-.021c.146-.026.292-.051.439-.088.173-.037.347-.078.521-.131.153-.042.3-.089.454-.141a8.989,8.989,0,0,0,1.064-.422c.156-.069.307-.148.451-.222Z" transform="translate(-36.98 -94.262)" fill="#38312f"/>
            <path id="Trazado_708121" data-name="Trazado 708121" d="M196.726,469.3l-5.274-3.126-3.712,3.088-3.123-12.086,9.123.065Z" transform="translate(-37.212 -92.149)" fill="#ebaa43"/>
            <path id="Trazado_708122" data-name="Trazado 708122" d="M155.993,413.894q0,.255-.023.51a7.456,7.456,0,0,1-2.3,4.79,6.8,6.8,0,0,1-4.758,1.923L41.42,419.756l.306,7.5,107.139,1.173a14.119,14.119,0,0,0,9.328-3.492c.185-.152.366-.315.54-.48a15.719,15.719,0,0,0,4.843-9.941c.015-.17.03-.339.034-.509.023-.327.029-.654.028-.975a13.979,13.979,0,0,0-1.031-5.207v-.006a12.655,12.655,0,0,0-11.59-8.036L40.526,397.821l.32,7.845L149.934,407.4a6.159,6.159,0,0,1,6,5.512,7.282,7.282,0,0,1,.058.979" transform="translate(-8.169 -80.186)" fill="#3b314b"/>
            <path id="Trazado_708123" data-name="Trazado 708123" d="M46.256,407.728l.51,14.075,103.3,1.309a6.8,6.8,0,0,0,4.758-1.923,7.456,7.456,0,0,0,2.3-4.791,6.259,6.259,0,0,0-6.035-7Z" transform="translate(-9.323 -82.183)" fill="#dddce0"/>
            <path id="Trazado_708124" data-name="Trazado 708124" d="M186.046,414.427c0,.157-.011.314-.026.477a7.544,7.544,0,0,1-2.345,4.778,7.058,7.058,0,0,1-3.139,1.728,6.392,6.392,0,0,1-1.618.191l-43.366-.55-.292,7.362,43.526.476a14.307,14.307,0,0,0,9.865-3.961,15.811,15.811,0,0,0,4.937-9.914c.8-7.925-4.7-14.557-12.321-14.693l-44.859-.794-.306,7.7,44,.7c.151,0,.3.011.446.026a1.29,1.29,0,0,1,.221.023,2.891,2.891,0,0,1,.328.049,3.628,3.628,0,0,1,.445.1l.165.041a.02.02,0,0,0,.018.006,5.862,5.862,0,0,1,1.7.817c.069.046.136.1.2.149a5.78,5.78,0,0,1,.888.84,4.327,4.327,0,0,1,.3.372,5.33,5.33,0,0,1,.3.442v.006a3.488,3.488,0,0,1,.263.479,4.046,4.046,0,0,1,.224.5,4.821,4.821,0,0,1,.162.458c.013.051.032.108.045.159a4.194,4.194,0,0,1,.113.462c0,.006,0,.006,0,.013a5.473,5.473,0,0,1,.086.556c.017.145.032.3.037.441a5.163,5.163,0,0,1,.01.535Z" transform="translate(-27.263 -80.529)" fill="#5f5384"/>
            <path id="Trazado_708125" data-name="Trazado 708125" d="M141.31,409.251l-.609,13.814,39.313.5a6.84,6.84,0,0,0,4.756-1.918,7.541,7.541,0,0,0,2.346-4.778c.015-.169.026-.339.029-.509a7.119,7.119,0,0,0-.046-.976,6.044,6.044,0,0,0-5.9-5.5Z" transform="translate(-28.36 -82.49)" fill="#dddce0"/>
            <path id="Trazado_708126" data-name="Trazado 708126" d="M141.31,409.248l-.609,13.814,36.444.462a6.144,6.144,0,0,0,4.42-1.924,7.822,7.822,0,0,0,2.191-4.783c.015-.169.025-.339.029-.509a7.686,7.686,0,0,0-.04-.977c-.326-3.092-2.551-5.449-5.46-5.495Z" transform="translate(-28.36 -82.489)" fill="#fdf8ef"/>
            <path id="Trazado_708127" data-name="Trazado 708127" d="M138.287,416.042l-.041.986,48.405.7a7.107,7.107,0,0,0-.047-.976Z" transform="translate(-27.865 -83.858)" fill="#dddce0"/>
            <path id="Trazado_708128" data-name="Trazado 708128" d="M175.074,426.984l.276,7.313,10.06.11-.1-3.6-.1-3.7Z" transform="translate(-35.288 -86.064)" fill="#38312f"/>
            <path id="Trazado_708129" data-name="Trazado 708129" d="M174.675,416.574l.037.98.282,7.332,10.142.129-.2-7.313-.026-.978Z" transform="translate(-35.208 -83.966)" fill="#38312f"/>
            <path id="Trazado_708130" data-name="Trazado 708130" d="M188.361,430.722l-5.934-3.658-4.13,3.543-3.622-14.029,10.235.149Z" transform="translate(-35.208 -83.967)" fill="#cb4d12"/>
            <rect id="Rectángulo_346842" data-name="Rectángulo 346842" width="216.892" height="25.343" transform="translate(4.536 380.38)" fill="#f0c27a"/>
            <rect id="Rectángulo_346843" data-name="Rectángulo 346843" width="96.937" height="25.343" transform="translate(4.535 380.38)" fill="#ebaa43"/>
          </g>
        </g>
      </g>
    </g>
  </g>
</svg>
