<svg xmlns="http://www.w3.org/2000/svg" xmlns:xlink="http://www.w3.org/1999/xlink" width="417.999" height="83.999" viewBox="0 0 417.999 83.999">
  <defs>
    <filter id="Uni贸n_1" x="0" y="0" width="417.999" height="83.999" filterUnits="userSpaceOnUse">
      <feOffset dy="3" input="SourceAlpha"/>
      <feGaussianBlur stdDeviation="3" result="blur"/>
      <feFlood flood-opacity="0.161"/>
      <feComposite operator="in" in2="blur"/>
      <feComposite in="SourceGraphic"/>
    </filter>
  </defs>
  <g id="Grupo_1003735" data-name="Grupo 1003735" transform="translate(-548.5 -2213.863)">
    <g id="Grupo_1003716" data-name="Grupo 1003716" transform="translate(-42.5 550.862)">
      <g id="Grupo_1003570" data-name="Grupo 1003570" transform="translate(0 -767)">
        <g transform="matrix(1, 0, 0, 1, 591, 2430)" filter="url(#Uni贸n_1)">
          <path id="Uni贸n_1-2" data-name="Uni贸n 1" d="M-595,12786h34l-17,21Zm-160.5,0a22.5,22.5,0,0,1-22.5-22.5,22.5,22.5,0,0,1,22.5-22.5h355a22.5,22.5,0,0,1,22.5,22.5,22.5,22.5,0,0,1-22.5,22.5Z" transform="translate(787 -12735)" fill="#112e4c"/>
        </g>
      </g>
      <path id="Trazado_715357" data-name="Trazado 715357" d="M-133.493-5.546h-5.062v3.428h5.941V0h-8.578V-12.8h8.561v2.136h-5.924v3.05h5.063Zm7.409,2.918a.818.818,0,0,0-.461-.734,5.241,5.241,0,0,0-1.481-.479q-3.393-.712-3.393-2.883a2.613,2.613,0,0,1,1.05-2.114,4.237,4.237,0,0,1,2.747-.848,4.56,4.56,0,0,1,2.9.853,2.687,2.687,0,0,1,1.085,2.215h-2.54a1.229,1.229,0,0,0-.352-.9,1.488,1.488,0,0,0-1.1-.356,1.52,1.52,0,0,0-.993.29.916.916,0,0,0-.352.738.783.783,0,0,0,.4.681,4.114,4.114,0,0,0,1.349.448,11.019,11.019,0,0,1,1.6.426,2.628,2.628,0,0,1,2.013,2.558,2.481,2.481,0,0,1-1.116,2.1,4.815,4.815,0,0,1-2.883.8,5.029,5.029,0,0,1-2.123-.426,3.561,3.561,0,0,1-1.455-1.169,2.716,2.716,0,0,1-.527-1.6h2.408a1.326,1.326,0,0,0,.5,1.037,1.987,1.987,0,0,0,1.248.36,1.839,1.839,0,0,0,1.1-.277A.861.861,0,0,0-126.083-2.628Zm7.146-9.22V-9.51h1.626v1.863h-1.626V-2.9a1.133,1.133,0,0,0,.2.756,1.015,1.015,0,0,0,.773.229,4.051,4.051,0,0,0,.747-.062V-.053a5.229,5.229,0,0,1-1.538.229,2.425,2.425,0,0,1-2.725-2.7V-7.646h-1.389V-9.51h1.389v-2.338Zm8.385,4.72a6.9,6.9,0,0,0-.914-.07,1.86,1.86,0,0,0-1.89.976V0h-2.54V-9.51h2.4l.07,1.134a2.354,2.354,0,0,1,2.118-1.31,2.662,2.662,0,0,1,.791.114Zm6.917,6.161a3.185,3.185,0,0,1-2.6,1.143A3,3,0,0,1-108.571-.7a3.752,3.752,0,0,1-.822-2.575V-9.51h2.54v6.144q0,1.485,1.354,1.485a1.835,1.835,0,0,0,1.775-.9V-9.51h2.549V0h-2.391Zm8.332-.905a1.666,1.666,0,0,0,1.143-.387A1.355,1.355,0,0,0-93.7-3.287h2.382a3.258,3.258,0,0,1-.527,1.771A3.48,3.48,0,0,1-93.27-.268,4.442,4.442,0,0,1-95.26.176a4.129,4.129,0,0,1-3.217-1.3A5.13,5.13,0,0,1-99.655-4.7v-.167a5.071,5.071,0,0,1,1.169-3.507,4.08,4.08,0,0,1,3.208-1.31A4,4,0,0,1-92.417-8.67a3.594,3.594,0,0,1,1.094,2.7H-93.7a1.731,1.731,0,0,0-.457-1.2,1.528,1.528,0,0,0-1.16-.461,1.531,1.531,0,0,0-1.34.646,3.739,3.739,0,0,0-.453,2.1v.264a3.786,3.786,0,0,0,.448,2.109A1.55,1.55,0,0,0-95.3-1.872Zm8.473-9.976V-9.51h1.626v1.863h-1.626V-2.9a1.133,1.133,0,0,0,.2.756,1.015,1.015,0,0,0,.773.229,4.051,4.051,0,0,0,.747-.062V-.053a5.229,5.229,0,0,1-1.538.229,2.425,2.425,0,0,1-2.725-2.7V-7.646H-90.76V-9.51h1.389v-2.338ZM-78.1-.967A3.185,3.185,0,0,1-80.7.176,3,3,0,0,1-83.03-.7a3.752,3.752,0,0,1-.822-2.575V-9.51h2.54v6.144q0,1.485,1.354,1.485a1.835,1.835,0,0,0,1.775-.9V-9.51h2.549V0h-2.391Zm9.721-6.161a6.9,6.9,0,0,0-.914-.07,1.86,1.86,0,0,0-1.89.976V0h-2.54V-9.51h2.4l.07,1.134a2.354,2.354,0,0,1,2.118-1.31,2.662,2.662,0,0,1,.791.114ZM-61.906,0a2.821,2.821,0,0,1-.255-.853A3.073,3.073,0,0,1-64.56.176a3.376,3.376,0,0,1-2.316-.809,2.6,2.6,0,0,1-.918-2.039,2.687,2.687,0,0,1,1.121-2.32,5.529,5.529,0,0,1,3.239-.817h1.169v-.545A1.567,1.567,0,0,0-62.6-7.409a1.331,1.331,0,0,0-1.068-.4,1.513,1.513,0,0,0-1.006.308,1.045,1.045,0,0,0-.365.844h-2.54a2.551,2.551,0,0,1,.51-1.529,3.37,3.37,0,0,1,1.441-1.1,5.253,5.253,0,0,1,2.092-.4A4.15,4.15,0,0,1-60.75-8.8a3.09,3.09,0,0,1,1.033,2.483V-2.2a4.546,4.546,0,0,0,.378,2.048V0Zm-2.1-1.767a2.188,2.188,0,0,0,1.037-.25,1.645,1.645,0,0,0,.7-.672V-4.324h-.949q-1.907,0-2.03,1.318l-.009.149a1.017,1.017,0,0,0,.334.782A1.3,1.3,0,0,0-64.006-1.767Zm11.391-.861a.818.818,0,0,0-.461-.734,5.241,5.241,0,0,0-1.481-.479q-3.393-.712-3.393-2.883A2.613,2.613,0,0,1-56.9-8.837a4.237,4.237,0,0,1,2.747-.848,4.56,4.56,0,0,1,2.9.853,2.687,2.687,0,0,1,1.085,2.215h-2.54a1.229,1.229,0,0,0-.352-.9,1.488,1.488,0,0,0-1.1-.356,1.52,1.52,0,0,0-.993.29.916.916,0,0,0-.352.738.783.783,0,0,0,.4.681,4.114,4.114,0,0,0,1.349.448,11.019,11.019,0,0,1,1.6.426,2.628,2.628,0,0,1,2.013,2.558,2.481,2.481,0,0,1-1.116,2.1,4.815,4.815,0,0,1-2.883.8A5.029,5.029,0,0,1-56.268-.25a3.561,3.561,0,0,1-1.455-1.169,2.716,2.716,0,0,1-.527-1.6h2.408a1.326,1.326,0,0,0,.5,1.037,1.987,1.987,0,0,0,1.248.36,1.839,1.839,0,0,0,1.1-.277A.861.861,0,0,0-52.616-2.628Zm8.191-2.2a5.731,5.731,0,0,1,1-3.542A3.237,3.237,0,0,1-40.7-9.686,2.913,2.913,0,0,1-38.4-8.648V-13.5h2.549V0h-2.294l-.123-1.011A2.989,2.989,0,0,1-40.715.176a3.228,3.228,0,0,1-2.694-1.323A5.916,5.916,0,0,1-44.424-4.825Zm2.54.185a3.744,3.744,0,0,0,.466,2.048,1.518,1.518,0,0,0,1.354.712A1.7,1.7,0,0,0-38.4-2.874V-6.627a1.676,1.676,0,0,0-1.644-.993Q-41.884-7.62-41.884-4.641ZM-29.509.176a4.668,4.668,0,0,1-3.406-1.283,4.561,4.561,0,0,1-1.314-3.419v-.246a5.745,5.745,0,0,1,.554-2.562,4.064,4.064,0,0,1,1.569-1.74,4.4,4.4,0,0,1,2.316-.611,3.947,3.947,0,0,1,3.072,1.23A5,5,0,0,1-25.6-4.966v1.037h-6.056a2.36,2.36,0,0,0,.743,1.494,2.245,2.245,0,0,0,1.569.563,2.742,2.742,0,0,0,2.294-1.063l1.248,1.4A3.813,3.813,0,0,1-27.347-.277,5.075,5.075,0,0,1-29.509.176Zm-.29-7.8a1.591,1.591,0,0,0-1.226.51,2.634,2.634,0,0,0-.6,1.459h3.533v-.2a1.878,1.878,0,0,0-.457-1.305A1.642,1.642,0,0,0-29.8-7.629ZM-16.994,0h-2.549V-13.5h2.549Zm7.6,0a2.821,2.821,0,0,1-.255-.853,3.073,3.073,0,0,1-2.4,1.028,3.376,3.376,0,0,1-2.316-.809,2.6,2.6,0,0,1-.918-2.039,2.687,2.687,0,0,1,1.121-2.32A5.529,5.529,0,0,1-10.92-5.81h1.169v-.545a1.567,1.567,0,0,0-.338-1.055,1.331,1.331,0,0,0-1.068-.4,1.513,1.513,0,0,0-1.006.308,1.045,1.045,0,0,0-.365.844h-2.54a2.551,2.551,0,0,1,.51-1.529,3.37,3.37,0,0,1,1.441-1.1,5.253,5.253,0,0,1,2.092-.4A4.15,4.15,0,0,1-8.235-8.8,3.09,3.09,0,0,1-7.2-6.319V-2.2A4.546,4.546,0,0,0-6.825-.149V0Zm-2.1-1.767a2.188,2.188,0,0,0,1.037-.25,1.645,1.645,0,0,0,.7-.672V-4.324H-10.7q-1.907,0-2.03,1.318l-.009.149a1.017,1.017,0,0,0,.334.782A1.3,1.3,0,0,0-11.492-1.767ZM1.912,0H-.637V-13.5H1.912ZM6.684,0H4.135V-9.51H6.684Zm-2.7-11.971a1.251,1.251,0,0,1,.382-.94A1.436,1.436,0,0,1,5.41-13.28a1.44,1.44,0,0,1,1.037.369,1.244,1.244,0,0,1,.387.94,1.247,1.247,0,0,1-.391.949,1.443,1.443,0,0,1-1.033.369,1.443,1.443,0,0,1-1.033-.369A1.247,1.247,0,0,1,3.986-11.971ZM11.114-9.51l.079,1.1a3.32,3.32,0,0,1,2.733-1.274,2.759,2.759,0,0,1,2.25.888,4.142,4.142,0,0,1,.756,2.654V0h-2.54V-6.082a1.648,1.648,0,0,0-.352-1.173,1.574,1.574,0,0,0-1.169-.365,1.747,1.747,0,0,0-1.608.914V0H8.723V-9.51Zm7.374,4.685A5.573,5.573,0,0,1,19.529-8.35a3.375,3.375,0,0,1,2.808-1.336,2.96,2.96,0,0,1,2.435,1.072l.105-.9h2.3V-.316a4.064,4.064,0,0,1-.567,2.171,3.641,3.641,0,0,1-1.6,1.406,5.608,5.608,0,0,1-2.408.483,5.215,5.215,0,0,1-2.039-.417,3.619,3.619,0,0,1-1.5-1.077L20.193.7a2.975,2.975,0,0,0,2.3,1.063,2.178,2.178,0,0,0,1.573-.541,2.027,2.027,0,0,0,.563-1.534v-.51A2.938,2.938,0,0,1,22.32.176a3.366,3.366,0,0,1-2.773-1.34A5.572,5.572,0,0,1,18.488-4.72Zm2.54.185a3.461,3.461,0,0,0,.519,2.026,1.65,1.65,0,0,0,1.424.734,1.764,1.764,0,0,0,1.661-.87v-4a1.76,1.76,0,0,0-1.644-.87,1.661,1.661,0,0,0-1.437.747A3.9,3.9,0,0,0,21.028-4.641Zm13.8,3.674a3.185,3.185,0,0,1-2.6,1.143A3,3,0,0,1,29.892-.7a3.752,3.752,0,0,1-.822-2.575V-9.51h2.54v6.144q0,1.485,1.354,1.485a1.835,1.835,0,0,0,1.775-.9V-9.51h2.549V0H34.9ZM32.26-12a1.036,1.036,0,0,1-.343.787,1.235,1.235,0,0,1-.879.321,1.206,1.206,0,0,1-.879-.325A1.053,1.053,0,0,1,29.826-12a1.067,1.067,0,0,1,.334-.787,1.2,1.2,0,0,1,.879-.33,1.212,1.212,0,0,1,.883.33A1.06,1.06,0,0,1,32.26-12Zm1.846,0a1.028,1.028,0,0,1,.356-.8,1.247,1.247,0,0,1,.866-.321,1.217,1.217,0,0,1,.866.325,1.043,1.043,0,0,1,.347.791,1.067,1.067,0,0,1-.334.787,1.2,1.2,0,0,1-.879.33,1.212,1.212,0,0,1-.883-.33A1.06,1.06,0,0,1,34.106-12Zm7.84,12h-2.54V-9.51h2.54ZM41.2-13.368h2.769l-2.435,2.725H39.467Zm8.086,10.74a.818.818,0,0,0-.461-.734,5.241,5.241,0,0,0-1.481-.479Q43.95-4.553,43.95-6.724A2.613,2.613,0,0,1,45-8.837a4.237,4.237,0,0,1,2.747-.848,4.56,4.56,0,0,1,2.9.853,2.687,2.687,0,0,1,1.085,2.215h-2.54a1.229,1.229,0,0,0-.352-.9,1.488,1.488,0,0,0-1.1-.356,1.52,1.52,0,0,0-.993.29.916.916,0,0,0-.352.738.783.783,0,0,0,.4.681,4.114,4.114,0,0,0,1.349.448,11.019,11.019,0,0,1,1.6.426,2.628,2.628,0,0,1,2.013,2.558,2.481,2.481,0,0,1-1.116,2.1,4.815,4.815,0,0,1-2.883.8A5.029,5.029,0,0,1,45.633-.25a3.561,3.561,0,0,1-1.455-1.169,2.716,2.716,0,0,1-.527-1.6h2.408a1.326,1.326,0,0,0,.5,1.037,1.987,1.987,0,0,0,1.248.36,1.839,1.839,0,0,0,1.1-.277A.861.861,0,0,0,49.285-2.628Zm7.146-9.22V-9.51h1.626v1.863H56.43V-2.9a1.133,1.133,0,0,0,.2.756,1.015,1.015,0,0,0,.773.229,4.051,4.051,0,0,0,.747-.062V-.053a5.229,5.229,0,0,1-1.538.229,2.425,2.425,0,0,1-2.725-2.7V-7.646H52.5V-9.51H53.89v-2.338ZM62.152,0H59.6V-9.51h2.549Zm-2.7-11.971a1.251,1.251,0,0,1,.382-.94,1.436,1.436,0,0,1,1.042-.369,1.44,1.44,0,0,1,1.037.369,1.244,1.244,0,0,1,.387.94,1.247,1.247,0,0,1-.391.949,1.443,1.443,0,0,1-1.033.369,1.443,1.443,0,0,1-1.033-.369A1.247,1.247,0,0,1,59.454-11.971ZM68.2-1.872a1.666,1.666,0,0,0,1.143-.387A1.355,1.355,0,0,0,69.8-3.287H72.18a3.258,3.258,0,0,1-.527,1.771A3.48,3.48,0,0,1,70.233-.268a4.442,4.442,0,0,1-1.991.444,4.129,4.129,0,0,1-3.217-1.3A5.13,5.13,0,0,1,63.848-4.7v-.167a5.071,5.071,0,0,1,1.169-3.507,4.08,4.08,0,0,1,3.208-1.31A4,4,0,0,1,71.086-8.67a3.594,3.594,0,0,1,1.094,2.7H69.8a1.731,1.731,0,0,0-.457-1.2,1.528,1.528,0,0,0-1.16-.461,1.531,1.531,0,0,0-1.34.646,3.739,3.739,0,0,0-.453,2.1v.264a3.786,3.786,0,0,0,.448,2.109A1.55,1.55,0,0,0,68.2-1.872ZM79.141,0a2.821,2.821,0,0,1-.255-.853,3.073,3.073,0,0,1-2.4,1.028,3.376,3.376,0,0,1-2.316-.809,2.6,2.6,0,0,1-.918-2.039,2.687,2.687,0,0,1,1.121-2.32,5.529,5.529,0,0,1,3.239-.817h1.169v-.545a1.567,1.567,0,0,0-.338-1.055,1.331,1.331,0,0,0-1.068-.4,1.513,1.513,0,0,0-1.006.308A1.045,1.045,0,0,0,76-6.653h-2.54a2.551,2.551,0,0,1,.51-1.529,3.37,3.37,0,0,1,1.441-1.1,5.253,5.253,0,0,1,2.092-.4A4.15,4.15,0,0,1,80.3-8.8,3.09,3.09,0,0,1,81.33-6.319V-2.2a4.546,4.546,0,0,0,.378,2.048V0Zm-2.1-1.767a2.188,2.188,0,0,0,1.037-.25,1.645,1.645,0,0,0,.7-.672V-4.324h-.949q-1.907,0-2.03,1.318l-.009.149a1.017,1.017,0,0,0,.334.782A1.3,1.3,0,0,0,77.041-1.767ZM90.8-11.848V-9.51H92.43v1.863H90.8V-2.9a1.133,1.133,0,0,0,.2.756,1.015,1.015,0,0,0,.773.229,4.051,4.051,0,0,0,.747-.062V-.053a5.229,5.229,0,0,1-1.538.229,2.425,2.425,0,0,1-2.725-2.7V-7.646H86.875V-9.51h1.389v-2.338ZM98.222.176a4.668,4.668,0,0,1-3.406-1.283A4.561,4.561,0,0,1,93.5-4.526v-.246a5.745,5.745,0,0,1,.554-2.562,4.064,4.064,0,0,1,1.569-1.74,4.4,4.4,0,0,1,2.316-.611,3.947,3.947,0,0,1,3.072,1.23,5,5,0,0,1,1.121,3.489v1.037H96.078a2.36,2.36,0,0,0,.743,1.494,2.245,2.245,0,0,0,1.569.563,2.742,2.742,0,0,0,2.294-1.063l1.248,1.4a3.813,3.813,0,0,1-1.547,1.261A5.075,5.075,0,0,1,98.222.176Zm-.29-7.8a1.591,1.591,0,0,0-1.226.51,2.634,2.634,0,0,0-.6,1.459h3.533v-.2a1.878,1.878,0,0,0-.457-1.305A1.642,1.642,0,0,0,97.932-7.629Zm9.264.958,1.6-2.839h2.716L108.8-4.852,111.625,0H108.9l-1.7-2.988L105.517,0h-2.733L105.6-4.852l-2.7-4.658h2.725Zm8.578-5.177V-9.51H117.4v1.863h-1.626V-2.9a1.133,1.133,0,0,0,.2.756,1.015,1.015,0,0,0,.773.229,4.051,4.051,0,0,0,.747-.062V-.053a5.229,5.229,0,0,1-1.538.229,2.425,2.425,0,0,1-2.725-2.7V-7.646h-1.389V-9.51h1.389v-2.338ZM124.51-.967a3.185,3.185,0,0,1-2.6,1.143A3,3,0,0,1,119.575-.7a3.752,3.752,0,0,1-.822-2.575V-9.51h2.54v6.144q0,1.485,1.354,1.485a1.835,1.835,0,0,0,1.775-.9V-9.51h2.549V0h-2.391ZM134.4,0a2.821,2.821,0,0,1-.255-.853,3.073,3.073,0,0,1-2.4,1.028,3.376,3.376,0,0,1-2.316-.809,2.6,2.6,0,0,1-.918-2.039,2.687,2.687,0,0,1,1.121-2.32,5.529,5.529,0,0,1,3.239-.817h1.169v-.545a1.567,1.567,0,0,0-.338-1.055,1.331,1.331,0,0,0-1.068-.4,1.513,1.513,0,0,0-1.006.308,1.045,1.045,0,0,0-.365.844h-2.54a2.551,2.551,0,0,1,.51-1.529,3.37,3.37,0,0,1,1.441-1.1,5.253,5.253,0,0,1,2.092-.4,4.15,4.15,0,0,1,2.791.883,3.09,3.09,0,0,1,1.033,2.483V-2.2a4.546,4.546,0,0,0,.378,2.048V0Zm-2.1-1.767a2.188,2.188,0,0,0,1.037-.25,1.645,1.645,0,0,0,.7-.672V-4.324h-.949q-1.907,0-2.03,1.318l-.009.149a1.017,1.017,0,0,0,.334.782A1.3,1.3,0,0,0,132.3-1.767ZM141.218,0h-2.549V-13.5h2.549Z" transform="translate(800 1698)" fill="#fff"/>
    </g>
  </g>
</svg>
