<svg xmlns="http://www.w3.org/2000/svg" xmlns:xlink="http://www.w3.org/1999/xlink" width="1030" height="548.031" viewBox="0 0 1030 548.031">
  <defs>
    <clipPath id="clip-path">
      <path id="Trazado_708134" data-name="Trazado 708134" d="M0,0,25.887.646l1.046,43.12L1.046,43.12Z" fill="#cceafb"/>
    </clipPath>
  </defs>
  <g id="Grupo_1003733" data-name="Grupo 1003733" transform="translate(-285 -2286.145)">
    <g id="Grupo_1003637" data-name="Grupo 1003637" transform="translate(0 -522.137)">
      <g id="Grupo_1003632" data-name="Grupo 1003632">
        <path id="Trazado_696388" data-name="Trazado 696388" d="M0,0H1030V545.1H0Z" transform="translate(285 2811.209)" fill="#fdfeff"/>
        <path id="Sustracción_24" data-name="Sustracción 24" d="M773.192,450H3.809A405.713,405.713,0,0,1,0,394.536c0-13.458.675-27.03,2.006-40.339C3.318,341.08,5.3,327.9,7.893,315.023a395.592,395.592,0,0,1,105.9-199.466,392.661,392.661,0,0,1,57.5-48.176A386.706,386.706,0,0,1,237.279,31a381.378,381.378,0,0,1,111.5-28.968,388.33,388.33,0,0,1,79.444,0A382.854,382.854,0,0,1,605.714,67.38,394.946,394.946,0,0,1,746.47,240.964a397.033,397.033,0,0,1,22.637,74.058c2.595,12.877,4.575,26.057,5.887,39.174,1.331,13.309,2.006,26.881,2.006,40.339A405.73,405.73,0,0,1,773.192,450Z" transform="translate(411 2903.281)" fill="#e1f3fc" opacity="0.7"/>
        <circle id="Elipse_4852" data-name="Elipse 4852" cx="102" cy="102" r="102" transform="translate(299 2808.281)" fill="#e8f6fd"/>
        <path id="Trazado_696389" data-name="Trazado 696389" d="M139.955,23.992l29.13,73.12-23.32,6.01ZM140.814,0,129.2,3l8.659,146.568.082.358,11.362-2.929-2.522-32.437,26.373-6.8L185,137.79l11.7-3.016Z" transform="translate(260.803 3031.027)" fill="#cceafb"/>
        <path id="Trazado_696390" data-name="Trazado 696390" d="M133.373,9.313,144.68,37.7l-9.052,2.333ZM133.706,0,129.2,1.163l3.361,56.894.032.139L137,57.058l-.979-12.591,10.237-2.639,4.6,11.658,4.542-1.171Z" transform="translate(815.201 3046.29)" fill="#e8e8e8"/>
        <path id="Trazado_696391" data-name="Trazado 696391" d="M184.356,206.337l-1.291,5.5,10.309,2.711-15.14,64.488,5.873,1.545,15.14-64.488,10.225,2.69,1.291-5.5Z" transform="translate(146.005 2964.75)" fill="#cceafb"/>
        <path id="Trazado_696392" data-name="Trazado 696392" d="M364.57,271.7a5.284,5.284,0,0,0-3.487-2.454l-24.407-5.694-16.444,78.966,24.6,5.739a5.041,5.041,0,0,0,4.139-.674,5.62,5.62,0,0,0,2.318-3.692l5.59-26.844a5.855,5.855,0,0,0-1.428-5.624l-4.827-5.147,5.938-2.107a6.416,6.416,0,0,0,3.762-4.625l4.886-23.463a5.874,5.874,0,0,0-.638-4.381M344.74,341.728l-16.59-3.87,6.651-31.94,9.868,2.3,5.755,6.21Zm8.72-42.832-7.614,3.2-9.773-2.28,5.936-28.508,16.4,3.826Z" transform="translate(549.633 2832.523)" fill="#cceafb"/>
        <path id="Trazado_696393" data-name="Trazado 696393" d="M369,66.615l-15.341,41.751q-.872,2.773-1.226,4.222.619-2.842.9-4.311l4.745-44.658-4.289-1.177L337.4,103.906q-.873,2.774-1.191,4.233.583-2.852.9-4.312l5.754-44.382L337.9,58.081l-6.982,61.956,4.072,1.117,17.151-43.33q.7-2.25,1-3.47-.462,2.357-.715,3.549l-4.9,46.692,4.072,1.117,22.334-57.744Z" transform="translate(836.065 3079.188)" fill="#cceafb"/>
        <path id="Trazado_696394" data-name="Trazado 696394" d="M40.31,198.759,27.251,128.773l-5.535,1.157,9.438,50.578L4.394,133.552,0,134.47l13.059,69.986,5.535-1.157-9.6-51.472,27.265,47.78Z" transform="translate(651.232 2989.121)" fill="#dcdcdc"/>
        <g id="Grupo_896832" data-name="Grupo 896832" transform="translate(605.506 3033.732) rotate(30)">
          <g id="Grupo_896829" data-name="Grupo 896829" transform="translate(0 0)" clip-path="url(#clip-path)">
            <path id="Trazado_696387" data-name="Trazado 696387" d="M26.732,37.653l-2.17-10.314-4.285.746,2.105,10L11.732,39.939,4.522,5.673,15.172,3.82,17.1,12.965l4.284-.746-1.99-9.456A2.73,2.73,0,0,0,17.974.855,3.929,3.929,0,0,0,15.326.481L2.992,2.626A3.581,3.581,0,0,0,.714,3.858,2.568,2.568,0,0,0,.2,6.1l7.342,34.89A2.766,2.766,0,0,0,8.93,42.9a3.8,3.8,0,0,0,2.618.379l12.333-2.146a3.7,3.7,0,0,0,2.31-1.237,2.534,2.534,0,0,0,.542-2.249" transform="translate(0 0)" fill="#cceafb"/>
          </g>
        </g>
        <path id="Trazado_696404" data-name="Trazado 696404" d="M257.63,37.3,250.2,4.07a5.092,5.092,0,0,0-2.2-3.344,4.69,4.69,0,0,0-3.825-.551L222.065,5.713l16.118,72.125,6.052-1.516-6.4-28.619,16.067-4.023a4.889,4.889,0,0,0,3.181-2.329,5.424,5.424,0,0,0,.543-4.053m-21.067,4.691L229.384,9.866l14.891-3.728,7.178,32.122Z" transform="translate(902.935 2997.55)" fill="#cceafb"/>
        <path id="Trazado_696405" data-name="Trazado 696405" d="M56.937,33.249,22.909,25.608l-1.594,7.954,24.253,5.446L.959,121.43,0,126.216l36.655,8.231,1.594-7.954-26.88-6.035L56,37.9Z" transform="translate(1230 2881.574)" fill="#e8e8e8"/>
        <path id="Trazado_696406" data-name="Trazado 696406" d="M133.373,9.313,144.68,37.7l-9.052,2.333ZM133.706,0,129.2,1.163l3.361,56.894.032.139L137,57.058l-.979-12.591,10.237-2.639,4.6,11.658,4.542-1.171Z" transform="translate(1100.803 3067.902)" fill="#cceafb"/>
        <path id="Trazado_696701" data-name="Trazado 696701" d="M12.533,27.385,29.107,1.806,0,0Z" transform="matrix(0.809, 0.588, -0.588, 0.809, 1240.383, 3209.587)" fill="#ed9aa9"/>
        <path id="Trazado_696702" data-name="Trazado 696702" d="M11.12,27.087,28.758.4,0,0Z" transform="matrix(-0.914, 0.407, -0.407, -0.914, 359, 3113.2)" fill="#ed9aa9"/>
        <path id="Trazado_696703" data-name="Trazado 696703" d="M8.784,18.38,20.987.975,0,0Z" transform="translate(292.73 2981.984) rotate(-105)" fill="#afafaf"/>
        <path id="Trazado_696704" data-name="Trazado 696704" d="M89.88,210.218,75.893,193.606l-5.542,20.13Z" transform="translate(910.12 2818.191)" fill="#4db1f0"/>
        <path id="Trazado_696705" data-name="Trazado 696705" d="M19.367,16.138,5.58-.1-.357,20Z" transform="translate(448.664 3054.756) rotate(160)" fill="#4db1f0"/>
      </g>
    </g>
  </g>
</svg>
