<svg xmlns="http://www.w3.org/2000/svg" xmlns:xlink="http://www.w3.org/1999/xlink" width="88" height="98.332" viewBox="0 0 88 98.332">
  <defs>
    <filter id="Elipse_4901" x="0" y="10.332" width="88" height="88" filterUnits="userSpaceOnUse">
      <feOffset dy="3" input="SourceAlpha"/>
      <feGaussianBlur stdDeviation="3" result="blur"/>
      <feFlood flood-opacity="0.161"/>
      <feComposite operator="in" in2="blur"/>
      <feComposite in="SourceGraphic"/>
    </filter>
  </defs>
  <g id="Grupo_1003565" data-name="Grupo 1003565" transform="translate(-210 -2604.668)">
    <g transform="matrix(1, 0, 0, 1, 210, 2604.67)" filter="url(#Elipse_4901)">
      <circle id="Elipse_4901-2" data-name="Elipse 4901" cx="35" cy="35" r="35" transform="translate(9 16.33)" fill="#005b8b"/>
    </g>
    <g id="profesor" transform="translate(150.986 2604.668)">
      <path id="Trazado_708136" data-name="Trazado 708136" d="M162.17,7.5a20.706,20.706,0,0,0-20.707,20.706v6.368h41.413V28.209A20.705,20.705,0,0,0,162.17,7.5Z" transform="translate(-57.385 -6.15)" fill="#4c4846"/>
      <path id="Trazado_708137" data-name="Trazado 708137" d="M164.234,7.6a20.709,20.709,0,0,0-22.771,20.6v6.368h4.129V28.206A20.708,20.708,0,0,1,164.234,7.6Z" transform="translate(-57.385 -6.146)" fill="#3d3936"/>
      <path id="Trazado_708138" data-name="Trazado 708138" d="M142.755,346l-3.941-19.793a7.671,7.671,0,0,0-4.995-5.81l-1.015-.3-10.591-3.124v-.025H99.665v.064l-.037-.038.037-.025L88.988,320.1h0a7.872,7.872,0,0,0-6.01,6.109L79.037,346c-.2,1.407-.22,4.771,4.144,4.771H138.61C142.975,350.775,142.954,347.411,142.755,346Z" transform="translate(-6.163 -259.795)" fill="#f2f1f0"/>
      <path id="Trazado_708139" data-name="Trazado 708139" d="M83.314,359.692l3.941-21.957a7.528,7.528,0,0,1,2.2-4.083l-.467.138h0a7.871,7.871,0,0,0-6.01,6.109l-3.941,19.793c-.2,1.407-.22,4.771,4.144,4.771h4.276C83.093,364.463,83.114,361.1,83.314,359.692Z" transform="translate(-6.163 -273.483)" fill="#dadada"/>
      <g id="Grupo_1003562" data-name="Grupo 1003562" transform="translate(83.048 25.285)">
        <path id="Trazado_708140" data-name="Trazado 708140" d="M135.75,144.533c0,2.386,2.49,4.321,5.34,4.321v-8.641C138.24,140.213,135.75,142.147,135.75,144.533Z" transform="translate(-135.75 -140.213)" fill="#eab883"/>
        <path id="Trazado_708141" data-name="Trazado 708141" d="M352.549,144.533c0,2.386-2.49,4.321-5.34,4.321v-8.641C350.059,140.213,352.549,142.147,352.549,144.533Z" transform="translate(-309.075 -140.213)" fill="#eab883"/>
      </g>
      <g id="Grupo_1003563" data-name="Grupo 1003563" transform="translate(83.042 27.897)">
        <path id="Trazado_708142" data-name="Trazado 708142" d="M136.171,154.692c-1.6,2.916,1.243,6.03,4.89,6.03V157.3A5.584,5.584,0,0,1,136.171,154.692Z" transform="translate(-135.715 -154.692)" fill="#dda36f"/>
        <path id="Trazado_708143" data-name="Trazado 708143" d="M347.209,157.3v3.419c3.686,0,6.474-3.143,4.891-6.03A5.584,5.584,0,0,1,347.209,157.3Z" transform="translate(-309.069 -154.692)" fill="#dda36f"/>
      </g>
      <path id="Trazado_708144" data-name="Trazado 708144" d="M231.212,277.744l-.049.022h0v0l0,0h0v-.022a16.469,16.469,0,0,1-13.88,0v.022h0l0,0v0h0l-.048-.022v4.565l.048-.032,6.968,6.26,6.968-6.26v-4.532Z" transform="translate(-119.486 -227.657)" fill="#eab883"/>
      <path id="Trazado_708145" data-name="Trazado 708145" d="M221.782,279.1a16.507,16.507,0,0,1-4.5-1.35v.022h0l0,0v0h0l-.048-.022v4.564l.048-.032,4.509,4.051V279.1h0Z" transform="translate(-119.484 -227.658)" fill="#dda36f"/>
      <path id="Trazado_708146" data-name="Trazado 708146" d="M195.651,90.9a3.436,3.436,0,0,1,1.864,3.052v12.931a16.578,16.578,0,1,1-33.155-.236V93.729a3.423,3.423,0,0,1,1.877-3.057A32.1,32.1,0,0,1,195.651,90.9Z" transform="translate(-76.153 -71.481)" fill="#f7cf9c"/>
      <path id="Trazado_708147" data-name="Trazado 708147" d="M168.944,115.517V100.251a3.427,3.427,0,0,1,.821-2.226,31.517,31.517,0,0,0-3.53,1.513,3.423,3.423,0,0,0-1.877,3.057v12.922a16.7,16.7,0,0,0,18.887,16.653A16.8,16.8,0,0,1,168.944,115.517Z" transform="translate(-76.151 -80.348)" fill="#eab883"/>
      <path id="Trazado_708148" data-name="Trazado 708148" d="M236.808,335.586h0l-4.252,2.655,1.863,4.25H239.2l1.863-4.25Z" transform="translate(-132.051 -275.068)" fill="#d83d3d"/>
      <path id="Trazado_708149" data-name="Trazado 708149" d="M236.256,337.5l-3.7,2.31,1.863,4.25h4.712Z" transform="translate(-132.051 -276.636)" fill="#b72c2c"/>
      <path id="Trazado_708150" data-name="Trazado 708150" d="M245.757,377.953l-.535-4.076h-4.808l-.512,3.906A9.148,9.148,0,0,0,245.757,377.953Z" transform="translate(-138.073 -306.454)" fill="#d83d3d"/>
      <path id="Trazado_708151" data-name="Trazado 708151" d="M245.223,373.876h-4.808l-.512,3.906a9.145,9.145,0,0,0,4.631.452Z" transform="translate(-138.073 -306.453)" fill="#b72c2c"/>
      <path id="Trazado_708152" data-name="Trazado 708152" d="M170.789,324.012v0c-1.27-.692-.792-.339-8.787-2.771l-1.19-.351c-6.576,18.427-21.105,18.282-27.6-.151h0l-8.364,2.467h0a8.963,8.963,0,0,0-2.128.808c4.681,5.96,4.5,15.764,4.5,15.764v14.1h39.061v-14.1S166.109,329.972,170.789,324.012Z" transform="translate(-42.022 -262.895)" fill="#aaa6a2"/>
      <path id="Trazado_708153" data-name="Trazado 708153" d="M127.225,362.668h4.528V349.5s.2-11.165-5.1-18.039l-1.805.532h0a8.943,8.943,0,0,0-2.128.808c4.681,5.96,4.5,15.764,4.5,15.764v14.1Z" transform="translate(-42.022 -271.688)" fill="#99928c"/>
      <g id="Grupo_1003564" data-name="Grupo 1003564" transform="translate(93.465 54.259)">
        <path id="Trazado_708154" data-name="Trazado 708154" d="M263.1,300.876l-6.968,6.26,4.027,2.987a.953.953,0,0,0,1.253-.1l6.013-6.219Z" transform="translate(-244.842 -300.876)" fill="#dadada"/>
        <path id="Trazado_708155" data-name="Trazado 708155" d="M197.838,300.876l6.968,6.26-3.995,2.963a1,1,0,0,1-1.313-.108l-5.985-6.19Z" transform="translate(-193.513 -300.876)" fill="#dadada"/>
      </g>
      <path id="Trazado_708156" data-name="Trazado 708156" d="M137.931,86.019c-.01-.07.168.839-3.954-19.868a8.9,8.9,0,0,0-5.536-6.689c-.406-.167.751.187-11.807-3.517l-3.556-2.4V51.316A17.906,17.906,0,0,0,122.715,35.4v-.25a5.933,5.933,0,0,0,5.16-5.549,5.127,5.127,0,0,0-1.035-3.064c.008-.107,0-.714.005-4.483A22.059,22.059,0,0,0,88.825,6.83,1.353,1.353,0,0,0,90.782,8.7a19.354,19.354,0,0,1,33.356,13.361v2.416a7.131,7.131,0,0,0-1.424-.419c-.115-.581.7-4.139-2.6-5.837a33.465,33.465,0,0,0-30.643-.237,4.752,4.752,0,0,0-2.62,4.264v1.809a7.142,7.142,0,0,0-1.424.419c.119-1.512-.576-5.681,1.928-10.846a1.353,1.353,0,1,0-2.434-1.18,21.852,21.852,0,0,0-2.2,9.61c0,3.1,0,4.375.005,4.483A5.127,5.127,0,0,0,81.7,29.605a5.933,5.933,0,0,0,5.159,5.549v.014a18.29,18.29,0,0,0,9.534,16.039v2.365l-3.47,2.347c-12.565,3.707-11.5,3.376-11.91,3.55a8.926,8.926,0,0,0-5.519,6.683c-4.117,20.679-3.944,19.8-3.954,19.867-.518,3.656,1.414,6.313,5.483,6.313H110.4a1.353,1.353,0,0,0,0-2.705H86.555V76.89c.008-.535.075-8.978-3.778-15.158L90.36,59.5c7,18,22.15,18.2,29.254.15l7.075,2.087c-3.853,6.18-3.786,14.623-3.778,15.158V89.627h-6.2a1.353,1.353,0,0,0,0,2.705h15.732C136.5,92.332,138.451,89.688,137.931,86.019ZM103.331,70.2l.192-1.4h2.449l.206,1.5A7.593,7.593,0,0,1,103.331,70.2Zm2.9-4.107h-3l-.9-2.089,2.4-1.781,2.4,1.781Zm3.074-3.883-2.415-1.792,4.95-4.447,2.115,1.43Zm13.406-29.83V26.831C125.982,27.8,125.979,31.409,122.714,32.38Zm-35.86-5.549V32.38C83.589,31.409,83.59,27.8,86.855,26.831Zm2.705,8.338V22.247a2.061,2.061,0,0,1,1.134-1.85,30.684,30.684,0,0,1,28.184.227,2.075,2.075,0,0,1,1.131,1.85V35.4c0,13.231-15.949,20.262-25.634,11.019A15.631,15.631,0,0,1,89.56,35.169Zm20.813,17.283v1.2L104.757,58.7l-5.664-5.088V52.418A18.139,18.139,0,0,0,110.373,52.451Zm-12.7,3.519,4.951,4.448-2.416,1.792-3.932-4.067-.717-.742ZM83.85,76.878V89.627c-5.864-.171-8.116.455-9.17-.759a3.3,3.3,0,0,1-.471-2.434l3.933-19.752a6.186,6.186,0,0,1,2.213-3.718C82.8,66.756,83.85,72.5,83.85,76.878Zm9.115-18.152.086-.025,1.832,1.9c4.212,4.2,4.177,4.694,5.082,4.756l.988,2.284-.211,1.536C97.693,67.406,94.961,63.78,92.965,58.726Zm15.826,10.716-.255-1.856.965-2.232h0a1.274,1.274,0,0,0,.258-.034,1.361,1.361,0,0,0,.243-.08,1.394,1.394,0,0,0,.225-.126,1.544,1.544,0,0,0,.2-.17l6.024-6.232.555.164C114.908,64.121,112.007,67.809,108.791,69.442Zm26,19.426c-1.057,1.217-3.327.588-9.17.759,0-15.533.01-12.328,0-12.773,0-.088-.1-8.323,3.5-13.891a6.186,6.186,0,0,1,2.213,3.717l3.933,19.753A3.3,3.3,0,0,1,134.787,88.868Z" transform="translate(0 0)"/>
    </g>
  </g>
</svg>
