<svg xmlns="http://www.w3.org/2000/svg" xmlns:xlink="http://www.w3.org/1999/xlink" width="77" height="77" viewBox="0 0 77 77">
  <defs>
    <filter id="Elipse_4844" x="0" y="0" width="77" height="77" filterUnits="userSpaceOnUse">
      <feOffset dy="3" input="SourceAlpha"/>
      <feGaussianBlur stdDeviation="3" result="blur"/>
      <feFlood flood-opacity="0.161"/>
      <feComposite operator="in" in2="blur"/>
      <feComposite in="SourceGraphic"/>
    </filter>
    <clipPath id="clip-path">
      <rect id="Rectángulo_344643" data-name="Rectángulo 344643" width="59" height="59" fill="#fff"/>
    </clipPath>
    <clipPath id="clip-path-2">
      <path id="path3164" d="M0-57H59V2H0Z" transform="translate(0 57)" fill="#fff"/>
    </clipPath>
  </defs>
  <g id="Grupo_1003585" data-name="Grupo 1003585" transform="translate(-515 -4333.281)">
    <g transform="matrix(1, 0, 0, 1, 515, 4333.28)" filter="url(#Elipse_4844)">
      <circle id="Elipse_4844-2" data-name="Elipse 4844" cx="29.5" cy="29.5" r="29.5" transform="translate(9 6)" fill="#f5b3bf"/>
    </g>
    <g id="Enmascarar_grupo_96" data-name="Enmascarar grupo 96" transform="translate(524 4339.281)" clip-path="url(#clip-path)">
      <g id="g3156">
        <path id="path3158" d="M27.332-16.209H16.583v-7.511H27.332Z" transform="translate(0.582 58.168)" fill="none" stroke="#12263f" stroke-linecap="round" stroke-linejoin="round" stroke-miterlimit="10" stroke-width="2.227"/>
        <g id="g3160">
          <g id="g3162" clip-path="url(#clip-path-2)">
            <g id="g3168" transform="translate(8.048 41.958)">
              <path id="path3170" d="M.344.373H19.17V-4.252L14.925-9.139a4.319,4.319,0,0,0-3.26-1.487H-2.307A4.319,4.319,0,0,0-5.568-9.139L-9.812-4.252V.373" transform="translate(9.812 10.625)" fill="none" stroke="#12263f" stroke-linecap="round" stroke-linejoin="round" stroke-miterlimit="10" stroke-width="2.227"/>
            </g>
            <g id="g3172" transform="translate(8.048 52.957)">
              <path id="path3174" d="M0,0V4.891H28.982V0H10.157" fill="none" stroke="#12263f" stroke-linecap="round" stroke-linejoin="round" stroke-miterlimit="10" stroke-width="2.227"/>
            </g>
            <g id="g3176" transform="translate(24.067 1.152)">
              <path id="path3178" d="M.006,1.033s21.925-8.344,24.02-30.466C24.026-29.433-2.673-24.958.006,1.033Z" transform="translate(0.183 29.433)" fill="none" stroke="#12263f" stroke-linecap="round" stroke-linejoin="round" stroke-miterlimit="10" stroke-width="2.227"/>
            </g>
            <g id="g3180" transform="translate(30.654 19.558)">
              <path id="path3182" d="M0,.03,4.727-.851" transform="translate(0 0.851)" fill="none" stroke="#12263f" stroke-linecap="round" stroke-linejoin="round" stroke-miterlimit="10" stroke-width="2.227"/>
            </g>
            <g id="g3184" transform="translate(34.81 6.281)">
              <path id="path3186" d="M.046,0-1.315,8.888" transform="translate(1.315)" fill="none" stroke="#12263f" stroke-linecap="round" stroke-linejoin="round" stroke-miterlimit="10" stroke-width="2.227"/>
            </g>
            <g id="g3188" transform="translate(37.031 57.848)">
              <path id="path3190" d="M0,0H8.583" fill="none" stroke="#12263f" stroke-linecap="round" stroke-linejoin="round" stroke-miterlimit="10" stroke-width="2.227"/>
            </g>
            <g id="g3192" transform="translate(50.952 57.848)">
              <path id="path3194" d="M0,0H0" fill="none" stroke="#12263f" stroke-linecap="round" stroke-linejoin="round" stroke-miterlimit="10" stroke-width="2.227"/>
            </g>
            <g id="g3196" transform="translate(23.314 7.714)">
              <path id="path3198" d="M0,.906c1.551-5.4,7.165-16.353,18.871-26.733" transform="translate(0 25.827)" fill="none" stroke="#12263f" stroke-linecap="round" stroke-linejoin="round" stroke-miterlimit="10" stroke-width="2.227"/>
            </g>
            <g id="g3200" transform="translate(37.217 12.514)">
              <path id="path3202" d="M0,0H7.9" fill="none" stroke="#12263f" stroke-linecap="round" stroke-linejoin="round" stroke-miterlimit="10" stroke-width="2.227"/>
            </g>
            <g id="g3204" transform="translate(13.099 52.957)">
              <path id="path3206" d="M0,0H0" fill="none" stroke="#12263f" stroke-linecap="round" stroke-linejoin="round" stroke-miterlimit="10" stroke-width="2.227"/>
            </g>
          </g>
        </g>
      </g>
    </g>
  </g>
</svg>
