<svg xmlns="http://www.w3.org/2000/svg" xmlns:xlink="http://www.w3.org/1999/xlink" width="77" height="77" viewBox="0 0 77 77">
  <defs>
    <filter id="Elipse_4847" x="0" y="0" width="77" height="77" filterUnits="userSpaceOnUse">
      <feOffset dy="3" input="SourceAlpha"/>
      <feGaussianBlur stdDeviation="3" result="blur"/>
      <feFlood flood-opacity="0.161"/>
      <feComposite operator="in" in2="blur"/>
      <feComposite in="SourceGraphic"/>
    </filter>
    <clipPath id="clip-path">
      <rect id="Rectángulo_344644" data-name="Rectángulo 344644" width="59" height="59" fill="#12263f"/>
    </clipPath>
  </defs>
  <g id="Grupo_1003582" data-name="Grupo 1003582" transform="translate(-1259 -4333.281)">
    <g transform="matrix(1, 0, 0, 1, 1259, 4333.28)" filter="url(#Elipse_4847)">
      <circle id="Elipse_4847-2" data-name="Elipse 4847" cx="29.5" cy="29.5" r="29.5" transform="translate(9 6)" fill="#f5b3bf"/>
    </g>
    <g id="Enmascarar_grupo_97" data-name="Enmascarar grupo 97" transform="translate(1268 4339.281)" clip-path="url(#clip-path)">
      <g id="video_2_" data-name="video(2)" transform="translate(3.538 0)">
        <path id="Trazado_696377" data-name="Trazado 696377" d="M50.771,23.816H11.456L49.219,12.877A1.153,1.153,0,0,0,50,11.45L48.029,4.628A6.451,6.451,0,0,0,41.859,0a6.384,6.384,0,0,0-1.775.253L4.63,10.523A6.428,6.428,0,0,0,.254,18.467l1.931,6.665V52.587A6.42,6.42,0,0,0,8.6,59H22.445a1.152,1.152,0,0,0,0-2.3H8.6A4.113,4.113,0,0,1,4.49,52.587V36.905H49.619V52.587A4.113,4.113,0,0,1,45.51,56.7H31.663a1.152,1.152,0,0,0,0,2.3H45.51a6.42,6.42,0,0,0,6.413-6.413V24.969a1.152,1.152,0,0,0-1.152-1.152ZM30.452,34.6l4.9-8.48h6.368l-4.9,8.48Zm-9.03,0,4.9-8.48h6.368l-4.9,8.48Zm-9.029,0,4.9-8.48h6.368l-4.9,8.48Zm4.284-14.918-8.2-7.875,6.143-1.779a1.143,1.143,0,0,0,.151.178l8.2,7.875L16.828,19.86a1.147,1.147,0,0,0-.151-.178Zm15.441-14.5,8.2,7.875-6.143,1.779a1.123,1.123,0,0,0-.151-.178l-8.2-7.875L31.967,5A1.143,1.143,0,0,0,32.118,5.182ZM23.445,7.694l8.2,7.874L25.5,17.348a1.123,1.123,0,0,0-.151-.178L17.151,9.3l6.143-1.779A1.217,1.217,0,0,0,23.445,7.694ZM40.726,2.466A4.074,4.074,0,0,1,41.859,2.3a4.135,4.135,0,0,1,3.956,2.965l1.656,5.714-4.623,1.339a1.171,1.171,0,0,0-.152-.178L34.5,4.271ZM2.821,14.7a4.078,4.078,0,0,1,2.45-1.967l.677-.2a1.172,1.172,0,0,0,.151.178l8.2,7.875L4.124,23.541,2.468,17.826A4.079,4.079,0,0,1,2.821,14.7ZM4.49,26.121H14.627l-4.9,8.48H4.49ZM39.481,34.6l4.9-8.48h5.242V34.6Zm0,0" transform="translate(0 0)" fill="#12263f" fill-rule="evenodd"/>
        <path id="Trazado_696378" data-name="Trazado 696378" d="M34.256,45.338a1.152,1.152,0,0,0-.576-1L23.556,38.495a1.152,1.152,0,0,0-1.729,1v11.69a1.152,1.152,0,0,0,1.729,1L33.68,46.336a1.152,1.152,0,0,0,.576-1ZM24.132,49.187v-7.7L30.8,45.338Zm0,0" transform="translate(0.766 1.345)" fill="#12263f" fill-rule="evenodd"/>
        <path id="Trazado_696379" data-name="Trazado 696379" d="M26.176,54.773a1.152,1.152,0,1,0,1.152,1.152A1.155,1.155,0,0,0,26.176,54.773Zm0,0" transform="translate(0.878 1.922)" fill="#12263f" fill-rule="evenodd"/>
      </g>
    </g>
  </g>
</svg>
