<svg xmlns="http://www.w3.org/2000/svg" width="68.173" height="73.043" viewBox="0 0 68.173 73.043">
  <g id="blogging" transform="translate(-17.07)">
    <path id="Trazado_694889" data-name="Trazado 694889" d="M85.243,219.375V192.591a4.87,4.87,0,0,0-4.869-4.869H21.939a4.87,4.87,0,0,0-4.869,4.869v26.783l34.086,3.652Z" transform="translate(0 -160.941)" fill="#daebfe"/>
    <path id="Trazado_694890" data-name="Trazado 694890" d="M441.972,192.591v27.145l3.38-.362V192.591a4.87,4.87,0,0,0-4.87-4.869H437.1A4.869,4.869,0,0,1,441.972,192.591Z" transform="translate(-360.109 -160.941)" fill="#bdd6ff"/>
    <g id="Grupo_896033" data-name="Grupo 896033" transform="translate(24.374 0)">
      <path id="Trazado_694891" data-name="Trazado 694891" d="M68.27,39V88.432h53.564V39L95.052,34.133Z" transform="translate(-68.27 -29.264)" fill="#f8f6f6"/>
      <path id="Trazado_694892" data-name="Trazado 694892" d="M102.4,103.616V109.7a1.217,1.217,0,0,0,1.217,1.217h2.435a1.217,1.217,0,0,0,1.217-1.217v-1.826a.609.609,0,0,1,.609-.609h3.652a.609.609,0,0,1,.609.609v13.391a.609.609,0,0,1-.609.609h-1.826a1.217,1.217,0,0,0-1.217,1.217v2.435a1.217,1.217,0,0,0,1.217,1.217h9.739a1.217,1.217,0,0,0,1.217-1.217v-2.435a1.217,1.217,0,0,0-1.217-1.217H117.62a.609.609,0,0,1-.609-.609V107.877a.609.609,0,0,1,.609-.609h3.652a.609.609,0,0,1,.609.609V109.7a1.217,1.217,0,0,0,1.217,1.217h2.435a1.217,1.217,0,0,0,1.217-1.217v-6.087a1.217,1.217,0,0,0-1.217-1.217H103.62a1.217,1.217,0,0,0-1.217,1.217Z" transform="translate(-97.534 -87.791)" fill="#444"/>
      <path id="Trazado_694893" data-name="Trazado 694893" d="M320.952,107.268h-12.9a.856.856,0,0,1-.856-.856v-3.158a.856.856,0,0,1,.856-.856h12.9a.856.856,0,0,1,.856.856v3.158A.856.856,0,0,1,320.952,107.268Z" transform="translate(-273.114 -87.79)" fill="#ffa031"/>
      <g id="Grupo_896025" data-name="Grupo 896025" transform="translate(32.984 23.245)">
        <path id="Trazado_694894" data-name="Trazado 694894" d="M315.184,165.142H300.575a1.1,1.1,0,0,1,0-2.2h14.608a1.1,1.1,0,0,1,0,2.2Z" transform="translate(-299.473 -162.938)" fill="#444"/>
      </g>
      <g id="Grupo_896026" data-name="Grupo 896026" transform="translate(32.984 28.115)">
        <path id="Trazado_694895" data-name="Trazado 694895" d="M315.184,199.275H300.575a1.1,1.1,0,0,1,0-2.2h14.608a1.1,1.1,0,0,1,0,2.2Z" transform="translate(-299.473 -197.071)" fill="#444"/>
      </g>
      <g id="Grupo_896027" data-name="Grupo 896027" transform="translate(32.984 32.984)">
        <path id="Trazado_694896" data-name="Trazado 694896" d="M315.184,233.408H300.575a1.1,1.1,0,1,1,0-2.2h14.608a1.1,1.1,0,0,1,0,2.2Z" transform="translate(-299.473 -231.204)" fill="#444"/>
      </g>
      <g id="Grupo_896028" data-name="Grupo 896028" transform="translate(32.984 37.854)">
        <path id="Trazado_694897" data-name="Trazado 694897" d="M305.445,267.541h-4.87a1.1,1.1,0,0,1,0-2.2h4.87a1.1,1.1,0,0,1,0,2.2Z" transform="translate(-299.473 -265.337)" fill="#444"/>
      </g>
      <path id="Trazado_694898" data-name="Trazado 694898" d="M145.011,324.261a1.217,1.217,0,0,1,1.217,1.217v4.869a1.217,1.217,0,0,1-1.217,1.217H103.62a1.217,1.217,0,0,1-1.217-1.217v-4.869a1.217,1.217,0,0,1,1.217-1.217Z" transform="translate(-97.534 -278.001)" fill="#e2e2e2"/>
      <path id="Trazado_694899" data-name="Trazado 694899" d="M420.039,114h3.38V64.573l-3.38-.615Z" transform="translate(-369.855 -54.834)" fill="#e2e2e2"/>
      <path id="Trazado_694900" data-name="Trazado 694900" d="M119.482,0H70.622A2.351,2.351,0,0,0,68.27,2.351V9.739h53.564V2.351A2.351,2.351,0,0,0,119.482,0Z" transform="translate(-68.27 0)" fill="#8ac9fe"/>
      <path id="Trazado_694901" data-name="Trazado 694901" d="M406.936,0h-3.38a2.351,2.351,0,0,1,2.352,2.352V9.739h3.38V2.351A2.351,2.351,0,0,0,406.936,0Z" transform="translate(-355.723 0)" fill="#60b7ff"/>
      <g id="Grupo_896029" data-name="Grupo 896029" transform="translate(3.767 3.767)">
        <path id="Trazado_694902" data-name="Trazado 694902" d="M97,28.611H95.779a1.1,1.1,0,1,1,0-2.2H97a1.1,1.1,0,1,1,0,2.2Z" transform="translate(-94.677 -26.407)" fill="#d83131"/>
      </g>
      <g id="Grupo_896030" data-name="Grupo 896030" transform="translate(9.854 3.767)">
        <path id="Trazado_694903" data-name="Trazado 694903" d="M139.663,28.611h-1.217a1.1,1.1,0,1,1,0-2.2h1.217a1.1,1.1,0,1,1,0,2.2Z" transform="translate(-137.343 -26.407)" fill="#fedf30"/>
      </g>
      <g id="Grupo_896031" data-name="Grupo 896031" transform="translate(15.941 3.767)">
        <path id="Trazado_694904" data-name="Trazado 694904" d="M182.329,28.611h-1.217a1.1,1.1,0,0,1,0-2.2h1.217a1.1,1.1,0,1,1,0,2.2Z" transform="translate(-180.009 -26.407)" fill="#a2e62e"/>
      </g>
      <g id="Grupo_896032" data-name="Grupo 896032" transform="translate(5.614 14.608)">
        <path id="Trazado_694905" data-name="Trazado 694905" d="M111.747,138.966V137.14a.609.609,0,0,1,.609-.609h-3.38a.609.609,0,0,0-.609.609v1.826a1.218,1.218,0,0,1-.745,1.122,1.213,1.213,0,0,0,.473.1h2.435A1.217,1.217,0,0,0,111.747,138.966Z" transform="translate(-107.622 -131.662)" fill="#333"/>
        <path id="Trazado_694906" data-name="Trazado 694906" d="M186.921,151.139h-1.826a.609.609,0,0,1-.609-.609V137.14a.609.609,0,0,1,.609-.609h-3.38a.609.609,0,0,0-.609.609v13.391a.609.609,0,0,0,.609.609h1.826a1.217,1.217,0,0,1,1.217,1.217v2.435a1.217,1.217,0,0,1-1.217,1.217h3.38a1.217,1.217,0,0,0,1.217-1.217v-2.435A1.217,1.217,0,0,0,186.921,151.139Z" transform="translate(-170.623 -131.662)" fill="#333"/>
        <path id="Trazado_694907" data-name="Trazado 694907" d="M244.219,102.4h-3.38a1.217,1.217,0,0,1,1.217,1.217V109.7a1.218,1.218,0,0,1-.745,1.122,1.214,1.214,0,0,0,.473.1h2.435a1.217,1.217,0,0,0,1.217-1.217v-6.087A1.217,1.217,0,0,0,244.219,102.4Z" transform="translate(-221.834 -102.398)" fill="#333"/>
      </g>
      <path id="Trazado_694908" data-name="Trazado 694908" d="M383.1,102.4h-3.38a.882.882,0,0,1,.882.882v3.106a.882.882,0,0,1-.882.882h3.38a.882.882,0,0,0,.882-.882V103.28A.882.882,0,0,0,383.1,102.4Z" transform="translate(-335.29 -87.79)" fill="#ffa031"/>
      <path id="Trazado_694909" data-name="Trazado 694909" d="M380.75,324.261h-3.38a1.217,1.217,0,0,1,1.217,1.217v4.869a1.217,1.217,0,0,1-1.217,1.217h3.38a1.217,1.217,0,0,0,1.217-1.217v-4.869A1.217,1.217,0,0,0,380.75,324.261Z" transform="translate(-333.273 -278.001)" fill="#d1d1d1"/>
    </g>
    <path id="Trazado_694910" data-name="Trazado 694910" d="M21.94,416.9H67.592a1.218,1.218,0,0,1,.974.487l4.748,6.33a1.217,1.217,0,0,0,2.191-.73v-4.869a1.217,1.217,0,0,1,1.217-1.217h3.652a4.869,4.869,0,0,0,4.869-4.87v-2.434H17.071v2.434a4.869,4.869,0,0,0,4.869,4.87Z" transform="translate(-0.001 -351.16)" fill="#ed9aa9"/>
    <g id="Grupo_896034" data-name="Grupo 896034" transform="translate(72.123 58.433)">
      <path id="Trazado_694911" data-name="Trazado 694911" d="M441.972,412.027a4.87,4.87,0,0,1-4.87,4.869h3.38a4.87,4.87,0,0,0,4.87-4.869v-2.434h-3.38Z" transform="translate(-432.233 -409.593)" fill="#cb5f72"/>
      <path id="Trazado_694912" data-name="Trazado 694912" d="M402.97,462v4.014l1.189,1.585a1.217,1.217,0,0,0,2.191-.73V462a1.217,1.217,0,0,1,1.217-1.217h-3.38A1.218,1.218,0,0,0,402.97,462Z" transform="translate(-402.97 -453.48)" fill="#cb5f72"/>
    </g>
  </g>
</svg>
