<svg xmlns="http://www.w3.org/2000/svg" xmlns:xlink="http://www.w3.org/1999/xlink" width="313" height="297" viewBox="0 0 313 297">
  <defs>
    <filter id="portrait-woman-teaching-sign-language" x="0" y="0" width="313" height="297" filterUnits="userSpaceOnUse">
      <feOffset dy="3" input="SourceAlpha"/>
      <feGaussianBlur stdDeviation="3" result="blur"/>
      <feFlood flood-opacity="0.161"/>
      <feComposite operator="in" in2="blur"/>
      <feComposite in="SourceGraphic"/>
    </filter>
    <clipPath id="clip-path">
      <rect id="Rectángulo_33768" data-name="Rectángulo 33768" width="272.387" height="213.637" fill="none" stroke="#707070" stroke-width="1"/>
    </clipPath>
    <clipPath id="clip-path-2">
      <rect id="Rectángulo_33845" data-name="Rectángulo 33845" width="272.387" height="186.811" fill="none"/>
    </clipPath>
    <clipPath id="clip-path-3">
      <rect id="Rectángulo_33841" data-name="Rectángulo 33841" width="235.063" height="192.275" fill="none"/>
    </clipPath>
    <clipPath id="clip-path-4">
      <rect id="portrait-woman-teaching-sign-language-2" data-name="portrait-woman-teaching-sign-language" width="295" height="279" rx="17" transform="translate(1125 782)" fill="#eeedeb"/>
    </clipPath>
    <clipPath id="clip-path-5">
      <rect id="Rectángulo_345254" data-name="Rectángulo 345254" width="294.122" height="279" fill="none"/>
    </clipPath>
  </defs>
  <g id="Grupo_999512" data-name="Grupo 999512" transform="translate(-1116 -5633)">
    <g id="Grupo_990712" data-name="Grupo 990712" transform="translate(0 4857)">
      <g transform="matrix(1, 0, 0, 1, 1116, 776)" filter="url(#portrait-woman-teaching-sign-language)">
        <rect id="portrait-woman-teaching-sign-language-3" data-name="portrait-woman-teaching-sign-language" width="295" height="279" rx="17" transform="translate(9 6)" fill="#eeedeb"/>
      </g>
      <g id="Grupo_990645" data-name="Grupo 990645" transform="translate(1352.973 788.231) rotate(90)" opacity="0.46">
        <g id="Grupo_990643" data-name="Grupo 990643" transform="translate(0 0)">
          <g id="Grupo_951800" data-name="Grupo 951800" transform="translate(0)">
            <g id="Grupo_951798" data-name="Grupo 951798" transform="translate(0.381 21.688)">
              <g id="Grupo_80327" data-name="Grupo 80327" transform="translate(0)" clip-path="url(#clip-path-2)">
                <path id="Trazado_113636" data-name="Trazado 113636" d="M163.615,81.807a81.807,81.807,0,1,0-81.807,81.807,81.807,81.807,0,0,0,81.807-81.807" transform="translate(0 0)" fill="#4db1f0"/>
                <path id="Sustracción_2" data-name="Sustracción 2" d="M59.277,0A59.763,59.763,0,0,0,47.331,1.2a58.959,58.959,0,0,0-21.2,8.92A59.44,59.44,0,0,0,4.658,36.205,58.923,58.923,0,0,0,1.2,47.332a59.86,59.86,0,0,0,0,23.893,58.963,58.963,0,0,0,8.919,21.2A59.442,59.442,0,0,0,36.2,113.9a58.975,58.975,0,0,0,11.127,3.454,59.858,59.858,0,0,0,23.893,0,58.962,58.962,0,0,0,21.2-8.919A59.448,59.448,0,0,0,113.9,82.352a58.948,58.948,0,0,0,3.454-11.127,59.859,59.859,0,0,0,0-23.893,58.976,58.976,0,0,0-8.919-21.2A59.457,59.457,0,0,0,82.351,4.659,59,59,0,0,0,71.224,1.2,59.764,59.764,0,0,0,59.277,0Zm0,106.868a47.59,47.59,0,1,1,47.59-47.59A47.643,47.643,0,0,1,59.277,106.868Z" transform="translate(153.831 0)" fill="#ffa031" stroke="rgba(0,0,0,0)" stroke-miterlimit="10" stroke-width="1"/>
                <path id="Trazado_113639" data-name="Trazado 113639" d="M57.854,28.927A28.927,28.927,0,1,0,28.927,57.853,28.927,28.927,0,0,0,57.854,28.927" transform="translate(85.811 30.352)" fill="#fff"/>
                <path id="Trazado_113640" data-name="Trazado 113640" d="M3.656,1.828A1.828,1.828,0,1,0,1.828,3.656,1.828,1.828,0,0,0,3.656,1.828" transform="translate(228.344 142.427)" fill="#f9e8dc"/>
                <path id="Trazado_113641" data-name="Trazado 113641" d="M3.656,1.828A1.828,1.828,0,1,0,1.828,3.656,1.828,1.828,0,0,0,3.656,1.828" transform="translate(236.387 142.427)" fill="#f9e8dc"/>
                <path id="Trazado_113642" data-name="Trazado 113642" d="M3.656,1.828A1.828,1.828,0,1,0,1.828,3.656,1.828,1.828,0,0,0,3.656,1.828" transform="translate(244.431 142.427)" fill="#f9e8dc"/>
                <path id="Trazado_113643" data-name="Trazado 113643" d="M3.657,1.828A1.828,1.828,0,1,0,1.828,3.656,1.828,1.828,0,0,0,3.657,1.828" transform="translate(252.475 142.427)" fill="#f9e8dc"/>
                <path id="Trazado_113644" data-name="Trazado 113644" d="M3.656,1.828A1.828,1.828,0,1,0,1.828,3.656,1.828,1.828,0,0,0,3.656,1.828" transform="translate(260.519 142.427)" fill="#f9e8dc"/>
                <path id="Trazado_113645" data-name="Trazado 113645" d="M3.656,1.828A1.828,1.828,0,1,0,1.828,3.656,1.828,1.828,0,0,0,3.656,1.828" transform="translate(228.344 134.749)" fill="#f9e8dc"/>
                <path id="Trazado_113646" data-name="Trazado 113646" d="M3.656,1.828A1.828,1.828,0,1,0,1.828,3.656,1.828,1.828,0,0,0,3.656,1.828" transform="translate(236.387 134.749)" fill="#f9e8dc"/>
                <path id="Trazado_113647" data-name="Trazado 113647" d="M3.656,1.828A1.828,1.828,0,1,0,1.828,3.656,1.828,1.828,0,0,0,3.656,1.828" transform="translate(244.431 134.749)" fill="#f9e8dc"/>
                <path id="Trazado_113648" data-name="Trazado 113648" d="M3.657,1.828A1.828,1.828,0,1,0,1.828,3.656,1.828,1.828,0,0,0,3.657,1.828" transform="translate(252.475 134.749)" fill="#f9e8dc"/>
                <path id="Trazado_113649" data-name="Trazado 113649" d="M3.656,1.828A1.828,1.828,0,1,0,1.828,3.656,1.828,1.828,0,0,0,3.656,1.828" transform="translate(260.519 134.749)" fill="#f9e8dc"/>
                <path id="Trazado_113650" data-name="Trazado 113650" d="M3.656,1.828A1.828,1.828,0,1,0,1.828,3.656,1.828,1.828,0,0,0,3.656,1.828" transform="translate(228.344 127.071)" fill="#f9e8dc"/>
                <path id="Trazado_113651" data-name="Trazado 113651" d="M3.656,1.828A1.828,1.828,0,1,0,1.828,3.656,1.828,1.828,0,0,0,3.656,1.828" transform="translate(236.387 127.071)" fill="#f9e8dc"/>
                <path id="Trazado_113652" data-name="Trazado 113652" d="M3.656,1.828A1.828,1.828,0,1,0,1.828,3.656,1.828,1.828,0,0,0,3.656,1.828" transform="translate(244.431 127.071)" fill="#f9e8dc"/>
                <path id="Trazado_113653" data-name="Trazado 113653" d="M3.657,1.828A1.828,1.828,0,1,0,1.828,3.656,1.828,1.828,0,0,0,3.657,1.828" transform="translate(252.475 127.071)" fill="#f9e8dc"/>
                <path id="Trazado_113654" data-name="Trazado 113654" d="M3.656,1.828A1.828,1.828,0,1,0,1.828,3.656,1.828,1.828,0,0,0,3.656,1.828" transform="translate(260.519 127.071)" fill="#f9e8dc"/>
                <path id="Trazado_113655" data-name="Trazado 113655" d="M3.656,1.828A1.828,1.828,0,1,0,1.828,3.656,1.828,1.828,0,0,0,3.656,1.828" transform="translate(228.344 119.392)" fill="#f9e8dc"/>
                <path id="Trazado_113656" data-name="Trazado 113656" d="M3.656,1.828A1.828,1.828,0,1,0,1.828,3.656,1.828,1.828,0,0,0,3.656,1.828" transform="translate(236.387 119.392)" fill="#f9e8dc"/>
                <path id="Trazado_113657" data-name="Trazado 113657" d="M3.656,1.828A1.828,1.828,0,1,0,1.828,3.656,1.828,1.828,0,0,0,3.656,1.828" transform="translate(244.431 119.392)" fill="#f9e8dc"/>
                <path id="Trazado_113658" data-name="Trazado 113658" d="M3.657,1.828A1.828,1.828,0,1,0,1.828,3.656,1.828,1.828,0,0,0,3.657,1.828" transform="translate(252.475 119.392)" fill="#f9e8dc"/>
                <path id="Trazado_113659" data-name="Trazado 113659" d="M3.656,1.828A1.828,1.828,0,1,0,1.828,3.656,1.828,1.828,0,0,0,3.656,1.828" transform="translate(260.519 119.392)" fill="#f9e8dc"/>
                <path id="Trazado_113660" data-name="Trazado 113660" d="M3.656,1.828A1.828,1.828,0,1,0,1.828,3.656,1.828,1.828,0,0,0,3.656,1.828" transform="translate(228.344 111.714)" fill="#f9e8dc"/>
                <path id="Trazado_113661" data-name="Trazado 113661" d="M3.656,1.828A1.828,1.828,0,1,0,1.828,3.656,1.828,1.828,0,0,0,3.656,1.828" transform="translate(236.387 111.714)" fill="#f9e8dc"/>
                <path id="Trazado_113662" data-name="Trazado 113662" d="M3.656,1.828A1.828,1.828,0,1,0,1.828,3.656,1.828,1.828,0,0,0,3.656,1.828" transform="translate(244.431 111.714)" fill="#f9e8dc"/>
                <path id="Trazado_113663" data-name="Trazado 113663" d="M3.657,1.828A1.828,1.828,0,1,0,1.828,3.656,1.828,1.828,0,0,0,3.657,1.828" transform="translate(252.475 111.714)" fill="#f9e8dc"/>
                <path id="Trazado_113664" data-name="Trazado 113664" d="M3.656,1.828A1.828,1.828,0,1,0,1.828,3.656,1.828,1.828,0,0,0,3.656,1.828" transform="translate(260.519 111.714)" fill="#f9e8dc"/>
                <path id="Trazado_113665" data-name="Trazado 113665" d="M3.656,1.828A1.828,1.828,0,1,0,1.828,3.656,1.828,1.828,0,0,0,3.656,1.828" transform="translate(19.22 124.295)" fill="#fff"/>
                <path id="Trazado_113666" data-name="Trazado 113666" d="M3.656,1.828A1.828,1.828,0,1,0,1.828,3.656,1.828,1.828,0,0,0,3.656,1.828" transform="translate(27.264 124.295)" fill="#fff"/>
                <path id="Trazado_113667" data-name="Trazado 113667" d="M3.656,1.828A1.828,1.828,0,1,0,1.828,3.656,1.828,1.828,0,0,0,3.656,1.828" transform="translate(35.308 124.295)" fill="#fff"/>
                <path id="Trazado_113668" data-name="Trazado 113668" d="M3.657,1.828A1.828,1.828,0,1,0,1.828,3.656,1.828,1.828,0,0,0,3.657,1.828" transform="translate(43.352 124.295)" fill="#fff"/>
                <path id="Trazado_113669" data-name="Trazado 113669" d="M3.656,1.828A1.828,1.828,0,1,0,1.828,3.656,1.828,1.828,0,0,0,3.656,1.828" transform="translate(51.396 124.295)" fill="#fff"/>
                <path id="Trazado_113670" data-name="Trazado 113670" d="M3.656,1.828A1.828,1.828,0,1,0,1.828,3.656,1.828,1.828,0,0,0,3.656,1.828" transform="translate(19.22 116.617)" fill="#fff"/>
                <path id="Trazado_113671" data-name="Trazado 113671" d="M3.656,1.828A1.828,1.828,0,1,0,1.828,3.656,1.828,1.828,0,0,0,3.656,1.828" transform="translate(27.264 116.617)" fill="#fff"/>
                <path id="Trazado_113672" data-name="Trazado 113672" d="M3.656,1.828A1.828,1.828,0,1,0,1.828,3.656,1.828,1.828,0,0,0,3.656,1.828" transform="translate(35.308 116.617)" fill="#fff"/>
                <path id="Trazado_113673" data-name="Trazado 113673" d="M3.657,1.828A1.828,1.828,0,1,0,1.828,3.656,1.828,1.828,0,0,0,3.657,1.828" transform="translate(43.352 116.617)" fill="#fff"/>
                <path id="Trazado_113674" data-name="Trazado 113674" d="M3.656,1.828A1.828,1.828,0,1,0,1.828,3.656,1.828,1.828,0,0,0,3.656,1.828" transform="translate(51.396 116.617)" fill="#fff"/>
                <path id="Trazado_113675" data-name="Trazado 113675" d="M3.656,1.828A1.828,1.828,0,1,0,1.828,3.656,1.828,1.828,0,0,0,3.656,1.828" transform="translate(19.22 108.938)" fill="#fff"/>
                <path id="Trazado_113676" data-name="Trazado 113676" d="M3.656,1.828A1.828,1.828,0,1,0,1.828,3.656,1.828,1.828,0,0,0,3.656,1.828" transform="translate(27.264 108.938)" fill="#fff"/>
                <path id="Trazado_113677" data-name="Trazado 113677" d="M3.656,1.828A1.828,1.828,0,1,0,1.828,3.656,1.828,1.828,0,0,0,3.656,1.828" transform="translate(35.308 108.938)" fill="#fff"/>
                <path id="Trazado_113678" data-name="Trazado 113678" d="M3.657,1.828A1.828,1.828,0,1,0,1.828,3.656,1.828,1.828,0,0,0,3.657,1.828" transform="translate(43.352 108.938)" fill="#fff"/>
                <path id="Trazado_113679" data-name="Trazado 113679" d="M3.656,1.828A1.828,1.828,0,1,0,1.828,3.656,1.828,1.828,0,0,0,3.656,1.828" transform="translate(51.396 108.938)" fill="#fff"/>
                <path id="Trazado_113680" data-name="Trazado 113680" d="M3.656,1.828A1.828,1.828,0,1,0,1.828,3.656,1.828,1.828,0,0,0,3.656,1.828" transform="translate(19.22 101.26)" fill="#fff"/>
                <path id="Trazado_113681" data-name="Trazado 113681" d="M3.656,1.828A1.828,1.828,0,1,0,1.828,3.656,1.828,1.828,0,0,0,3.656,1.828" transform="translate(27.264 101.26)" fill="#fff"/>
                <path id="Trazado_113682" data-name="Trazado 113682" d="M3.656,1.828A1.828,1.828,0,1,0,1.828,3.656,1.828,1.828,0,0,0,3.656,1.828" transform="translate(35.308 101.26)" fill="#fff"/>
                <path id="Trazado_113683" data-name="Trazado 113683" d="M3.657,1.828A1.828,1.828,0,1,0,1.828,3.656,1.828,1.828,0,0,0,3.657,1.828" transform="translate(43.352 101.26)" fill="#fff"/>
                <path id="Trazado_113684" data-name="Trazado 113684" d="M3.656,1.828A1.828,1.828,0,1,0,1.828,3.656,1.828,1.828,0,0,0,3.656,1.828" transform="translate(51.396 101.26)" fill="#fff"/>
                <path id="Trazado_113685" data-name="Trazado 113685" d="M3.656,1.828A1.828,1.828,0,1,0,1.828,3.656,1.828,1.828,0,0,0,3.656,1.828" transform="translate(19.22 93.582)" fill="#fff"/>
                <path id="Trazado_113686" data-name="Trazado 113686" d="M3.656,1.828A1.828,1.828,0,1,0,1.828,3.656,1.828,1.828,0,0,0,3.656,1.828" transform="translate(27.264 93.582)" fill="#fff"/>
                <path id="Trazado_113687" data-name="Trazado 113687" d="M3.656,1.828A1.828,1.828,0,1,0,1.828,3.656,1.828,1.828,0,0,0,3.656,1.828" transform="translate(35.308 93.582)" fill="#fff"/>
                <path id="Trazado_113688" data-name="Trazado 113688" d="M3.657,1.828A1.828,1.828,0,1,0,1.828,3.656,1.828,1.828,0,0,0,3.657,1.828" transform="translate(43.352 93.582)" fill="#fff"/>
                <path id="Trazado_113689" data-name="Trazado 113689" d="M3.656,1.828A1.828,1.828,0,1,0,1.828,3.656,1.828,1.828,0,0,0,3.656,1.828" transform="translate(51.396 93.582)" fill="#fff"/>
                <rect id="Rectángulo_33843" data-name="Rectángulo 33843" width="32.115" height="7.512" transform="translate(134.684 149.247)" fill="#f9e8dc"/>
                <rect id="Rectángulo_33844" data-name="Rectángulo 33844" width="32.447" height="13.801" transform="translate(15.069 162.807)" fill="#f9e8dc"/>
                <path id="Trazado_113690" data-name="Trazado 113690" d="M3.671,14.66H25a3.671,3.671,0,0,0,3.671-3.671V3.671A3.671,3.671,0,0,0,25,0H3.671A3.671,3.671,0,0,0,0,3.671v7.318A3.671,3.671,0,0,0,3.671,14.66" transform="translate(26.854 172.15)" fill="#eb9ba8"/>
                <path id="Trazado_113691" data-name="Trazado 113691" d="M3.567,1.783A1.783,1.783,0,1,0,1.783,3.567,1.783,1.783,0,0,0,3.567,1.783" transform="translate(32.015 177.697)" fill="#fff"/>
                <path id="Trazado_113692" data-name="Trazado 113692" d="M3.567,1.783A1.783,1.783,0,1,0,1.783,3.567,1.783,1.783,0,0,0,3.567,1.783" transform="translate(39.408 177.697)" fill="#fff"/>
                <path id="Trazado_113693" data-name="Trazado 113693" d="M3.567,1.783A1.783,1.783,0,1,0,1.783,3.567,1.783,1.783,0,0,0,3.567,1.783" transform="translate(46.801 177.697)" fill="#fff"/>
              </g>
            </g>
            <g id="Grupo_951799" data-name="Grupo 951799" transform="translate(28.948 0)" opacity="0.251">
              <g id="Grupo_80323" data-name="Grupo 80323" transform="translate(0)" clip-path="url(#clip-path-3)">
                <path id="Trazado_113615" data-name="Trazado 113615" d="M150.2,3.023c-2.22.169-4.486.265-6.806.248C131.12,3.179,119.113-.124,106.761,0,80.589.274,53.654,2.986,31.034,19.749-19.079,56.887-2.652,136.439,38.891,169.1c22.074,17.354,49.569,22.66,75.912,23.151,33.911.632,77.406-10.094,101.7-38.641,16.927-19.889,21.136-66.229,17.179-92.485-3.15-20.9-14.971-40.609-29.9-52.082C185.157-5.266,169.367,1.568,150.2,3.023" transform="translate(0 0)" fill="#f1c6bd"/>
              </g>
            </g>
          </g>
        </g>
      </g>
    </g>
    <g id="Grupo_999511" data-name="Grupo 999511" transform="translate(1125 5639)">
      <g id="Grupo_999511-2" data-name="Grupo 999511" transform="translate(0)" clip-path="url(#clip-path-5)">
        <path id="Trazado_704032" data-name="Trazado 704032" d="M1131.4,0l31.22,47.83,5.665,8.678,27.893,42.736.181.276,20.61-13.075,3.447-2.187a88.833,88.833,0,0,0-9.218-10.542c-3.08-2.95-6.547-5.653-9.754-6.756-8.564-2.946-16.656-16.808-16.656-16.808l2.471-1.56L1172.05,0Z" transform="translate(-1084.125)" fill="#dde1dc"/>
        <path id="Trazado_704033" data-name="Trazado 704033" d="M444.55,90.822l5.613,2.373,15.353,6.491,5.275,2.229a91.032,91.032,0,0,0,2.854-10.492c1.043-5.049,1.717-10.875.572-14.952-2.452-8.719,4.34-23.262,4.34-23.262l2.688,1.143L523.606,0H481.571L467.78,33.83l-3.709,9.1Z" transform="translate(-291.499)" fill="#dde1dc"/>
        <path id="Trazado_704034" data-name="Trazado 704034" d="M0,561.441l.684,1.594.537,1.254h0l.1.239.109.255.379.883,1.639,3.824.071.166,4.361,10.176,1.389,3.242.017.039.6,1.391,1.338,3.122s1.767-.891,4.283-2.377c1.434-.847,3.111-1.887,4.841-3.065q.661-.45,1.328-.928c3.9-2.784,7.83-6.19,9.655-9.6A18,18,0,0,1,35.155,567c6.032-5.474,15.427-9.1,15.427-9.1l1.147,2.688,80.676-11.607V502.65L67.8,531.336l-19.015,8.442L18.994,553.007,8.648,557.6l-.917.407-.174.078L3.236,560l-.095.042Z" transform="translate(161.717 -432.53)" fill="#dde1dc"/>
        <path id="Trazado_704035" data-name="Trazado 704035" d="M0,1079.186s1.094.322,2.867.756c.614.151,1.309.314,2.067.483a77.4,77.4,0,0,0,10.7,1.653,26.611,26.611,0,0,0,9.955-.777c3.181-1.073,7.226-.919,11.058-.3.349.056.7.117,1.039.18a65.613,65.613,0,0,1,11.357,3.26l-1,2.745,95.531,47.344v-35.423l-66.749-23.29-18.18-6.343-23.167-8.083-1.353-.473-7.449-2.6-4.271-1.49-1.913-.668-.05-.017-1.734-.605-2.931-1.023-4.478-1.562-1.56-.544-1.807,4.969-4.88,13.427-.179.491-.187.511Z" transform="translate(150.554 -905.599)" fill="#dde1dc"/>
        <path id="Trazado_704036" data-name="Trazado 704036" d="M252.07,1061.112l.965,1.8,3.122,5.83.257.478.612,1.144,3.934,7.348,15.136,28.27,8.588,16.038,31.17,58.214h37.878l-61.361-86.684-2.556,1.417s-5.86-9.744-6.8-18.152a18.416,18.416,0,0,1-.114-2.846c.01-.24.025-.477.047-.712q.046-.5.127-.972c.033-.2.063-.4.088-.6.522-4.244-.806-9.879-2.36-14.66-.91-2.8-1.9-5.3-2.634-7.064-.684-1.631-1.155-2.624-1.155-2.624l-1.374.759-7.911,4.368-1.349.745-12.827,7.083Z" transform="translate(-94.774 -901.236)" fill="#dde1dc"/>
        <path id="Trazado_704037" data-name="Trazado 704037" d="M979.64,1285.579h28.6l-1.936-66.489-2.913-.234s.576-12.655,5.063-20.1a14.825,14.825,0,0,1,1.882-2.522c3.167-3.356,5.383-9.554,6.8-14.83.717-2.678,1.226-5.118,1.548-6.826.007-.041.015-.081.022-.12.091-.484.165-.905.225-1.253a.02.02,0,0,0,0-.012c.12-.695.177-1.089.177-1.089l-3.861-.318-2.946-.244-16.627-1.373-4.959-.409-.545,5.708-.106,1.1-3.947,41.3-1.059,11.085Z" transform="translate(-861.641 -1006.578)" fill="#dde1dc"/>
        <path id="Trazado_704038" data-name="Trazado 704038" d="M1132.06,1167.363l5.9,10.094h25.118l39.477-82.357-2.48-1.543a65.267,65.267,0,0,1,7.279-9.946c.224-.25.455-.5.688-.744s.462-.484.7-.723a22.3,22.3,0,0,1,7.875-5.51c3.684-1.3,7.7-4.715,11.069-8.184q.261-.27.518-.538c2.035-2.139,3.808-4.255,5.093-5.865h0c1.357-1.7,2.171-2.84,2.171-2.84l-4.594-2.871-.047-.029-5.6-3.5-12.209-7.629-1.709-1.067-8.351,12.987-19.176,29.825-12.229,19.021Z" transform="translate(-1099.265 -898.456)" fill="#dde1dc"/>
        <path id="Trazado_704039" data-name="Trazado 704039" d="M454.463,674.208a3.734,3.734,0,0,0,2.036,2.247,32.912,32.912,0,0,0,6.8.615q.891-.022,1.782-.112,3.738-.382,7.47-.824.853-.1,1.706-.2,1.641-.2,3.28-.4,2.482-.308,4.961-.626l3.565-.46.426-.055,1.521-.2.289-.037,1.044-.135,2.708-.346.531-.067q2.044-.259,4.089-.512a13.416,13.416,0,0,1,2.465.052.626.626,0,0,1,.573.509l0,.01a.627.627,0,0,1-.416.71,22.4,22.4,0,0,1-2.948.882l-.64.118q-2.146.4-4.3.781l-2.825.5-.209.038-2.849.508-.344.062q-2.83.507-5.656,1.03-1.429.266-2.856.54-.526.1-1.052.2l-.842.164a57.429,57.429,0,0,0-8.067,2.334l-.252.09a2.514,2.514,0,0,0-.287.126,2.373,2.373,0,0,0-.351,3.861q.092.082.187.161a6.868,6.868,0,0,0,3.455,1.548,13.076,13.076,0,0,0,4.554-.278l.055-.011c2.6-.531,5.214-.913,7.831-1.19.209-.023.419-.044.628-.065q1.78-.177,3.563-.3c2.016-.139,4.034-.229,6.054-.292q1.026-.032,2.054-.056,1.011-.024,2.022-.042l.195,0,.122,0,.132,0q1.057-.018,2.114-.032l3.546-.05c1.692-.026,3.383-.057,5.073-.106q1.62-.046,3.239-.116c.233-.011.467-.014.7-.013q.471,0,.943.03c1.071.057,2.145.183,3.215.242.086.462.072.389.159.85-1.656.709-3.35,1.344-5,2.062-.828.36-1.645.742-2.439,1.163q-1.434.76-2.868,1.526-.657.351-1.313.708a95.205,95.205,0,0,0-8.47,5.079,4.131,4.131,0,0,0-1.312,1.751s0,0,0,0a14.172,14.172,0,0,0-.639,1.8c-.06.2-.117.405-.173.606-.079.282-.154.559-.229.824a1,1,0,0,0-.029.158,3.286,3.286,0,0,0,.611,2.128,1.834,1.834,0,0,0,.2.2,7.49,7.49,0,0,0,2.052-.616c.048-.021.094-.043.142-.062q.67-.3,1.353-.551c.071-.028.143-.055.216-.08.66-.242,1.328-.457,2-.653l.152-.044.031-.009c3.131-.9,6.381-1.4,9.554-2.2q.682-.171,1.358-.363l.181-.053q.345-.1.686-.206a24.665,24.665,0,0,0,5.132-2.2c3.451-2.007,7.51-2.965,11.289-4.41a8.87,8.87,0,0,0,2.11-.936c2.831-2.078,5.716-4.1,8.569-6.151,3.482-2.508,5.922-5.334,9.156-8.129,5.486-4.741,12.894-7.175,19.353-9.9,3.441-1.454,6.96-2.72,10.466-4.021l3.232-26.379q-3.608.672-7.218,1.315c-5.982,1.06-11.967,2.326-18.005,2.784a57.078,57.078,0,0,1-15.227-.615,53.624,53.624,0,0,0-10.846-.951c-6.63.042-13.209,1.02-19.828,1.709-4.763.5-9.512,1.072-14.244,1.8l-.021,0c-3.954.608-8.205,1.273-12.809,2.138q-.9.169-1.828.35c-4.11.8-8.5,1.776-13.2,3.011-.072.019-.123.086-.182.133-1.34,1.065-.691,2.758.746,3.378a2.918,2.918,0,0,0,1.066.238,1.529,1.529,0,0,0,.324-.028c.624-.116,1.164-.217,1.671-.305l.219-.038c.561-.1,1.089-.179,1.658-.255,1.018-.135,2.168-.248,3.87-.38l1.018-.076.358-.026.834-.058.273-.017c.253-.017.5-.032.753-.048.556-.034,1.1-.066,1.648-.1.354-.02.707-.037,1.06-.055l.191-.009c1.4-.07,2.8-.131,4.306-.2l.356-.016c1.17-.053,2.4-.109,3.741-.178.563-.028,1.143-.059,1.745-.092a.748.748,0,0,1,.778.527,1.241,1.241,0,0,1-.215,1.045,1.2,1.2,0,0,1-.773.466c-.745.119-1.553.264-2.387.421-1.172.221-2.4.467-3.573.707-.864.177-1.7.349-2.476.506-1.1.222-2.167.429-3.217.628l-.21.04c-1.088.207-2.154.406-3.2.606-1.181.226-2.34.453-3.486.7l-.22.047q-.645.136-1.284.282-.44.1-.879.2c-.107.024-.213.05-.32.076-.774.187-1.544.385-2.312.6q-.294.081-.587.166a50.482,50.482,0,0,0-5.431,1.9c-.12.049-.241.1-.361.152q-.8.34-1.606.721-.852.4-1.712.852a6.521,6.521,0,0,0-2.149,1.749,1.818,1.818,0,0,0,.265,2.442c.078.089.164.177.259.265l.7.406a4.143,4.143,0,0,0,2.513.57c.052,0,.1-.011.138-.018,2.393-.417,4.519-.8,6.437-1.146h0l1.139-.208c2.316-.424,4.319-.8,6.122-1.133l.933-.173c1.3-.241,2.5-.46,3.651-.661,2.2-.386,4.211-.707,6.368-.99,1.047-.138,2.129-.267,3.285-.389.462-.05.936-.1,1.424-.145.956-.094,1.968-.184,3.053-.274.857-.071,1.76-.14,2.718-.21.123-.009.221.191.252.391.029.181,0,.361-.107.385l-1.416.3-2.778.588-.673.142-.077.016-.834.176-.688.145-2.234.473-8.716,1.846-.873.185-1.236.261-1.112.235-3.616.766-.783.166-.191.04-.216.047-3.966.839-.2.043-.6.128-2.912.616a25.055,25.055,0,0,0-3.237.648l-.622.19-2.569.786-.9.274a6.019,6.019,0,0,0-2.025,1.461c-.3.393-.068,1.635-.053,1.99" transform="translate(-350.291 -548.08)" fill="#af4e37"/>
        <path id="Trazado_704040" data-name="Trazado 704040" d="M1235.661,957.314a.1.1,0,0,0,.094.164c2.3-.883,4.243-.388,4.9.526a1.136,1.136,0,0,1-.083,1.469c-1.241,1.5-4.7,1.235-4.732,1.232a.1.1,0,0,0-.015.19c.146.012,3.591.273,4.895-1.3a1.317,1.317,0,0,0,.091-1.7c-.715-1-2.7-1.52-5.123-.594a.093.093,0,0,0-.025.015" transform="translate(-1119.327 -823.341)" fill="#c66855"/>
        <path id="Trazado_704041" data-name="Trazado 704041" d="M1307.464,883.317a.1.1,0,0,0,.1.159c2.173-1.168,4.16-.923,4.927-.1a1.136,1.136,0,0,1,.1,1.468c-1.04,1.643-4.5,1.821-4.537,1.823a.1.1,0,0,0,.009.191c.146-.007,3.6-.185,4.69-1.912a1.317,1.317,0,0,0-.126-1.7c-.836-.9-2.876-1.165-5.157.062l-.014.009" transform="translate(-1201.277 -759.372)" fill="#c66855"/>
        <path id="Trazado_704042" data-name="Trazado 704042" d="M1294.054,815.046a.1.1,0,0,0,.1.159c1.844-.976,3.539-.749,4.2-.039a.962.962,0,0,1,.1,1.238c-.871,1.388-3.822,1.507-3.851,1.509a.1.1,0,1,0,.007.191c.125,0,3.083-.125,4.006-1.6a1.143,1.143,0,0,0-.122-1.469c-.726-.781-2.48-1.031-4.428,0l-.015.01" transform="translate(-1185.223 -700.751)" fill="#c66855"/>
        <path id="Trazado_704043" data-name="Trazado 704043" d="M1241.629,720.938a.1.1,0,0,0,.1.159c1.354-.717,2.6-.553,3.079-.034a.681.681,0,0,1,.072.886c-.638,1.017-2.809,1.1-2.831,1.105a.1.1,0,1,0,.007.191c.094,0,2.3-.093,2.986-1.195a.869.869,0,0,0-.094-1.118c-.544-.585-1.854-.774-3.308,0l-.015.01" transform="translate(-1124.285 -619.922)" fill="#c66855"/>
        <path id="Trazado_704044" data-name="Trazado 704044" d="M1035.641,1098.556a.093.093,0,0,0-.027.106.1.1,0,0,0,.127.055,1.092,1.092,0,0,0,.157-.1c2.687-1.768,3.9-1.895,4.45-1.69a.838.838,0,0,1,.523.611.1.1,0,1,0,.184-.051,1.03,1.03,0,0,0-.64-.739c-.588-.221-1.868-.1-4.622,1.709-.059.039-.114.075-.126.082a.088.088,0,0,0-.026.014" transform="translate(-891.403 -943.683)" fill="#c66855"/>
        <path id="Trazado_704045" data-name="Trazado 704045" d="M474.409,790.547c3.483-2.508,6.918-5.071,10.152-7.866,5.487-4.741,11.9-7.438,18.357-10.167,3.441-1.454,6.96-2.72,10.466-4.021l.436-3.557a67.352,67.352,0,0,0-9.477-5.769s-1.251,9.169-12.511,15.806a59.8,59.8,0,0,0-17.423,15.575" transform="translate(-285.878 -653.262)" fill="#943"/>
        <path id="Trazado_704046" data-name="Trazado 704046" d="M689.631,845.627a.56.56,0,0,0,.029.223c2.367,4.245,4.707,8.08,6.976,11.6q.508.791,1.014,1.561c2.567,3.919,5.035,7.444,7.336,10.715a.114.114,0,0,1,.011.017c2.757,3.916,5.633,7.738,8.576,11.516a.078.078,0,0,0,.01.011c4.086,5.245,7.938,10.661,12.5,15.466a53.757,53.757,0,0,0,8.2,7.161,57.032,57.032,0,0,1,11,10.55c3.854,4.669,7.089,9.861,10.472,14.908q2.04,3.047,4.054,6.114l16.776-20.611c-1.493-3.429-3.019-6.844-4.355-10.331-2.508-6.548-5.888-13.575-6.273-20.816-.226-4.269.12-7.985-.485-12.234-.5-3.481-1.042-6.96-1.505-10.44a8.842,8.842,0,0,0-.788-2.169c-1.578-3.726-3.7-7.317-4.645-11.195a24.718,24.718,0,0,0-1.97-5.224q-.161-.32-.328-.638c-.028-.056-.057-.112-.087-.166q-.331-.622-.681-1.232c-1.622-2.842-3.51-5.534-5.034-8.413,0-.01-.01-.018-.014-.028l-.074-.141q-.49-.931-.917-1.9c-.032-.07-.063-.139-.092-.211-.192-.445-.374-.9-.54-1.357-.02-.047-.036-.1-.053-.145a7.482,7.482,0,0,0-.979-1.907c-.043,0-.085-.007-.13-.007a1.1,1.1,0,0,0-.152,0,3.286,3.286,0,0,0-1.957,1.035.886.886,0,0,0-.093.13c-.14.237-.287.484-.435.737q-.159.268-.318.544a14.339,14.339,0,0,0-.854,1.708s0,0,0,0a4.145,4.145,0,0,0-.352,2.16,94.719,94.719,0,0,0,2.208,9.625q.2.72.4,1.438c.292,1.044.59,2.084.887,3.125.247.865.539,1.717.852,2.564.626,1.688,1.342,3.349,1.979,5.035-.393.257-.331.215-.724.474-.784-.731-1.62-1.419-2.4-2.151q-.347-.322-.675-.658-.245-.251-.476-.513-1.071-1.218-2.161-2.416-1.705-1.877-3.44-3.73l-2.422-2.591q-.722-.772-1.441-1.547l-.091-.1-.082-.089c-.045-.049-.089-.095-.133-.142q-.688-.743-1.371-1.487T733,837.946c-1.353-1.5-2.688-3.017-3.984-4.567q-1.151-1.369-2.257-2.773c-.128-.166-.26-.332-.388-.5-1.614-2.078-3.148-4.225-4.57-6.47l-.029-.046a13.1,13.1,0,0,0-2.956-3.476,6.866,6.866,0,0,0-3.51-1.417l-.246-.024a2.3,2.3,0,0,0-2.431,3.224c.036.082.073.163.11.244a57.29,57.29,0,0,0,3.907,7.433l.464.721q.291.45.583.9.791,1.218,1.589,2.433,1.58,2.4,3.178,4.79c.065.1.13.194.194.29l1.608,2.406.119.177,1.594,2.387q1.21,1.814,2.413,3.637l.359.543a22.4,22.4,0,0,1,1.408,2.737.625.625,0,0,1-.225.791l-.008.006a.626.626,0,0,1-.765-.06,13.363,13.363,0,0,1-1.745-1.741q-1.237-1.649-2.465-3.3l-.319-.43q-.816-1.094-1.628-2.191l-.626-.847c-.059-.077-.116-.156-.174-.234l-.912-1.232-.255-.345q-1.069-1.444-2.14-2.888-1.49-2.007-2.987-4.011-.988-1.322-1.984-2.642-.517-.686-1.036-1.371-2.27-2.994-4.583-5.955-.552-.705-1.154-1.363a32.953,32.953,0,0,0-5.156-4.474,3.726,3.726,0,0,0-3.03.089c-.266.234-1.32.932-1.4,1.417a6,6,0,0,0,.35,2.472l.423.836,1.215,2.4.293.58a25.24,25.24,0,0,0,1.776,2.782l1.575,2.526c.107.174.218.349.326.524l.109.174,2.144,3.441c.038.063.077.124.116.188s.07.109.1.164c.141.226.282.453.424.679.64,1.03,1.295,2.079,1.953,3.137.2.321.4.642.6.964q.335.536.668,1.073.234.379.472.758l4.711,7.562q.611.981,1.207,1.939c.126.2.25.4.372.6.152.243.3.484.451.724.014.021.028.045.042.066.121.2.243.391.364.584q.772,1.239,1.5,2.411.391.623.766,1.228c.06.095-.052.239-.2.343-.166.117-.378.184-.458.089-.612-.739-1.189-1.438-1.731-2.1-.688-.845-1.324-1.636-1.92-2.391-.3-.385-.6-.76-.883-1.127-.711-.918-1.369-1.787-1.995-2.638-1.292-1.751-2.452-3.422-3.7-5.277-.65-.967-1.324-1.985-2.053-3.09-.172-.258-.345-.522-.522-.792-1.009-1.53-2.126-3.235-3.426-5.2q-.312-.473-.64-.965h0c-1.078-1.625-2.278-3.422-3.635-5.435-.022-.035-.05-.073-.082-.113a4.142,4.142,0,0,0-2.153-1.416l-.776-.22a3.676,3.676,0,0,0-.371,0,1.818,1.818,0,0,0-1.943,1.5,6.489,6.489,0,0,0,.229,2.761c.181.624.371,1.23.572,1.826q.285.845.594,1.657c.045.123.092.245.139.365a50.488,50.488,0,0,0,2.4,5.23c.095.181.191.36.287.538.378.7.769,1.394,1.17,2.081.054.095.11.191.166.285.153.258.307.516.463.774.226.374.453.748.686,1.122.039.063.078.127.119.191.619.993,1.258,1.986,1.914,2.994.583.9,1.179,1.8,1.783,2.729l.117.179c.585.9,1.177,1.811,1.777,2.755.423.665.88,1.389,1.352,2.136.642,1.014,1.313,2.067,1.966,3.065.464.71.921,1.392,1.35,2.013a1.2,1.2,0,0,1,.2.88,1.244,1.244,0,0,1-.6.879.747.747,0,0,1-.919-.2q-.59-.684-1.144-1.321c-.878-1.011-1.692-1.94-2.465-2.821q-.119-.134-.234-.268c-.995-1.129-1.925-2.183-2.843-3.241-.043-.047-.085-.1-.127-.144l-.695-.8c-.356-.413-.713-.83-1.073-1.255q-.243-.285-.488-.575l-.176-.209c-.177-.211-.357-.426-.537-.642l-.23-.276q-.345-.416-.65-.787c-1.085-1.318-1.8-2.225-2.409-3.052-.339-.463-.646-.9-.965-1.373l-.124-.183c-.287-.427-.589-.886-.937-1.416a1.626,1.626,0,0,0-.2-.254,2.92,2.92,0,0,0-.91-.6c-1.444-.607-3.114.1-2.952,1.8" transform="translate(-578.667 -703.912)" fill="#af4e37"/>
        <path id="Trazado_704047" data-name="Trazado 704047" d="M1108.073,829.812a.1.1,0,0,1,.183-.046c.96,2.272,2.661,3.328,3.775,3.167a1.137,1.137,0,0,0,1-1.078c.219-1.933-2.365-4.242-2.391-4.265a.1.1,0,1,1,.126-.143c.11.1,2.686,2.4,2.455,4.43a1.317,1.317,0,0,1-1.165,1.246c-1.214.175-2.97-.9-3.978-3.282a.092.092,0,0,1-.007-.028" transform="translate(-973.692 -711.996)" fill="#c66855"/>
        <path id="Trazado_704048" data-name="Trazado 704048" d="M1212.1,829.3a.1.1,0,0,1,.187-.035c.664,2.376,2.217,3.638,3.342,3.62a1.137,1.137,0,0,0,1.131-.942c.463-1.888-1.808-4.508-1.831-4.534a.1.1,0,0,1,.144-.126c.1.11,2.359,2.721,1.873,4.706a1.317,1.317,0,0,1-1.313,1.088c-1.226.019-2.833-1.266-3.529-3.76a.092.092,0,0,1,0-.017" transform="translate(-1091.984 -711.851)" fill="#c66855"/>
        <path id="Trazado_704049" data-name="Trazado 704049" d="M1253.415,892.763a.1.1,0,0,1,.187-.035c.574,2.006,1.913,3.071,2.882,3.054a.963.963,0,0,0,.962-.785c.4-1.59-1.562-3.8-1.582-3.822a.1.1,0,1,1,.142-.128c.084.093,2.047,2.309,1.625,4a1.143,1.143,0,0,1-1.144.93c-1.066.018-2.462-1.073-3.069-3.193a.107.107,0,0,1,0-.017" transform="translate(-1138.42 -766.719)" fill="#c66855"/>
        <path id="Trazado_704050" data-name="Trazado 704050" d="M1287.343,1005.356a.1.1,0,0,1,.187-.035c.422,1.473,1.4,2.255,2.109,2.243a.681.681,0,0,0,.688-.562c.291-1.164-1.151-2.791-1.165-2.807a.1.1,0,0,1,.142-.128c.062.07,1.524,1.719,1.208,2.981a.869.869,0,0,1-.87.707c-.8.014-1.844-.8-2.3-2.381a.1.1,0,0,1,0-.017" transform="translate(-1176.02 -863.972)" fill="#c66855"/>
        <path id="Trazado_704051" data-name="Trazado 704051" d="M876.721,884.292a.093.093,0,0,1,.058-.093.1.1,0,0,1,.128.053,1.085,1.085,0,0,1,.038.181c.588,3.162,1.339,4.127,1.866,4.379a.838.838,0,0,0,.8-.046.1.1,0,1,1,.091.168,1.03,1.03,0,0,1-.976.05c-.567-.271-1.369-1.275-1.971-4.516-.013-.069-.025-.134-.029-.147a.09.09,0,0,1-.008-.029" transform="translate(-707.936 -760.846)" fill="#c66855"/>
        <path id="Trazado_704052" data-name="Trazado 704052" d="M809.88,1271.38c4.086,5.245,7.938,10.661,12.5,15.466a53.763,53.763,0,0,0,8.2,7.16,57.032,57.032,0,0,1,11,10.55c3.854,4.669,7.089,9.861,10.472,14.908q2.04,3.047,4.054,6.114s-9.7-27.572-21.715-33.152c-11.824-5.494-24.131-20.578-24.512-21.048" transform="translate(-674.963 -1094.022)" fill="#9b3e2c"/>
        <path id="Trazado_704053" data-name="Trazado 704053" d="M761.394,286.165a3.065,3.065,0,0,0-.507,1.12,1.919,1.919,0,0,0,.307.421,2.642,2.642,0,0,0,.222.207,3.38,3.38,0,0,0,.544.368,3.089,3.089,0,0,0,1.146.4h.053l.172,0c1.787-.044,4-.018,5.1-1.069q1.137-1.09,2.222-2.243.973-1.03,1.913-2.1c.049-.054.1-.109.144-.163l.306-.349q.66-.756,1.309-1.526c.05-.057.1-.115.147-.173q.526-.624,1.047-1.253l.057-.068q.8-.968,1.6-1.94h0q.344-.423.691-.846c.028-.034.056-.068.084-.1.767-.944,1.465-1.949,2.144-2.973.372-.561.738-1.128,1.106-1.694.385-.592.772-1.183,1.168-1.765l.8.371c-.048.367-.089.737-.127,1.108-.1.948-.18,1.9-.334,2.832-.051.31-.111.617-.182.921l-.063.271c-.018.079-.037.156-.054.235-.042.183-.084.365-.125.548-.008.032-.014.065-.022.1l-.019.087c-.058.253-.115.509-.17.763q-.141.633-.277,1.267c-.014.062-.027.122-.04.185q-.229,1.058-.447,2.121c-.014.064-.027.129-.041.194q-.3,1.428-.583,2.859l-.526,2.615q-.287,1.432-.58,2.862-.25,1.219-.507,2.436c-.038.182-.076.362-.115.543-.005.021-.01.043-.014.064q-.165.77-.336,1.539c-.042.189-.083.381-.126.57q-.35,1.558-.726,3.105-.5,2.06-1.073,4.1-.232.827-.478,1.652t-.5,1.627q-.155.486-.316.97c-.545,1.647-1.141,3.278-1.8,4.889a17.886,17.886,0,0,0-.771,2.244,7.971,7.971,0,0,0,.531,5.982c.04.075.081.151.122.225a2.347,2.347,0,0,0,3.814.621,1.939,1.939,0,0,0,.175-.252,57.913,57.913,0,0,0,3.63-6.986c.077-.182.152-.365.226-.549l.029-.071q1-2.487,1.962-4.992.6-1.561,1.2-3.126c.035-.091.071-.184.106-.277q.464-1.216.926-2.436l.132-.348c.142-.377.284-.752.428-1.127q.453-1.2.906-2.393,1.066-2.806,2.146-5.607c.034-.085.069-.171.105-.255a14.714,14.714,0,0,1,.795-1.556q.024-.045.05-.088l.287-.5c.054-.1.109-.19.163-.286a.583.583,0,0,1,.766-.232l.009,0a.685.685,0,0,1,.389.694c0,.013,0,.024,0,.036v0c-.037.308-.069.619-.107.927a8.213,8.213,0,0,1-.292,1.478q-.167.526-.335,1.052-.9,2.834-1.819,5.662l-.189.589-.431,1.333q-.079.241-.157.483c-.02.062-.042.126-.06.188l-.63,1.941c-.019.063-.04.125-.06.188q-.432,1.334-.863,2.67-.406,1.26-.81,2.522-.539,1.674-1.067,3.352-.63,1.989-1.248,3.982-.966,3.122-1.893,6.26a24.268,24.268,0,0,0-.7,3.186,36.694,36.694,0,0,0-.389,5.411,2,2,0,0,0,.26.831,4.086,4.086,0,0,0,1.548,1.742c.342.1,1.507.64,1.942.448a5.482,5.482,0,0,0,1.792-1.633l1.4-2.653.457-.863.109-.207a24.169,24.169,0,0,0,1.225-3.032l.525-1.259c1.3-3.119,2.777-6.66,4.3-10.317q.176-.421.351-.843.226-.542.454-1.087c.022-.053.044-.108.067-.16s.038-.092.057-.139c.01-.023.02-.047.03-.07q.3-.714.6-1.432c.078-.187.155-.374.234-.561l.079-.187c.119-.286.238-.572.357-.858.145-.348.29-.694.434-1.041.454-1.086.9-2.167,1.349-3.234.49-1.176.974-2.336,1.446-3.47q.3-.711.586-1.407.5-1.187.969-2.325.173-.413.342-.819.371-.891.725-1.74c.09-.215.787.11.727.338q-.244.925-.474,1.781c-.025.1-.051.189-.076.283-.372,1.372-.721,2.62-1.058,3.781-.131.449-.26.884-.388,1.309-.353,1.173-.7,2.264-1.045,3.32-.225.68-.45,1.345-.681,2.006-.2.585-.412,1.166-.626,1.754-.025.071-.051.142-.076.211-.065.178-.13.355-.2.535-.02.057-.042.115-.063.172-.242.651-.491,1.315-.752,2-.148.388-.3.783-.454,1.189-.022.057-.044.115-.066.173-.144.373-.29.754-.442,1.146-1.083,2.8-2.375,6.1-4.023,10.451v0h0c-.218.58-.446,1.181-.679,1.8l-.216.572-.323.862c-.014.039-.029.082-.043.132,0,0,0,0,0,0a4.2,4.2,0,0,0-.046,2.128,4.866,4.866,0,0,0,.137.492l.267.791c.768,1.292,1.729,1.551,2.533,1.2a4.451,4.451,0,0,0,.6-.322,5.867,5.867,0,0,0,.757-.582,6.71,6.71,0,0,0,.739-.78q.921-1.138,1.723-2.28l.078-.111a.349.349,0,0,0,.024-.035c.871-1.245,1.648-2.5,2.361-3.768a65.843,65.843,0,0,0,3.291-6.874c.052-.124.1-.249.156-.373.44-1.061.87-2.139,1.3-3.24.314-.8.629-1.608.95-2.43.364-.929.735-1.874,1.121-2.836.109-.272.219-.545.33-.82.289-.71.6-1.478.929-2.273q.132-.322.265-.648h0c.377-.928.758-1.874,1.115-2.789l.126-.323c.253-.655.492-1.29.706-1.884a1.112,1.112,0,0,1,.407-.539,1.183,1.183,0,0,1,1.242-.057.813.813,0,0,1,.368.9l-.033.136q-.079.32-.153.632c-.2.823-.385,1.605-.563,2.356-.026.108-.05.215-.076.322-.084.355-.165.7-.245,1.045-.014.062-.029.123-.044.184-.289,1.238-.558,2.4-.823,3.533-.014.065-.03.129-.045.193q-.133.572-.268,1.137c-.137.581-.275,1.158-.418,1.741l-.122.5c-.213.865-.434,1.744-.672,2.657-.008.03-.016.061-.024.092-.141.537-.27,1.026-.391,1.474a50.949,50.949,0,0,1-1.769,5.617c-.152.4-.32.836-.508,1.321a1.407,1.407,0,0,0-.087.312,2.88,2.88,0,0,0,1.2,2.863h0a1.63,1.63,0,0,0,1.975-.167c.056-.046.13-.08.162-.146s.073-.154.109-.231h0q1.554-3.273,2.883-6.36,1.123-2.594,2.111-5.062c.783-1.946,1.51-3.835,2.2-5.666,1.082-2.891,2.057-5.64,2.977-8.256.063-.177.123-.353.185-.527q.441-1.258.868-2.52.28-.827.554-1.654l.065-.2c.019-.06.039-.119.059-.178q.607-1.847,1.189-3.7l.065-.2c.107-.347.217-.694.324-1.041q.637-2.062,1.252-4.135c1.914-6.453,4.109-12.789,5.362-19.426q.179-.947.331-1.9c.452-2.851-.168-5.7-.194-8.7a60.892,60.892,0,0,1,2.405-15.553,62.31,62.31,0,0,1,3.494-9.283c1.1-2.484,2.244-4.955,3.2-7.5q.358-.945.716-1.888.4-1.056.808-2.111L821.952,210.3l-3.142-.5c-.013.019-.025.037-.036.056-3.034,4.675-5.757,9.577-8.87,14.19l-.506.75c-3.67,5.436-7.379,10.782-12.747,14.823-6.023,4.534-11.42,9.919-17.061,14.968a8.258,8.258,0,0,0-1.3,1.849c-.439.706-.86,1.428-1.274,2.157a45.416,45.416,0,0,1-5.087,7.882c-3.943,4.429-5.387,10.28-7.991,15.437l-.086.168a26.532,26.532,0,0,1-1.991,3.327c-.065.092-.266.406-.469.752Z" transform="translate(-652.892 -180.538)" fill="#f99d7d"/>
        <path id="Trazado_704054" data-name="Trazado 704054" d="M1214.341,962.882a.092.092,0,0,1-.111,0,.1.1,0,0,1-.03-.136c1.281-2.053,1.157-4.092.39-4.969a1.131,1.131,0,0,0-1.443-.287c-1.683.85-2.064,4.328-2.068,4.363a.089.089,0,0,1-.1.08.1.1,0,0,1-.084-.112c.015-.147.4-3.614,2.165-4.506a1.31,1.31,0,0,1,1.671.338c.836.956.979,3.052-.366,5.207a.085.085,0,0,1-.019.021" transform="translate(-1090.161 -823.628)" fill="#ffc1b0"/>
        <path id="Trazado_704055" data-name="Trazado 704055" d="M1154.766,1052.769a.093.093,0,0,1-.121-.006.1.1,0,0,1-.014-.137c1.534-1.852,1.662-3.875,1-4.839a1.156,1.156,0,0,0-1.407-.472c-1.787.615-2.6,3.989-2.606,4.023a.088.088,0,0,1-.114.065.1.1,0,0,1-.07-.121c.033-.143.841-3.5,2.72-4.151a1.34,1.34,0,0,1,1.629.552c.718,1.051.6,3.132-1.009,5.076l-.012.012" transform="translate(-1022.711 -900.979)" fill="#ffc1b0"/>
        <path id="Trazado_704056" data-name="Trazado 704056" d="M1085.34,1056.233a.093.093,0,0,1-.121-.005.1.1,0,0,1-.015-.138c1.287-1.575,1.379-3.307.811-4.136a.98.98,0,0,0-1.183-.41c-1.509.511-2.168,3.4-2.174,3.424a.089.089,0,0,1-.113.066.1.1,0,0,1-.071-.121c.027-.123.688-3.013,2.29-3.555a1.164,1.164,0,0,1,1.4.49c.625.912.545,2.707-.815,4.372l-.012.012" transform="translate(-943.425 -904.632)" fill="#ffc1b0"/>
        <path id="Trazado_704057" data-name="Trazado 704057" d="M983.129,1027.511a.092.092,0,0,1-.12-.005.1.1,0,0,1-.015-.138,2.74,2.74,0,0,0,.6-3.031.694.694,0,0,0-.848-.293c-1.1.375-1.59,2.5-1.595,2.518a.088.088,0,0,1-.113.066.1.1,0,0,1-.071-.121c.02-.091.513-2.243,1.71-2.649a.886.886,0,0,1,1.069.373,2.891,2.891,0,0,1-.6,3.267l-.012.012" transform="translate(-826.75 -880.982)" fill="#ffc1b0"/>
        <path id="Trazado_704058" data-name="Trazado 704058" d="M1308.1,731.736a.089.089,0,0,1-.108,0,.106.106,0,0,1-.03-.139.991.991,0,0,1,.124-.13c2.212-2.209,2.559-3.378,2.46-3.969a.924.924,0,0,0-.5-.67.1.1,0,0,1-.043-.133.089.089,0,0,1,.126-.036,1.134,1.134,0,0,1,.6.818c.106.636-.243,1.87-2.51,4.135-.048.048-.094.094-.1.1a.082.082,0,0,1-.019.022" transform="translate(-1199.087 -625.278)" fill="#ffc1b0"/>
        <path id="Trazado_704059" data-name="Trazado 704059" d="M766.881,325.319c-.761,6.479.78,14.393.78,14.393l.034.555a52.806,52.806,0,0,0,.689-8.768,57.938,57.938,0,0,1,2.2-15.189,178.521,178.521,0,0,1,6.016-17.08q.357-.945.716-1.887l-3.532-1.218s-6.006,21.515-6.909,29.194" transform="translate(-590.15 -254.816)" fill="#e58f77"/>
        <path id="Trazado_704060" data-name="Trazado 704060" d="M994.358,713.316a3.066,3.066,0,0,0,.114-1.225,1.932,1.932,0,0,0-.427-.3,2.574,2.574,0,0,0-.278-.123,3.348,3.348,0,0,0-.635-.171,3.1,3.1,0,0,0-1.213,0l-.05.017-.161.06c-1.676.624-3.779,1.322-4.473,2.673q-.72,1.4-1.37,2.845-.584,1.291-1.125,2.607c-.028.067-.056.135-.083.2l-.175.429q-.378.93-.74,1.869c-.028.07-.055.141-.082.211q-.293.761-.581,1.526c-.011.027-.02.055-.031.083q-.442,1.177-.876,2.355h0c-.125.341-.252.684-.378,1.026-.015.042-.031.083-.045.125-.417,1.143-.749,2.32-1.057,3.51-.169.652-.33,1.307-.493,1.962-.171.685-.344,1.37-.528,2.049l-.875-.091c-.074-.362-.156-.725-.242-1.089-.217-.928-.45-1.855-.607-2.786-.052-.31-.1-.619-.128-.93-.01-.093-.019-.185-.029-.277s-.016-.16-.026-.24c-.02-.187-.04-.372-.06-.559,0-.033-.008-.066-.011-.1l-.01-.088c-.027-.259-.057-.518-.088-.777q-.073-.644-.151-1.287c-.007-.063-.014-.124-.022-.187q-.129-1.075-.269-2.152c-.008-.065-.016-.131-.025-.2q-.186-1.447-.381-2.893-.178-1.322-.356-2.643-.2-1.447-.385-2.894-.161-1.234-.315-2.469c-.023-.184-.046-.367-.068-.551,0-.022,0-.044-.008-.065q-.1-.782-.184-1.565c-.022-.193-.045-.387-.066-.58q-.177-1.587-.326-3.173-.2-2.112-.322-4.224c-.034-.572-.064-1.144-.087-1.717s-.043-1.134-.056-1.7q-.012-.51-.018-1.02c-.022-1.735.01-3.471.109-5.209a17.913,17.913,0,0,0,0-2.372,7.972,7.972,0,0,0-2.452-5.482c-.062-.058-.125-.116-.189-.173a2.347,2.347,0,0,0-3.809.656,1.955,1.955,0,0,0-.084.295,57.912,57.912,0,0,0-1.153,7.788c-.013.2-.025.395-.034.593,0,.025,0,.051,0,.076q-.133,2.677-.228,5.359-.062,1.673-.115,3.346c0,.1-.007.2-.009.3q-.042,1.3-.081,2.6c0,.124-.008.249-.011.373-.012.4-.023.8-.036,1.205q-.038,1.278-.076,2.557-.092,3-.2,6c0,.092-.009.184-.016.275a14.687,14.687,0,0,1-.244,1.731q-.008.05-.018.1c-.035.189-.072.379-.107.568-.02.108-.041.215-.061.323a.583.583,0,0,1-.649.469h-.01a.685.685,0,0,1-.594-.529c0-.013,0-.024-.008-.036v0c-.065-.3-.137-.608-.2-.911a8.205,8.205,0,0,1-.206-1.492c-.009-.367-.018-.736-.027-1.1q-.07-2.974-.126-5.946-.006-.31-.013-.619c-.009-.468-.018-.934-.027-1.4,0-.169-.006-.339-.009-.508,0-.065,0-.132,0-.2q-.018-1.02-.037-2.04c0-.066,0-.131,0-.2q-.027-1.4-.055-2.806-.027-1.324-.056-2.648-.037-1.758-.084-3.516-.053-2.086-.119-4.172-.1-3.266-.251-6.535a24.252,24.252,0,0,0-.376-3.241,36.661,36.661,0,0,0-1.4-5.243,2,2,0,0,0-.517-.7,4.087,4.087,0,0,0-2.032-1.142c-.357.013-1.633-.114-1.982.21a5.482,5.482,0,0,0-1.161,2.128l-.46,2.965-.15.964-.035.232a24.152,24.152,0,0,0-.169,3.266q-.042.667-.086,1.362c-.212,3.372-.453,7.2-.7,11.157q-.029.455-.057.912-.038.586-.075,1.175c0,.058-.007.116-.011.174s-.006.1-.009.15c0,.025,0,.051-.005.076q-.05.773-.1,1.548c-.013.2-.025.4-.038.607,0,.067-.009.135-.014.2-.02.309-.038.618-.058.927-.024.376-.048.751-.071,1.126-.075,1.174-.148,2.343-.221,3.5-.08,1.271-.159,2.526-.236,3.752q-.049.769-.1,1.521c-.054.856-.107,1.7-.158,2.514q-.029.447-.056.885-.06.964-.118,1.881c-.015.233-.779.153-.8-.083q-.071-.954-.132-1.839c-.008-.1-.013-.195-.02-.292-.1-1.418-.173-2.712-.233-3.919-.023-.467-.042-.921-.059-1.364-.049-1.224-.079-2.368-.094-3.479-.009-.716-.013-1.418-.01-2.119,0-.619.009-1.237.019-1.862,0-.075,0-.151,0-.225,0-.19.007-.378.011-.569,0-.061,0-.122,0-.184.016-.694.035-1.4.058-2.137.014-.415.027-.838.042-1.272,0-.061,0-.123.006-.185.015-.4.028-.807.044-1.227.11-3,.255-6.543.4-11.191a.026.026,0,0,1,0,0v0c.017-.62.037-1.262.055-1.924q.009-.3.017-.611c.008-.3.016-.609.024-.92,0-.041,0-.087,0-.138,0,0,0,0,0,0a4.2,4.2,0,0,0-.651-2.027,4.865,4.865,0,0,0-.29-.42l-.51-.661c-1.147-.971-2.14-.9-2.785-.305a4.477,4.477,0,0,0-.46.5,5.859,5.859,0,0,0-.526.8,6.722,6.722,0,0,0-.444.978q-.5,1.376-.885,2.717c-.013.044-.025.087-.037.13a.381.381,0,0,0-.011.041c-.418,1.46-.744,2.9-1,4.332a65.835,65.835,0,0,0-.87,7.572c-.009.135-.017.269-.026.4-.07,1.146-.124,2.306-.174,3.487-.036.857-.07,1.725-.106,2.607-.041,1-.083,2.011-.135,3.046-.014.293-.029.586-.044.883-.042.765-.09,1.595-.137,2.452q-.02.348-.039.7h0c-.054,1-.105,2.019-.144,3,0,.116-.009.231-.013.346-.026.7-.044,1.38-.053,2.011a1.112,1.112,0,0,1-.209.642,1.183,1.183,0,0,1-1.155.459.813.813,0,0,1-.642-.732l-.013-.139c-.02-.219-.041-.434-.061-.647-.08-.844-.159-1.643-.236-2.411-.011-.111-.022-.22-.033-.329q-.055-.543-.109-1.068c-.007-.063-.013-.126-.019-.188-.13-1.265-.255-2.451-.374-3.608-.008-.066-.014-.132-.021-.2q-.061-.584-.118-1.162c-.06-.593-.117-1.184-.173-1.782q-.024-.256-.048-.513c-.081-.887-.158-1.79-.231-2.731,0-.031,0-.063-.008-.095-.042-.554-.079-1.058-.112-1.521a50.988,50.988,0,0,1-.159-5.886c.012-.432.03-.895.049-1.415a1.4,1.4,0,0,0-.019-.323,2.879,2.879,0,0,0-2.072-2.314h0a1.63,1.63,0,0,0-1.812.8.51.51,0,0,0-.105.191c-.01.085-.019.17-.028.254h0q-.4,3.6-.652,6.953-.215,2.819-.345,5.474c-.106,2.1-.178,4.118-.228,6.072-.08,3.085-.106,6-.123,8.775,0,.188,0,.373,0,.558q-.007,1.333,0,2.666.005.873.016,1.744c0,.07,0,.139,0,.208s0,.125,0,.187q.028,1.944.083,3.887c0,.071,0,.143.005.214.012.363.022.726.033,1.089q.07,2.157.165,4.317c.294,6.724.286,13.43,1.266,20.113q.139.954.307,1.907c.5,2.843,2.017,5.332,3.021,8.165a60.881,60.881,0,0,1,2.8,15.487,62.323,62.323,0,0,1-.276,9.915c-.234,2.708-.505,5.416-.584,8.132q-.03,1.01-.062,2.018-.037,1.13-.076,2.259l21.359,3.9,3.133-.554c.006-.022.011-.043.016-.065,1.343-5.409,2.32-10.931,3.758-16.306l.234-.874c1.7-6.336,3.46-12.6,7.217-18.17,4.215-6.25,7.562-13.1,11.248-19.713a8.263,8.263,0,0,0,.624-2.171c.185-.81.348-1.631.5-2.455a45.4,45.4,0,0,1,2.238-9.11c2.283-5.472,1.741-11.475,2.52-17.2.009-.062.018-.125.026-.186a26.573,26.573,0,0,1,.8-3.795c.032-.108.119-.47.2-.864Z" transform="translate(-830.646 -580.981)" fill="#f99d7d"/>
        <path id="Trazado_704061" data-name="Trazado 704061" d="M1092.282,756.154a.091.091,0,0,1,.1-.038.1.1,0,0,1,.073.118c-.542,2.358.24,4.246,1.252,4.825a1.13,1.13,0,0,0,1.457-.2c1.314-1.352.54-4.764.532-4.8a.089.089,0,0,1,.072-.109.1.1,0,0,1,.116.079c.033.144.805,3.546-.577,4.966a1.31,1.31,0,0,1-1.689.225c-1.1-.631-1.921-2.566-1.352-5.042a.094.094,0,0,1,.011-.026" transform="translate(-954.357 -650.496)" fill="#ffc1b0"/>
        <path id="Trazado_704062" data-name="Trazado 704062" d="M1176.494,690.6a.092.092,0,0,1,.116-.034.1.1,0,0,1,.058.125c-.847,2.251-.307,4.206.629,4.9a1.156,1.156,0,0,0,1.484-.013c1.489-1.164,1.155-4.618,1.152-4.652a.088.088,0,0,1,.086-.1.1.1,0,0,1,.106.092c.015.146.348,3.587-1.218,4.811a1.339,1.339,0,0,1-1.719.01c-1.021-.759-1.591-2.764-.7-5.128a.073.073,0,0,1,.007-.015" transform="translate(-1050.102 -594.226)" fill="#ffc1b0"/>
        <path id="Trazado_704063" data-name="Trazado 704063" d="M1246.282,714.925a.093.093,0,0,1,.116-.034.1.1,0,0,1,.059.125c-.7,1.909-.225,3.576.582,4.174a.98.98,0,0,0,1.252,0c1.26-.975.942-3.916.939-3.946a.088.088,0,0,1,.085-.1.1.1,0,0,1,.107.091c.014.125.332,3.072-1.005,4.107a1.164,1.164,0,0,1-1.487-.005c-.888-.659-1.4-2.381-.655-4.4a.1.1,0,0,1,.008-.016" transform="translate(-1129.148 -615.157)" fill="#ffc1b0"/>
        <path id="Trazado_704064" data-name="Trazado 704064" d="M1337.945,783.112a.093.093,0,0,1,.116-.034.1.1,0,0,1,.059.125,2.741,2.741,0,0,0,.422,3.061.694.694,0,0,0,.9,0c.922-.714.689-2.879.686-2.9a.088.088,0,0,1,.085-.1.1.1,0,0,1,.107.091c.011.093.247,2.288-.753,3.062a.886.886,0,0,1-1.132,0,2.89,2.89,0,0,1-.494-3.286.135.135,0,0,1,.008-.016" transform="translate(-1232.831 -673.831)" fill="#ffc1b0"/>
        <path id="Trazado_704065" data-name="Trazado 704065" d="M940.269,943.963a.089.089,0,0,1,.1-.035.106.106,0,0,1,.074.121.983.983,0,0,1-.074.164c-1.371,2.81-1.317,4.028-1.031,4.555a.924.924,0,0,0,.688.471.1.1,0,0,1,.084.112.089.089,0,0,1-.108.075,1.135,1.135,0,0,1-.833-.577c-.308-.567-.38-1.847,1.025-4.727.03-.061.058-.119.063-.132a.084.084,0,0,1,.011-.027" transform="translate(-777.314 -812.246)" fill="#ffc1b0"/>
        <path id="Trazado_704066" data-name="Trazado 704066" d="M1299.338,1260.607c-1.393-6.373-5.431-13.352-5.431-13.352l-.213-.514a52.812,52.812,0,0,0,2.208,8.513,57.935,57.935,0,0,1,2.869,15.078,178.548,178.548,0,0,1-.118,18.108q-.029,1.009-.062,2.018h3.736s-1.337-22.3-2.988-29.851" transform="translate(-1188.674 -1072.821)" fill="#e58f77"/>
        <path id="Trazado_704067" data-name="Trazado 704067" d="M975.4,251.881l-12.507,23.775c1.4,2.834,2.809,5.664,4.059,8.544,2.547,5.869,5.085,11.689,5.507,18.115.453,6.891,1.924,13.764,3,20.641a7.551,7.551,0,0,0,.8,1.944c1.284,2.684,2.919,5.3,4.014,8.019a19.246,19.246,0,0,1,.7,2.027c1.474,5.282,5.423,9.445,8.2,14.108.031.05.061.1.09.152a24.661,24.661,0,0,1,1.623,3.24c.094.232.789,1.691.99,1.717a3.073,3.073,0,0,0,2.332-.963,23.013,23.013,0,0,0,1.474-2.354,4.035,4.035,0,0,0,.5-1.763c0-.068,0-.134-.009-.2a1.91,1.91,0,0,0-.027-.191c-.23-1.2-.507-2.4-.814-3.588-.017-.064-.033-.129-.051-.193q-.057-.225-.119-.449c-.483-1.8-1.033-3.6-1.606-5.392-.324-1.017-.656-2.031-.986-3.044q-.044-.134-.089-.27l-.064-.183c-.4-1.16-.9-2.3-1.412-3.434q-.047-.108-.1-.214-.247-.546-.5-1.091c-.244-.538-.487-1.076-.717-1.617l.722-.4c.877.742,1.814,1.439,2.676,2.193.313.274.616.555.9.849,2.341,2.4,4.764,4.749,7.187,7.093,0,0,0,0,0,0q1.515,1.466,3.024,2.936,1.119,1.095,2.225,2.2.94.938,1.864,1.886,1.876,1.924,3.667,3.909,1.025,1.14,2.012,2.308c1.286,1.524,2.517,3.088,3.676,4.7.1.133.19.265.285.4a14.546,14.546,0,0,0,2.178,2.523,8.193,8.193,0,0,0,2.076,1.366,7.683,7.683,0,0,0,2.25.623l.246.027a2.363,2.363,0,0,0,2.555-1.505,1.681,1.681,0,0,0-.026-1.02,1.88,1.88,0,0,0-.11-.264c-.366-.722-.741-1.444-1.13-2.161q-.049-.092-.1-.181-.361-.663-.742-1.316-.22-.379-.449-.756c-.517-.85-1.062-1.685-1.644-2.5q-1.422-1.983-2.872-3.95h0q-.8-1.084-1.6-2.166l-.162-.218-.44-.592h0l-.214-.289-.793-1.065q-2.067-2.77-4.133-5.542h0q-.7-.938-1.389-1.876-.307-.416-.613-.832a11.54,11.54,0,0,1-.823-1.331c-.131-.239-.257-.481-.384-.723h0c-.071-.137-.143-.273-.216-.409a.508.508,0,0,1,.221-.695l.009,0a.687.687,0,0,1,.509-.057.664.664,0,0,1,.257.131,16.157,16.157,0,0,1,1.593,1.4c.057.062.112.124.165.188l.346.416.054.066q3.031,3.637,6.034,7.294l1.61,1.952.338.409q.765.926,1.531,1.851l.1.122q1.145,1.383,2.3,2.763,1.265,1.517,2.541,3.028.659.781,1.321,1.559.633.745,1.27,1.488.782.912,1.571,1.82l.264.3a24.516,24.516,0,0,0,2.567,2.528c.854.732,1.762,1.423,2.712,2.088q.529.37,1.073.729a4.181,4.181,0,0,0,3.036,0c.266-.2,1.317-.79,1.394-1.217a4.836,4.836,0,0,0-.364-2.2l-1.506-2.643-.151-.265-.3-.524a8.109,8.109,0,0,0-.894-1.338l-.181-.235c-.291-.375-.565-.721-.719-.941-1.425-2.042-3.026-4.342-4.712-6.76-.057-.081-.114-.164-.172-.246l-.468-.672-1.217-1.746-5.3-7.614h0l-.03-.043q-.587-.84-1.163-1.668h0c-1.7-2.439-3.328-4.778-4.8-6.883-.075-.107-.15-.214-.224-.321-.126-.181.506-.53.659-.365l.326.354c3.016,3.283,5.1,5.7,6.987,8.04q.436.543.86,1.083l.187.238c1.636,2.093,3.224,4.253,5.28,7.05.587.8,1.212,1.65,1.888,2.568,1.278,1.733,2.734,3.7,4.452,5.989q.35.467.716.953c.023.03.051.065.083.1a3.829,3.829,0,0,0,.38.38,4.2,4.2,0,0,0,.67.472,4.875,4.875,0,0,0,1.115.462l.778.217c1.277.095,1.989-.347,2.236-.991a1.512,1.512,0,0,0,.075-.272,5.2,5.2,0,0,0-.244-2.454,39.4,39.4,0,0,0-1.926-4.739c-.543-1.126-1.128-2.209-1.75-3.268-1.277-2.175-2.7-4.246-4.227-6.362q-.7-.975-1.428-1.967c-.972-1.331-1.975-2.7-2.994-4.131-.884-1.245-1.914-2.717-2.927-4.117-.559-.773-1.113-1.524-1.634-2.2l-.155-.2a1,1,0,0,1,.4-1.547.829.829,0,0,1,.922.2c.683.716,1.326,1.385,1.939,2.02,3,3.1,5.278,5.382,7.918,8.24,1.5,1.625,2.413,2.647,3.148,3.535.337.406.637.784.94,1.18h0c.192.251.386.508.591.785l.121.163.563.764a1.466,1.466,0,0,0,.206.23,2.894,2.894,0,0,0,3.08.545,1.417,1.417,0,0,0,.783-1.5.449.449,0,0,0-.032-.2,226.485,226.485,0,0,0-14.089-19.8q-.7-.9-1.388-1.774c-2.784-3.55-5.691-7.022-8.663-10.454-1.391-1.606-2.755-3.228-4.129-4.841l0,0a75.686,75.686,0,0,0-16.945-15.273,61.116,61.116,0,0,1-11.411-9.941c-3.887-4.243-6.61-9.15-10.025-13.715l-.046-.062c-2.655-3.551-5.27-7.127-7.884-10.714" transform="translate(-890.226 -216.744)" fill="#a35138"/>
        <path id="Trazado_704068" data-name="Trazado 704068" d="M1135.47,1002.249a.081.081,0,0,1-.057.084.1.1,0,0,1-.126-.049c-.974-2.039-2.684-3.021-3.8-2.91a1.025,1.025,0,0,0-1,.927c-.21,1.706,2.391,3.824,2.418,3.845a.078.078,0,0,1,.009.12.1.1,0,0,1-.135,0c-.11-.089-2.7-2.2-2.482-3.993a1.189,1.189,0,0,1,1.161-1.071c1.215-.122,2.981.876,4,3.017a.082.082,0,0,1,.007.025" transform="translate(-999.023 -859.809)" fill="#b75842"/>
        <path id="Trazado_704069" data-name="Trazado 704069" d="M1032.773,1004.966a.082.082,0,0,1-.069.087.1.1,0,0,1-.118-.062c-.677-2.123-2.24-3.284-3.368-3.3a1.067,1.067,0,0,0-1.128.8c-.455,1.66,1.834,4.044,1.857,4.068a.078.078,0,0,1-.008.119.105.105,0,0,1-.135-.011c-.1-.1-2.378-2.475-1.9-4.221a1.238,1.238,0,0,1,1.31-.927c1.229.016,2.845,1.2,3.556,3.428a.065.065,0,0,1,0,.015" transform="translate(-882.035 -861.809)" fill="#b75842"/>
        <path id="Trazado_704070" data-name="Trazado 704070" d="M995.647,954.582a.083.083,0,0,1-.068.087.1.1,0,0,1-.119-.061,3.676,3.676,0,0,0-2.9-2.785.907.907,0,0,0-.96.669c-.39,1.4,1.584,3.409,1.6,3.43a.078.078,0,0,1-.007.119.105.105,0,0,1-.135-.01c-.085-.085-2.062-2.1-1.649-3.585a1.077,1.077,0,0,1,1.141-.792c1.068.013,2.472,1.018,3.091,2.913a.092.092,0,0,1,0,.016" transform="translate(-839.819 -818.897)" fill="#b75842"/>
        <path id="Trazado_704071" data-name="Trazado 704071" d="M968.77,862.457a.082.082,0,0,1-.068.087.1.1,0,0,1-.119-.061,2.7,2.7,0,0,0-2.125-2.045.642.642,0,0,0-.687.479c-.285,1.023,1.168,2.5,1.182,2.519a.078.078,0,0,1-.007.119.105.105,0,0,1-.135-.01c-.063-.063-1.536-1.565-1.226-2.674a.819.819,0,0,1,.869-.6,2.847,2.847,0,0,1,2.313,2.173.074.074,0,0,1,0,.016" transform="translate(-809.342 -740.261)" fill="#b75842"/>
        <path id="Trazado_704072" data-name="Trazado 704072" d="M1380.66,951.918a.079.079,0,0,1-.058.081.108.108,0,0,1-.128-.051.906.906,0,0,1-.04-.161c-.6-2.818-1.363-3.693-1.892-3.931a.933.933,0,0,0-.8.019.1.1,0,0,1-.13-.038.078.078,0,0,1,.038-.114,1.148,1.148,0,0,1,.978-.018c.569.256,1.378,1.167,2,4.055.013.062.026.12.029.131a.079.079,0,0,1,.008.026" transform="translate(-1278.714 -815.414)" fill="#b75842"/>
        <path id="Trazado_704073" data-name="Trazado 704073" d="M1165.868,323.408s18.369,21.223,24.563,24.418c5.021,2.59,18.513,15.142,18.7,15.31-4.909-5.766-9.939-11.415-16.739-15.783a57.561,57.561,0,0,1-11.072-9.65c-3.887-4.243-7.155-8.931-10.569-13.5l-.046-.063Z" transform="translate(-1077.652 -278.293)" fill="#893c29"/>
        <path id="Trazado_704074" data-name="Trazado 704074" d="M510.921,721.979a.615.615,0,0,1,0,.685l-.006.009a.616.616,0,0,1-.781.21l-.079-.039c-.577-.283-1.162-.552-1.723-.857-.3-.162-.589-.334-.869-.524l-.106-.073-.658-.446q-2.724-1.85-5.436-3.722L498.7,715.46l-.273-.187q-1.476-1.014-2.954-2.023-2.208-1.507-4.43-2.991-.7-.468-1.4-.932a45.983,45.983,0,0,0-4.05-2.362q-.382-.2-.766-.393c-.165-.084-.331-.167-.5-.25q-1.086-.539-2.184-1.045a2.445,2.445,0,0,0-.288-.111,2.088,2.088,0,0,0-.688-.094,2.175,2.175,0,0,0-1.107.346,2.432,2.432,0,0,0-1.118,2.208c.006.08.013.161.02.241a6.716,6.716,0,0,0,.1.682c.492,2.535,2.3,4.183,4.312,5.53.105.071.211.141.317.21q1.043.679,2.059,1.39,1.738,1.217,3.4,2.516.431.335.859.677c2.132,1.7,4.189,3.482,6.2,5.313.159.146.32.291.478.437q1.528,1.4,3.029,2.823c2.506,2.371,4.978,4.781,7.486,7.148q1.171,1.108,2.355,2.2l.025.023q.507.469,1.019.932c.061.056.121.111.183.166l.1.094.052.048c.283.259.555.531.82.811l.13.139c.208.225.413.455.616.688.28.321.556.647.834.971l.141.164c.181.209.362.417.546.622.027.031.056.062.083.094l-.476.7-.265-.106c-1.281-.51-2.549-1.062-3.828-1.577-.841-.339-1.685-.661-2.542-.946q-.4-.133-.8-.253l-.129-.039-1.807-.54-.226-.067q-1.164-.348-2.331-.686l-.221-.063q-1.424-.41-2.854-.792c-2.1-.557-4.21-1.053-6.34-1.435-1.562-.28-3.513.967-5.089,1.862a2.983,2.983,0,0,0-1.171,2.279,7.345,7.345,0,0,0,1.862.987,27.829,27.829,0,0,1,3.528,1.622l.165.089h0c1.459.8,2.869,1.69,4.275,2.593,3.464,2.225,6.907,4.511,11.033,5.574a30.038,30.038,0,0,1,5.2,1.964c1.922.9,3.818,1.9,5.754,2.748.694.3,2.717-.151,3.449-.044,7.589,1.113,14.8,2.782,22.427,3.288,7.116.471,12.5,3.695,18.907,6.246q1.558.621,3.1,1.287c4.108,1.767,8.145,3.711,12.272,5.437a5.712,5.712,0,0,0,3.759.364q3.458-1.262,6.9-2.563V750.037q-.7-.481-1.4-.963c-4.92-3.39-9.984-6.639-14.526-10.49a56.136,56.136,0,0,1-10.233-10.951,57.839,57.839,0,0,0-9.844-10.849c-3.9-3.435-8.077-6.55-12.151-9.812q-2.564-2.051-5.162-4.056-.493-.381-.988-.758l-.22-.168-.209-.159q-.733-.557-1.468-1.108l-.16-.12q-1.5-1.121-3.015-2.219l-.008,0q-1.822-1.319-3.761-2.706l-.348-.249-.147-.1q-1.386-.986-2.843-2l-.15-.1-.748-.518q-.534-.369-1.077-.741c-4.2-2.872-8.87-5.886-14.2-8.954a.543.543,0,0,0-.219-.033c-2.047-.22-2.66,2.272-1.23,3.783.023.024.048.047.073.07a1.855,1.855,0,0,0,.173.133,58.4,58.4,0,0,1,6.9,5.32c.519.444,1.021.878,1.511,1.306.539.471,1.065.936,1.588,1.4,1.669,1.486,3.307,2.981,5.231,4.709.738.662,1.517,1.358,2.357,2.1l.278.245a.734.734,0,0,1,.18.906,1.208,1.208,0,0,1-1.734.376q-.349-.249-.724-.509c-.815-.567-1.707-1.164-2.609-1.759-1.278-.843-2.575-1.68-3.7-2.416q-1.438-.941-2.8-1.858c-3.513-2.358-6.724-4.572-10.176-6.475-1.015-.559-2.051-1.092-3.123-1.594l-.363-.169q-1.186-.544-2.437-1.035l-.165-.065q-.46-.178-.932-.348-.87-.315-1.781-.6l-.416-.13a6.764,6.764,0,0,0-2.3-.3c-.141.008-.28.023-.418.043-.881.132-1.559.832-1.5,2.256l.207.765c.019.07.039.139.061.207a4.218,4.218,0,0,0,.384.859,3.814,3.814,0,0,0,.493.668,3.557,3.557,0,0,0,.426.4c.04.032.077.06.11.083q1.357.941,2.584,1.785l.193.133q1.462,1.006,2.758,1.889c2.356,1.608,4.338,2.943,6.089,4.131l1.258.854.46.314.042.029.878.6c2.29,1.572,4.25,2.963,6.356,4.57.638.487,1.29.995,1.969,1.534.52.412,1.056.844,1.615,1.3.433.353.879.72,1.342,1.1.851.707,1.754,1.468,2.73,2.3.177.15-.239.768-.434.643l-2.475-1.589-1.523-.976-2.957-1.9-2.1-1.348-4.744-3.043-1.939-1.243-1.407-.9-.175-.113-2.106-1.351-4.547-2.916-1.418-.91-2.636-1.691c-.094-.061-.21-.14-.341-.233a17.315,17.315,0,0,0-2.373-1.55l-.36-.188-.041-.021-2.521-1.319-.8-.421a6.882,6.882,0,0,0-1.787-.389c-.084-.006-.164-.009-.243-.009a2.439,2.439,0,0,0-.4.023c-.28.041-.635.41-.928.76-.082.1-.158.194-.228.281-.107.136-.2.25-.255.315a1.185,1.185,0,0,0-.211.427,3.811,3.811,0,0,0,.083,2.553c.545.779,1.107,1.535,1.7,2.263.053.067.108.133.163.2q.7.854,1.452,1.647a23.953,23.953,0,0,0,2.348,2.17q1.346,1.081,2.7,2.152l.336.266.8.628,1.156.906.56.437q.676.529,1.356,1.055,1.032.8,2.067,1.6,2.782,2.143,5.577,4.268l.34.259,2.233,1.7.173.132q3.463,2.636,6.915,5.285.286.218.57.438c.1.078.2.16.3.246.139.123.273.253.4.388.181.186.355.381.528.578l.238.272.225.255a.5.5,0,0,1,.051.068" transform="translate(-361.279 -587.682)" fill="#bc6648"/>
        <path id="Trazado_704075" data-name="Trazado 704075" d="M1222.535,845.914a.094.094,0,0,0-.048.18c2.222.973,3.238,2.66,3.066,3.753a1.118,1.118,0,0,1-1.073.972c-1.9.191-4.141-2.381-4.163-2.407a.094.094,0,0,0-.143.123c.094.109,2.325,2.672,4.325,2.471a1.3,1.3,0,0,0,1.24-1.129c.188-1.191-.843-2.932-3.176-3.954a.1.1,0,0,0-.028-.007" transform="translate(-1101.849 -727.908)" fill="#d6755b"/>
        <path id="Trazado_704076" data-name="Trazado 704076" d="M1220.266,745.344a.094.094,0,0,0-.036.184c2.328.683,3.549,2.228,3.517,3.334a1.118,1.118,0,0,1-.941,1.1c-1.863.431-4.41-1.836-4.435-1.859a.094.094,0,0,0-.126.14c.107.1,2.645,2.355,4.6,1.9a1.3,1.3,0,0,0,1.087-1.277c.035-1.206-1.208-2.8-3.652-3.519l-.017,0" transform="translate(-1099.755 -641.368)" fill="#d6755b"/>
        <path id="Trazado_704077" data-name="Trazado 704077" d="M1162.869,710.021a.094.094,0,0,0-.037.183c1.965.59,2.995,1.921,2.966,2.873a.946.946,0,0,1-.784.936c-1.568.37-3.716-1.585-3.738-1.6a.094.094,0,0,0-.127.138c.091.083,2.244,2.042,3.908,1.649a1.124,1.124,0,0,0,.929-1.113c.032-1.048-1.023-2.435-3.1-3.059l-.017,0" transform="translate(-1033.841 -610.972)" fill="#d6755b"/>
        <path id="Trazado_704078" data-name="Trazado 704078" d="M1059.618,685.554a.094.094,0,0,0-.037.183c1.443.434,2.2,1.407,2.179,2.1a.671.671,0,0,1-.562.67c-1.149.271-2.729-1.168-2.745-1.182a.094.094,0,0,0-.127.138c.068.062,1.671,1.521,2.916,1.227a.855.855,0,0,0,.707-.847c.024-.785-.763-1.823-2.312-2.289l-.017,0" transform="translate(-915.458 -589.918)" fill="#d6755b"/>
        <path id="Trazado_704079" data-name="Trazado 704079" d="M1173.309,1088.958a.092.092,0,0,0-.093.056.1.1,0,0,0,.051.126,1.05,1.05,0,0,0,.177.04c3.1.619,4.041,1.37,4.282,1.891a.824.824,0,0,1-.056.789.094.094,0,0,0,.165.091,1.013,1.013,0,0,0,.062-.959c-.259-.561-1.236-1.363-4.415-2-.068-.014-.132-.026-.145-.03a.089.089,0,0,0-.028-.008" transform="translate(-1047.531 -937.048)" fill="#d6755b"/>
        <path id="Trazado_704080" data-name="Trazado 704080" d="M633.791,1183.042c1.922.9,3.818,1.9,5.753,2.748a8.707,8.707,0,0,0,2.123.8c7.589,1.113,15.155,2.617,22.788,3.123,7.116.471,13.466,3.013,19.873,5.565q1.558.621,3.1,1.287l1.266-1.715s-14.05-7.607-24.01-6.914-30.891-4.9-30.891-4.9" transform="translate(-482.984 -1018.007)" fill="#a55641"/>
        <path id="Trazado_704081" data-name="Trazado 704081" d="M1036.168,876.916a2.012,2.012,0,0,0,.4.521c4.132-5.755,8.192-11.5,12.354-17.175,3.171-4.323,6.219-8.777,9.794-12.748a50.323,50.323,0,0,1,10.092-8.886c7.857-5,13.245-12.277,19.112-19.176,2.741-3.223,5.424-6.49,8-9.843a228.329,228.329,0,0,0,14.41-20.469.49.49,0,0,0,.035-.2c.252-1.83-1.966-2.446-3.359-1.2a1.353,1.353,0,0,0-.189.216,52.554,52.554,0,0,1-4.955,6.047c-2.924,3.221-5.357,5.64-9.047,9.573a.659.659,0,0,1-.818.139,1.086,1.086,0,0,1-.29-1.567c1.385-1.822,3.063-4.283,4.387-6.183,4.712-6.759,8.976-11.822,11.6-19.574a5.765,5.765,0,0,0,.306-2.426c-.094-.793-.7-1.42-1.983-1.407l-.693.165a3.656,3.656,0,0,0-1.95,1.168c-.03.035-.055.067-.077.1-10.076,13.651-10.912,15.686-19.172,24.812-.14.154-.683-.235-.565-.407,4.96-7.248,12.02-17.578,16.867-24.661a22.151,22.151,0,0,0,1.67-2.386l1.846-3.289a5.289,5.289,0,0,0,.4-2.167c-.051-.43-.953-1.085-1.179-1.3a3.287,3.287,0,0,0-2.668-.193,26.7,26.7,0,0,0-5.782,4.907c-6.077,7.117-11.876,14.471-17.805,21.715a11.848,11.848,0,0,1-1.6,1.469.553.553,0,0,1-.675.024l-.008-.006a.552.552,0,0,1-.168-.706,19.738,19.738,0,0,1,1.344-2.359c3.772-5.231,7.644-10.391,11.357-15.663a51.485,51.485,0,0,0,3.831-6.616,2.057,2.057,0,0,0,.107-.255,2.094,2.094,0,0,0-2.129-2.678l-.218.011c-2.758.18-4.477,2.04-5.884,4.07-6.216,8.963-14.525,15.972-21.992,23.765-.985,1.028-2.17,1.865-3.258,2.8l-.62-.445c.938-2.194,2.032-4.335,2.782-6.592a113.377,113.377,0,0,0,3.617-12.376c.293-1.393-.774-3.175-1.534-4.614a2.68,2.68,0,0,0-2.014-1.111,6.656,6.656,0,0,0-.933,1.644,24.953,24.953,0,0,1-1.549,3.121c-.027.049-.056.1-.085.145-2.61,4.462-6.237,8.349-7.73,13.511-.979,3.384-2.985,6.469-4.516,9.694a7.871,7.871,0,0,0-.777,1.883.009.009,0,0,0,0,0c-1.2,6.775-2.749,13.52-3.4,20.35-.612,6.369-3.06,12-5.518,17.674-1.181,2.727-2.495,5.395-3.8,8.067-.9,1.837-1.792,3.677-2.637,5.539a5.132,5.132,0,0,0-.427,3.362c2.466,7.431,5.1,14.806,7.7,22.194" transform="translate(-959.723 -657.588)" fill="#e68660"/>
        <path id="Trazado_704082" data-name="Trazado 704082" d="M1174.622,770.652a.084.084,0,0,0-.16-.048c-.932,1.967-2.472,2.833-3.447,2.649a1,1,0,0,1-.843-.988c-.121-1.712,2.245-3.651,2.269-3.67a.084.084,0,0,0-.106-.131c-.1.081-2.458,2.014-2.331,3.813a1.161,1.161,0,0,0,.98,1.142c1.063.2,2.652-.678,3.631-2.743a.083.083,0,0,0,.007-.025" transform="translate(-1043.716 -661.248)" fill="#ffa383"/>
        <path id="Trazado_704083" data-name="Trazado 704083" d="M1084.188,773.992a.084.084,0,0,0-.164-.037c-.675,2.069-2.092,3.124-3.083,3.066a1,1,0,0,1-.961-.873c-.337-1.682,1.763-3.906,1.784-3.928a.084.084,0,1,0-.122-.117c-.089.093-2.182,2.31-1.828,4.078a1.162,1.162,0,0,0,1.117,1.008c1.08.063,2.545-1.009,3.253-3.182a.079.079,0,0,0,0-.015" transform="translate(-940.695 -664.371)" fill="#ffa383"/>
        <path id="Trazado_704084" data-name="Trazado 704084" d="M1053.555,831.409a.084.084,0,0,0-.163-.038c-.582,1.746-1.8,2.635-2.656,2.584a.849.849,0,0,1-.818-.728c-.29-1.416,1.52-3.291,1.538-3.31a.084.084,0,0,0-.121-.118c-.077.079-1.891,1.958-1.583,3.461a1.008,1.008,0,0,0,.973.863c.939.056,2.211-.853,2.825-2.7a.068.068,0,0,0,0-.015" transform="translate(-905.87 -714.02)" fill="#ffa383"/>
        <path id="Trazado_704085" data-name="Trazado 704085" d="M1033.538,931.8a.084.084,0,0,0-.163-.038c-.427,1.283-1.321,1.935-1.944,1.9a.6.6,0,0,1-.586-.522c-.212-1.037,1.12-2.417,1.133-2.43a.084.084,0,1,0-.121-.118c-.057.059-1.408,1.458-1.177,2.582a.767.767,0,0,0,.741.656c.7.042,1.655-.636,2.114-2.013a.07.07,0,0,0,0-.015" transform="translate(-883.193 -800.752)" fill="#ffa383"/>
        <path id="Trazado_704086" data-name="Trazado 704086" d="M1391.779,809.978a.082.082,0,0,0-.048-.084.087.087,0,0,0-.114.042.927.927,0,0,0-.041.158c-.637,2.766-1.336,3.587-1.81,3.79a.74.74,0,0,1-.706-.071.084.084,0,0,0-.086.145.909.909,0,0,0,.859.081c.51-.218,1.255-1.072,1.908-3.907.014-.06.027-.117.031-.129a.085.085,0,0,0,.008-.025" transform="translate(-1291.414 -696.906)" fill="#ffa383"/>
        <path id="Trazado_704087" data-name="Trazado 704087" d="M1502.4,1065.026l2.536.5s8.487-16.795,8.612-22.233c.075-3.274,1.552-24.082,1.576-24.363-1.2,6.775-2.749,13.52-3.4,20.35-.612,6.369-3.06,12-5.518,17.674-1.181,2.727-2.495,5.395-3.8,8.067" transform="translate(-1430.591 -876.793)" fill="#ce7657"/>
        <path id="Trazado_704088" data-name="Trazado 704088" d="M1406.63,0l44.94,64.979,3.078-2.067,9.533-6.4,8.875-5.962.038-.025,2.238-1.5.062-.042,2.525-1.7L1453.955,0Z" transform="translate(-1380.02)" fill="#ed3c50"/>
        <path id="Trazado_704089" data-name="Trazado 704089" d="M1413.82,1395.069h47.709l43.047-83.188-1.848-1.1-10.534-6.25-7.8-4.627h0l-2.171-1.288-2.73-1.62Z" transform="translate(-1407.682 -1116.068)" fill="#56c6d5"/>
        <path id="Trazado_704090" data-name="Trazado 704090" d="M1090.77,1565.448h51.563l-2.314-65.426-3.04-.458-12.135-1.827-11.373-1.713-.167-.025-2.517-.379-.216-.032-3.9-.587Z" transform="translate(-1000.374 -1286.447)" fill="#e83f51"/>
        <path id="Trazado_704091" data-name="Trazado 704091" d="M290.4,1424.082l26.58,62.776h64.728l-57.474-83.188-3.606,2.176-11.209,6.76-13.047,7.872-.053.032Z" transform="translate(-128.097 -1207.858)" fill="#fcbc49"/>
        <path id="Trazado_704092" data-name="Trazado 704092" d="M0,1109.842l93.242,36.706v-54.411L14.787,1079.5l-1.3,2.663-5.175,10.621L2.549,1104.61h0l-.983,2.019Z" transform="translate(200.88 -928.91)" fill="#2e90d9"/>
        <path id="Trazado_704093" data-name="Trazado 704093" d="M0,392.643l.852,3.934,3.135,14.462,2.023,9.33.9,4.154.011.056.833,3.84L87.6,405.706V353.04Z" transform="translate(206.517 -303.791)" fill="#fcbc49"/>
        <path id="Trazado_704094" data-name="Trazado 704094" d="M540.4,34.178l6.506,3.142,11.629,5.613,9.4,4.538h0l2.681,1.3.114.054,3.765,1.818L604.7,0H549.823Z" transform="translate(-385.964)" fill="#56c6d5"/>
        <path id="Trazado_704095" data-name="Trazado 704095" d="M1406.63,0c11.464,1.349,23.963,24.989,30.6,39.486,0,0,0,0,0,0,1.048,2.288,1.949,4.347,2.676,6.054,1.147,2.694,1.865,4.514,2.045,4.977l2.238-1.5.062-.042,2.525-1.7L1428.522,0Z" transform="translate(-1348.877)" fill="#d3334a"/>
        <path id="Trazado_704096" data-name="Trazado 704096" d="M508.4,47.469h0l2.681,1.3.114.054,3.765,1.818L549.629,0H531.215c5.121,3.277-9.575,27.328-17.75,39.885-.488.749-.953,1.458-1.389,2.118-2.173,3.295-3.631,5.4-3.676,5.467" transform="translate(-326.429)" fill="#46b4bc"/>
        <path id="Trazado_704097" data-name="Trazado 704097" d="M0,610.169l.9,4.154.011.056.833,3.84L81.6,600.2V573.61c-1.295,11.641-42.987,25.462-66.258,32.3C6.271,608.567,0,610.169,0,610.169" transform="translate(212.527 -493.591)" fill="#efaa3a"/>
        <path id="Trazado_704098" data-name="Trazado 704098" d="M0,1264.74l93.242,40.176v-20.432c-16.243,3.427-50.351-8.457-71.8-16.994-10.46-4.163-17.906-7.53-18.8-7.937l-.081-.038-.01,0-.983,2.019Z" transform="translate(200.88 -1083.808)" fill="#257fb7"/>
        <path id="Trazado_704099" data-name="Trazado 704099" d="M595.351,1511.275s22.093,63.295,41.065,68.177H608.245L586.4,1516.676Z" transform="translate(-424.097 -1300.452)" fill="#efaa3a"/>
        <path id="Trazado_704100" data-name="Trazado 704100" d="M1318.683,1565.448c-6.265-20.008,6.347-69.449,6.347-69.449l-6.63-1-19.53,70.448Z" transform="translate(-1212.101 -1286.447)" fill="#d3334a"/>
        <path id="Trazado_704101" data-name="Trazado 704101" d="M1558.48,1395.069h16.282c10.718-27.868,60.431-95.161,60.431-95.161l-4.9-2.907Z" transform="translate(-1558.48 -1116.068)" fill="#46b4bc"/>
      </g>
    </g>
  </g>
</svg>
