<svg xmlns="http://www.w3.org/2000/svg" xmlns:xlink="http://www.w3.org/1999/xlink" width="820" height="467" viewBox="0 0 820 467">
  <defs>
    <clipPath id="clip-path">
      <rect id="Rectángulo_345259" data-name="Rectángulo 345259" width="820" height="467" transform="translate(390 5971)" fill="#005b8b" stroke="#707070" stroke-width="1" opacity="0.56"/>
    </clipPath>
    <clipPath id="clip-path-2">
      <rect id="Rectángulo_345255" data-name="Rectángulo 345255" width="732" height="467" transform="translate(355 5984)" fill="#005b8b" stroke="#707070" stroke-width="1" opacity="0.53"/>
    </clipPath>
    <clipPath id="clip-path-3">
      <rect id="Rectángulo_33768" data-name="Rectángulo 33768" width="442.365" height="346.953" fill="none" stroke="#707070" stroke-width="1"/>
    </clipPath>
    <clipPath id="clip-path-4">
      <rect id="Rectángulo_33845" data-name="Rectángulo 33845" width="442.365" height="303.386" transform="translate(0 0)" fill="none"/>
    </clipPath>
    <clipPath id="clip-path-5">
      <rect id="Rectángulo_33841" data-name="Rectángulo 33841" width="381.75" height="312.26" fill="none"/>
    </clipPath>
    <clipPath id="clip-path-6">
      <rect id="Rectángulo_33768-2" data-name="Rectángulo 33768" width="403.055" height="316.121" fill="none" stroke="#707070" stroke-width="1"/>
    </clipPath>
    <clipPath id="clip-path-7">
      <rect id="Rectángulo_33845-2" data-name="Rectángulo 33845" width="403.055" height="276.426" transform="translate(0 0)" fill="none"/>
    </clipPath>
    <clipPath id="clip-path-8">
      <rect id="Rectángulo_33841-2" data-name="Rectángulo 33841" width="347.827" height="284.512" fill="none"/>
    </clipPath>
    <clipPath id="clip-path-9">
      <rect id="Rectángulo_344248" data-name="Rectángulo 344248" width="610" height="373.529" fill="none"/>
    </clipPath>
    <clipPath id="clip-path-11">
      <rect id="Rectángulo_344236" data-name="Rectángulo 344236" width="351.286" height="53.61" fill="none"/>
    </clipPath>
    <clipPath id="clip-path-12">
      <rect id="Rectángulo_344237" data-name="Rectángulo 344237" width="598.576" height="121.992" fill="none"/>
    </clipPath>
    <clipPath id="clip-path-13">
      <path id="Trazado_694917" data-name="Trazado 694917" d="M18.67,314.365l321.36,34.863s13.344,4.085,15.756-24.4c4.417-51.68-20.617-48.643-20.617-48.643S131.652,260.545,14.081,252.346c14.724,24.556,4.589,62.019,4.589,62.019" transform="translate(-14.081 -252.346)" fill="none"/>
    </clipPath>
    <linearGradient id="linear-gradient" x1="-0.017" y1="0.878" x2="-0.014" y2="0.878" gradientUnits="objectBoundingBox">
      <stop offset="0" stop-color="#f6f6f6"/>
      <stop offset="0.541" stop-color="#ededed"/>
      <stop offset="1" stop-color="#dcdcdc"/>
    </linearGradient>
    <clipPath id="clip-path-15">
      <rect id="Rectángulo_344239" data-name="Rectángulo 344239" width="335.035" height="39.376" fill="none"/>
    </clipPath>
    <clipPath id="clip-path-16">
      <rect id="Rectángulo_344243" data-name="Rectángulo 344243" width="335.803" height="68.76" fill="none"/>
    </clipPath>
    <clipPath id="clip-path-17">
      <rect id="Rectángulo_344240" data-name="Rectángulo 344240" width="309.039" height="38.712" fill="none"/>
    </clipPath>
    <clipPath id="clip-path-18">
      <rect id="Rectángulo_344241" data-name="Rectángulo 344241" width="328.836" height="38.871" fill="none"/>
    </clipPath>
    <clipPath id="clip-path-19">
      <rect id="Rectángulo_344242" data-name="Rectángulo 344242" width="319.421" height="37.874" fill="none"/>
    </clipPath>
  </defs>
  <g id="Enmascarar_grupo_927345" data-name="Enmascarar grupo 927345" transform="translate(-390 -5971)" clip-path="url(#clip-path)">
    <g id="Enmascarar_grupo_927344" data-name="Enmascarar grupo 927344" transform="translate(79 -13)" clip-path="url(#clip-path-2)">
      <g id="Grupo_998979" data-name="Grupo 998979" transform="translate(-36.441 -422.381)">
        <path id="Trazado_695089" data-name="Trazado 695089" d="M-7961.84-5362.676c-1.924,0-10.58,12.984-10.58,12.984s365.907,44.416,373.222,44.416,243.2-107.28,243.2-107.28l-46.518-13-316.963,75.868Z" transform="translate(8448.099 12178.777)" fill="#b0c0d2" opacity="0.27"/>
        <g id="Grupo_998978" data-name="Grupo 998978">
          <g id="Grupo_998971" data-name="Grupo 998971" transform="translate(-3.901 -593)">
            <g id="Grupo_951800" data-name="Grupo 951800" transform="translate(395.342 7049.799)">
              <g id="Grupo_951798" data-name="Grupo 951798" transform="translate(0.62 20.592)">
                <g id="Grupo_80327" data-name="Grupo 80327" transform="translate(0 0)" clip-path="url(#clip-path-4)">
                  <path id="Trazado_113636" data-name="Trazado 113636" d="M265.715,281.875A132.858,132.858,0,1,1,132.858,149.018,132.857,132.857,0,0,1,265.715,281.875" transform="translate(0 -111.347)" fill="#4db1f0"/>
                  <path id="Sustracción_2" data-name="Sustracción 2" d="M96.268,192.54a97.057,97.057,0,0,1-19.4-1.956A95.752,95.752,0,0,1,42.443,176.1,96.533,96.533,0,0,1,7.565,133.741a95.694,95.694,0,0,1-5.61-18.07,97.214,97.214,0,0,1,0-38.8A95.758,95.758,0,0,1,16.441,42.444,96.535,96.535,0,0,1,58.8,7.565a95.777,95.777,0,0,1,18.07-5.61,97.211,97.211,0,0,1,38.8,0,95.756,95.756,0,0,1,34.424,14.485A96.545,96.545,0,0,1,184.972,58.8a95.734,95.734,0,0,1,5.61,18.071,97.213,97.213,0,0,1,0,38.8A95.778,95.778,0,0,1,176.1,150.1a96.56,96.56,0,0,1-42.356,34.879,95.817,95.817,0,0,1-18.071,5.61A97.06,97.06,0,0,1,96.268,192.54Zm0-173.557A77.287,77.287,0,1,0,173.555,96.27,77.374,77.374,0,0,0,96.268,18.983Z" transform="translate(249.826 110.846)" fill="#ffa031" stroke="rgba(0,0,0,0)" stroke-miterlimit="10" stroke-width="1"/>
                  <path id="Trazado_113639" data-name="Trazado 113639" d="M645.221,680.442a46.978,46.978,0,1,1-46.978-46.978,46.978,46.978,0,0,1,46.978,46.978" transform="translate(-411.906 -473.325)" fill="#fff"/>
                  <path id="Trazado_113640" data-name="Trazado 113640" d="M1472.862,264.611a2.969,2.969,0,1,1-2.969-2.969,2.969,2.969,0,0,1,2.969,2.969" transform="translate(-1096.087 -195.5)" fill="#f9e8dc"/>
                  <path id="Trazado_113641" data-name="Trazado 113641" d="M1524.537,264.611a2.969,2.969,0,1,1-2.969-2.969,2.969,2.969,0,0,1,2.969,2.969" transform="translate(-1134.699 -195.5)" fill="#f9e8dc"/>
                  <path id="Trazado_113642" data-name="Trazado 113642" d="M1576.212,264.611a2.969,2.969,0,1,1-2.969-2.969,2.969,2.969,0,0,1,2.969,2.969" transform="translate(-1173.311 -195.5)" fill="#f9e8dc"/>
                  <path id="Trazado_113643" data-name="Trazado 113643" d="M1627.887,264.611a2.969,2.969,0,1,1-2.969-2.969,2.969,2.969,0,0,1,2.969,2.969" transform="translate(-1211.922 -195.5)" fill="#f9e8dc"/>
                  <path id="Trazado_113644" data-name="Trazado 113644" d="M1679.562,264.611a2.969,2.969,0,1,1-2.969-2.969,2.969,2.969,0,0,1,2.969,2.969" transform="translate(-1250.534 -195.5)" fill="#f9e8dc"/>
                  <path id="Trazado_113645" data-name="Trazado 113645" d="M1472.862,313.937a2.969,2.969,0,1,1-2.969-2.969,2.969,2.969,0,0,1,2.969,2.969" transform="translate(-1096.087 -232.356)" fill="#f9e8dc"/>
                  <path id="Trazado_113646" data-name="Trazado 113646" d="M1524.537,313.937a2.969,2.969,0,1,1-2.969-2.969,2.969,2.969,0,0,1,2.969,2.969" transform="translate(-1134.699 -232.356)" fill="#f9e8dc"/>
                  <path id="Trazado_113647" data-name="Trazado 113647" d="M1576.212,313.937a2.969,2.969,0,1,1-2.969-2.969,2.969,2.969,0,0,1,2.969,2.969" transform="translate(-1173.311 -232.356)" fill="#f9e8dc"/>
                  <path id="Trazado_113648" data-name="Trazado 113648" d="M1627.887,313.937a2.969,2.969,0,1,1-2.969-2.969,2.969,2.969,0,0,1,2.969,2.969" transform="translate(-1211.922 -232.356)" fill="#f9e8dc"/>
                  <path id="Trazado_113649" data-name="Trazado 113649" d="M1679.562,313.937a2.969,2.969,0,1,1-2.969-2.969,2.969,2.969,0,0,1,2.969,2.969" transform="translate(-1250.534 -232.356)" fill="#f9e8dc"/>
                  <path id="Trazado_113650" data-name="Trazado 113650" d="M1472.862,363.263a2.969,2.969,0,1,1-2.969-2.969,2.969,2.969,0,0,1,2.969,2.969" transform="translate(-1096.087 -269.213)" fill="#f9e8dc"/>
                  <path id="Trazado_113651" data-name="Trazado 113651" d="M1524.537,363.263a2.969,2.969,0,1,1-2.969-2.969,2.969,2.969,0,0,1,2.969,2.969" transform="translate(-1134.699 -269.213)" fill="#f9e8dc"/>
                  <path id="Trazado_113652" data-name="Trazado 113652" d="M1576.212,363.263a2.969,2.969,0,1,1-2.969-2.969,2.969,2.969,0,0,1,2.969,2.969" transform="translate(-1173.311 -269.213)" fill="#f9e8dc"/>
                  <path id="Trazado_113653" data-name="Trazado 113653" d="M1627.887,363.263a2.969,2.969,0,1,1-2.969-2.969,2.969,2.969,0,0,1,2.969,2.969" transform="translate(-1211.922 -269.213)" fill="#f9e8dc"/>
                  <path id="Trazado_113654" data-name="Trazado 113654" d="M1679.562,363.263a2.969,2.969,0,1,1-2.969-2.969,2.969,2.969,0,0,1,2.969,2.969" transform="translate(-1250.534 -269.213)" fill="#f9e8dc"/>
                  <path id="Trazado_113655" data-name="Trazado 113655" d="M1472.862,412.59a2.969,2.969,0,1,1-2.969-2.969,2.969,2.969,0,0,1,2.969,2.969" transform="translate(-1096.087 -306.07)" fill="#f9e8dc"/>
                  <path id="Trazado_113656" data-name="Trazado 113656" d="M1524.537,412.59a2.969,2.969,0,1,1-2.969-2.969,2.969,2.969,0,0,1,2.969,2.969" transform="translate(-1134.699 -306.07)" fill="#f9e8dc"/>
                  <path id="Trazado_113657" data-name="Trazado 113657" d="M1576.212,412.59a2.969,2.969,0,1,1-2.969-2.969,2.969,2.969,0,0,1,2.969,2.969" transform="translate(-1173.311 -306.07)" fill="#f9e8dc"/>
                  <path id="Trazado_113658" data-name="Trazado 113658" d="M1627.887,412.59a2.969,2.969,0,1,1-2.969-2.969,2.969,2.969,0,0,1,2.969,2.969" transform="translate(-1211.922 -306.07)" fill="#f9e8dc"/>
                  <path id="Trazado_113659" data-name="Trazado 113659" d="M1679.562,412.59a2.969,2.969,0,1,1-2.969-2.969,2.969,2.969,0,0,1,2.969,2.969" transform="translate(-1250.534 -306.07)" fill="#f9e8dc"/>
                  <path id="Trazado_113660" data-name="Trazado 113660" d="M1472.862,461.916a2.969,2.969,0,1,1-2.969-2.969,2.969,2.969,0,0,1,2.969,2.969" transform="translate(-1096.087 -342.926)" fill="#f9e8dc"/>
                  <path id="Trazado_113661" data-name="Trazado 113661" d="M1524.537,461.916a2.969,2.969,0,1,1-2.969-2.969,2.969,2.969,0,0,1,2.969,2.969" transform="translate(-1134.699 -342.926)" fill="#f9e8dc"/>
                  <path id="Trazado_113662" data-name="Trazado 113662" d="M1576.212,461.916a2.969,2.969,0,1,1-2.969-2.969,2.969,2.969,0,0,1,2.969,2.969" transform="translate(-1173.311 -342.926)" fill="#f9e8dc"/>
                  <path id="Trazado_113663" data-name="Trazado 113663" d="M1627.887,461.916a2.969,2.969,0,1,1-2.969-2.969,2.969,2.969,0,0,1,2.969,2.969" transform="translate(-1211.922 -342.926)" fill="#f9e8dc"/>
                  <path id="Trazado_113664" data-name="Trazado 113664" d="M1679.562,461.916a2.969,2.969,0,1,1-2.969-2.969,2.969,2.969,0,0,1,2.969,2.969" transform="translate(-1250.534 -342.926)" fill="#f9e8dc"/>
                  <path id="Trazado_113665" data-name="Trazado 113665" d="M129.414,381.1a2.969,2.969,0,1,1-2.969-2.969,2.969,2.969,0,0,1,2.969,2.969" transform="translate(-92.261 -282.538)" fill="#fff"/>
                  <path id="Trazado_113666" data-name="Trazado 113666" d="M181.089,381.1a2.969,2.969,0,1,1-2.969-2.969,2.969,2.969,0,0,1,2.969,2.969" transform="translate(-130.873 -282.538)" fill="#fff"/>
                  <path id="Trazado_113667" data-name="Trazado 113667" d="M232.764,381.1a2.969,2.969,0,1,1-2.969-2.969,2.969,2.969,0,0,1,2.969,2.969" transform="translate(-169.485 -282.538)" fill="#fff"/>
                  <path id="Trazado_113668" data-name="Trazado 113668" d="M284.439,381.1a2.969,2.969,0,1,1-2.969-2.969,2.969,2.969,0,0,1,2.969,2.969" transform="translate(-208.096 -282.538)" fill="#fff"/>
                  <path id="Trazado_113669" data-name="Trazado 113669" d="M336.114,381.1a2.969,2.969,0,1,1-2.969-2.969,2.969,2.969,0,0,1,2.969,2.969" transform="translate(-246.708 -282.538)" fill="#fff"/>
                  <path id="Trazado_113670" data-name="Trazado 113670" d="M129.414,430.423a2.969,2.969,0,1,1-2.969-2.969,2.969,2.969,0,0,1,2.969,2.969" transform="translate(-92.261 -319.395)" fill="#fff"/>
                  <path id="Trazado_113671" data-name="Trazado 113671" d="M181.089,430.423a2.969,2.969,0,1,1-2.969-2.969,2.969,2.969,0,0,1,2.969,2.969" transform="translate(-130.873 -319.395)" fill="#fff"/>
                  <path id="Trazado_113672" data-name="Trazado 113672" d="M232.764,430.423a2.969,2.969,0,1,1-2.969-2.969,2.969,2.969,0,0,1,2.969,2.969" transform="translate(-169.485 -319.395)" fill="#fff"/>
                  <path id="Trazado_113673" data-name="Trazado 113673" d="M284.439,430.423a2.969,2.969,0,1,1-2.969-2.969,2.969,2.969,0,0,1,2.969,2.969" transform="translate(-208.096 -319.395)" fill="#fff"/>
                  <path id="Trazado_113674" data-name="Trazado 113674" d="M336.114,430.423a2.969,2.969,0,1,1-2.969-2.969,2.969,2.969,0,0,1,2.969,2.969" transform="translate(-246.708 -319.395)" fill="#fff"/>
                  <path id="Trazado_113675" data-name="Trazado 113675" d="M129.414,479.749a2.969,2.969,0,1,1-2.969-2.968,2.969,2.969,0,0,1,2.969,2.968" transform="translate(-92.261 -356.252)" fill="#fff"/>
                  <path id="Trazado_113676" data-name="Trazado 113676" d="M181.089,479.749a2.969,2.969,0,1,1-2.969-2.968,2.969,2.969,0,0,1,2.969,2.968" transform="translate(-130.873 -356.252)" fill="#fff"/>
                  <path id="Trazado_113677" data-name="Trazado 113677" d="M232.764,479.749a2.969,2.969,0,1,1-2.969-2.968,2.969,2.969,0,0,1,2.969,2.968" transform="translate(-169.485 -356.252)" fill="#fff"/>
                  <path id="Trazado_113678" data-name="Trazado 113678" d="M284.439,479.749a2.969,2.969,0,1,1-2.969-2.968,2.969,2.969,0,0,1,2.969,2.968" transform="translate(-208.096 -356.252)" fill="#fff"/>
                  <path id="Trazado_113679" data-name="Trazado 113679" d="M336.114,479.749a2.969,2.969,0,1,1-2.969-2.968,2.969,2.969,0,0,1,2.969,2.968" transform="translate(-246.708 -356.252)" fill="#fff"/>
                  <path id="Trazado_113680" data-name="Trazado 113680" d="M129.414,529.076a2.969,2.969,0,1,1-2.969-2.969,2.969,2.969,0,0,1,2.969,2.969" transform="translate(-92.261 -393.108)" fill="#fff"/>
                  <path id="Trazado_113681" data-name="Trazado 113681" d="M181.089,529.076a2.969,2.969,0,1,1-2.969-2.969,2.969,2.969,0,0,1,2.969,2.969" transform="translate(-130.873 -393.108)" fill="#fff"/>
                  <path id="Trazado_113682" data-name="Trazado 113682" d="M232.764,529.076a2.969,2.969,0,1,1-2.969-2.969,2.969,2.969,0,0,1,2.969,2.969" transform="translate(-169.485 -393.108)" fill="#fff"/>
                  <path id="Trazado_113683" data-name="Trazado 113683" d="M284.439,529.076a2.969,2.969,0,1,1-2.969-2.969,2.969,2.969,0,0,1,2.969,2.969" transform="translate(-208.096 -393.108)" fill="#fff"/>
                  <path id="Trazado_113684" data-name="Trazado 113684" d="M336.114,529.076a2.969,2.969,0,1,1-2.969-2.969,2.969,2.969,0,0,1,2.969,2.969" transform="translate(-246.708 -393.108)" fill="#fff"/>
                  <path id="Trazado_113685" data-name="Trazado 113685" d="M129.414,578.4a2.969,2.969,0,1,1-2.969-2.969,2.969,2.969,0,0,1,2.969,2.969" transform="translate(-92.261 -429.965)" fill="#fff"/>
                  <path id="Trazado_113686" data-name="Trazado 113686" d="M181.089,578.4a2.969,2.969,0,1,1-2.969-2.969,2.969,2.969,0,0,1,2.969,2.969" transform="translate(-130.873 -429.965)" fill="#fff"/>
                  <path id="Trazado_113687" data-name="Trazado 113687" d="M232.764,578.4a2.969,2.969,0,1,1-2.969-2.969,2.969,2.969,0,0,1,2.969,2.969" transform="translate(-169.485 -429.965)" fill="#fff"/>
                  <path id="Trazado_113688" data-name="Trazado 113688" d="M284.439,578.4a2.969,2.969,0,1,1-2.969-2.969,2.969,2.969,0,0,1,2.969,2.969" transform="translate(-208.096 -429.965)" fill="#fff"/>
                  <path id="Trazado_113689" data-name="Trazado 113689" d="M336.114,578.4a2.969,2.969,0,1,1-2.969-2.969,2.969,2.969,0,0,1,2.969,2.969" transform="translate(-246.708 -429.965)" fill="#fff"/>
                  <rect id="Rectángulo_33843" data-name="Rectángulo 33843" width="52.156" height="12.2" transform="translate(218.731 48.804)" fill="#f9e8dc"/>
                  <rect id="Rectángulo_33844" data-name="Rectángulo 33844" width="52.695" height="22.413" transform="translate(24.473 16.569)" fill="#f9e8dc"/>
                  <path id="Trazado_113690" data-name="Trazado 113690" d="M178.476,0h34.645a5.962,5.962,0,0,1,5.962,5.962V17.848a5.962,5.962,0,0,1-5.962,5.962H178.476a5.962,5.962,0,0,1-5.962-5.962V5.964A5.962,5.962,0,0,1,178.476,0" transform="translate(-128.903 -0.002)" fill="#eb9ba8"/>
                  <path id="Trazado_113691" data-name="Trazado 113691" d="M211.465,38.531a2.9,2.9,0,1,1-2.9-2.9,2.9,2.9,0,0,1,2.9,2.9" transform="translate(-153.679 -26.627)" fill="#fff"/>
                  <path id="Trazado_113692" data-name="Trazado 113692" d="M258.957,38.531a2.9,2.9,0,1,1-2.9-2.9,2.9,2.9,0,0,1,2.9,2.9" transform="translate(-189.165 -26.627)" fill="#fff"/>
                  <path id="Trazado_113693" data-name="Trazado 113693" d="M306.449,38.531a2.9,2.9,0,1,1-2.9-2.9,2.9,2.9,0,0,1,2.9,2.9" transform="translate(-224.651 -26.627)" fill="#fff"/>
                </g>
              </g>
              <g id="Grupo_951799" data-name="Grupo 951799" transform="translate(47.013 46.941)" opacity="0.251">
                <g id="Grupo_80323" data-name="Grupo 80323" transform="translate(0 0)" clip-path="url(#clip-path-5)">
                  <path id="Trazado_113615" data-name="Trazado 113615" d="M243.934,307.347c-3.606-.274-7.285-.43-11.053-.4-19.937.148-39.437,5.512-59.5,5.306-42.5-.439-86.248-4.844-122.983-32.067C-30.985,219.87-4.307,90.676,63.159,37.636,99.008,9.453,143.661.835,186.442.038,241.514-.988,312.152,16.432,351.61,62.792c27.491,32.3,34.326,107.557,27.9,150.2-5.115,33.942-24.313,65.951-48.565,84.582-30.245,23.235-55.888,12.135-87.011,9.773" transform="translate(0 0.004)" fill="#f1c6bd"/>
                </g>
              </g>
            </g>
            <g id="Grupo_998970" data-name="Grupo 998970" transform="translate(1141.607 6999.381) rotate(90)">
              <g id="Grupo_951798-2" data-name="Grupo 951798" transform="translate(0.564 18.762)">
                <g id="Grupo_80327-2" data-name="Grupo 80327" transform="translate(0 0)" clip-path="url(#clip-path-7)">
                  <path id="Trazado_113636-2" data-name="Trazado 113636" d="M242.1,270.069A121.051,121.051,0,1,1,121.052,149.018,121.051,121.051,0,0,1,242.1,270.069" transform="translate(0 -114.695)" fill="#4db1f0"/>
                  <path id="Sustracción_2-2" data-name="Sustracción 2" d="M87.713,175.43a88.431,88.431,0,0,1-17.677-1.782,87.243,87.243,0,0,1-31.364-13.2A87.955,87.955,0,0,1,6.893,121.857a87.19,87.19,0,0,1-5.111-16.464,88.575,88.575,0,0,1,0-35.355,87.249,87.249,0,0,1,13.2-31.365A87.957,87.957,0,0,1,53.571,6.893,87.266,87.266,0,0,1,70.036,1.782a88.573,88.573,0,0,1,35.355,0,87.246,87.246,0,0,1,31.365,13.2,87.965,87.965,0,0,1,31.779,38.592,87.227,87.227,0,0,1,5.111,16.465,88.575,88.575,0,0,1,0,35.355,87.267,87.267,0,0,1-13.2,31.365,87.979,87.979,0,0,1-38.592,31.779,87.3,87.3,0,0,1-16.465,5.112A88.434,88.434,0,0,1,87.713,175.43Zm0-158.134a70.419,70.419,0,1,0,70.42,70.419A70.5,70.5,0,0,0,87.713,17.3Z" transform="translate(208.626 100.996)" fill="#ffa031" stroke="rgba(0,0,0,0)" stroke-miterlimit="10" stroke-width="1"/>
                  <path id="Trazado_113639-2" data-name="Trazado 113639" d="M636.872,676.267a42.8,42.8,0,1,1-42.8-42.8,42.8,42.8,0,0,1,42.8,42.8" transform="translate(-424.29 -487.556)" fill="#fff"/>
                  <path id="Trazado_113640-2" data-name="Trazado 113640" d="M1472.335,264.347a2.705,2.705,0,1,1-2.705-2.705,2.7,2.7,0,0,1,2.705,2.705" transform="translate(-1129.041 -201.377)" fill="#f9e8dc"/>
                  <path id="Trazado_113641-2" data-name="Trazado 113641" d="M1524.01,264.347a2.705,2.705,0,1,1-2.705-2.705,2.705,2.705,0,0,1,2.705,2.705" transform="translate(-1168.813 -201.377)" fill="#f9e8dc"/>
                  <path id="Trazado_113642-2" data-name="Trazado 113642" d="M1575.685,264.347a2.705,2.705,0,1,1-2.705-2.705,2.7,2.7,0,0,1,2.705,2.705" transform="translate(-1208.586 -201.377)" fill="#f9e8dc"/>
                  <path id="Trazado_113643-2" data-name="Trazado 113643" d="M1627.36,264.347a2.705,2.705,0,1,1-2.705-2.705,2.705,2.705,0,0,1,2.705,2.705" transform="translate(-1248.358 -201.377)" fill="#f9e8dc"/>
                  <path id="Trazado_113644-2" data-name="Trazado 113644" d="M1679.034,264.347a2.705,2.705,0,1,1-2.7-2.705,2.7,2.7,0,0,1,2.7,2.705" transform="translate(-1288.131 -201.377)" fill="#f9e8dc"/>
                  <path id="Trazado_113645-2" data-name="Trazado 113645" d="M1472.335,313.673a2.705,2.705,0,1,1-2.705-2.705,2.705,2.705,0,0,1,2.705,2.705" transform="translate(-1129.041 -239.342)" fill="#f9e8dc"/>
                  <path id="Trazado_113646-2" data-name="Trazado 113646" d="M1524.01,313.673a2.705,2.705,0,1,1-2.705-2.705,2.705,2.705,0,0,1,2.705,2.705" transform="translate(-1168.813 -239.342)" fill="#f9e8dc"/>
                  <path id="Trazado_113647-2" data-name="Trazado 113647" d="M1575.685,313.673a2.705,2.705,0,1,1-2.705-2.705,2.705,2.705,0,0,1,2.705,2.705" transform="translate(-1208.586 -239.342)" fill="#f9e8dc"/>
                  <path id="Trazado_113648-2" data-name="Trazado 113648" d="M1627.36,313.673a2.705,2.705,0,1,1-2.705-2.705,2.705,2.705,0,0,1,2.705,2.705" transform="translate(-1248.358 -239.342)" fill="#f9e8dc"/>
                  <path id="Trazado_113649-2" data-name="Trazado 113649" d="M1679.034,313.673a2.705,2.705,0,1,1-2.7-2.705,2.705,2.705,0,0,1,2.7,2.705" transform="translate(-1288.131 -239.342)" fill="#f9e8dc"/>
                  <path id="Trazado_113650-2" data-name="Trazado 113650" d="M1472.335,363a2.705,2.705,0,1,1-2.705-2.705,2.7,2.7,0,0,1,2.705,2.705" transform="translate(-1129.041 -277.306)" fill="#f9e8dc"/>
                  <path id="Trazado_113651-2" data-name="Trazado 113651" d="M1524.01,363a2.705,2.705,0,1,1-2.705-2.705A2.705,2.705,0,0,1,1524.01,363" transform="translate(-1168.813 -277.306)" fill="#f9e8dc"/>
                  <path id="Trazado_113652-2" data-name="Trazado 113652" d="M1575.685,363a2.705,2.705,0,1,1-2.705-2.705,2.7,2.7,0,0,1,2.705,2.705" transform="translate(-1208.586 -277.306)" fill="#f9e8dc"/>
                  <path id="Trazado_113653-2" data-name="Trazado 113653" d="M1627.36,363a2.705,2.705,0,1,1-2.705-2.705A2.705,2.705,0,0,1,1627.36,363" transform="translate(-1248.358 -277.306)" fill="#f9e8dc"/>
                  <path id="Trazado_113654-2" data-name="Trazado 113654" d="M1679.034,363a2.705,2.705,0,1,1-2.7-2.705,2.705,2.705,0,0,1,2.7,2.705" transform="translate(-1288.131 -277.306)" fill="#f9e8dc"/>
                  <path id="Trazado_113655-2" data-name="Trazado 113655" d="M1472.335,412.326a2.705,2.705,0,1,1-2.705-2.7,2.7,2.7,0,0,1,2.705,2.7" transform="translate(-1129.041 -315.272)" fill="#f9e8dc"/>
                  <path id="Trazado_113656-2" data-name="Trazado 113656" d="M1524.01,412.326a2.705,2.705,0,1,1-2.705-2.7,2.705,2.705,0,0,1,2.705,2.7" transform="translate(-1168.813 -315.272)" fill="#f9e8dc"/>
                  <path id="Trazado_113657-2" data-name="Trazado 113657" d="M1575.685,412.326a2.705,2.705,0,1,1-2.705-2.7,2.7,2.7,0,0,1,2.705,2.7" transform="translate(-1208.586 -315.272)" fill="#f9e8dc"/>
                  <path id="Trazado_113658-2" data-name="Trazado 113658" d="M1627.36,412.326a2.705,2.705,0,1,1-2.705-2.7,2.705,2.705,0,0,1,2.705,2.7" transform="translate(-1248.358 -315.272)" fill="#f9e8dc"/>
                  <path id="Trazado_113659-2" data-name="Trazado 113659" d="M1679.034,412.326a2.705,2.705,0,1,1-2.7-2.7,2.705,2.705,0,0,1,2.7,2.7" transform="translate(-1288.131 -315.272)" fill="#f9e8dc"/>
                  <path id="Trazado_113660-2" data-name="Trazado 113660" d="M1472.335,461.652a2.705,2.705,0,1,1-2.705-2.705,2.7,2.7,0,0,1,2.705,2.705" transform="translate(-1129.041 -353.236)" fill="#f9e8dc"/>
                  <path id="Trazado_113661-2" data-name="Trazado 113661" d="M1524.01,461.652a2.705,2.705,0,1,1-2.705-2.705,2.705,2.705,0,0,1,2.705,2.705" transform="translate(-1168.813 -353.236)" fill="#f9e8dc"/>
                  <path id="Trazado_113662-2" data-name="Trazado 113662" d="M1575.685,461.652a2.705,2.705,0,1,1-2.705-2.705,2.7,2.7,0,0,1,2.705,2.705" transform="translate(-1208.586 -353.236)" fill="#f9e8dc"/>
                  <path id="Trazado_113663-2" data-name="Trazado 113663" d="M1627.36,461.652a2.705,2.705,0,1,1-2.705-2.705,2.705,2.705,0,0,1,2.705,2.705" transform="translate(-1248.358 -353.236)" fill="#f9e8dc"/>
                  <path id="Trazado_113664-2" data-name="Trazado 113664" d="M1679.034,461.652a2.705,2.705,0,1,1-2.7-2.705,2.705,2.705,0,0,1,2.7,2.705" transform="translate(-1288.131 -353.236)" fill="#f9e8dc"/>
                  <path id="Trazado_113665-2" data-name="Trazado 113665" d="M128.886,380.833a2.705,2.705,0,1,1-2.705-2.705,2.705,2.705,0,0,1,2.705,2.705" transform="translate(-95.035 -291.033)" fill="#fff"/>
                  <path id="Trazado_113666-2" data-name="Trazado 113666" d="M180.561,380.833a2.705,2.705,0,1,1-2.705-2.705,2.705,2.705,0,0,1,2.705,2.705" transform="translate(-134.808 -291.033)" fill="#fff"/>
                  <path id="Trazado_113667-2" data-name="Trazado 113667" d="M232.236,380.833a2.705,2.705,0,1,1-2.705-2.705,2.705,2.705,0,0,1,2.705,2.705" transform="translate(-174.58 -291.033)" fill="#fff"/>
                  <path id="Trazado_113668-2" data-name="Trazado 113668" d="M283.912,380.833a2.705,2.705,0,1,1-2.705-2.705,2.705,2.705,0,0,1,2.705,2.705" transform="translate(-214.353 -291.033)" fill="#fff"/>
                  <path id="Trazado_113669-2" data-name="Trazado 113669" d="M335.586,380.833a2.705,2.705,0,1,1-2.705-2.705,2.705,2.705,0,0,1,2.705,2.705" transform="translate(-254.125 -291.033)" fill="#fff"/>
                  <path id="Trazado_113670-2" data-name="Trazado 113670" d="M128.886,430.159a2.705,2.705,0,1,1-2.705-2.7,2.705,2.705,0,0,1,2.705,2.7" transform="translate(-95.035 -328.997)" fill="#fff"/>
                  <path id="Trazado_113671-2" data-name="Trazado 113671" d="M180.561,430.159a2.705,2.705,0,1,1-2.705-2.7,2.705,2.705,0,0,1,2.705,2.7" transform="translate(-134.808 -328.997)" fill="#fff"/>
                  <path id="Trazado_113672-2" data-name="Trazado 113672" d="M232.236,430.159a2.705,2.705,0,1,1-2.705-2.7,2.705,2.705,0,0,1,2.705,2.7" transform="translate(-174.58 -328.997)" fill="#fff"/>
                  <path id="Trazado_113673-2" data-name="Trazado 113673" d="M283.912,430.159a2.705,2.705,0,1,1-2.705-2.7,2.705,2.705,0,0,1,2.705,2.7" transform="translate(-214.353 -328.997)" fill="#fff"/>
                  <path id="Trazado_113674-2" data-name="Trazado 113674" d="M335.586,430.159a2.705,2.705,0,1,1-2.705-2.7,2.705,2.705,0,0,1,2.705,2.7" transform="translate(-254.125 -328.997)" fill="#fff"/>
                  <path id="Trazado_113675-2" data-name="Trazado 113675" d="M128.886,479.486a2.705,2.705,0,1,1-2.705-2.7,2.705,2.705,0,0,1,2.705,2.7" transform="translate(-95.035 -366.962)" fill="#fff"/>
                  <path id="Trazado_113676-2" data-name="Trazado 113676" d="M180.561,479.486a2.705,2.705,0,1,1-2.705-2.7,2.705,2.705,0,0,1,2.705,2.7" transform="translate(-134.808 -366.962)" fill="#fff"/>
                  <path id="Trazado_113677-2" data-name="Trazado 113677" d="M232.236,479.486a2.705,2.705,0,1,1-2.705-2.7,2.7,2.7,0,0,1,2.705,2.7" transform="translate(-174.58 -366.962)" fill="#fff"/>
                  <path id="Trazado_113678-2" data-name="Trazado 113678" d="M283.912,479.486a2.705,2.705,0,1,1-2.705-2.7,2.705,2.705,0,0,1,2.705,2.7" transform="translate(-214.353 -366.962)" fill="#fff"/>
                  <path id="Trazado_113679-2" data-name="Trazado 113679" d="M335.586,479.486a2.705,2.705,0,1,1-2.705-2.7,2.705,2.705,0,0,1,2.705,2.7" transform="translate(-254.125 -366.962)" fill="#fff"/>
                  <path id="Trazado_113680-2" data-name="Trazado 113680" d="M128.886,528.812a2.705,2.705,0,1,1-2.705-2.705,2.705,2.705,0,0,1,2.705,2.705" transform="translate(-95.035 -404.927)" fill="#fff"/>
                  <path id="Trazado_113681-2" data-name="Trazado 113681" d="M180.561,528.812a2.705,2.705,0,1,1-2.705-2.705,2.705,2.705,0,0,1,2.705,2.705" transform="translate(-134.808 -404.927)" fill="#fff"/>
                  <path id="Trazado_113682-2" data-name="Trazado 113682" d="M232.236,528.812a2.705,2.705,0,1,1-2.705-2.705,2.705,2.705,0,0,1,2.705,2.705" transform="translate(-174.58 -404.927)" fill="#fff"/>
                  <path id="Trazado_113683-2" data-name="Trazado 113683" d="M283.912,528.812a2.705,2.705,0,1,1-2.705-2.705,2.705,2.705,0,0,1,2.705,2.705" transform="translate(-214.353 -404.927)" fill="#fff"/>
                  <path id="Trazado_113684-2" data-name="Trazado 113684" d="M335.586,528.812a2.705,2.705,0,1,1-2.705-2.705,2.705,2.705,0,0,1,2.705,2.705" transform="translate(-254.125 -404.927)" fill="#fff"/>
                  <path id="Trazado_113685-2" data-name="Trazado 113685" d="M128.886,578.138a2.705,2.705,0,1,1-2.705-2.705,2.705,2.705,0,0,1,2.705,2.705" transform="translate(-95.035 -442.891)" fill="#fff"/>
                  <path id="Trazado_113686-2" data-name="Trazado 113686" d="M180.561,578.138a2.705,2.705,0,1,1-2.705-2.705,2.7,2.7,0,0,1,2.705,2.705" transform="translate(-134.808 -442.891)" fill="#fff"/>
                  <path id="Trazado_113687-2" data-name="Trazado 113687" d="M232.236,578.138a2.705,2.705,0,1,1-2.705-2.705,2.7,2.7,0,0,1,2.705,2.705" transform="translate(-174.58 -442.891)" fill="#fff"/>
                  <path id="Trazado_113688-2" data-name="Trazado 113688" d="M283.912,578.138a2.705,2.705,0,1,1-2.705-2.705,2.705,2.705,0,0,1,2.705,2.705" transform="translate(-214.353 -442.891)" fill="#fff"/>
                  <path id="Trazado_113689-2" data-name="Trazado 113689" d="M335.586,578.138a2.705,2.705,0,1,1-2.705-2.705,2.7,2.7,0,0,1,2.705,2.705" transform="translate(-254.125 -442.891)" fill="#fff"/>
                  <rect id="Rectángulo_33843-2" data-name="Rectángulo 33843" width="47.521" height="11.116" transform="translate(199.294 44.467)" fill="#f9e8dc"/>
                  <rect id="Rectángulo_33844-2" data-name="Rectángulo 33844" width="48.013" height="20.421" transform="translate(22.298 15.097)" fill="#f9e8dc"/>
                  <path id="Trazado_113690-2" data-name="Trazado 113690" d="M177.946,0h31.566a5.433,5.433,0,0,1,5.432,5.432V16.262a5.433,5.433,0,0,1-5.432,5.432H177.946a5.432,5.432,0,0,1-5.432-5.432V5.434A5.432,5.432,0,0,1,177.946,0" transform="translate(-132.778 -0.002)" fill="#eb9ba8"/>
                  <path id="Trazado_113691-2" data-name="Trazado 113691" d="M210.95,38.274a2.639,2.639,0,1,1-2.639-2.639,2.639,2.639,0,0,1,2.639,2.639" transform="translate(-158.299 -27.427)" fill="#fff"/>
                  <path id="Trazado_113692-2" data-name="Trazado 113692" d="M258.442,38.274a2.639,2.639,0,1,1-2.639-2.639,2.639,2.639,0,0,1,2.639,2.639" transform="translate(-194.852 -27.427)" fill="#fff"/>
                  <path id="Trazado_113693-2" data-name="Trazado 113693" d="M305.934,38.274a2.639,2.639,0,1,1-2.639-2.639,2.639,2.639,0,0,1,2.639,2.639" transform="translate(-231.405 -27.427)" fill="#fff"/>
                </g>
              </g>
              <g id="Grupo_951799-2" data-name="Grupo 951799" transform="translate(42.835 42.77)" opacity="0.251">
                <g id="Grupo_80323-2" data-name="Grupo 80323" transform="translate(0 0)" clip-path="url(#clip-path-8)">
                  <path id="Trazado_113615-2" data-name="Trazado 113615" d="M222.257,280.035c-3.285-.249-6.638-.392-10.071-.366-18.165.135-35.932,5.023-54.21,4.834-38.727-.4-78.584-4.414-112.054-29.217C-28.231,200.332-3.924,82.618,57.547,34.291,90.21,8.613,130.895.761,169.875.035,220.053-.9,284.414,14.971,320.365,57.212c25.048,29.431,31.276,98,25.421,136.852-4.661,30.926-22.153,60.09-44.25,77.066-27.557,21.17-50.922,11.057-79.279,8.9" transform="translate(0 0.004)" fill="#f1c6bd"/>
                </g>
              </g>
            </g>
          </g>
          <g id="Grupo_896035" data-name="Grupo 896035" transform="translate(462.099 6486.777)">
            <g id="Grupo_896062" data-name="Grupo 896062" clip-path="url(#clip-path-9)">
              <g id="Grupo_896042" data-name="Grupo 896042">
                <g id="Grupo_896041" data-name="Grupo 896041" clip-path="url(#clip-path-9)">
                  <path id="Trazado_694913" data-name="Trazado 694913" d="M320.134,161.322s-8.021.857-12.663,2.688S1.332,245.783,1.332,245.783s-3,.488,0,5.043,5.55,4.672,8.89,5.1S341.078,287.2,341.078,287.2s5.4,2.651,7.072,8.053,4.787,16.4,2.933,33.906-3.877,23.587-6.4,24.082S19.146,318.2,19.146,318.2l1.072-4.625s-13.973,5.2-14.759,6.822-.589,8.249,4.861,9.379,161.03,20.57,161.03,20.57,158.8,16.883,168.783,16.841,261.979-104.83,261.979-104.83,7.66-22.881,7.857-41.737-.2-32.36-11.391-32.973A10.635,10.635,0,0,0,597.4,183.1c-1.179-2.16-249.989-22.539-277.263-21.778" transform="translate(0 6.347)" fill="#005b8b"/>
                  <g id="Grupo_896037" data-name="Grupo 896037" transform="translate(5.12 319.917)" opacity="0.5">
                    <g id="Grupo_896036" data-name="Grupo 896036">
                      <g id="Grupo_896035-2" data-name="Grupo 896035" clip-path="url(#clip-path-11)">
                        <path id="Trazado_694914" data-name="Trazado 694914" d="M339.832,361.415c18.363-15.945,16.314-38.77,16.314-38.77l-5.089-1.094c-.054.611-.1,1.213-.166,1.842-1.854,17.506-3.878,23.587-6.4,24.082S18.953,312.43,18.953,312.43l1.071-4.625s-13.973,5.2-14.759,6.822-.589,8.249,4.861,9.379,161.031,20.57,161.031,20.57,157.861,16.783,168.675,16.839" transform="translate(-4.927 -307.805)" fill="#0079b9"/>
                      </g>
                    </g>
                  </g>
                  <g id="Grupo_896040" data-name="Grupo 896040" transform="translate(0 167.648)" opacity="0.5">
                    <g id="Grupo_896039" data-name="Grupo 896039">
                      <g id="Grupo_896038" data-name="Grupo 896038" clip-path="url(#clip-path-12)">
                        <path id="Trazado_694915" data-name="Trazado 694915" d="M320.134,161.322s-8.021.857-12.663,2.688S1.332,245.783,1.332,245.783s-3,.488,0,5.043,5.55,4.672,8.89,5.1c2.6.336,201.159,19.051,289.389,27.363l39-3.377,259.965-92.275A10.629,10.629,0,0,0,597.4,183.1c-1.179-2.161-249.989-22.54-277.263-21.779" transform="translate(0 -161.301)" fill="#0079b9"/>
                      </g>
                    </g>
                  </g>
                </g>
              </g>
              <g id="Grupo_896044" data-name="Grupo 896044" transform="translate(14.635 262.276)">
                <g id="Grupo_896043" data-name="Grupo 896043" clip-path="url(#clip-path-13)">
                  <path id="Trazado_694916" data-name="Trazado 694916" d="M5.807,353.7,357.963,384.34l11.164-130.114L16.972,223.583Z" transform="translate(-14.407 -253.478)" fill="url(#linear-gradient)"/>
                </g>
              </g>
              <g id="Grupo_896061" data-name="Grupo 896061">
                <g id="Grupo_896060" data-name="Grupo 896060" clip-path="url(#clip-path-9)">
                  <g id="Grupo_896047" data-name="Grupo 896047" transform="translate(22.615 277.182)" opacity="0.6" style="mix-blend-mode: multiply;isolation: isolate">
                    <g id="Grupo_896046" data-name="Grupo 896046">
                      <g id="Grupo_896045" data-name="Grupo 896045" clip-path="url(#clip-path-15)">
                        <path id="Trazado_694918" data-name="Trazado 694918" d="M356.338,306.064,21.759,266.688l335.035,36.54Z" transform="translate(-21.759 -266.687)" fill="#d1d1d1"/>
                      </g>
                    </g>
                  </g>
                  <g id="Grupo_896059" data-name="Grupo 896059" transform="translate(20.595 283.608)" opacity="0.5" style="mix-blend-mode: multiply;isolation: isolate">
                    <g id="Grupo_896058" data-name="Grupo 896058">
                      <g id="Grupo_896057" data-name="Grupo 896057" clip-path="url(#clip-path-16)">
                        <g id="Grupo_896050" data-name="Grupo 896050" transform="translate(2.046 13.184)" style="mix-blend-mode: multiply;isolation: isolate">
                          <g id="Grupo_896049" data-name="Grupo 896049">
                            <g id="Grupo_896048" data-name="Grupo 896048" clip-path="url(#clip-path-17)">
                              <path id="Trazado_694919" data-name="Trazado 694919" d="M22.111,288.257c.44-3.709-.238-.976-.327-2.7l309.038,38.713Z" transform="translate(-21.784 -285.555)" fill="#d1d1d1"/>
                            </g>
                          </g>
                        </g>
                        <g id="Grupo_896053" data-name="Grupo 896053" transform="translate(1.654 28.472)" opacity="0.7" style="mix-blend-mode: multiply;isolation: isolate">
                          <g id="Grupo_896052" data-name="Grupo 896052">
                            <g id="Grupo_896051" data-name="Grupo 896051" clip-path="url(#clip-path-18)">
                              <path id="Trazado_694920" data-name="Trazado 694920" d="M350.242,339.137,21.408,300.358a.462.462,0,0,1,0-.092l323.011,35.314Z" transform="translate(-21.406 -300.265)" fill="#d1d1d1"/>
                            </g>
                          </g>
                        </g>
                        <g id="Grupo_896056" data-name="Grupo 896056" transform="translate(16.381)" opacity="0.4" style="mix-blend-mode: multiply;isolation: isolate">
                          <g id="Grupo_896055" data-name="Grupo 896055">
                            <g id="Grupo_896054" data-name="Grupo 896054" clip-path="url(#clip-path-19)">
                              <path id="Trazado_694921" data-name="Trazado 694921" d="M354.738,307.843c.1.935.186,1.908.26,2.9L35.577,272.871Z" transform="translate(-35.576 -272.871)" fill="#d1d1d1"/>
                            </g>
                          </g>
                        </g>
                        <path id="Trazado_694922" data-name="Trazado 694922" d="M19.815,308.166c.167-1.034.342-2.133.5-3.3l306.512,35.51Z" transform="translate(-19.815 -271.612)" fill="#d1d1d1"/>
                      </g>
                    </g>
                  </g>
                  <path id="Trazado_694923" data-name="Trazado 694923" d="M481.4,231.507c0,5.55-89.664,10.048-200.268,10.048s-200.269-4.5-200.269-10.048,89.664-10.048,200.269-10.048,200.268,4.5,200.268,10.048" transform="translate(3.182 8.715)" fill="#0073a5"/>
                  <path id="Trazado_694924" data-name="Trazado 694924" d="M287,49.783c-.864-5.1-.353-9.131,3.358-9.965s7.421,2.623,8.285,7.723-1.444,9.909-5.155,10.744-5.624-3.4-6.488-8.5" transform="translate(11.279 1.562)" fill="#e8daa3"/>
                  <path id="Trazado_694925" data-name="Trazado 694925" d="M341.26,107.073c-7.4-9.23-24.6-26.871-36.2-33.641s-40.853-10.973-55.6-5.539c-6.424,2.368-35.8,27.692-39,54.358,29.225,12.611,69.327,16.984,119.208,13.949,0,0,19-19.9,11.6-29.128" transform="translate(8.281 2.574)" fill="#aaa23f"/>
                  <path id="Trazado_694926" data-name="Trazado 694926" d="M316.206,114.842a16.065,16.065,0,0,0-2.878-4.925l-.9,1.068c-3.228-3.108-5.526-7.073-7.78-10.981q-2.465,4.479-4.928,8.959c-.27.491-.634,1.044-1.184,1.064a1.6,1.6,0,0,1-1.136-.687,35.428,35.428,0,0,1-3.647-4.83,3.837,3.837,0,0,0-1.854-1.864,2.424,2.424,0,0,0-1.4.055c-3.435,1.042-4.724,6.288-8.294,6.585-1.769.148-3.374-1.072-4.542-2.441a25.083,25.083,0,0,0-3.544-4.055,2.282,2.282,0,0,0-1.243-.543,2.824,2.824,0,0,0-1.892,1.039q-2.711,2.593-5.573,5.015a3.143,3.143,0,0,1-1.324.784,2.534,2.534,0,0,1-1.8-.469c-2.007-1.248-3.188-3.484-4.309-5.6a2.921,2.921,0,0,0-.9-1.16c-.816-.524-1.874-.1-2.735.338a118.794,118.794,0,0,0-11.341,6.593c-1.618,1.064-3.306,2.2-5.224,2.35l.812,6.778a41.169,41.169,0,0,1,11.99-7.405,1.963,1.963,0,0,1,2.69.666,20.973,20.973,0,0,1,4.25,6.859c.2.526.483,1.151,1.032,1.2a1.436,1.436,0,0,0,.857-.308l10.614-6.662a1.018,1.018,0,0,1,1.582.272,40.881,40.881,0,0,1,4.782,5.926,3.319,3.319,0,0,0,1.625,1.553,2.548,2.548,0,0,0,1.359-.073c3.708-1.005,6.111-4.571,9.2-6.9a3.4,3.4,0,0,1,1.374-.709c1.329-.247,2.487.951,3.17,2.147s1.254,2.592,2.456,3.227c1.409.745,3.181.116,4.389-.939a40.533,40.533,0,0,0,3.121-3.676,2.073,2.073,0,0,1,1.181-.782c.879-.114,1.528.793,1.953,1.59a21.4,21.4,0,0,0,2.581,4.139,6,6,0,0,0,4.136,2.23,3.6,3.6,0,0,0,3.64-2.591,5.151,5.151,0,0,0-.374-2.846" transform="translate(9.357 3.935)" fill="#b7ac48"/>
                  <path id="Trazado_694927" data-name="Trazado 694927" d="M248.332,67.893c-1.747.644-5.2,3-9.354,6.6C242,85.472,255.244,93.739,271.133,93.739c16.491,0,30.136-8.905,32.452-20.5-11.823-6.655-40.644-10.729-55.253-5.345" transform="translate(9.404 2.574)" fill="#9b9137"/>
                  <path id="Trazado_694928" data-name="Trazado 694928" d="M307.652,91.608c5.17,29.42-17,45.872-33.682,41.83-28.352-6.871-25.148-42.167-25.152-42.153-4.6,16.41-19.922,28.853-27.274,34.312,27.928,9.227,64.065,12.238,107.679,9.585a69.632,69.632,0,0,0,6.071-10.846c-7.748-4.647-26.74-31.044-27.642-32.728" transform="translate(8.718 3.592)" fill="#9b9137"/>
                  <path id="Trazado_694929" data-name="Trazado 694929" d="M342.506,109.53c-5.759-8.942-17.588-11.04-26.421-4.686s-11.324,18.754-5.564,27.7,17.588,11.04,26.42,4.686,11.324-18.754,5.565-27.7" transform="translate(12.097 3.981)" fill="#604e52"/>
                  <path id="Trazado_694930" data-name="Trazado 694930" d="M288.168,121.167c3.365-1.35,22.115-12.151,35.1-16.741s26.282,10.723,18.109,28.564a143.384,143.384,0,0,1-54.808,1.469s-1.763-11.942,1.6-13.292" transform="translate(11.258 4.077)" fill="#edb984"/>
                  <path id="Trazado_694931" data-name="Trazado 694931" d="M341.679,112.322c-3.966,6.64-14.488,13.383-27.771,17.051-10.622,2.933-20.675,3.252-27.7,1.372.137,1.934.348,3.372.348,3.372a143.368,143.368,0,0,0,54.809-1.468c3.536-7.719,3.047-14.96.31-20.327" transform="translate(11.263 4.42)" fill="#e79b69"/>
                  <path id="Trazado_694932" data-name="Trazado 694932" d="M248.491,114.08c-.865-9.048-10.5-15.484-21.523-14.376s-19.256,9.341-18.392,18.388,10.5,15.485,21.524,14.377,19.256-9.342,18.391-18.389" transform="translate(8.205 3.919)" fill="#604e52"/>
                  <path id="Trazado_694933" data-name="Trazado 694933" d="M278.7,120.611c-3.979-1.4-26.147-12.483-41.494-17.267s-31.073,10.331-21.411,28.294l64.8,2.289s2.084-11.916-1.895-13.316" transform="translate(8.375 4.031)" fill="#edb984"/>
                  <path id="Trazado_694934" data-name="Trazado 694934" d="M263.812,128.383c-19.464-4.437-33.689-14.049-31.592-23.725a9.172,9.172,0,0,1,.765-2.14c-13.8-1.155-25.966,12.807-17.191,29.121,15.136,3.017,38.442,3.185,64.8,2.288,0,0,.138-.8.275-2-1.755-2.161-10.994-2.163-17.057-3.545" transform="translate(8.375 4.031)" fill="#e79b69"/>
                  <path id="Trazado_694935" data-name="Trazado 694935" d="M280.67,123.4c1.331,1.834,1.672,5.047.538,7.926a5.159,5.159,0,0,1-5.07,3.328c-1.035-.192-3.492-2.645-1.172-4.707s.893-3.865.893-3.865Z" transform="translate(10.782 4.856)" fill="#edb984"/>
                  <path id="Trazado_694936" data-name="Trazado 694936" d="M282.161,123.176c-1.767-5.5-13.332-7.248-18.579-6.575s-5.687,13.781-3.539,16.279,5.576,3.847,8.512,2.144,5.074,1.692,6.335,1.432c3.15-.651,8.39-9.8,7.271-13.281" transform="translate(10.185 4.583)" fill="#edb984"/>
                  <path id="Trazado_694937" data-name="Trazado 694937" d="M278.943,130.142a8.558,8.558,0,0,1-2.2,7.569,5.092,5.092,0,0,1-5.9,1.221c-.908-.561-2.379-3.749.505-4.809s2.161-3.265,2.161-3.265Z" transform="translate(10.611 5.121)" fill="#edb984"/>
                  <path id="Trazado_694938" data-name="Trazado 694938" d="M285.044,123.687c-1.329,1.834-1.67,5.047-.538,7.926a5.151,5.151,0,0,0,5.063,3.328c1.034-.192,3.487-2.645,1.171-4.707s-.892-3.865-.892-3.865Z" transform="translate(11.169 4.867)" fill="#edb984"/>
                  <path id="Trazado_694939" data-name="Trazado 694939" d="M284.145,123.463c1.764-5.5,13.311-7.248,18.55-6.575s5.678,13.782,3.533,16.279-5.567,3.847-8.5,2.144-5.066,1.692-6.324,1.432c-3.146-.651-8.376-9.8-7.26-13.281" transform="translate(11.175 4.594)" fill="#edb984"/>
                  <path id="Trazado_694940" data-name="Trazado 694940" d="M286.83,130.429a8.567,8.567,0,0,0,2.2,7.569,5.077,5.077,0,0,0,5.892,1.221c.907-.561,2.376-3.749-.5-4.809s-2.157-3.265-2.157-3.265Z" transform="translate(11.279 5.132)" fill="#edb984"/>
                  <path id="Trazado_694941" data-name="Trazado 694941" d="M303.911,80.342q-.151-1.483-.3-2.966a3.665,3.665,0,0,1-.012-.978,5.255,5.255,0,0,1,.534-1.356c2.3-4.817.473-10.264-2.493-13.938-1.263-1.565-2.907-3.021-4.982-2.981a1.348,1.348,0,0,0-.974-1.976q.393-2.139.782-4.278c.165-.9.332-1.811.434-2.718a13.42,13.42,0,0,0-1.107-7.618,7.272,7.272,0,0,0-5.743-4.073c1.337-2.374-1.2-4.7-1.163-7.3.018-1.1.485-2.342-.046-3.215-.955-1.568-4.088-.286-4.807-2.009a6.71,6.71,0,0,1-.211-1.523,2.348,2.348,0,0,0-2.146-2,.727.727,0,0,0-.406-1.089,2.185,2.185,0,0,0-1.343.246c-2.218.91-4.816,2.265-5.3,4.671a4.385,4.385,0,0,0-3.333-4.986c-2.1-.551-4.445.06-6.654.789a24.382,24.382,0,0,0-9.7,5.328c-2.728,2.676-4.509,6.762-3.6,10.187a3.294,3.294,0,0,1,.181,2.042,9.918,9.918,0,0,1-.774,1.214c-.727,1.277-.1,2.719.165,4.061a7.571,7.571,0,0,1-.226,3.646,4.766,4.766,0,0,0-1.706,3.732,7.808,7.808,0,0,0,7.529,8.338c-.721,2.786-1.435,5.8-.454,8.275a5.581,5.581,0,0,1,.634,1.991,7.961,7.961,0,0,1-.341,1.714,9.683,9.683,0,0,0,.607,4.971,33.406,33.406,0,0,0,1.718,4.691,6.626,6.626,0,0,0,2.412,2.944,3.5,3.5,0,0,0,3.774-.126,2.557,2.557,0,0,0,2.805,1.866,9.377,9.377,0,0,0,3.676-1.349c.97,2.774,3.755,4.315,6.63,4.6,2.817.283,5.746-.44,8.614-1.176a6.961,6.961,0,0,0,5.466,3.08,13.051,13.051,0,0,0,7.733-2.4c1.8-1.174,3.55-2.83,4.07-4.927a9.9,9.9,0,0,0,.058-3.406" transform="translate(9.797 0.788)" fill="#824550"/>
                  <path id="Trazado_694942" data-name="Trazado 694942" d="M263.74,57.576c-7.1-20.41,12.8-30.666,19.452-35.441a2.261,2.261,0,0,0-1.517-.728.726.726,0,0,0-.4-1.09,2.183,2.183,0,0,0-1.343.247c-2.218.91-4.816,2.265-5.3,4.67a4.386,4.386,0,0,0-3.333-4.985c-2.1-.552-4.445.06-6.654.789a24.366,24.366,0,0,0-9.7,5.327c-2.73,2.677-4.51,6.762-3.6,10.188a3.283,3.283,0,0,1,.18,2.041,9.531,9.531,0,0,1-.774,1.214c-.725,1.277-.1,2.72.164,4.062a7.541,7.541,0,0,1-.226,3.645,4.773,4.773,0,0,0-1.7,3.732,7.81,7.81,0,0,0,7.53,8.339c-.721,2.786-1.435,5.8-.456,8.275a5.563,5.563,0,0,1,.636,1.991,8.049,8.049,0,0,1-.341,1.714,9.673,9.673,0,0,0,.607,4.971,33.323,33.323,0,0,0,1.718,4.691,6.609,6.609,0,0,0,2.411,2.943,3.5,3.5,0,0,0,3.775-.125,2.558,2.558,0,0,0,2.805,1.866,6.3,6.3,0,0,0,2.135-.587c-5.9-6.589-2.421-17.29-6.059-27.75" transform="translate(9.797 0.788)" fill="#7a3947"/>
                  <path id="Trazado_694943" data-name="Trazado 694943" d="M266.537,57.208c-5.78-5.489-2.333-14.853,1.261-17.016s16.775-2.018,20.173.577,4.707,12.834,3.892,14.421c-.374.727-5.544-1.6-11.094-1.154-6.555.525-13.656,3.719-14.232,3.172" transform="translate(10.367 1.522)" fill="#edb984"/>
                  <path id="Trazado_694944" data-name="Trazado 694944" d="M251.317,33.966c.012-.419.052-.828.1-1.233-2.362,2.6-5.25,7.914-.565,16.035l4.416-1.47a15.171,15.171,0,0,1-3.525-9.663,12.345,12.345,0,0,1-.428-3.67" transform="translate(9.773 1.288)" fill="#ccb092"/>
                  <path id="Trazado_694945" data-name="Trazado 694945" d="M260.006,50.541c-1.3-4.981-3.408-8.291-7.126-7.08S247.2,49.689,248.5,54.67s5.362,8.038,9.079,6.827,3.727-5.975,2.43-10.957" transform="translate(9.763 1.7)" fill="#dbd3b4"/>
                  <path id="Trazado_694946" data-name="Trazado 694946" d="M252.677,53.039c-.586-2.154-1.373-3.63-2.516-3.255s-1.594,2.426-1.009,4.579,1.987,3.6,3.131,3.22.981-2.391.395-4.544" transform="translate(9.794 1.957)" fill="#ccb092"/>
                  <path id="Trazado_694947" data-name="Trazado 694947" d="M274.708,50.42c-.16-1.479-.971-2.647-1.812-2.609s-1.392,1.268-1.232,2.747.971,2.646,1.812,2.609,1.392-1.268,1.232-2.747" transform="translate(10.689 1.881)" fill="#5a4949"/>
                  <path id="Trazado_694948" data-name="Trazado 694948" d="M273.25,42.051l-5.073,2.061a.882.882,0,0,0-.469,1.129l.634,1.7a.825.825,0,0,0,1.077.5l5.074-2.061a.884.884,0,0,0,.468-1.13l-.634-1.7a.823.823,0,0,0-1.077-.5" transform="translate(10.532 1.652)" fill="#663643"/>
                  <path id="Trazado_694949" data-name="Trazado 694949" d="M286.5,49.546c-.265-1.464-1.156-2.568-1.989-2.464s-1.3,1.374-1.03,2.84,1.156,2.569,1.989,2.465,1.3-1.375,1.03-2.841" transform="translate(11.152 1.852)" fill="#5a4949"/>
                  <path id="Trazado_694950" data-name="Trazado 694950" d="M288.285,42.275l-4.535-.864a.693.693,0,0,0-.792.637l-.211,1.6a.8.8,0,0,0,.59.9l4.535.865a.693.693,0,0,0,.791-.637l.211-1.6a.8.8,0,0,0-.589-.9" transform="translate(11.126 1.629)" fill="#663643"/>
                  <path id="Trazado_694951" data-name="Trazado 694951" d="M280.421,47.783c1.473,3.456,1.964,5.629.667,6.337a4,4,0,0,1-2.918-.07l-.022.063s2.874,1.441,4.288.8.319-3.11-2.015-7.128" transform="translate(10.945 1.88)" fill="#d27558"/>
                  <path id="Trazado_694952" data-name="Trazado 694952" d="M279.582,46.154c1.414,4.041-.742,3.294-2.056,4.151-.821.536.611,3.606-.318,3.274l-.023.076s2.855,1.64,4.285.855.378-3.669-1.889-8.356" transform="translate(10.907 1.816)" fill="#edb984"/>
                  <path id="Trazado_694953" data-name="Trazado 694953" d="M276.757,55.977l-.4,1.344a10.355,10.355,0,0,0,8.094,1.032l-.221-.624a8.453,8.453,0,0,1-7.471-1.752" transform="translate(10.875 2.203)" fill="#493b3f"/>
                  <path id="Trazado_694954" data-name="Trazado 694954" d="M282.148,61.172c-.085.4-.921.552-1.867.335s-1.641-.719-1.556-1.12.921-.552,1.867-.335,1.641.718,1.556,1.12" transform="translate(10.968 2.359)" fill="#493b3f"/>
                  <path id="Trazado_694955" data-name="Trazado 694955" d="M214.167,78.535c-2.113.8-9.077,8.046-12.558,12.451l8.822,10.14c8.734-4.066,13.02-13.974,11.7-15.539s-5.854-7.849-7.968-7.052" transform="translate(7.933 3.088)" fill="#edb984"/>
                  <path id="Trazado_694956" data-name="Trazado 694956" d="M202.68,76.675c-.423.762,1.142,6.893-1.831,15.017L208.4,88.7c.808-2.225-.6-11.611-1.723-12.736-1.248-1.254-3.378-.4-4,.713" transform="translate(7.904 2.965)" fill="#edb984"/>
                  <path id="Trazado_694957" data-name="Trazado 694957" d="M214.93,71.466A90.955,90.955,0,0,0,208.8,84.277l5.551-.556s4.265-10.069,3.827-11.474a2.038,2.038,0,0,0-3.247-.781" transform="translate(8.216 2.792)" fill="#edb984"/>
                  <path id="Trazado_694958" data-name="Trazado 694958" d="M222.283,73c-.848.24-4.883,6.6-8.529,12.577l5.646.069s6.045-9.419,5.855-10.846-2.123-2.04-2.971-1.8" transform="translate(8.411 2.87)" fill="#edb984"/>
                  <path id="Trazado_694959" data-name="Trazado 694959" d="M216.336,96.785c7.988-4.958,12.909-16.461,12.616-17.423s-1.795-3.092-2.732-1.961-4.354,7.487-5.829,8.364-10.994,5.223-10.964,5.478,6.91,5.542,6.91,5.542" transform="translate(8.241 3.033)" fill="#edb984"/>
                  <path id="Trazado_694960" data-name="Trazado 694960" d="M331.322,122.46c1.664-1.422,11.162-3.825,16.589-4.641l4.768,12.58c-7.544,5.494-18.125,4.285-18.882,2.383s-4.139-8.9-2.475-10.323" transform="translate(13.02 4.636)" fill="#e79b69"/>
                  <path id="Trazado_694961" data-name="Trazado 694961" d="M334.829,111.828c.857.012,5.468,4.382,13.9,5.838l-6.069,5.008c-2.305-.405-9.818-6.246-10.282-7.765-.517-1.691,1.2-3.1,2.455-3.081" transform="translate(13.075 4.4)" fill="#e79b69"/>
                  <path id="Trazado_694962" data-name="Trazado 694962" d="M324.732,119.653a89.236,89.236,0,0,1,13.952,1.057l-3.032,4.493s-10.713-1.306-11.731-2.377a1.983,1.983,0,0,1,.811-3.173" transform="translate(12.727 4.707)" fill="#e79b69"/>
                  <path id="Trazado_694963" data-name="Trazado 694963" d="M322.717,126.694c.6-.61,7.977-.937,14.849-1.118l-2.532,4.883s-10.963.543-12.117-.325-.8-2.829-.2-3.439" transform="translate(12.677 4.941)" fill="#e79b69"/>
                  <path id="Trazado_694964" data-name="Trazado 694964" d="M346.268,133.3c-7.977,4.414-20.236,2.962-20.938,2.237s-1.865-3.067-.451-3.316,8.508-.044,9.947-.877,9.587-6.864,9.8-6.712,1.646,8.668,1.646,8.668" transform="translate(12.758 4.904)" fill="#e79b69"/>
                  <path id="Trazado_694965" data-name="Trazado 694965" d="M375.438,136.09H185.221l14.415,98.565H358.3Z" transform="translate(7.289 5.355)" fill="#723b48"/>
                  <path id="Trazado_694966" data-name="Trazado 694966" d="M345.521,229.4s6.829-71.621,12.793-78.186,43.608-14.941,51.981-13.737,19.091,26.868,12.178,27.167S377.536,167,377.536,167Z" transform="translate(13.596 5.405)" fill="#3f3536"/>
                  <path id="Trazado_694967" data-name="Trazado 694967" d="M410.862,141.107c-.127-1.5-1.794-2.758-4.562-3.71-10.968.5-36.71,6.4-45.969,11.853,4.929,1.857,13.832,2.633,23.88,1.784,15.075-1.273,27.006-5.717,26.651-9.926" transform="translate(14.179 5.407)" fill="#514446"/>
                  <path id="Trazado_694968" data-name="Trazado 694968" d="M137.652,164.945l39.243,2.935s7.415,30.821,37.6,61.935c0,0-16.719-71.622-19.1-76.024s-48.152-19.226-48.152-19.226l-22.4,4.843s4.981,22.895,12.8,25.537" transform="translate(4.913 5.295)" fill="#60354f"/>
                  <path id="Trazado_694969" data-name="Trazado 694969" d="M153.53,136.854c-3.823,1.971-6.113,4.465-6.113,7.18,0,6.367,12.558,11.528,28.051,11.528a56.415,56.415,0,0,0,18.176-2.75c-4.986-3.836-28.161-11.931-40.114-15.958" transform="translate(5.801 5.385)" fill="#70405a"/>
                  <path id="Trazado_694970" data-name="Trazado 694970" d="M333.34,231.211H348.9s-.772-7.062-2.542-7.566-13.014,7.566-13.014,7.566" transform="translate(13.117 8.8)" fill="#efe8ce"/>
                  <path id="Trazado_694971" data-name="Trazado 694971" d="M224.01,231.211H207.775s-.17-7.062,1.606-7.566,14.629,7.566,14.629,7.566" transform="translate(8.176 8.8)" fill="#efe8ce"/>
                  <path id="Trazado_694972" data-name="Trazado 694972" d="M377.795,114.519c7.343-4.985,30.429-40.475,35.76-39.611,10.637,1.724,7.249,32.774-5.665,45.807s-19.1,17.529-21.742,15.045-12.106-18.693-8.352-21.241" transform="translate(14.832 2.947)" fill="#eab849"/>
                  <path id="Trazado_694973" data-name="Trazado 694973" d="M417.568,77.422c-.3-.161-2.212-1.148-2.541-1.226-11.1,0-9.8,36.89-29.245,48.993-.451.282-6.118-.163-6.735-1.031,2.25,4.985,5.605,10.225,7.016,11.551,2.642,2.485,8.829-2.012,21.743-15.045s19.272-38.174,9.763-43.242" transform="translate(14.916 2.998)" fill="#e5a638"/>
                  <path id="Trazado_694974" data-name="Trazado 694974" d="M395.679,116.052c-4.984-5.434-12.542-7.663-17.15-5.016-4.791,2.751-4.771,9.79.345,15.77,5.262,6.15,13.555,8.468,18.207,5.143,4.468-3.193,3.714-10.32-1.4-15.9" transform="translate(14.756 4.326)" fill="#ba4f85"/>
                  <path id="Trazado_694975" data-name="Trazado 694975" d="M346.245,117.627c16.757-.9,28.1-2.45,34.839-6.232,5.7-3.2,14.563,10.084,14.395,16.559s-6.588,7.775-13.641,8.839c-9.717,1.465-34.327.187-37.219-2.807-3.039-3.146,1.627-16.358,1.627-16.358" transform="translate(13.52 4.364)" fill="#e79b69"/>
                  <path id="Trazado_694976" data-name="Trazado 694976" d="M382.694,110.919c3.453,1.468,5.594,3.45,5.859,5.811.72,6.407-12.609,13.162-29.771,15.09a75.833,75.833,0,0,1-15.033.257,3.736,3.736,0,0,0,.864,1.908c2.893,2.994,27.5,4.273,37.219,2.807,7.053-1.063,13.474-2.362,13.641-8.839.153-5.889-7.167-17.4-12.779-17.035" transform="translate(13.527 4.364)" fill="#e79b69"/>
                  <path id="Trazado_694977" data-name="Trazado 694977" d="M163.624,69.558c8.16,15.662,11.961,29.973,22.1,31.1,6,.666,8.226,26.574-.619,27.3s-36.033-9.436-43.589-36.068c-4.759-16.778,15.63-34.76,22.1-22.335" transform="translate(5.541 2.575)" fill="#efd69e"/>
                  <path id="Trazado_694978" data-name="Trazado 694978" d="M161.053,66.556c-8.058-5.5-23.773,10.388-19.533,25.336,7.556,26.632,34.744,36.8,43.589,36.068,4.661-.384,6.245-7.757,5.826-14.745-26.3-9.36-18.521-36.163-29.882-46.659" transform="translate(5.541 2.575)" fill="#e2c281"/>
                  <path id="Trazado_694979" data-name="Trazado 694979" d="M181.607,101.075c13.862-5.514,21.34-12.654,24.489-13.858s11.633,6.392,9.811,10.356-19.434,24.677-25.8,28.047c-12.835,6.8-17.714-17.443-8.5-24.545" transform="translate(6.959 3.427)" fill="#edb984"/>
                  <path id="Trazado_694980" data-name="Trazado 694980" d="M189.792,106.365c-2.015-1.874-2.671-4.9-2.17-8.482a57.728,57.728,0,0,1-6.015,2.816c-9.211,7.1-4.333,31.34,8.5,24.545,6.364-3.369,23.975-24.082,25.8-28.047a2.693,2.693,0,0,0,.143-.521c-9.421,10.089-21.163,14.429-26.259,9.689" transform="translate(6.959 3.804)" fill="#e79b69"/>
                  <path id="Trazado_694981" data-name="Trazado 694981" d="M184.639,99.2l-4.434-1.49c-4.672,6.811-6.346,15.231-7.373,24a11.316,11.316,0,0,0,9.3.033,89.838,89.838,0,0,1,2.5-22.541" transform="translate(6.801 3.845)" fill="#70405a"/>
                  <path id="Trazado_694982" data-name="Trazado 694982" d="M189.474,28.221a.952.952,0,0,0-.353-.439c-3.856-3.138-9.372-3.036-14.285-2.329-5.563.8-11.173,2.237-15.649,5.5a70.563,70.563,0,0,1,.289,28.676l1.158,1.86c4.559-1.945,9.077-6.449,14.082-6.961a8.23,8.23,0,0,0,3.422-.815c1.51-.9,2.142-2.7,2.637-4.37,2.06-6.969,3.726-14.428,8.372-20.259a1.032,1.032,0,0,0,.328-.867" transform="translate(6.264 0.986)" fill="#5b474b"/>
                  <path id="Trazado_694983" data-name="Trazado 694983" d="M441.5,149.123h6.94L446.533,164.4h-6.94Z" transform="translate(17.298 5.868)" fill="#493235"/>
                  <path id="Trazado_694984" data-name="Trazado 694984" d="M426,145.394l7.987-59.129c.728-5.389,7.075-10.22,15.977-12.161,15.149-3.3,30.129,3.017,28.89,12.187l-7.987,59.129c-.728,5.389-7.075,10.22-15.977,12.161-15.149,3.3-30.129-3.017-28.89-12.187" transform="translate(16.76 2.881)" fill="#bd7b87"/>
                  <path id="Trazado_694985" data-name="Trazado 694985" d="M457.737,228.327a5.318,5.318,0,1,0-5.315,5.161,5.24,5.24,0,0,0,5.315-5.161" transform="translate(17.594 8.782)" fill="#493235"/>
                  <path id="Trazado_694986" data-name="Trazado 694986" d="M425.105,228.327a5.318,5.318,0,1,0-5.315,5.161,5.24,5.24,0,0,0,5.315-5.161" transform="translate(16.31 8.782)" fill="#493235"/>
                  <path id="Trazado_694987" data-name="Trazado 694987" d="M393.934,228.327a5.318,5.318,0,1,0-5.315,5.161,5.24,5.24,0,0,0,5.315-5.161" transform="translate(15.083 8.782)" fill="#493235"/>
                  <path id="Trazado_694988" data-name="Trazado 694988" d="M415.179,181.563h8.1l2.531-11.4H412.649Z" transform="translate(16.238 6.696)" fill="#493235"/>
                  <path id="Trazado_694989" data-name="Trazado 694989" d="M420.551,176.992h-2.959l-.925,29.681h4.809Z" transform="translate(16.396 6.965)" fill="#493235"/>
                  <path id="Trazado_694990" data-name="Trazado 694990" d="M425.015,203.841h-11.37l-3.554,12.72h18.478Z" transform="translate(16.137 8.021)" fill="#493235"/>
                  <path id="Trazado_694991" data-name="Trazado 694991" d="M420.819,212.769a11.809,11.809,0,0,0-1.272,0c-15.844,1.14-31.129,9.033-31.129,9.033h63.529s-15.285-7.893-31.129-9.033" transform="translate(15.284 8.372)" fill="#493235"/>
                  <path id="Trazado_694992" data-name="Trazado 694992" d="M443.017,170.176c0-3.207-10.369-5.806-23.16-5.806s-23.159,2.6-23.159,5.806,10.369,5.808,23.159,5.808,23.16-2.6,23.16-5.808" transform="translate(15.61 6.468)" fill="#493235"/>
                  <path id="Trazado_694993" data-name="Trazado 694993" d="M454.6,166.559c0-3.267-6.428-5.915-34.676-5.915s-34.676,2.648-34.676,5.915,6.428,5.915,34.676,5.915,34.676-2.648,34.676-5.915" transform="translate(15.16 6.321)" fill="#bd7b87"/>
                  <path id="Trazado_694994" data-name="Trazado 694994" d="M448.86,76.233a30.316,30.316,0,0,0-5.51,1.749c9.119,7.793,17.489,27.15,20.865,50.59a144.068,144.068,0,0,1,1.453,17.213,8.985,8.985,0,0,0,2.228-4.6l7.274-53.85c1.128-8.353-12.515-14.107-26.311-11.1" transform="translate(17.446 2.968)" fill="#ed9aa9"/>
                  <path id="Trazado_694995" data-name="Trazado 694995" d="M112.107,146.948h-6.94l1.908,15.274h6.94Z" transform="translate(4.138 5.782)" fill="#493235"/>
                  <path id="Trazado_694996" data-name="Trazado 694996" d="M129.281,143.219,121.293,84.09c-.728-5.389-7.075-10.22-15.977-12.161-15.149-3.3-30.129,3.017-28.89,12.187l7.987,59.129c.728,5.389,7.075,10.22,15.977,12.161,15.149,3.3,30.129-3.017,28.89-12.187" transform="translate(3.005 2.795)" fill="#bd7b87"/>
                  <path id="Trazado_694997" data-name="Trazado 694997" d="M95.938,226.152a5.318,5.318,0,1,1,5.315,5.161,5.24,5.24,0,0,1-5.315-5.161" transform="translate(3.775 8.696)" fill="#493235"/>
                  <path id="Trazado_694998" data-name="Trazado 694998" d="M128.571,226.152a5.318,5.318,0,1,1,5.315,5.161,5.24,5.24,0,0,1-5.315-5.161" transform="translate(5.059 8.696)" fill="#493235"/>
                  <path id="Trazado_694999" data-name="Trazado 694999" d="M159.742,226.152a5.318,5.318,0,1,1,5.315,5.161,5.24,5.24,0,0,1-5.315-5.161" transform="translate(6.286 8.696)" fill="#493235"/>
                  <path id="Trazado_695000" data-name="Trazado 695000" d="M138.592,179.387h-8.1l-2.531-11.4h13.161Z" transform="translate(5.035 6.61)" fill="#493235"/>
                  <path id="Trazado_695001" data-name="Trazado 695001" d="M132.9,174.817h2.959l.925,29.681H131.98Z" transform="translate(5.193 6.879)" fill="#493235"/>
                  <path id="Trazado_695002" data-name="Trazado 695002" d="M128.958,201.665h11.37l3.554,12.72H125.4Z" transform="translate(4.935 7.936)" fill="#493235"/>
                  <path id="Trazado_695003" data-name="Trazado 695003" d="M134.861,210.593a11.809,11.809,0,0,1,1.272,0c15.843,1.14,31.127,9.033,31.127,9.033H103.73s15.287-7.893,31.131-9.033" transform="translate(4.082 8.286)" fill="#493235"/>
                  <path id="Trazado_695004" data-name="Trazado 695004" d="M112.011,168c0-3.207,10.369-5.807,23.16-5.807s23.159,2.6,23.159,5.807-10.369,5.807-23.159,5.807-23.16-2.6-23.16-5.807" transform="translate(4.408 6.382)" fill="#493235"/>
                  <path id="Trazado_695005" data-name="Trazado 695005" d="M101.3,164.384c0-3.267,6.428-5.915,34.676-5.915s34.676,2.648,34.676,5.915-6.428,5.915-34.676,5.915-34.676-2.648-34.676-5.915" transform="translate(3.986 6.236)" fill="#bd7b87"/>
                  <path id="Trazado_695006" data-name="Trazado 695006" d="M87.3,134.942c0-31.5,10.918-57.236,24.674-58.971A28.3,28.3,0,0,0,105.39,73.7c-13.412-2.925-26.675,2.67-25.577,10.79l7.071,52.351a7.5,7.5,0,0,0,.475,1.773c-.033-1.216-.055-2.438-.055-3.672" transform="translate(3.138 2.869)" fill="#ed9aa9"/>
                  <path id="Trazado_695007" data-name="Trazado 695007" d="M117.156,164.322l39.2,2.882s6.916,30.261,36.6,60.81c0,0-15.562-70.321-17.869-74.644s-37.5-16.954-37.5-16.954l-31.67,4.273s3.458,21.039,11.24,23.633" transform="translate(4.168 5.368)" fill="#60354f"/>
                  <path id="Trazado_695008" data-name="Trazado 695008" d="M173.138,156.7a16.414,16.414,0,0,0-.672-2.4c-1.322-2.877-16.414-9.478-26.779-13.728-3.611,4.206-9.645,8.95-9.639,11.315.009,4.227,8.479,5.924,22.175,6.095a71.75,71.75,0,0,0,14.916-1.283" transform="translate(5.354 5.532)" fill="#70405a"/>
                  <path id="Trazado_695009" data-name="Trazado 695009" d="M150.168,138.062c-16.244,12.715-35.906,31.025-40.837,21.361-7.109-13.929-6.244-46.592,2.69-64.173s25.649-30.933,40.06-32.087,20.3,19.921,12.393,30.262c-25.362,33.143-14.306,44.637-14.306,44.637" transform="translate(4.115 2.484)" fill="#efd69e"/>
                  <path id="Trazado_695010" data-name="Trazado 695010" d="M163.86,86.655c2.1-.783,2.574-5.121,1.567-10.977-1.955-7.206-7.262-13.141-15.089-12.514-.493.039-.989.1-1.487.164a64.7,64.7,0,0,0,1.977,6.243c3.966,10.639,9.8,18.287,13.032,17.083" transform="translate(5.857 2.484)" fill="#e2c281"/>
                  <path id="Trazado_695011" data-name="Trazado 695011" d="M129.7,112.159c2.624-28.114,18.278-45.7,33.414-44.356a12.854,12.854,0,0,0-11.031-4.638c-14.41,1.153-31.125,14.506-40.06,32.086s-9.8,50.243-2.69,64.174c3.406,6.674,13.84,0,25.321-8.952-3.4-9.371-6.157-25.433-4.955-38.314" transform="translate(4.115 2.484)" fill="#e2c281"/>
                  <path id="Trazado_695012" data-name="Trazado 695012" d="M156.754,69.461c8.136,15.976,12.237,35.178,19.535,39.054,5.4,2.87,3.154,24.7-5.664,25.084s-30.03-25.893-35.833-42.557,15.508-34.255,21.963-21.58" transform="translate(5.265 2.563)" fill="#efd69e"/>
                  <path id="Trazado_695013" data-name="Trazado 695013" d="M176.2,122.774c-8.783-.892-29.333-29.55-32.666-46.878a16.453,16.453,0,0,1,1-9.347c-8.271,3.782-16.521,14.914-12.892,25.333,5.8,16.664,30.283,42.048,39.1,41.66,4.3-.189,7.034-5.477,8.085-11.178a5.392,5.392,0,0,1-2.624.41" transform="translate(5.146 2.619)" fill="#e2c281"/>
                  <path id="Trazado_695014" data-name="Trazado 695014" d="M174.418,107.2c15.048,6.261,33.216,10.135,36.6,11.591s4.56,12.306.422,13.739-37.494,2.168-44.581-1.309,7.557-24.021,7.557-24.021" transform="translate(6.49 4.218)" fill="#edb984"/>
                  <path id="Trazado_695015" data-name="Trazado 695015" d="M198.946,130.729c-12.848-1.369-22.892-7.744-22.432-14.237.19-2.687,2.166-4.962,5.3-6.623-2.5-.783-4.994-1.664-7.4-2.665,0,0-14.644,20.547-7.557,24.021s40.442,2.741,44.581,1.308c1.018-.352-7.016-1.22-12.5-1.8" transform="translate(6.49 4.219)" fill="#e79b69"/>
                  <path id="Trazado_695016" data-name="Trazado 695016" d="M356.487,136.09H202.69L213,234.655H344.231Z" transform="translate(7.976 5.355)" fill="#8e545a"/>
                  <path id="Trazado_695017" data-name="Trazado 695017" d="M204.227,150.789H354.66l1.827-14.7H202.69Z" transform="translate(7.976 5.355)" fill="#7c454d"/>
                  <path id="Trazado_695018" data-name="Trazado 695018" d="M378.608,131.592H180.62a1.777,1.777,0,0,0-1.777,1.777v4.195a1.778,1.778,0,0,0,1.777,1.777H378.608a1.778,1.778,0,0,0,1.777-1.777v-4.195a1.777,1.777,0,0,0-1.777-1.777" transform="translate(7.038 5.178)" fill="#8e545a"/>
                  <path id="Trazado_695019" data-name="Trazado 695019" d="M154.448,63.986c4.227-3.362,9.888-12.654,9.888-12.654L175,59.978,163.567,78.519Z" transform="translate(6.078 2.02)" fill="#d27558"/>
                  <path id="Trazado_695020" data-name="Trazado 695020" d="M166.613,31.141c-1.585,8.79-3.864,33.794-2.423,35.379s17.436,4.755,18.156,3.459,5.017-33.219,2.279-36.533-18.013-2.305-18.013-2.305" transform="translate(6.443 1.22)" fill="#edb984"/>
                  <path id="Trazado_695021" data-name="Trazado 695021" d="M173.533,29.088a1.518,1.518,0,0,0-1.091-1.112,4.3,4.3,0,0,0-1.628-.084c-2.292.179-4.8.555-6.322,2.273a8.165,8.165,0,0,0-1.661,4.364,38.415,38.415,0,0,0-.334,5.626q.031,4.158.06,8.316.016,2.1.031,4.193a.439.439,0,0,0,.059.266.444.444,0,0,0,.283.135l5.177,1.05.021,0a1.647,1.647,0,0,0,1.983-1.526,61.2,61.2,0,0,1,.993-9.079c.9-4.458,2.639-8.76,3-13.293Z" transform="translate(6.394 1.096)" fill="#5b474b"/>
                  <path id="Trazado_695022" data-name="Trazado 695022" d="M167.74,48.526c-.811-2.857-2.8-4.795-4.446-4.328s-2.322,3.162-1.51,6.019,2.8,4.795,4.446,4.328,2.321-3.162,1.51-6.019" transform="translate(6.353 1.737)" fill="#edb984"/>
                  <path id="Trazado_695023" data-name="Trazado 695023" d="M166.622,49.206c-.516-1.813-1.776-3.04-2.818-2.743s-1.467,2.008-.952,3.821,1.777,3.04,2.818,2.743,1.468-2.008.952-3.821" transform="translate(6.4 1.827)" fill="#d27558"/>
                  <path id="Trazado_695024" data-name="Trazado 695024" d="M166.574,51.088c-.324-1.137-1.114-1.906-1.764-1.718s-.915,1.264-.59,2.4,1.114,1.906,1.764,1.717.915-1.263.59-2.4" transform="translate(6.457 1.942)" fill="#edb984"/>
                  <path id="Trazado_695025" data-name="Trazado 695025" d="M364.377,229.4s6.829-71.621,12.793-78.186,43.608-14.941,51.981-13.737,19.091,26.868,12.178,27.167S396.392,167,396.392,167Z" transform="translate(14.338 5.405)" fill="#3f3536"/>
                  <path id="Trazado_695026" data-name="Trazado 695026" d="M376.143,151.938a86.1,86.1,0,0,0,20.293,1.209c15.582-.7,28.074-4.4,27.9-8.274-.115-2.567-5.78-4.561-14.128-5.408-13.612,2.735-29.766,7.554-33.5,11.666a4.625,4.625,0,0,0-.564.808" transform="translate(14.801 5.488)" fill="#514446"/>
                  <path id="Trazado_695027" data-name="Trazado 695027" d="M431.351,72.5c-8.936-6.148-20.692-.68-26.264,10.08s8.4,50.827-1.417,57.516c17.055,1.43,29.5,10.469,37.4,25.388,19.789-27.668-.784-86.835-9.72-92.983" transform="translate(15.885 2.752)" fill="#eab849"/>
                  <path id="Trazado_695028" data-name="Trazado 695028" d="M430.59,72.492a12.605,12.605,0,0,0-7.353-2.27c5.193,8.985,8.506,22.63,8.506,37.911,0,15.5-3.411,29.307-8.732,38.284,7.163,4.362,12.931,10.805,17.3,19.058,19.789-27.668-.784-86.835-9.72-92.983" transform="translate(16.646 2.763)" fill="#e5a638"/>
                  <path id="Trazado_695029" data-name="Trazado 695029" d="M414.565,123.929c2.865-11.558,2.312-41.42,13.094-41.727s16.763,21.915,11.324,37.7-10.706,20.515-14.2,19.768-11.2-11.765-10.218-15.741" transform="translate(16.31 3.235)" fill="#e5a638"/>
                  <path id="Trazado_695030" data-name="Trazado 695030" d="M417.18,121.505c2.325-12.986.375-46.537,11.144-46.881s17.786,24.621,13.085,42.356-9.748,23.05-13.276,22.212-11.753-13.221-10.954-17.687" transform="translate(16.414 2.936)" fill="#eab849"/>
                  <path id="Trazado_695031" data-name="Trazado 695031" d="M435.586,122.555c-3.37-7.386-13.618-11.672-19.024-9.206s-3.923,10.752-.553,18.138,10.483,11.373,15.888,8.906,7.058-10.453,3.689-17.838" transform="translate(16.251 4.433)" fill="#ba4f85"/>
                  <path id="Trazado_695032" data-name="Trazado 695032" d="M389.8,110.487c16.245,4.208,30.516,1.6,36.415,4.408s10.452,12.4,8.336,18.524-6.4,5.252-15.154,4.72-28.748-8.022-33.054-12.281c-3.111-3.076,3.458-15.371,3.458-15.371" transform="translate(15.17 4.348)" fill="#edb984"/>
                  <path id="Trazado_695033" data-name="Trazado 695033" d="M429.345,116.872a5.683,5.683,0,0,1,.909,3.767c-.908,6.383-14.668,9.7-30.734,7.416a67.049,67.049,0,0,1-13.776-3.41,2.532,2.532,0,0,0,.583.961c4.306,4.26,24.295,11.75,33.054,12.282s13.037,1.4,15.154-4.72c1.72-4.974-.964-12.24-5.192-16.3" transform="translate(15.179 4.599)" fill="#e79b69"/>
                  <path id="Trazado_695034" data-name="Trazado 695034" d="M204.23,231.211H188s-.17-7.062,1.606-7.566,14.629,7.566,14.629,7.566" transform="translate(7.398 8.8)" fill="#efe8ce"/>
                  <path id="Trazado_695035" data-name="Trazado 695035" d="M352.849,231.211H368.4s-.771-7.062-2.541-7.566-13.014,7.566-13.014,7.566" transform="translate(13.885 8.8)" fill="#efe8ce"/>
                  <path id="Trazado_695036" data-name="Trazado 695036" d="M153.24,63.062l2.4-2.21a49.734,49.734,0,0,1,9.319,16.524L163.9,81.507c-3.873-7.253-7.544-13.8-10.664-18.445" transform="translate(6.03 2.395)" fill="#70405a"/>
                  <path id="Trazado_695037" data-name="Trazado 695037" d="M177.37,107.858,172.9,105c-7.017,6.214-11.174,15.022-14.715,24.39a12.838,12.838,0,0,0,10.231,2.593,101.9,101.9,0,0,1,8.954-24.123" transform="translate(6.225 4.132)" fill="#8c5676"/>
                  <rect id="Rectángulo_344244" data-name="Rectángulo 344244" width="1.698" height="37.898" transform="translate(233.413 98.985)" fill="#7a696d"/>
                  <path id="Trazado_695038" data-name="Trazado 695038" d="M223.487,94.451h3.964V98.73A1.27,1.27,0,0,1,226.182,100h-1.426a1.27,1.27,0,0,1-1.269-1.269Z" transform="translate(8.794 3.717)" fill="#4f4347"/>
                  <rect id="Rectángulo_344245" data-name="Rectángulo 344245" width="1.698" height="6.772" transform="translate(233.413 100.616)" fill="#4f4347"/>
                  <path id="Trazado_695039" data-name="Trazado 695039" d="M218.871,83.22H217.16l3.195,13.3h4.433V94.22h-3.275Z" transform="translate(8.545 3.275)" fill="#635257"/>
                  <rect id="Rectángulo_344246" data-name="Rectángulo 344246" width="4.908" height="4.995" transform="translate(231.851 130.158)" fill="#937f85"/>
                  <path id="Trazado_695040" data-name="Trazado 695040" d="M214.731,69.174l8.415-2.381a4.625,4.625,0,0,1,5.549,3.6l4.047,15.5a4.82,4.82,0,0,1-3.016,5.986l-6.507,1.841a4.539,4.539,0,0,1-5.338-2.952L211.926,75.8c-1.1-2.776.216-5.9,2.805-6.629" transform="translate(8.324 2.622)" fill="#7a696d"/>
                  <path id="Trazado_695041" data-name="Trazado 695041" d="M222.987,127.979c4.913-.723,9.124.482,18.483,5.123l-26.515-.121s3.119-4.279,8.032-5" transform="translate(8.459 5.028)" fill="#7a696d"/>
                  <path id="Trazado_695042" data-name="Trazado 695042" d="M230.4,84.627a2.843,2.843,0,1,0-2.81,3.278,3.071,3.071,0,0,0,2.81-3.278" transform="translate(8.845 3.201)" fill="#635257"/>
                  <path id="Trazado_695043" data-name="Trazado 695043" d="M222.98,67.487l-7.629,2.159c-.034.01-.063.03-.1.041l3.649,9.169a4.116,4.116,0,0,0,4.84,2.676l5.9-1.669a3.679,3.679,0,0,0,.677-.275l-2.307-8.839a4.2,4.2,0,0,0-5.031-3.261" transform="translate(8.47 2.65)" fill="#9e8b91"/>
                  <path id="Trazado_695044" data-name="Trazado 695044" d="M230.03,91.364l-6.083,1.78a4.221,4.221,0,0,1-4.99-2.855l-5.566-14.466c-1.032-2.685.2-5.7,2.622-6.41l7.866-2.3a3.7,3.7,0,0,1,2.774.316,4.148,4.148,0,0,0-3.508-.635l-8.415,2.382c-2.589.732-3.91,3.853-2.805,6.629l5.954,14.96a4.541,4.541,0,0,0,5.338,2.953l6.507-1.842a4.452,4.452,0,0,0,3.034-3.352,4.181,4.181,0,0,1-2.729,2.842" transform="translate(8.324 2.622)" fill="#635257"/>
                  <path id="Trazado_695045" data-name="Trazado 695045" d="M231.728,96.526l-2.25-12.362a1.149,1.149,0,0,0-2.261.412l1.755,9.645H224.5v2.305Z" transform="translate(8.834 3.275)" fill="#8e787e"/>
                  <path id="Trazado_695046" data-name="Trazado 695046" d="M229.138,84.545c0-.447-.257-.81-.574-.81s-.574.363-.574.81.257.81.574.81.574-.363.574-.81" transform="translate(8.972 3.295)" fill="#635257"/>
                  <path id="Trazado_695047" data-name="Trazado 695047" d="M221.069,88.438l-4.885-12.273a4.017,4.017,0,0,1,2.3-5.439l6.9-1.954a3.266,3.266,0,0,1,.912-.109,3.352,3.352,0,0,0-2.513-.309l-6.9,1.954a4.017,4.017,0,0,0-2.3,5.439l4.885,12.273a3.846,3.846,0,0,0,3.431,2.53,4.121,4.121,0,0,1-1.829-2.112" transform="translate(8.431 2.685)" fill="#635257"/>
                  <path id="Trazado_695048" data-name="Trazado 695048" d="M229.143,78.535l-1.515-5.8a.8.8,0,0,0-.165,0c-1.2.181-1.787,2.952-1.3,6.19.025.168.054.334.084.5l2.361-.668a2.847,2.847,0,0,0,.535-.218" transform="translate(8.893 2.862)" fill="#7a696d"/>
                  <path id="Trazado_695049" data-name="Trazado 695049" d="M221.672,117.193c-2.092-.815-11.892-.062-17.283.894l.263,13.422c9.131,2.8,15.486-.444,16.879-1.864,1.268-1.3,2.235-11.637.141-12.452" transform="translate(8.043 4.598)" fill="#edb984"/>
                  <path id="Trazado_695050" data-name="Trazado 695050" d="M214.287,108.382c-.8.285-3.475,5.889-10.823,9.951l7.567,2.805c2.008-1.117,6.848-9.038,6.713-10.623a2.746,2.746,0,0,0-3.458-2.133" transform="translate(8.006 4.261)" fill="#edb984"/>
                  <path id="Trazado_695051" data-name="Trazado 695051" d="M228.328,112.742a85.145,85.145,0,0,0-12.672,5.444l4.528,3.286s9.543-4.649,10.1-5.987a2.1,2.1,0,0,0-1.953-2.744" transform="translate(8.486 4.436)" fill="#edb984"/>
                  <path id="Trazado_695052" data-name="Trazado 695052" d="M230.882,119.623c-.789-.387-7.825,1.654-14.33,3.672l4.207,3.813s10.472-2.978,11.227-4.167-.316-2.932-1.1-3.319" transform="translate(8.521 4.705)" fill="#edb984"/>
                  <path id="Trazado_695053" data-name="Trazado 695053" d="M209,131.989c8.925,2.673,20.424-1.287,20.909-2.143s.981-3.391-.456-3.342-8.263,1.718-9.883,1.2-11.147-4.74-11.308-4.549.739,8.834.739,8.834" transform="translate(8.195 4.846)" fill="#edb984"/>
                  <path id="Trazado_695054" data-name="Trazado 695054" d="M180.619,131.592a1.579,1.579,0,1,0,0,3.138H378.607a1.579,1.579,0,1,0,0-3.138Z" transform="translate(7.038 5.178)" fill="#aa656f"/>
                  <path id="Trazado_695055" data-name="Trazado 695055" d="M437.52,80.891a20.531,20.531,0,0,0-1.463-2.09c-1.737-3.147-3.387-5.353-4.762-6.3-7.244-4.984-16.342-2.332-22.5,4.582a45.013,45.013,0,0,0-3.274,3.274c-1.341,2.3.9,6.241,2.714,6.65,11.912,2.69,17-7.589,29.221-6.086.023,0,.038-.021.06-.031" transform="translate(15.942 2.752)" fill="#e5a638"/>
                  <path id="Trazado_695056" data-name="Trazado 695056" d="M446.28,41.7a11.5,11.5,0,0,0-.929-5.48,5.125,5.125,0,0,0-1.759-2.84c-.315-.2-.717-.387-.771-.756a1.063,1.063,0,0,1,.125-.555c1.367-3.238,2.2-6.918,1.1-10.255a14.509,14.509,0,0,0-3.172-5.034c-2.288-2.542-5.71-4.835-8.925-3.668-.441.16-.944.379-1.351.147a1.355,1.355,0,0,1-.509-.728c-.7-1.775-1.037-3.681-1.846-5.408-1.9-4.062-6.289-6.619-10.752-7.061-2.36-.234-4.948.138-6.655,1.786a7.948,7.948,0,0,0-6.9.179,19.512,19.512,0,0,0-5.59,4.389c-2.1,2.178-4.216,5.112-3.243,7.978a1.853,1.853,0,0,1,.173.842c-.073.5-.583.778-1.009,1.042a10.294,10.294,0,0,0-3.57,4.561,17.441,17.441,0,0,0-1.9,9.544,9.514,9.514,0,0,0,5.443,7.678,9.447,9.447,0,0,0,5.289,10.751l14.5,10.759a5.686,5.686,0,0,0,3.321,4.05,11.2,11.2,0,0,0,3.217.651l2.219.226c2.408.244,5.3.285,6.7-1.692.429.952,1.732,1.051,2.769.923a19.8,19.8,0,0,0,6.889-2.181,4.749,4.749,0,0,0,2.5-2.461,14.528,14.528,0,0,0,.28-1.717c.3-1.534,1.41-2.755,2.343-4.01a8.679,8.679,0,0,0,1.951-4.548c.1-1.685-.59-3.358-.382-5.033.086-.7.329-1.38.443-2.08" transform="translate(15.295 0)" fill="#773c48"/>
                  <path id="Trazado_695057" data-name="Trazado 695057" d="M446.053,41.542a11.5,11.5,0,0,0-.929-5.48,5.125,5.125,0,0,0-1.759-2.84c-.315-.2-.717-.387-.771-.756a1.063,1.063,0,0,1,.125-.555c1.367-3.238,2.2-6.918,1.1-10.255a14.509,14.509,0,0,0-3.172-5.034c-2.288-2.542-5.71-4.835-8.925-3.668-.441.16-.944.379-1.351.147a1.355,1.355,0,0,1-.509-.728c-.7-1.775-1.037-3.681-1.846-5.408a11.032,11.032,0,0,0-2.051-2.94,28.774,28.774,0,0,1,3.442,13.718c0,15.228-11.613,27.571-25.938,27.571a24.511,24.511,0,0,1-9.011-1.712,9.236,9.236,0,0,0,4.841,5.051l14.5,10.759a5.686,5.686,0,0,0,3.321,4.05,11.2,11.2,0,0,0,3.217.651l2.219.226c2.408.244,5.3.285,6.7-1.692.429.952,1.732,1.051,2.769.923a19.8,19.8,0,0,0,6.889-2.181,4.749,4.749,0,0,0,2.5-2.461,14.528,14.528,0,0,0,.28-1.717c.3-1.534,1.41-2.755,2.343-4.01a8.679,8.679,0,0,0,1.951-4.548c.1-1.685-.59-3.358-.382-5.033.086-.7.329-1.38.443-2.08" transform="translate(15.522 0.158)" fill="#662f3c"/>
                  <path id="Trazado_695058" data-name="Trazado 695058" d="M412.524,82.093c-1.819-8.447-6.484-20.318-6.484-20.318l9.222-10.952,10.625,20.294Z" transform="translate(15.978 2)" fill="#d27558"/>
                  <path id="Trazado_695059" data-name="Trazado 695059" d="M398.028,71.416c2.036,2.742,16.138,1.729,17.147-.144s7.349-27.668,4.9-31.413-16.138-8.358-19.6-6.629-3.842,35.5-2.449,38.187" transform="translate(15.633 1.293)" fill="#edb984"/>
                  <path id="Trazado_695060" data-name="Trazado 695060" d="M423.085,41.686l.523-7.53c-6.628-1.536-10,1.25-10.663,2.691-1.786,3.847-3.4,15.29-2.827,22.662a45,45,0,0,1,9.352-.056,75.6,75.6,0,0,1,2.576-11.735c.6-1.967,1.287-3.99,1.039-6.031" transform="translate(16.134 1.326)" fill="#662f3c"/>
                  <path id="Trazado_695061" data-name="Trazado 695061" d="M419.906,57.32c1.291-2.422,1.111-5.046-.4-5.863s-3.785.484-5.076,2.906-1.111,5.046.4,5.863,3.785-.484,5.076-2.906" transform="translate(16.274 2.015)" fill="#edb984"/>
                  <path id="Trazado_695062" data-name="Trazado 695062" d="M407.988,70.543q-.313-4.6-.628-9.192a2.512,2.512,0,0,0-.895-2.115,3.609,3.609,0,0,0-1.876-.377q-2.878-.05-5.755.057a2.662,2.662,0,0,0-1.2.235,1.819,1.819,0,0,0-.718,1.672c-.108,3.719-.852,6.5.591,10.01.531,1.292,5.484,1.846,8.273,1.534.724-.081,1.576-.078,1.979-.593a1.727,1.727,0,0,0,.229-1.231" transform="translate(15.607 2.315)" fill="#773c48"/>
                  <path id="Trazado_695063" data-name="Trazado 695063" d="M411.866,84.021l-.093-3.751,13.494-12.533,3.164,3.459Z" transform="translate(16.204 2.666)" fill="#604f52"/>
                  <path id="Trazado_695064" data-name="Trazado 695064" d="M418.977,57.084c.886-1.661.762-3.461-.275-4.02s-2.6.332-3.481,1.992-.762,3.461.275,4.02,2.6-.332,3.481-1.992" transform="translate(16.316 2.081)" fill="#d27558"/>
                  <path id="Trazado_695065" data-name="Trazado 695065" d="M417.38,58.5a1.655,1.655,0,0,0-.4-2.263,1.634,1.634,0,0,0-2.1.915,1.655,1.655,0,0,0,.4,2.263,1.634,1.634,0,0,0,2.1-.915" transform="translate(16.316 2.208)" fill="#edb984"/>
                  <path id="Trazado_695066" data-name="Trazado 695066" d="M405,69.154l-.312-6.059a1.733,1.733,0,0,0-.514-1.394,1.94,1.94,0,0,0-1.106-.249q-1.7-.033-3.4.038a1.429,1.429,0,0,0-.71.155,1.272,1.272,0,0,0-.436,1.1c-.087,2.452-.546,4.283.285,6.6.306.851,3.227,1.216,4.876,1.011.428-.054.931-.052,1.173-.392a1.254,1.254,0,0,0,.142-.811" transform="translate(15.674 2.418)" fill="#edb984"/>
                  <path id="Trazado_695067" data-name="Trazado 695067" d="M177.232,61.169c-.044-.789-.5-1.462-1.028-1.5s-.914.562-.871,1.35.5,1.462,1.028,1.5.915-.562.871-1.351" transform="translate(6.899 2.348)" fill="#5a4949"/>
                  <path id="Trazado_695068" data-name="Trazado 695068" d="M175.52,49.123c-.081-1.473-.791-2.7-1.586-2.744s-1.374,1.117-1.293,2.59.791,2.7,1.586,2.744,1.374-1.117,1.293-2.59" transform="translate(6.793 1.825)" fill="#5a4949"/>
                  <path id="Trazado_695069" data-name="Trazado 695069" d="M175.8,38.849l-4.718,2.023a.861.861,0,0,0-.4,1.116l.661,1.686a.8.8,0,0,0,1.036.5l4.718-2.023a.861.861,0,0,0,.4-1.117l-.661-1.685a.8.8,0,0,0-1.036-.5" transform="translate(6.714 1.526)" fill="#5b474b"/>
                  <path id="Trazado_695070" data-name="Trazado 695070" d="M183.572,49.249c-.124-1.473-.868-2.677-1.662-2.691s-1.336,1.171-1.212,2.645.868,2.677,1.662,2.691,1.337-1.171,1.212-2.645" transform="translate(7.11 1.832)" fill="#5a4949"/>
                  <path id="Trazado_695071" data-name="Trazado 695071" d="M186.454,42.426l-4.086-3.2a.7.7,0,0,0-1.05.236l-.889,1.506a.956.956,0,0,0,.2,1.211l4.087,3.2a.7.7,0,0,0,1.048-.236l.89-1.506a.956.956,0,0,0-.2-1.211" transform="translate(7.095 1.538)" fill="#5b474b"/>
                  <path id="Trazado_695072" data-name="Trazado 695072" d="M177.75,49.771c2.242,3.636,3.252,5.991,2.24,6.982a3.1,3.1,0,0,1-2.7.373l0,.074s3.012,1.166,4.148.23-.5-3.528-3.682-7.659" transform="translate(6.976 1.959)" fill="#d27558"/>
                  <path id="Trazado_695073" data-name="Trazado 695073" d="M405.534,43.595l3.785,2.388a.734.734,0,0,1,.211.989l-.763,1.3a.677.677,0,0,1-.943.262l-3.785-2.388a.733.733,0,0,1-.21-.989l.762-1.3a.677.677,0,0,1,.943-.263" transform="translate(15.887 1.712)" fill="#773c48"/>
                  <path id="Trazado_695074" data-name="Trazado 695074" d="M396.594,45.465l3.925-1.733a.654.654,0,0,1,.857.423l.542,1.431a.745.745,0,0,1-.338.951l-3.925,1.733a.653.653,0,0,1-.857-.423l-.542-1.431a.745.745,0,0,1,.338-.951" transform="translate(15.591 1.719)" fill="#773c48"/>
                  <path id="Trazado_695075" data-name="Trazado 695075" d="M404.575,51.732c.043-1.392.755-2.5,1.589-2.475s1.478,1.176,1.435,2.567-.754,2.5-1.589,2.475-1.478-1.176-1.435-2.567" transform="translate(15.92 1.938)" fill="#5a4949"/>
                  <path id="Trazado_695076" data-name="Trazado 695076" d="M398.007,51.68c.043-1.392.755-2.5,1.589-2.475s1.478,1.175,1.435,2.567-.755,2.5-1.589,2.475-1.478-1.176-1.435-2.567" transform="translate(15.662 1.936)" fill="#5a4949"/>
                  <path id="Trazado_695077" data-name="Trazado 695077" d="M407.921,53.081c-.117-1.5-1.117-2.65-2.233-2.563s-1.924,1.376-1.806,2.879,1.117,2.65,2.233,2.563,1.924-1.376,1.806-2.879" transform="translate(15.893 1.988)" fill="#edb984"/>
                  <path id="Trazado_695078" data-name="Trazado 695078" d="M401.249,52.825c-.117-1.5-1.117-2.65-2.233-2.563s-1.924,1.376-1.806,2.879,1.117,2.65,2.233,2.563,1.924-1.376,1.806-2.879" transform="translate(15.63 1.978)" fill="#edb984"/>
                  <path id="Trazado_695079" data-name="Trazado 695079" d="M402.877,51.8c-1.878,3-2.713,4.959-1.82,5.818A2.809,2.809,0,0,0,403.4,58l.005.063s-2.588.9-3.589.085.376-2.954,3.058-6.35" transform="translate(15.72 2.038)" fill="#d27558"/>
                  <path id="Trazado_695080" data-name="Trazado 695080" d="M396.808,121.443c-5.63,9.72-18.964,5.088-20.942,3.111s-1.293-11.345-.9-13.649,7.114,2.762,10.614-3.482c1.368-2.439,14.487,8.394,11.228,14.02" transform="translate(14.738 4.213)" fill="#edb984"/>
                  <path id="Trazado_695081" data-name="Trazado 695081" d="M377.753,117.67c-7.122-3.8-12.728-5.928-13.353-7.131s.257-3.282,1.134-3.565,13.135,3.891,13.135,3.891Z" transform="translate(14.331 4.209)" fill="#edb984"/>
                  <path id="Trazado_695082" data-name="Trazado 695082" d="M379.136,111.571c4.272-2.986-.887-9.6-.175-11.558.552-1.517,2.138-3.086,3.017-1.161,4.061,8.884,10.748,9.811,9.868,12-.8,1.98-7.8.881-12.71.718" transform="translate(14.91 3.855)" fill="#edb984"/>
                  <path id="Trazado_695083" data-name="Trazado 695083" d="M375.9,121.1c-2.778-.378-3.046-3.53-2.464-5.452s8.411,6.261,2.464,5.452" transform="translate(14.685 4.539)" fill="#edb984"/>
                  <path id="Trazado_695084" data-name="Trazado 695084" d="M379.347,125.288c-2.752,1.23-5.653-3.072-4.923-4.5s8.691,2.815,4.923,4.5" transform="translate(14.729 4.742)" fill="#edb984"/>
                  <path id="Trazado_695085" data-name="Trazado 695085" d="M398.224,60.79l7.119.1s.317,3.362-2.853,4.244-4.266-4.346-4.266-4.346" transform="translate(15.67 2.392)" fill="#3e2d34"/>
                  <path id="Trazado_695086" data-name="Trazado 695086" d="M399.649,63.181a8.067,8.067,0,0,1-.762-2.022l5.747.082a3.9,3.9,0,0,1-.378,1.887Z" transform="translate(15.696 2.407)" fill="#f9eddb"/>
                </g>
              </g>
            </g>
          </g>
        </g>
        <g id="Grupo_896063" data-name="Grupo 896063" transform="translate(72.099 478.777)">
          <circle id="Elipse_4792" data-name="Elipse 4792" cx="8.5" cy="8.5" r="8.5" transform="translate(441 6178)" fill="#4db1f0"/>
          <circle id="Elipse_4793" data-name="Elipse 4793" cx="3.5" cy="3.5" r="3.5" transform="translate(441 6168)" fill="#4db1f0"/>
        </g>
        <g id="Grupo_896064" data-name="Grupo 896064" transform="translate(384.099 369.777)">
          <circle id="Elipse_4792-2" data-name="Elipse 4792" cx="8.5" cy="8.5" r="8.5" transform="translate(441 6178)" fill="#ed9aa9"/>
          <circle id="Elipse_4793-2" data-name="Elipse 4793" cx="3.5" cy="3.5" r="3.5" transform="translate(441 6168)" fill="#ed9aa9"/>
        </g>
      </g>
    </g>
  </g>
</svg>
