<svg xmlns="http://www.w3.org/2000/svg" xmlns:xlink="http://www.w3.org/1999/xlink" width="169" height="169" viewBox="0 0 169 169">
  <defs>
    <filter id="Trazado_699427" x="0" y="0" width="169" height="169" filterUnits="userSpaceOnUse">
      <feOffset dy="3" input="SourceAlpha"/>
      <feGaussianBlur stdDeviation="3" result="blur"/>
      <feFlood flood-opacity="0.161"/>
      <feComposite operator="in" in2="blur"/>
      <feComposite in="SourceGraphic"/>
    </filter>
    <clipPath id="clip-path">
      <rect id="Rectángulo_344222" data-name="Rectángulo 344222" width="95" height="93" transform="translate(0.238 0.238)" fill="#fff"/>
    </clipPath>
  </defs>
  <g id="Grupo_896805" data-name="Grupo 896805" transform="translate(6571.727 9364.727)">
    <g transform="matrix(1, 0, 0, 1, -6571.73, -9364.73)" filter="url(#Trazado_699427)">
      <path id="Trazado_699427-2" data-name="Trazado 699427" d="M75.5,0A75.5,75.5,0,1,1,0,75.5,75.5,75.5,0,0,1,75.5,0Z" transform="translate(9 6)" fill="#0098e8"/>
    </g>
    <g id="Enmascarar_grupo_67" data-name="Enmascarar grupo 67" transform="translate(-6533.965 -9329.965)" clip-path="url(#clip-path)">
      <g id="traductor" transform="translate(0.378 -0.514)">
        <path id="Trazado_694797" data-name="Trazado 694797" d="M41.894,33.4a8.049,8.049,0,0,1-2.482-1.825,5.532,5.532,0,0,1-.476-.657H37.243l-4.065,5.836v8.014l4.858,1.842,1.647-.447c5.734-2.738,5.181-11.233,2.212-12.764Z" transform="translate(25.981 24.215)" fill="#636363"/>
        <path id="Trazado_694798" data-name="Trazado 694798" d="M24.517,31.918l-.294-1.734-6.457,3.668L15.879,37.4l1,5.324s1.395,1.907,2.749,3.785l9.219-3.659V36.474Z" transform="translate(12.435 23.637)" fill="#636363"/>
        <path id="Trazado_694799" data-name="Trazado 694799" d="M36.9,40.336a2.686,2.686,0,0,1,.956-2.064,12.48,12.48,0,0,0,3.61-5.013,11.029,11.029,0,0,1-1.429-4.551l-.678-.769H35.431l-.317,4.437L29.948,39v5.931L36.9,47.562Z" transform="translate(23.452 21.879)" fill="#12263f"/>
        <path id="Trazado_694800" data-name="Trazado 694800" d="M21.872,35.685a8.047,8.047,0,0,0,2.482-1.825,8.117,8.117,0,0,0,1.47-2.959l-.49-2.89h-4.29l-.7.642a10.043,10.043,0,0,1-1.905,5.207,8.044,8.044,0,0,1-2.482,1.825c-3,1.546-3.869,10.191,2,12.843l1.954.272,2.642-1.048c-4.39-3.259-3.435-10.648-.684-12.067Z" transform="translate(10.667 21.935)" fill="#12263f"/>
        <path id="Trazado_694801" data-name="Trazado 694801" d="M48.4,24.119l-1.256-1.747H41.754L37.887,18.4v-5.59L36.4,11.628A17.075,17.075,0,0,0,31.675,11a16.8,16.8,0,0,0-4.466.636l-1.618,2.88v4.817l-2.725,3.036H19.728v9.953s.287.948.58,1.842H48.251l.6-.426V28.054a17.121,17.121,0,0,0-.457-3.934Z" transform="translate(15.449 8.616)" fill="#636363"/>
        <g id="Grupo_896002" data-name="Grupo 896002" transform="translate(30.201 30.988)">
          <path id="Trazado_694802" data-name="Trazado 694802" d="M22.437,23.274a17.39,17.39,0,0,1,.5-4.148l1.588-1.747h-5.5l-1.588,1.747a17.39,17.39,0,0,0-.5,4.148v5.474l2.089.426h5.5l-2.089-.426Z" transform="translate(-16.937 -17.379)" fill="#12263f"/>
        </g>
        <path id="Trazado_694803" data-name="Trazado 694803" d="M15.88,26.5l2.394,1.854h4.991V24.174L22.45,23.5H19.7a4.413,4.413,0,0,0-3.824,2.208Z" transform="translate(12.435 18.403)" fill="#ffb1a0"/>
        <path id="Trazado_694804" data-name="Trazado 694804" d="M38.283,28.357,39.9,27.169l.429-1.46A4.413,4.413,0,0,0,36.5,23.5H33.759l-.736.9v3.957Z" transform="translate(25.86 18.403)" fill="#ffb1a0"/>
        <path id="Trazado_694805" data-name="Trazado 694805" d="M19.964,26.948a4.413,4.413,0,0,1-3.824-2.208,4.416,4.416,0,0,0,3.824,6.625H22.71l.815-.53V26.418l-.815.53Z" transform="translate(12.175 19.373)" fill="#ffa68e"/>
        <path id="Trazado_694806" data-name="Trazado 694806" d="M36.5,26.948H33.757l-.734-.538v4.416l.734.538H36.5a4.416,4.416,0,0,0,3.824-6.625A4.413,4.413,0,0,1,36.5,26.948Z" transform="translate(25.859 19.373)" fill="#ffa68e"/>
        <path id="Trazado_694807" data-name="Trazado 694807" d="M37.9,42.776l-2.851-.005-2.662,4.589-3.3,2.37-3.232-.982v11l.947,1.267H37.9l1.079-1.394V44.192Z" transform="translate(20.251 33.492)" fill="#fff"/>
        <path id="Trazado_694808" data-name="Trazado 694808" d="M31.737,49.035,26.67,47.5,22.614,42.77H21.028L19.564,43.9V59.236l1.463,1.774h10.71Z" transform="translate(15.32 33.492)" fill="#fff"/>
        <path id="Trazado_694809" data-name="Trazado 694809" d="M37.9,41.134l-3.143-1.217a1.258,1.258,0,0,1-.8-1.17l0-4.213-1.578-.9H25.86V57.663a11.249,11.249,0,0,0,11.381-6.478q.31-.65.66-1.256l1.079-1.983V42.573Z" transform="translate(20.251 26.34)" fill="#ffb1a0"/>
        <path id="Trazado_694810" data-name="Trazado 694810" d="M31.609,33.636H26l-1.162.923V38.74c0,.962-.858,1.194-1.224,1.336L20.9,41.13,19.728,42.81v5.752l1.171,1.36q.351.609.663,1.262a11.212,11.212,0,0,0,10.047,6.532Z" transform="translate(15.449 26.34)" fill="#ffa68e"/>
        <path id="Trazado_694811" data-name="Trazado 694811" d="M33.065,0H8.535c-.9.367-1.686.7-1.686.7L3.965,3.264l-.713,2.9V28.839L5.471,31.2l2.265,1.188,6.989,1.426,1.381.967a3.923,3.923,0,0,1,3.445-2.047H33.065a7.046,7.046,0,0,0,7.046-7.046V7.046A7.046,7.046,0,0,0,33.065,0Z" transform="translate(2.547 0)" fill="#60b9fe"/>
        <path id="Trazado_694812" data-name="Trazado 694812" d="M62.113,0H37.069l-2.8,1.077L32.365,4.5V27.635l1.909,2.916,3.22,2.184h9.567a3.916,3.916,0,0,1,2.088.6h5.464l2.062,1.74a3.923,3.923,0,0,1,3.59-2.344h1.848a7.046,7.046,0,0,0,7.046-7.046V7.046A7.046,7.046,0,0,0,62.113,0Z" transform="translate(25.344 0)" fill="#ed9aa9"/>
        <path id="Trazado_694813" data-name="Trazado 694813" d="M15.486,32.735H13.638a7.046,7.046,0,0,1-7.046-7.046V7.046A7.046,7.046,0,0,1,13.638,0H7.046A7.046,7.046,0,0,0,0,7.046V25.689a7.046,7.046,0,0,0,7.046,7.046H8.894a3.924,3.924,0,0,1,3.686,2.579l1.757,4.817a1.233,1.233,0,0,0,2.317,0l1.757-4.817a3.923,3.923,0,0,1,.38-.766A3.924,3.924,0,0,0,15.486,32.735Z" transform="translate(0 0)" fill="#005b8b"/>
        <g id="Grupo_896003" data-name="Grupo 896003" transform="translate(51.845 0)">
          <path id="Trazado_694814" data-name="Trazado 694814" d="M35.668,25.689V7.046A7.046,7.046,0,0,1,42.714,0H36.122a7.046,7.046,0,0,0-7.046,7.046V25.689a7.046,7.046,0,0,0,7.046,7.046h6.592A7.046,7.046,0,0,1,35.668,25.689Z" transform="translate(-29.076 0)" fill="#f5b3bf"/>
          <path id="Trazado_694815" data-name="Trazado 694815" d="M47.2,18.359H40.607a3.924,3.924,0,0,1,3.686,2.579l1.757,4.817a1.233,1.233,0,0,0,2.317,0l1.757-4.817a3.923,3.923,0,0,1,.38-.766A3.924,3.924,0,0,0,47.2,18.359Z" transform="translate(-20.046 14.376)" fill="#f5b3bf"/>
        </g>
        <path id="Trazado_694816" data-name="Trazado 694816" d="M23,10.619h3.438a1.426,1.426,0,0,0,0-2.852H18.24V4.419a1.426,1.426,0,1,0-2.852,0V7.767H7.193a1.426,1.426,0,1,0,0,2.852h3.438A17.4,17.4,0,0,0,14.7,18.267a18.7,18.7,0,0,1-7.548,3.2,1.426,1.426,0,0,0,.564,2.8,21.19,21.19,0,0,0,9.094-4.037,21.192,21.192,0,0,0,9.094,4.037,1.426,1.426,0,1,0,.564-2.8,18.7,18.7,0,0,1-7.548-3.2A17.4,17.4,0,0,0,23,10.619Zm-2.937,0a14.458,14.458,0,0,1-3.245,5.755,14.46,14.46,0,0,1-3.245-5.755Z" transform="translate(4.516 2.344)" fill="#0054a4"/>
        <path id="Trazado_694817" data-name="Trazado 694817" d="M53.059,22.36,46.068,3.914a1.426,1.426,0,0,0-2.667,0L36.41,22.36a1.426,1.426,0,1,0,2.667,1.011l1.383-3.649a1.418,1.418,0,0,0,.143.007h8.332c.025,0,.049,0,.074,0l1.382,3.646a1.426,1.426,0,0,0,2.667-1.011Zm-11.52-5.483,3.2-8.433,3.2,8.433Z" transform="translate(28.439 2.344)" fill="#fff"/>
        <path id="Trazado_694818" data-name="Trazado 694818" d="M38.412,26.042c-.387,0-.417-.01-2.565-.192A7.178,7.178,0,0,1,29.6,20.418a.208.208,0,0,0-.4,0,7.2,7.2,0,0,1-6.017,5.414l-.389.74V37.727l2.361,5.8,3.042,2,3.846,1.334a12.371,12.371,0,0,0,9.725-12.051V26.042Z" transform="translate(17.85 15.863)" fill="#ffcebe"/>
        <path id="Trazado_694819" data-name="Trazado 694819" d="M25.712,32.478V23.384c-.1.012-.2.022-.3.03.174-.013-2.2.18-2.619.18H19.564v8.885a12.2,12.2,0,0,0,12.493,12.19,11.933,11.933,0,0,0,3-.373A12.114,12.114,0,0,1,25.712,32.478Z" transform="translate(15.32 18.311)" fill="#ffb1a0"/>
        <path id="Trazado_694820" data-name="Trazado 694820" d="M16.022,42.217,14.4,43.608l-2.865,5.087v14.5l1.353,1.679H27.314V37.839L16.022,42.217Z" transform="translate(9.034 29.631)" fill="#005b8b"/>
        <path id="Trazado_694821" data-name="Trazado 694821" d="M14.765,61.23V49.37a11.818,11.818,0,0,1,4.615-9.286l-4.1,1.589a11.609,11.609,0,0,0-6.8,10.549V60.85a2.264,2.264,0,0,0,2.264,2.264h5.029A2.261,2.261,0,0,1,14.765,61.23Z" transform="translate(6.64 31.389)" fill="#253b46"/>
        <path id="Trazado_694822" data-name="Trazado 694822" d="M47.043,43.43l-14.43-5.588V64.87H51.58a2.264,2.264,0,0,0,2.264-2.264V53.979a11.609,11.609,0,0,0-6.8-10.549Z" transform="translate(25.539 29.633)" fill="#005b8b"/>
        <g id="Grupo_896004" data-name="Grupo 896004" transform="translate(24.184 80.851)">
          <path id="Trazado_694823" data-name="Trazado 694823" d="M16.415,59V46.77a1.426,1.426,0,1,0-2.852,0V59Z" transform="translate(-13.563 -45.344)" fill="#12263f"/>
          <path id="Trazado_694824" data-name="Trazado 694824" d="M40.69,59V46.77a1.426,1.426,0,1,0-2.852,0V59Z" transform="translate(5.446 -45.344)" fill="#12263f"/>
        </g>
      </g>
    </g>
  </g>
</svg>
