<svg xmlns="http://www.w3.org/2000/svg" xmlns:xlink="http://www.w3.org/1999/xlink" width="169" height="169" viewBox="0 0 169 169">
  <defs>
    <filter id="Trazado_699424" x="0" y="0" width="169" height="169" filterUnits="userSpaceOnUse">
      <feOffset dy="3" input="SourceAlpha"/>
      <feGaussianBlur stdDeviation="3" result="blur"/>
      <feFlood flood-opacity="0.161"/>
      <feComposite operator="in" in2="blur"/>
      <feComposite in="SourceGraphic"/>
    </filter>
    <clipPath id="clip-path">
      <rect id="Rectángulo_344223" data-name="Rectángulo 344223" width="95.777" height="94.482" fill="#fff"/>
    </clipPath>
  </defs>
  <g id="Grupo_896806" data-name="Grupo 896806" transform="translate(6224 9365)">
    <g transform="matrix(1, 0, 0, 1, -6224, -9365)" filter="url(#Trazado_699424)">
      <path id="Trazado_699424-2" data-name="Trazado 699424" d="M75.5,0A75.5,75.5,0,1,1,0,75.5,75.5,75.5,0,0,1,75.5,0Z" transform="translate(9 6)" fill="#f5b3bf"/>
    </g>
    <g id="Enmascarar_grupo_68" data-name="Enmascarar grupo 68" transform="translate(-6186.467 -9330.741)" clip-path="url(#clip-path)">
      <g id="coche-de-policia" transform="translate(0.513 3.689)">
        <path id="Trazado_694825" data-name="Trazado 694825" d="M15.025,31.451H5.713a4.87,4.87,0,0,1,0-9.739h4.442a4.869,4.869,0,0,1,4.869,4.869Z" transform="translate(0.644 12.516)" fill="#bfe5f9"/>
        <path id="Trazado_694826" data-name="Trazado 694826" d="M45.114,31.451h9.312a4.869,4.869,0,0,0,0-9.739H49.983a4.869,4.869,0,0,0-4.869,4.869Z" transform="translate(34.437 12.516)" fill="#bfe5f9"/>
        <path id="Trazado_694827" data-name="Trazado 694827" d="M16.622,8H54.816v8.447H16.622Z" transform="translate(12.688 2.047)" fill="#596c76"/>
        <path id="Trazado_694828" data-name="Trazado 694828" d="M66,11.676H18.561a8.7,8.7,0,0,0-8.641,6.948L6.979,39.132l35.443,1.86,35.166-1.86L74.646,18.624A8.7,8.7,0,0,0,66,11.676Z" transform="translate(5.327 4.855)" fill="#fff4f1"/>
        <path id="Trazado_694829" data-name="Trazado 694829" d="M59.816,15.085,19.99,14.9a7.46,7.46,0,0,0-7.282,6.262l-2.54,15.37,30,2L69.44,36.806l-2.4-15.393a7.461,7.461,0,0,0-7.225-6.328Z" transform="translate(7.761 7.318)" fill="#b3dafe"/>
        <path id="Trazado_694830" data-name="Trazado 694830" d="M47.962,21.249a7.46,7.46,0,0,0-7.253-6.3H35.129a7.46,7.46,0,0,1,7.253,6.3l2.47,15.381h5.579Z" transform="translate(26.815 7.357)" fill="#8ac9fe"/>
        <path id="Trazado_694831" data-name="Trazado 694831" d="M61.049,13.806H16.455A3.407,3.407,0,0,1,13.047,10.4V5.708A3.407,3.407,0,0,1,16.455,2.3h10.6l11.7,5.207L50.454,2.3h10.6a3.407,3.407,0,0,1,3.407,3.407V10.4a3.407,3.407,0,0,1-3.407,3.407Z" transform="translate(9.96 -2.301)" fill="#60b7ff"/>
        <path id="Trazado_694832" data-name="Trazado 694832" d="M18.627,10.4V5.708A3.407,3.407,0,0,1,22.034,2.3H16.455a3.407,3.407,0,0,0-3.407,3.407V10.4a3.407,3.407,0,0,0,3.407,3.407h5.579A3.407,3.407,0,0,1,18.627,10.4Z" transform="translate(9.96 -2.301)" fill="#4db1f0"/>
        <path id="Trazado_694833" data-name="Trazado 694833" d="M46.838,2.3h-10.6L31.665,8.053l4.577,5.752h10.6A3.407,3.407,0,0,0,50.245,10.4V5.708A3.407,3.407,0,0,0,46.838,2.3Z" transform="translate(24.171 -2.301)" fill="#fd4755"/>
        <path id="Trazado_694834" data-name="Trazado 694834" d="M42.685,2.3H37.105a3.407,3.407,0,0,1,3.407,3.407V10.4a3.407,3.407,0,0,1-3.407,3.407h5.579A3.407,3.407,0,0,0,46.092,10.4V5.708A3.407,3.407,0,0,0,42.685,2.3Z" transform="translate(28.324 -2.301)" fill="#fb2b3a"/>
        <path id="Trazado_694835" data-name="Trazado 694835" d="M20.988,2.3h23.4v11.5h-23.4Z" transform="translate(16.021 -2.301)" fill="#d8ecfe"/>
        <path id="Trazado_694836" data-name="Trazado 694836" d="M93.825,52.907H1.395a1.395,1.395,0,0,1,0-2.79H93.825a1.395,1.395,0,1,1,0,2.79Z" transform="translate(0 34.198)" fill="#bfe5f9"/>
        <path id="Trazado_694837" data-name="Trazado 694837" d="M39.3,56.591H53.891a3.029,3.029,0,0,0,3.03-3.03V45.043l-10.967-1.86-9.679,1.86v8.518a3.03,3.03,0,0,0,3.03,3.03Z" transform="translate(27.69 28.906)" fill="#596c76"/>
        <path id="Trazado_694838" data-name="Trazado 694838" d="M23.045,56.591H8.458a3.029,3.029,0,0,1-3.03-3.03V45.043l10.323-1.86,10.323,1.86v8.518a3.03,3.03,0,0,1-3.03,3.03Z" transform="translate(4.144 28.906)" fill="#596c76"/>
        <g id="Grupo_896005" data-name="Grupo 896005" transform="translate(18.501 72.554)">
          <path id="Trazado_694839" data-name="Trazado 694839" d="M45.648,49.875a1.4,1.4,0,0,1-1.395-1.395V44.842a1.395,1.395,0,1,1,2.79,0V48.48A1.4,1.4,0,0,1,45.648,49.875Z" transform="translate(15.28 -43.447)" fill="#465a61"/>
          <path id="Trazado_694840" data-name="Trazado 694840" d="M42.732,49.875a1.4,1.4,0,0,1-1.395-1.395V44.842a1.395,1.395,0,1,1,2.79,0V48.48A1.4,1.4,0,0,1,42.732,49.875Z" transform="translate(13.054 -43.447)" fill="#465a61"/>
          <path id="Trazado_694841" data-name="Trazado 694841" d="M11.887,49.875a1.4,1.4,0,0,1-1.395-1.395V44.842a1.395,1.395,0,1,1,2.79,0V48.48A1.4,1.4,0,0,1,11.887,49.875Z" transform="translate(-10.492 -43.447)" fill="#465a61"/>
        </g>
        <path id="Trazado_694842" data-name="Trazado 694842" d="M86.094,48.72l-40.411,1.86L3.612,48.72V33.985a6.738,6.738,0,0,1,6.738-6.738H79.356a6.738,6.738,0,0,1,6.738,6.738Z" transform="translate(2.757 16.741)" fill="#596c76"/>
        <path id="Trazado_694843" data-name="Trazado 694843" d="M48.982,27.247H43.4a6.738,6.738,0,0,1,6.738,6.738V48.72H55.72V33.985A6.738,6.738,0,0,0,48.982,27.247Z" transform="translate(33.131 16.741)" fill="#465a61"/>
        <path id="Trazado_694844" data-name="Trazado 694844" d="M21.945,40.28H8.722a2.113,2.113,0,0,1-2.113-2.113V33.39a2.113,2.113,0,0,1,2.113-2.113H21.945a2.113,2.113,0,0,1,2.113,2.113v4.778A2.113,2.113,0,0,1,21.945,40.28Z" transform="translate(5.045 19.817)" fill="#fff4f1"/>
        <path id="Trazado_694845" data-name="Trazado 694845" d="M53.183,40.28H39.96a2.113,2.113,0,0,1-2.113-2.113V33.39a2.113,2.113,0,0,1,2.113-2.113H53.183A2.113,2.113,0,0,1,55.3,33.39v4.778A2.113,2.113,0,0,1,53.183,40.28Z" transform="translate(28.89 19.817)" fill="#fff4f1"/>
        <path id="Trazado_694846" data-name="Trazado 694846" d="M44.05,40.28H21.528a2.113,2.113,0,0,1-2.113-2.113V33.39a2.113,2.113,0,0,1,2.113-2.113H44.05a2.113,2.113,0,0,1,2.113,2.113v4.778A2.113,2.113,0,0,1,44.05,40.28Z" transform="translate(14.821 19.817)" fill="#c5d3dd"/>
        <path id="Trazado_694847" data-name="Trazado 694847" d="M8.971,49.875A1.4,1.4,0,0,1,7.576,48.48V44.842a1.395,1.395,0,1,1,2.79,0V48.48A1.4,1.4,0,0,1,8.971,49.875Z" transform="translate(5.783 29.107)" fill="#465a61"/>
        <path id="Trazado_694848" data-name="Trazado 694848" d="M40.1,35.829H22.656a1.395,1.395,0,1,1,0-2.79H40.1a1.395,1.395,0,1,1,0,2.79Z" transform="translate(16.23 21.162)" fill="#9facba"/>
        <path id="Trazado_694849" data-name="Trazado 694849" d="M24.043,47.912H3.463A2.619,2.619,0,0,1,.844,45.293V42.044a2.619,2.619,0,0,1,2.619-2.619H90.469a2.619,2.619,0,0,1,2.619,2.619v3.249a2.619,2.619,0,0,1-2.619,2.619H69.279" transform="translate(0.644 26.036)" fill="#8d9ca8"/>
        <path id="Trazado_694850" data-name="Trazado 694850" d="M55.979,51.534H16.553a2.371,2.371,0,0,1-2.371-2.371V44.73a2.371,2.371,0,0,1,2.371-2.371H55.979a2.371,2.371,0,0,1,2.371,2.371v4.433A2.371,2.371,0,0,1,55.979,51.534Z" transform="translate(10.825 28.276)" fill="#fff4f1"/>
      </g>
    </g>
  </g>
</svg>
