<svg xmlns="http://www.w3.org/2000/svg" xmlns:xlink="http://www.w3.org/1999/xlink" width="169" height="169" viewBox="0 0 169 169">
  <defs>
    <filter id="Trazado_699425" x="0" y="0" width="169" height="169" filterUnits="userSpaceOnUse">
      <feOffset dy="3" input="SourceAlpha"/>
      <feGaussianBlur stdDeviation="3" result="blur"/>
      <feFlood flood-opacity="0.161"/>
      <feComposite operator="in" in2="blur"/>
      <feComposite in="SourceGraphic"/>
    </filter>
    <clipPath id="clip-path">
      <rect id="Rectángulo_344225" data-name="Rectángulo 344225" width="103.465" height="101.549" fill="#fff"/>
    </clipPath>
  </defs>
  <g id="Grupo_896808" data-name="Grupo 896808" transform="translate(5522 9365)">
    <g transform="matrix(1, 0, 0, 1, -5522, -9365)" filter="url(#Trazado_699425)">
      <path id="Trazado_699425-2" data-name="Trazado 699425" d="M75.5,0A75.5,75.5,0,1,1,0,75.5,75.5,75.5,0,0,1,75.5,0Z" transform="translate(9 6)" fill="#f5b3bf"/>
    </g>
    <g id="Enmascarar_grupo_70" data-name="Enmascarar grupo 70" transform="translate(-5487.668 -9334.274)" clip-path="url(#clip-path)">
      <g id="periodismo" transform="translate(25.697 0)">
        <path id="Trazado_694851" data-name="Trazado 694851" d="M31.9,34.754V62a7.72,7.72,0,0,1-7.721,7.718H14.912A7.719,7.719,0,0,1,7.192,62V34.754Zm0,0" transform="translate(6.489 31.835)" fill="#356b93"/>
        <path id="Trazado_694852" data-name="Trazado 694852" d="M28.947,40.472V56.758a7.718,7.718,0,0,1-7.718,7.718H18.136a7.72,7.72,0,0,1-7.72-7.72V45.216a4.744,4.744,0,0,1,4.744-4.745Zm0,0" transform="translate(9.442 37.073)" fill="#5881a5"/>
        <path id="Trazado_694853" data-name="Trazado 694853" d="M37.837,47.911a77.054,77.054,0,0,1-26.914,0,9.651,9.651,0,0,1-7.834-8.062,100.374,100.374,0,0,1,0-30.6,9.651,9.651,0,0,1,7.834-8.062,77.092,77.092,0,0,1,26.914,0,9.652,9.652,0,0,1,7.835,8.062,100.423,100.423,0,0,1,0,30.6A9.652,9.652,0,0,1,37.837,47.911Zm0,0" transform="translate(1.655 0)" fill="#394d63"/>
        <path id="Trazado_694854" data-name="Trazado 694854" d="M20.713,48.962a77.554,77.554,0,0,1-9.788-1.095,9.652,9.652,0,0,1-7.837-8.061,100.429,100.429,0,0,1,0-30.6A9.655,9.655,0,0,1,10.925,1.14,77.548,77.548,0,0,1,20.713.047a10.19,10.19,0,0,0-7.464,8.324,105.872,105.872,0,0,0,0,32.267,10.188,10.188,0,0,0,7.464,8.324Zm0,0" transform="translate(1.656 0.043)" fill="#20303f"/>
        <path id="Trazado_694855" data-name="Trazado 694855" d="M52.123,31.192v11.26a7.634,7.634,0,0,1-7.633,7.635H7.684A7.635,7.635,0,0,1,.052,42.452V31.192a7.635,7.635,0,0,1,7.632-7.635H44.49A7.634,7.634,0,0,1,52.123,31.192Zm0,0" transform="translate(-0.052 21.579)" fill="#ed2929"/>
        <path id="Trazado_694856" data-name="Trazado 694856" d="M46.915,31.192v11.26a7.634,7.634,0,0,1-7.633,7.635H13.369a7.635,7.635,0,0,1-7.632-7.635V31.192a7.635,7.635,0,0,1,7.632-7.635H39.282A7.634,7.634,0,0,1,46.915,31.192Zm0,0" transform="translate(5.156 21.579)" fill="#ff5a5a"/>
        <g id="Grupo_896007" data-name="Grupo 896007" transform="translate(5.576 51.46)">
          <path id="Trazado_694857" data-name="Trazado 694857" d="M10.59,26.886c-.753,0-1.259.369-1.259.918v6.959l-3.4-6.635c-.42-.806-.817-1.242-1.708-1.242-.765,0-1.259.367-1.259.936V39.681c0,.614.633.936,1.259.936.741,0,1.259-.385,1.259-.936V32.7l3.707,7.057,0,0a1.561,1.561,0,0,0,1.4.862c.741,0,1.259-.385,1.259-.936V27.8c0-.558-.494-.918-1.259-.918Zm0,0" transform="translate(-2.962 -26.832)" fill="#e6e6e6"/>
          <path id="Trazado_694858" data-name="Trazado 694858" d="M16.521,29.189c.542,0,.936-.491.936-1.169a1.021,1.021,0,0,0-.936-1.133H10.134a1.045,1.045,0,0,0-1.151.936V39.681a1.045,1.045,0,0,0,1.151.936h6.387a1.021,1.021,0,0,0,.936-1.133c0-.677-.394-1.169-.936-1.169H11.5V34.8h2.455a1.07,1.07,0,0,0,0-2.124H11.5V29.189Zm0,0" transform="translate(2.553 -26.833)" fill="#e6e6e6"/>
          <path id="Trazado_694859" data-name="Trazado 694859" d="M23.91,26.894a.92.92,0,0,0-.963.621l-.785,8.469-1.174-4.668a1.144,1.144,0,0,0-1.251-.8,1.143,1.143,0,0,0-1.249.789l-1.176,4.676-.776-8.416-.009-.053a.92.92,0,0,0-.963-.621c-.705,0-1.491.444-1.491,1.081a.868.868,0,0,0,.023.239l1.2,11.309a1.179,1.179,0,0,0,.695.955,3.173,3.173,0,0,0,1.184.239,1.452,1.452,0,0,0,1.5-.878l1.064-4.232L20.8,39.839a1.453,1.453,0,0,0,1.5.879,3.156,3.156,0,0,0,1.182-.239,1.181,1.181,0,0,0,.7-.957l1.2-11.308a.87.87,0,0,0,.023-.239c0-.637-.786-1.081-1.491-1.081Zm0,0" transform="translate(7.216 -26.825)" fill="#e6e6e6"/>
          <path id="Trazado_694860" data-name="Trazado 694860" d="M25.311,32.2c-1.3-.524-2.091-.89-2.091-1.772,0-1.095,1.052-1.325,1.935-1.325a3.42,3.42,0,0,1,1.768.446,1.557,1.557,0,0,0,.708.236c.716,0,1.1-.772,1.1-1.33,0-1.263-2.247-1.6-3.574-1.6-2.152,0-4.453.985-4.453,3.752,0,2.521,1.825,3.291,3.435,3.971,1.286.542,2.4,1.01,2.4,2.273,0,1.439-1.366,1.594-1.952,1.594a2.885,2.885,0,0,1-2.158-.913,1.412,1.412,0,0,0-.91-.5,1.334,1.334,0,0,0-1.133,1.33c0,1.145,1.828,2.426,4.273,2.426,2.713,0,4.4-1.583,4.4-4.13,0-2.941-2.074-3.779-3.741-4.453Zm0,0" transform="translate(12.993 -26.858)" fill="#e6e6e6"/>
        </g>
        <path id="Trazado_694861" data-name="Trazado 694861" d="M21.052,5.98a1.54,1.54,0,1,1,1.51-1.239,1.552,1.552,0,0,1-1.51,1.239Zm0,0" transform="translate(17.775 2.664)" fill="#20303f"/>
        <path id="Trazado_694862" data-name="Trazado 694862" d="M22.721,8.184a1.542,1.542,0,1,1,1.513-1.256,1.554,1.554,0,0,1-1.513,1.256Zm0,0" transform="translate(19.317 4.677)" fill="#20303f"/>
        <path id="Trazado_694863" data-name="Trazado 694863" d="M20,8.6a1.539,1.539,0,1,1,1.51-1.239A1.552,1.552,0,0,1,20,8.6Zm0,0" transform="translate(16.82 5.061)" fill="#20303f"/>
      </g>
    </g>
  </g>
</svg>
