<svg xmlns="http://www.w3.org/2000/svg" xmlns:xlink="http://www.w3.org/1999/xlink" width="719.533" height="426.809" viewBox="0 0 719.533 426.809">
  <defs>
    <clipPath id="clip-path">
      <rect width="719.533" height="426.809" fill="none"/>
    </clipPath>
    <clipPath id="clip-path-2">
      <rect id="Rectángulo_345361" data-name="Rectángulo 345361" width="415.67" height="326.015" fill="none" stroke="#707070" stroke-width="1"/>
    </clipPath>
    <clipPath id="clip-path-3">
      <rect id="Rectángulo_345364" data-name="Rectángulo 345364" width="415.67" height="285.078" transform="translate(0 0)" fill="none"/>
    </clipPath>
    <clipPath id="clip-path-4">
      <rect id="Rectángulo_345365" data-name="Rectángulo 345365" width="358.713" height="293.416" fill="none"/>
    </clipPath>
    <clipPath id="clip-path-5">
      <rect id="Rectángulo_345366" data-name="Rectángulo 345366" width="403.055" height="316.121" fill="none" stroke="#707070" stroke-width="1"/>
    </clipPath>
    <clipPath id="clip-path-6">
      <rect id="Rectángulo_345369" data-name="Rectángulo 345369" width="383.734" height="263.176" transform="translate(0 0)" fill="none"/>
    </clipPath>
    <clipPath id="clip-path-7">
      <rect id="Rectángulo_345370" data-name="Rectángulo 345370" width="347.827" height="284.512" fill="none"/>
    </clipPath>
    <clipPath id="clip-path-8">
      <rect id="Rectángulo_344452" data-name="Rectángulo 344452" width="576.325" height="370.809" fill="none"/>
    </clipPath>
    <clipPath id="clip-path-10">
      <rect id="Rectángulo_344405" data-name="Rectángulo 344405" width="166.322" height="166.323" fill="none"/>
    </clipPath>
    <clipPath id="clip-path-11">
      <rect id="Rectángulo_344406" data-name="Rectángulo 344406" width="135.135" height="135.134" fill="none"/>
    </clipPath>
    <clipPath id="clip-path-12">
      <rect id="Rectángulo_344407" data-name="Rectángulo 344407" width="103.56" height="103.56" fill="none"/>
    </clipPath>
    <clipPath id="clip-path-13">
      <rect id="Rectángulo_344408" data-name="Rectángulo 344408" width="71.661" height="71.661" fill="none"/>
    </clipPath>
    <clipPath id="clip-path-14">
      <rect id="Rectángulo_344409" data-name="Rectángulo 344409" width="42.871" height="42.872" fill="none"/>
    </clipPath>
    <clipPath id="clip-path-15">
      <rect id="Rectángulo_344410" data-name="Rectángulo 344410" width="16.586" height="16.585" fill="none"/>
    </clipPath>
    <clipPath id="clip-path-16">
      <rect id="Rectángulo_344442" data-name="Rectángulo 344442" width="50.007" height="8.955" fill="none"/>
    </clipPath>
    <clipPath id="clip-path-17">
      <rect id="Rectángulo_344444" data-name="Rectángulo 344444" width="50.007" height="8.957" fill="none"/>
    </clipPath>
    <clipPath id="clip-path-19">
      <rect id="Rectángulo_344449" data-name="Rectángulo 344449" width="89.277" height="89.277" fill="none"/>
    </clipPath>
    <clipPath id="clip-path-20">
      <rect id="Rectángulo_344450" data-name="Rectángulo 344450" width="36.009" height="19.291" fill="none"/>
    </clipPath>
    <clipPath id="clip-path-21">
      <rect id="Rectángulo_344400" data-name="Rectángulo 344400" width="408.645" height="137.756" fill="none"/>
    </clipPath>
    <filter id="Unión_1" x="221.001" y="0" width="278.001" height="83.999" filterUnits="userSpaceOnUse">
      <feOffset dy="3" input="SourceAlpha"/>
      <feGaussianBlur stdDeviation="3" result="blur"/>
      <feFlood flood-opacity="0.161"/>
      <feComposite operator="in" in2="blur"/>
      <feComposite in="SourceGraphic"/>
    </filter>
  </defs>
  <g id="Cuadrícula_de_repetición_1" data-name="Cuadrícula de repetición 1" clip-path="url(#clip-path)">
    <g id="Grupo_1003719" data-name="Grupo 1003719" transform="translate(-440 -4923.001)">
      <g id="Grupo_1003625" data-name="Grupo 1003625" transform="translate(-13.6 56)">
        <g id="Grupo_999810" data-name="Grupo 999810" transform="translate(97.867 -1172.81)" opacity="0.57">
          <g id="Grupo_999777" data-name="Grupo 999777" transform="translate(-66.342 -950.381)">
            <g id="Grupo_999770" data-name="Grupo 999770" transform="translate(422.075 7071.476)">
              <g id="Grupo_999767" data-name="Grupo 999767" transform="translate(0.582 19.35)">
                <g id="Grupo_999766" data-name="Grupo 999766" transform="translate(0 0)" clip-path="url(#clip-path-3)">
                  <path id="Trazado_704794" data-name="Trazado 704794" d="M249.68,273.858a124.84,124.84,0,1,1-124.84-124.84,124.84,124.84,0,0,1,124.84,124.84" transform="translate(0 -113.62)" fill="#4db1f0"/>
                  <path id="Sustracción_36" data-name="Sustracción 36" d="M90.458,180.921a91.2,91.2,0,0,1-18.23-1.838,89.974,89.974,0,0,1-32.346-13.612,90.708,90.708,0,0,1-32.773-39.8,89.919,89.919,0,0,1-5.271-16.979,91.347,91.347,0,0,1,0-36.462A89.979,89.979,0,0,1,15.449,39.883a90.709,90.709,0,0,1,39.8-32.774,90,90,0,0,1,16.98-5.271,91.345,91.345,0,0,1,36.462,0,89.977,89.977,0,0,1,32.347,13.611,90.719,90.719,0,0,1,32.774,39.8,89.957,89.957,0,0,1,5.271,16.98,91.347,91.347,0,0,1,0,36.462,90,90,0,0,1-13.611,32.346,90.733,90.733,0,0,1-39.8,32.774,90.036,90.036,0,0,1-16.981,5.272A91.2,91.2,0,0,1,90.458,180.921Zm0-163.084A72.623,72.623,0,1,0,163.082,90.46,72.7,72.7,0,0,0,90.458,17.837Z" transform="translate(234.75 104.157)" fill="#ffa031" stroke="rgba(0,0,0,0)" stroke-miterlimit="10" stroke-width="1"/>
                  <path id="Trazado_704797" data-name="Trazado 704797" d="M639.551,677.607a44.143,44.143,0,1,1-44.143-44.143,44.143,44.143,0,0,1,44.143,44.143" transform="translate(-420.316 -482.989)" fill="#fff"/>
                  <path id="Trazado_704798" data-name="Trazado 704798" d="M1472.5,264.432a2.79,2.79,0,1,1-2.79-2.79,2.79,2.79,0,0,1,2.79,2.79" transform="translate(-1118.466 -199.491)" fill="#f9e8dc"/>
                  <path id="Trazado_704799" data-name="Trazado 704799" d="M1524.179,264.432a2.79,2.79,0,1,1-2.79-2.79,2.79,2.79,0,0,1,2.79,2.79" transform="translate(-1157.866 -199.491)" fill="#f9e8dc"/>
                  <path id="Trazado_704800" data-name="Trazado 704800" d="M1575.854,264.432a2.79,2.79,0,1,1-2.79-2.79,2.79,2.79,0,0,1,2.79,2.79" transform="translate(-1197.266 -199.491)" fill="#f9e8dc"/>
                  <path id="Trazado_704801" data-name="Trazado 704801" d="M1627.529,264.432a2.79,2.79,0,1,1-2.79-2.79,2.79,2.79,0,0,1,2.79,2.79" transform="translate(-1236.666 -199.491)" fill="#f9e8dc"/>
                  <path id="Trazado_704802" data-name="Trazado 704802" d="M1679.2,264.432a2.79,2.79,0,1,1-2.79-2.79,2.79,2.79,0,0,1,2.79,2.79" transform="translate(-1276.066 -199.491)" fill="#f9e8dc"/>
                  <path id="Trazado_704803" data-name="Trazado 704803" d="M1472.5,313.758a2.79,2.79,0,1,1-2.79-2.79,2.79,2.79,0,0,1,2.79,2.79" transform="translate(-1118.466 -237.1)" fill="#f9e8dc"/>
                  <path id="Trazado_704804" data-name="Trazado 704804" d="M1524.179,313.758a2.79,2.79,0,1,1-2.79-2.79,2.79,2.79,0,0,1,2.79,2.79" transform="translate(-1157.866 -237.1)" fill="#f9e8dc"/>
                  <path id="Trazado_704805" data-name="Trazado 704805" d="M1575.854,313.758a2.79,2.79,0,1,1-2.79-2.79,2.79,2.79,0,0,1,2.79,2.79" transform="translate(-1197.266 -237.1)" fill="#f9e8dc"/>
                  <path id="Trazado_704806" data-name="Trazado 704806" d="M1627.529,313.758a2.79,2.79,0,1,1-2.79-2.79,2.79,2.79,0,0,1,2.79,2.79" transform="translate(-1236.666 -237.1)" fill="#f9e8dc"/>
                  <path id="Trazado_704807" data-name="Trazado 704807" d="M1679.2,313.758a2.79,2.79,0,1,1-2.79-2.79,2.79,2.79,0,0,1,2.79,2.79" transform="translate(-1276.066 -237.1)" fill="#f9e8dc"/>
                  <path id="Trazado_704808" data-name="Trazado 704808" d="M1472.5,363.084a2.79,2.79,0,1,1-2.79-2.79,2.79,2.79,0,0,1,2.79,2.79" transform="translate(-1118.466 -274.709)" fill="#f9e8dc"/>
                  <path id="Trazado_704809" data-name="Trazado 704809" d="M1524.179,363.084a2.79,2.79,0,1,1-2.79-2.79,2.79,2.79,0,0,1,2.79,2.79" transform="translate(-1157.866 -274.709)" fill="#f9e8dc"/>
                  <path id="Trazado_704810" data-name="Trazado 704810" d="M1575.854,363.084a2.79,2.79,0,1,1-2.79-2.79,2.79,2.79,0,0,1,2.79,2.79" transform="translate(-1197.266 -274.709)" fill="#f9e8dc"/>
                  <path id="Trazado_704811" data-name="Trazado 704811" d="M1627.529,363.084a2.79,2.79,0,1,1-2.79-2.79,2.79,2.79,0,0,1,2.79,2.79" transform="translate(-1236.666 -274.709)" fill="#f9e8dc"/>
                  <path id="Trazado_704812" data-name="Trazado 704812" d="M1679.2,363.084a2.79,2.79,0,1,1-2.79-2.79,2.79,2.79,0,0,1,2.79,2.79" transform="translate(-1276.066 -274.709)" fill="#f9e8dc"/>
                  <path id="Trazado_704813" data-name="Trazado 704813" d="M1472.5,412.411a2.79,2.79,0,1,1-2.79-2.79,2.79,2.79,0,0,1,2.79,2.79" transform="translate(-1118.466 -312.319)" fill="#f9e8dc"/>
                  <path id="Trazado_704814" data-name="Trazado 704814" d="M1524.179,412.411a2.79,2.79,0,1,1-2.79-2.79,2.79,2.79,0,0,1,2.79,2.79" transform="translate(-1157.866 -312.319)" fill="#f9e8dc"/>
                  <path id="Trazado_704815" data-name="Trazado 704815" d="M1575.854,412.411a2.79,2.79,0,1,1-2.79-2.79,2.79,2.79,0,0,1,2.79,2.79" transform="translate(-1197.266 -312.319)" fill="#f9e8dc"/>
                  <path id="Trazado_704816" data-name="Trazado 704816" d="M1627.529,412.411a2.79,2.79,0,1,1-2.79-2.79,2.79,2.79,0,0,1,2.79,2.79" transform="translate(-1236.666 -312.319)" fill="#f9e8dc"/>
                  <path id="Trazado_704817" data-name="Trazado 704817" d="M1679.2,412.411a2.79,2.79,0,1,1-2.79-2.79,2.79,2.79,0,0,1,2.79,2.79" transform="translate(-1276.066 -312.319)" fill="#f9e8dc"/>
                  <path id="Trazado_704818" data-name="Trazado 704818" d="M1472.5,461.737a2.79,2.79,0,1,1-2.79-2.79,2.79,2.79,0,0,1,2.79,2.79" transform="translate(-1118.466 -349.928)" fill="#f9e8dc"/>
                  <path id="Trazado_704819" data-name="Trazado 704819" d="M1524.179,461.737a2.79,2.79,0,1,1-2.79-2.79,2.79,2.79,0,0,1,2.79,2.79" transform="translate(-1157.866 -349.928)" fill="#f9e8dc"/>
                  <path id="Trazado_704820" data-name="Trazado 704820" d="M1575.854,461.737a2.79,2.79,0,1,1-2.79-2.79,2.79,2.79,0,0,1,2.79,2.79" transform="translate(-1197.266 -349.928)" fill="#f9e8dc"/>
                  <path id="Trazado_704821" data-name="Trazado 704821" d="M1627.529,461.737a2.79,2.79,0,1,1-2.79-2.79,2.79,2.79,0,0,1,2.79,2.79" transform="translate(-1236.666 -349.928)" fill="#f9e8dc"/>
                  <path id="Trazado_704822" data-name="Trazado 704822" d="M1679.2,461.737a2.79,2.79,0,1,1-2.79-2.79,2.79,2.79,0,0,1,2.79,2.79" transform="translate(-1276.066 -349.928)" fill="#f9e8dc"/>
                  <path id="Trazado_704823" data-name="Trazado 704823" d="M129.056,380.918a2.79,2.79,0,1,1-2.79-2.79,2.79,2.79,0,0,1,2.79,2.79" transform="translate(-94.145 -288.307)" fill="#fff"/>
                  <path id="Trazado_704824" data-name="Trazado 704824" d="M180.731,380.918a2.79,2.79,0,1,1-2.79-2.79,2.79,2.79,0,0,1,2.79,2.79" transform="translate(-133.545 -288.307)" fill="#fff"/>
                  <path id="Trazado_704825" data-name="Trazado 704825" d="M232.406,380.918a2.79,2.79,0,1,1-2.79-2.79,2.79,2.79,0,0,1,2.79,2.79" transform="translate(-172.945 -288.307)" fill="#fff"/>
                  <path id="Trazado_704826" data-name="Trazado 704826" d="M284.081,380.918a2.79,2.79,0,1,1-2.79-2.79,2.79,2.79,0,0,1,2.79,2.79" transform="translate(-212.345 -288.307)" fill="#fff"/>
                  <path id="Trazado_704827" data-name="Trazado 704827" d="M335.756,380.918a2.79,2.79,0,1,1-2.79-2.79,2.79,2.79,0,0,1,2.79,2.79" transform="translate(-251.745 -288.307)" fill="#fff"/>
                  <path id="Trazado_704828" data-name="Trazado 704828" d="M129.056,430.244a2.79,2.79,0,1,1-2.79-2.79,2.79,2.79,0,0,1,2.79,2.79" transform="translate(-94.145 -325.916)" fill="#fff"/>
                  <path id="Trazado_704829" data-name="Trazado 704829" d="M180.731,430.244a2.79,2.79,0,1,1-2.79-2.79,2.79,2.79,0,0,1,2.79,2.79" transform="translate(-133.545 -325.916)" fill="#fff"/>
                  <path id="Trazado_704830" data-name="Trazado 704830" d="M232.406,430.244a2.79,2.79,0,1,1-2.79-2.79,2.79,2.79,0,0,1,2.79,2.79" transform="translate(-172.945 -325.916)" fill="#fff"/>
                  <path id="Trazado_704831" data-name="Trazado 704831" d="M284.081,430.244a2.79,2.79,0,1,1-2.79-2.79,2.79,2.79,0,0,1,2.79,2.79" transform="translate(-212.345 -325.916)" fill="#fff"/>
                  <path id="Trazado_704832" data-name="Trazado 704832" d="M335.756,430.244a2.79,2.79,0,1,1-2.79-2.79,2.79,2.79,0,0,1,2.79,2.79" transform="translate(-251.745 -325.916)" fill="#fff"/>
                  <path id="Trazado_704833" data-name="Trazado 704833" d="M129.056,479.57a2.79,2.79,0,1,1-2.79-2.789,2.79,2.79,0,0,1,2.79,2.789" transform="translate(-94.145 -363.525)" fill="#fff"/>
                  <path id="Trazado_704834" data-name="Trazado 704834" d="M180.731,479.57a2.79,2.79,0,1,1-2.79-2.789,2.79,2.79,0,0,1,2.79,2.789" transform="translate(-133.545 -363.525)" fill="#fff"/>
                  <path id="Trazado_704835" data-name="Trazado 704835" d="M232.406,479.57a2.79,2.79,0,1,1-2.79-2.789,2.79,2.79,0,0,1,2.79,2.789" transform="translate(-172.945 -363.525)" fill="#fff"/>
                  <path id="Trazado_704836" data-name="Trazado 704836" d="M284.081,479.57a2.79,2.79,0,1,1-2.79-2.789,2.79,2.79,0,0,1,2.79,2.789" transform="translate(-212.345 -363.525)" fill="#fff"/>
                  <path id="Trazado_704837" data-name="Trazado 704837" d="M335.756,479.57a2.79,2.79,0,1,1-2.79-2.789,2.79,2.79,0,0,1,2.79,2.789" transform="translate(-251.745 -363.525)" fill="#fff"/>
                  <path id="Trazado_704838" data-name="Trazado 704838" d="M129.056,528.9a2.79,2.79,0,1,1-2.79-2.79,2.79,2.79,0,0,1,2.79,2.79" transform="translate(-94.145 -401.134)" fill="#fff"/>
                  <path id="Trazado_704839" data-name="Trazado 704839" d="M180.731,528.9a2.79,2.79,0,1,1-2.79-2.79,2.79,2.79,0,0,1,2.79,2.79" transform="translate(-133.545 -401.134)" fill="#fff"/>
                  <path id="Trazado_704840" data-name="Trazado 704840" d="M232.406,528.9a2.79,2.79,0,1,1-2.79-2.79,2.79,2.79,0,0,1,2.79,2.79" transform="translate(-172.945 -401.134)" fill="#fff"/>
                  <path id="Trazado_704841" data-name="Trazado 704841" d="M284.081,528.9a2.79,2.79,0,1,1-2.79-2.79,2.79,2.79,0,0,1,2.79,2.79" transform="translate(-212.345 -401.134)" fill="#fff"/>
                  <path id="Trazado_704842" data-name="Trazado 704842" d="M335.756,528.9a2.79,2.79,0,1,1-2.79-2.79,2.79,2.79,0,0,1,2.79,2.79" transform="translate(-251.745 -401.134)" fill="#fff"/>
                  <path id="Trazado_704843" data-name="Trazado 704843" d="M129.056,578.223a2.79,2.79,0,1,1-2.79-2.79,2.79,2.79,0,0,1,2.79,2.79" transform="translate(-94.145 -438.743)" fill="#fff"/>
                  <path id="Trazado_704844" data-name="Trazado 704844" d="M180.731,578.223a2.79,2.79,0,1,1-2.79-2.79,2.79,2.79,0,0,1,2.79,2.79" transform="translate(-133.545 -438.743)" fill="#fff"/>
                  <path id="Trazado_704845" data-name="Trazado 704845" d="M232.406,578.223a2.79,2.79,0,1,1-2.79-2.79,2.79,2.79,0,0,1,2.79,2.79" transform="translate(-172.945 -438.743)" fill="#fff"/>
                  <path id="Trazado_704846" data-name="Trazado 704846" d="M284.081,578.223a2.79,2.79,0,1,1-2.79-2.79,2.79,2.79,0,0,1,2.79,2.79" transform="translate(-212.345 -438.743)" fill="#fff"/>
                  <path id="Trazado_704847" data-name="Trazado 704847" d="M335.756,578.223a2.79,2.79,0,1,1-2.79-2.79,2.79,2.79,0,0,1,2.79,2.79" transform="translate(-251.745 -438.743)" fill="#fff"/>
                  <rect id="Rectángulo_345362" data-name="Rectángulo 345362" width="49.008" height="11.464" transform="translate(205.532 45.859)" fill="#f9e8dc"/>
                  <rect id="Rectángulo_345363" data-name="Rectángulo 345363" width="49.515" height="21.06" transform="translate(22.996 15.569)" fill="#f9e8dc"/>
                  <path id="Trazado_704848" data-name="Trazado 704848" d="M178.116,0H210.67a5.6,5.6,0,0,1,5.6,5.6V16.771a5.6,5.6,0,0,1-5.6,5.6H178.116a5.6,5.6,0,0,1-5.6-5.6V5.6a5.6,5.6,0,0,1,5.6-5.6" transform="translate(-131.534 -0.002)" fill="#eb9ba8"/>
                  <path id="Trazado_704849" data-name="Trazado 704849" d="M211.116,38.356a2.721,2.721,0,1,1-2.722-2.721,2.721,2.721,0,0,1,2.722,2.721" transform="translate(-156.817 -27.171)" fill="#fff"/>
                  <path id="Trazado_704850" data-name="Trazado 704850" d="M258.608,38.356a2.721,2.721,0,1,1-2.721-2.721,2.721,2.721,0,0,1,2.721,2.721" transform="translate(-193.027 -27.171)" fill="#fff"/>
                  <path id="Trazado_704851" data-name="Trazado 704851" d="M306.1,38.356a2.721,2.721,0,1,1-2.721-2.721,2.721,2.721,0,0,1,2.721,2.721" transform="translate(-229.238 -27.171)" fill="#fff"/>
                </g>
              </g>
              <g id="Grupo_999769" data-name="Grupo 999769" transform="translate(44.176 44.108)" opacity="0.251">
                <g id="Grupo_999768" data-name="Grupo 999768" transform="translate(0 0)" clip-path="url(#clip-path-4)">
                  <path id="Trazado_704852" data-name="Trazado 704852" d="M229.213,288.8c-3.388-.257-6.845-.4-10.386-.378-18.734.139-37.057,5.18-55.907,4.985-39.939-.412-81.044-4.552-115.561-30.132C-29.115,206.6-4.047,85.2,59.348,35.365,93.034,8.882,134.992.785,175.191.036,226.94-.928,293.315,15.44,330.392,59c25.832,30.352,32.255,101.066,26.216,141.135-4.806,31.894-22.846,61.971-45.635,79.478-28.42,21.833-52.515,11.4-81.76,9.183" transform="translate(0 0.004)" fill="#f1c6bd"/>
                </g>
              </g>
            </g>
            <g id="Grupo_999776" data-name="Grupo 999776" transform="translate(1141.607 6999.381) rotate(90)">
              <g id="Grupo_999773" data-name="Grupo 999773" transform="translate(19.885 18.762)">
                <g id="Grupo_999772" data-name="Grupo 999772" transform="translate(0 0)" clip-path="url(#clip-path-6)">
                  <path id="Trazado_704853" data-name="Trazado 704853" d="M230.5,264.267A115.249,115.249,0,1,1,115.249,149.018,115.249,115.249,0,0,1,230.5,264.267" transform="translate(0 -116.34)" fill="#4db1f0"/>
                  <path id="Sustracción_37" data-name="Sustracción 37" d="M83.508,167.021a84.192,84.192,0,0,1-16.83-1.7,83.061,83.061,0,0,1-29.861-12.567A83.739,83.739,0,0,1,6.563,116.015,83.01,83.01,0,0,1,1.7,100.341a84.329,84.329,0,0,1,0-33.661A83.066,83.066,0,0,1,14.262,36.819,83.74,83.74,0,0,1,51,6.563,83.082,83.082,0,0,1,66.679,1.7a84.327,84.327,0,0,1,33.66,0A83.064,83.064,0,0,1,130.2,14.262,83.749,83.749,0,0,1,160.456,51a83.045,83.045,0,0,1,4.866,15.676,84.329,84.329,0,0,1,0,33.661A83.084,83.084,0,0,1,152.757,130.2a83.762,83.762,0,0,1-36.742,30.256,83.117,83.117,0,0,1-15.676,4.867A84.194,84.194,0,0,1,83.508,167.021Zm0-150.554A67.044,67.044,0,1,0,150.552,83.51,67.119,67.119,0,0,0,83.508,16.467Z" transform="translate(198.625 96.155)" fill="#ffa031" stroke="rgba(0,0,0,0)" stroke-miterlimit="10" stroke-width="1"/>
                  <path id="Trazado_704856" data-name="Trazado 704856" d="M632.768,674.216a40.752,40.752,0,1,1-40.752-40.752,40.751,40.751,0,0,1,40.752,40.752" transform="translate(-430.376 -494.55)" fill="#fff"/>
                  <path id="Trazado_704857" data-name="Trazado 704857" d="M1472.075,264.217a2.576,2.576,0,1,1-2.576-2.575,2.575,2.575,0,0,1,2.576,2.575" transform="translate(-1145.238 -204.266)" fill="#f9e8dc"/>
                  <path id="Trazado_704858" data-name="Trazado 704858" d="M1523.75,264.217a2.576,2.576,0,1,1-2.575-2.575,2.575,2.575,0,0,1,2.575,2.575" transform="translate(-1185.581 -204.266)" fill="#f9e8dc"/>
                  <path id="Trazado_704859" data-name="Trazado 704859" d="M1575.425,264.217a2.576,2.576,0,1,1-2.575-2.575,2.575,2.575,0,0,1,2.575,2.575" transform="translate(-1225.924 -204.266)" fill="#f9e8dc"/>
                  <path id="Trazado_704860" data-name="Trazado 704860" d="M1627.1,264.217a2.576,2.576,0,1,1-2.576-2.575,2.575,2.575,0,0,1,2.576,2.575" transform="translate(-1266.267 -204.266)" fill="#f9e8dc"/>
                  <path id="Trazado_704861" data-name="Trazado 704861" d="M1678.775,264.217a2.576,2.576,0,1,1-2.575-2.575,2.575,2.575,0,0,1,2.575,2.575" transform="translate(-1306.61 -204.266)" fill="#f9e8dc"/>
                  <path id="Trazado_704862" data-name="Trazado 704862" d="M1472.075,313.543a2.576,2.576,0,1,1-2.576-2.575,2.575,2.575,0,0,1,2.576,2.575" transform="translate(-1145.238 -242.775)" fill="#f9e8dc"/>
                  <path id="Trazado_704863" data-name="Trazado 704863" d="M1523.75,313.543a2.576,2.576,0,1,1-2.575-2.575,2.576,2.576,0,0,1,2.575,2.575" transform="translate(-1185.581 -242.775)" fill="#f9e8dc"/>
                  <path id="Trazado_704864" data-name="Trazado 704864" d="M1575.425,313.543a2.576,2.576,0,1,1-2.575-2.575,2.575,2.575,0,0,1,2.575,2.575" transform="translate(-1225.924 -242.775)" fill="#f9e8dc"/>
                  <path id="Trazado_704865" data-name="Trazado 704865" d="M1627.1,313.543a2.576,2.576,0,1,1-2.576-2.575,2.576,2.576,0,0,1,2.576,2.575" transform="translate(-1266.267 -242.775)" fill="#f9e8dc"/>
                  <path id="Trazado_704866" data-name="Trazado 704866" d="M1678.775,313.543a2.576,2.576,0,1,1-2.575-2.575,2.575,2.575,0,0,1,2.575,2.575" transform="translate(-1306.61 -242.775)" fill="#f9e8dc"/>
                  <path id="Trazado_704867" data-name="Trazado 704867" d="M1472.075,362.869a2.576,2.576,0,1,1-2.576-2.575,2.575,2.575,0,0,1,2.576,2.575" transform="translate(-1145.238 -281.284)" fill="#f9e8dc"/>
                  <path id="Trazado_704868" data-name="Trazado 704868" d="M1523.75,362.869a2.576,2.576,0,1,1-2.575-2.575,2.575,2.575,0,0,1,2.575,2.575" transform="translate(-1185.581 -281.284)" fill="#f9e8dc"/>
                  <path id="Trazado_704869" data-name="Trazado 704869" d="M1575.425,362.869a2.576,2.576,0,1,1-2.575-2.575,2.575,2.575,0,0,1,2.575,2.575" transform="translate(-1225.924 -281.284)" fill="#f9e8dc"/>
                  <path id="Trazado_704870" data-name="Trazado 704870" d="M1627.1,362.869a2.576,2.576,0,1,1-2.576-2.575,2.575,2.575,0,0,1,2.576,2.575" transform="translate(-1266.267 -281.284)" fill="#f9e8dc"/>
                  <path id="Trazado_704871" data-name="Trazado 704871" d="M1678.775,362.869a2.576,2.576,0,1,1-2.575-2.575,2.575,2.575,0,0,1,2.575,2.575" transform="translate(-1306.61 -281.284)" fill="#f9e8dc"/>
                  <path id="Trazado_704872" data-name="Trazado 704872" d="M1472.075,412.2a2.576,2.576,0,1,1-2.576-2.575,2.575,2.575,0,0,1,2.576,2.575" transform="translate(-1145.238 -319.794)" fill="#f9e8dc"/>
                  <path id="Trazado_704873" data-name="Trazado 704873" d="M1523.75,412.2a2.576,2.576,0,1,1-2.575-2.575,2.576,2.576,0,0,1,2.575,2.575" transform="translate(-1185.581 -319.794)" fill="#f9e8dc"/>
                  <path id="Trazado_704874" data-name="Trazado 704874" d="M1575.425,412.2a2.576,2.576,0,1,1-2.575-2.575,2.575,2.575,0,0,1,2.575,2.575" transform="translate(-1225.924 -319.794)" fill="#f9e8dc"/>
                  <path id="Trazado_704875" data-name="Trazado 704875" d="M1627.1,412.2a2.576,2.576,0,1,1-2.576-2.575,2.576,2.576,0,0,1,2.576,2.575" transform="translate(-1266.267 -319.794)" fill="#f9e8dc"/>
                  <path id="Trazado_704876" data-name="Trazado 704876" d="M1678.775,412.2a2.576,2.576,0,1,1-2.575-2.575,2.575,2.575,0,0,1,2.575,2.575" transform="translate(-1306.61 -319.794)" fill="#f9e8dc"/>
                  <path id="Trazado_704877" data-name="Trazado 704877" d="M1472.075,461.522a2.576,2.576,0,1,1-2.576-2.575,2.575,2.575,0,0,1,2.576,2.575" transform="translate(-1145.238 -358.303)" fill="#f9e8dc"/>
                  <path id="Trazado_704878" data-name="Trazado 704878" d="M1523.75,461.522a2.576,2.576,0,1,1-2.575-2.575,2.576,2.576,0,0,1,2.575,2.575" transform="translate(-1185.581 -358.303)" fill="#f9e8dc"/>
                  <path id="Trazado_704879" data-name="Trazado 704879" d="M1575.425,461.522a2.576,2.576,0,1,1-2.575-2.575,2.575,2.575,0,0,1,2.575,2.575" transform="translate(-1225.924 -358.303)" fill="#f9e8dc"/>
                  <path id="Trazado_704880" data-name="Trazado 704880" d="M1627.1,461.522a2.576,2.576,0,1,1-2.576-2.575,2.576,2.576,0,0,1,2.576,2.575" transform="translate(-1266.267 -358.303)" fill="#f9e8dc"/>
                  <path id="Trazado_704881" data-name="Trazado 704881" d="M1678.775,461.522a2.576,2.576,0,1,1-2.575-2.575,2.575,2.575,0,0,1,2.575,2.575" transform="translate(-1306.61 -358.303)" fill="#f9e8dc"/>
                  <path id="Trazado_704882" data-name="Trazado 704882" d="M128.627,380.7a2.575,2.575,0,1,1-2.575-2.575,2.575,2.575,0,0,1,2.575,2.575" transform="translate(-96.399 -295.207)" fill="#fff"/>
                  <path id="Trazado_704883" data-name="Trazado 704883" d="M180.3,380.7a2.575,2.575,0,1,1-2.575-2.575A2.575,2.575,0,0,1,180.3,380.7" transform="translate(-136.742 -295.207)" fill="#fff"/>
                  <path id="Trazado_704884" data-name="Trazado 704884" d="M231.977,380.7a2.575,2.575,0,1,1-2.575-2.575,2.575,2.575,0,0,1,2.575,2.575" transform="translate(-177.085 -295.207)" fill="#fff"/>
                  <path id="Trazado_704885" data-name="Trazado 704885" d="M283.652,380.7a2.576,2.576,0,1,1-2.576-2.575,2.576,2.576,0,0,1,2.576,2.575" transform="translate(-217.428 -295.207)" fill="#fff"/>
                  <path id="Trazado_704886" data-name="Trazado 704886" d="M335.327,380.7a2.575,2.575,0,1,1-2.575-2.575,2.575,2.575,0,0,1,2.575,2.575" transform="translate(-257.771 -295.207)" fill="#fff"/>
                  <path id="Trazado_704887" data-name="Trazado 704887" d="M128.627,430.029a2.575,2.575,0,1,1-2.575-2.575,2.575,2.575,0,0,1,2.575,2.575" transform="translate(-96.399 -333.717)" fill="#fff"/>
                  <path id="Trazado_704888" data-name="Trazado 704888" d="M180.3,430.029a2.575,2.575,0,1,1-2.575-2.575,2.575,2.575,0,0,1,2.575,2.575" transform="translate(-136.742 -333.717)" fill="#fff"/>
                  <path id="Trazado_704889" data-name="Trazado 704889" d="M231.977,430.029a2.575,2.575,0,1,1-2.575-2.575,2.575,2.575,0,0,1,2.575,2.575" transform="translate(-177.085 -333.717)" fill="#fff"/>
                  <path id="Trazado_704890" data-name="Trazado 704890" d="M283.652,430.029a2.576,2.576,0,1,1-2.576-2.575,2.576,2.576,0,0,1,2.576,2.575" transform="translate(-217.428 -333.717)" fill="#fff"/>
                  <path id="Trazado_704891" data-name="Trazado 704891" d="M335.327,430.029a2.575,2.575,0,1,1-2.575-2.575,2.575,2.575,0,0,1,2.575,2.575" transform="translate(-257.771 -333.717)" fill="#fff"/>
                  <path id="Trazado_704892" data-name="Trazado 704892" d="M128.627,479.356a2.575,2.575,0,1,1-2.575-2.575,2.575,2.575,0,0,1,2.575,2.575" transform="translate(-96.399 -372.227)" fill="#fff"/>
                  <path id="Trazado_704893" data-name="Trazado 704893" d="M180.3,479.356a2.575,2.575,0,1,1-2.575-2.575,2.575,2.575,0,0,1,2.575,2.575" transform="translate(-136.742 -372.227)" fill="#fff"/>
                  <path id="Trazado_704894" data-name="Trazado 704894" d="M231.977,479.356a2.575,2.575,0,1,1-2.575-2.575,2.575,2.575,0,0,1,2.575,2.575" transform="translate(-177.085 -372.227)" fill="#fff"/>
                  <path id="Trazado_704895" data-name="Trazado 704895" d="M283.652,479.356a2.576,2.576,0,1,1-2.576-2.575,2.576,2.576,0,0,1,2.576,2.575" transform="translate(-217.428 -372.227)" fill="#fff"/>
                  <path id="Trazado_704896" data-name="Trazado 704896" d="M335.327,479.356a2.575,2.575,0,1,1-2.575-2.575,2.575,2.575,0,0,1,2.575,2.575" transform="translate(-257.771 -372.227)" fill="#fff"/>
                  <path id="Trazado_704897" data-name="Trazado 704897" d="M128.627,528.682a2.575,2.575,0,1,1-2.575-2.575,2.575,2.575,0,0,1,2.575,2.575" transform="translate(-96.399 -410.736)" fill="#fff"/>
                  <path id="Trazado_704898" data-name="Trazado 704898" d="M180.3,528.682a2.575,2.575,0,1,1-2.575-2.575,2.575,2.575,0,0,1,2.575,2.575" transform="translate(-136.742 -410.736)" fill="#fff"/>
                  <path id="Trazado_704899" data-name="Trazado 704899" d="M231.977,528.682a2.575,2.575,0,1,1-2.575-2.575,2.575,2.575,0,0,1,2.575,2.575" transform="translate(-177.085 -410.736)" fill="#fff"/>
                  <path id="Trazado_704900" data-name="Trazado 704900" d="M283.652,528.682a2.576,2.576,0,1,1-2.576-2.575,2.576,2.576,0,0,1,2.576,2.575" transform="translate(-217.428 -410.736)" fill="#fff"/>
                  <path id="Trazado_704901" data-name="Trazado 704901" d="M335.327,528.682a2.575,2.575,0,1,1-2.575-2.575,2.575,2.575,0,0,1,2.575,2.575" transform="translate(-257.771 -410.736)" fill="#fff"/>
                  <path id="Trazado_704902" data-name="Trazado 704902" d="M128.627,578.008a2.575,2.575,0,1,1-2.575-2.576,2.575,2.575,0,0,1,2.575,2.576" transform="translate(-96.399 -449.245)" fill="#fff"/>
                  <path id="Trazado_704903" data-name="Trazado 704903" d="M180.3,578.008a2.575,2.575,0,1,1-2.575-2.576,2.575,2.575,0,0,1,2.575,2.576" transform="translate(-136.742 -449.245)" fill="#fff"/>
                  <path id="Trazado_704904" data-name="Trazado 704904" d="M231.977,578.008a2.575,2.575,0,1,1-2.575-2.576,2.575,2.575,0,0,1,2.575,2.576" transform="translate(-177.085 -449.245)" fill="#fff"/>
                  <path id="Trazado_704905" data-name="Trazado 704905" d="M283.652,578.008a2.576,2.576,0,1,1-2.576-2.576,2.576,2.576,0,0,1,2.576,2.576" transform="translate(-217.428 -449.245)" fill="#fff"/>
                  <path id="Trazado_704906" data-name="Trazado 704906" d="M335.327,578.008a2.575,2.575,0,1,1-2.575-2.576,2.575,2.575,0,0,1,2.575,2.576" transform="translate(-257.771 -449.245)" fill="#fff"/>
                  <rect id="Rectángulo_345367" data-name="Rectángulo 345367" width="45.243" height="10.583" transform="translate(189.741 42.336)" fill="#f9e8dc"/>
                  <rect id="Rectángulo_345368" data-name="Rectángulo 345368" width="45.711" height="19.442" transform="translate(21.229 14.373)" fill="#f9e8dc"/>
                  <path id="Trazado_704907" data-name="Trazado 704907" d="M177.686,0h30.053a5.172,5.172,0,0,1,5.172,5.172V15.483a5.172,5.172,0,0,1-5.172,5.172H177.686a5.172,5.172,0,0,1-5.172-5.172V5.174A5.172,5.172,0,0,1,177.686,0" transform="translate(-134.683 -0.002)" fill="#eb9ba8"/>
                  <path id="Trazado_704908" data-name="Trazado 704908" d="M210.7,38.147a2.512,2.512,0,1,1-2.512-2.512,2.512,2.512,0,0,1,2.512,2.512" transform="translate(-160.57 -27.821)" fill="#fff"/>
                  <path id="Trazado_704909" data-name="Trazado 704909" d="M258.189,38.147a2.512,2.512,0,1,1-2.512-2.512,2.512,2.512,0,0,1,2.512,2.512" transform="translate(-197.648 -27.821)" fill="#fff"/>
                  <path id="Trazado_704910" data-name="Trazado 704910" d="M305.681,38.147a2.512,2.512,0,1,1-2.512-2.512,2.512,2.512,0,0,1,2.512,2.512" transform="translate(-234.725 -27.821)" fill="#fff"/>
                </g>
              </g>
              <g id="Grupo_999775" data-name="Grupo 999775" transform="translate(42.835 42.77)" opacity="0.251">
                <g id="Grupo_999774" data-name="Grupo 999774" transform="translate(0 0)" clip-path="url(#clip-path-7)">
                  <path id="Trazado_704911" data-name="Trazado 704911" d="M222.257,280.035c-3.285-.249-6.638-.392-10.071-.366-18.165.135-35.932,5.023-54.21,4.834-38.727-.4-78.584-4.414-112.054-29.217C-28.231,200.332-3.924,82.618,57.547,34.291,90.21,8.613,130.895.761,169.875.035,220.053-.9,284.414,14.971,320.365,57.212c25.048,29.431,31.276,98,25.421,136.852-4.661,30.926-22.153,60.09-44.25,77.066-27.557,21.17-50.922,11.057-79.279,8.9" transform="translate(0 0.004)" fill="#f1c6bd"/>
                </g>
              </g>
            </g>
          </g>
          <g id="Grupo_999808" data-name="Grupo 999808" transform="translate(9.658 121.396)">
            <circle id="Elipse_4871" data-name="Elipse 4871" cx="8.5" cy="8.5" r="8.5" transform="translate(441 6178)" fill="#4db1f0"/>
            <circle id="Elipse_4872" data-name="Elipse 4872" cx="3.5" cy="3.5" r="3.5" transform="translate(441 6168)" fill="#4db1f0"/>
          </g>
        </g>
        <g id="Grupo_999764" data-name="Grupo 999764" transform="translate(176.868 -408.686)">
          <g id="Grupo_896424" data-name="Grupo 896424" transform="translate(808.454 5551.225)">
            <g id="Grupo_896420" data-name="Grupo 896420" transform="translate(67.844 58.997)">
              <path id="Trazado_695719" data-name="Trazado 695719" d="M132.22,481.153a4.372,4.372,0,1,1-4.372-4.372,4.372,4.372,0,0,1,4.372,4.372" transform="translate(-123.476 -476.781)" fill="#087cb8"/>
              <path id="Trazado_695720" data-name="Trazado 695720" d="M132.22,481.153a4.372,4.372,0,1,1-4.372-4.372,4.372,4.372,0,0,1,4.372,4.372" transform="translate(-101.932 -476.781)" fill="#087cb8"/>
              <path id="Trazado_695721" data-name="Trazado 695721" d="M132.22,481.153a4.372,4.372,0,1,1-4.372-4.372,4.372,4.372,0,0,1,4.372,4.372" transform="translate(-80.387 -476.781)" fill="#087cb8"/>
              <path id="Trazado_695722" data-name="Trazado 695722" d="M132.22,530.479a4.372,4.372,0,1,1-4.372-4.372,4.372,4.372,0,0,1,4.372,4.372" transform="translate(-123.476 -507.744)" fill="#087cb8"/>
              <path id="Trazado_695723" data-name="Trazado 695723" d="M132.22,530.479a4.372,4.372,0,1,1-4.372-4.372,4.372,4.372,0,0,1,4.372,4.372" transform="translate(-101.932 -507.744)" fill="#087cb8"/>
              <path id="Trazado_695724" data-name="Trazado 695724" d="M132.22,530.479a4.372,4.372,0,1,1-4.372-4.372,4.372,4.372,0,0,1,4.372,4.372" transform="translate(-80.387 -507.744)" fill="#087cb8"/>
              <path id="Trazado_695725" data-name="Trazado 695725" d="M132.22,579.8a4.372,4.372,0,1,1-4.372-4.372,4.372,4.372,0,0,1,4.372,4.372" transform="translate(-123.476 -538.707)" fill="#087cb8"/>
              <path id="Trazado_695726" data-name="Trazado 695726" d="M132.22,579.8a4.372,4.372,0,1,1-4.372-4.372,4.372,4.372,0,0,1,4.372,4.372" transform="translate(-101.932 -538.707)" fill="#087cb8"/>
              <path id="Trazado_695727" data-name="Trazado 695727" d="M132.22,579.8a4.372,4.372,0,1,1-4.372-4.372,4.372,4.372,0,0,1,4.372,4.372" transform="translate(-80.387 -538.707)" fill="#087cb8"/>
            </g>
            <g id="Grupo_896421" data-name="Grupo 896421" transform="translate(67.844 0)">
              <path id="Trazado_695728" data-name="Trazado 695728" d="M132.22,481.153a4.372,4.372,0,1,1-4.372-4.372,4.372,4.372,0,0,1,4.372,4.372" transform="translate(-123.476 -476.781)" fill="#087cb8"/>
              <path id="Trazado_695729" data-name="Trazado 695729" d="M132.22,481.153a4.372,4.372,0,1,1-4.372-4.372,4.372,4.372,0,0,1,4.372,4.372" transform="translate(-101.932 -476.781)" fill="#087cb8"/>
              <path id="Trazado_695730" data-name="Trazado 695730" d="M132.22,481.153a4.372,4.372,0,1,1-4.372-4.372,4.372,4.372,0,0,1,4.372,4.372" transform="translate(-80.387 -476.781)" fill="#087cb8"/>
              <path id="Trazado_695731" data-name="Trazado 695731" d="M132.22,530.479a4.372,4.372,0,1,1-4.372-4.372,4.372,4.372,0,0,1,4.372,4.372" transform="translate(-123.476 -507.744)" fill="#087cb8"/>
              <path id="Trazado_695732" data-name="Trazado 695732" d="M132.22,530.479a4.372,4.372,0,1,1-4.372-4.372,4.372,4.372,0,0,1,4.372,4.372" transform="translate(-101.932 -507.744)" fill="#087cb8"/>
              <path id="Trazado_695733" data-name="Trazado 695733" d="M132.22,530.479a4.372,4.372,0,1,1-4.372-4.372,4.372,4.372,0,0,1,4.372,4.372" transform="translate(-80.387 -507.744)" fill="#087cb8"/>
              <path id="Trazado_695734" data-name="Trazado 695734" d="M132.22,579.8a4.372,4.372,0,1,1-4.372-4.372,4.372,4.372,0,0,1,4.372,4.372" transform="translate(-123.476 -538.707)" fill="#087cb8"/>
              <path id="Trazado_695735" data-name="Trazado 695735" d="M132.22,579.8a4.372,4.372,0,1,1-4.372-4.372,4.372,4.372,0,0,1,4.372,4.372" transform="translate(-101.932 -538.707)" fill="#087cb8"/>
              <path id="Trazado_695736" data-name="Trazado 695736" d="M132.22,579.8a4.372,4.372,0,1,1-4.372-4.372,4.372,4.372,0,0,1,4.372,4.372" transform="translate(-80.387 -538.707)" fill="#087cb8"/>
            </g>
            <g id="Grupo_896422" data-name="Grupo 896422" transform="translate(0 58.997)">
              <path id="Trazado_695737" data-name="Trazado 695737" d="M132.22,481.153a4.372,4.372,0,1,1-4.372-4.372,4.372,4.372,0,0,1,4.372,4.372" transform="translate(-123.476 -476.781)" fill="#087cb8"/>
              <path id="Trazado_695738" data-name="Trazado 695738" d="M132.22,481.153a4.372,4.372,0,1,1-4.372-4.372,4.372,4.372,0,0,1,4.372,4.372" transform="translate(-101.932 -476.781)" fill="#087cb8"/>
              <path id="Trazado_695739" data-name="Trazado 695739" d="M132.22,481.153a4.372,4.372,0,1,1-4.372-4.372,4.372,4.372,0,0,1,4.372,4.372" transform="translate(-80.387 -476.781)" fill="#087cb8"/>
              <path id="Trazado_695740" data-name="Trazado 695740" d="M132.22,530.479a4.372,4.372,0,1,1-4.372-4.372,4.372,4.372,0,0,1,4.372,4.372" transform="translate(-123.476 -507.744)" fill="#087cb8"/>
              <path id="Trazado_695741" data-name="Trazado 695741" d="M132.22,530.479a4.372,4.372,0,1,1-4.372-4.372,4.372,4.372,0,0,1,4.372,4.372" transform="translate(-101.932 -507.744)" fill="#087cb8"/>
              <path id="Trazado_695742" data-name="Trazado 695742" d="M132.22,530.479a4.372,4.372,0,1,1-4.372-4.372,4.372,4.372,0,0,1,4.372,4.372" transform="translate(-80.387 -507.744)" fill="#087cb8"/>
              <path id="Trazado_695743" data-name="Trazado 695743" d="M132.22,579.8a4.372,4.372,0,1,1-4.372-4.372,4.372,4.372,0,0,1,4.372,4.372" transform="translate(-123.476 -538.707)" fill="#087cb8"/>
              <path id="Trazado_695744" data-name="Trazado 695744" d="M132.22,579.8a4.372,4.372,0,1,1-4.372-4.372,4.372,4.372,0,0,1,4.372,4.372" transform="translate(-101.932 -538.707)" fill="#087cb8"/>
              <path id="Trazado_695745" data-name="Trazado 695745" d="M132.22,579.8a4.372,4.372,0,1,1-4.372-4.372,4.372,4.372,0,0,1,4.372,4.372" transform="translate(-80.387 -538.707)" fill="#087cb8"/>
            </g>
            <g id="Grupo_896423" data-name="Grupo 896423" transform="translate(0 0)">
              <path id="Trazado_695746" data-name="Trazado 695746" d="M132.22,481.153a4.372,4.372,0,1,1-4.372-4.372,4.372,4.372,0,0,1,4.372,4.372" transform="translate(-123.476 -476.781)" fill="#087cb8"/>
              <path id="Trazado_695747" data-name="Trazado 695747" d="M132.22,481.153a4.372,4.372,0,1,1-4.372-4.372,4.372,4.372,0,0,1,4.372,4.372" transform="translate(-101.932 -476.781)" fill="#087cb8"/>
              <path id="Trazado_695748" data-name="Trazado 695748" d="M132.22,481.153a4.372,4.372,0,1,1-4.372-4.372,4.372,4.372,0,0,1,4.372,4.372" transform="translate(-80.387 -476.781)" fill="#087cb8"/>
              <path id="Trazado_695749" data-name="Trazado 695749" d="M132.22,530.479a4.372,4.372,0,1,1-4.372-4.372,4.372,4.372,0,0,1,4.372,4.372" transform="translate(-123.476 -507.744)" fill="#087cb8"/>
              <path id="Trazado_695750" data-name="Trazado 695750" d="M132.22,530.479a4.372,4.372,0,1,1-4.372-4.372,4.372,4.372,0,0,1,4.372,4.372" transform="translate(-101.932 -507.744)" fill="#087cb8"/>
              <path id="Trazado_695751" data-name="Trazado 695751" d="M132.22,530.479a4.372,4.372,0,1,1-4.372-4.372,4.372,4.372,0,0,1,4.372,4.372" transform="translate(-80.387 -507.744)" fill="#087cb8"/>
              <path id="Trazado_695752" data-name="Trazado 695752" d="M132.22,579.8a4.372,4.372,0,1,1-4.372-4.372,4.372,4.372,0,0,1,4.372,4.372" transform="translate(-123.476 -538.707)" fill="#087cb8"/>
              <path id="Trazado_695753" data-name="Trazado 695753" d="M132.22,579.8a4.372,4.372,0,1,1-4.372-4.372,4.372,4.372,0,0,1,4.372,4.372" transform="translate(-101.932 -538.707)" fill="#087cb8"/>
              <path id="Trazado_695754" data-name="Trazado 695754" d="M132.22,579.8a4.372,4.372,0,1,1-4.372-4.372,4.372,4.372,0,0,1,4.372,4.372" transform="translate(-80.387 -538.707)" fill="#087cb8"/>
            </g>
          </g>
          <g id="Grupo_896370" data-name="Grupo 896370" transform="translate(351.807 5331.687)">
            <g id="Grupo_896419" data-name="Grupo 896419" clip-path="url(#clip-path-8)">
              <g id="Grupo_896418" data-name="Grupo 896418">
                <g id="Grupo_896417" data-name="Grupo 896417" clip-path="url(#clip-path-8)">
                  <path id="Trazado_695657" data-name="Trazado 695657" d="M38.557,236.83l12.964,6.8L43.9,235.386c5.251-1.273,9.4-2.156,15.373-3.171l17.264,12.579L65.861,231.1A111.674,111.674,0,0,1,83.023,229.5c6.675,7,14.176,14.078,14.176,14.078l-6.015-14.135a74.679,74.679,0,0,1,22.743,3.8c1.1.4.059-.006,1.1.4l8.922,10.452-1.854-7.642c27.8,12.1,29.113,25.858,29.113,25.858a14,14,0,0,1-1.122,1.274,30.06,30.06,0,0,1-2.619,2.359c-4.531,3.705-13.705,9.463-30.234,13.687l4.638-9.184-10.329,9.215c-1.356.126-2.744.249-4.179.326-4.607.3-4.013.743-8.925-.05l6.593-12.734L91.342,278.888c-2.885-.518-5.8-1.193-8.709-1.993l8.976-10.554-15.568,8.371a95.5,95.5,0,0,1-12.59-4.641l9.456-10.884-16.27,7.627A101.023,101.023,0,0,1,42.8,259.64l9.23-8.258L37.5,257.046c-10.539-6.364-20.7-13.6-20.7-13.6a205.771,205.771,0,0,1,21.758-6.614" transform="translate(6.392 87.297)" fill="#a5e3d7"/>
                  <path id="Trazado_695658" data-name="Trazado 695658" d="M57.272,202.618l10.467,14.059-3.952-12.85c6.327,1.349,11.259,2.543,18.236,4.546L94.136,230.9,89.71,210.586c7.8,2.467,11.947,3.707,19.356,7.162,3.574,11.019,8,22.54,8,22.54l.834-18.371c8.635,4.463,16.462,9.7,22.579,15.884.982,1,.068.025.982,1l4.212,15.9,1.959-9.209c23.73,27.469,18.021,43,18.021,43a16.658,16.658,0,0,1-1.869.792,35.617,35.617,0,0,1-4.05,1.189c-6.811,1.652-19.7,3.112-39.726-.9l9.767-7.508-15.924,4.593c-1.528-.567-3.091-1.154-4.68-1.814-5.126-2.067-4.716-1.278-9.605-4.68l13.715-10.326-20.837,5.523c-2.847-2.053-5.639-4.293-8.368-6.665l15.159-6.74-21.142.968A114.112,114.112,0,0,1,66.913,251.4L82.76,244.55l-21.513-.2a120.765,120.765,0,0,1-11.219-14.916L64.269,225.3,45.658,223.89c-8.076-12.329-15.3-25.411-15.3-25.411a246.771,246.771,0,0,1,26.91,4.139" transform="translate(11.552 75.518)" fill="#cdeee7"/>
                  <path id="Trazado_695659" data-name="Trazado 695659" d="M79.339,168.571l9.76,20.894-1.686-17.607c7.8,3.415,13.834,6.262,22.293,10.693l9.637,32.238-.316-27.349c9.4,5.247,14.411,7.945,23.043,14.363,1.683,15.148,4.336,31.168,4.336,31.168l5.947-23.453c9.942,8.041,18.641,16.867,24.883,26.458,1,1.549.08.048,1,1.549l1.209,21.611,4.968-11.348c23.294,41.691,11.818,60.188,11.818,60.188a21.986,21.986,0,0,1-2.62.525,47.017,47.017,0,0,1-5.534.458c-9.215.322-26.206-1.215-50.954-11.69l14.578-7.085-21.738,1.7c-1.819-1.136-3.676-2.308-5.55-3.58-6.058-4.023-5.737-2.9-11.138-8.577l20.412-9.67-28.315,1.592c-3.124-3.4-6.129-7.027-9.016-10.808l21.32-4.663-27.5-4.36a150.367,150.367,0,0,1-11.352-17.83l22.237-4.619L73.393,223.4c-6.43-11.916-6.038-11.484-10.5-22.2l19.447-1.545L58.733,192.9c-7.138-18.03-12.974-36.8-12.974-36.8s12.565,3.578,33.58,12.468" transform="translate(17.41 59.394)" fill="#a5e3d7"/>
                  <path id="Trazado_695660" data-name="Trazado 695660" d="M153.276,158.372l6.269,22.191,1.171-17.648c7.145,4.626,12.647,8.409,20.282,14.144l4.322,33.368,4.089-27.042c8.433,6.693,12.945,10.16,20.431,17.884-.777,15.221-.739,31.461-.739,31.461l9.645-22.19c8.519,9.536,15.684,19.646,20.3,30.118.737,1.69.072.061.737,1.69L237.5,263.872l6.73-10.4c16.28,44.9,1.977,61.3,1.977,61.3a22.248,22.248,0,0,1-2.671.1,47.437,47.437,0,0,1-5.536-.439c-9.147-1.167-25.669-5.417-48.408-19.74l15.528-4.647-21.727-1.826c-1.612-1.414-3.257-2.869-4.9-4.426-5.33-4.945-5.2-3.783-9.611-10.258l21.7-6.258-28.2-2.986c-2.535-3.86-4.917-7.923-7.158-12.119L177.013,251l-26.44-8.729a150.422,150.422,0,0,1-8.333-19.426l22.691-.979-26.351-10.34c-4.427-12.8-4.11-12.308-6.792-23.6l19.444,1.605-22.212-10.47c-4.143-18.944-6.879-38.409-6.879-38.409s11.825,5.554,31.134,17.712" transform="translate(46.473 53.519)" fill="#cdeee7"/>
                  <path id="Trazado_695667" data-name="Trazado 695667" d="M251.961,281.246v-.355l.119-.052a17.552,17.552,0,0,1,17.492-19.59,17.533,17.533,0,0,1,8.282,2.071,24.905,24.905,0,0,1,35.821-27.033,28.7,28.7,0,0,1,54.887,8.066,17.561,17.561,0,0,1,20.608,8.875,28.7,28.7,0,0,1,38.887,26.831c0,.4-.014.794-.03,1.187Z" transform="translate(95.867 83.291)" fill="#00c4a3"/>
                  <path id="Trazado_695668" data-name="Trazado 695668" d="M253.222,281.246v-.355l-.119-.052a17.552,17.552,0,0,0-17.492-19.59,17.532,17.532,0,0,0-8.281,2.071,24.905,24.905,0,0,0-35.821-27.033,28.7,28.7,0,0,0-54.887,8.066,17.561,17.561,0,0,0-20.608,8.875,28.7,28.7,0,0,0-38.887,26.831c0,.4.014.794.03,1.187Z" transform="translate(29.346 83.291)" fill="#00c4a3"/>
                  <g id="Grupo_896386" data-name="Grupo 896386" transform="translate(211.025 2.014)" opacity="0.4" style="mix-blend-mode: screen;isolation: isolate">
                    <g id="Grupo_896385" data-name="Grupo 896385">
                      <g id="Grupo_896384" data-name="Grupo 896384" clip-path="url(#clip-path-10)">
                        <path id="Trazado_695669" data-name="Trazado 695669" d="M236.024,167.782a83.162,83.162,0,1,1,83.162-83.163,83.256,83.256,0,0,1-83.162,83.163m0-161.63a78.467,78.467,0,1,0,78.468,78.467A78.555,78.555,0,0,0,236.024,6.153" transform="translate(-152.863 -1.459)" fill="#fff"/>
                      </g>
                    </g>
                  </g>
                  <g id="Grupo_896389" data-name="Grupo 896389" transform="translate(226.617 17.608)" opacity="0.4" style="mix-blend-mode: screen;isolation: isolate">
                    <g id="Grupo_896388" data-name="Grupo 896388">
                      <g id="Grupo_896387" data-name="Grupo 896387" clip-path="url(#clip-path-11)">
                        <path id="Trazado_695670" data-name="Trazado 695670" d="M231.726,147.889a67.567,67.567,0,1,1,67.568-67.566,67.644,67.644,0,0,1-67.568,67.566m0-130.44A62.873,62.873,0,1,0,294.6,80.323a62.945,62.945,0,0,0-62.874-62.874" transform="translate(-164.158 -12.755)" fill="#fff"/>
                      </g>
                    </g>
                  </g>
                  <g id="Grupo_896392" data-name="Grupo 896392" transform="translate(242.406 33.395)" opacity="0.4" style="mix-blend-mode: screen;isolation: isolate">
                    <g id="Grupo_896391" data-name="Grupo 896391">
                      <g id="Grupo_896390" data-name="Grupo 896390" clip-path="url(#clip-path-12)">
                        <path id="Trazado_695671" data-name="Trazado 695671" d="M227.374,127.752a51.78,51.78,0,1,1,51.78-51.78,51.839,51.839,0,0,1-51.78,51.78m0-98.866a47.086,47.086,0,1,0,47.087,47.085,47.139,47.139,0,0,0-47.087-47.085" transform="translate(-175.595 -24.191)" fill="#fff"/>
                      </g>
                    </g>
                  </g>
                  <g id="Grupo_896395" data-name="Grupo 896395" transform="translate(258.354 49.345)" opacity="0.4" style="mix-blend-mode: screen;isolation: isolate">
                    <g id="Grupo_896394" data-name="Grupo 896394">
                      <g id="Grupo_896393" data-name="Grupo 896393" clip-path="url(#clip-path-13)">
                        <path id="Trazado_695672" data-name="Trazado 695672" d="M222.978,107.406a35.83,35.83,0,1,1,35.83-35.83,35.872,35.872,0,0,1-35.83,35.83m0-66.967a31.137,31.137,0,1,0,31.137,31.137,31.171,31.171,0,0,0-31.137-31.137" transform="translate(-187.148 -35.745)" fill="#fff"/>
                      </g>
                    </g>
                  </g>
                  <g id="Grupo_896398" data-name="Grupo 896398" transform="translate(272.75 63.74)" opacity="0.4" style="mix-blend-mode: screen;isolation: isolate">
                    <g id="Grupo_896397" data-name="Grupo 896397">
                      <g id="Grupo_896396" data-name="Grupo 896396" clip-path="url(#clip-path-14)">
                        <path id="Trazado_695673" data-name="Trazado 695673" d="M219.011,89.044a21.436,21.436,0,1,1,21.436-21.437,21.46,21.46,0,0,1-21.436,21.438m0-38.179a16.742,16.742,0,1,0,16.742,16.741,16.76,16.76,0,0,0-16.742-16.741" transform="translate(-197.576 -46.172)" fill="#fff"/>
                      </g>
                    </g>
                  </g>
                  <g id="Grupo_896401" data-name="Grupo 896401" transform="translate(285.892 76.883)" opacity="0.4" style="mix-blend-mode: screen;isolation: isolate">
                    <g id="Grupo_896400" data-name="Grupo 896400">
                      <g id="Grupo_896399" data-name="Grupo 896399" clip-path="url(#clip-path-15)">
                        <path id="Trazado_695674" data-name="Trazado 695674" d="M215.389,72.278a8.293,8.293,0,1,1,8.294-8.293,8.3,8.3,0,0,1-8.294,8.293m0-11.891a3.6,3.6,0,1,0,3.6,3.6,3.6,3.6,0,0,0-3.6-3.6" transform="translate(-207.096 -55.693)" fill="#fff"/>
                      </g>
                    </g>
                  </g>
                  <path id="Trazado_695675" data-name="Trazado 695675" d="M446.086,289.522H100.519a10.832,10.832,0,0,1-10.833-10.833V56.62a10.832,10.832,0,0,1,10.833-10.833H446.086A10.832,10.832,0,0,1,456.919,56.62v222.07a10.832,10.832,0,0,1-10.833,10.833" transform="translate(34.124 17.421)" fill="#004456"/>
                  <path id="Trazado_695676" data-name="Trazado 695676" d="M446.731,54.427V276.494a2.848,2.848,0,0,1-2.855,2.834H98.314a2.83,2.83,0,0,1-2.834-2.834V54.427a2.848,2.848,0,0,1,2.834-2.855H443.876a2.866,2.866,0,0,1,2.855,2.855" transform="translate(36.328 19.622)" fill="#e0f4ff"/>
                  <rect id="Rectángulo_344411" data-name="Rectángulo 344411" width="58.393" height="48.442" transform="translate(278.236 306.943)" fill="#3c7581"/>
                  <rect id="Rectángulo_344412" data-name="Rectángulo 344412" width="129.805" height="9.153" transform="translate(242.523 355.384)" fill="#004456"/>
                  <rect id="Rectángulo_344413" data-name="Rectángulo 344413" width="58.393" height="19.913" transform="translate(278.236 306.942)" fill="#005a67"/>
                  <path id="Trazado_695677" data-name="Trazado 695677" d="M446.731,54.427v28.8H95.48v-28.8a2.848,2.848,0,0,1,2.834-2.855H443.876a2.866,2.866,0,0,1,2.855,2.855" transform="translate(36.328 19.622)" fill="#ed9aa9"/>
                  <path id="Trazado_695678" data-name="Trazado 695678" d="M114.716,64.324a4.661,4.661,0,1,1-4.662-4.662,4.662,4.662,0,0,1,4.662,4.662" transform="translate(40.101 22.7)" fill="#00c4a3"/>
                  <path id="Trazado_695679" data-name="Trazado 695679" d="M127.021,64.324a4.661,4.661,0,1,1-4.662-4.662,4.662,4.662,0,0,1,4.662,4.662" transform="translate(44.782 22.7)" fill="#ffd175"/>
                  <path id="Trazado_695680" data-name="Trazado 695680" d="M139.327,64.324a4.661,4.661,0,1,1-4.662-4.662,4.662,4.662,0,0,1,4.662,4.662" transform="translate(49.465 22.7)" fill="#ff894f"/>
                  <rect id="Rectángulo_344414" data-name="Rectángulo 344414" width="192.82" height="11.818" transform="translate(211.023 81.114)" fill="#fff"/>
                  <rect id="Rectángulo_344415" data-name="Rectángulo 344415" width="225.927" height="32.999" transform="translate(194.47 118.26)" fill="#fff"/>
                  <rect id="Rectángulo_344416" data-name="Rectángulo 344416" width="39.899" height="32.999" transform="translate(380.498 118.26)" fill="#004456"/>
                  <path id="Trazado_695681" data-name="Trazado 695681" d="M291.184,108.488a9.764,9.764,0,1,1,6.909-2.858,9.742,9.742,0,0,1-6.909,2.858m-4.066-5.7a5.892,5.892,0,0,0,8.132,0,5.747,5.747,0,0,0,0-8.13,5.892,5.892,0,0,0-8.132,0,5.759,5.759,0,0,0,0,8.13" transform="translate(107.075 33.848)" fill="#fff"/>
                  <rect id="Rectángulo_344417" data-name="Rectángulo 344417" width="4.02" height="10.228" transform="matrix(0.707, -0.707, 0.707, 0.707, 402.326, 139.478)" fill="#fff"/>
                  <rect id="Rectángulo_344418" data-name="Rectángulo 344418" width="105.499" height="6.365" transform="translate(154.817 170.549)" fill="#fff"/>
                  <rect id="Rectángulo_344419" data-name="Rectángulo 344419" width="191.596" height="6.365" transform="translate(154.816 189.564)" fill="#fff"/>
                  <rect id="Rectángulo_344420" data-name="Rectángulo 344420" width="195.098" height="6.365" transform="translate(154.817 246.612)" fill="#fff"/>
                  <rect id="Rectángulo_344421" data-name="Rectángulo 344421" width="33.223" height="6.365" transform="translate(154.816 227.596)" fill="#fff"/>
                  <rect id="Rectángulo_344422" data-name="Rectángulo 344422" width="33.223" height="6.365" transform="translate(208.774 227.596)" fill="#fff"/>
                  <rect id="Rectángulo_344423" data-name="Rectángulo 344423" width="33.223" height="6.365" transform="translate(316.692 227.596)" fill="#f0e7d6"/>
                  <rect id="Rectángulo_344424" data-name="Rectángulo 344424" width="61.293" height="6.365" transform="translate(248.698 227.596)" fill="#fff"/>
                  <rect id="Rectángulo_344425" data-name="Rectángulo 344425" width="52.75" height="6.365" transform="translate(154.817 208.58)" fill="#fff"/>
                  <rect id="Rectángulo_344426" data-name="Rectángulo 344426" width="52.75" height="6.365" transform="translate(218.425 208.58)" fill="#fff"/>
                  <rect id="Rectángulo_344427" data-name="Rectángulo 344427" width="141.429" height="6.365" transform="translate(282.034 208.58)" fill="#fff"/>
                  <rect id="Rectángulo_344429" data-name="Rectángulo 344429" width="77.658" height="91.762" transform="translate(92.98 187.362)" fill="#006597"/>
                  <rect id="Rectángulo_344430" data-name="Rectángulo 344430" width="65.319" height="41.96" transform="translate(99.149 193.441)" fill="#fff"/>
                  <rect id="Rectángulo_344431" data-name="Rectángulo 344431" width="77.658" height="38.271" transform="translate(92.98 240.853)" fill="#fff"/>
                  <rect id="Rectángulo_344432" data-name="Rectángulo 344432" width="49.372" height="5.714" transform="translate(99.123 247.827)" fill="#0098e8"/>
                  <rect id="Rectángulo_344433" data-name="Rectángulo 344433" width="57.639" height="3.996" transform="translate(99.124 256.799)" fill="#f0e7d6"/>
                  <rect id="Rectángulo_344434" data-name="Rectángulo 344434" width="42.796" height="3.998" transform="translate(99.124 264.053)" fill="#f0e7d6"/>
                  <rect id="Rectángulo_344435" data-name="Rectángulo 344435" width="77.658" height="91.762" transform="translate(187.788 113.604)" fill="#ff894f"/>
                  <rect id="Rectángulo_344436" data-name="Rectángulo 344436" width="65.319" height="41.96" transform="translate(193.958 119.684)" fill="#fff"/>
                  <rect id="Rectángulo_344437" data-name="Rectángulo 344437" width="77.658" height="38.271" transform="translate(187.788 167.095)" fill="#fff"/>
                  <path id="Trazado_695718" data-name="Trazado 695718" d="M0,0H49.372V5.714H0Z" transform="translate(193.931 174.069)" fill="#ffa031"/>
                  <rect id="Rectángulo_344439" data-name="Rectángulo 344439" width="57.641" height="3.997" transform="translate(193.932 183.041)" fill="#f0e7d6"/>
                  <rect id="Rectángulo_344440" data-name="Rectángulo 344440" width="42.796" height="3.996" transform="translate(193.933 190.297)" fill="#f0e7d6"/>
                  <g id="Grupo_999815" data-name="Grupo 999815" transform="translate(-7)">
                    <g id="Grupo_896403" data-name="Grupo 896403" transform="translate(520.49 63.208)">
                      <g id="Grupo_896402" data-name="Grupo 896402" clip-path="url(#clip-path-16)">
                        <rect id="Rectángulo_344441" data-name="Rectángulo 344441" width="50.007" height="8.955" fill="#fff"/>
                      </g>
                    </g>
                    <g id="Grupo_896407" data-name="Grupo 896407" transform="translate(520.49 78.109)" opacity="0.5">
                      <g id="Grupo_896406" data-name="Grupo 896406">
                        <g id="Grupo_896405" data-name="Grupo 896405" clip-path="url(#clip-path-17)">
                          <rect id="Rectángulo_344443" data-name="Rectángulo 344443" width="50.007" height="8.955" transform="translate(0 0.001)" fill="#fff"/>
                        </g>
                      </g>
                    </g>
                    <g id="Grupo_896410" data-name="Grupo 896410" transform="translate(520.49 93.011)" opacity="0.5">
                      <g id="Grupo_896409" data-name="Grupo 896409">
                        <g id="Grupo_896408" data-name="Grupo 896408" clip-path="url(#clip-path-16)">
                          <rect id="Rectángulo_344445" data-name="Rectángulo 344445" width="50.007" height="8.957" transform="translate(0 -0.001)" fill="#fff"/>
                        </g>
                      </g>
                    </g>
                  </g>
                  <path id="Trazado_695682" data-name="Trazado 695682" d="M576.325,264.065v6.272H3.136a3.136,3.136,0,1,1,0-6.272Z" transform="translate(0 100.472)" fill="#ff6d50"/>
                  <path id="Trazado_695683" data-name="Trazado 695683" d="M59.424,57.261A17.782,17.782,0,0,0,41.642,75.043c0,9.821,17.782,35.044,17.782,35.044S77.206,84.864,77.206,75.043A17.782,17.782,0,0,0,59.424,57.261m0,26.667a8.885,8.885,0,1,1,8.885-8.885,8.885,8.885,0,0,1-8.885,8.885" transform="translate(15.844 -33.203)" fill="#8b172b"/>
                  <path id="Trazado_695684" data-name="Trazado 695684" d="M316.187,4.859A13.327,13.327,0,0,0,302.86,18.186c0,7.361,13.327,26.265,13.327,26.265s13.327-18.9,13.327-26.265A13.327,13.327,0,0,0,316.187,4.859m0,19.987a6.659,6.659,0,1,1,6.659-6.659,6.66,6.66,0,0,1-6.659,6.659" transform="translate(115.233 1.849)" fill="#006597"/>
                  <path id="Trazado_695685" data-name="Trazado 695685" d="M323.014,121.089s-7.51-1.768-10.29-2.867-11.406-46.975-11.406-46.975l10.1-2.265,10.761,34.5,4.376.595Z" transform="translate(114.646 26.246)" fill="#fff"/>
                  <path id="Trazado_695686" data-name="Trazado 695686" d="M337.1,95.818,321.288,92.71l-4.861,23.383,13.653,3.6Z" transform="translate(120.395 35.275)" fill="#055077"/>
                  <rect id="Rectángulo_344447" data-name="Rectángulo 344447" width="11.074" height="87.981" transform="matrix(0.891, -0.454, 0.454, 0.891, 398.974, 173.46)" fill="#005a67"/>
                  <rect id="Rectángulo_344448" data-name="Rectángulo 344448" width="11.074" height="72.527" transform="matrix(0.891, -0.454, 0.454, 0.891, 405.985, 187.232)" fill="#3c7581"/>
                  <path id="Trazado_695687" data-name="Trazado 695687" d="M266.682,58.6a54,54,0,1,0,72.623,23.623A54,54,0,0,0,266.682,58.6m44.746,87.89a44.629,44.629,0,1,1,19.531-60.016,44.623,44.623,0,0,1-19.531,60.016" transform="translate(90.239 20.056)" fill="#934855"/>
                  <g id="Grupo_896413" data-name="Grupo 896413" transform="translate(336.785 82.141)" opacity="0.5">
                    <g id="Grupo_896412" data-name="Grupo 896412">
                      <g id="Grupo_896411" data-name="Grupo 896411" clip-path="url(#clip-path-19)">
                        <path id="Trazado_695688" data-name="Trazado 695688" d="M328.374,83.9A44.629,44.629,0,1,1,268.348,64.37,44.63,44.63,0,0,1,328.374,83.9" transform="translate(-243.962 -59.502)" fill="#aae0e9"/>
                      </g>
                    </g>
                  </g>
                  <g id="Grupo_896416" data-name="Grupo 896416" transform="translate(374.247 86.177)" opacity="0.5" style="mix-blend-mode: screen;isolation: isolate">
                    <g id="Grupo_896415" data-name="Grupo 896415">
                      <g id="Grupo_896414" data-name="Grupo 896414" clip-path="url(#clip-path-20)">
                        <path id="Trazado_695689" data-name="Trazado 695689" d="M305.626,73.135A35.807,35.807,0,0,0,275.878,62.7c-6.332.791-6.411,10.852,0,10.05,8.582-1.074,16.475,1.345,22.641,7.5,4.585,4.574,11.694-2.532,7.107-7.107" transform="translate(-271.099 -62.425)" fill="#aae0e9"/>
                      </g>
                    </g>
                  </g>
                  <path id="Trazado_695690" data-name="Trazado 695690" d="M345.474,268.717l-.2-4.408-.091-1.9-.44-10.918-18.331.4c-1.821,4.2-6.708,9.8-19.764,11.534a2.7,2.7,0,0,0-1.045.373,9.317,9.317,0,0,0-2.807,3.477,15.671,15.671,0,0,0-.715,1.443Z" transform="translate(114.934 95.687)" fill="#985943"/>
                  <path id="Trazado_695691" data-name="Trazado 695691" d="M345.474,265.325l-.2-4.408L305.6,260.4a9.317,9.317,0,0,0-2.807,3.477,15.671,15.671,0,0,0-.715,1.443Z" transform="translate(114.934 99.079)" fill="#fff"/>
                  <path id="Trazado_695692" data-name="Trazado 695692" d="M340.63,291.777l-21.675-1.594c-1.828-15.55-5.875-81.584,16.814-134.931l26.05,5.414s-28.348,65.486-21.189,131.111" transform="translate(120.788 59.071)" fill="#686a75"/>
                  <path id="Trazado_695693" data-name="Trazado 695693" d="M347.206,272.177l43.056-7.068-.988-4.707-.395-1.862L386.7,247.832l-18.031,3.33c-1.125,4.437-5.053,10.75-17.665,14.549a2.7,2.7,0,0,0-.97.536,9.324,9.324,0,0,0-2.214,3.882,17.821,17.821,0,0,0-.61,2.049" transform="translate(132.106 94.296)" fill="#985943"/>
                  <path id="Trazado_695694" data-name="Trazado 695694" d="M347.206,268.713l43.056-7.068-.988-4.707-39.243,5.845a9.325,9.325,0,0,0-2.214,3.882,17.818,17.818,0,0,0-.61,2.049" transform="translate(132.106 97.76)" fill="#fff"/>
                  <path id="Trazado_695695" data-name="Trazado 695695" d="M389.75,284.176l-21.17,4.919c-6.367-14.3-29.857-76.15-24.048-133.831l26.482-2.572s-7.6,70.953,18.736,131.484" transform="translate(130.74 58.097)" fill="#686a75"/>
                  <path id="Trazado_695696" data-name="Trazado 695696" d="M378.242,180.349a159.781,159.781,0,0,1-21.83,5.193,78.213,78.213,0,0,1-17.369,1.092,30.136,30.136,0,0,1-7.941-1.43c-.244-.076-.414-2.993-.451-3.255-.358-2.766-.734-5.552-1.092-8.319q-1.468-11.093-2.86-22.223a177.608,177.608,0,0,1-.526-43.564,16.4,16.4,0,0,1,7.64-12.025,16.1,16.1,0,0,1,2.786-1.393l15.43-1.712a24.516,24.516,0,0,1,7.245,1.092,16.666,16.666,0,0,1,9.184,6.416c2.991,4.478,8.374,49.6,9.785,80.127" transform="translate(123.684 35.274)" fill="#055077"/>
                  <path id="Trazado_695697" data-name="Trazado 695697" d="M356.963,93.8c-5.551,3.575-20.147,16.2-22.837,15.954-2.372-.244-3.639-9.857-2.623-13.941a15.988,15.988,0,0,1,2.784-1.392l15.431-1.713a24.517,24.517,0,0,1,7.245,1.092" transform="translate(125.996 35.274)" fill="#ffb485"/>
                  <path id="Trazado_695698" data-name="Trazado 695698" d="M350.028,100.725,334.45,105.04l-.87-7.805-1.516-13.556,15.871-3.226,1.125,10.906Z" transform="translate(126.345 30.611)" fill="#ffb485"/>
                  <path id="Trazado_695699" data-name="Trazado 695699" d="M349.062,91.359c-4.021,2.906-11.57,6.872-15.272,7.754l-1.724-15.434,15.873-3.226Z" transform="translate(126.345 30.611)" fill="#ff9b70"/>
                  <path id="Trazado_695700" data-name="Trazado 695700" d="M329.291,68.726s-3.156,1.392-3.519,3.943S324,95.5,332.59,100.6c5.425,3.221,17.676-8.072,18.816-11.3s-2.163-18.4-4.684-19.78-8.3-6.052-17.431-.788" transform="translate(123.832 25.22)" fill="#ffb485"/>
                  <path id="Trazado_695701" data-name="Trazado 695701" d="M325.62,74.23s11.5.6,17.88-1.931l5.094,14.08s-.727-6.055,2.956-5.892c0,0,.994-16.5-14.106-16.1-12.377-.006-11.824,9.841-11.824,9.841" transform="translate(123.891 24.496)" fill="#3d4051"/>
                  <path id="Trazado_695702" data-name="Trazado 695702" d="M352.741,76.493l-26.872-4.779a12.424,12.424,0,0,1,.846-2.2A13.73,13.73,0,0,1,352.7,74.122a14.334,14.334,0,0,1,.037,2.372" transform="translate(123.987 23.52)" fill="#fff"/>
                  <path id="Trazado_695703" data-name="Trazado 695703" d="M364.052,74.033l-.414,2.276-10.9-1.938-26.872-4.779a12.429,12.429,0,0,1,.848-2.2L352.7,72Z" transform="translate(123.987 25.641)" fill="#e8d9ba"/>
                  <path id="Trazado_695704" data-name="Trazado 695704" d="M326.787,74.107s-6.084-1.989-3.672-7.693L326.567,71s-3.041-3.35-.983-6.292l5.152,7.881Z" transform="translate(122.724 24.619)" fill="#3d4051"/>
                  <path id="Trazado_695705" data-name="Trazado 695705" d="M327.631,84.555c-2.532-.229-.505-2.47.094-3.639a7.317,7.317,0,0,0,.765-3c.039-.725-1.085-.915-1.124-.184a6.457,6.457,0,0,1-1.2,3.549,4.075,4.075,0,0,0-1.074,2,2.356,2.356,0,0,0,2.358,2.4c.726.066.915-1.057.184-1.124" transform="translate(123.688 29.4)" fill="#ff9b70"/>
                  <path id="Trazado_695706" data-name="Trazado 695706" d="M329.853,78.185a1.413,1.413,0,1,0,.984-1.739,1.413,1.413,0,0,0-.984,1.739" transform="translate(125.484 29.066)" fill="#3d4051"/>
                  <path id="Trazado_695707" data-name="Trazado 695707" d="M334.1,82.492a3.192,3.192,0,1,0,2.223-3.929,3.19,3.19,0,0,0-2.223,3.929" transform="translate(127.075 29.847)" fill="#ff9b70"/>
                  <path id="Trazado_695708" data-name="Trazado 695708" d="M335.821,74.869a2.872,2.872,0,0,0-2.78-2.174,5.115,5.115,0,0,0-1.833.358,4.855,4.855,0,0,0-2.728,2.762,9.4,9.4,0,0,1,7.376-.8c-.01-.047-.022-.1-.034-.148" transform="translate(124.981 27.659)" fill="#3d4051"/>
                  <path id="Trazado_695709" data-name="Trazado 695709" d="M347.989,82.055c-.726,2.645-3.021,4.331-5.17,3.832l-.941-8.932a3.853,3.853,0,0,1,3.484-.874c2.187.6,3.367,3.276,2.627,5.973" transform="translate(130.078 28.901)" fill="#ff9b70"/>
                  <path id="Trazado_695710" data-name="Trazado 695710" d="M329.5,86.849a6.154,6.154,0,0,0,5.214-1.47c.682-.634-.294-1.6-.983-.957a4.4,4.4,0,0,1-3.709,1.158c-.939-.157-1.467,1.111-.522,1.269" transform="translate(125.178 32.041)" fill="#ff9b70"/>
                  <path id="Trazado_695711" data-name="Trazado 695711" d="M342.667,134.663,310.676,145.6l2.34,11.976s32.945-6.958,36.838-8.491c3.1-1.219,13.242-10.029,21.368-17.355L357.3,117.581c-5.062,5.62-10.924,12.3-14.632,17.082" transform="translate(118.207 44.737)" fill="#fff"/>
                  <path id="Trazado_695712" data-name="Trazado 695712" d="M316.31,138.018s-13.38-1.118-13.9-.026,2.606,3.366,2.606,3.366-7.7.385-9.14,1.186c0,0,1.236,4.982,2.847,5.733,0,0,5,7.557,8.018,6.588s11.914-4.87,11.914-4.87Z" transform="translate(112.574 52.321)" fill="#ffb485"/>
                  <path id="Trazado_695713" data-name="Trazado 695713" d="M341.878,124.778l18.693,17.995s.509-.736,1.475-2.253c2.923-4.586,10.35-17.176,9.228-24.563-1.411-9.291-6.046-16.9-13.961-21.034Z" transform="translate(130.078 36.116)" fill="#055077"/>
                  <path id="Trazado_695714" data-name="Trazado 695714" d="M364.886,130.769a28.736,28.736,0,0,1-5.044,6.124q-8.268-7.011-15.853-14.757a69.451,69.451,0,0,1,15.345-18.342c.925-.783-.41-2.108-1.331-1.331a70.912,70.912,0,0,0-15.688,18.8.942.942,0,0,0-.349,1.53q8.132,8.364,17.05,15.88a.941.941,0,0,0,.718.229.905.905,0,0,0,.921-.184,30.522,30.522,0,0,0,5.855-7c.634-1.037-.994-1.982-1.623-.95" transform="translate(130.01 38.895)" fill="#043e5d"/>
                  <path id="Trazado_695715" data-name="Trazado 695715" d="M329.686,96.857a45.433,45.433,0,0,0-4.67,18.156c-.055,1.211,1.826,1.208,1.882,0a42.944,42.944,0,0,1,4.413-17.206c.533-1.082-1.089-2.038-1.625-.95" transform="translate(123.662 36.67)" fill="#043e5d"/>
                  <path id="Trazado_695716" data-name="Trazado 695716" d="M306.736,60.83s-8.879,3.352-8.351,4.587,4.939.316,4.939.316-3.586,2.154-2.94,3.094,4.764-.235,4.764-.235-3,1.528-2.706,2.7,4.822,0,4.822,0-3.234,1.647-2.881,2.588,7.609-1.314,8.156-1.8.57-4.605,0-7.076-5.8-4.175-5.8-4.175" transform="translate(113.522 23.145)" fill="#ffb485"/>
                  <path id="Trazado_695717" data-name="Trazado 695717" d="M229.648,206.24l6.672-41.461-41.461,6.672,8.49,8.49L179.2,204.086l17.81,17.81,24.146-24.146Z" transform="translate(68.183 62.695)" fill="#934855"/>
                </g>
              </g>
            </g>
          </g>
          <path id="Rectángulo_344400-2" data-name="Rectángulo 344400" d="M0,0H225.243a0,0,0,0,1,0,0V1.609a28,28,0,0,1-28,28H0a0,0,0,0,1,0,0V0A0,0,0,0,1,0,0Z" transform="translate(475.532 5489.25)" fill="#636363" opacity="0.5"/>
          <g id="Grupo_896371" data-name="Grupo 896371" transform="translate(318.566 5432.004)">
            <g id="Grupo_896370-2" data-name="Grupo 896370" clip-path="url(#clip-path-21)">
              <path id="Trazado_695651" data-name="Trazado 695651" d="M372.01,5H36.06a31.06,31.06,0,1,0,0,62.12H372.01a31.06,31.06,0,0,0,0-62.12" transform="translate(0.287 0.287)" fill="#fff"/>
              <path id="Trazado_695652" data-name="Trazado 695652" d="M372.01,5H36.06a31.06,31.06,0,1,0,0,62.12H372.01a31.06,31.06,0,0,0,0-62.12Z" transform="translate(0.287 0.287)" fill="none" stroke="#fff" stroke-miterlimit="10" stroke-width="10"/>
              <path id="Trazado_695653" data-name="Trazado 695653" d="M356.551,5H273.965V67.12h82.586a31.06,31.06,0,0,0,0-62.12" transform="translate(15.747 0.287)" fill="#055077"/>
              <path id="Trazado_695654" data-name="Trazado 695654" d="M344.1,53.593a3.612,3.612,0,0,1-5.11,0l-6.376-6.376a16.934,16.934,0,1,1,5.11-5.108l6.376,6.376a3.611,3.611,0,0,1,0,5.108M323.544,21a12.043,12.043,0,1,0,12.043,12.044A12.045,12.045,0,0,0,323.544,21" transform="translate(17.627 0.93)" fill="#fff"/>
              <path id="Trazado_695655" data-name="Trazado 695655" d="M330.169,102.445l-46.53-47.193-2.12,66.24,16.566-13.056,9.216,23.538,11.057-4.329-9.216-23.537Z" transform="translate(16.181 3.176)" fill="#444058"/>
              <path id="Trazado_695656" data-name="Trazado 695656" d="M330.169,102.445l-46.53-47.193-2.12,66.24,16.566-13.056,9.216,23.538,11.057-4.329-9.216-23.537Z" transform="translate(16.181 3.176)" fill="none" stroke="#fff" stroke-miterlimit="10" stroke-width="3.804"/>
            </g>
          </g>
        </g>
      </g>
      <g id="Grupo_999813" data-name="Grupo 999813" transform="translate(-416.6 -1107.687)">
        <rect id="Rectángulo_344395" data-name="Rectángulo 344395" width="269" height="47" rx="23.5" transform="translate(915 6201.687)" fill="#112e4c"/>
        <path id="Trazado_715340" data-name="Trazado 715340" d="M8.933,5.914l3.1,8.766,3.088-8.766H18.4V18H15.9V14.7l.249-5.7L12.884,18h-1.71L7.92,9,8.169,14.7V18H5.679V5.914ZM20.04,13.426a5.327,5.327,0,0,1,.515-2.382,3.768,3.768,0,0,1,1.482-1.619,4.323,4.323,0,0,1,2.245-.573,4.09,4.09,0,0,1,2.968,1.112,4.464,4.464,0,0,1,1.282,3.021l.017.614a4.694,4.694,0,0,1-1.154,3.316,4.011,4.011,0,0,1-3.1,1.249,4.031,4.031,0,0,1-3.1-1.245,4.777,4.777,0,0,1-1.158-3.387Zm2.4.174a3.348,3.348,0,0,0,.481,1.955,1.731,1.731,0,0,0,2.739.008,3.664,3.664,0,0,0,.49-2.137,3.315,3.315,0,0,0-.49-1.942,1.593,1.593,0,0,0-1.378-.689,1.567,1.567,0,0,0-1.361.685A3.725,3.725,0,0,0,22.438,13.6ZM32.9,6.811V9.019h1.536v1.76H32.9v4.482a1.07,1.07,0,0,0,.191.714.959.959,0,0,0,.73.216,3.826,3.826,0,0,0,.706-.058V17.95a4.939,4.939,0,0,1-1.453.216A2.29,2.29,0,0,1,30.5,15.618V10.778H29.187V9.019H30.5V6.811Zm2.25,6.616a5.327,5.327,0,0,1,.515-2.382,3.767,3.767,0,0,1,1.482-1.619,4.323,4.323,0,0,1,2.245-.573,4.09,4.09,0,0,1,2.968,1.112,4.464,4.464,0,0,1,1.282,3.021l.017.614A4.694,4.694,0,0,1,42.5,16.917a4.472,4.472,0,0,1-6.2,0,4.777,4.777,0,0,1-1.158-3.387Zm2.4.174a3.348,3.348,0,0,0,.481,1.955,1.731,1.731,0,0,0,2.739.008,3.664,3.664,0,0,0,.49-2.137,3.315,3.315,0,0,0-.49-1.942,1.593,1.593,0,0,0-1.378-.689,1.567,1.567,0,0,0-1.361.685A3.725,3.725,0,0,0,37.546,13.6ZM50.18,11.268a6.517,6.517,0,0,0-.863-.066,1.757,1.757,0,0,0-1.785.921V18h-2.4V9.019H47.4l.066,1.071a2.223,2.223,0,0,1,2-1.237,2.514,2.514,0,0,1,.747.108Zm5.288,6.9a4.409,4.409,0,0,1-3.217-1.212,4.308,4.308,0,0,1-1.241-3.229v-.232a5.426,5.426,0,0,1,.523-2.42,3.838,3.838,0,0,1,1.482-1.644A4.159,4.159,0,0,1,55.2,8.853a3.727,3.727,0,0,1,2.9,1.162,4.722,4.722,0,0,1,1.058,3.3v.979H53.442a2.229,2.229,0,0,0,.7,1.411,2.12,2.12,0,0,0,1.482.531,2.589,2.589,0,0,0,2.167-1l1.179,1.32a3.6,3.6,0,0,1-1.461,1.191A4.793,4.793,0,0,1,55.467,18.166Zm-.274-7.371a1.5,1.5,0,0,0-1.158.481,2.487,2.487,0,0,0-.569,1.378H56.8v-.191a1.773,1.773,0,0,0-.432-1.233A1.55,1.55,0,0,0,55.193,10.795Zm10.193,4.723a.773.773,0,0,0-.436-.693,4.95,4.95,0,0,0-1.4-.452q-3.2-.672-3.2-2.723a2.468,2.468,0,0,1,.992-2,4,4,0,0,1,2.594-.8,4.307,4.307,0,0,1,2.735.805,2.538,2.538,0,0,1,1.025,2.092H65.3a1.161,1.161,0,0,0-.332-.851,1.405,1.405,0,0,0-1.038-.336,1.436,1.436,0,0,0-.938.274.865.865,0,0,0-.332.7.739.739,0,0,0,.378.643,3.885,3.885,0,0,0,1.274.423,10.407,10.407,0,0,1,1.511.4,2.482,2.482,0,0,1,1.9,2.416,2.343,2.343,0,0,1-1.054,1.988,4.548,4.548,0,0,1-2.723.76,4.75,4.75,0,0,1-2-.4,3.363,3.363,0,0,1-1.374-1.1,2.565,2.565,0,0,1-.5-1.515H62.34a1.252,1.252,0,0,0,.473.979,1.877,1.877,0,0,0,1.179.34,1.737,1.737,0,0,0,1.042-.261A.814.814,0,0,0,65.387,15.518Zm7.736-2.075a5.413,5.413,0,0,1,.942-3.345,3.057,3.057,0,0,1,2.577-1.245,2.751,2.751,0,0,1,2.167.979V5.25h2.407V18H79.05l-.116-.955a2.823,2.823,0,0,1-2.308,1.121,3.049,3.049,0,0,1-2.544-1.249A5.587,5.587,0,0,1,73.123,13.443Zm2.4.174a3.536,3.536,0,0,0,.44,1.934,1.434,1.434,0,0,0,1.278.672,1.605,1.605,0,0,0,1.569-.938V11.741a1.582,1.582,0,0,0-1.552-.938Q75.522,10.8,75.522,13.617Zm11.688,4.549a4.409,4.409,0,0,1-3.217-1.212,4.308,4.308,0,0,1-1.241-3.229v-.232a5.426,5.426,0,0,1,.523-2.42,3.838,3.838,0,0,1,1.482-1.644,4.159,4.159,0,0,1,2.187-.577,3.727,3.727,0,0,1,2.9,1.162,4.722,4.722,0,0,1,1.058,3.3v.979H85.184a2.229,2.229,0,0,0,.7,1.411,2.12,2.12,0,0,0,1.482.531,2.589,2.589,0,0,0,2.167-1l1.179,1.32a3.6,3.6,0,0,1-1.461,1.191A4.793,4.793,0,0,1,87.209,18.166Zm-.274-7.371a1.5,1.5,0,0,0-1.158.481,2.487,2.487,0,0,0-.569,1.378h3.337v-.191a1.773,1.773,0,0,0-.432-1.233A1.55,1.55,0,0,0,86.936,10.795Zm17.656,2.8a5.439,5.439,0,0,1-.921,3.366,3.052,3.052,0,0,1-2.573,1.208,2.8,2.8,0,0,1-2.333-1.121L98.656,18H96.5V5.25h2.4V9.824a2.732,2.732,0,0,1,2.183-.971,3.077,3.077,0,0,1,2.577,1.208,5.446,5.446,0,0,1,.934,3.4Zm-2.4-.174a3.573,3.573,0,0,0-.432-1.988,1.46,1.46,0,0,0-1.287-.627,1.582,1.582,0,0,0-1.577.938v3.544a1.6,1.6,0,0,0,1.594.946,1.481,1.481,0,0,0,1.527-1.146A5.909,5.909,0,0,0,102.192,13.418Zm9.255,3.669a3.008,3.008,0,0,1-2.457,1.079,2.837,2.837,0,0,1-2.2-.83,3.543,3.543,0,0,1-.776-2.432V9.019h2.4v5.8q0,1.4,1.278,1.4a1.733,1.733,0,0,0,1.677-.847V9.019h2.407V18h-2.258ZM110.377,5.25h2.615l-2.3,2.573h-1.951Zm10.069,10.268a.773.773,0,0,0-.436-.693,4.95,4.95,0,0,0-1.4-.452q-3.2-.672-3.2-2.723a2.468,2.468,0,0,1,.992-2,4,4,0,0,1,2.594-.8,4.307,4.307,0,0,1,2.735.805,2.538,2.538,0,0,1,1.025,2.092h-2.4a1.161,1.161,0,0,0-.332-.851,1.405,1.405,0,0,0-1.038-.336,1.436,1.436,0,0,0-.938.274.865.865,0,0,0-.332.7.739.739,0,0,0,.378.643,3.885,3.885,0,0,0,1.274.423,10.407,10.407,0,0,1,1.511.4,2.482,2.482,0,0,1,1.9,2.416,2.343,2.343,0,0,1-1.054,1.988,4.548,4.548,0,0,1-2.723.76,4.75,4.75,0,0,1-2-.4,3.363,3.363,0,0,1-1.374-1.1,2.565,2.565,0,0,1-.5-1.515H117.4a1.252,1.252,0,0,0,.473.979,1.877,1.877,0,0,0,1.179.34,1.737,1.737,0,0,0,1.042-.261A.814.814,0,0,0,120.446,15.518Zm3.5-2.092a5.369,5.369,0,0,1,.942-3.345,3.08,3.08,0,0,1,2.586-1.229,2.758,2.758,0,0,1,2.3,1.1l.158-.938h2.108V21.453h-2.407V17.228a2.765,2.765,0,0,1-2.175.938,3.057,3.057,0,0,1-2.557-1.245A5.632,5.632,0,0,1,123.949,13.426Zm2.4.174a3.512,3.512,0,0,0,.452,1.959,1.449,1.449,0,0,0,1.274.672,1.614,1.614,0,0,0,1.561-.88v-3.71a1.6,1.6,0,0,0-1.544-.847,1.466,1.466,0,0,0-1.287.672A3.879,3.879,0,0,0,126.348,13.6Zm12.958,3.486a3.008,3.008,0,0,1-2.457,1.079,2.837,2.837,0,0,1-2.2-.83,3.543,3.543,0,0,1-.776-2.432V9.019h2.4v5.8q0,1.4,1.278,1.4a1.733,1.733,0,0,0,1.677-.847V9.019h2.407V18h-2.258Zm8.268,1.079a4.409,4.409,0,0,1-3.217-1.212,4.308,4.308,0,0,1-1.241-3.229v-.232a5.426,5.426,0,0,1,.523-2.42,3.838,3.838,0,0,1,1.482-1.644,4.159,4.159,0,0,1,2.187-.577,3.727,3.727,0,0,1,2.9,1.162,4.722,4.722,0,0,1,1.058,3.3v.979h-5.719a2.228,2.228,0,0,0,.7,1.411,2.12,2.12,0,0,0,1.482.531,2.589,2.589,0,0,0,2.167-1l1.179,1.32a3.6,3.6,0,0,1-1.461,1.191A4.793,4.793,0,0,1,147.573,18.166Zm-.274-7.371a1.5,1.5,0,0,0-1.158.481,2.487,2.487,0,0,0-.569,1.378h3.337v-.191a1.773,1.773,0,0,0-.432-1.233A1.55,1.55,0,0,0,147.3,10.795Zm4.956,2.648A5.413,5.413,0,0,1,153.2,10.1a3.057,3.057,0,0,1,2.577-1.245,2.751,2.751,0,0,1,2.167.979V5.25h2.407V18h-2.167l-.116-.955a2.823,2.823,0,0,1-2.308,1.121,3.049,3.049,0,0,1-2.544-1.249A5.587,5.587,0,0,1,152.254,13.443Zm2.4.174a3.536,3.536,0,0,0,.44,1.934,1.434,1.434,0,0,0,1.278.672,1.605,1.605,0,0,0,1.569-.938V11.741a1.582,1.582,0,0,0-1.552-.938Q154.653,10.8,154.653,13.617ZM167.412,18a2.664,2.664,0,0,1-.241-.805,2.9,2.9,0,0,1-2.266.971,3.189,3.189,0,0,1-2.187-.764,2.456,2.456,0,0,1-.867-1.926,2.538,2.538,0,0,1,1.058-2.191,5.222,5.222,0,0,1,3.059-.772h1.1V12a1.48,1.48,0,0,0-.32-1,1.257,1.257,0,0,0-1.009-.374,1.429,1.429,0,0,0-.95.291.987.987,0,0,0-.344.8h-2.4a2.41,2.41,0,0,1,.481-1.444,3.182,3.182,0,0,1,1.361-1.042,4.961,4.961,0,0,1,1.976-.378,3.92,3.92,0,0,1,2.635.834,2.918,2.918,0,0,1,.975,2.345v3.893a4.294,4.294,0,0,0,.357,1.934V18Zm-1.984-1.668a2.066,2.066,0,0,0,.979-.237,1.554,1.554,0,0,0,.664-.635V13.916h-.9q-1.8,0-1.917,1.245l-.008.141a.96.96,0,0,0,.315.739A1.225,1.225,0,0,0,165.428,16.332Z" transform="translate(950 6213.687)" fill="#fff"/>
      </g>
      <g id="Grupo_1003622" data-name="Grupo 1003622" transform="translate(-53.6 56)">
        <rect id="Rectángulo_344396" data-name="Rectángulo 344396" width="268.5" height="47" rx="23.5" transform="translate(545.5 5169)" fill="#112e4c"/>
        <path id="Trazado_715341" data-name="Trazado 715341" d="M63.548,18h-2.49V5.914h2.49ZM62.776,2.652h2.615l-2.3,2.573H61.141Zm5.13,6.367.075,1.038a3.136,3.136,0,0,1,2.582-1.2,2.606,2.606,0,0,1,2.125.838A3.912,3.912,0,0,1,73.4,12.2V18H71V12.256a1.556,1.556,0,0,0-.332-1.108,1.486,1.486,0,0,0-1.1-.344,1.65,1.65,0,0,0-1.519.863V18h-2.4V9.019Zm6.939,4.424a5.413,5.413,0,0,1,.942-3.345,3.057,3.057,0,0,1,2.577-1.245,2.751,2.751,0,0,1,2.167.979V5.25h2.407V18H80.772l-.116-.955a2.823,2.823,0,0,1-2.308,1.121A3.049,3.049,0,0,1,75.8,16.917,5.587,5.587,0,0,1,74.845,13.443Zm2.4.174a3.536,3.536,0,0,0,.44,1.934,1.434,1.434,0,0,0,1.278.672,1.605,1.605,0,0,0,1.569-.938V11.741a1.582,1.582,0,0,0-1.552-.938Q77.244,10.8,77.244,13.617ZM87.33,18H84.923V9.019H87.33ZM84.781,6.694a1.181,1.181,0,0,1,.361-.888,1.556,1.556,0,0,1,1.963,0,1.175,1.175,0,0,1,.365.888,1.178,1.178,0,0,1-.369.9,1.539,1.539,0,0,1-1.951,0A1.178,1.178,0,0,1,84.781,6.694Zm8.259,9.538a1.573,1.573,0,0,0,1.079-.365,1.28,1.28,0,0,0,.432-.971H96.8a3.077,3.077,0,0,1-.5,1.673,3.286,3.286,0,0,1-1.341,1.179,4.2,4.2,0,0,1-1.88.419,3.9,3.9,0,0,1-3.038-1.224,4.845,4.845,0,0,1-1.112-3.383V13.4a4.79,4.79,0,0,1,1.1-3.312,3.854,3.854,0,0,1,3.03-1.237,3.778,3.778,0,0,1,2.7.959A3.4,3.4,0,0,1,96.8,12.364h-2.25a1.635,1.635,0,0,0-.432-1.133,1.608,1.608,0,0,0-2.362.174,3.532,3.532,0,0,0-.427,1.98v.249a3.576,3.576,0,0,0,.423,1.992A1.464,1.464,0,0,0,93.041,16.232Zm9.264,1.934a4.409,4.409,0,0,1-3.217-1.212,4.308,4.308,0,0,1-1.241-3.229v-.232a5.426,5.426,0,0,1,.523-2.42,3.838,3.838,0,0,1,1.482-1.644,4.159,4.159,0,0,1,2.187-.577,3.727,3.727,0,0,1,2.9,1.162A4.722,4.722,0,0,1,106,13.31v.979h-5.719a2.229,2.229,0,0,0,.7,1.411,2.12,2.12,0,0,0,1.482.531,2.589,2.589,0,0,0,2.167-1l1.179,1.32a3.6,3.6,0,0,1-1.461,1.191A4.793,4.793,0,0,1,102.3,18.166Zm-.274-7.371a1.5,1.5,0,0,0-1.158.481,2.487,2.487,0,0,0-.569,1.378h3.337v-.191a1.773,1.773,0,0,0-.432-1.233A1.55,1.55,0,0,0,102.031,10.795Zm10.193,4.723a.773.773,0,0,0-.436-.693,4.95,4.95,0,0,0-1.4-.452q-3.2-.672-3.2-2.723a2.468,2.468,0,0,1,.992-2,4,4,0,0,1,2.594-.8,4.307,4.307,0,0,1,2.735.805,2.538,2.538,0,0,1,1.025,2.092h-2.4a1.161,1.161,0,0,0-.332-.851,1.405,1.405,0,0,0-1.038-.336,1.436,1.436,0,0,0-.938.274.865.865,0,0,0-.332.7.739.739,0,0,0,.378.643,3.885,3.885,0,0,0,1.274.423,10.407,10.407,0,0,1,1.511.4,2.482,2.482,0,0,1,1.9,2.416,2.343,2.343,0,0,1-1.054,1.988,4.548,4.548,0,0,1-2.723.76,4.75,4.75,0,0,1-2-.4,3.363,3.363,0,0,1-1.374-1.1,2.565,2.565,0,0,1-.5-1.515h2.274a1.252,1.252,0,0,0,.473.979,1.877,1.877,0,0,0,1.179.34,1.737,1.737,0,0,0,1.042-.261A.814.814,0,0,0,112.224,15.518Z" transform="translate(580.5 5182)" fill="#fff"/>
      </g>
      <g id="Grupo_1003623" data-name="Grupo 1003623" transform="translate(891.033 5209.31)">
        <rect id="Rectángulo_344397" data-name="Rectángulo 344397" width="268.5" height="47" rx="23.5" fill="#112e4c"/>
        <path id="Trazado_715342" data-name="Trazado 715342" d="M35.637,14.829a1.278,1.278,0,0,0-.5-1.083,6.533,6.533,0,0,0-1.793-.8,12.71,12.71,0,0,1-2.05-.826,3.35,3.35,0,0,1-2.059-3,2.919,2.919,0,0,1,.552-1.747,3.6,3.6,0,0,1,1.585-1.2,5.967,5.967,0,0,1,2.32-.432A5.432,5.432,0,0,1,36,6.217a3.674,3.674,0,0,1,1.573,1.324,3.464,3.464,0,0,1,.56,1.942h-2.49a1.63,1.63,0,0,0-.523-1.291,2.15,2.15,0,0,0-1.469-.461,2.3,2.3,0,0,0-1.419.386,1.217,1.217,0,0,0-.506,1.017,1.166,1.166,0,0,0,.594.988,6.705,6.705,0,0,0,1.747.747,7.55,7.55,0,0,1,3.1,1.585,3.157,3.157,0,0,1,.971,2.357,2.909,2.909,0,0,1-1.187,2.461,5.2,5.2,0,0,1-3.2.892,6.171,6.171,0,0,1-2.54-.51,4.019,4.019,0,0,1-1.747-1.4,3.582,3.582,0,0,1-.6-2.059h2.5q0,2,2.391,2a2.326,2.326,0,0,0,1.386-.361A1.175,1.175,0,0,0,35.637,14.829ZM42.194,18H39.787V9.019h2.407ZM39.646,6.694a1.181,1.181,0,0,1,.361-.888,1.556,1.556,0,0,1,1.963,0,1.175,1.175,0,0,1,.365.888,1.178,1.178,0,0,1-.369.9,1.539,1.539,0,0,1-1.951,0A1.178,1.178,0,0,1,39.646,6.694Zm9.388,8.824a.773.773,0,0,0-.436-.693,4.95,4.95,0,0,0-1.4-.452Q44,13.7,44,11.65a2.468,2.468,0,0,1,.992-2,4,4,0,0,1,2.594-.8,4.307,4.307,0,0,1,2.735.805,2.538,2.538,0,0,1,1.025,2.092h-2.4a1.161,1.161,0,0,0-.332-.851,1.405,1.405,0,0,0-1.038-.336,1.436,1.436,0,0,0-.938.274.865.865,0,0,0-.332.7.739.739,0,0,0,.378.643,3.885,3.885,0,0,0,1.274.423,10.407,10.407,0,0,1,1.511.4,2.482,2.482,0,0,1,1.9,2.416,2.343,2.343,0,0,1-1.054,1.988,4.548,4.548,0,0,1-2.723.76,4.75,4.75,0,0,1-2-.4,3.363,3.363,0,0,1-1.374-1.1,2.565,2.565,0,0,1-.5-1.515h2.274a1.252,1.252,0,0,0,.473.979,1.877,1.877,0,0,0,1.179.34,1.737,1.737,0,0,0,1.042-.261A.814.814,0,0,0,49.034,15.518Zm6.749-8.708V9.019h1.536v1.76H55.783v4.482a1.07,1.07,0,0,0,.191.714.959.959,0,0,0,.73.216,3.826,3.826,0,0,0,.706-.058V17.95a4.939,4.939,0,0,1-1.453.216,2.29,2.29,0,0,1-2.573-2.548V10.778H52.072V9.019h1.312V6.811Zm7.006,11.355a4.409,4.409,0,0,1-3.217-1.212,4.308,4.308,0,0,1-1.241-3.229v-.232a5.426,5.426,0,0,1,.523-2.42,3.838,3.838,0,0,1,1.482-1.644,4.159,4.159,0,0,1,2.187-.577,3.727,3.727,0,0,1,2.9,1.162,4.722,4.722,0,0,1,1.058,3.3v.979H60.763a2.229,2.229,0,0,0,.7,1.411,2.12,2.12,0,0,0,1.482.531,2.589,2.589,0,0,0,2.167-1l1.179,1.32a3.6,3.6,0,0,1-1.461,1.191A4.793,4.793,0,0,1,62.789,18.166Zm-.274-7.371a1.5,1.5,0,0,0-1.158.481,2.487,2.487,0,0,0-.569,1.378h3.337v-.191a1.773,1.773,0,0,0-.432-1.233A1.55,1.55,0,0,0,62.515,10.795Zm7.579-1.776.075,1a3.156,3.156,0,0,1,2.582-1.17,2.4,2.4,0,0,1,2.382,1.37,3.084,3.084,0,0,1,2.7-1.37A2.679,2.679,0,0,1,80,9.7a3.911,3.911,0,0,1,.714,2.561V18H78.311V12.272a1.71,1.71,0,0,0-.3-1.116,1.324,1.324,0,0,0-1.054-.353,1.5,1.5,0,0,0-1.494,1.029L75.472,18h-2.4V12.281a1.689,1.689,0,0,0-.307-1.129A1.337,1.337,0,0,0,71.72,10.8a1.555,1.555,0,0,0-1.478.847V18h-2.4V9.019ZM87.766,18a2.664,2.664,0,0,1-.241-.805,2.9,2.9,0,0,1-2.266.971,3.189,3.189,0,0,1-2.187-.764,2.456,2.456,0,0,1-.867-1.926,2.538,2.538,0,0,1,1.058-2.191,5.222,5.222,0,0,1,3.059-.772h1.1V12a1.48,1.48,0,0,0-.32-1,1.257,1.257,0,0,0-1.009-.374,1.429,1.429,0,0,0-.95.291.987.987,0,0,0-.344.8H82.4a2.41,2.41,0,0,1,.481-1.444A3.182,3.182,0,0,1,84.246,9.23a4.961,4.961,0,0,1,1.976-.378,3.92,3.92,0,0,1,2.635.834,2.918,2.918,0,0,1,.975,2.345v3.893a4.294,4.294,0,0,0,.357,1.934V18Zm-1.984-1.668a2.066,2.066,0,0,0,.979-.237,1.554,1.554,0,0,0,.664-.635V13.916h-.9q-1.8,0-1.917,1.245L84.6,15.3a.96.96,0,0,0,.315.739A1.225,1.225,0,0,0,85.782,16.332ZM98.158,9.019l.075,1a3.156,3.156,0,0,1,2.582-1.17,2.4,2.4,0,0,1,2.382,1.37,3.084,3.084,0,0,1,2.7-1.37,2.679,2.679,0,0,1,2.175.851,3.911,3.911,0,0,1,.714,2.561V18h-2.407V12.272a1.71,1.71,0,0,0-.3-1.116,1.324,1.324,0,0,0-1.054-.353,1.5,1.5,0,0,0-1.494,1.029L103.537,18h-2.4V12.281a1.689,1.689,0,0,0-.307-1.129,1.337,1.337,0,0,0-1.046-.349,1.555,1.555,0,0,0-1.478.847V18h-2.4V9.019Zm15,8.981H110.75V9.019h2.407ZM110.609,6.694a1.181,1.181,0,0,1,.361-.888,1.556,1.556,0,0,1,1.963,0,1.175,1.175,0,0,1,.365.888,1.178,1.178,0,0,1-.369.9,1.539,1.539,0,0,1-1.951,0A1.178,1.178,0,0,1,110.609,6.694Zm7.944,5.005,1.511-2.681h2.565l-2.557,4.4L122.737,18h-2.573l-1.6-2.822L116.968,18h-2.582l2.665-4.582-2.548-4.4h2.573Zm8.1-4.889V9.019h1.536v1.76h-1.536v4.482a1.07,1.07,0,0,0,.191.714.959.959,0,0,0,.73.216,3.826,3.826,0,0,0,.706-.058V17.95a4.938,4.938,0,0,1-1.453.216,2.29,2.29,0,0,1-2.573-2.548V10.778h-1.312V9.019h1.312V6.811Zm2.25,6.616a5.327,5.327,0,0,1,.515-2.382A3.767,3.767,0,0,1,130.9,9.425a4.323,4.323,0,0,1,2.245-.573,4.09,4.09,0,0,1,2.968,1.112,4.464,4.464,0,0,1,1.282,3.021l.017.614a4.694,4.694,0,0,1-1.154,3.316,4.472,4.472,0,0,1-6.2,0,4.777,4.777,0,0,1-1.158-3.387Zm2.4.174a3.348,3.348,0,0,0,.481,1.955,1.731,1.731,0,0,0,2.739.008,3.664,3.664,0,0,0,.49-2.137,3.315,3.315,0,0,0-.49-1.942,1.593,1.593,0,0,0-1.378-.689,1.567,1.567,0,0,0-1.361.685A3.725,3.725,0,0,0,131.3,13.6Zm12.451,1.917a.773.773,0,0,0-.436-.693,4.95,4.95,0,0,0-1.4-.452q-3.2-.672-3.2-2.723a2.468,2.468,0,0,1,.992-2,4,4,0,0,1,2.594-.8,4.307,4.307,0,0,1,2.735.805,2.538,2.538,0,0,1,1.025,2.092h-2.4a1.161,1.161,0,0,0-.332-.851,1.405,1.405,0,0,0-1.038-.336,1.436,1.436,0,0,0-.938.274.865.865,0,0,0-.332.7.739.739,0,0,0,.378.643,3.885,3.885,0,0,0,1.274.423,10.407,10.407,0,0,1,1.511.4,2.482,2.482,0,0,1,1.9,2.416,2.343,2.343,0,0,1-1.054,1.988,4.548,4.548,0,0,1-2.723.76,4.75,4.75,0,0,1-2-.4,3.363,3.363,0,0,1-1.374-1.1,2.565,2.565,0,0,1-.5-1.515h2.274a1.252,1.252,0,0,0,.473.979,1.877,1.877,0,0,0,1.179.34A1.737,1.737,0,0,0,143.4,16.2.814.814,0,0,0,143.754,15.518Z" transform="translate(58.5 12)" fill="#fff"/>
      </g>
      <g id="Grupo_1003714" data-name="Grupo 1003714" transform="translate(0 3260)">
        <g id="Grupo_1003570" data-name="Grupo 1003570" transform="translate(0 -767)">
          <g transform="matrix(1, 0, 0, 1, 440, 2430)" filter="url(#Unión_1)">
            <path id="Unión_1-2" data-name="Unión 1" d="M-595,12786h34l-17,21Zm-90.5,0a22.5,22.5,0,0,1-22.5-22.5,22.5,22.5,0,0,1,22.5-22.5h215a22.5,22.5,0,0,1,22.5,22.5,22.5,22.5,0,0,1-22.5,22.5Z" transform="translate(938 -12735)" fill="#112e4c"/>
          </g>
        </g>
        <path id="Trazado_715343" data-name="Trazado 715343" d="M-46.718,0V-12.8h4.482A5.886,5.886,0,0,1-38.7-11.9,3.05,3.05,0,0,1-37.5-9.29a2.891,2.891,0,0,1-.483,1.657,2.792,2.792,0,0,1-1.345,1.05,2.7,2.7,0,0,1,1.551.993,2.936,2.936,0,0,1,.567,1.828A3.377,3.377,0,0,1-38.386-.967,5.3,5.3,0,0,1-41.744,0Zm2.637-5.572v3.454h2.259a2.18,2.18,0,0,0,1.455-.444,1.522,1.522,0,0,0,.523-1.226,1.607,1.607,0,0,0-1.819-1.784Zm0-1.863h1.951q2-.035,2-1.591a1.47,1.47,0,0,0-.505-1.252,2.658,2.658,0,0,0-1.6-.382h-1.846ZM-29.7-.967A3.185,3.185,0,0,1-32.3.176,3,3,0,0,1-34.638-.7a3.752,3.752,0,0,1-.822-2.575V-9.51h2.54v6.144q0,1.485,1.354,1.485a1.835,1.835,0,0,0,1.775-.9V-9.51h2.549V0h-2.391Zm9.527-1.661a.818.818,0,0,0-.461-.734,5.241,5.241,0,0,0-1.481-.479q-3.393-.712-3.393-2.883a2.613,2.613,0,0,1,1.05-2.114,4.237,4.237,0,0,1,2.747-.848,4.56,4.56,0,0,1,2.9.853,2.687,2.687,0,0,1,1.085,2.215h-2.54a1.229,1.229,0,0,0-.352-.9,1.488,1.488,0,0,0-1.1-.356,1.52,1.52,0,0,0-.993.29.916.916,0,0,0-.352.738.783.783,0,0,0,.4.681,4.114,4.114,0,0,0,1.349.448,11.019,11.019,0,0,1,1.6.426,2.628,2.628,0,0,1,2.013,2.558,2.481,2.481,0,0,1-1.116,2.1,4.815,4.815,0,0,1-2.883.8A5.029,5.029,0,0,1-23.827-.25a3.561,3.561,0,0,1-1.455-1.169,2.716,2.716,0,0,1-.527-1.6H-23.4a1.326,1.326,0,0,0,.5,1.037,1.987,1.987,0,0,0,1.248.36,1.839,1.839,0,0,0,1.1-.277A.861.861,0,0,0-20.175-2.628Zm8.06.756a1.666,1.666,0,0,0,1.143-.387,1.355,1.355,0,0,0,.457-1.028h2.382a3.258,3.258,0,0,1-.527,1.771A3.48,3.48,0,0,1-10.081-.268a4.442,4.442,0,0,1-1.991.444,4.129,4.129,0,0,1-3.217-1.3A5.13,5.13,0,0,1-16.466-4.7v-.167A5.071,5.071,0,0,1-15.3-8.376a4.08,4.08,0,0,1,3.208-1.31A4,4,0,0,1-9.229-8.67a3.594,3.594,0,0,1,1.094,2.7h-2.382a1.731,1.731,0,0,0-.457-1.2,1.528,1.528,0,0,0-1.16-.461,1.531,1.531,0,0,0-1.34.646,3.739,3.739,0,0,0-.453,2.1v.264a3.786,3.786,0,0,0,.448,2.109A1.55,1.55,0,0,0-12.116-1.872ZM-1.173,0a2.821,2.821,0,0,1-.255-.853A3.073,3.073,0,0,1-3.828.176,3.376,3.376,0,0,1-6.144-.633a2.6,2.6,0,0,1-.918-2.039,2.687,2.687,0,0,1,1.121-2.32A5.529,5.529,0,0,1-2.7-5.81h1.169v-.545a1.567,1.567,0,0,0-.338-1.055A1.331,1.331,0,0,0-2.94-7.8,1.513,1.513,0,0,0-3.946-7.5a1.045,1.045,0,0,0-.365.844h-2.54a2.551,2.551,0,0,1,.51-1.529A3.37,3.37,0,0,1-4.9-9.286a5.253,5.253,0,0,1,2.092-.4A4.15,4.15,0,0,1-.018-8.8,3.09,3.09,0,0,1,1.015-6.319V-2.2A4.546,4.546,0,0,0,1.393-.149V0Zm-2.1-1.767a2.188,2.188,0,0,0,1.037-.25,1.645,1.645,0,0,0,.7-.672V-4.324h-.949q-1.907,0-2.03,1.318l-.009.149a1.017,1.017,0,0,0,.334.782A1.3,1.3,0,0,0-3.274-1.767ZM2.571-4.825a5.731,5.731,0,0,1,1-3.542A3.237,3.237,0,0,1,6.3-9.686,2.913,2.913,0,0,1,8.591-8.648V-13.5H11.14V0H8.846L8.723-1.011A2.989,2.989,0,0,1,6.28.176,3.228,3.228,0,0,1,3.586-1.147,5.916,5.916,0,0,1,2.571-4.825Zm2.54.185a3.744,3.744,0,0,0,.466,2.048,1.518,1.518,0,0,0,1.354.712,1.7,1.7,0,0,0,1.661-.993V-6.627A1.676,1.676,0,0,0,6.948-7.62Q5.111-7.62,5.111-4.641Zm7.6-.2a5.64,5.64,0,0,1,.545-2.522,3.989,3.989,0,0,1,1.569-1.714A4.577,4.577,0,0,1,17.2-9.686a4.33,4.33,0,0,1,3.142,1.178,4.727,4.727,0,0,1,1.358,3.2l.018.65A4.97,4.97,0,0,1,20.5-1.147,4.247,4.247,0,0,1,17.222.176a4.268,4.268,0,0,1-3.283-1.318,5.058,5.058,0,0,1-1.226-3.586Zm2.54.185a3.545,3.545,0,0,0,.51,2.07,1.682,1.682,0,0,0,1.459.716,1.686,1.686,0,0,0,1.441-.708,3.879,3.879,0,0,0,.519-2.263A3.51,3.51,0,0,0,18.664-6.9,1.686,1.686,0,0,0,17.2-7.629a1.659,1.659,0,0,0-1.441.725A3.944,3.944,0,0,0,15.253-4.658ZM28.63-7.128a6.9,6.9,0,0,0-.914-.07,1.86,1.86,0,0,0-1.89.976V0h-2.54V-9.51h2.4l.07,1.134a2.354,2.354,0,0,1,2.118-1.31,2.662,2.662,0,0,1,.791.114Zm5.6,7.3a4.668,4.668,0,0,1-3.406-1.283,4.561,4.561,0,0,1-1.314-3.419v-.246a5.745,5.745,0,0,1,.554-2.562,4.064,4.064,0,0,1,1.569-1.74,4.4,4.4,0,0,1,2.316-.611,3.947,3.947,0,0,1,3.072,1.23A5,5,0,0,1,38.14-4.966v1.037H32.084a2.36,2.36,0,0,0,.743,1.494,2.245,2.245,0,0,0,1.569.563A2.742,2.742,0,0,0,36.69-2.936l1.248,1.4A3.813,3.813,0,0,1,36.391-.277,5.075,5.075,0,0,1,34.229.176Zm-.29-7.8a1.591,1.591,0,0,0-1.226.51,2.634,2.634,0,0,0-.6,1.459h3.533v-.2a1.878,1.878,0,0,0-.457-1.305A1.642,1.642,0,0,0,33.939-7.629Zm10.793,5a.818.818,0,0,0-.461-.734,5.241,5.241,0,0,0-1.481-.479Q39.4-4.553,39.4-6.724a2.613,2.613,0,0,1,1.05-2.114,4.237,4.237,0,0,1,2.747-.848,4.56,4.56,0,0,1,2.9.853,2.687,2.687,0,0,1,1.085,2.215h-2.54a1.229,1.229,0,0,0-.352-.9,1.488,1.488,0,0,0-1.1-.356,1.52,1.52,0,0,0-.993.29.916.916,0,0,0-.352.738.783.783,0,0,0,.4.681,4.114,4.114,0,0,0,1.349.448,11.019,11.019,0,0,1,1.6.426A2.628,2.628,0,0,1,47.2-2.733a2.481,2.481,0,0,1-1.116,2.1,4.815,4.815,0,0,1-2.883.8A5.029,5.029,0,0,1,41.08-.25a3.561,3.561,0,0,1-1.455-1.169,2.716,2.716,0,0,1-.527-1.6h2.408a1.326,1.326,0,0,0,.5,1.037,1.987,1.987,0,0,0,1.248.36,1.839,1.839,0,0,0,1.1-.277A.861.861,0,0,0,44.732-2.628Z" transform="translate(800 1698)" fill="#fff"/>
      </g>
    </g>
  </g>
</svg>
