<svg xmlns="http://www.w3.org/2000/svg" xmlns:xlink="http://www.w3.org/1999/xlink" width="403.139" height="497" viewBox="0 0 403.139 497">
  <defs>
    <clipPath id="clip-path">
      <rect id="Rectángulo_345301" data-name="Rectángulo 345301" width="384.05" height="263.392" transform="translate(0 0)" fill="none" opacity="0.89"/>
    </clipPath>
    <clipPath id="clip-path-2">
      <rect id="Rectángulo_345319" data-name="Rectángulo 345319" width="378" height="497" transform="translate(242 467)" fill="#4db1f0" opacity="0.62"/>
    </clipPath>
    <clipPath id="clip-path-3">
      <rect id="Rectángulo_345318" data-name="Rectángulo 345318" width="479" height="570" transform="translate(0 0.33)" fill="none"/>
    </clipPath>
    <clipPath id="clip-path-6">
      <rect id="Rectángulo_345314" data-name="Rectángulo 345314" width="39.363" height="47.121" fill="none"/>
    </clipPath>
    <clipPath id="clip-path-7">
      <rect id="Rectángulo_345315" data-name="Rectángulo 345315" width="86.879" height="50.369" fill="none"/>
    </clipPath>
  </defs>
  <g id="Grupo_1003695" data-name="Grupo 1003695" transform="translate(-233 -470)">
    <g id="Enmascarar_grupo_927350" data-name="Enmascarar grupo 927350" transform="translate(636.139 511.476) rotate(90)" clip-path="url(#clip-path)">
      <path id="Trazado_704419" data-name="Trazado 704419" d="M0,115.343A115.344,115.344,0,1,0,115.343,0,115.343,115.343,0,0,0,0,115.343" transform="translate(153.363 32.705)" fill="#ec9ca9"/>
      <path id="Sustracción_35" data-name="Sustracción 35" d="M83.577,0A83.2,83.2,0,0,0,36.849,14.273,83.8,83.8,0,0,0,6.568,51.047a83.481,83.481,0,0,0,7.705,79.263,83.813,83.813,0,0,0,36.772,30.279,83.48,83.48,0,0,0,79.262-7.705,83.814,83.814,0,0,0,30.28-36.772,83.473,83.473,0,0,0-7.706-79.263,83.793,83.793,0,0,0-36.772-30.28A83.053,83.053,0,0,0,83.577,0Zm0,150.676a67.1,67.1,0,1,1,67.1-67.1A67.173,67.173,0,0,1,83.577,150.676Z" transform="translate(167.158 263.391) rotate(180)" fill="#ffa031" stroke="rgba(0,0,0,0)" stroke-miterlimit="10" stroke-width="1"/>
      <path id="Trazado_704422" data-name="Trazado 704422" d="M0,40.785A40.785,40.785,0,1,0,40.785,0,40.785,40.785,0,0,0,0,40.785" transform="translate(181.491 139.028)" fill="#fff"/>
      <g id="Grupo_999628" data-name="Grupo 999628" transform="translate(11.579 57.423)">
        <path id="Trazado_704423" data-name="Trazado 704423" d="M0,2.577A2.578,2.578,0,1,0,2.578,0,2.578,2.578,0,0,0,0,2.577" transform="translate(45.365)" fill="#f9c2b9"/>
        <path id="Trazado_704424" data-name="Trazado 704424" d="M0,2.577A2.578,2.578,0,1,0,2.578,0,2.578,2.578,0,0,0,0,2.577" transform="translate(34.024)" fill="#f9c2b9"/>
        <path id="Trazado_704425" data-name="Trazado 704425" d="M0,2.577A2.578,2.578,0,1,0,2.578,0,2.577,2.577,0,0,0,0,2.577" transform="translate(22.682)" fill="#f9c2b9"/>
        <path id="Trazado_704426" data-name="Trazado 704426" d="M0,2.577A2.578,2.578,0,1,0,2.577,0,2.577,2.577,0,0,0,0,2.577" transform="translate(11.342)" fill="#f9c2b9"/>
        <path id="Trazado_704427" data-name="Trazado 704427" d="M0,2.577A2.578,2.578,0,1,0,2.577,0,2.577,2.577,0,0,0,0,2.577" transform="translate(0)" fill="#f9c2b9"/>
        <path id="Trazado_704428" data-name="Trazado 704428" d="M0,2.578A2.578,2.578,0,1,0,2.578,0,2.578,2.578,0,0,0,0,2.578" transform="translate(45.365 10.826)" fill="#f9c2b9"/>
        <path id="Trazado_704429" data-name="Trazado 704429" d="M0,2.578A2.578,2.578,0,1,0,2.578,0,2.578,2.578,0,0,0,0,2.578" transform="translate(34.024 10.826)" fill="#f9c2b9"/>
        <path id="Trazado_704430" data-name="Trazado 704430" d="M0,2.578A2.578,2.578,0,1,0,2.578,0,2.577,2.577,0,0,0,0,2.578" transform="translate(22.682 10.826)" fill="#f9c2b9"/>
        <path id="Trazado_704431" data-name="Trazado 704431" d="M0,2.578A2.578,2.578,0,1,0,2.577,0,2.577,2.577,0,0,0,0,2.578" transform="translate(11.342 10.826)" fill="#f9c2b9"/>
        <path id="Trazado_704432" data-name="Trazado 704432" d="M0,2.578A2.578,2.578,0,1,0,2.577,0,2.577,2.577,0,0,0,0,2.578" transform="translate(0 10.826)" fill="#f9c2b9"/>
        <path id="Trazado_704433" data-name="Trazado 704433" d="M0,2.577A2.578,2.578,0,1,0,2.578,0,2.578,2.578,0,0,0,0,2.577" transform="translate(45.365 21.651)" fill="#f9c2b9"/>
        <path id="Trazado_704434" data-name="Trazado 704434" d="M0,2.577A2.578,2.578,0,1,0,2.578,0,2.578,2.578,0,0,0,0,2.577" transform="translate(34.024 21.651)" fill="#f9c2b9"/>
        <path id="Trazado_704435" data-name="Trazado 704435" d="M0,2.577A2.578,2.578,0,1,0,2.578,0,2.577,2.577,0,0,0,0,2.577" transform="translate(22.682 21.651)" fill="#f9c2b9"/>
        <path id="Trazado_704436" data-name="Trazado 704436" d="M0,2.577A2.578,2.578,0,1,0,2.577,0,2.577,2.577,0,0,0,0,2.577" transform="translate(11.342 21.651)" fill="#f9c2b9"/>
        <path id="Trazado_704437" data-name="Trazado 704437" d="M0,2.577A2.578,2.578,0,1,0,2.577,0,2.577,2.577,0,0,0,0,2.577" transform="translate(0 21.651)" fill="#f9c2b9"/>
        <path id="Trazado_704438" data-name="Trazado 704438" d="M0,2.577A2.578,2.578,0,1,0,2.578,0,2.577,2.577,0,0,0,0,2.577" transform="translate(45.365 32.477)" fill="#f9c2b9"/>
        <path id="Trazado_704439" data-name="Trazado 704439" d="M0,2.577A2.578,2.578,0,1,0,2.578,0,2.578,2.578,0,0,0,0,2.577" transform="translate(34.024 32.477)" fill="#f9c2b9"/>
        <path id="Trazado_704440" data-name="Trazado 704440" d="M0,2.577A2.578,2.578,0,1,0,2.578,0,2.577,2.577,0,0,0,0,2.577" transform="translate(22.682 32.477)" fill="#f9c2b9"/>
        <path id="Trazado_704441" data-name="Trazado 704441" d="M0,2.577A2.578,2.578,0,1,0,2.577,0,2.577,2.577,0,0,0,0,2.577" transform="translate(11.342 32.477)" fill="#f9c2b9"/>
        <path id="Trazado_704442" data-name="Trazado 704442" d="M0,2.577A2.578,2.578,0,1,0,2.577,0,2.577,2.577,0,0,0,0,2.577" transform="translate(0 32.477)" fill="#f9c2b9"/>
        <path id="Trazado_704443" data-name="Trazado 704443" d="M0,2.578A2.578,2.578,0,1,0,2.578,0,2.578,2.578,0,0,0,0,2.578" transform="translate(45.365 43.303)" fill="#f9c2b9"/>
        <path id="Trazado_704444" data-name="Trazado 704444" d="M0,2.578A2.578,2.578,0,1,0,2.578,0,2.578,2.578,0,0,0,0,2.578" transform="translate(34.024 43.303)" fill="#f9c2b9"/>
        <path id="Trazado_704445" data-name="Trazado 704445" d="M0,2.578A2.578,2.578,0,1,0,2.578,0,2.578,2.578,0,0,0,0,2.578" transform="translate(22.682 43.303)" fill="#f9c2b9"/>
        <path id="Trazado_704446" data-name="Trazado 704446" d="M0,2.578A2.578,2.578,0,1,0,2.577,0,2.577,2.577,0,0,0,0,2.578" transform="translate(11.342 43.303)" fill="#f9c2b9"/>
        <path id="Trazado_704447" data-name="Trazado 704447" d="M0,2.578A2.578,2.578,0,1,0,2.577,0,2.577,2.577,0,0,0,0,2.578" transform="translate(0 43.303)" fill="#f9c2b9"/>
      </g>
      <g id="Grupo_999629" data-name="Grupo 999629" transform="translate(306.429 82.988)">
        <path id="Trazado_704448" data-name="Trazado 704448" d="M0,2.577A2.578,2.578,0,1,0,2.577,0,2.577,2.577,0,0,0,0,2.577" transform="translate(45.365)" fill="#fff"/>
        <path id="Trazado_704449" data-name="Trazado 704449" d="M0,2.577A2.578,2.578,0,1,0,2.577,0,2.578,2.578,0,0,0,0,2.577" transform="translate(34.025)" fill="#fff"/>
        <path id="Trazado_704450" data-name="Trazado 704450" d="M0,2.577A2.578,2.578,0,1,0,2.578,0,2.578,2.578,0,0,0,0,2.577" transform="translate(22.683)" fill="#fff"/>
        <path id="Trazado_704451" data-name="Trazado 704451" d="M0,2.577A2.578,2.578,0,1,0,2.578,0,2.578,2.578,0,0,0,0,2.577" transform="translate(11.342)" fill="#fff"/>
        <path id="Trazado_704452" data-name="Trazado 704452" d="M0,2.577A2.578,2.578,0,1,0,2.578,0,2.578,2.578,0,0,0,0,2.577" transform="translate(0)" fill="#fff"/>
        <path id="Trazado_704453" data-name="Trazado 704453" d="M0,2.577A2.578,2.578,0,1,0,2.577,0,2.577,2.577,0,0,0,0,2.577" transform="translate(45.365 10.826)" fill="#fff"/>
        <path id="Trazado_704454" data-name="Trazado 704454" d="M0,2.577A2.578,2.578,0,1,0,2.577,0,2.577,2.577,0,0,0,0,2.577" transform="translate(34.025 10.826)" fill="#fff"/>
        <path id="Trazado_704455" data-name="Trazado 704455" d="M0,2.577A2.578,2.578,0,1,0,2.578,0,2.577,2.577,0,0,0,0,2.577" transform="translate(22.683 10.826)" fill="#fff"/>
        <path id="Trazado_704456" data-name="Trazado 704456" d="M0,2.577A2.578,2.578,0,1,0,2.578,0,2.578,2.578,0,0,0,0,2.577" transform="translate(11.342 10.826)" fill="#fff"/>
        <path id="Trazado_704457" data-name="Trazado 704457" d="M0,2.577A2.578,2.578,0,1,0,2.578,0,2.577,2.577,0,0,0,0,2.577" transform="translate(0 10.826)" fill="#fff"/>
        <path id="Trazado_704458" data-name="Trazado 704458" d="M0,2.577A2.578,2.578,0,1,0,2.577,0,2.577,2.577,0,0,0,0,2.577" transform="translate(45.365 21.652)" fill="#fff"/>
        <path id="Trazado_704459" data-name="Trazado 704459" d="M0,2.577A2.578,2.578,0,1,0,2.577,0,2.577,2.577,0,0,0,0,2.577" transform="translate(34.025 21.652)" fill="#fff"/>
        <path id="Trazado_704460" data-name="Trazado 704460" d="M0,2.577A2.578,2.578,0,1,0,2.578,0,2.577,2.577,0,0,0,0,2.577" transform="translate(22.683 21.652)" fill="#fff"/>
        <path id="Trazado_704461" data-name="Trazado 704461" d="M0,2.577A2.578,2.578,0,1,0,2.578,0,2.578,2.578,0,0,0,0,2.577" transform="translate(11.342 21.652)" fill="#fff"/>
        <path id="Trazado_704462" data-name="Trazado 704462" d="M0,2.577A2.578,2.578,0,1,0,2.578,0,2.577,2.577,0,0,0,0,2.577" transform="translate(0 21.652)" fill="#fff"/>
        <path id="Trazado_704463" data-name="Trazado 704463" d="M0,2.578A2.578,2.578,0,1,0,2.577,0,2.577,2.577,0,0,0,0,2.578" transform="translate(45.365 32.478)" fill="#fff"/>
        <path id="Trazado_704464" data-name="Trazado 704464" d="M0,2.578A2.578,2.578,0,1,0,2.577,0,2.577,2.577,0,0,0,0,2.578" transform="translate(34.025 32.478)" fill="#fff"/>
        <path id="Trazado_704465" data-name="Trazado 704465" d="M0,2.578A2.578,2.578,0,1,0,2.578,0,2.577,2.577,0,0,0,0,2.578" transform="translate(22.683 32.478)" fill="#fff"/>
        <path id="Trazado_704466" data-name="Trazado 704466" d="M0,2.578A2.578,2.578,0,1,0,2.578,0,2.578,2.578,0,0,0,0,2.578" transform="translate(11.342 32.478)" fill="#fff"/>
        <path id="Trazado_704467" data-name="Trazado 704467" d="M0,2.578A2.578,2.578,0,1,0,2.578,0,2.577,2.577,0,0,0,0,2.578" transform="translate(0 32.478)" fill="#fff"/>
        <path id="Trazado_704468" data-name="Trazado 704468" d="M0,2.578A2.578,2.578,0,1,0,2.577,0,2.577,2.577,0,0,0,0,2.578" transform="translate(45.365 43.304)" fill="#fff"/>
        <path id="Trazado_704469" data-name="Trazado 704469" d="M0,2.578A2.578,2.578,0,1,0,2.577,0,2.577,2.577,0,0,0,0,2.578" transform="translate(34.025 43.304)" fill="#fff"/>
        <path id="Trazado_704470" data-name="Trazado 704470" d="M0,2.578A2.578,2.578,0,1,0,2.578,0,2.577,2.577,0,0,0,0,2.578" transform="translate(22.683 43.304)" fill="#fff"/>
        <path id="Trazado_704471" data-name="Trazado 704471" d="M0,2.578A2.578,2.578,0,1,0,2.578,0,2.578,2.578,0,0,0,0,2.578" transform="translate(11.342 43.304)" fill="#fff"/>
        <path id="Trazado_704472" data-name="Trazado 704472" d="M0,2.578A2.578,2.578,0,1,0,2.578,0,2.577,2.577,0,0,0,0,2.578" transform="translate(0 43.304)" fill="#fff"/>
      </g>
      <rect id="Rectángulo_345299" data-name="Rectángulo 345299" width="45.28" height="10.592" transform="translate(148.872 42.371)" fill="#f9e8dc"/>
      <rect id="Rectángulo_345300" data-name="Rectángulo 345300" width="45.749" height="19.458" transform="translate(338.301 32.641)" fill="#f9e8dc"/>
      <path id="Trazado_704474" data-name="Trazado 704474" d="M0,2.514A2.514,2.514,0,1,0,2.515,0,2.514,2.514,0,0,0,0,2.514" transform="translate(369.084 39.857)" fill="#fff"/>
      <path id="Trazado_704475" data-name="Trazado 704475" d="M0,2.514A2.514,2.514,0,1,0,2.514,0,2.514,2.514,0,0,0,0,2.514" transform="translate(358.66 39.857)" fill="#fff"/>
      <path id="Trazado_704476" data-name="Trazado 704476" d="M0,2.514A2.514,2.514,0,1,0,2.514,0,2.514,2.514,0,0,0,0,2.514" transform="translate(348.238 39.857)" fill="#fff"/>
    </g>
    <g id="Enmascarar_grupo_927351" data-name="Enmascarar grupo 927351" transform="translate(-9 3)" clip-path="url(#clip-path-2)">
      <g id="Grupo_999663" data-name="Grupo 999663" transform="translate(194 406.296)">
        <g id="Grupo_999662" data-name="Grupo 999662" transform="translate(0 -0.625)" clip-path="url(#clip-path-3)">
          <rect id="Rectángulo_345311" data-name="Rectángulo 345311" width="104.004" height="512.572" transform="translate(47.907 46.638)" fill="#1f4068"/>
          <path id="Trazado_704533" data-name="Trazado 704533" d="M1240.623,1459.775h117.489v58.874h-12.455v17.382l-14.959-17.382h-90.075Z" transform="translate(-957.855 -1126.538)" fill="#f0f2f5"/>
          <path id="Trazado_704534" data-name="Trazado 704534" d="M1369.289,983.919h97.081V935.272h-10.292V920.909l-12.361,14.363h-74.429Z" transform="translate(-1057.195 -710.493)" fill="#f0f2f5"/>
          <path id="Trazado_704535" data-name="Trazado 704535" d="M1489.869,1154.508h93.924v47.065h-9.957v13.9l-11.959-13.9h-72.008Z" transform="translate(-1150.292 -890.849)" fill="#fff"/>
          <path id="Trazado_704536" data-name="Trazado 704536" d="M1573.531,1215.382l-12.144-14.112H1489.31v-47.32h94.179v47.32h-9.957Zm-83.967-14.367H1561.5l11.773,13.68v-13.68h9.957V1154.2h-93.669Z" transform="translate(-1149.86 -890.418)" fill="#1f4068"/>
          <g id="Grupo_999651" data-name="Grupo 999651">
            <g id="Grupo_999650" data-name="Grupo 999650" clip-path="url(#clip-path-3)">
              <path id="Trazado_704537" data-name="Trazado 704537" d="M1803,1246.824a3.227,3.227,0,1,0,3.227-3.227,3.227,3.227,0,0,0-3.227,3.227" transform="translate(-1392.055 -959.632)" fill="#1f4068"/>
              <path id="Trazado_704538" data-name="Trazado 704538" d="M1722.17,1246.824a3.227,3.227,0,1,0,3.227-3.227,3.227,3.227,0,0,0-3.227,3.227" transform="translate(-1329.646 -959.632)" fill="#1f4068"/>
              <path id="Trazado_704539" data-name="Trazado 704539" d="M1641.337,1246.824a3.227,3.227,0,1,0,3.227-3.227,3.227,3.227,0,0,0-3.227,3.227" transform="translate(-1267.236 -959.632)" fill="#1f4068"/>
              <path id="Trazado_704540" data-name="Trazado 704540" d="M1560.5,1246.824a3.227,3.227,0,1,0,3.227-3.227,3.227,3.227,0,0,0-3.227,3.227" transform="translate(-1204.827 -959.632)" fill="#1f4068"/>
              <path id="Trazado_704541" data-name="Trazado 704541" d="M1117.344,647.456h69.485V612.637h-7.366V602.357l-8.847,10.281h-53.272Z" transform="translate(-862.674 -464.546)" fill="#f0f2f5"/>
              <path id="Trazado_704542" data-name="Trazado 704542" d="M1006.7,1935.082h67.155v33.651h-7.12v9.936l-8.55-9.936H1006.7Z" transform="translate(-777.247 -1493.511)" fill="#f0f2f5"/>
              <path id="Trazado_704543" data-name="Trazado 704543" d="M1019.934,1235.421h148.523v74.424h-15.745v21.974l-18.91-21.974H1019.934Z" transform="translate(-787.467 -953.32)" fill="#1f4068"/>
              <path id="Trazado_704544" data-name="Trazado 704544" d="M1515.1,1381.4a5.1,5.1,0,1,0,5.1-5.1,5.1,5.1,0,0,0-5.1,5.1" transform="translate(-1169.77 -1062.088)" fill="#fff"/>
              <path id="Trazado_704545" data-name="Trazado 704545" d="M1387.275,1381.4a5.1,5.1,0,1,0,5.1-5.1,5.1,5.1,0,0,0-5.1,5.1" transform="translate(-1071.081 -1062.088)" fill="#fff"/>
              <path id="Trazado_704546" data-name="Trazado 704546" d="M1259.453,1381.4a5.1,5.1,0,1,0,5.1-5.1,5.1,5.1,0,0,0-5.1,5.1" transform="translate(-972.393 -1062.088)" fill="#fff"/>
              <path id="Trazado_704547" data-name="Trazado 704547" d="M1131.63,1381.4a5.1,5.1,0,1,0,5.1-5.1,5.1,5.1,0,0,0-5.1,5.1" transform="translate(-873.704 -1062.088)" fill="#fff"/>
              <path id="Trazado_704548" data-name="Trazado 704548" d="M1047.322,1652.267h94.1v47.155h-9.976v13.923l-11.981-13.923h-72.146Z" transform="translate(-808.612 -1275.157)" fill="#fff"/>
              <path id="Trazado_704549" data-name="Trazado 704549" d="M1131.145,1713.256l-12.167-14.139h-72.215v-47.41h94.358v47.41h-9.976Zm-84.127-14.394h72.077l11.8,13.707v-13.707h9.977v-46.9h-93.849Z" transform="translate(-808.18 -1274.725)" fill="#1f4068"/>
              <path id="Trazado_704550" data-name="Trazado 704550" d="M1361.055,1744.759a3.233,3.233,0,1,0,3.233-3.233,3.233,3.233,0,0,0-3.233,3.233" transform="translate(-1050.837 -1344.071)" fill="#1f4068"/>
              <path id="Trazado_704551" data-name="Trazado 704551" d="M1280.067,1744.759a3.233,3.233,0,1,0,3.233-3.233,3.233,3.233,0,0,0-3.233,3.233" transform="translate(-988.309 -1344.071)" fill="#1f4068"/>
              <path id="Trazado_704552" data-name="Trazado 704552" d="M1199.079,1744.759a3.233,3.233,0,1,0,3.233-3.233,3.233,3.233,0,0,0-3.233,3.233" transform="translate(-925.78 -1344.071)" fill="#1f4068"/>
              <path id="Trazado_704553" data-name="Trazado 704553" d="M1118.092,1744.759a3.233,3.233,0,1,0,3.233-3.233,3.233,3.233,0,0,0-3.233,3.233" transform="translate(-863.252 -1344.071)" fill="#1f4068"/>
              <path id="Trazado_704554" data-name="Trazado 704554" d="M1175.276,874.65h94.1V827.5H1259.4V813.573L1247.421,827.5h-72.146Z" transform="translate(-907.402 -627.621)" fill="#fff"/>
              <path id="Trazado_704555" data-name="Trazado 704555" d="M1269.075,873.614h-94.358V826.2h72.214l12.167-14.139V826.2h9.976Zm-94.1-.255h93.848v-46.9h-9.976V812.753l-11.8,13.706h-72.077Z" transform="translate(-906.971 -626.458)" fill="#1f4068"/>
              <path id="Trazado_704556" data-name="Trazado 704556" d="M1489.009,967.149a3.233,3.233,0,1,1,3.233,3.233,3.233,3.233,0,0,1-3.233-3.233" transform="translate(-1149.628 -743.698)" fill="#1f4068"/>
              <path id="Trazado_704557" data-name="Trazado 704557" d="M1408.021,967.149a3.233,3.233,0,1,1,3.233,3.233,3.233,3.233,0,0,1-3.233-3.233" transform="translate(-1087.099 -743.698)" fill="#1f4068"/>
              <path id="Trazado_704558" data-name="Trazado 704558" d="M1327.033,967.149a3.233,3.233,0,1,1,3.233,3.233,3.233,3.233,0,0,1-3.233-3.233" transform="translate(-1024.57 -743.698)" fill="#1f4068"/>
              <path id="Trazado_704559" data-name="Trazado 704559" d="M1246.045,967.149a3.233,3.233,0,1,1,3.233,3.233,3.233,3.233,0,0,1-3.233-3.233" transform="translate(-962.041 -743.698)" fill="#1f4068"/>
            </g>
          </g>
          <g id="Grupo_999659" data-name="Grupo 999659">
            <g id="Grupo_999658" data-name="Grupo 999658" clip-path="url(#clip-path-3)">
              <path id="Trazado_704560" data-name="Trazado 704560" d="M809.834,1293.591l-.984,13.167c-17.606,12.461-51.869.947-51.869.947-7.022,20.853-27.752,31.87-27.752,31.87L705.951,1380.8c-11.778,21.594-39.451,23.109-39.451,23.109v-228.13l55.732,15.391,26.622-1.4,4.007-.211,23.429-1.227,5.76,10.634q4.86,1.513,9.006,3.045,3.641,1.336,6.779,2.673c27,11.456,27.288,22.24,27.288,22.24,12.843,24.463-15.289,66.664-15.289,66.664" transform="translate(-514.588 -907.27)" fill="#f9a21b"/>
              <rect id="Rectángulo_345313" data-name="Rectángulo 345313" width="0.684" height="477.572" transform="translate(151.57 46.638)" fill="#1b1a2e"/>
              <path id="Trazado_704561" data-name="Trazado 704561" d="M1110.825,965.8s-4.078,12.819-16.68,5.251c0,0,4.868-.928,7.609-3.95,0,0-10.83,8.263-24.25-2.4l31.729-73.876s26.453,37.161,1.592,74.977" transform="translate(-831.915 -687.266)" fill="#1b1a2e"/>
              <path id="Trazado_704562" data-name="Trazado 704562" d="M801.6,1097.021h0a36.007,36.007,0,0,1-31.452-40.048l5.044-41.96,71.5,8.595-5.044,41.96a36.007,36.007,0,0,1-40.047,31.453" transform="translate(-594.411 -783.148)" fill="#ffc89f"/>
              <path id="Trazado_704563" data-name="Trazado 704563" d="M780.554,751.592h0A47.961,47.961,0,0,1,738.66,698.25l6.993-58.172a47.961,47.961,0,0,1,95.237,11.448L833.9,709.7a47.961,47.961,0,0,1-53.342,41.894" transform="translate(-570.033 -461.057)" fill="#ffc89f"/>
              <path id="Trazado_704564" data-name="Trazado 704564" d="M794.463,1176.923a40.1,40.1,0,0,1-12.233-2.422c-.991-.343-1.948-.776-2.918-1.178-.963-.419-1.884-.927-2.829-1.388-.479-.219-.914-.519-1.368-.783l-1.35-.815c-.893-.555-1.736-1.187-2.606-1.778-.847-.623-1.64-1.317-2.461-1.973-.8-.683-1.555-1.416-2.323-2.132-.741-.744-1.436-1.535-2.154-2.3-.691-.79-1.329-1.625-1.983-2.443a39.882,39.882,0,0,1-5.909-10.983,61.059,61.059,0,0,0,6.962,10.139c.693.749,1.357,1.521,2.049,2.266.726.713,1.427,1.451,2.171,2.141.769.665,1.5,1.376,2.279,2.021.8.622,1.576,1.281,2.4,1.874s1.637,1.2,2.492,1.748c.867.527,1.715,1.089,2.6,1.59.895.479,1.767,1.007,2.682,1.449l1.38.651c.462.213.908.467,1.386.643a61.221,61.221,0,0,0,11.738,3.672" transform="translate(-583.942 -886.387)" fill="#ff9b6c"/>
              <path id="Trazado_704565" data-name="Trazado 704565" d="M1039.786,1179.888q-.457.889-.949,1.77l-.5.878-.563.834-1.167,1.651c-.423.523-.867,1.03-1.3,1.547-.221.255-.432.52-.661.767l-.713.718c-.482.471-.943.969-1.445,1.419s-1.021.882-1.532,1.324-1.061.834-1.589,1.253l-.813.6-.84.564c-.565.368-1.107.771-1.695,1.1-1.158.688-2.329,1.353-3.542,1.936-.613.279-1.215.576-1.834.837-.627.245-1.241.514-1.875.737a22.316,22.316,0,0,1-3.876,1.079c1.207-.574,2.374-1.2,3.524-1.852,1.159-.633,2.286-1.316,3.415-1.986.555-.352,1.106-.709,1.668-1.046s1.092-.725,1.638-1.085,1.078-.74,1.616-1.111l.8-.563.776-.6a63.325,63.325,0,0,0,6.006-5.028c.474-.452.938-.914,1.423-1.359l1.354-1.432.693-.711.644-.753q.649-.752,1.337-1.491" transform="translate(-783.571 -910.444)" fill="#ff9b6c"/>
              <path id="Trazado_704566" data-name="Trazado 704566" d="M706.925,915.425l2.477.3a8.922,8.922,0,0,0,9.923-7.794l1.9-15.814a8.922,8.922,0,0,0-7.794-9.923l-2.477-.3a8.922,8.922,0,0,0-9.923,7.794l-1.9,15.814a8.922,8.922,0,0,0,7.794,9.923" transform="translate(-539.732 -680.32)" fill="#ffc89f"/>
              <path id="Trazado_704567" data-name="Trazado 704567" d="M724.785,922.785a3.555,3.555,0,0,0-2.214,1.6,8.232,8.232,0,0,0-1.089,2.507,13.316,13.316,0,0,0-.265,5.445,7.071,7.071,0,0,0,.867,2.438,3.077,3.077,0,0,0,.7.846c.042.029.068.038.062.046s-.035.021-.027.028.142-.081.24-.231a5.375,5.375,0,0,0,.513-1.193c.146-.446.253-.914.365-1.386.221-.947.39-1.916.579-2.9a17.2,17.2,0,0,1,.224,2.991,12.824,12.824,0,0,1-.108,1.525,5.2,5.2,0,0,1-.433,1.591,1.877,1.877,0,0,1-.741.844,1.357,1.357,0,0,1-.741.168,1.646,1.646,0,0,1-.635-.179,3.971,3.971,0,0,1-1.333-1.252,7.481,7.481,0,0,1-1.233-3.031,11.245,11.245,0,0,1,.666-6.2,7.549,7.549,0,0,1,1.733-2.633,4.381,4.381,0,0,1,1.339-.865,2.845,2.845,0,0,1,1.527-.168" transform="translate(-555.393 -711.91)" fill="#ff9b6c"/>
              <path id="Trazado_704568" data-name="Trazado 704568" d="M743.771,921.93a8.979,8.979,0,0,1-.267-1.8c-.033-.56-.034-1.1-.047-1.589a6.207,6.207,0,0,0-.118-1.278,1.02,1.02,0,0,0-.265-.5,2.677,2.677,0,0,0-.722-.473,1.531,1.531,0,0,1,.992-.332,1.64,1.64,0,0,1,1.1.515,2.99,2.99,0,0,1,.741,2.029,4.786,4.786,0,0,1-.346,1.86,4.1,4.1,0,0,1-1.068,1.57" transform="translate(-573.152 -706.668)" fill="#ff9b6c"/>
              <path id="Trazado_704569" data-name="Trazado 704569" d="M1067,924.233a4.317,4.317,0,1,1-3.771-4.8,4.317,4.317,0,0,1,3.771,4.8" transform="translate(-817.164 -709.328)" fill="#1b1a2e"/>
              <path id="Trazado_704570" data-name="Trazado 704570" d="M1060.308,900.444a13.69,13.69,0,0,0-1.871-1.5c-.329-.224-.667-.434-1.006-.64-.354-.181-.693-.388-1.056-.547a13.566,13.566,0,0,0-4.527-1.278,8.589,8.589,0,0,0-1.177-.067l-.59-.016c-.2,0-.392.033-.589.045l-1.179.1c-.387.082-.775.158-1.165.23l-.585.112-.568.179-1.141.358c-.753.264-1.474.616-2.233.9.7-.4,1.4-.8,2.127-1.161l1.134-.442.57-.221.591-.155c.394-.1.791-.2,1.189-.3.4-.057.812-.1,1.219-.147.2-.021.407-.053.612-.057l.616.009a8.9,8.9,0,0,1,1.229.057,12.182,12.182,0,0,1,4.667,1.457,12.029,12.029,0,0,1,3.732,3.084" transform="translate(-804.982 -691.135)" fill="#1b1a2e"/>
              <path id="Trazado_704571" data-name="Trazado 704571" d="M869.634,900.508a4.317,4.317,0,1,1-3.771-4.8,4.318,4.318,0,0,1,3.771,4.8" transform="translate(-664.78 -691.01)" fill="#1b1a2e"/>
              <path id="Trazado_704572" data-name="Trazado 704572" d="M862.938,876.718a13.672,13.672,0,0,0-1.871-1.5c-.329-.224-.667-.435-1.006-.64-.354-.181-.693-.388-1.056-.547a13.568,13.568,0,0,0-4.527-1.278,8.6,8.6,0,0,0-1.177-.067l-.59-.016c-.2,0-.392.033-.589.045l-1.179.1c-.387.082-.775.158-1.165.23l-.585.112-.568.179-1.141.358c-.753.264-1.474.616-2.233.9.7-.4,1.4-.8,2.127-1.161l1.134-.442.57-.221.591-.154c.395-.1.791-.2,1.189-.3.4-.057.812-.1,1.219-.147.2-.021.407-.053.612-.057l.616.009a8.875,8.875,0,0,1,1.229.057,12.175,12.175,0,0,1,4.667,1.457,12.025,12.025,0,0,1,3.732,3.084" transform="translate(-652.598 -672.817)" fill="#1b1a2e"/>
              <path id="Trazado_704573" data-name="Trazado 704573" d="M976.724,977.19c.157,1.864.25,3.73.335,5.6s.136,3.732.181,5.6a12.015,12.015,0,0,1-.154,2.848,7.6,7.6,0,0,1-1.071,2.668,4.955,4.955,0,0,1-2.148,1.9c-.876.333-1.742.677-2.625.991.829-.433,1.676-.83,2.509-1.249a4.628,4.628,0,0,0,1.886-1.871,7.8,7.8,0,0,0,.912-2.536,11.864,11.864,0,0,0,.114-2.733c-.031-1.867-.061-3.734-.046-5.6s.026-3.735.107-5.6" transform="translate(-749.872 -753.946)" fill="#1b1a2e"/>
              <path id="Trazado_704574" data-name="Trazado 704574" d="M1066.608,839.33c-1.96-.353-3.442-.658-4.859-.872-1.4-.215-2.625-.414-3.873-.516a2.138,2.138,0,0,0-.467-.046l-.471-.035c-.157-.019-.315-.034-.474-.06s-.321-.005-.484-.021c-.325-.012-.656-.053-1-.091-.339,0-.686-.013-1.047-.046-.179-.011-.365-.041-.551-.06-.184,0-.368.005-.561-.009-.38-.012-.779-.046-1.193-.088a18.366,18.366,0,0,1-2.711-.284,7.678,7.678,0,0,1,.741-1.251,7.879,7.879,0,0,1,.909-1.094c.344-.309.7-.609,1.082-.888.186-.147.382-.275.577-.409.2-.113.412-.226.625-.327.424-.209.862-.4,1.307-.573.457-.137.928-.244,1.4-.34.238-.047.475-.1.717-.122l.731-.034a8.379,8.379,0,0,1,1.468.043,9.809,9.809,0,0,1,5.321,2.219,5.131,5.131,0,0,1,.528.489c.17.169.339.335.495.515a9.717,9.717,0,0,1,.841,1.154,6.3,6.3,0,0,1,.941,2.743" transform="translate(-809.846 -641.968)" fill="#1b1a2e"/>
              <path id="Trazado_704575" data-name="Trazado 704575" d="M869.238,815.6c-1.96-.353-3.442-.658-4.859-.872-1.4-.215-2.626-.414-3.873-.516a2.134,2.134,0,0,0-.467-.046l-.471-.035c-.157-.019-.315-.034-.474-.06s-.321-.005-.484-.021c-.325-.012-.656-.053-1-.091-.339,0-.686-.013-1.047-.046-.179-.011-.365-.041-.551-.06-.184,0-.368.005-.561-.009-.381-.012-.779-.046-1.194-.088a18.357,18.357,0,0,1-2.711-.284,7.681,7.681,0,0,1,.741-1.251,7.865,7.865,0,0,1,.909-1.093c.344-.309.7-.61,1.082-.889.186-.147.382-.275.577-.409.2-.113.412-.226.625-.327.424-.209.862-.4,1.308-.573.457-.137.928-.244,1.4-.34.238-.047.475-.1.717-.122l.732-.034a8.394,8.394,0,0,1,1.468.043,9.81,9.81,0,0,1,5.321,2.219,5.165,5.165,0,0,1,.528.489c.17.169.339.335.495.515a9.719,9.719,0,0,1,.841,1.154,6.3,6.3,0,0,1,.941,2.743" transform="translate(-657.462 -623.65)" fill="#1b1a2e"/>
              <path id="Trazado_704576" data-name="Trazado 704576" d="M1128.477,966.1l2.477.3a8.922,8.922,0,0,0,9.923-7.794l1.9-15.814a8.922,8.922,0,0,0-7.793-9.923l-2.477-.3a8.922,8.922,0,0,0-9.923,7.794l-1.9,15.814a8.922,8.922,0,0,0,7.793,9.923" transform="translate(-865.202 -719.445)" fill="#ffc89f"/>
              <path id="Trazado_704577" data-name="Trazado 704577" d="M1174.36,975.843a2.843,2.843,0,0,1,1.444.525,4.373,4.373,0,0,1,1.1,1.157,7.548,7.548,0,0,1,1.06,2.968,11.243,11.243,0,0,1-.822,6.18,7.478,7.478,0,0,1-1.916,2.652,3.972,3.972,0,0,1-1.592.9,1.647,1.647,0,0,1-.659.024,1.354,1.354,0,0,1-.679-.339,1.873,1.873,0,0,1-.52-.995,5.192,5.192,0,0,1-.043-1.649,12.8,12.8,0,0,1,.256-1.507,17.2,17.2,0,0,1,.926-2.852c-.048,1-.114,1.98-.124,2.951,0,.485-.01.966.027,1.433a5.357,5.357,0,0,0,.215,1.281c.059.168.158.3.178.28s-.016-.027-.019-.033.023-.012.071-.03a3.06,3.06,0,0,0,.885-.655,7.062,7.062,0,0,0,1.42-2.162,13.318,13.318,0,0,0,1.033-5.353,8.23,8.23,0,0,0-.464-2.694,3.553,3.553,0,0,0-1.771-2.082" transform="translate(-904.628 -752.906)" fill="#ff9b6c"/>
              <path id="Trazado_704578" data-name="Trazado 704578" d="M1171.22,973.842a4.1,4.1,0,0,1-.666-1.779,4.782,4.782,0,0,1,.1-1.889,2.99,2.99,0,0,1,1.2-1.8,1.639,1.639,0,0,1,1.193-.239,1.532,1.532,0,0,1,.885.558,2.677,2.677,0,0,0-.814.289,1.02,1.02,0,0,0-.376.423,6.23,6.23,0,0,0-.417,1.214c-.13.477-.258,1-.422,1.533a8.977,8.977,0,0,1-.687,1.687" transform="translate(-903.719 -746.934)" fill="#ff9b6c"/>
              <path id="Trazado_704579" data-name="Trazado 704579" d="M707.444,564.268c-16.645-61.288-62.163-49.674-62.163-49.674-26.454-12.092-46.767-1.225-62.4,15.954h0l0,0c-1.655,1.719-3.22,3.5-4.819,5.244-1.633,1.718-3.185,3.495-4.828,5.2-3.212,3.46-6.519,6.825-9.765,10.284-1.621,1.728-3.226,3.495-4.778,5.312l-2.3,2.772-2.186,2.885c-.689,1-1.365,2-2.036,3.009-.631,1.035-1.228,2.095-1.817,3.153-.567,1.071-1.038,2.194-1.542,3.291a17.128,17.128,0,0,0-.665,1.685l-.616,1.7c-.453,1.116-.712,2.3-1.069,3.44l-.506,1.722c-.15.578-.279,1.162-.42,1.742-.252,1.167-.609,2.308-.837,3.477s-.474,2.334-.734,3.5c-.534,2.323-.953,4.685-1.282,7.072a39.159,39.159,0,0,0-.38,7.259,29,29,0,0,0,1.225,7.24c.186.588.358,1.179.587,1.753.21.58.43,1.156.687,1.718a28.456,28.456,0,0,0,1.725,3.274,24.221,24.221,0,0,0,2.172,2.988,21.789,21.789,0,0,0,2.578,2.623,18.915,18.915,0,0,0,6.14,3.687c-.982.695-6.993,5.144-15.054,15.322-8.825,11.144,3.474,18.481,3.474,18.481-5.33-12.52,10.157-30.349,10.157-30.349-22.953,36.622,8.524,44.6,8.524,44.6-14.642,9.876-14.578,23.459-14.578,23.459-18.173,27.54,15.056,25.682,17.885,25.477a20.081,20.081,0,0,0-2.324,3.473,26.915,26.915,0,0,0-2.86,8.129,17.612,17.612,0,0,0-.257,4.37,23.939,23.939,0,0,0,2.372,8.349,21.292,21.292,0,0,0,2.2,3.708,15.639,15.639,0,0,0,3.1,3.115,15.323,15.323,0,0,0,3.921,2.117,23.259,23.259,0,0,0,4.273,1.063,46.233,46.233,0,0,0,8.552.506c5.357-.161,10.5-.749,15.8-.426-6.117,18.016-23.65,14.649-32.708,25.11s.766,21.169.766,21.169a16.374,16.374,0,0,1,1.175-8.069c-1.948,7.668,3.082,10.224,3.082,10.224a18.908,18.908,0,0,1,1.167-7.147c.442,13.4,8.67,13.256,8.67,13.256-2.282-4.072-.88-12.319-.88-12.319.287,20.664,15.9,18.846,15.9,18.846a12.056,12.056,0,0,1-2.326-2.846c10.9,6.648,14.5-6.549,14.5-6.549-8.247,4.155-11.011.757-11.713-3.679a15.384,15.384,0,0,1,4.707-13.359c10.661-10.321,9.778-21.084,9.778-21.084,20.707-21.715,2.06-41.6,2.06-41.6,8.477,4.752,10.445,20.37,10.445,20.37,6.875-9.725-9.359-20.946-10.935-22a46.492,46.492,0,0,0,6.314-6.818,40.378,40.378,0,0,0,4.853-8.06,31.155,31.155,0,0,0,2.45-9.224,21.19,21.19,0,0,0-1.248-9.441,38.011,38.011,0,0,0-4.342-8.3,46.626,46.626,0,0,0-6.065-7.082,84.9,84.9,0,0,0-7.107-5.9,74.573,74.573,0,0,0-6.847-4.57c-15.833-12.842-17.387-29.26-15.717-41.157a46.421,46.421,0,0,1,8.366-20.388,54.126,54.126,0,0,0,9.064-23.861c4.333-3.561,9.948-10.7,18.447-32.39,6.849-17.481,16.23-18.17,18.391-17.746l.107.022a33.658,33.658,0,0,1,10.047,5.447q1.118.89,2.153,1.867t1.99,2.028a46.355,46.355,0,0,1,3.5,4.49,45.605,45.605,0,0,1,2.963,4.957,31.815,31.815,0,0,1,2.1,5.461c.145.468.249.947.353,1.427s.215.957.3,1.44c.135.974.319,1.933.4,2.918.216,1.961.311,3.935.375,5.908s.069,3.948.114,5.92l.154,5.923c.053,1.979.116,3.962.218,5.956s.268,4,.563,6.011a31.225,31.225,0,0,0,1.451,6.014,19.69,19.69,0,0,0,1.308,2.9,15.16,15.16,0,0,0,1.875,2.619,13.517,13.517,0,0,0,5.216,3.547,19.42,19.42,0,0,0,5.8,1.229c.1.034.148.05.148.05,10.936,28.316,14.584,58.257,8.21,68.258-5.644,8.855-20.579,10.5-20.579,10.5,3.919,7.661,13.818.071,13.818.071-2.8,4.849-10.584,6.264-10.584,6.264,25.8,8.5,49.233-69.012,32.588-130.3m-158.98,51.895a28.56,28.56,0,0,1-1.4-3.106c-.222-.523-.409-1.06-.586-1.6-.2-.534-.338-1.086-.494-1.633a50.766,50.766,0,0,1,3.013-34.148,60.916,60.916,0,0,1,7.386-11.787c2.885-3.645,6.184-7,9.352-10.528.445-.492.884-.99,1.326-1.486-5.565,8.857-10.287,17.716-14.3,25.034-14.678,26.784,1.121,45.665,4.274,49.028a27.383,27.383,0,0,1-8.57-9.773m74.854,71.095a15.459,15.459,0,0,1,4.177,7.816,23.792,23.792,0,0,1-.158,8.759,37.826,37.826,0,0,1-2.711,8.338c-1.127,2.593-2.407,5.153-3.8,7.682,3.787-8.469,7.388-22.125-.109-35.009.325.284.649.57.978.852.544.514,1.11,1.022,1.626,1.562m-45.16,67.853a27.154,27.154,0,0,1-3.495-.562,16.5,16.5,0,0,1-3.724-1.259,10.978,10.978,0,0,1-5.369-5.768,12.942,12.942,0,0,1-.919-3.951,24.533,24.533,0,0,1,.078-4.023q.094-1.03.211-2.06c-.244,7.826,2.548,15.621,13.218,17.622M678.683,606.873a15.178,15.178,0,0,1-2.27-1.635,13.219,13.219,0,0,1-1.828-2.021c-2.116-2.954-2.856-6.721-3.343-10.519-.474-3.819-.772-7.752-1.108-11.7-.165-1.973-.33-3.952-.565-5.928s-.538-3.947-.85-5.913l-.977-5.887-.512-2.947c-.221-.973-.384-1.959-.614-2.932-.12-.485-.217-.976-.327-1.465s-.26-.968-.377-1.456c-.219-.984-.553-1.934-.825-2.912a32.946,32.946,0,0,0-2.395-5.622,23.606,23.606,0,0,0-2.158-3.221c7.3,6.621,13.6,17.5,11.771,34.968-2.132,20.361,5.309,28,9.309,30.593a21.6,21.6,0,0,1-2.929-1.408" transform="translate(-416.283 -392.823)" fill="#1b1a2e"/>
              <path id="Trazado_704580" data-name="Trazado 704580" d="M1132.647,948.289c1.531,3.608,2.882,7.291,4.157,11q1.859,5.582,3.359,11.282a141.066,141.066,0,0,1,4.111,23.2,76.681,76.681,0,0,1,.056,11.826,38.565,38.565,0,0,1-.932,5.876,16.464,16.464,0,0,1-2.329,5.533l-.912,1.205c-.308.4-.688.731-1.029,1.1l-.527.536-.578.477c-.392.309-.755.656-1.17.932a27.748,27.748,0,0,1-5.182,2.9,41.633,41.633,0,0,1-11.394,2.895,43.614,43.614,0,0,0,11.163-3.411,27.528,27.528,0,0,0,4.976-2.962c.395-.276.733-.621,1.1-.927l.542-.473.488-.526c.314-.359.67-.685.95-1.069l.829-1.16a4.27,4.27,0,0,0,.368-.605c.112-.207.232-.41.338-.621.183-.439.405-.857.557-1.311a21.194,21.194,0,0,0,.837-2.743,37.565,37.565,0,0,0,.855-5.724,76.092,76.092,0,0,0-.158-11.649c-.3-3.883-.807-7.755-1.456-11.6s-1.487-7.665-2.364-11.473q-1.338-5.707-3.038-11.326c-1.09-3.758-2.332-7.47-3.621-11.171" transform="translate(-864.939 -731.632)" fill="#1f4068"/>
              <path id="Trazado_704581" data-name="Trazado 704581" d="M714.909,835.593a51.425,51.425,0,0,1-6.42,19.916,89.388,89.388,0,0,1-5.9,8.7c-2.087,2.8-4.224,5.567-6.365,8.326-4.234,5.537-8.823,10.858-11.908,17.015a31.371,31.371,0,0,0-3.132,9.737,32.554,32.554,0,0,0,.294,10.33l-.112.026a28.421,28.421,0,0,1-1.084-10.457A29.247,29.247,0,0,1,683.219,889a51.31,51.31,0,0,1,5.762-8.851c2.15-2.773,4.461-5.4,6.76-8.019a101.879,101.879,0,0,0,6.55-8.145,74.191,74.191,0,0,0,5.355-8.937,76.623,76.623,0,0,0,4.236-9.473,87.777,87.777,0,0,0,2.912-10Z" transform="translate(-525.151 -644.608)" fill="#1f4068"/>
              <path id="Trazado_704582" data-name="Trazado 704582" d="M672.28,778.156a59.4,59.4,0,0,1-12.756,16.95c-2.619,2.408-5.43,4.578-8.228,6.742l-8.392,6.5-8.338,6.535q-4.132,3.3-8.017,6.861A96.384,96.384,0,0,0,612.6,837.536l-.1-.061a69.282,69.282,0,0,1,13.209-16.633,105.542,105.542,0,0,1,8.186-6.815c2.816-2.155,5.719-4.183,8.631-6.188s5.794-4.053,8.534-6.283a98.088,98.088,0,0,0,7.795-7.141,104.2,104.2,0,0,0,7.109-7.771,97.49,97.49,0,0,0,6.213-8.545Z" transform="translate(-472.899 -600.233)" fill="#1f4068"/>
              <path id="Trazado_704583" data-name="Trazado 704583" d="M644.284,802.714a56.4,56.4,0,0,0-2.689,9.607,46.355,46.355,0,0,0-.673,9.87,47.3,47.3,0,0,0,1.409,9.8,49.564,49.564,0,0,0,1.446,4.762,37.8,37.8,0,0,0,1.952,4.606,33.289,33.289,0,0,1-4.265-9.127,40.7,40.7,0,0,1-1.173-4.938,42.991,42.991,0,0,1-.52-5.056,38.815,38.815,0,0,1,.947-10.094,38.185,38.185,0,0,1,3.568-9.427" transform="translate(-493.93 -619.237)" fill="#1f4068"/>
              <path id="Trazado_704584" data-name="Trazado 704584" d="M585.585,1337.05c.143.821.186,1.632.319,2.432.157.8.238,1.6.455,2.372l.279,1.166.359,1.14a11.413,11.413,0,0,0,.4,1.123c.151.367.264.75.451,1.1l.492,1.084.57,1.046c.387.694.82,1.362,1.274,2.02a23.833,23.833,0,0,0,3.156,3.674,12.77,12.77,0,0,1-3.864-3.118,16.429,16.429,0,0,1-2.682-4.241,17.848,17.848,0,0,1-1.446-7.33,22.633,22.633,0,0,1,.243-2.467" transform="translate(-451.928 -1031.785)" fill="#1f4068"/>
              <path id="Trazado_704585" data-name="Trazado 704585" d="M687.606,1454.619a31.48,31.48,0,0,0,2.834,8.306,37.938,37.938,0,0,0,4.856,7.246,54.12,54.12,0,0,0,6.186,6.214,69.773,69.773,0,0,0,7.049,5.333,38.588,38.588,0,0,1-7.617-4.635,43.741,43.741,0,0,1-3.417-2.9,44.362,44.362,0,0,1-3.084-3.269,31.66,31.66,0,0,1-4.784-7.606,23.441,23.441,0,0,1-2.023-8.687" transform="translate(-530.884 -1122.557)" fill="#1f4068"/>
              <path id="Trazado_704586" data-name="Trazado 704586" d="M740.551,722.059a93.055,93.055,0,0,0-9.754,9.852c-.378.435-.747.877-1.1,1.335l-1.078,1.35c-.681.928-1.394,1.833-2.031,2.791a64.5,64.5,0,0,0-3.656,5.845,61.042,61.042,0,0,0-3.036,6.187,62.884,62.884,0,0,0-2.371,6.476,60.992,60.992,0,0,0-1.631,6.714,42.2,42.2,0,0,0-.757,6.891,43.061,43.061,0,0,1,1.523-13.851,56.7,56.7,0,0,1,5.266-12.978,61.143,61.143,0,0,1,8.194-11.351,65.808,65.808,0,0,1,10.429-9.261" transform="translate(-552.077 -556.966)" fill="#1f4068"/>
              <path id="Trazado_704587" data-name="Trazado 704587" d="M897.516,582.808a26.989,26.989,0,0,0-7.044-.731,22.089,22.089,0,0,0-6.823,1.389,22.675,22.675,0,0,0-3.188,1.44,30.042,30.042,0,0,0-3,1.838,36.028,36.028,0,0,0-5.4,4.628,22.2,22.2,0,0,1,4.86-5.348,22.721,22.721,0,0,1,6.329-3.64,21.364,21.364,0,0,1,3.553-.954,19.263,19.263,0,0,1,3.665-.25,18.629,18.629,0,0,1,7.048,1.628" transform="translate(-673.296 -448.187)" fill="#1f4068"/>
              <path id="Trazado_704588" data-name="Trazado 704588" d="M1101.322,642.421a38.574,38.574,0,0,0-2.231-8.536,29.914,29.914,0,0,0-4.425-7.5,33.087,33.087,0,0,0-6.369-5.965,37.977,37.977,0,0,0-7.722-4.278,26.671,26.671,0,0,1,8.225,3.532,26.823,26.823,0,0,1,9.3,9.752,25.946,25.946,0,0,1,3.225,12.992" transform="translate(-834.286 -475.191)" fill="#1f4068"/>
              <path id="Trazado_704589" data-name="Trazado 704589" d="M1163.651,878.3a13.879,13.879,0,0,1-6.8-.447,16.419,16.419,0,0,1-5.956-3.514,23.081,23.081,0,0,1-4.292-5.378,23.745,23.745,0,0,1-2.607-6.292,44.6,44.6,0,0,0,3.367,5.809,29.2,29.2,0,0,0,4.307,5.008,17.629,17.629,0,0,0,11.986,4.815" transform="translate(-883.248 -665.527)" fill="#1f4068"/>
              <path id="Trazado_704590" data-name="Trazado 704590" d="M1178.829,931.251c-.226.251-.459.5-.7.743l-.366.363c-.13.112-.266.214-.4.323l-.825.624c-.291.183-.593.348-.892.524a6.022,6.022,0,0,1-.927.464c-.319.132-.63.291-.958.4s-.659.211-.989.316-.671.165-1.006.249a16.383,16.383,0,0,1-4.107.325,13.181,13.181,0,0,1-4.01-.775c1.36.012,2.684-.029,4-.125a30.116,30.116,0,0,0,3.88-.553,21.389,21.389,0,0,0,3.733-1.113,27.255,27.255,0,0,0,3.566-1.766" transform="translate(-898.427 -718.478)" fill="#1f4068"/>
              <path id="Trazado_704591" data-name="Trazado 704591" d="M743.614,954.821a130.2,130.2,0,0,0-6.164,16.843c-.221.713-.4,1.437-.586,2.16l-.563,2.166c-.323,1.456-.692,2.9-.953,4.37-.605,2.919-1.047,5.871-1.381,8.831-.36,2.959-.542,5.937-.618,8.916s-.016,5.963.165,8.941.522,5.946,1,8.9a63.407,63.407,0,0,0,1.974,8.75,66.412,66.412,0,0,1-3.872-17.575,88.457,88.457,0,0,1,.2-18.056,93.2,93.2,0,0,1,3.77-17.657,96.562,96.562,0,0,1,7.022-16.585" transform="translate(-565.354 -736.675)" fill="#1f4068"/>
              <path id="Trazado_704592" data-name="Trazado 704592" d="M817.5,1599.746a14.365,14.365,0,0,1,6.587,1.305,11.192,11.192,0,0,1,2.82,2.012,10.572,10.572,0,0,1,2,2.849,14.662,14.662,0,0,1,1.31,6.689,19.62,19.62,0,0,1-1.288,6.576,32.373,32.373,0,0,0,.388-6.563,16.224,16.224,0,0,0-1.448-6.2,10.538,10.538,0,0,0-4.21-4.574,19.683,19.683,0,0,0-6.163-2.095" transform="translate(-631.169 -1234.6)" fill="#1f4068"/>
              <path id="Trazado_704593" data-name="Trazado 704593" d="M674.377,1296.831a58.893,58.893,0,0,0-7.918,9.672,31.013,31.013,0,0,0-2.775,5.523,25.9,25.9,0,0,0-.874,2.946,22.186,22.186,0,0,0-.454,3.031,19.254,19.254,0,0,0,3.07,11.778,28.7,28.7,0,0,0,3.921,4.864,41.68,41.68,0,0,0,4.737,4.093,90.784,90.784,0,0,0,10.6,6.663c1.826,1.008,3.7,1.951,5.546,3a60.22,60.22,0,0,1,5.351,3.42,46.275,46.275,0,0,1,9.269,8.676,31.063,31.063,0,0,1,3.452,5.342,21.914,21.914,0,0,1,1.241,2.927,13.859,13.859,0,0,1,.729,3.087l-.115.012a20.238,20.238,0,0,0-2.373-5.745,33.73,33.73,0,0,0-3.635-5.043,50.4,50.4,0,0,0-9.286-8.249c-1.692-1.207-3.441-2.335-5.233-3.4s-3.642-2.042-5.472-3.1a73.711,73.711,0,0,1-10.452-7.119,55.134,55.134,0,0,1-4.644-4.3c-.726-.765-1.423-1.559-2.082-2.383a29.184,29.184,0,0,1-1.871-2.555,23.344,23.344,0,0,1-2.812-5.694,18.424,18.424,0,0,1-.905-6.341,19.927,19.927,0,0,1,1.338-6.282,28.518,28.518,0,0,1,2.982-5.651,46.239,46.239,0,0,1,8.586-9.27Z" transform="translate(-510.637 -1000.667)" fill="#1f4068"/>
              <path id="Trazado_704594" data-name="Trazado 704594" d="M787.987,1477.554q.974.513,1.942,1.049l.967.541a8.582,8.582,0,0,1,.939.586,35.9,35.9,0,0,1,3.568,2.64,36.457,36.457,0,0,1,6.123,6.45,35.525,35.525,0,0,1,4.382,7.743,27.972,27.972,0,0,1,2.174,8.571,41.243,41.243,0,0,0-3-8.2q-.948-1.96-2.067-3.822l-1.153-1.839-1.266-1.762c-.4-.607-.885-1.144-1.333-1.711s-.9-1.135-1.408-1.651l-1.474-1.6c-.508-.516-1.053-1-1.573-1.5-1.023-1.037-2.191-1.906-3.3-2.855-.54-.5-1.17-.871-1.75-1.318q-.889-.645-1.77-1.316" transform="translate(-608.386 -1140.265)" fill="#1f4068"/>
              <path id="Trazado_704595" data-name="Trazado 704595" d="M713.58,1692.635a31.528,31.528,0,0,0-4.744,3.894,22.637,22.637,0,0,0-3.689,4.78,29.7,29.7,0,0,0-2.576,5.489,37,37,0,0,0-1.534,5.957,19.894,19.894,0,0,1,.674-6.22,22.368,22.368,0,0,1,2.448-5.819,25.236,25.236,0,0,1,1.822-2.6l1.083-1.163a7.711,7.711,0,0,1,.554-.566l.606-.513a18.379,18.379,0,0,1,5.356-3.239" transform="translate(-541.227 -1306.324)" fill="#1f4068"/>
              <path id="Trazado_704596" data-name="Trazado 704596" d="M696.078,1701.41a26.461,26.461,0,0,0-4.278,2.859,31.244,31.244,0,0,0-3.572,3.621,46.976,46.976,0,0,0-3.038,4.122c-.938,1.438-1.832,2.913-2.685,4.442a21.339,21.339,0,0,1,1.91-4.9,26.049,26.049,0,0,1,2.929-4.406,20.815,20.815,0,0,1,3.914-3.6,14.334,14.334,0,0,1,4.819-2.144" transform="translate(-526.946 -1313.099)" fill="#1f4068"/>
              <path id="Trazado_704597" data-name="Trazado 704597" d="M802,1604.7a10.938,10.938,0,0,1,2.9,3.113,10.586,10.586,0,0,1,1.427,4.088,15.344,15.344,0,0,1-1.516,8.46,23.608,23.608,0,0,1-5.037,6.924,21.1,21.1,0,0,1-7.114,4.6,28.358,28.358,0,0,0,6.473-5.231,26.9,26.9,0,0,0,4.634-6.78,15.943,15.943,0,0,0,1.669-7.875,10.925,10.925,0,0,0-1.031-3.916,12.912,12.912,0,0,0-2.4-3.382" transform="translate(-611.994 -1238.429)" fill="#1f4068"/>
              <path id="Trazado_704598" data-name="Trazado 704598" d="M750.8,1141.84a37.5,37.5,0,0,0,3.589,8.906,90.521,90.521,0,0,0,5.188,8.107c1.827,2.655,3.7,5.3,5.638,7.888s3.945,5.132,5.83,7.778a51.962,51.962,0,0,1,5,8.392,36.815,36.815,0,0,1,3.011,9.35,32.627,32.627,0,0,1,.168,9.818,40.685,40.685,0,0,1-2.484,9.427l-.109-.037a52.858,52.858,0,0,0,1.689-9.481,36.39,36.39,0,0,0-.476-9.515,40.957,40.957,0,0,0-2.788-9.116,68.548,68.548,0,0,0-4.533-8.488,85.673,85.673,0,0,0-5.6-7.9c-2.006-2.536-4.142-4.972-6.118-7.551a52.2,52.2,0,0,1-5.2-8.259,28.433,28.433,0,0,1-2.91-9.3Z" transform="translate(-579.586 -881.068)" fill="#1f4068"/>
              <path id="Trazado_704599" data-name="Trazado 704599" d="M1193.742,818.2q1.193,1.983,2.359,3.988c.774,1.338,1.594,2.654,2.263,4.049l2.081,4.15.519,1.04.457,1.067.914,2.135.915,2.136.453,1.07c.142.36.267.727.4,1.09l1.584,4.37c.129.365.271.727.39,1.1l.337,1.112.673,2.225.674,2.225c.234.739.394,1.5.595,2.247a121.676,121.676,0,0,1,3.352,18.27c.346,3.078.526,6.172.629,9.265a83.924,83.924,0,0,1-.29,9.269,124.564,124.564,0,0,0-1.232-18.426c-.409-3.05-.924-6.082-1.5-9.1l-.951-4.513c-.344-1.5-.749-2.981-1.119-4.473a143.958,143.958,0,0,0-5.735-17.519l-.847-2.147-.423-1.074-.476-1.051-1.9-4.211c-.589-1.427-1.331-2.778-2.027-4.154s-1.4-2.748-2.092-4.132" transform="translate(-921.659 -631.197)" fill="#1f4068"/>
              <path id="Trazado_704600" data-name="Trazado 704600" d="M930.77,1089.158a8.472,8.472,0,1,1-7.4-9.422,8.472,8.472,0,0,1,7.4,9.422" transform="translate(-705.589 -833.072)" fill="#ff9b6c"/>
              <path id="Trazado_704601" data-name="Trazado 704601" d="M932.4,1134.175a7.878,7.878,0,0,1-1.361,1.784,8.594,8.594,0,0,1-1.833,1.338,8.29,8.29,0,0,1-8.709-.533,8.608,8.608,0,0,1-1.654-1.554,7.908,7.908,0,0,1-1.132-1.937,9.308,9.308,0,0,0,1.344,1.751,8.406,8.406,0,0,0,1.687,1.372,8.71,8.71,0,0,0,8.265.507,9.255,9.255,0,0,0,3.392-2.728" transform="translate(-708.542 -874.454)" fill="#e3405a"/>
              <path id="Trazado_704602" data-name="Trazado 704602" d="M694.191,2133.119l-7.249,37.5H666.5v-32.7Z" transform="translate(-514.589 -1646.41)" fill="#1b1a2e"/>
              <g id="Grupo_999654" data-name="Grupo 999654" transform="translate(227.685 353.126)" opacity="0.4" style="mix-blend-mode: multiply;isolation: isolate">
                <g id="Grupo_999653" data-name="Grupo 999653">
                  <g id="Grupo_999652" data-name="Grupo 999652" clip-path="url(#clip-path-6)">
                    <path id="Trazado_704603" data-name="Trazado 704603" d="M998.95,1594.157l15.775-16.138,23.587-30.983s-33.283,26.932-39.362,47.121" transform="translate(-998.95 -1547.036)" fill="#a65b3c"/>
                  </g>
                </g>
              </g>
              <g id="Grupo_999657" data-name="Grupo 999657" transform="translate(196.367 281.064)" opacity="0.4" style="mix-blend-mode: multiply;isolation: isolate">
                <g id="Grupo_999656" data-name="Grupo 999656">
                  <g id="Grupo_999655" data-name="Grupo 999655" clip-path="url(#clip-path-7)">
                    <path id="Trazado_704604" data-name="Trazado 704604" d="M948.427,1247.226c-14.957,12.975-48.22,37.906-78.742,33.5-22.034-3.183,4.534-27.159,33.767-48.625l23.429-1.227,5.761,10.634q4.859,1.512,9.006,3.045,3.641,1.336,6.779,2.673" transform="translate(-861.547 -1230.873)" fill="#a65b3c"/>
                  </g>
                </g>
              </g>
              <path id="Trazado_704605" data-name="Trazado 704605" d="M1068.161,1513.622c1.545-2.114,3.113-4.211,4.67-6.317l4.707-6.287c3.142-4.189,6.317-8.353,9.474-12.531,3.186-4.155,6.357-8.323,9.558-12.467l4.809-6.211c1.616-2.06,3.22-4.13,4.847-6.181-1.545,2.114-3.113,4.211-4.669,6.317l-4.707,6.288c-3.143,4.188-6.317,8.353-9.474,12.53-3.187,4.155-6.356,8.323-9.558,12.466l-4.809,6.211c-1.616,2.06-3.219,4.13-4.846,6.182" transform="translate(-824.701 -1129.514)" fill="#a65b3c"/>
              <path id="Trazado_704606" data-name="Trazado 704606" d="M1276.3,1398.316a32.98,32.98,0,0,0-5.756,1.307l-.7.223c-.233.076-.464.163-.7.244-.462.167-.929.32-1.381.514s-.916.356-1.365.555l-1.342.609c-.449.2-.88.436-1.321.653l-.658.332c-.218.114-.427.242-.643.36l-1.286.721-1.251.782-.627.39c-.211.128-.4.28-.61.416l-1.216.841c-.811.561-1.568,1.194-2.372,1.775q.549-.5,1.108-.987l.558-.491.279-.245.292-.229c.79-.6,1.553-1.235,2.392-1.766.411-.277.822-.557,1.239-.826l1.283-.756c.214-.125.427-.254.646-.371l.663-.34c.444-.222.878-.465,1.331-.669a35.559,35.559,0,0,1,5.581-2.072,25.02,25.02,0,0,1,5.856-.968" transform="translate(-969.009 -1079.087)" fill="#a65b3c"/>
              <path id="Trazado_704607" data-name="Trazado 704607" d="M1260.676,1636.463c-.6-1.248-1.272-2.451-1.962-3.642-.348-.594-.7-1.184-1.07-1.765l-.552-.872-.572-.858c-.184-.29-.387-.568-.581-.852s-.389-.567-.594-.843l-.6-.837c-.2-.277-.417-.547-.623-.823-.829-1.1-1.7-2.164-2.581-3.238q.377.357.745.723c.245.245.5.483.731.739.469.51.945,1.015,1.382,1.554a38.1,38.1,0,0,1,2.5,3.324,37.418,37.418,0,0,1,2.125,3.578,25.827,25.827,0,0,1,1.651,3.813" transform="translate(-966.281 -1252.354)" fill="#a65b3c"/>
              <path id="Trazado_704608" data-name="Trazado 704608" d="M1170.752,1497.135c.188-1.253.336-2.506.475-3.758s.24-2.508.311-3.764.114-2.514.121-3.773v-.945l-.025-.945c.008-.633-.066-1.259-.074-1.9a25.963,25.963,0,0,1,.456,3.776c.024.317.032.634.034.952s.014.635.011.953c-.012.635-.027,1.27-.066,1.9-.081,1.267-.209,2.531-.414,3.784a29.172,29.172,0,0,1-.826,3.711" transform="translate(-903.909 -1143.74)" fill="#a65b3c"/>
              <path id="Trazado_704609" data-name="Trazado 704609" d="M827.212,1111.9l-48.168,85s-6.869,19.359-26.853,28.726c0,0-48.5,39.242-52.615-20.833-7.764-36.974,8.711-93.442,22.118-148.025a62.276,62.276,0,0,0,1.76-14.7c.017-6.226,1.409-16.181,9.07-23.121a32.061,32.061,0,0,1,11.239-13.793s28.68,2.565,42.665-28.085c2.573-5.64,9.57-22.874,9.57-22.874s5.178-20.459,16.137-20.408c0,0,3.44-7.152,9.493-6.74a2.986,2.986,0,0,1,2.523,4.111l-.825,2.038h.011a2.644,2.644,0,0,1,2.469,3.747l-6.863,14.927-7.432,24.5s6.076-4.879,10.478-3.457a2.678,2.678,0,0,1,.919,4.572l-13.965,12.095-10.981,11.059a18.773,18.773,0,0,1-7.247,9.2l-3.029,2.012a18.777,18.777,0,0,0-2.73,2.207l-22.687,22.155a27.87,27.87,0,0,0-8.175,16.412c-2.055,16.1-5.191,49.061-.871,76.182l28.819-29.481s33.195,2.772,45.168,12.566" transform="translate(-538.584 -715.228)" fill="#ffc89f"/>
              <path id="Trazado_704610" data-name="Trazado 704610" d="M1075.413,1143.481q-4.109,3.433-8.4,6.634c-1.436,1.058-2.893,2.089-4.319,3.159s-2.816,2.184-4.228,3.284a32.631,32.631,0,0,1-4.522,2.9c-.793.423-1.6.8-2.4,1.2l-2.411,1.159c-3.228,1.518-6.468,3.008-9.748,4.416l-.02-.041c3.155-1.669,6.35-3.254,9.558-4.813l2.416-1.148c.807-.381,1.62-.745,2.408-1.148a40.8,40.8,0,0,0,4.573-2.719c.725-.511,1.446-1.04,2.156-1.578s1.426-1.072,2.128-1.621c1.406-1.1,2.782-2.233,4.178-3.343q4.214-3.3,8.6-6.369Z" transform="translate(-802.472 -882.307)" fill="#ff9b6c"/>
              <path id="Trazado_704611" data-name="Trazado 704611" d="M1145.776,956.589a2.788,2.788,0,0,1,1.611.927,3.192,3.192,0,0,1,.285.384,3.258,3.258,0,0,1,.212.43,2.7,2.7,0,0,1,.2.939,3.261,3.261,0,0,1-.012.484,3.22,3.22,0,0,1-.1.476,2.863,2.863,0,0,1-.172.456c-.066.147-.137.279-.205.42l-.829,1.663c-.55,1.11-1.1,2.221-1.625,3.341s-1.073,2.232-1.593,3.356l-.79,1.682-.766,1.692c-.246.568-.5,1.133-.738,1.705s-.47,1.146-.688,1.726a42.49,42.49,0,0,0-2.12,7.1v0l0,.008q-1.012,3.475-2.067,6.936l-1.052,3.462-1.078,3.454c-.713,2.3-1.461,4.6-2.2,6.894s-1.512,4.582-2.3,6.865l-.043-.013q.973-3.487,2-6.956c.69-2.312,1.374-4.625,2.093-6.928l1.069-3.457,1.1-3.449q1.091-3.45,2.228-6.886l0,.013a58.393,58.393,0,0,1,2.234-7.106c.434-1.163.89-2.317,1.344-3.472l.707-1.722.733-1.712c.514-1.129,1.024-2.262,1.573-3.375s1.109-2.221,1.674-3.325q.427-.828.873-1.644a4.642,4.642,0,0,0,.386-.816,2.931,2.931,0,0,0,.107-.43,3.034,3.034,0,0,0,.026-.443,2.993,2.993,0,0,0-.039-.443,3.394,3.394,0,0,0-.117-.431,3.02,3.02,0,0,0-.177-.412,3.035,3.035,0,0,0-.552-.711,2.849,2.849,0,0,0-.361-.275,2.891,2.891,0,0,0-.834-.371Z" transform="translate(-872.22 -738.04)" fill="#ff9b6c"/>
              <path id="Trazado_704612" data-name="Trazado 704612" d="M1185.936,954.059a49.024,49.024,0,0,0-3.506,5.481c-1.059,1.893-2.023,3.836-2.92,5.81-.227.492-.437.993-.656,1.489l-.326.746-.3.757-.6,1.516-.527,1.542c-.367,1.024-.622,2.082-.921,3.126-.156.521-.255,1.056-.378,1.585l-.353,1.59c-.216,1.07-.469,2.134-.775,3.182s-.649,2.084-.989,3.116c-.681,2.066-1.359,4.133-2.061,6.192-1.414,4.115-2.856,8.22-4.386,12.3l-.043-.015c1.255-4.168,2.6-8.307,3.968-12.437.69-2.063,1.4-4.118,2.116-6.174.351-1.031.725-2.05,1.049-3.084s.627-2.075.877-3.13c.273-1.055.535-2.113.82-3.163l.456-1.569c.079-.26.145-.525.228-.784l.251-.777.491-1.559.537-1.544.27-.772.3-.762c.2-.506.388-1.019.6-1.521l.666-1.5c.224-.5.477-.981.72-1.47s.5-.969.764-1.448l.394-.717.417-.7a36.3,36.3,0,0,1,3.777-5.334Z" transform="translate(-901.165 -736.064)" fill="#ff9b6c"/>
              <path id="Trazado_704613" data-name="Trazado 704613" d="M858.278,1286.063a65.446,65.446,0,0,1,6.126-3.808c2.1-1.173,4.251-2.256,6.423-3.291,2.182-1.014,4.382-1.988,6.618-2.874,1.111-.46,2.245-.864,3.368-1.291.564-.208,1.135-.4,1.7-.6s1.136-.392,1.706-.581c-1.1.476-2.223.914-3.327,1.385l-1.658.7-.83.348-.825.36-1.65.719c-.55.238-1.094.492-1.641.737-1.1.482-2.182,1-3.27,1.5q-3.253,1.536-6.449,3.191c-.531.279-1.064.554-1.591.841s-1.057.567-1.581.859q-1.582.86-3.122,1.8" transform="translate(-662.656 -982.813)" fill="#ff9b6c"/>
              <path id="Trazado_704614" data-name="Trazado 704614" d="M941.722,1812.317q.281,2.773.667,5.531c.253,1.839.52,3.676.826,5.506.6,3.662,1.255,7.317,2.052,10.941.18.91.382,1.816.586,2.72s.394,1.813.618,2.714l.662,2.7q.162.677.344,1.348l.35,1.347c.239.9.454,1.8.713,2.691l.762,2.678c.239.9.516,1.783.786,2.672s.539,1.777.8,2.668q-.465-1.313-.918-2.631c-.3-.878-.613-1.755-.885-2.644l-.825-2.663c-.28-.887-.515-1.786-.775-2.679-1.024-3.575-1.875-7.2-2.667-10.831-.184-.911-.376-1.821-.553-2.734l-.509-2.742c-.317-1.832-.639-3.664-.89-5.506s-.494-3.685-.7-5.532c-.181-1.85-.362-3.7-.447-5.557" transform="translate(-727.081 -1398.727)" fill="#ff9b6c"/>
              <path id="Trazado_704615" data-name="Trazado 704615" d="M985.223,2014.034a36.19,36.19,0,0,1,1.971,5.992c.117.513.25,1.024.349,1.541l.3,1.552.238,1.563c.083.521.125,1.047.189,1.57l.084.786.052.789c.03.526.078,1.052.093,1.579.008,1.055.057,2.109-.01,3.162l-.031.79c-.012.263-.014.526-.046.788l-.153,1.573c-.032.261-.046.524-.093.783l-.126.78q-.123.779-.26,1.555a62.12,62.12,0,0,0,.354-6.275c.024-1.046-.033-2.091-.066-3.136-.025-.522-.072-1.043-.106-1.565l-.057-.782-.088-.779a57.5,57.5,0,0,0-.968-6.2,52.667,52.667,0,0,0-1.625-6.071" transform="translate(-760.667 -1554.468)" fill="#ff9b6c"/>
              <path id="Trazado_704616" data-name="Trazado 704616" d="M900.2,1027.951c.821.041,1.645.03,2.466,0,.411-.012.821-.044,1.231-.067s.82-.062,1.228-.109a46.824,46.824,0,0,0,4.868-.753c1.605-.347,3.191-.776,4.756-1.269.777-.265,1.557-.518,2.318-.826.771-.281,1.519-.619,2.271-.945A44.68,44.68,0,0,0,935,1012.292a48.618,48.618,0,0,0,5.574-8.122l.588-1.084c.1-.182.2-.359.29-.544l.266-.557,1.06-2.227c.669-1.5,1.3-3.023,1.94-4.542l3.763-9.139,3.735-9.151-.01.031a53.315,53.315,0,0,1,2.267-6.566,42.376,42.376,0,0,1,3.182-6.172,25.279,25.279,0,0,1,2.047-2.812,17.871,17.871,0,0,1,2.474-2.446,11.534,11.534,0,0,1,2.995-1.762,9.038,9.038,0,0,1,3.4-.614v.045a8.942,8.942,0,0,0-3.346.705,11.881,11.881,0,0,0-2.9,1.808,21.73,21.73,0,0,0-4.363,5.268,41.981,41.981,0,0,0-3.075,6.151,54.5,54.5,0,0,0-2.222,6.51l0,.018-.005.013-1.865,4.578-1.9,4.565-1.911,4.559-1.952,4.542c-.66,1.511-1.317,3.022-2.011,4.519l-1.1,2.219-.276.554c-.093.184-.2.361-.3.541l-.607,1.079a54.93,54.93,0,0,1-5.614,8.136,46.085,46.085,0,0,1-7.116,6.869l-.987.751c-.331.248-.68.471-1.019.708s-.682.469-1.032.688l-1.061.643-.531.322c-.178.1-.363.2-.544.3l-1.091.593c-.363.2-.741.368-1.113.549s-.741.369-1.126.523c-.762.323-1.519.658-2.3.936-.769.3-1.558.554-2.343.815a45.2,45.2,0,0,1-4.806,1.218,38.288,38.288,0,0,1-9.858.684Z" transform="translate(-695.021 -738.036)" fill="#ff9b6c"/>
              <path id="Trazado_704617" data-name="Trazado 704617" d="M557.118,392.661a50.286,50.286,0,0,1,8.542-1.92,9.54,9.54,0,0,0,2.883-.748c2.643-1.168,8.447-3.495,12.849-3.538,5.883-.058-1.236-12.341-15.271-6.869a13.376,13.376,0,0,0-1.309-16s8.175-5.059,2.022-16.474c0,0,7.077-4.7,1.665-13.56,0,0,5.941-14.468-11.381-16.465v7.264l-2.63,2.259s-11.035-3.781-14.817,5.208c0,0-8.113-.759-12.764,2.149a4.242,4.242,0,0,0,1.181,7.652l.114.03s-4.406,1.538-3.75,5.237c.553,3.122,4.631,5.075,4.631,5.075s-1.841,6.3,5.614,10.79,11.588,7.276,11.588,7.276l10.833,8.448Z" transform="translate(-404.864 -244.298)" fill="#ffc89f"/>
              <path id="Trazado_704618" data-name="Trazado 704618" d="M580.689,481.674a5.884,5.884,0,0,1-1.151.343,8.4,8.4,0,0,1-1.193.165c-.2.022-.4.019-.6.024l-.3.006c-.1,0-.2-.008-.3-.012-.2-.011-.4-.014-.6-.032l-.6-.073c-.2-.019-.4-.064-.6-.1l-.593-.12c-.386-.115-.779-.209-1.159-.341l-.567-.208a5.822,5.822,0,0,1-.559-.228l-.547-.255c-.18-.088-.366-.167-.538-.272-.347-.2-.7-.4-1.037-.611l-.991-.68a18.2,18.2,0,0,0-2-1.275,23.292,23.292,0,0,0-2.149-1.018c-.727-.316-1.478-.578-2.226-.842-1.5-.508-3.021-.969-4.544-1.417s-3.056-.861-4.584-1.3-3.053-.895-4.567-1.4q-1.134-.378-2.244-.835c-.369-.153-.733-.321-1.087-.508a6.243,6.243,0,0,1-1.013-.643l.027-.036a10.566,10.566,0,0,0,2.156.972c.746.264,1.508.485,2.267.71,1.522.444,3.06.842,4.592,1.268s3.058.878,4.577,1.356,3.026,1,4.506,1.593,2.941,1.229,4.357,1.963c.711.359,1.4.774,2.075,1.2l1.012.616c.346.189.7.362,1.047.547a16.257,16.257,0,0,0,4.438,1.515,12.2,12.2,0,0,0,2.343.2,9.078,9.078,0,0,0,2.337-.311Z" transform="translate(-420.733 -362.364)" fill="#ff9b6c"/>
              <path id="Trazado_704619" data-name="Trazado 704619" d="M579.383,429.078a4.9,4.9,0,0,1-1.036.725c-.185.1-.379.186-.57.28-.2.079-.4.15-.594.226a10.733,10.733,0,0,1-2.493.476,14.681,14.681,0,0,1-5.01-.643c-.4-.133-.8-.253-1.2-.4l-1.169-.475c-.773-.321-1.53-.673-2.31-.973-.39-.15-.777-.306-1.169-.451l-1.182-.416-.591-.207-.6-.189-1.2-.375c-1.6-.47-3.209-.92-4.826-1.326s-3.245-.761-4.885-1.047a46.429,46.429,0,0,0-4.943-.672,29.511,29.511,0,0,0-4.991-.016l-.006-.045a23.355,23.355,0,0,1,5.019-.295c.419.025.84.032,1.258.073l1.255.116c.418.041.833.108,1.249.164l.624.088.62.108a61.622,61.622,0,0,1,9.7,2.614c1.576.568,3.148,1.137,4.71,1.737.786.286,1.564.6,2.352.876l1.178.409c.394.13.8.223,1.2.34a17.45,17.45,0,0,0,4.89.655,11.27,11.27,0,0,0,2.441-.352,6.881,6.881,0,0,0,2.239-1.035Z" transform="translate(-417.398 -326.246)" fill="#ff9b6c"/>
              <path id="Trazado_704620" data-name="Trazado 704620" d="M590.1,381.694c-.058.159-.106.322-.153.485a2.12,2.12,0,0,0-.1.484,1.3,1.3,0,0,0,.277.884,1.275,1.275,0,0,0,.769.467c.142.022.323.028.491.04l.51.038c1.36.106,2.718.25,4.065.47s2.681.517,4.011.817c.666.146,1.329.306,1.99.475.331.082.658.182.989.268.326.1.656.2.979.314s.646.243.957.35a7.789,7.789,0,0,0,.964.252,7.235,7.235,0,0,0,.987.119c.335.016.674.03,1.011.036a24.609,24.609,0,0,0,4.029-.259,14.339,14.339,0,0,0,3.858-1.08,8.146,8.146,0,0,0,3.155-2.444l.038.026a7.561,7.561,0,0,1-3.035,2.741,13.066,13.066,0,0,1-3.942,1.238,21.031,21.031,0,0,1-4.115.207c-.343-.015-.685-.032-1.028-.063a7.71,7.71,0,0,1-1.033-.166,6.545,6.545,0,0,1-1-.314c-.326-.135-.628-.277-.939-.409a21.089,21.089,0,0,0-3.9-1.145c-1.333-.266-2.686-.426-4.034-.586s-2.7-.338-4.045-.494l-.506-.058c-.17-.022-.33-.033-.524-.072a1.5,1.5,0,0,1-.9-.625,1.445,1.445,0,0,1-.234-1.043,2.234,2.234,0,0,1,.154-.5c.063-.16.135-.315.213-.468Z" transform="translate(-455.272 -294.164)" fill="#ff9b6c"/>
              <path id="Trazado_704621" data-name="Trazado 704621" d="M677.393,586.862a4.156,4.156,0,0,1-1.816,2.143,3.813,3.813,0,0,1-1.386.459,4.775,4.775,0,0,1-1.457-.057,7.089,7.089,0,0,1-1.369-.451,9.161,9.161,0,0,1-1.239-.7A11.946,11.946,0,0,1,668,586.414a26.707,26.707,0,0,0,2.313,1.538,8.487,8.487,0,0,0,2.509,1.009,4.1,4.1,0,0,0,2.591-.27,4.878,4.878,0,0,0,1.98-1.829" transform="translate(-515.747 -452.237)" fill="#ff9b6c"/>
              <path id="Trazado_704622" data-name="Trazado 704622" d="M668,347.3a5.325,5.325,0,0,1,1.824-.471,5.022,5.022,0,0,1,.949.01,3.539,3.539,0,0,1,.92.223c-.315-.026-.622-.045-.93-.045s-.614.009-.921.039-.612.061-.919.1-.614.089-.924.142" transform="translate(-515.747 -267.248)" fill="#ff9b6c"/>
            </g>
          </g>
          <g id="Grupo_999661" data-name="Grupo 999661">
            <g id="Grupo_999660" data-name="Grupo 999660" clip-path="url(#clip-path-3)">
              <path id="Trazado_704623" data-name="Trazado 704623" d="M1381.421,1079.375a23.328,23.328,0,0,0-45.626,3.313l-10.119,3.031,10.79,6.109a23.324,23.324,0,1,0,44.956-12.452" transform="translate(-1023.522 -819.635)" fill="#fff"/>
              <path id="Trazado_704624" data-name="Trazado 704624" d="M1325.676,1154.879q1.247-.438,2.506-.837c.838-.269,1.681-.526,2.523-.78s1.688-.5,2.537-.735,1.7-.465,2.553-.679q-1.247.438-2.506.836c-.839.269-1.68.526-2.523.78s-1.688.5-2.536.735-1.7.465-2.553.678" transform="translate(-1023.522 -888.795)" fill="#1f4068"/>
              <path id="Trazado_704625" data-name="Trazado 704625" d="M1336.466,1171.254q-1.38-.71-2.738-1.455c-.907-.494-1.809-1-2.709-1.507s-1.8-1.024-2.686-1.548-1.778-1.054-2.657-1.6q1.379.71,2.738,1.456c.907.494,1.809,1,2.709,1.507s1.8,1.024,2.686,1.547,1.778,1.054,2.657,1.6" transform="translate(-1023.522 -899.062)" fill="#1f4068"/>
              <path id="Trazado_704626" data-name="Trazado 704626" d="M1370.075,1082.284a23.355,23.355,0,0,1,2.571-8.146,23.4,23.4,0,0,1,36.785-5.914,23.158,23.158,0,0,1,5.024,6.965,23.935,23.935,0,0,1,1.473,4.053,22.906,22.906,0,0,1,.718,4.254,23.4,23.4,0,0,1-45.9,7.928,23.334,23.334,0,0,0,17.942,16.549,23.378,23.378,0,0,0,16.445-2.881,22.972,22.972,0,0,0,6.354-5.62,23.234,23.234,0,0,0,4.844-15.954,22.691,22.691,0,0,0-.7-4.2,23.615,23.615,0,0,0-1.448-4,22.85,22.85,0,0,0-4.949-6.884,23.274,23.274,0,0,0-36.517,5.741,23.321,23.321,0,0,0-2.639,8.11" transform="translate(-1057.801 -819.231)" fill="#1f4068"/>
              <path id="Trazado_704627" data-name="Trazado 704627" d="M1462.68,1129.984a2.734,2.734,0,0,0-2.019.841,2.96,2.96,0,0,0,0,4.113,2.734,2.734,0,0,0,2.019.841,2.867,2.867,0,0,0,2.09-.841,2.9,2.9,0,0,0,0-4.113,2.866,2.866,0,0,0-2.09-.841m2.749-19.125-.571,16.516h-3.948l-.572-16.516Z" transform="translate(-1127.099 -857.148)" fill="#1f4068"/>
            </g>
          </g>
        </g>
      </g>
    </g>
  </g>
</svg>
