<svg xmlns="http://www.w3.org/2000/svg" xmlns:xlink="http://www.w3.org/1999/xlink" width="136.546" height="136.546" viewBox="0 0 136.546 136.546">
  <defs>
    <filter id="Elipse_4875" x="0" y="0" width="136.546" height="136.546" filterUnits="userSpaceOnUse">
      <feOffset dy="3" input="SourceAlpha"/>
      <feGaussianBlur stdDeviation="3" result="blur"/>
      <feFlood flood-opacity="0.161"/>
      <feComposite operator="in" in2="blur"/>
      <feComposite in="SourceGraphic"/>
    </filter>
  </defs>
  <g id="Grupo_1003705" data-name="Grupo 1003705" transform="translate(1816 6022.124)">
    <g transform="matrix(1, 0, 0, 1, -1816, -6022.12)" filter="url(#Elipse_4875)">
      <circle id="Elipse_4875-2" data-name="Elipse 4875" cx="59.273" cy="59.273" r="59.273" transform="translate(9 6)" fill="#0098e8"/>
    </g>
    <g id="Grupo_999995" data-name="Grupo 999995" transform="translate(0 36)">
      <g id="educacion-a-distancia" transform="translate(-1784.604 -6027.707)">
        <g id="Grupo_999974" data-name="Grupo 999974" transform="translate(2.165 2.165)">
          <g id="Grupo_999964" data-name="Grupo 999964" transform="translate(0 65.221)">
            <path id="Trazado_705347" data-name="Trazado 705347" d="M71.88,58v4.659H2V58H71.88Z" transform="translate(-2 -58)" fill="#b27946"/>
          </g>
          <g id="Grupo_999965" data-name="Grupo 999965" transform="translate(44.257 41.124)">
            <path id="Trazado_705348" data-name="Trazado 705348" d="M60.964,41.677V55.514A5.772,5.772,0,0,1,59.275,59.6l-.047.047A5.968,5.968,0,0,1,55,61.407H40V54.419H53.976V46.732a10.861,10.861,0,0,1,5.462-9.422,7.009,7.009,0,0,1,1.526,4.367Z" transform="translate(-40 -37.31)" fill="#b4dd7f"/>
          </g>
          <g id="Grupo_999966" data-name="Grupo 999966" transform="translate(46.586 38.434)">
            <path id="Trazado_705349" data-name="Trazado 705349" d="M56.244,35.571a6.951,6.951,0,0,1,2.865,2.12,10.861,10.861,0,0,0-5.462,9.422V54.8H42V45.925a9.257,9.257,0,0,1,5.823-8.6l2.329,2.329L54.811,35Z" transform="translate(-42 -35)" fill="#b4dd7f"/>
          </g>
          <g id="Grupo_999967" data-name="Grupo 999967" transform="translate(43.092 10.482)">
            <path id="Trazado_705350" data-name="Trazado 705350" d="M62.293,25.593a11.291,11.291,0,0,1-1.048,4.717A11.059,11.059,0,0,1,58.3,34.13l-2.993,2.492V32.931a2.336,2.336,0,0,1,.687-1.654l.955-.955a2.336,2.336,0,0,0,.687-1.654v-.2a2.329,2.329,0,0,0-2.329-2.329V23.811a2.329,2.329,0,0,0-2.329-2.329H43.461a4.465,4.465,0,0,1-2.294-8.292L44.823,11l.151.443A4.46,4.46,0,0,0,49.2,14.494h1.992a11.1,11.1,0,0,1,11.1,11.1Z" transform="translate(-39 -11)" fill="#656d78"/>
          </g>
          <g id="Grupo_999968" data-name="Grupo 999968" transform="translate(15.141 58.233)">
            <path id="Trazado_705351" data-name="Trazado 705351" d="M21.988,52H37.129A2.329,2.329,0,0,0,34.8,54.329v2.329a2.329,2.329,0,0,0,2.329,2.329H18.273A3.276,3.276,0,0,1,15,55.715V52Z" transform="translate(-15 -52)" fill="#aab2bd"/>
          </g>
          <g id="Grupo_999969" data-name="Grupo 999969" transform="translate(12.811 37.269)">
            <path id="Trazado_705352" data-name="Trazado 705352" d="M18.823,34l3.494,20.964H15.329L13.023,37.715c-.012-.151-.023-.291-.023-.443A3.261,3.261,0,0,1,16.273,34Z" transform="translate(-13 -34)" fill="#ccd1d9"/>
          </g>
          <g id="Grupo_999971" data-name="Grupo 999971" transform="translate(34.94 55.904)">
            <path id="Trazado_705354" data-name="Trazado 705354" d="M41.317,52.329v6.988H34.329A2.329,2.329,0,0,1,32,56.988V54.659a2.329,2.329,0,0,1,2.329-2.329h1.165l.536-1.083a2.262,2.262,0,0,1,3.622-.582Z" transform="translate(-32 -50)" fill="#f0d0b4"/>
          </g>
          <g id="Grupo_999972" data-name="Grupo 999972" transform="translate(45.422 20.964)">
            <path id="Trazado_705355" data-name="Trazado 705355" d="M47.988,36.27a3.965,3.965,0,0,1-3.494-3.937v-.687L41,30.482A19.446,19.446,0,0,1,44.494,20h8.153a2.329,2.329,0,0,1,2.329,2.329v2.329a2.329,2.329,0,0,1,2.329,2.329v.2a2.336,2.336,0,0,1-.687,1.654l-.955.955a2.336,2.336,0,0,0-.687,1.654V37.47l-4.659,4.659L47.988,39.8Z" transform="translate(-41 -20)" fill="#f0d0b4"/>
          </g>
          <g id="Grupo_999973" data-name="Grupo 999973" transform="translate(24.458 27.952)">
            <path id="Trazado_705356" data-name="Trazado 705356" d="M39.305,28.329v4.659a2.336,2.336,0,0,1-2.329,2.329H32.317L28.136,39.5a1.647,1.647,0,0,1-2.807-1.165V35.317A2.336,2.336,0,0,1,23,32.988V28.329A2.336,2.336,0,0,1,25.329,26H36.976A2.336,2.336,0,0,1,39.305,28.329Z" transform="translate(-23 -26)" fill="#ffeaa7"/>
          </g>
        </g>
        <g id="Grupo_999991" data-name="Grupo 999991" transform="translate(1 1)">
          <g id="Grupo_999975" data-name="Grupo 999975" transform="translate(51.498 27.017)">
            <circle id="Elipse_4892" data-name="Elipse 4892" cx="1" cy="1" r="1" transform="translate(0.005 -0.311)"/>
          </g>
          <g id="Grupo_999976" data-name="Grupo 999976" transform="translate(34.94 20.964)">
            <path id="Trazado_705357" data-name="Trazado 705357" d="M56.487,65.586h-22A3.5,3.5,0,0,1,31,62.092V59.763a3.5,3.5,0,0,1,3.494-3.494h.445l.219-.438a3.4,3.4,0,0,1,3.06-1.891,3.444,3.444,0,0,1,2.419,1l1.328,1.328H54.293V49.747a12.055,12.055,0,0,1,4.8-9.608,5.878,5.878,0,0,0-1.471-.851l-2.163-.864V31.611a3.473,3.473,0,0,1,1.024-2.47l.964-.966a1.157,1.157,0,0,0,.341-.823v-.2a1.166,1.166,0,0,0-1.165-1.165H55.458V22.494a1.166,1.166,0,0,0-1.165-1.165H46.756a18.629,18.629,0,0,0-2.919,8.487l3.468,1.155v1.521a2.811,2.811,0,0,0,2.811,2.813h3.012v2.329H50.117a5.14,5.14,0,0,1-5.138-4.982l-3.5-1.167v-.839a20.485,20.485,0,0,1,3.727-11.181L45.558,19h8.735a3.5,3.5,0,0,1,3.494,3.494v1.364a3.5,3.5,0,0,1,2.329,3.295v.2a3.473,3.473,0,0,1-1.024,2.47l-.964.966a1.166,1.166,0,0,0-.341.823v5.235l.7.28a8.113,8.113,0,0,1,5.125,7.57V58.529a6.91,6.91,0,0,1-2.037,4.918,7.136,7.136,0,0,1-5.087,2.139ZM34.494,58.6a1.166,1.166,0,0,0-1.165,1.165v2.329a1.163,1.163,0,0,0,1.159,1.165h22a4.782,4.782,0,0,0,3.4-1.415,4.634,4.634,0,0,0,1.4-3.315V44.695a5.82,5.82,0,0,0-.693-2.766,9.717,9.717,0,0,0-3.966,7.818V58.6H41l-2.01-2.01a1.131,1.131,0,0,0-1.748.284L36.378,58.6Z" transform="translate(-31 -19)"/>
          </g>
          <g id="Grupo_999977" data-name="Grupo 999977" transform="translate(44.257 59.398)">
            <path id="Trazado_705358" data-name="Trazado 705358" d="M39,52h2.329v6.988H39Z" transform="translate(-39 -52)"/>
          </g>
          <g id="Grupo_999978" data-name="Grupo 999978" transform="translate(46.586 38.404)">
            <path id="Trazado_705359" data-name="Trazado 705359" d="M43.329,54.968H41V46.1a10.375,10.375,0,0,1,5.823-9.358V33.974h2.329v4.312l-.733.292A8.064,8.064,0,0,0,43.329,46.1Z" transform="translate(-41 -33.974)"/>
          </g>
          <g id="Grupo_999979" data-name="Grupo 999979" transform="translate(52.751 38.774)">
            <path id="Trazado_705360" data-name="Trazado 705360" d="M49.446,41.422l-3.153-3.153,1.647-1.648,1.506,1.506,3.835-3.835,1.647,1.648Z" transform="translate(-46.293 -34.292)"/>
          </g>
          <g id="Grupo_999980" data-name="Grupo 999980" transform="translate(43.092 9.901)">
            <path id="Trazado_705361" data-name="Trazado 705361" d="M56.216,37.764l-1.492-1.789,2.992-2.494a9.94,9.94,0,0,0-6.363-17.576H49.368a5.62,5.62,0,0,1-4.953-2.957l-2.484,1.491a3.3,3.3,0,0,0,1.7,6.125h2.526v2.329H43.626a5.626,5.626,0,0,1-2.893-10.452l4.9-2.941.607,1.82a3.3,3.3,0,0,0,3.128,2.255h1.986A12.269,12.269,0,0,1,59.208,35.27Z" transform="translate(-38 -9.501)"/>
          </g>
          <g id="Grupo_999981" data-name="Grupo 999981" transform="translate(0 65.221)">
            <path id="Trazado_705362" data-name="Trazado 705362" d="M73.209,63.988H1V57H73.209ZM3.329,61.659H70.88V59.329H3.329Z" transform="translate(-1 -57)"/>
          </g>
          <g id="Grupo_999982" data-name="Grupo 999982" transform="translate(12.811 37.269)">
            <path id="Trazado_705363" data-name="Trazado 705363" d="M21.334,55.321,18,35.329H16.441a2.113,2.113,0,0,0-2.112,2.112,2,2,0,0,0,.019.277l2.3,17.256-2.308.309-2.3-17.254a4.284,4.284,0,0,1-.04-.587A4.447,4.447,0,0,1,16.441,33h3.532L23.63,54.936Z" transform="translate(-12 -33)"/>
          </g>
          <g id="Grupo_999983" data-name="Grupo 999983" transform="translate(15.141 58.233)">
            <path id="Trazado_705364" data-name="Trazado 705364" d="M38.458,60.317H18.441A4.447,4.447,0,0,1,14,55.876V51H38.458v2.329H16.329v2.547a2.113,2.113,0,0,0,2.112,2.112H38.458Z" transform="translate(-14 -51)"/>
          </g>
          <g id="Grupo_999989" data-name="Grupo 999989" transform="translate(29.117 32.611)">
            <path id="Trazado_705370" data-name="Trazado 705370" d="M26,29h9.317v2.329H26Z" transform="translate(-26 -29)"/>
          </g>
          <g id="Grupo_999990" data-name="Grupo 999990" transform="translate(24.458 27.952)">
            <path id="Trazado_705371" data-name="Trazado 705371" d="M27.141,41.305a2.815,2.815,0,0,1-2.811-2.811V36.447A3.5,3.5,0,0,1,22,33.153V28.494A3.5,3.5,0,0,1,25.494,25H37.141a3.5,3.5,0,0,1,3.494,3.494v4.659a3.5,3.5,0,0,1-3.494,3.494H32.964l-3.835,3.835A2.827,2.827,0,0,1,27.141,41.305ZM25.494,27.329a1.166,1.166,0,0,0-1.165,1.165v4.659a1.166,1.166,0,0,0,1.165,1.165h1.165v4.176a.5.5,0,0,0,.822.341L32,34.317h5.141a1.166,1.166,0,0,0,1.165-1.165V28.494a1.166,1.166,0,0,0-1.165-1.165Z" transform="translate(-22 -25)"/>
          </g>
        </g>
      </g>
      <g id="distancia" transform="translate(-1802.146 -6036.893)">
        <g id="Grupo_999993" data-name="Grupo 999993" transform="translate(5.956 5.956)">
          <path id="Trazado_705372" data-name="Trazado 705372" d="M85,14.265c0,6.6,7.265,14.53,7.265,14.53s7.265-7.927,7.265-14.53a7.265,7.265,0,0,0-14.53,0Z" transform="translate(-53.518 -7)" fill="#b4dd7f"/>
          <path id="Trazado_705373" data-name="Trazado 705373" d="M7,74.265c0,6.6,7.265,14.53,7.265,14.53s7.265-7.927,7.265-14.53a7.265,7.265,0,0,0-14.53,0Z" transform="translate(-7 -42.783)" fill="#8019e8"/>
          <g id="Grupo_999992" data-name="Grupo 999992" transform="translate(3.633 3.633)">
            <circle id="Elipse_4893" data-name="Elipse 4893" cx="3.633" cy="3.633" r="3.633" transform="translate(31.482)" fill="#e6f8fc"/>
            <circle id="Elipse_4894" data-name="Elipse 4894" cx="3.633" cy="3.633" r="3.633" transform="translate(0 24.217)" fill="#e6f8fc"/>
          </g>
        </g>
        <g id="Grupo_999994" data-name="Grupo 999994" transform="translate(5.25 5.25)">
          <path id="Trazado_705374" data-name="Trazado 705374" d="M115.025,38.574a.707.707,0,0,0-.94.338c-.242.511-.511,1.039-.8,1.566a.707.707,0,1,0,1.235.686c.308-.555.592-1.11.848-1.65a.706.706,0,0,0-.339-.941Z" transform="translate(-69.625 -25.084)"/>
          <path id="Trazado_705375" data-name="Trazado 705375" d="M91.221,5.25a7.98,7.98,0,0,0-7.971,7.971c0,6.8,7.146,14.676,7.451,15.008a.707.707,0,0,0,1.041,0,39.264,39.264,0,0,0,2.906-3.694.706.706,0,1,0-1.158-.81c-.907,1.3-1.75,2.338-2.266,2.949-1.637-1.939-6.561-8.215-6.561-13.453a6.559,6.559,0,0,1,13.118,0,10.414,10.414,0,0,1-.283,2.32.706.706,0,1,0,1.377.317,11.8,11.8,0,0,0,.319-2.637A7.98,7.98,0,0,0,91.221,5.25Z" transform="translate(-51.768 -5.25)"/>
          <path id="Trazado_705376" data-name="Trazado 705376" d="M96.589,14.25a4.339,4.339,0,1,0,4.339,4.339,4.339,4.339,0,0,0-4.339-4.339Zm0,7.265a2.926,2.926,0,1,1,2.926-2.926A2.926,2.926,0,0,1,96.589,21.515Z" transform="translate(-57.135 -10.617)"/>
          <path id="Trazado_705377" data-name="Trazado 705377" d="M13.221,65.25A7.98,7.98,0,0,0,5.25,73.221a12.368,12.368,0,0,0,.491,3.3.706.706,0,1,0,1.361-.38,10.972,10.972,0,0,1-.439-2.924,6.559,6.559,0,1,1,13.118,0c0,5.238-4.924,11.513-6.559,13.453a37.926,37.926,0,0,1-4.826-7.222.706.706,0,0,0-1.268.623A39.157,39.157,0,0,0,12.7,88.229a.707.707,0,0,0,1.041,0c.3-.332,7.451-8.208,7.451-15.008a7.98,7.98,0,0,0-7.971-7.971Z" transform="translate(-5.25 -41.033)"/>
          <path id="Trazado_705378" data-name="Trazado 705378" d="M22.928,78.589a4.339,4.339,0,1,0-4.339,4.339,4.339,4.339,0,0,0,4.339-4.339Zm-7.265,0a2.926,2.926,0,1,1,2.926,2.926A2.926,2.926,0,0,1,15.663,78.589Z" transform="translate(-10.617 -46.4)"/>
          <path id="Trazado_705379" data-name="Trazado 705379" d="M91.764,59.25h-.807a.706.706,0,1,0,0,1.413h.807a.706.706,0,0,0,0-1.413Z" transform="translate(-55.942 -37.455)"/>
          <path id="Trazado_705380" data-name="Trazado 705380" d="M45.065,119.25H43.531a.706.706,0,0,0,0,1.413h1.534a.706.706,0,0,0,0-1.413Z" transform="translate(-27.659 -73.237)"/>
          <path id="Trazado_705381" data-name="Trazado 705381" d="M56.754,117.223a3.294,3.294,0,0,1-1.113.584.706.706,0,1,0,.406,1.353,4.722,4.722,0,0,0,1.588-.833.707.707,0,1,0-.882-1.1Z" transform="translate(-35.002 -71.936)"/>
          <path id="Trazado_705382" data-name="Trazado 705382" d="M80.135,59.25H78.6a.706.706,0,0,0,0,1.413h1.534a.706.706,0,1,0,0-1.413Z" transform="translate(-48.574 -37.455)"/>
          <path id="Trazado_705383" data-name="Trazado 705383" d="M62.951,105.874a.706.706,0,0,0-.706.706v1.363c0,.048,0,.1,0,.142a.706.706,0,0,0,.676.735h.03a.706.706,0,0,0,.7-.677c0-.067,0-.134,0-.2v-1.363A.706.706,0,0,0,62.951,105.874Z" transform="translate(-39.239 -65.26)"/>
          <path id="Trazado_705384" data-name="Trazado 705384" d="M67.888,59.689a4.722,4.722,0,0,0-1.588.831.706.706,0,1,0,.879,1.106,3.31,3.31,0,0,1,1.114-.581.707.707,0,1,0-.4-1.354Z" transform="translate(-41.5 -37.696)"/>
          <path id="Trazado_705385" data-name="Trazado 705385" d="M62.956,81.161a.706.706,0,0,0-.706.706V83.4a.706.706,0,0,0,1.413,0V81.867a.706.706,0,0,0-.706-.706Z" transform="translate(-39.244 -50.522)"/>
          <path id="Trazado_705386" data-name="Trazado 705386" d="M62.991,68.806a.7.7,0,0,0-.736.675c0,.069,0,.14,0,.21v1.355a.706.706,0,0,0,1.413,0V69.691c0-.05,0-.1,0-.149a.706.706,0,0,0-.675-.736Z" transform="translate(-39.244 -43.153)"/>
          <path id="Trazado_705387" data-name="Trazado 705387" d="M62.956,93.518a.706.706,0,0,0-.706.706v1.534a.706.706,0,1,0,1.413,0V94.224A.706.706,0,0,0,62.956,93.518Z" transform="translate(-39.244 -57.891)"/>
          <path id="Trazado_705388" data-name="Trazado 705388" d="M33.764,119.25h-.807a.706.706,0,0,0,0,1.413h.807a.706.706,0,0,0,0-1.413Z" transform="translate(-21.352 -73.237)"/>
        </g>
      </g>
    </g>
  </g>
</svg>
