<svg xmlns="http://www.w3.org/2000/svg" xmlns:xlink="http://www.w3.org/1999/xlink" width="1329" height="621" viewBox="0 0 1329 621">
  <defs>
    <clipPath id="clip-path">
      <rect id="Rect치ngulo_345161" data-name="Rect치ngulo 345161" width="1329" height="621" transform="translate(136 4747)" fill="#636363" opacity="0.25"/>
    </clipPath>
    <linearGradient id="linear-gradient" x1="0.5" x2="0.5" y2="1" gradientUnits="objectBoundingBox">
      <stop offset="0" stop-color="#fff"/>
      <stop offset="1" stop-color="#fff" stop-opacity="0"/>
    </linearGradient>
    <linearGradient id="linear-gradient-2" y1="1" y2="0" xlink:href="#linear-gradient"/>
  </defs>
  <g id="Grupo_999818" data-name="Grupo 999818" transform="translate(-136 -4747)">
    <rect id="Rect치ngulo_344420" data-name="Rect치ngulo 344420" width="1328" height="621" transform="translate(136 4747)" fill="#ffdeb7" opacity="0.15"/>
    <g id="Enmascarar_grupo_927355" data-name="Enmascarar grupo 927355" clip-path="url(#clip-path)">
      <g id="Grupo_990811" data-name="Grupo 990811" transform="translate(63.667 4994)" opacity="0.39">
        <g id="Grupo_990789" data-name="Grupo 990789" transform="translate(130.266 27.66)">
          <path id="Trazado_699610" data-name="Trazado 699610" d="M240.617,98.836a2.348,2.348,0,1,1-2.6,2.336,2.478,2.478,0,0,1,2.6-2.336m-18.472,2.336a2.612,2.612,0,1,0,2.6-2.336,2.477,2.477,0,0,0-2.6,2.336m-15.864,0a2.612,2.612,0,1,0,2.6-2.336,2.475,2.475,0,0,0-2.6,2.336M5.2,87.053a2.229,2.229,0,0,0-.864-1.728c-.384,1.321-.761,2.646-1.1,3.985A2.4,2.4,0,0,0,5.2,87.053m185.213,14.118a2.613,2.613,0,1,0,2.6-2.336,2.474,2.474,0,0,0-2.6,2.336M2.6,103.5a2.348,2.348,0,1,0,0-4.669,2.817,2.817,0,0,0-1.359.35c-.186,1.2-.356,2.407-.5,3.62a2.735,2.735,0,0,0,1.858.7m76.742-2.333a2.613,2.613,0,1,0,2.6-2.336,2.474,2.474,0,0,0-2.6,2.336m47.6,0a2.614,2.614,0,1,0,2.6-2.336,2.474,2.474,0,0,0-2.6,2.336m-15.87,0a2.614,2.614,0,1,0,2.6-2.336,2.476,2.476,0,0,0-2.6,2.336m-15.866,0a2.611,2.611,0,1,0,2.6-2.336,2.475,2.475,0,0,0-2.6,2.336m47.606,0a2.611,2.611,0,1,0,2.595-2.336,2.471,2.471,0,0,0-2.595,2.336m79.332-14.118a2.612,2.612,0,1,0,2.6-2.34,2.484,2.484,0,0,0-2.6,2.34m-63.468,14.118a2.614,2.614,0,1,0,2.6-2.336,2.474,2.474,0,0,0-2.6,2.336m15.867,0a2.613,2.613,0,1,0,2.6-2.336,2.474,2.474,0,0,0-2.6,2.336m15.867-14.118a2.613,2.613,0,1,0,2.6-2.34,2.481,2.481,0,0,0-2.6,2.34m-47.6,0a2.61,2.61,0,1,0,2.595-2.34,2.478,2.478,0,0,0-2.595,2.34m15.864,0a2.614,2.614,0,1,0,2.6-2.34,2.481,2.481,0,0,0-2.6,2.34m-126.941,0a2.613,2.613,0,1,0,2.595-2.34,2.479,2.479,0,0,0-2.595,2.34m174.544,0a2.612,2.612,0,1,0,2.6-2.34,2.482,2.482,0,0,0-2.6,2.34m31.735,0a2.613,2.613,0,1,0,2.6-2.34,2.486,2.486,0,0,0-2.6,2.34m-63.471,0a2.613,2.613,0,1,0,2.6-2.34,2.481,2.481,0,0,0-2.6,2.34m-111.077,0a2.615,2.615,0,1,0,2.6-2.34,2.485,2.485,0,0,0-2.6,2.34m-15.863,0a2.613,2.613,0,1,0,2.6-2.34,2.482,2.482,0,0,0-2.6,2.34m31.735,0a2.613,2.613,0,1,0,2.6-2.34,2.481,2.481,0,0,0-2.6,2.34m47.6,0a2.614,2.614,0,1,0,2.6-2.34,2.481,2.481,0,0,0-2.6,2.34m-31.736,0a2.611,2.611,0,1,0,2.6-2.34,2.482,2.482,0,0,0-2.6,2.34m15.866,0a2.614,2.614,0,1,0,2.6-2.34,2.483,2.483,0,0,0-2.6,2.34m-95.205,0a2.482,2.482,0,0,0,2.6,2.338,2.352,2.352,0,1,0,0-4.678,2.48,2.48,0,0,0-2.6,2.34m47.6,14.118a2.616,2.616,0,1,0,2.6-2.336,2.478,2.478,0,0,0-2.6,2.336M47.6,115.291a2.613,2.613,0,1,0,2.6-2.337,2.477,2.477,0,0,0-2.6,2.337m-31.738,0a2.478,2.478,0,0,0,2.6,2.338,2.351,2.351,0,1,0,0-4.676,2.478,2.478,0,0,0-2.6,2.337m47.6,0a2.616,2.616,0,1,0,2.6-2.337,2.48,2.48,0,0,0-2.6,2.337M2.6,131.749a2.351,2.351,0,1,0,0-4.676,2.72,2.72,0,0,0-1.858.7c.144,1.216.313,2.415.5,3.617a2.82,2.82,0,0,0,1.359.354m76.742-16.458a2.613,2.613,0,1,0,2.6-2.337,2.476,2.476,0,0,0-2.6,2.337m95.205,14.118a2.613,2.613,0,1,0,2.6-2.336,2.481,2.481,0,0,0-2.6,2.336M95.207,115.291a2.611,2.611,0,1,0,2.6-2.337,2.478,2.478,0,0,0-2.6,2.337m63.471,14.118a2.614,2.614,0,1,0,2.6-2.336,2.481,2.481,0,0,0-2.6,2.336m63.468,0a2.612,2.612,0,1,0,2.6-2.336,2.485,2.485,0,0,0-2.6,2.336m-31.733,0a2.613,2.613,0,1,0,2.6-2.336,2.481,2.481,0,0,0-2.6,2.336m47.6,0a2.613,2.613,0,1,0,2.6-2.336,2.486,2.486,0,0,0-2.6,2.336m-31.735,0a2.612,2.612,0,1,0,2.6-2.336,2.482,2.482,0,0,0-2.6,2.336M31.736,115.291a2.613,2.613,0,1,0,2.595-2.337,2.474,2.474,0,0,0-2.595,2.337M0,115.291a2.476,2.476,0,0,0,2.6,2.338,2.351,2.351,0,1,0,0-4.676A2.477,2.477,0,0,0,0,115.291m15.867-14.119a2.475,2.475,0,0,0,2.6,2.333,2.348,2.348,0,1,0,0-4.669,2.479,2.479,0,0,0-2.6,2.336m222.148,14.119a2.613,2.613,0,1,0,2.6-2.337,2.481,2.481,0,0,0-2.6,2.337m-15.87,0a2.612,2.612,0,1,0,2.6-2.337,2.48,2.48,0,0,0-2.6,2.337M31.736,101.172a2.613,2.613,0,1,0,2.595-2.336,2.472,2.472,0,0,0-2.595,2.336m15.869,0a2.613,2.613,0,1,0,2.6-2.336,2.475,2.475,0,0,0-2.6,2.336m95.208,14.119a2.61,2.61,0,1,0,2.595-2.337,2.473,2.473,0,0,0-2.595,2.337m15.864,0a2.614,2.614,0,1,0,2.6-2.337,2.476,2.476,0,0,0-2.6,2.337m-47.6,0a2.614,2.614,0,1,0,2.6-2.337,2.479,2.479,0,0,0-2.6,2.337m95.208,0a2.612,2.612,0,1,0,2.6-2.337,2.477,2.477,0,0,0-2.6,2.337m-79.338,0a2.614,2.614,0,1,0,2.6-2.337,2.476,2.476,0,0,0-2.6,2.337m63.469,0a2.613,2.613,0,1,0,2.6-2.337,2.477,2.477,0,0,0-2.6,2.337m-15.867,0a2.613,2.613,0,1,0,2.6-2.337,2.476,2.476,0,0,0-2.6,2.337M79.339,16.458a2.613,2.613,0,0,0,5.2,0,2.613,2.613,0,0,0-5.2,0M206.28,58.813a2.612,2.612,0,1,0,2.6-2.336,2.471,2.471,0,0,0-2.6,2.336M126.943,30.579a2.614,2.614,0,1,0,2.6-2.34,2.48,2.48,0,0,0-2.6,2.34m-31.736,0a2.611,2.611,0,1,0,2.6-2.34,2.481,2.481,0,0,0-2.6,2.34m15.866,0a2.614,2.614,0,1,0,2.6-2.34,2.482,2.482,0,0,0-2.6,2.34m47.6,0a2.614,2.614,0,1,0,2.6-2.34,2.48,2.48,0,0,0-2.6,2.34m31.735,0a2.613,2.613,0,1,0,2.6-2.34,2.48,2.48,0,0,0-2.6,2.34m21.064,0a2.612,2.612,0,1,0-2.6,2.34,2.477,2.477,0,0,0,2.6-2.34m-50.2-25.9a2.566,2.566,0,0,0,2.507-1.752c-1.663-.405-3.331-.792-5.026-1.141a2.236,2.236,0,0,0-.079.555,2.48,2.48,0,0,0,2.6,2.338m79.342,164.746a2.351,2.351,0,1,0,0,4.676,2.643,2.643,0,0,0,.838-.139c.582-.884,1.154-1.778,1.7-2.683a2.547,2.547,0,0,0-2.534-1.854M79.339,30.579a2.613,2.613,0,1,0,2.6-2.34,2.48,2.48,0,0,0-2.6,2.34m95.205,0a2.613,2.613,0,1,0,2.6-2.34,2.48,2.48,0,0,0-2.6,2.34m-126.94,0a2.613,2.613,0,1,0,2.6-2.34,2.481,2.481,0,0,0-2.6,2.34m15.863,0a2.615,2.615,0,1,0,2.6-2.34,2.484,2.484,0,0,0-2.6,2.34m79.345,0a2.61,2.61,0,1,0,2.595-2.34,2.477,2.477,0,0,0-2.595,2.34m47.6-14.121a2.613,2.613,0,0,0,5.2,0,2.613,2.613,0,0,0-5.2,0M111.072,2.341a2.614,2.614,0,0,0,5.2,0,2.613,2.613,0,0,0-5.2,0m63.472,14.117a2.613,2.613,0,0,0,5.2,0,2.613,2.613,0,0,0-5.2,0m-111.077,0a2.616,2.616,0,0,0,5.2,0,2.616,2.616,0,0,0-5.2,0M126.943,2.341a2.614,2.614,0,0,0,5.2,0,2.613,2.613,0,0,0-5.2,0m15.87,0a2.61,2.61,0,0,0,5.192,0,2.61,2.61,0,0,0-5.192,0M97.8,4.68a2.479,2.479,0,0,0,2.6-2.338,1.746,1.746,0,0,0-.085-.555c-1.69.35-3.354.736-5.014,1.141A2.554,2.554,0,0,0,97.8,4.68m13.27,11.778a2.614,2.614,0,0,0,5.2,0,2.614,2.614,0,0,0-5.2,0m-15.866,0a2.612,2.612,0,0,0,5.194,0,2.611,2.611,0,0,0-5.194,0m47.606,112.951a2.611,2.611,0,1,0,2.595-2.336,2.478,2.478,0,0,0-2.595,2.336m0-112.951a2.611,2.611,0,0,0,5.192,0,2.61,2.61,0,0,0-5.192,0m15.864,0a2.614,2.614,0,0,0,5.2,0,2.614,2.614,0,0,0-5.2,0m-31.735,0a2.614,2.614,0,0,0,5.2,0,2.614,2.614,0,0,0-5.2,0m111.072,56.48a2.613,2.613,0,1,0,2.6-2.337,2.482,2.482,0,0,0-2.6,2.337m-79.338,0a2.614,2.614,0,1,0,2.6-2.337,2.476,2.476,0,0,0-2.6,2.337m-15.864,0a2.61,2.61,0,1,0,2.595-2.337,2.474,2.474,0,0,0-2.595,2.337m31.731,0a2.613,2.613,0,1,0,2.6-2.337,2.476,2.476,0,0,0-2.6,2.337m15.867,0a2.613,2.613,0,1,0,2.6-2.337,2.477,2.477,0,0,0-2.6,2.337m15.869,0a2.612,2.612,0,1,0,2.6-2.337,2.477,2.477,0,0,0-2.6,2.337m-79.338,0a2.614,2.614,0,1,0,2.6-2.337,2.476,2.476,0,0,0-2.6,2.337m-95.207,0A2.613,2.613,0,1,0,34.331,70.6a2.475,2.475,0,0,0-2.595,2.337m15.869,0A2.613,2.613,0,1,0,50.2,70.6a2.477,2.477,0,0,0-2.6,2.337m15.863,0a2.616,2.616,0,1,0,2.6-2.337,2.481,2.481,0,0,0-2.6,2.337m-47.6,0a2.478,2.478,0,0,0,2.6,2.333,2.349,2.349,0,1,0,0-4.67,2.475,2.475,0,0,0-2.6,2.337m95.205,0a2.614,2.614,0,1,0,2.6-2.337,2.479,2.479,0,0,0-2.6,2.337m-31.733,0a2.613,2.613,0,1,0,2.6-2.337,2.476,2.476,0,0,0-2.6,2.337m15.867,0A2.611,2.611,0,1,0,97.8,70.6a2.478,2.478,0,0,0-2.6,2.337M222.145,58.813a2.612,2.612,0,1,0,2.6-2.336,2.474,2.474,0,0,0-2.6,2.336m-63.468,0a2.614,2.614,0,1,0,2.6-2.336,2.47,2.47,0,0,0-2.6,2.336m-15.864,0a2.611,2.611,0,1,0,2.595-2.336,2.467,2.467,0,0,0-2.595,2.336m79.332,14.125a2.612,2.612,0,1,0,2.6-2.337,2.48,2.48,0,0,0-2.6,2.337M111.072,58.813a2.614,2.614,0,1,0,2.6-2.336,2.472,2.472,0,0,0-2.6,2.336m79.339,0a2.613,2.613,0,1,0,2.6-2.336,2.471,2.471,0,0,0-2.6,2.336m-15.867,0a2.613,2.613,0,1,0,2.6-2.336,2.47,2.47,0,0,0-2.6,2.336m-47.6,0a2.614,2.614,0,1,0,2.6-2.336,2.47,2.47,0,0,0-2.6,2.336m-79.338,0a2.613,2.613,0,1,0,2.6-2.336,2.471,2.471,0,0,0-2.6,2.336m-15.869,0a2.613,2.613,0,1,0,2.595-2.336,2.468,2.468,0,0,0-2.595,2.336m47.6,0a2.613,2.613,0,1,0,2.6-2.336,2.47,2.47,0,0,0-2.6,2.336m-15.872,0a2.616,2.616,0,1,0,2.6-2.336,2.474,2.474,0,0,0-2.6,2.336m31.739,0a2.611,2.611,0,1,0,2.6-2.336,2.472,2.472,0,0,0-2.6,2.336m52.8,155.311a2.611,2.611,0,1,0-2.6,2.336,2.477,2.477,0,0,0,2.6-2.336M68.669,44.7a2.616,2.616,0,1,0-2.6,2.337,2.477,2.477,0,0,0,2.6-2.337M256.481,98.836a2.348,2.348,0,1,0,0,4.669,2.742,2.742,0,0,0,1.855-.7c-.142-1.219-.312-2.417-.5-3.62a2.807,2.807,0,0,0-1.357-.35M84.536,44.7a2.613,2.613,0,1,0-2.6,2.337,2.475,2.475,0,0,0,2.6-2.337m15.864,0a2.611,2.611,0,1,0-2.6,2.337,2.474,2.474,0,0,0,2.6-2.337M238.015,58.813a2.475,2.475,0,0,0,2.6,2.333,2.537,2.537,0,0,0,2.534-1.849c-.542-.9-1.113-1.793-1.7-2.683a2.806,2.806,0,0,0-.838-.137,2.483,2.483,0,0,0-2.6,2.336m15.867,28.24a2.4,2.4,0,0,0,1.956,2.257c-.334-1.339-.708-2.664-1.1-3.985a2.226,2.226,0,0,0-.861,1.728M52.8,44.7a2.613,2.613,0,1,0-2.6,2.337A2.477,2.477,0,0,0,52.8,44.7m126.94,0a2.613,2.613,0,1,0-2.593,2.337,2.476,2.476,0,0,0,2.593-2.337m15.867,0a2.613,2.613,0,1,0-2.6,2.337,2.477,2.477,0,0,0,2.6-2.337m15.867,0a2.612,2.612,0,1,0-2.6,2.337,2.475,2.475,0,0,0,2.6-2.337m-47.6,0a2.614,2.614,0,1,0-2.6,2.337,2.479,2.479,0,0,0,2.6-2.337m-31.735,0a2.614,2.614,0,1,0-2.6,2.337,2.478,2.478,0,0,0,2.6-2.337m15.864,0a2.61,2.61,0,1,0-2.6,2.337,2.476,2.476,0,0,0,2.6-2.337m-31.735,0a2.614,2.614,0,1,0-2.6,2.337,2.478,2.478,0,0,0,2.6-2.337m-5.2,141.193a2.613,2.613,0,1,0,2.6-2.341,2.482,2.482,0,0,0-2.6,2.341m15.87,0a2.613,2.613,0,1,0,2.6-2.341,2.48,2.48,0,0,0-2.6,2.341m-31.736,0a2.611,2.611,0,1,0,2.6-2.341,2.481,2.481,0,0,0-2.6,2.341m63.471,0a2.613,2.613,0,1,0,2.6-2.341,2.48,2.48,0,0,0-2.6,2.341m-79.338,0a2.613,2.613,0,1,0,2.6-2.341,2.48,2.48,0,0,0-2.6,2.341m63.474,0a2.61,2.61,0,1,0,2.595-2.341,2.477,2.477,0,0,0-2.595,2.341m113.668-72.935a2.351,2.351,0,1,0,2.6,2.337,2.477,2.477,0,0,0-2.6-2.337M63.468,185.889a2.615,2.615,0,1,0,2.6-2.341,2.484,2.484,0,0,0-2.6,2.341m190.415-42.361a2.223,2.223,0,0,0,.861,1.726c.387-1.318.761-2.646,1.1-3.979a2.387,2.387,0,0,0-1.956,2.253m2.6-16.455a2.351,2.351,0,1,0,0,4.676,2.81,2.81,0,0,0,1.357-.354c.186-1.2.355-2.4.5-3.617a2.727,2.727,0,0,0-1.855-.7M227.34,185.889a2.612,2.612,0,1,0-2.595,2.339,2.474,2.474,0,0,0,2.595-2.339m-195.6,0a2.613,2.613,0,1,0,2.595-2.341,2.478,2.478,0,0,0-2.595,2.341m15.869,0a2.613,2.613,0,1,0,2.6-2.341,2.481,2.481,0,0,0-2.6,2.341m148,28.235a2.613,2.613,0,1,0-2.6,2.336,2.478,2.478,0,0,0,2.6-2.336M100.4,200.007a2.612,2.612,0,1,0-2.6,2.334,2.48,2.48,0,0,0,2.6-2.334m15.87,0a2.614,2.614,0,1,0-2.6,2.334,2.485,2.485,0,0,0,2.6-2.334m31.735,0a2.611,2.611,0,1,0-2.6,2.334,2.482,2.482,0,0,0,2.6-2.334m-15.864,0a2.614,2.614,0,1,0-2.6,2.334,2.484,2.484,0,0,0,2.6-2.334m-63.472,0a2.616,2.616,0,1,0-2.6,2.334,2.484,2.484,0,0,0,2.6-2.334m105.876-14.118a2.613,2.613,0,1,0,2.6-2.341,2.48,2.48,0,0,0-2.6,2.341M84.536,200.007a2.613,2.613,0,1,0-2.6,2.334,2.482,2.482,0,0,0,2.6-2.334m-36.931,0a2.612,2.612,0,1,0,2.6-2.344,2.479,2.479,0,0,0-2.6,2.344m163.871,0a2.612,2.612,0,1,0-2.6,2.334,2.481,2.481,0,0,0,2.6-2.334M100.4,228.245a2.473,2.473,0,0,0-2.6-2.338,2.554,2.554,0,0,0-2.5,1.744c1.66.407,3.331.8,5.014,1.15a1.757,1.757,0,0,0,.085-.555m26.542-98.836a2.614,2.614,0,1,0,2.6-2.336,2.481,2.481,0,0,0-2.6,2.336m52.8,70.6a2.613,2.613,0,1,0-2.593,2.334,2.482,2.482,0,0,0,2.593-2.334m-15.866,0a2.614,2.614,0,1,0-2.6,2.334,2.485,2.485,0,0,0,2.6-2.334m-2.6,25.9a2.473,2.473,0,0,0-2.6,2.338,2.254,2.254,0,0,0,.079.555c1.694-.351,3.363-.743,5.026-1.15a2.566,2.566,0,0,0-2.507-1.744m-34.332,2.338a2.614,2.614,0,1,0,2.6-2.338,2.478,2.478,0,0,0-2.6,2.338M227.34,44.7a2.612,2.612,0,1,0-2.595,2.337A2.472,2.472,0,0,0,227.34,44.7M111.072,228.245a2.614,2.614,0,1,0,2.6-2.338,2.481,2.481,0,0,0-2.6,2.338m36.933,0a2.611,2.611,0,1,0-2.6,2.334,2.474,2.474,0,0,0,2.6-2.334m31.736-14.121a2.613,2.613,0,1,0-2.593,2.336,2.477,2.477,0,0,0,2.593-2.336M18.463,61.146a2.348,2.348,0,1,0,0-4.669,2.872,2.872,0,0,0-.846.137q-.862,1.335-1.691,2.683a2.544,2.544,0,0,0,2.537,1.849M31.736,44.7a2.613,2.613,0,1,0,2.595-2.336A2.475,2.475,0,0,0,31.736,44.7m100.4,169.427a2.614,2.614,0,1,0-2.6,2.336,2.479,2.479,0,0,0,2.6-2.336m-47.6,0a2.613,2.613,0,1,0-2.6,2.336,2.477,2.477,0,0,0,2.6-2.336m31.735,0a2.614,2.614,0,1,0-2.6,2.336,2.479,2.479,0,0,0,2.6-2.336m47.6,0a2.614,2.614,0,1,0-2.6,2.336,2.48,2.48,0,0,0,2.6-2.336m-63.475,0a2.611,2.611,0,1,0-2.6,2.336,2.475,2.475,0,0,0,2.6-2.336m-31.731,0a2.616,2.616,0,1,0-2.6,2.336,2.479,2.479,0,0,0,2.6-2.336m126.94-14.117a2.613,2.613,0,1,0-2.6,2.334,2.483,2.483,0,0,0,2.6-2.334M79.339,143.528a2.613,2.613,0,1,0,2.6-2.34,2.475,2.475,0,0,0-2.6,2.34m15.867,0a2.611,2.611,0,1,0,2.6-2.34,2.477,2.477,0,0,0-2.6,2.34m-31.739,0a2.615,2.615,0,1,0,2.6-2.34,2.479,2.479,0,0,0-2.6,2.34m63.475,0a2.614,2.614,0,1,0,2.6-2.34,2.475,2.475,0,0,0-2.6,2.34m15.87,0a2.61,2.61,0,1,0,2.595-2.34,2.472,2.472,0,0,0-2.595,2.34m-95.208,0a2.613,2.613,0,1,0,2.6-2.34,2.476,2.476,0,0,0-2.6,2.34m63.468,0a2.614,2.614,0,1,0,2.6-2.34,2.478,2.478,0,0,0-2.6,2.34m111.072,14.118a2.612,2.612,0,1,0,2.6-2.336,2.478,2.478,0,0,0-2.6,2.336M31.736,143.528a2.613,2.613,0,1,0,2.595-2.34,2.473,2.473,0,0,0-2.595,2.34M206.28,157.646a2.612,2.612,0,1,0,2.6-2.336,2.475,2.475,0,0,0-2.6,2.336m31.735,0a2.613,2.613,0,1,0,2.6-2.336,2.479,2.479,0,0,0-2.6,2.336M15.867,143.528a2.477,2.477,0,0,0,2.6,2.339,2.352,2.352,0,1,0,0-4.678,2.481,2.481,0,0,0-2.6,2.34m-10.669,0a2.385,2.385,0,0,0-1.961-2.253c.336,1.333.713,2.661,1.1,3.979a2.226,2.226,0,0,0,.864-1.726m26.538-14.119a2.613,2.613,0,1,0,2.595-2.336,2.479,2.479,0,0,0-2.595,2.336m47.6,0a2.613,2.613,0,1,0,2.6-2.336,2.481,2.481,0,0,0-2.6,2.336m111.072,28.237a2.613,2.613,0,1,0,2.6-2.336,2.474,2.474,0,0,0-2.6,2.336M47.6,129.409a2.613,2.613,0,1,0,2.6-2.336,2.482,2.482,0,0,0-2.6,2.336m111.072,14.119a2.614,2.614,0,1,0,2.6-2.34,2.475,2.475,0,0,0-2.6,2.34M95.207,129.409a2.611,2.611,0,1,0,2.6-2.336,2.482,2.482,0,0,0-2.6,2.336m15.866,0a2.614,2.614,0,1,0,2.6-2.336,2.483,2.483,0,0,0-2.6,2.336m-47.6,0a2.616,2.616,0,1,0,2.6-2.336,2.485,2.485,0,0,0-2.6,2.336m126.944,14.119a2.613,2.613,0,1,0,2.6-2.34,2.476,2.476,0,0,0-2.6,2.34m15.869,0a2.612,2.612,0,1,0,2.6-2.34,2.476,2.476,0,0,0-2.6,2.34m-31.736,0a2.613,2.613,0,1,0,2.6-2.34,2.475,2.475,0,0,0-2.6,2.34M15.867,129.409a2.482,2.482,0,0,0,2.6,2.34,2.351,2.351,0,1,0,0-4.676,2.478,2.478,0,0,0-2.6,2.336m222.148,14.119a2.613,2.613,0,1,0,2.6-2.34,2.48,2.48,0,0,0-2.6,2.34m-15.87,0a2.612,2.612,0,1,0,2.6-2.34,2.479,2.479,0,0,0-2.6,2.34M206.28,171.766a2.612,2.612,0,1,0,2.6-2.34,2.476,2.476,0,0,0-2.6,2.34m-63.468,0a2.61,2.61,0,1,0,2.595-2.34,2.472,2.472,0,0,0-2.595,2.34m-15.87,0a2.614,2.614,0,1,0,2.6-2.34,2.475,2.475,0,0,0-2.6,2.34m31.735,0a2.614,2.614,0,1,0,2.6-2.34,2.475,2.475,0,0,0-2.6,2.34m-47.6,0a2.614,2.614,0,1,0,2.6-2.34,2.477,2.477,0,0,0-2.6,2.34m63.472,0a2.613,2.613,0,1,0,2.6-2.34,2.475,2.475,0,0,0-2.6,2.34m15.867,0a2.613,2.613,0,1,0,2.6-2.34,2.475,2.475,0,0,0-2.6,2.34m-158.676,0a2.613,2.613,0,1,0,2.595-2.34,2.473,2.473,0,0,0-2.595,2.34m15.869,0a2.613,2.613,0,1,0,2.6-2.34,2.476,2.476,0,0,0-2.6,2.34m47.6,0a2.611,2.611,0,1,0,2.6-2.34,2.476,2.476,0,0,0-2.6,2.34m95.205,14.123a2.613,2.613,0,1,0,2.6-2.341,2.48,2.48,0,0,0-2.6,2.341m31.733-14.123a2.612,2.612,0,1,0,2.6-2.34,2.479,2.479,0,0,0-2.6,2.34m-142.805,0a2.613,2.613,0,1,0,2.6-2.34,2.475,2.475,0,0,0-2.6,2.34m-15.872,0a2.615,2.615,0,1,0,2.6-2.34,2.479,2.479,0,0,0-2.6,2.34M31.736,157.646a2.613,2.613,0,1,0,2.595-2.336,2.472,2.472,0,0,0-2.595,2.336m95.207,0a2.614,2.614,0,1,0,2.6-2.336,2.474,2.474,0,0,0-2.6,2.336m-15.87,0a2.614,2.614,0,1,0,2.6-2.336,2.476,2.476,0,0,0-2.6,2.336m-15.866,0a2.611,2.611,0,1,0,2.6-2.336,2.475,2.475,0,0,0-2.6,2.336m63.471,0a2.614,2.614,0,1,0,2.6-2.336,2.474,2.474,0,0,0-2.6,2.336m-15.864,0a2.611,2.611,0,1,0,2.595-2.336,2.471,2.471,0,0,0-2.595,2.336m-63.474,0a2.613,2.613,0,1,0,2.6-2.336,2.474,2.474,0,0,0-2.6,2.336M206.28,185.889a2.612,2.612,0,1,0,2.6-2.341,2.481,2.481,0,0,0-2.6,2.341M21.066,171.766a2.479,2.479,0,0,0-2.6-2.34,2.551,2.551,0,0,0-2.537,1.854q.826,1.357,1.691,2.683a2.7,2.7,0,0,0,.846.139,2.478,2.478,0,0,0,2.6-2.336m-5.2-14.119a2.475,2.475,0,0,0,2.6,2.336,2.349,2.349,0,1,0,0-4.672,2.477,2.477,0,0,0-2.6,2.336m158.677,0a2.613,2.613,0,1,0,2.6-2.336,2.474,2.474,0,0,0-2.6,2.336m-126.94,0a2.613,2.613,0,1,0,2.6-2.336,2.475,2.475,0,0,0-2.6,2.336m15.863,0a2.616,2.616,0,1,0,2.6-2.336,2.478,2.478,0,0,0-2.6,2.336" transform="translate(-159.933 -139.996)" fill="#ffa031"/>
          <path id="Trazado_699611" data-name="Trazado 699611" d="M950.839,336.528a2.61,2.61,0,1,1-2.354,2.6,2.485,2.485,0,0,1,2.354-2.6m-16.713,2.6a2.361,2.361,0,1,0,2.352-2.6,2.482,2.482,0,0,0-2.352,2.6m-14.354,0a2.362,2.362,0,1,0,2.349-2.6,2.48,2.48,0,0,0-2.349,2.6m-181.946-15.71a2.709,2.709,0,0,0-.782-1.921c-.348,1.47-.689,2.943-.991,4.434a2.564,2.564,0,0,0,1.773-2.513m167.586,15.71a2.364,2.364,0,1,0,2.353-2.6,2.481,2.481,0,0,0-2.353,2.6m-169.939,2.6a2.61,2.61,0,0,0,0-5.2,2.2,2.2,0,0,0-1.231.389c-.167,1.338-.32,2.679-.45,4.028a2.232,2.232,0,0,0,1.681.778m69.437-2.6a2.364,2.364,0,1,0,2.35-2.6,2.481,2.481,0,0,0-2.35,2.6m43.074,0a2.364,2.364,0,1,0,2.352-2.6,2.481,2.481,0,0,0-2.352,2.6m-14.36,0a2.364,2.364,0,1,0,2.353-2.6,2.482,2.482,0,0,0-2.353,2.6m-14.356,0a2.362,2.362,0,1,0,2.349-2.6,2.482,2.482,0,0,0-2.349,2.6m43.075,0a2.361,2.361,0,1,0,2.348-2.6,2.478,2.478,0,0,0-2.348,2.6m71.783-15.71a2.361,2.361,0,1,0,2.352-2.6,2.491,2.491,0,0,0-2.352,2.6M876.7,339.127a2.362,2.362,0,1,0,2.349-2.6,2.479,2.479,0,0,0-2.349,2.6m14.356,0a2.364,2.364,0,1,0,2.356-2.6,2.479,2.479,0,0,0-2.356,2.6m14.357-15.71a2.364,2.364,0,1,0,2.353-2.6,2.49,2.49,0,0,0-2.353,2.6m-43.069,0a2.361,2.361,0,1,0,2.348-2.6,2.486,2.486,0,0,0-2.348,2.6m14.356,0a2.363,2.363,0,1,0,2.349-2.6,2.487,2.487,0,0,0-2.349,2.6m-114.861,0a2.363,2.363,0,1,0,2.348-2.6,2.487,2.487,0,0,0-2.348,2.6m157.934,0a2.362,2.362,0,1,0,2.349-2.6,2.488,2.488,0,0,0-2.349,2.6m28.713,0a2.363,2.363,0,1,0,2.354-2.6,2.493,2.493,0,0,0-2.354,2.6m-57.43,0a2.364,2.364,0,1,0,2.356-2.6,2.487,2.487,0,0,0-2.356,2.6m-100.505,0a2.365,2.365,0,1,0,2.354-2.6,2.492,2.492,0,0,0-2.354,2.6m-14.352,0a2.363,2.363,0,1,0,2.349-2.6,2.487,2.487,0,0,0-2.349,2.6m28.711,0a2.364,2.364,0,1,0,2.35-2.6,2.489,2.489,0,0,0-2.35,2.6m43.074,0a2.365,2.365,0,1,0,2.352-2.6,2.49,2.49,0,0,0-2.352,2.6m-28.716,0a2.362,2.362,0,1,0,2.349-2.6,2.49,2.49,0,0,0-2.349,2.6m14.356,0a2.364,2.364,0,1,0,2.353-2.6,2.491,2.491,0,0,0-2.353,2.6m-86.144,0a2.364,2.364,0,1,0,2.349-2.6,2.49,2.49,0,0,0-2.349,2.6m43.07,15.71a2.365,2.365,0,1,0,2.354-2.6,2.483,2.483,0,0,0-2.354,2.6M776.2,354.84a2.363,2.363,0,1,0,2.349-2.6,2.483,2.483,0,0,0-2.349,2.6m-28.718,0a2.364,2.364,0,1,0,2.349-2.6,2.485,2.485,0,0,0-2.349,2.6m43.07,0a2.365,2.365,0,1,0,2.354-2.6,2.487,2.487,0,0,0-2.354,2.6m-55.077,18.314a2.615,2.615,0,0,0,0-5.2,2.229,2.229,0,0,0-1.681.786c.13,1.352.283,2.686.45,4.024a2.2,2.2,0,0,0,1.231.4m69.437-18.314a2.364,2.364,0,1,0,2.35-2.6,2.485,2.485,0,0,0-2.35,2.6m86.145,15.709a2.364,2.364,0,1,0,2.356-2.6,2.489,2.489,0,0,0-2.356,2.6M819.267,354.84a2.362,2.362,0,1,0,2.349-2.6,2.485,2.485,0,0,0-2.349,2.6M876.7,370.549a2.362,2.362,0,1,0,2.349-2.6,2.489,2.489,0,0,0-2.349,2.6m57.427,0a2.361,2.361,0,1,0,2.352-2.6,2.492,2.492,0,0,0-2.352,2.6m-28.714,0a2.364,2.364,0,1,0,2.353-2.6,2.492,2.492,0,0,0-2.353,2.6m43.073,0a2.363,2.363,0,1,0,2.354-2.6,2.495,2.495,0,0,0-2.354,2.6m-28.713,0a2.362,2.362,0,1,0,2.349-2.6,2.49,2.49,0,0,0-2.349,2.6M761.838,354.84a2.363,2.363,0,1,0,2.348-2.6,2.483,2.483,0,0,0-2.348,2.6m-28.716,0a2.364,2.364,0,1,0,2.35-2.6,2.484,2.484,0,0,0-2.35,2.6m14.357-15.713a2.364,2.364,0,1,0,2.349-2.6,2.482,2.482,0,0,0-2.349,2.6M948.484,354.84a2.363,2.363,0,1,0,2.354-2.6,2.488,2.488,0,0,0-2.354,2.6m-14.359,0a2.361,2.361,0,1,0,2.352-2.6,2.486,2.486,0,0,0-2.352,2.6M761.838,339.127a2.363,2.363,0,1,0,2.348-2.6,2.479,2.479,0,0,0-2.348,2.6m14.36,0a2.362,2.362,0,1,0,2.349-2.6,2.479,2.479,0,0,0-2.349,2.6m86.145,15.713a2.361,2.361,0,1,0,2.348-2.6,2.482,2.482,0,0,0-2.348,2.6m14.356,0a2.363,2.363,0,1,0,2.349-2.6,2.483,2.483,0,0,0-2.349,2.6m-43.076,0a2.364,2.364,0,1,0,2.353-2.6,2.486,2.486,0,0,0-2.353,2.6m86.148,0a2.362,2.362,0,1,0,2.349-2.6,2.484,2.484,0,0,0-2.349,2.6m-71.788,0a2.365,2.365,0,1,0,2.352-2.6,2.485,2.485,0,0,0-2.352,2.6m57.428,0a2.364,2.364,0,1,0,2.353-2.6,2.485,2.485,0,0,0-2.353,2.6m-14.357,0a2.364,2.364,0,1,0,2.356-2.6,2.483,2.483,0,0,0-2.356,2.6M804.909,244.861a2.364,2.364,0,1,0,2.35-2.6,2.481,2.481,0,0,0-2.35,2.6m114.862,47.132a2.362,2.362,0,1,0,2.349-2.6,2.475,2.475,0,0,0-2.349,2.6m-71.788-31.419a2.365,2.365,0,1,0,2.352-2.605,2.49,2.49,0,0,0-2.352,2.605m-28.716,0a2.362,2.362,0,1,0,2.349-2.605,2.491,2.491,0,0,0-2.349,2.605m14.356,0a2.364,2.364,0,1,0,2.353-2.605,2.491,2.491,0,0,0-2.353,2.605m43.076,0a2.363,2.363,0,1,0,2.349-2.605,2.488,2.488,0,0,0-2.349,2.605m28.713,0a2.364,2.364,0,1,0,2.353-2.605,2.49,2.49,0,0,0-2.353,2.605m19.059,0a2.362,2.362,0,1,0-2.35,2.6,2.486,2.486,0,0,0,2.35-2.6m-45.423-28.82a2.413,2.413,0,0,0,2.268-1.95c-1.5-.451-3.014-.881-4.547-1.27a2.914,2.914,0,0,0-.07.618,2.486,2.486,0,0,0,2.349,2.6m71.791,183.324a2.615,2.615,0,0,0,0,5.2,2,2,0,0,0,.76-.156c.526-.982,1.043-1.977,1.533-2.985a2.421,2.421,0,0,0-2.293-2.063m-145.93-154.5a2.364,2.364,0,1,0,2.35-2.605,2.49,2.49,0,0,0-2.35,2.605m86.145,0a2.364,2.364,0,1,0,2.356-2.605,2.488,2.488,0,0,0-2.356,2.605m-114.857,0a2.363,2.363,0,1,0,2.349-2.605,2.488,2.488,0,0,0-2.349,2.605m14.352,0a2.365,2.365,0,1,0,2.354-2.605,2.492,2.492,0,0,0-2.354,2.605m71.794,0a2.362,2.362,0,1,0,2.348-2.605,2.487,2.487,0,0,0-2.348,2.605m43.069-15.713a2.364,2.364,0,1,0,2.353-2.6,2.481,2.481,0,0,0-2.353,2.6m-71.788-15.709a2.364,2.364,0,1,0,2.353-2.605,2.49,2.49,0,0,0-2.353,2.605m57.431,15.709a2.364,2.364,0,1,0,2.356-2.6,2.479,2.479,0,0,0-2.356,2.6m-100.505,0a2.365,2.365,0,1,0,2.354-2.6,2.483,2.483,0,0,0-2.354,2.6m57.434-15.709a2.365,2.365,0,1,0,2.352-2.605,2.489,2.489,0,0,0-2.352,2.605m14.36,0a2.362,2.362,0,1,0,2.348-2.605,2.485,2.485,0,0,0-2.348,2.605m-40.726,2.6a2.486,2.486,0,0,0,2.35-2.6,2.4,2.4,0,0,0-.075-.618c-1.53.389-3.035.819-4.538,1.27a2.4,2.4,0,0,0,2.263,1.95m12.007,13.106a2.364,2.364,0,1,0,2.353-2.6,2.482,2.482,0,0,0-2.353,2.6m-14.356,0a2.362,2.362,0,1,0,2.349-2.6,2.482,2.482,0,0,0-2.349,2.6m43.075,125.688a2.361,2.361,0,1,0,2.348-2.6,2.488,2.488,0,0,0-2.348,2.6m0-125.688a2.361,2.361,0,1,0,2.348-2.6,2.478,2.478,0,0,0-2.348,2.6m14.356,0a2.363,2.363,0,1,0,2.349-2.6,2.479,2.479,0,0,0-2.349,2.6m-28.716,0a2.365,2.365,0,1,0,2.352-2.6,2.481,2.481,0,0,0-2.352,2.6m100.5,62.85a2.363,2.363,0,1,0,2.354-2.6,2.487,2.487,0,0,0-2.354,2.6m-71.786,0a2.362,2.362,0,1,0,2.349-2.6,2.482,2.482,0,0,0-2.349,2.6m-14.356,0a2.361,2.361,0,1,0,2.348-2.6,2.481,2.481,0,0,0-2.348,2.6m28.711,0a2.364,2.364,0,1,0,2.356-2.6,2.482,2.482,0,0,0-2.356,2.6m14.357,0a2.364,2.364,0,1,0,2.353-2.6,2.484,2.484,0,0,0-2.353,2.6m14.36,0a2.362,2.362,0,1,0,2.349-2.6,2.483,2.483,0,0,0-2.349,2.6m-71.788,0a2.364,2.364,0,1,0,2.352-2.6,2.484,2.484,0,0,0-2.352,2.6m-86.145,0a2.363,2.363,0,1,0,2.348-2.6,2.482,2.482,0,0,0-2.348,2.6m14.36,0a2.363,2.363,0,1,0,2.349-2.6,2.482,2.482,0,0,0-2.349,2.6m14.352,0a2.365,2.365,0,1,0,2.354-2.6,2.486,2.486,0,0,0-2.354,2.6m-43.07,0a2.364,2.364,0,1,0,2.349-2.6,2.485,2.485,0,0,0-2.349,2.6m86.144,0a2.364,2.364,0,1,0,2.353-2.6,2.485,2.485,0,0,0-2.353,2.6m-28.714,0a2.364,2.364,0,1,0,2.35-2.6,2.484,2.484,0,0,0-2.35,2.6m14.358,0a2.362,2.362,0,1,0,2.349-2.6,2.485,2.485,0,0,0-2.349,2.6m114.858-15.718a2.361,2.361,0,1,0,2.352-2.6,2.477,2.477,0,0,0-2.352,2.6m-57.427,0a2.362,2.362,0,1,0,2.349-2.6,2.474,2.474,0,0,0-2.349,2.6m-14.356,0a2.361,2.361,0,1,0,2.348-2.6,2.473,2.473,0,0,0-2.348,2.6m71.783,15.718a2.361,2.361,0,1,0,2.352-2.6,2.485,2.485,0,0,0-2.352,2.6m-100.5-15.718a2.364,2.364,0,1,0,2.353-2.6,2.477,2.477,0,0,0-2.353,2.6m71.788,0a2.364,2.364,0,1,0,2.353-2.6,2.476,2.476,0,0,0-2.353,2.6m-14.357,0a2.364,2.364,0,1,0,2.356-2.6,2.474,2.474,0,0,0-2.356,2.6m-43.071,0a2.364,2.364,0,1,0,2.352-2.6,2.476,2.476,0,0,0-2.352,2.6m-71.786,0a2.362,2.362,0,1,0,2.349-2.6,2.474,2.474,0,0,0-2.349,2.6m-14.36,0a2.363,2.363,0,1,0,2.348-2.6,2.474,2.474,0,0,0-2.348,2.6m43.071,0a2.364,2.364,0,1,0,2.35-2.6,2.476,2.476,0,0,0-2.35,2.6m-14.36,0a2.365,2.365,0,1,0,2.354-2.6,2.478,2.478,0,0,0-2.354,2.6m28.718,0a2.362,2.362,0,1,0,2.349-2.6,2.477,2.477,0,0,0-2.349,2.6m47.773,172.826a2.361,2.361,0,1,0-2.35,2.6,2.484,2.484,0,0,0,2.35-2.6M795.255,276.284a2.365,2.365,0,1,0-2.352,2.6,2.484,2.484,0,0,0,2.352-2.6m169.936,60.243a2.611,2.611,0,0,0,0,5.2,2.241,2.241,0,0,0,1.681-.778c-.13-1.355-.282-2.69-.451-4.028a2.185,2.185,0,0,0-1.231-.389M809.612,276.284a2.364,2.364,0,1,0-2.353,2.6,2.483,2.483,0,0,0,2.353-2.6m14.354,0a2.362,2.362,0,1,0-2.35,2.6,2.48,2.48,0,0,0,2.35-2.6m124.517,15.709a2.479,2.479,0,0,0,2.354,2.595,2.41,2.41,0,0,0,2.293-2.057c-.49-1-1.008-2-1.533-2.985a2.156,2.156,0,0,0-.76-.151,2.488,2.488,0,0,0-2.354,2.6m14.357,31.423a2.57,2.57,0,0,0,1.77,2.513c-.3-1.491-.639-2.964-.99-4.434a2.7,2.7,0,0,0-.78,1.921M780.9,276.284a2.362,2.362,0,1,0-2.352,2.6,2.484,2.484,0,0,0,2.352-2.6m114.86,0a2.364,2.364,0,1,0-2.348,2.6,2.484,2.484,0,0,0,2.348-2.6m14.357,0a2.364,2.364,0,1,0-2.35,2.6,2.485,2.485,0,0,0,2.35-2.6m14.356,0a2.362,2.362,0,1,0-2.35,2.6,2.481,2.481,0,0,0,2.35-2.6m-43.071,0a2.362,2.362,0,1,0-2.352,2.6,2.483,2.483,0,0,0,2.352-2.6m-28.711,0a2.364,2.364,0,1,0-2.353,2.6,2.485,2.485,0,0,0,2.353-2.6m14.353,0a2.361,2.361,0,1,0-2.35,2.6,2.483,2.483,0,0,0,2.35-2.6m-28.714,0a2.364,2.364,0,1,0-2.35,2.6,2.485,2.485,0,0,0,2.35-2.6m-4.7,157.116a2.364,2.364,0,1,0,2.353-2.605,2.488,2.488,0,0,0-2.353,2.605m14.36,0a2.365,2.365,0,1,0,2.352-2.605,2.487,2.487,0,0,0-2.352,2.605m-28.716,0a2.362,2.362,0,1,0,2.349-2.605,2.488,2.488,0,0,0-2.349,2.605m57.431,0a2.363,2.363,0,1,0,2.349-2.605A2.485,2.485,0,0,0,876.7,433.4m-71.79,0a2.364,2.364,0,1,0,2.35-2.605,2.487,2.487,0,0,0-2.35,2.605m57.434,0a2.362,2.362,0,1,0,2.348-2.605,2.484,2.484,0,0,0-2.348,2.605m102.849-81.162a2.615,2.615,0,1,0,2.353,2.6,2.486,2.486,0,0,0-2.353-2.6M790.549,433.4a2.365,2.365,0,1,0,2.354-2.605,2.489,2.489,0,0,0-2.354,2.605m172.292-47.138a2.7,2.7,0,0,0,.78,1.921c.35-1.467.687-2.946.99-4.429a2.552,2.552,0,0,0-1.77,2.508m2.35-18.312a2.616,2.616,0,0,0,0,5.2,2.191,2.191,0,0,0,1.231-.4c.168-1.338.32-2.672.451-4.024a2.238,2.238,0,0,0-1.681-.786M938.824,433.4a2.361,2.361,0,1,0-2.346,2.6,2.481,2.481,0,0,0,2.346-2.6m-176.986,0a2.363,2.363,0,1,0,2.348-2.605,2.485,2.485,0,0,0-2.348,2.605m14.36,0a2.363,2.363,0,1,0,2.349-2.605A2.485,2.485,0,0,0,776.2,433.4m133.918,31.419a2.363,2.363,0,1,0-2.35,2.6,2.486,2.486,0,0,0,2.35-2.6m-86.148-15.71a2.362,2.362,0,1,0-2.35,2.6,2.488,2.488,0,0,0,2.35-2.6m14.36,0a2.363,2.363,0,1,0-2.35,2.6,2.493,2.493,0,0,0,2.35-2.6m28.714,0a2.361,2.361,0,1,0-2.35,2.6,2.491,2.491,0,0,0,2.35-2.6m-14.353,0a2.364,2.364,0,1,0-2.353,2.6,2.493,2.493,0,0,0,2.353-2.6m-57.433,0a2.365,2.365,0,1,0-2.352,2.6,2.492,2.492,0,0,0,2.352-2.6m95.8-15.709a2.364,2.364,0,1,0,2.356-2.605,2.485,2.485,0,0,0-2.356,2.605m-81.442,15.709a2.363,2.363,0,1,0-2.353,2.6,2.492,2.492,0,0,0,2.353-2.6m-33.415,0a2.363,2.363,0,1,0,2.349-2.608,2.484,2.484,0,0,0-2.349,2.608m148.273,0a2.362,2.362,0,1,0-2.35,2.6,2.489,2.489,0,0,0,2.35-2.6m-100.5,31.423a2.479,2.479,0,0,0-2.35-2.6,2.4,2.4,0,0,0-2.263,1.939c1.5.454,3.014.89,4.538,1.279a2.415,2.415,0,0,0,.075-.616m24.016-109.984a2.364,2.364,0,1,0,2.352-2.6,2.491,2.491,0,0,0-2.352,2.6m47.775,78.56a2.363,2.363,0,1,0-2.348,2.6,2.493,2.493,0,0,0,2.348-2.6m-14.359,0a2.362,2.362,0,1,0-2.352,2.6,2.491,2.491,0,0,0,2.352-2.6m-2.352,28.821a2.48,2.48,0,0,0-2.349,2.6,2.933,2.933,0,0,0,.07.616c1.533-.389,3.043-.825,4.547-1.279a2.409,2.409,0,0,0-2.268-1.939m-31.065,2.6a2.365,2.365,0,1,0,2.352-2.6,2.486,2.486,0,0,0-2.352,2.6m90.841-204.248a2.361,2.361,0,1,0-2.346,2.6,2.479,2.479,0,0,0,2.346-2.6m-105.2,204.248a2.364,2.364,0,1,0,2.353-2.6,2.487,2.487,0,0,0-2.353,2.6m33.418,0a2.361,2.361,0,1,0-2.35,2.6,2.482,2.482,0,0,0,2.35-2.6m28.717-15.713a2.363,2.363,0,1,0-2.348,2.6,2.485,2.485,0,0,0,2.348-2.6M749.828,294.588a2.609,2.609,0,0,0,0-5.194,2.207,2.207,0,0,0-.767.151q-.78,1.485-1.529,2.985a2.416,2.416,0,0,0,2.3,2.057m12.009-18.3a2.363,2.363,0,1,0,2.348-2.6,2.482,2.482,0,0,0-2.348,2.6m90.85,188.535a2.364,2.364,0,1,0-2.353,2.6,2.486,2.486,0,0,0,2.353-2.6m-43.076,0a2.363,2.363,0,1,0-2.353,2.6,2.484,2.484,0,0,0,2.353-2.6m28.714,0a2.363,2.363,0,1,0-2.35,2.6,2.485,2.485,0,0,0,2.35-2.6m43.073,0a2.362,2.362,0,1,0-2.352,2.6,2.484,2.484,0,0,0,2.352-2.6m-57.433,0a2.362,2.362,0,1,0-2.35,2.6,2.481,2.481,0,0,0,2.35-2.6m-28.711,0a2.365,2.365,0,1,0-2.352,2.6,2.485,2.485,0,0,0,2.352-2.6m114.86-15.71a2.363,2.363,0,1,0-2.35,2.6,2.493,2.493,0,0,0,2.35-2.6M804.909,386.262a2.364,2.364,0,1,0,2.35-2.605,2.485,2.485,0,0,0-2.35,2.605m14.358,0a2.362,2.362,0,1,0,2.349-2.605,2.485,2.485,0,0,0-2.349,2.605m-28.718,0a2.365,2.365,0,1,0,2.354-2.605,2.487,2.487,0,0,0-2.354,2.605m57.434,0a2.365,2.365,0,1,0,2.352-2.605,2.485,2.485,0,0,0-2.352,2.605m14.36,0a2.362,2.362,0,1,0,2.348-2.605,2.482,2.482,0,0,0-2.348,2.605m-86.145,0a2.363,2.363,0,1,0,2.349-2.605,2.483,2.483,0,0,0-2.349,2.605m57.426,0a2.364,2.364,0,1,0,2.353-2.605,2.486,2.486,0,0,0-2.353,2.605m100.5,15.71a2.361,2.361,0,1,0,2.352-2.6,2.482,2.482,0,0,0-2.352,2.6m-172.288-15.71a2.363,2.363,0,1,0,2.348-2.605,2.483,2.483,0,0,0-2.348,2.605m157.934,15.71a2.362,2.362,0,1,0,2.349-2.6,2.48,2.48,0,0,0-2.349,2.6m28.713,0a2.363,2.363,0,1,0,2.354-2.6,2.485,2.485,0,0,0-2.354,2.6m-201.005-15.71a2.364,2.364,0,1,0,2.349-2.605,2.485,2.485,0,0,0-2.349,2.605m-9.653,0a2.546,2.546,0,0,0-1.773-2.508c.3,1.483.643,2.962.991,4.429a2.707,2.707,0,0,0,.782-1.921m24.012-15.713a2.363,2.363,0,1,0,2.348-2.6,2.489,2.489,0,0,0-2.348,2.6m43.071,0a2.364,2.364,0,1,0,2.35-2.6,2.491,2.491,0,0,0-2.35,2.6m100.5,31.423a2.364,2.364,0,1,0,2.353-2.6,2.482,2.482,0,0,0-2.353,2.6M776.2,370.549a2.362,2.362,0,1,0,2.349-2.6,2.489,2.489,0,0,0-2.349,2.6m100.5,15.713a2.363,2.363,0,1,0,2.349-2.605,2.483,2.483,0,0,0-2.349,2.605m-57.431-15.713a2.362,2.362,0,1,0,2.349-2.6,2.492,2.492,0,0,0-2.349,2.6m14.356,0a2.364,2.364,0,1,0,2.353-2.6,2.493,2.493,0,0,0-2.353,2.6m-43.074,0a2.365,2.365,0,1,0,2.354-2.6,2.494,2.494,0,0,0-2.354,2.6m114.862,15.713a2.364,2.364,0,1,0,2.353-2.605,2.485,2.485,0,0,0-2.353,2.605m14.36,0a2.362,2.362,0,1,0,2.349-2.605,2.484,2.484,0,0,0-2.349,2.605m-28.717,0a2.364,2.364,0,1,0,2.356-2.605,2.483,2.483,0,0,0-2.356,2.605M747.479,370.549a2.364,2.364,0,1,0,2.349-2.6,2.492,2.492,0,0,0-2.349,2.6m201.005,15.713a2.363,2.363,0,1,0,2.354-2.605,2.488,2.488,0,0,0-2.354,2.605m-14.359,0a2.362,2.362,0,1,0,2.352-2.605,2.486,2.486,0,0,0-2.352,2.605m-14.354,31.422a2.362,2.362,0,1,0,2.349-2.605,2.483,2.483,0,0,0-2.349,2.605m-57.429,0a2.362,2.362,0,1,0,2.348-2.605,2.481,2.481,0,0,0-2.348,2.605m-14.36,0a2.365,2.365,0,1,0,2.352-2.605,2.484,2.484,0,0,0-2.352,2.605m28.716,0a2.363,2.363,0,1,0,2.349-2.605,2.482,2.482,0,0,0-2.349,2.605m-43.076,0a2.364,2.364,0,1,0,2.353-2.605,2.485,2.485,0,0,0-2.353,2.605m57.431,0a2.364,2.364,0,1,0,2.356-2.605,2.482,2.482,0,0,0-2.356,2.605m14.357,0a2.364,2.364,0,1,0,2.353-2.605,2.484,2.484,0,0,0-2.353,2.605m-143.574,0a2.363,2.363,0,1,0,2.348-2.605,2.482,2.482,0,0,0-2.348,2.605m14.36,0a2.363,2.363,0,1,0,2.349-2.605,2.482,2.482,0,0,0-2.349,2.605m43.07,0a2.362,2.362,0,1,0,2.349-2.605,2.485,2.485,0,0,0-2.349,2.605M905.411,433.4a2.364,2.364,0,1,0,2.353-2.605,2.487,2.487,0,0,0-2.353,2.605m28.714-15.716a2.362,2.362,0,1,0,2.352-2.605,2.485,2.485,0,0,0-2.352,2.605m-129.217,0a2.364,2.364,0,1,0,2.35-2.605,2.484,2.484,0,0,0-2.35,2.605m-14.36,0a2.365,2.365,0,1,0,2.354-2.605,2.486,2.486,0,0,0-2.354,2.605m-28.712-15.712a2.363,2.363,0,1,0,2.348-2.6,2.479,2.479,0,0,0-2.348,2.6m86.145,0a2.364,2.364,0,1,0,2.352-2.6,2.482,2.482,0,0,0-2.352,2.6m-14.36,0a2.364,2.364,0,1,0,2.353-2.6,2.483,2.483,0,0,0-2.353,2.6m-14.356,0a2.362,2.362,0,1,0,2.349-2.6,2.482,2.482,0,0,0-2.349,2.6m57.431,0a2.362,2.362,0,1,0,2.349-2.6,2.479,2.479,0,0,0-2.349,2.6m-14.356,0a2.361,2.361,0,1,0,2.348-2.6,2.478,2.478,0,0,0-2.348,2.6m-57.434,0a2.364,2.364,0,1,0,2.35-2.6,2.481,2.481,0,0,0-2.35,2.6M919.771,433.4a2.362,2.362,0,1,0,2.349-2.605,2.486,2.486,0,0,0-2.349,2.605M752.183,417.684a2.488,2.488,0,0,0-2.355-2.605,2.425,2.425,0,0,0-2.3,2.063q.748,1.512,1.529,2.985a2.05,2.05,0,0,0,.767.156,2.486,2.486,0,0,0,2.355-2.6m-4.7-15.712a2.364,2.364,0,1,0,2.349-2.6,2.482,2.482,0,0,0-2.349,2.6m143.575,0a2.364,2.364,0,1,0,2.356-2.6,2.479,2.479,0,0,0-2.356,2.6m-114.857,0a2.362,2.362,0,1,0,2.349-2.6,2.479,2.479,0,0,0-2.349,2.6m14.352,0a2.365,2.365,0,1,0,2.354-2.6,2.484,2.484,0,0,0-2.354,2.6" transform="translate(273.168 -28.41)" fill="#ffa031"/>
          <path id="Trazado_699627" data-name="Trazado 699627" d="M968.452,324.387a2.322,2.322,0,1,1-2.545,2.312,2.435,2.435,0,0,1,2.545-2.312M950.387,326.7a2.55,2.55,0,1,0,2.542-2.312,2.433,2.433,0,0,0-2.542,2.312m-15.516,0a2.551,2.551,0,1,0,2.539-2.312,2.431,2.431,0,0,0-2.539,2.312M738.206,312.723a2.215,2.215,0,0,0-.845-1.709c-.376,1.308-.744,2.618-1.071,3.944a2.366,2.366,0,0,0,1.916-2.235M919.35,326.7a2.554,2.554,0,1,0,2.544-2.312,2.433,2.433,0,0,0-2.544,2.312m-183.688,2.31a2.322,2.322,0,1,0,0-4.622,2.742,2.742,0,0,0-1.33.346c-.181,1.19-.346,2.384-.487,3.583a2.653,2.653,0,0,0,1.817.692m75.054-2.31a2.554,2.554,0,1,0,2.541-2.312,2.432,2.432,0,0,0-2.541,2.312m46.559,0a2.554,2.554,0,1,0,2.542-2.312,2.432,2.432,0,0,0-2.542,2.312m-15.522,0a2.553,2.553,0,1,0,2.544-2.312,2.434,2.434,0,0,0-2.544,2.312m-15.517,0a2.551,2.551,0,1,0,2.539-2.312,2.432,2.432,0,0,0-2.539,2.312m46.56,0a2.55,2.55,0,1,0,2.538-2.312A2.428,2.428,0,0,0,872.8,326.7m77.59-13.976a2.55,2.55,0,1,0,2.542-2.315,2.44,2.44,0,0,0-2.542,2.315M888.314,326.7a2.552,2.552,0,1,0,2.539-2.312,2.43,2.43,0,0,0-2.539,2.312m15.517,0a2.554,2.554,0,1,0,2.546-2.312,2.431,2.431,0,0,0-2.546,2.312m15.519-13.976a2.553,2.553,0,1,0,2.544-2.315,2.44,2.44,0,0,0-2.544,2.315m-46.553,0a2.55,2.55,0,1,0,2.538-2.315,2.435,2.435,0,0,0-2.538,2.315m15.517,0a2.552,2.552,0,1,0,2.539-2.315,2.437,2.437,0,0,0-2.539,2.315m-124.154,0a2.552,2.552,0,1,0,2.538-2.315,2.436,2.436,0,0,0-2.538,2.315m170.711,0a2.551,2.551,0,1,0,2.539-2.315,2.437,2.437,0,0,0-2.539,2.315m31.036,0a2.552,2.552,0,1,0,2.545-2.315,2.443,2.443,0,0,0-2.545,2.315m-62.076,0a2.553,2.553,0,1,0,2.546-2.315,2.438,2.438,0,0,0-2.546,2.315m-108.636,0a2.555,2.555,0,1,0,2.545-2.315,2.442,2.442,0,0,0-2.545,2.315m-15.513,0a2.552,2.552,0,1,0,2.539-2.315,2.437,2.437,0,0,0-2.539,2.315m31.034,0a2.553,2.553,0,1,0,2.541-2.315,2.439,2.439,0,0,0-2.541,2.315m46.559,0a2.554,2.554,0,1,0,2.542-2.315,2.439,2.439,0,0,0-2.542,2.315m-31.039,0a2.551,2.551,0,1,0,2.539-2.315,2.439,2.439,0,0,0-2.539,2.315m15.517,0a2.553,2.553,0,1,0,2.544-2.315,2.441,2.441,0,0,0-2.544,2.315m-93.113,0a2.553,2.553,0,1,0,2.539-2.315,2.439,2.439,0,0,0-2.539,2.315M795.2,326.7a2.555,2.555,0,1,0,2.545-2.312A2.435,2.435,0,0,0,795.2,326.7m-15.513,13.979a2.552,2.552,0,1,0,2.539-2.315,2.432,2.432,0,0,0-2.539,2.315m-31.042,0a2.553,2.553,0,1,0,2.539-2.315,2.435,2.435,0,0,0-2.539,2.315m46.555,0a2.555,2.555,0,1,0,2.545-2.315,2.438,2.438,0,0,0-2.545,2.315M735.662,356.97a2.325,2.325,0,1,0,0-4.63,2.646,2.646,0,0,0-1.817.7c.141,1.2.306,2.389.487,3.58a2.747,2.747,0,0,0,1.33.352m75.054-16.292a2.553,2.553,0,1,0,2.541-2.315,2.434,2.434,0,0,0-2.541,2.315m93.115,13.975a2.553,2.553,0,1,0,2.546-2.312,2.439,2.439,0,0,0-2.546,2.312m-77.595-13.975a2.551,2.551,0,1,0,2.539-2.315,2.435,2.435,0,0,0-2.539,2.315m62.078,13.975a2.552,2.552,0,1,0,2.539-2.312,2.438,2.438,0,0,0-2.539,2.312m62.073,0a2.55,2.55,0,1,0,2.542-2.312,2.442,2.442,0,0,0-2.542,2.312m-31.037,0a2.553,2.553,0,1,0,2.544-2.312,2.441,2.441,0,0,0-2.544,2.312m46.557,0a2.553,2.553,0,1,0,2.545-2.312,2.444,2.444,0,0,0-2.545,2.312m-31.036,0a2.551,2.551,0,1,0,2.539-2.312,2.439,2.439,0,0,0-2.539,2.312M764.161,340.678a2.552,2.552,0,1,0,2.538-2.315,2.432,2.432,0,0,0-2.538,2.315m-31.039,0a2.553,2.553,0,1,0,2.541-2.315,2.434,2.434,0,0,0-2.541,2.315M748.641,326.7a2.554,2.554,0,1,0,2.539-2.312,2.432,2.432,0,0,0-2.539,2.312m217.267,13.979a2.552,2.552,0,1,0,2.545-2.315,2.439,2.439,0,0,0-2.545,2.315m-15.52,0a2.55,2.55,0,1,0,2.542-2.315,2.436,2.436,0,0,0-2.542,2.315M764.161,326.7a2.553,2.553,0,1,0,2.538-2.312,2.429,2.429,0,0,0-2.538,2.312m15.522,0a2.552,2.552,0,1,0,2.539-2.312,2.43,2.43,0,0,0-2.539,2.312M872.8,340.678a2.55,2.55,0,1,0,2.538-2.315,2.431,2.431,0,0,0-2.538,2.315m15.517,0a2.552,2.552,0,1,0,2.539-2.315,2.432,2.432,0,0,0-2.539,2.315m-46.56,0a2.553,2.553,0,1,0,2.544-2.315,2.436,2.436,0,0,0-2.544,2.315m93.118,0a2.551,2.551,0,1,0,2.539-2.315,2.433,2.433,0,0,0-2.539,2.315m-77.6,0a2.554,2.554,0,1,0,2.542-2.315,2.435,2.435,0,0,0-2.542,2.315m62.075,0a2.553,2.553,0,1,0,2.544-2.315,2.435,2.435,0,0,0-2.544,2.315m-15.519,0a2.553,2.553,0,1,0,2.546-2.315,2.433,2.433,0,0,0-2.546,2.315m-93.115-97.839a2.553,2.553,0,1,0,2.541-2.315,2.432,2.432,0,0,0-2.541,2.315m124.155,41.929a2.551,2.551,0,1,0,2.539-2.312,2.426,2.426,0,0,0-2.539,2.312m-77.6-27.951a2.554,2.554,0,1,0,2.542-2.318,2.44,2.44,0,0,0-2.542,2.318m-31.039,0a2.55,2.55,0,1,0,2.539-2.318,2.44,2.44,0,0,0-2.539,2.318m15.517,0A2.553,2.553,0,1,0,844.3,254.5a2.441,2.441,0,0,0-2.544,2.318m46.56,0a2.551,2.551,0,1,0,2.539-2.318,2.437,2.437,0,0,0-2.539,2.318m31.036,0a2.553,2.553,0,1,0,2.544-2.318,2.44,2.44,0,0,0-2.544,2.318m20.6,0a2.551,2.551,0,1,0-2.541,2.316,2.435,2.435,0,0,0,2.541-2.316m-49.1-25.638a2.514,2.514,0,0,0,2.452-1.735c-1.626-.4-3.258-.784-4.915-1.13a2.154,2.154,0,0,0-.076.549,2.436,2.436,0,0,0,2.539,2.315m77.6,163.087a2.325,2.325,0,1,0,0,4.63,2.571,2.571,0,0,0,.821-.139c.568-.874,1.128-1.759,1.657-2.656a2.493,2.493,0,0,0-2.479-1.836M810.717,256.818a2.553,2.553,0,1,0,2.541-2.318,2.439,2.439,0,0,0-2.541,2.318m93.115,0a2.553,2.553,0,1,0,2.546-2.318,2.438,2.438,0,0,0-2.546,2.318m-124.149,0a2.551,2.551,0,1,0,2.539-2.318,2.437,2.437,0,0,0-2.539,2.318m15.513,0a2.555,2.555,0,1,0,2.545-2.318,2.442,2.442,0,0,0-2.545,2.318m77.6,0a2.55,2.55,0,1,0,2.538-2.318,2.435,2.435,0,0,0-2.538,2.318m46.553-13.979a2.553,2.553,0,1,0,2.544-2.315,2.433,2.433,0,0,0-2.544,2.315m-77.6-13.975a2.553,2.553,0,1,0,2.544-2.318,2.44,2.44,0,0,0-2.544,2.318m62.078,13.975a2.553,2.553,0,1,0,2.546-2.315,2.431,2.431,0,0,0-2.546,2.315m-108.636,0a2.555,2.555,0,1,0,2.545-2.315,2.435,2.435,0,0,0-2.545,2.315m62.08-13.975a2.554,2.554,0,1,0,2.542-2.318,2.438,2.438,0,0,0-2.542,2.318m15.522,0a2.55,2.55,0,1,0,2.538-2.318,2.434,2.434,0,0,0-2.538,2.318m-44.021,2.315a2.435,2.435,0,0,0,2.541-2.315,1.781,1.781,0,0,0-.081-.549c-1.654.346-3.28.729-4.905,1.13a2.5,2.5,0,0,0,2.446,1.735m12.978,11.66a2.553,2.553,0,1,0,2.544-2.315,2.434,2.434,0,0,0-2.544,2.315m-15.517,0a2.551,2.551,0,1,0,2.539-2.315,2.432,2.432,0,0,0-2.539,2.315M872.8,354.652a2.55,2.55,0,1,0,2.538-2.312,2.437,2.437,0,0,0-2.538,2.312m0-111.813a2.55,2.55,0,1,0,2.538-2.315,2.428,2.428,0,0,0-2.538,2.315m15.517,0a2.552,2.552,0,1,0,2.539-2.315,2.43,2.43,0,0,0-2.539,2.315m-31.039,0a2.554,2.554,0,1,0,2.542-2.315,2.432,2.432,0,0,0-2.542,2.315m108.632,55.912a2.552,2.552,0,1,0,2.545-2.314,2.439,2.439,0,0,0-2.545,2.314m-77.593,0a2.552,2.552,0,1,0,2.539-2.314,2.432,2.432,0,0,0-2.539,2.314m-15.517,0a2.55,2.55,0,1,0,2.538-2.314,2.431,2.431,0,0,0-2.538,2.314m31.034,0a2.553,2.553,0,1,0,2.546-2.314,2.433,2.433,0,0,0-2.546,2.314m15.519,0a2.553,2.553,0,1,0,2.544-2.314,2.435,2.435,0,0,0-2.544,2.314m15.522,0a2.551,2.551,0,1,0,2.539-2.314,2.433,2.433,0,0,0-2.539,2.314m-77.6,0a2.554,2.554,0,1,0,2.542-2.314,2.435,2.435,0,0,0-2.542,2.314m-93.115,0a2.552,2.552,0,1,0,2.538-2.314,2.432,2.432,0,0,0-2.538,2.314m15.522,0a2.552,2.552,0,1,0,2.539-2.314,2.432,2.432,0,0,0-2.539,2.314m15.513,0a2.555,2.555,0,1,0,2.545-2.314,2.438,2.438,0,0,0-2.545,2.314m-46.555,0a2.553,2.553,0,1,0,2.539-2.314,2.435,2.435,0,0,0-2.539,2.314m93.113,0a2.553,2.553,0,1,0,2.544-2.314,2.436,2.436,0,0,0-2.544,2.314m-31.037,0a2.553,2.553,0,1,0,2.541-2.314,2.435,2.435,0,0,0-2.541,2.314m15.52,0a2.551,2.551,0,1,0,2.539-2.314,2.435,2.435,0,0,0-2.539,2.314m124.151-13.983a2.55,2.55,0,1,0,2.542-2.312,2.429,2.429,0,0,0-2.542,2.312m-62.073,0a2.552,2.552,0,1,0,2.539-2.312,2.425,2.425,0,0,0-2.539,2.312m-15.517,0a2.55,2.55,0,1,0,2.538-2.312,2.424,2.424,0,0,0-2.538,2.312m77.59,13.983a2.55,2.55,0,1,0,2.542-2.314,2.436,2.436,0,0,0-2.542,2.314M841.754,284.768a2.553,2.553,0,1,0,2.544-2.312,2.429,2.429,0,0,0-2.544,2.312m77.6,0a2.553,2.553,0,1,0,2.544-2.312,2.428,2.428,0,0,0-2.544,2.312m-15.519,0a2.553,2.553,0,1,0,2.546-2.312,2.426,2.426,0,0,0-2.546,2.312m-46.556,0a2.554,2.554,0,1,0,2.542-2.312,2.428,2.428,0,0,0-2.542,2.312m-77.593,0a2.552,2.552,0,1,0,2.539-2.312,2.425,2.425,0,0,0-2.539,2.312m-15.522,0a2.553,2.553,0,1,0,2.538-2.312,2.425,2.425,0,0,0-2.538,2.312m46.556,0a2.553,2.553,0,1,0,2.541-2.312,2.427,2.427,0,0,0-2.541,2.312m-15.522,0a2.555,2.555,0,1,0,2.545-2.312,2.431,2.431,0,0,0-2.545,2.312m31.042,0a2.551,2.551,0,1,0,2.539-2.312,2.428,2.428,0,0,0-2.539,2.312m51.638,153.748a2.55,2.55,0,1,0-2.541,2.311,2.434,2.434,0,0,0,2.541-2.311M800.282,270.794a2.555,2.555,0,1,0-2.542,2.312,2.435,2.435,0,0,0,2.542-2.312m183.685,53.593a2.321,2.321,0,1,0,0,4.622,2.665,2.665,0,0,0,1.817-.692c-.141-1.205-.3-2.393-.487-3.583a2.725,2.725,0,0,0-1.33-.346M815.8,270.794a2.554,2.554,0,1,0-2.544,2.312,2.434,2.434,0,0,0,2.544-2.312m15.516,0a2.551,2.551,0,1,0-2.541,2.312,2.43,2.43,0,0,0,2.541-2.312m134.591,13.975a2.431,2.431,0,0,0,2.545,2.308,2.484,2.484,0,0,0,2.479-1.83c-.53-.89-1.089-1.775-1.657-2.656a2.77,2.77,0,0,0-.821-.135,2.439,2.439,0,0,0-2.545,2.312m15.519,27.955a2.37,2.37,0,0,0,1.913,2.235c-.327-1.326-.691-2.637-1.07-3.944a2.209,2.209,0,0,0-.843,1.709M784.764,270.794a2.552,2.552,0,1,0-2.542,2.312,2.435,2.435,0,0,0,2.542-2.312m124.152,0a2.554,2.554,0,1,0-2.538,2.312,2.434,2.434,0,0,0,2.538-2.312m15.519,0a2.554,2.554,0,1,0-2.541,2.312,2.435,2.435,0,0,0,2.541-2.312m15.517,0a2.551,2.551,0,1,0-2.541,2.312,2.431,2.431,0,0,0,2.541-2.312m-46.556,0a2.552,2.552,0,1,0-2.542,2.312,2.434,2.434,0,0,0,2.542-2.312m-31.034,0a2.554,2.554,0,1,0-2.544,2.312,2.436,2.436,0,0,0,2.544-2.312m15.514,0a2.55,2.55,0,1,0-2.541,2.312,2.433,2.433,0,0,0,2.541-2.312m-31.037,0a2.553,2.553,0,1,0-2.54,2.312,2.435,2.435,0,0,0,2.54-2.312m-5.084,139.772a2.553,2.553,0,1,0,2.544-2.318,2.439,2.439,0,0,0-2.544,2.318m15.522,0a2.554,2.554,0,1,0,2.542-2.318,2.437,2.437,0,0,0-2.542,2.318m-31.039,0a2.55,2.55,0,1,0,2.539-2.318,2.437,2.437,0,0,0-2.539,2.318m62.078,0a2.551,2.551,0,1,0,2.539-2.318,2.435,2.435,0,0,0-2.539,2.318m-77.6,0a2.553,2.553,0,1,0,2.541-2.318,2.437,2.437,0,0,0-2.541,2.318m62.08,0a2.55,2.55,0,1,0,2.538-2.318,2.433,2.433,0,0,0-2.538,2.318m111.17-72.2a2.325,2.325,0,1,0,2.544,2.315,2.435,2.435,0,0,0-2.544-2.315M795.2,410.566a2.555,2.555,0,1,0,2.545-2.318,2.44,2.44,0,0,0-2.545,2.318m186.231-41.935a2.207,2.207,0,0,0,.843,1.709c.379-1.3.743-2.621,1.07-3.94a2.356,2.356,0,0,0-1.913,2.231m2.541-16.291a2.325,2.325,0,1,0,0,4.63,2.73,2.73,0,0,0,1.33-.352c.182-1.19.346-2.377.487-3.58a2.657,2.657,0,0,0-1.817-.7m-28.5,58.226a2.55,2.55,0,1,0-2.536,2.314,2.43,2.43,0,0,0,2.536-2.314m-191.3,0a2.552,2.552,0,1,0,2.538-2.318,2.434,2.434,0,0,0-2.538,2.318m15.522,0a2.551,2.551,0,1,0,2.539-2.318,2.435,2.435,0,0,0-2.539,2.318m144.752,27.951a2.554,2.554,0,1,0-2.541,2.311,2.436,2.436,0,0,0,2.541-2.311M831.316,424.54a2.551,2.551,0,1,0-2.541,2.311,2.437,2.437,0,0,0,2.541-2.311m15.522,0a2.554,2.554,0,1,0-2.54,2.311,2.441,2.441,0,0,0,2.54-2.311m31.037,0a2.55,2.55,0,1,0-2.541,2.311,2.44,2.44,0,0,0,2.541-2.311m-15.514,0a2.555,2.555,0,1,0-2.544,2.311,2.442,2.442,0,0,0,2.544-2.311m-62.079,0a2.555,2.555,0,1,0-2.542,2.311,2.441,2.441,0,0,0,2.542-2.311m103.549-13.975a2.553,2.553,0,1,0,2.546-2.318,2.436,2.436,0,0,0-2.546,2.318M815.8,424.54a2.554,2.554,0,1,0-2.544,2.311,2.44,2.44,0,0,0,2.544-2.311m-36.118,0a2.551,2.551,0,1,0,2.539-2.32,2.434,2.434,0,0,0-2.539,2.32m160.269,0a2.551,2.551,0,1,0-2.541,2.311,2.438,2.438,0,0,0,2.541-2.311M831.316,452.495a2.429,2.429,0,0,0-2.541-2.315,2.5,2.5,0,0,0-2.446,1.725c1.625.4,3.258.792,4.905,1.138a1.79,1.79,0,0,0,.081-.548m25.959-97.843a2.554,2.554,0,1,0,2.542-2.312,2.441,2.441,0,0,0-2.542,2.312m51.64,69.888a2.554,2.554,0,1,0-2.538,2.311,2.441,2.441,0,0,0,2.538-2.311m-15.52,0a2.552,2.552,0,1,0-2.542,2.311,2.44,2.44,0,0,0,2.542-2.311m-2.542,25.64a2.43,2.43,0,0,0-2.539,2.315,2.168,2.168,0,0,0,.076.548c1.657-.346,3.289-.734,4.915-1.138a2.512,2.512,0,0,0-2.452-1.725m-33.578,2.315a2.554,2.554,0,1,0,2.542-2.315,2.437,2.437,0,0,0-2.542,2.315m98.19-181.7a2.55,2.55,0,1,0-2.536,2.312,2.428,2.428,0,0,0,2.536-2.312m-113.712,181.7a2.553,2.553,0,1,0,2.544-2.315,2.438,2.438,0,0,0-2.544,2.315m36.121,0a2.55,2.55,0,1,0-2.541,2.311,2.432,2.432,0,0,0,2.541-2.311m31.04-13.979a2.554,2.554,0,1,0-2.538,2.311,2.435,2.435,0,0,0,2.538-2.311M751.18,287.077a2.321,2.321,0,1,0,0-4.621,2.838,2.838,0,0,0-.829.135q-.843,1.321-1.653,2.656a2.491,2.491,0,0,0,2.481,1.83m12.981-16.283a2.553,2.553,0,1,0,2.538-2.312,2.431,2.431,0,0,0-2.538,2.312m98.2,167.722a2.555,2.555,0,1,0-2.544,2.311,2.436,2.436,0,0,0,2.544-2.311m-46.56,0a2.554,2.554,0,1,0-2.544,2.311,2.434,2.434,0,0,0,2.544-2.311m31.037,0a2.554,2.554,0,1,0-2.54,2.311,2.435,2.435,0,0,0,2.54-2.311m46.557,0a2.552,2.552,0,1,0-2.542,2.311,2.434,2.434,0,0,0,2.542-2.311m-62.079,0a2.551,2.551,0,1,0-2.541,2.311,2.431,2.431,0,0,0,2.541-2.311m-31.034,0a2.555,2.555,0,1,0-2.542,2.311,2.435,2.435,0,0,0,2.542-2.311M924.434,424.54a2.554,2.554,0,1,0-2.541,2.311,2.442,2.442,0,0,0,2.541-2.311M810.717,368.631a2.553,2.553,0,1,0,2.541-2.318,2.434,2.434,0,0,0-2.541,2.318m15.52,0a2.55,2.55,0,1,0,2.539-2.318,2.435,2.435,0,0,0-2.539,2.318m-31.042,0a2.555,2.555,0,1,0,2.545-2.318,2.438,2.438,0,0,0-2.545,2.318m62.08,0a2.554,2.554,0,1,0,2.542-2.318,2.435,2.435,0,0,0-2.542,2.318m15.522,0a2.55,2.55,0,1,0,2.538-2.318,2.431,2.431,0,0,0-2.538,2.318m-93.115,0a2.551,2.551,0,1,0,2.539-2.318,2.432,2.432,0,0,0-2.539,2.318m62.072,0a2.553,2.553,0,1,0,2.544-2.318,2.436,2.436,0,0,0-2.544,2.318m108.633,13.976a2.55,2.55,0,1,0,2.542-2.312,2.434,2.434,0,0,0-2.542,2.312M764.161,368.631a2.552,2.552,0,1,0,2.538-2.318,2.432,2.432,0,0,0-2.538,2.318m170.711,13.976a2.551,2.551,0,1,0,2.539-2.312,2.431,2.431,0,0,0-2.539,2.312m31.036,0a2.553,2.553,0,1,0,2.545-2.312,2.436,2.436,0,0,0-2.545,2.312M748.641,368.631a2.553,2.553,0,1,0,2.539-2.318,2.435,2.435,0,0,0-2.539,2.318m-10.434,0a2.351,2.351,0,0,0-1.916-2.231c.327,1.32.7,2.635,1.071,3.94a2.213,2.213,0,0,0,.845-1.709m25.955-13.979a2.553,2.553,0,1,0,2.538-2.312,2.438,2.438,0,0,0-2.538,2.312m46.556,0a2.553,2.553,0,1,0,2.541-2.312,2.44,2.44,0,0,0-2.541,2.312M919.35,382.607a2.553,2.553,0,1,0,2.544-2.312,2.433,2.433,0,0,0-2.544,2.312M779.682,354.652a2.552,2.552,0,1,0,2.539-2.312,2.438,2.438,0,0,0-2.539,2.312m108.632,13.979a2.551,2.551,0,1,0,2.539-2.318,2.432,2.432,0,0,0-2.539,2.318m-62.078-13.979a2.551,2.551,0,1,0,2.539-2.312,2.441,2.441,0,0,0-2.539,2.312m15.517,0a2.553,2.553,0,1,0,2.544-2.312,2.442,2.442,0,0,0-2.544,2.312m-46.559,0a2.555,2.555,0,1,0,2.545-2.312,2.443,2.443,0,0,0-2.545,2.312M919.35,368.631a2.553,2.553,0,1,0,2.544-2.318,2.435,2.435,0,0,0-2.544,2.318m15.522,0a2.55,2.55,0,1,0,2.539-2.318,2.433,2.433,0,0,0-2.539,2.318m-31.04,0a2.553,2.553,0,1,0,2.546-2.318,2.433,2.433,0,0,0-2.546,2.318M748.641,354.652a2.554,2.554,0,1,0,2.539-2.312,2.441,2.441,0,0,0-2.539,2.312m217.267,13.979a2.552,2.552,0,1,0,2.545-2.318,2.439,2.439,0,0,0-2.545,2.318m-15.52,0a2.55,2.55,0,1,0,2.542-2.318,2.436,2.436,0,0,0-2.542,2.318m-15.516,27.953a2.55,2.55,0,1,0,2.539-2.318,2.433,2.433,0,0,0-2.539,2.318m-62.075,0a2.55,2.55,0,1,0,2.538-2.318,2.43,2.43,0,0,0-2.538,2.318m-15.522,0a2.554,2.554,0,1,0,2.542-2.318,2.435,2.435,0,0,0-2.542,2.318m31.039,0a2.551,2.551,0,1,0,2.539-2.318,2.432,2.432,0,0,0-2.539,2.318m-46.56,0a2.553,2.553,0,1,0,2.544-2.318,2.436,2.436,0,0,0-2.544,2.318m62.078,0a2.553,2.553,0,1,0,2.546-2.318,2.433,2.433,0,0,0-2.546,2.318m15.519,0a2.553,2.553,0,1,0,2.544-2.318,2.435,2.435,0,0,0-2.544,2.318m-155.189,0a2.552,2.552,0,1,0,2.538-2.318,2.431,2.431,0,0,0-2.538,2.318m15.522,0a2.551,2.551,0,1,0,2.539-2.318,2.432,2.432,0,0,0-2.539,2.318m46.554,0a2.55,2.55,0,1,0,2.539-2.318,2.435,2.435,0,0,0-2.539,2.318m93.113,13.981a2.553,2.553,0,1,0,2.544-2.318,2.438,2.438,0,0,0-2.544,2.318m31.037-13.981a2.55,2.55,0,1,0,2.542-2.318,2.435,2.435,0,0,0-2.542,2.318m-139.671,0a2.553,2.553,0,1,0,2.541-2.318,2.434,2.434,0,0,0-2.541,2.318m-15.522,0a2.555,2.555,0,1,0,2.545-2.318,2.437,2.437,0,0,0-2.545,2.318m-31.034-13.977a2.553,2.553,0,1,0,2.538-2.312,2.429,2.429,0,0,0-2.538,2.312m93.115,0a2.554,2.554,0,1,0,2.542-2.312,2.433,2.433,0,0,0-2.542,2.312m-15.522,0a2.553,2.553,0,1,0,2.544-2.312,2.434,2.434,0,0,0-2.544,2.312m-15.517,0a2.551,2.551,0,1,0,2.539-2.312,2.433,2.433,0,0,0-2.539,2.312m62.078,0a2.552,2.552,0,1,0,2.539-2.312,2.43,2.43,0,0,0-2.539,2.312m-15.517,0a2.55,2.55,0,1,0,2.538-2.312,2.429,2.429,0,0,0-2.538,2.312m-62.08,0a2.553,2.553,0,1,0,2.541-2.312,2.432,2.432,0,0,0-2.541,2.312m124.155,27.959a2.55,2.55,0,1,0,2.539-2.318,2.436,2.436,0,0,0-2.539,2.318M753.725,396.584a2.438,2.438,0,0,0-2.545-2.318A2.5,2.5,0,0,0,748.7,396.1q.808,1.345,1.653,2.656a2.633,2.633,0,0,0,.829.139,2.437,2.437,0,0,0,2.545-2.312m-5.084-13.977a2.554,2.554,0,1,0,2.539-2.312,2.433,2.433,0,0,0-2.539,2.312m155.191,0a2.553,2.553,0,1,0,2.546-2.312,2.431,2.431,0,0,0-2.546,2.312m-124.149,0a2.552,2.552,0,1,0,2.539-2.312,2.43,2.43,0,0,0-2.539,2.312m15.513,0a2.555,2.555,0,1,0,2.545-2.312,2.435,2.435,0,0,0-2.545,2.312" transform="translate(423.36 -610.746)" fill="#ffa031"/>
          <path id="Trazado_699613" data-name="Trazado 699613" d="M141.956,338.509c-3.8,0-5.658-3.217-7.292-6.051-1.487-2.578-2.768-4.8-5.224-4.8s-3.739,2.224-5.222,4.8c-1.637,2.834-3.491,6.051-7.294,6.051s-5.652-3.217-7.288-6.051c-1.485-2.578-2.769-4.8-5.222-4.8s-3.738,2.224-5.225,4.8c-1.636,2.834-3.488,6.051-7.291,6.051s-5.655-3.217-7.291-6.051c-1.485-2.578-2.765-4.8-5.222-4.8a1.363,1.363,0,0,1,0-2.713c3.8,0,5.658,3.217,7.292,6.054,1.484,2.577,2.767,4.8,5.221,4.8s3.74-2.222,5.224-4.8c1.636-2.837,3.489-6.054,7.292-6.054s5.656,3.217,7.289,6.054c1.485,2.577,2.768,4.8,5.221,4.8s3.74-2.222,5.225-4.8c1.634-2.837,3.491-6.054,7.291-6.054s5.655,3.217,7.292,6.054c1.484,2.577,2.767,4.8,5.224,4.8a1.363,1.363,0,0,1,0,2.713m-24.417,21.252a1.3,1.3,0,0,0-1.227-1.355c-2.456,0-3.737-2.225-5.222-4.8-1.636-2.837-3.489-6.055-7.292-6.055s-5.655,3.218-7.289,6.055c-1.485,2.575-2.768,4.8-5.224,4.8s-3.736-2.225-5.222-4.8c-1.634-2.837-3.491-6.055-7.292-6.055a1.365,1.365,0,0,0,0,2.716c2.457,0,3.74,2.222,5.224,4.8,1.636,2.834,3.489,6.051,7.291,6.051s5.658-3.217,7.292-6.051c1.484-2.578,2.767-4.8,5.221-4.8s3.738,2.222,5.225,4.8c1.636,2.834,3.489,6.051,7.289,6.051a1.3,1.3,0,0,0,1.227-1.356" transform="translate(28.607 -113.044)" fill="#ffa031"/>
          <path id="Trazado_699616" data-name="Trazado 699616" d="M136.378,280.706a3.757,3.757,0,1,0-3.38-3.741,3.572,3.572,0,0,0,3.38,3.741m-13.309,0a3.757,3.757,0,1,0-3.38-3.741,3.572,3.572,0,0,0,3.38,3.741m13.309-15.768A3.757,3.757,0,1,0,133,261.2a3.572,3.572,0,0,0,3.38,3.741m-13.309,0a3.757,3.757,0,1,0-3.38-3.741,3.572,3.572,0,0,0,3.38,3.741m13.309-15.768A3.757,3.757,0,1,0,133,245.43a3.572,3.572,0,0,0,3.38,3.741m-13.309,0a3.757,3.757,0,1,0-3.38-3.741,3.572,3.572,0,0,0,3.38,3.741M136.378,233.4a3.757,3.757,0,1,0-3.38-3.741,3.571,3.571,0,0,0,3.38,3.741m-13.309,0a3.757,3.757,0,1,0-3.38-3.741,3.571,3.571,0,0,0,3.38,3.741" transform="translate(564.529 -306.784)" fill="#ffa031"/>
          <path id="Trazado_699617" data-name="Trazado 699617" d="M713.343,350.681c0,4.374-4.1,7.921-9.163,7.921s-9.159-3.546-9.159-7.921,4.1-7.921,9.159-7.921,9.163,3.548,9.163,7.921" transform="translate(256.399 104.25)" fill="#0098e8"/>
          <path id="Trazado_699618" data-name="Trazado 699618" d="M254.481,93.739c0,4.965-3.64,8.99-8.13,8.99s-8.13-4.025-8.13-8.99,3.64-8.99,8.13-8.99,8.13,4.025,8.13,8.99" transform="translate(528.211 45.558)" fill="#0098e8"/>
          <path id="Trazado_699619" data-name="Trazado 699619" d="M692.545,243.457a4.767,4.767,0,1,1-4.743-5.244,5.014,5.014,0,0,1,4.743,5.244" transform="translate(248.056 48.394)" fill="#ffa031"/>
          <path id="Trazado_699620" data-name="Trazado 699620" d="M592.162,81.086a4.767,4.767,0,1,1-4.743-5.244,5.013,5.013,0,0,1,4.743,5.244" transform="translate(242.083 52.968)" fill="#ffa031"/>
          <path id="Trazado_699621" data-name="Trazado 699621" d="M456.557,351.633a4.766,4.766,0,1,1-4.743-5.242,5.014,5.014,0,0,1,4.743,5.242" transform="translate(454.271 -103.756)" fill="#cdeafa"/>
          <path id="Trazado_699622" data-name="Trazado 699622" d="M82.826,257.372c0,3.043-2.957,5.512-6.6,5.512s-6.6-2.469-6.6-5.512,2.957-5.51,6.6-5.51,6.6,2.469,6.6,5.51" transform="translate(759.879 28.53)" fill="#ffa031"/>
          <path id="Trazado_699625" data-name="Trazado 699625" d="M208.844,199.916c-5.734,0-10.4-4.018-10.4-8.957s4.665-8.959,10.4-8.959,10.4,4.02,10.4,8.959-4.664,8.957-10.4,8.957m0-12.467a3.549,3.549,0,1,0,4.075,3.51,3.83,3.83,0,0,0-4.075-3.51" transform="translate(833.278 -104.863)" fill="#ffa031"/>
          <path id="Trazado_704912" data-name="Trazado 704912" d="M208.844,199.916c-5.734,0-10.4-4.018-10.4-8.957s4.665-8.959,10.4-8.959,10.4,4.02,10.4,8.959-4.664,8.957-10.4,8.957m0-12.467a3.549,3.549,0,1,0,4.075,3.51,3.83,3.83,0,0,0-4.075-3.51" transform="translate(986.278 16.137)" fill="#ffa031"/>
          <path id="Trazado_704913" data-name="Trazado 704913" d="M209.324,202.026c-6,0-10.879-4.491-10.879-10.012S203.325,182,209.324,182s10.879,4.493,10.879,10.014-4.88,10.012-10.879,10.012m0-13.936a3.937,3.937,0,1,0,4.263,3.924,4.11,4.11,0,0,0-4.263-3.924" transform="translate(39.278 -264.969)" fill="#ffa031"/>
        </g>
      </g>
    </g>
    <rect id="Rect치ngulo_345264" data-name="Rect치ngulo 345264" width="1329" height="111" transform="translate(136 4747)" fill="url(#linear-gradient)"/>
    <rect id="Rect치ngulo_345282" data-name="Rect치ngulo 345282" width="1329" height="111" transform="translate(136 5257)" fill="url(#linear-gradient-2)"/>
  </g>
</svg>
