<svg xmlns="http://www.w3.org/2000/svg" xmlns:xlink="http://www.w3.org/1999/xlink" width="136.546" height="136.546" viewBox="0 0 136.546 136.546">
  <defs>
    <filter id="Elipse_4876" x="0" y="0" width="136.546" height="136.546" filterUnits="userSpaceOnUse">
      <feOffset dy="3" input="SourceAlpha"/>
      <feGaussianBlur stdDeviation="3" result="blur"/>
      <feFlood flood-opacity="0.161"/>
      <feComposite operator="in" in2="blur"/>
      <feComposite in="SourceGraphic"/>
    </filter>
  </defs>
  <g id="Grupo_1003706" data-name="Grupo 1003706" transform="translate(1490 6022.124)">
    <g transform="matrix(1, 0, 0, 1, -1490, -6022.12)" filter="url(#Elipse_4876)">
      <circle id="Elipse_4876-2" data-name="Elipse 4876" cx="59.273" cy="59.273" r="59.273" transform="translate(9 6)" fill="#0098e8"/>
    </g>
    <g id="leer" transform="translate(-1518.969 -5994.565)">
      <g id="Grupo_1000007" data-name="Grupo 1000007" transform="translate(68.986 1.173)">
        <g id="Grupo_1000006" data-name="Grupo 1000006" transform="translate(0)">
          <g id="Grupo_1000002" data-name="Grupo 1000002" transform="translate(4.429)">
            <path id="Trazado_705389" data-name="Trazado 705389" d="M215,176.208a12.852,12.852,0,0,0,7.22-2.718,1.239,1.239,0,0,0-.256-2.155l-.009,0a4.347,4.347,0,0,1-2.587-3.974v-6.492h-9.995v6.492a4.348,4.348,0,0,1-2.066,3.7l-.03.018a1.236,1.236,0,0,0-.121,2.065A13.423,13.423,0,0,0,215,176.208Z" transform="translate(-190.544 -136.883)" fill="#ffddce"/>
            <g id="Grupo_1000001" data-name="Grupo 1000001">
              <g id="Grupo_1000000" data-name="Grupo 1000000">
                <g id="Grupo_999999" data-name="Grupo 999999">
                  <g id="Grupo_999996" data-name="Grupo 999996" transform="translate(10.757 2.567)">
                    <path id="Trazado_705390" data-name="Trazado 705390" d="M198.553,36.576a1.847,1.847,0,0,0-1.844-1.851l-.692,0-.012-2.788c-.024-5.841-4.844-7.988-10.189-8.026-5.321.083-10.13,2.249-10.106,8.112l.008,1.966,0,.822h-.656a2.641,2.641,0,0,0-2.64,2.643l0,2.4a2.641,2.641,0,0,0,2.642,2.639h.678a9.605,9.605,0,0,0,3.23,7.044,10.3,10.3,0,0,0,13.887-.059,9.607,9.607,0,0,0,3.171-7.072l.695,0a1.848,1.848,0,0,0,1.829-1.867Z" transform="translate(-172.427 -23.914)" fill="#ffece4"/>
                  </g>
                  <path id="Trazado_705391" data-name="Trazado 705391" d="M137.747,226.964c-.274-.053-.983-.195-1.8-.358a4.284,4.284,0,0,1-.906-.291,10.767,10.767,0,0,1-14.4-.05c-.084-.073-.164-.149-.246-.225a4.332,4.332,0,0,1-1.426.565c-.813.164-1.522.306-1.8.358a16.693,16.693,0,0,0-13.539,16.393v8.125a3.41,3.41,0,0,0,3.41,3.41h40.83a3.41,3.41,0,0,0,3.41-3.41v-8.125A16.694,16.694,0,0,0,137.747,226.964Z" transform="translate(-103.636 -191.865)" fill="#88a8d8"/>
                  <g id="Grupo_999997" data-name="Grupo 999997" transform="translate(28.04 34.449)">
                    <path id="Trazado_705392" data-name="Trazado 705392" d="M289.012,228.444c-.274-.053-.983-.195-1.8-.358a4.29,4.29,0,0,1-.906-.291,11.509,11.509,0,0,1-3.37,2.024,16.7,16.7,0,0,1,9.4,15.018v8.125a3.41,3.41,0,0,1-3.41,3.41h10.208a3.41,3.41,0,0,0,3.41-3.41v-8.125A16.694,16.694,0,0,0,289.012,228.444Z" transform="translate(-282.941 -227.794)" fill="#7296d1"/>
                  </g>
                  <path id="Trazado_705393" data-name="Trazado 705393" d="M130.6,254.088c-6.342-4.292-15.942-4.556-19.834-4.465a1.771,1.771,0,0,0-1.73,1.772v25.573a1.769,1.769,0,0,0,1.813,1.772c3.732-.08,12.451.175,18.713,3.815a4.88,4.88,0,0,0,4.911,0c8.169-4.748,20.517-3.737,20.525-3.735V251.395a1.771,1.771,0,0,0-1.73-1.772c-3.892-.09-13.493.174-19.834,4.465a2.525,2.525,0,0,1-2.832,0Z" transform="translate(-108.189 -211.749)" fill="#f7f4f7"/>
                  <g id="Grupo_999998" data-name="Grupo 999998" transform="translate(35.05 37.861)">
                    <path id="Trazado_705394" data-name="Trazado 705394" d="M337.8,249.623a50.152,50.152,0,0,0-10.025.769,1.772,1.772,0,0,1,1.547,1.758v27.1a49.813,49.813,0,0,1,10.208-.431V251.395A1.771,1.771,0,0,0,337.8,249.623Z" transform="translate(-327.774 -249.61)" fill="#edeaed"/>
                  </g>
                  <path id="Trazado_705395" data-name="Trazado 705395" d="M198.947,9.947A2.486,2.486,0,0,0,196.461,7.5H185.434a8.006,8.006,0,0,0-8.006,8.006V20.8a1.826,1.826,0,0,0,1.226,1.725l1.972.687a1.06,1.06,0,0,0,1.408-1l0-3.731c0-.06,0-.119,0-.179a2.557,2.557,0,0,1,4.472-1.515c1.819,2.033,5.554,5.13,10.684,3.891a1.282,1.282,0,0,1,1.454.667h0a2.372,2.372,0,0,0,2.9,1.182,1.826,1.826,0,0,0,1.226-1.725V13.813a2.443,2.443,0,0,0-2.4-2.442,1.447,1.447,0,0,1-1.423-1.424Z" transform="translate(-165.889 -7.5)" fill="#89808c"/>
                  <path id="Trazado_705396" data-name="Trazado 705396" d="M250.434,36.88a1.847,1.847,0,0,0-1.844-1.851l-.692,0-.012-2.788c-.022-5.351-4.069-7.6-8.857-7.97a6.283,6.283,0,0,1,1.193,3.689l.005,14.746a9.607,9.607,0,0,1-3.171,7.072,11.1,11.1,0,0,1-3.131,1.956,10.405,10.405,0,0,0,3.89.767,10.567,10.567,0,0,0,6.933-2.723,9.607,9.607,0,0,0,3.171-7.072l.695,0a1.848,1.848,0,0,0,1.829-1.867Z" transform="translate(-213.551 -21.651)" fill="#ffddce"/>
                  <path id="Trazado_705397" data-name="Trazado 705397" d="M243.56,11.371a1.447,1.447,0,0,1-1.423-1.424A2.486,2.486,0,0,0,239.651,7.5H229.436a6.314,6.314,0,0,1,6.314,6.312l0,6.858a9.529,9.529,0,0,0,4.627,0,1.282,1.282,0,0,1,1.454.667h0a2.372,2.372,0,0,0,2.9,1.182,1.826,1.826,0,0,0,1.226-1.725V13.813a2.442,2.442,0,0,0-2.4-2.442Z" transform="translate(-209.079 -7.5)" fill="#756e78"/>
                </g>
              </g>
            </g>
          </g>
          <g id="Grupo_1000005" data-name="Grupo 1000005" transform="translate(3.74 41.873)">
            <g id="Grupo_1000003" data-name="Grupo 1000003" transform="translate(0 0)">
              <path id="Trazado_705398" data-name="Trazado 705398" d="M291.089,275.282c-3.993-.093-13.615.167-20.363,4.259v31.039q.159-.079.315-.169c7-4.069,16.877-4.173,20.5-4.055a1.356,1.356,0,0,0,1.4-1.356V277.172A1.89,1.89,0,0,0,291.089,275.282Z" transform="translate(-243.907 -275.268)" fill="#ecbe6b"/>
              <path id="Trazado_705399" data-name="Trazado 705399" d="M121.439,279.541c-6.748-4.092-16.371-4.352-20.364-4.259a1.889,1.889,0,0,0-1.845,1.89V305a1.356,1.356,0,0,0,1.4,1.356c3.619-.118,13.5-.013,20.5,4.056q.155.09.314.168Z" transform="translate(-99.23 -275.268)" fill="#ecbe6b"/>
            </g>
            <g id="Grupo_1000004" data-name="Grupo 1000004" transform="translate(36.46)">
              <path id="Trazado_705400" data-name="Trazado 705400" d="M343.1,275.281a53.441,53.441,0,0,0-10.722.824l.5.009a1.89,1.89,0,0,1,1.846,1.89v27.827a1.353,1.353,0,0,1-.47,1.026,54.847,54.847,0,0,1,9.3-.5,1.356,1.356,0,0,0,1.4-1.356V277.171a1.89,1.89,0,0,0-1.846-1.89Z" transform="translate(-332.382 -275.268)" fill="#e8ae4d"/>
            </g>
            <path id="Trazado_705401" data-name="Trazado 705401" d="M239.754,301.693q-.339-.215-.688-.417v31.061l.027.015a5.205,5.205,0,0,0,5.238,0l.027-.015v-31.06q-.349.2-.688.417A3.643,3.643,0,0,1,239.754,301.693Z" transform="translate(-217.199 -297.209)" fill="#e49542"/>
          </g>
          <path id="Trazado_705402" data-name="Trazado 705402" d="M77.016,347.819l2.036-1.248v1.988a1.48,1.48,0,0,0,1.48,1.48H81.5a2.674,2.674,0,0,1,2.674,2.674V356.2a1.671,1.671,0,0,1-1.671,1.671H79.161a3.849,3.849,0,0,1-3.849-3.849v-3.158A3.568,3.568,0,0,1,77.016,347.819Z" transform="translate(-75.312 -293.547)" fill="#ffece4"/>
          <path id="Trazado_705403" data-name="Trazado 705403" d="M387.158,347.819l-2.036-1.248v1.988a1.48,1.48,0,0,1-1.48,1.48h-.972A2.674,2.674,0,0,0,380,352.714V356.2a1.671,1.671,0,0,0,1.671,1.671h3.346a3.849,3.849,0,0,0,3.849-3.849v-3.158A3.568,3.568,0,0,0,387.158,347.819Z" transform="translate(-332.35 -293.547)" fill="#ffddce"/>
        </g>
      </g>
      <g id="Grupo_1000008" data-name="Grupo 1000008" transform="translate(67.813 0)">
        <path id="Trazado_705404" data-name="Trazado 705404" d="M297.5,328.491a1.173,1.173,0,1,0,.736,2.227,43.771,43.771,0,0,1,11.51-1.914,1.173,1.173,0,1,0-.1-2.344A46.127,46.127,0,0,0,297.5,328.491Z" transform="translate(-260.906 -275.408)"/>
        <path id="Trazado_705405" data-name="Trazado 705405" d="M122.926,53.537V52.061a1.173,1.173,0,1,0-2.346,0v4.168a.306.306,0,0,1-.3.263h-.972a3.852,3.852,0,0,0-3.847,3.847v3.484a2.847,2.847,0,0,0,2.844,2.844h2.278v6.111a.182.182,0,0,1-.188.184c-3.63-.119-12.35,0-19.334,3.282V47.81c6.474-3.464,15.266-3.66,18.822-3.577a.734.734,0,0,1,.13.016l.015,0a.712.712,0,0,1,.555.7v1.614a1.173,1.173,0,1,0,2.346,0V44.95a3.045,3.045,0,0,0-1.533-2.66V40.819a2.927,2.927,0,0,0-2.876-2.944c-1.007-.023-2.4-.023-4.028.064a17.715,17.715,0,0,0-6.741-2.818,11.173,11.173,0,0,1-2.445-.568h0a3.177,3.177,0,0,1-1.889-2.9v-.033a12.773,12.773,0,0,0,1.976-1.431,10.685,10.685,0,0,0,3.5-6.811,3.028,3.028,0,0,0,2.6-3.014l-.009-3.962a3.036,3.036,0,0,0-.161-.958,2.988,2.988,0,0,0,.162-.968V7.486a3.632,3.632,0,0,0-3.557-3.615.273.273,0,0,1-.27-.27A3.674,3.674,0,0,0,103.988,0H92.961a9.215,9.215,0,0,0-8.984,7.286,1.173,1.173,0,0,0,2.3.482,6.859,6.859,0,0,1,6.688-5.422h11.027A1.319,1.319,0,0,1,105.3,3.638a2.609,2.609,0,0,0,2.577,2.579,1.276,1.276,0,0,1,1.249,1.269V14.47a.654.654,0,0,1-.438.617,1.2,1.2,0,0,1-1.468-.6,2.445,2.445,0,0,0-2.78-1.284c-4.56,1.1-7.931-1.74-9.534-3.533a3.757,3.757,0,0,0-4.07-1.035,3.612,3.612,0,0,0-2.447,3.275c-.01.195,0-.036,0,3.809l-1.822-.634a.654.654,0,0,1-.438-.617V13a1.173,1.173,0,0,0-2.346,0V14.47a2.993,2.993,0,0,0,.035.453A3.8,3.8,0,0,0,83,17.284l0,2.395a3.819,3.819,0,0,0,3.4,3.789,10.683,10.683,0,0,0,3.552,6.781,13.174,13.174,0,0,0,1.111.859v.54a3.157,3.157,0,0,1-1.51,2.7h0c-.586.362-.923.4-2.827.77a17.716,17.716,0,0,0-6.742,2.819c-1.627-.087-3.021-.088-4.028-.064a2.927,2.927,0,0,0-2.876,2.944V42.29a3.045,3.045,0,0,0-1.533,2.66v8.589c-.536.474-3.74,1.5-3.74,4.947v3.158a5.03,5.03,0,0,0,3.74,4.855v6.277a2.528,2.528,0,0,0,2.61,2.529c11.23-.366,17.617,2.594,19.843,3.883h0l0,0,.029.016a6.4,6.4,0,0,0,6.406,0l.031-.018h0c2.227-1.29,8.617-4.247,19.841-3.882a2.527,2.527,0,0,0,2.61-2.529V66.5a5.03,5.03,0,0,0,3.744-4.857V58.486c0-3.439-3.223-4.489-3.744-4.949ZM88.667,22.287a1.173,1.173,0,0,0-1.173-1.143h-.679a1.47,1.47,0,0,1-1.468-1.467c0-2.53-.011-2.4.009-2.569a3,3,0,0,0,.439.194l1.972.687a2.233,2.233,0,0,0,2.967-2.111c0-4.343-.006-3.765,0-3.851a1.3,1.3,0,0,1,.887-1.178,1.4,1.4,0,0,1,1.538.388c1.953,2.183,6.087,5.638,11.834,4.249a.111.111,0,0,1,.13.051,3.554,3.554,0,0,0,4.006,1.863l.006,2.966a.676.676,0,0,1-.661.689l-.695,0a1.173,1.173,0,0,0-1.168,1.153,8.433,8.433,0,0,1-2.773,6.211,9.139,9.139,0,0,1-12.346.053,8.43,8.43,0,0,1-2.825-6.187Zm12.489,10.343a5.524,5.524,0,0,0,1.645,3.032,9.51,9.51,0,0,1-10.793-.334,5.465,5.465,0,0,0,1.362-2.971A11.226,11.226,0,0,0,101.156,32.631ZM87.175,37.424A13.537,13.537,0,0,0,90,36.751a11.9,11.9,0,0,0,15.045.2c.352.1,1.905.4,2.256.472a15.546,15.546,0,0,1,3.026.907c-4.086.562-8.7,1.753-12.332,4.21a1.347,1.347,0,0,1-1.518,0c-3.63-2.457-8.247-3.648-12.333-4.209A15.536,15.536,0,0,1,87.175,37.424Zm-11.159,2.8c1.039-.024,2.514-.022,4.231.081l.027,0c4.449.269,10.519,1.222,14.892,4.182a3.682,3.682,0,0,0,4.147,0c6.072-4.109,15.414-4.351,19.15-4.264a.6.6,0,0,1,.585.6v1.056c-6.674-.041-14.848,1.086-20.479,4.665a2.456,2.456,0,0,1-2.658,0c-5.619-3.573-13.79-4.705-20.479-4.665V40.819a.6.6,0,0,1,.585-.6ZM70.159,61.644V58.486a2.556,2.556,0,0,1,1.4-2.2,2.656,2.656,0,0,0,2.651,2.548h.972a1.5,1.5,0,0,1,1.5,1.5v3.484a.5.5,0,0,1-.5.5H72.835a2.679,2.679,0,0,1-2.676-2.676Zm3.928,11.317a.183.183,0,0,1-.188-.184V66.666H76.18a2.847,2.847,0,0,0,2.844-2.844V60.339a3.852,3.852,0,0,0-3.847-3.847h-.972a.307.307,0,0,1-.306-.3V44.95a.712.712,0,0,1,.555-.7l.017,0a.735.735,0,0,1,.128-.016c3.555-.083,12.348.113,18.822,3.577V76.244C86.436,72.966,77.717,72.844,74.087,72.961Zm24.626,4.482a4.053,4.053,0,0,1-2.947,0V49.04a4.863,4.863,0,0,0,2.947,0Zm25.611-15.8a2.679,2.679,0,0,1-2.676,2.676H118.3a.5.5,0,0,1-.5-.5V60.339a1.5,1.5,0,0,1,1.5-1.5h.972a2.66,2.66,0,0,0,2.651-2.548l.252.155a2.41,2.41,0,0,1,1.144,2.042v3.158Z" transform="translate(-67.813 0)"/>
      </g>
    </g>
  </g>
</svg>
