<svg xmlns="http://www.w3.org/2000/svg" xmlns:xlink="http://www.w3.org/1999/xlink" width="400" height="251" viewBox="0 0 400 251">
  <defs>
    <clipPath id="clip-path">
      <rect id="Rectángulo_345435" data-name="Rectángulo 345435" width="400" height="251" transform="translate(1020 5724)" fill="#fff" stroke="#707070" stroke-width="1" opacity="0.48"/>
    </clipPath>
    <clipPath id="clip-path-2">
      <rect id="Rectángulo_345366" data-name="Rectángulo 345366" width="226.071" height="177.311" fill="none" stroke="#707070" stroke-width="1"/>
    </clipPath>
    <clipPath id="clip-path-3">
      <rect id="Rectángulo_345369" data-name="Rectángulo 345369" width="226.071" height="155.046" transform="translate(0 0)" fill="none"/>
    </clipPath>
    <clipPath id="clip-path-4">
      <rect id="Rectángulo_345370" data-name="Rectángulo 345370" width="195.094" height="159.581" fill="none"/>
    </clipPath>
    <clipPath id="clip-path-5">
      <rect id="Rectángulo_345431" data-name="Rectángulo 345431" width="418" height="260.446" fill="#f9dce1" stroke="#707070" stroke-width="1" opacity="0.5"/>
    </clipPath>
    <clipPath id="clip-path-6">
      <rect id="Rectángulo_345430" data-name="Rectángulo 345430" width="404.352" height="336.79" fill="none"/>
    </clipPath>
    <clipPath id="clip-path-7">
      <rect id="Rectángulo_345372" data-name="Rectángulo 345372" width="312.67" height="260.427" fill="none"/>
    </clipPath>
    <clipPath id="clip-path-8">
      <rect id="Rectángulo_345371" data-name="Rectángulo 345371" width="300.852" height="260.427" fill="none"/>
    </clipPath>
    <filter id="Rectángulo_345373" x="0.887" y="-5.383" width="308.202" height="206.525" filterUnits="userSpaceOnUse">
      <feOffset dy="3" input="SourceAlpha"/>
      <feGaussianBlur stdDeviation="3" result="blur"/>
      <feFlood flood-opacity="0.161"/>
      <feComposite operator="in" in2="blur"/>
      <feComposite in="SourceGraphic"/>
    </filter>
    <clipPath id="clip-path-11">
      <path id="Trazado_704948" data-name="Trazado 704948" d="M260.825,185.428s-3.517,7.575-3.789,9.2,1.353,3.787,1.353,4.6-2.164,3.245-2.164,7.033-.27,12.445,2.976,14.609,8.656-.271,8.656-.271L273,230.6l20.559-11.9-2.976-4.6s4.329-11.632,1.082-20.559-14.878-10.28-19.476-10.549c-1.534-.091-3.128-.211-4.631-.211-3.006,0-5.649.481-6.731,2.645" transform="translate(-256.22 -182.783)" fill="#bfe5f9"/>
    </clipPath>
    <clipPath id="clip-path-12">
      <rect id="Rectángulo_345398" data-name="Rectángulo 345398" width="33.039" height="40.022" fill="#bfe5f9"/>
    </clipPath>
    <clipPath id="clip-path-14">
      <path id="Trazado_704959" data-name="Trazado 704959" d="M269.857,231.844s-5.951,8.115-8.115,12.173-11.362,27.863-15.419,36.249a80.276,80.276,0,0,0-5.613,15.063h56.739s6.492-32.376,6.492-46.442-3.246-24.616-4.328-27.321-5.14-4.869-5.14-4.869Z" transform="translate(-240.71 -216.696)" fill="none"/>
    </clipPath>
    <clipPath id="clip-path-17">
      <path id="Trazado_704965" data-name="Trazado 704965" d="M306.362,201.445c-5.231,4.483-2.241,31.763-3.737,38.863s-5.231,14.574-3.737,22.048,4.858,12.7,6.353,16.442-.374,17.563-.374,17.563h54.558s9.715-25.785,9.715-45.215-5.978-36.248-14.948-42.6-23.915-7.847-23.915-7.847a83.393,83.393,0,0,0-14.049-1.459c-4.051,0-7.9.525-9.867,2.207" transform="translate(-298.542 -199.238)" fill="#0098e8"/>
    </clipPath>
    <clipPath id="clip-path-18">
      <rect id="Rectángulo_345402" data-name="Rectángulo 345402" width="64.274" height="87.653" fill="#0098e8"/>
    </clipPath>
    <clipPath id="clip-path-20">
      <path id="Trazado_704981" data-name="Trazado 704981" d="M306.4,217.618l1.868,58.294s-53.436,10.464-56.426,10.837-19.058-3.737-21.3-3.737-12.33,10.838-14.2,11.211,1.12,1.5,3.737,1.5,5.6-3.738,6.725-4.112,3.363,0,5.979,1.869,9.716,2.615,13.826,2.615a70,70,0,0,0,8.969-.747s52.316,1.494,60.911,1.121,13.827-.374,15.321-4.858,1.121-60.936,1.121-60.936l-19.058-26.88c-9.341,3.737-7.473,13.827-7.473,13.827" transform="translate(-215.758 -203.791)" fill="#fff"/>
    </clipPath>
    <clipPath id="clip-path-21">
      <rect id="Rectángulo_345404" data-name="Rectángulo 345404" width="71.436" height="87.093" fill="#fff"/>
    </clipPath>
    <clipPath id="clip-path-23">
      <rect id="Rectángulo_345406" data-name="Rectángulo 345406" width="174.347" height="187.178" fill="none"/>
    </clipPath>
    <clipPath id="clip-path-24">
      <path id="Trazado_704994" data-name="Trazado 704994" d="M152.385,205.223c-5.477,4.174-12.258,24.256-14.867,27.647a59.961,59.961,0,0,0-5.219,8.913s-4.953,7.519-2.866,11.171,9.65,11.216,25.3,10.172,6.259-27.386,8.084-43.556c1.321-11.692-1.858-16.157-5.79-16.157a7.886,7.886,0,0,0-4.641,1.811" transform="translate(-128.92 -203.412)" fill="none"/>
    </clipPath>
    <clipPath id="clip-path-25">
      <rect id="Rectángulo_345407" data-name="Rectángulo 345407" width="36.109" height="60.87" fill="none"/>
    </clipPath>
    <clipPath id="clip-path-27">
      <path id="Trazado_705006" data-name="Trazado 705006" d="M161.055,170.98c-3.651.521-7.824-.522-8.085,1.564s-2.608,35.471-2.608,35.471-.262,29.995,0,34.689-2.086,6.261,1.825,7.042,35.733,1.564,38.863,1.043,3.13-2.087,3.912-3.652,11.215-68.595,8.868-70.421-17.214-7.3-18.518-7.3-20.605,1.043-24.257,1.565" transform="translate(-149.899 -169.415)" fill="none"/>
    </clipPath>
    <clipPath id="clip-path-29">
      <path id="Trazado_705016" data-name="Trazado 705016" d="M156.874,168.651c-3.178.706-10.591,18.712-11.652,21.183s-12.71,13.769-12.71,13.769L98.974,190.541l-3.531,9.885s27.185,17.653,31.775,19.771,10.944,1.765,13.061,1.765a7.927,7.927,0,0,0,4.238-1.765L134.278,243.85s16.592-19.771,21.536-29.3,16.24-37.422,17.3-38.129,2.579-7.129,2.579-7.129-9.81-.843-15.47-.843a18.4,18.4,0,0,0-3.349.205" transform="translate(-95.443 -168.446)" fill="none"/>
    </clipPath>
    <clipPath id="clip-path-30">
      <rect id="Rectángulo_345410" data-name="Rectángulo 345410" width="53.415" height="22.488" fill="none"/>
    </clipPath>
    <clipPath id="clip-path-32">
      <path id="Trazado_705023" data-name="Trazado 705023" d="M160.567,130.676c1.807,2.407,3.312,1.2,3.312,1.2s-4.686,7.195-4.385,8.7,1.073,3.042,1.073,4.245-5.288,5.42-4.686,6.322,3.613,2.41,3.613,2.41-.13,11.742,2.579,13.247,7.827-.9,7.827-.9l2.71,15.052,15.353-10.838V159.276S197,149.04,197.6,140.911s-10.537-17.161-21.676-18.666a21.5,21.5,0,0,0-2.87-.2c-9.286,0-14.129,6.434-12.485,8.628" transform="translate(-155.834 -122.048)" fill="#bfe5f9"/>
    </clipPath>
    <clipPath id="clip-path-33">
      <rect id="Rectángulo_345412" data-name="Rectángulo 345412" width="33.183" height="47.988" fill="#bfe5f9"/>
    </clipPath>
    <clipPath id="clip-path-35">
      <path id="Trazado_705029" data-name="Trazado 705029" d="M179.094,196.786c-4.173,15.128-3.39,62.075-3.39,64.682s6,12,12.779,14.606a55.058,55.058,0,0,0,13.824,3.131s-4.7-31.038-4.7-39.906,4.173-22.691,4.173-22.691,6.259,15.649,8.868,17.735,13.04,4.435,12.781-5.216-9.13-44.079-11.477-47.469-13.563-6.782-13.563-6.782l-11.735-5.215s-3.392,12-7.564,27.124" transform="translate(-175.646 -169.662)" fill="none"/>
    </clipPath>
    <clipPath id="clip-path-36">
      <rect id="Rectángulo_345414" data-name="Rectángulo 345414" width="36.503" height="74.786" fill="none"/>
    </clipPath>
    <clipPath id="clip-path-38">
      <path id="Trazado_705036" data-name="Trazado 705036" d="M170.632,231.212c-1.565,0-2.347,1.043-1.3,1.826a5.672,5.672,0,0,0,2.869.783s-3.651,2.086-3.39,3.13,2.348,1.826,2.348,1.826,1.825,2.869,4.434,3.651,11.736-2.347,11.736-2.347l7.042-.521-2.869-8.086s-9.91-4.434-10.693-4.434-8.608,4.173-10.172,4.173" transform="translate(-168.792 -227.039)" fill="#bfe5f9"/>
    </clipPath>
    <clipPath id="clip-path-39">
      <rect id="Rectángulo_345416" data-name="Rectángulo 345416" width="23.213" height="11.332" fill="#bfe5f9"/>
    </clipPath>
    <clipPath id="clip-path-41">
      <path id="Trazado_705040" data-name="Trazado 705040" d="M214.008,220.768l-24.518,9.91,1.827,10.432s32.863-4.694,34.427-7.042-4.434-15.649-4.434-15.649Z" transform="translate(-189.49 -218.42)" fill="none"/>
    </clipPath>
    <clipPath id="clip-path-42">
      <rect id="Rectángulo_345418" data-name="Rectángulo 345418" width="35.25" height="22.691" fill="none"/>
    </clipPath>
  </defs>
  <g id="Enmascarar_grupo_927359" data-name="Enmascarar grupo 927359" transform="translate(-1020 -5724)" clip-path="url(#clip-path)">
    <g id="Grupo_999924" data-name="Grupo 999924" transform="translate(1430 5723.613) rotate(90)">
      <g id="Grupo_999773" data-name="Grupo 999773" transform="translate(0.317 10.524)">
        <g id="Grupo_999772" data-name="Grupo 999772" transform="translate(0 0)" clip-path="url(#clip-path-3)">
          <path id="Trazado_704853" data-name="Trazado 704853" d="M135.794,216.915a67.9,67.9,0,1,1-67.9-67.9,67.9,67.9,0,0,1,67.9,67.9" transform="translate(0 -129.766)" fill="#4db1f0"/>
          <path id="Sustracción_37" data-name="Sustracción 37" d="M49.2,98.4a49.6,49.6,0,0,1-9.915-1,48.934,48.934,0,0,1-17.592-7.4A49.333,49.333,0,0,1,3.866,68.349,48.9,48.9,0,0,1,1,59.114,49.681,49.681,0,0,1,1,39.283,48.937,48.937,0,0,1,8.4,21.691,49.334,49.334,0,0,1,30.048,3.866,48.947,48.947,0,0,1,39.283,1a49.68,49.68,0,0,1,19.83,0A48.936,48.936,0,0,1,76.706,8.4,49.339,49.339,0,0,1,94.53,30.048,48.925,48.925,0,0,1,97.4,39.283a49.681,49.681,0,0,1,0,19.831,48.948,48.948,0,0,1-7.4,17.592A49.347,49.347,0,0,1,68.348,94.531,48.967,48.967,0,0,1,59.113,97.4,49.6,49.6,0,0,1,49.2,98.4Zm0-88.7A39.5,39.5,0,1,0,88.7,49.2,39.542,39.542,0,0,0,49.2,9.7Z" transform="translate(117.017 56.648)" fill="#ffa031" stroke="rgba(0,0,0,0)" stroke-miterlimit="10" stroke-width="1"/>
          <path id="Trazado_704856" data-name="Trazado 704856" d="M599.281,657.472a24.008,24.008,0,1,1-24.008-24.008,24.008,24.008,0,0,1,24.008,24.008" transform="translate(-480.045 -551.625)" fill="#fff"/>
          <path id="Trazado_704857" data-name="Trazado 704857" d="M1469.959,263.159a1.517,1.517,0,1,1-1.517-1.517,1.517,1.517,0,0,1,1.517,1.517" transform="translate(-1277.407 -227.84)" fill="#f9e8dc"/>
          <path id="Trazado_704858" data-name="Trazado 704858" d="M1521.634,263.159a1.517,1.517,0,1,1-1.517-1.517,1.517,1.517,0,0,1,1.517,1.517" transform="translate(-1322.406 -227.84)" fill="#f9e8dc"/>
          <path id="Trazado_704859" data-name="Trazado 704859" d="M1573.309,263.159a1.517,1.517,0,1,1-1.517-1.517,1.517,1.517,0,0,1,1.517,1.517" transform="translate(-1367.405 -227.84)" fill="#f9e8dc"/>
          <path id="Trazado_704860" data-name="Trazado 704860" d="M1624.984,263.159a1.517,1.517,0,1,1-1.518-1.517,1.517,1.517,0,0,1,1.518,1.517" transform="translate(-1412.404 -227.84)" fill="#f9e8dc"/>
          <path id="Trazado_704861" data-name="Trazado 704861" d="M1676.658,263.159a1.517,1.517,0,1,1-1.517-1.517,1.517,1.517,0,0,1,1.517,1.517" transform="translate(-1457.403 -227.84)" fill="#f9e8dc"/>
          <path id="Trazado_704862" data-name="Trazado 704862" d="M1469.959,312.485a1.517,1.517,0,1,1-1.517-1.517,1.517,1.517,0,0,1,1.517,1.517" transform="translate(-1277.407 -270.793)" fill="#f9e8dc"/>
          <path id="Trazado_704863" data-name="Trazado 704863" d="M1521.634,312.485a1.517,1.517,0,1,1-1.517-1.517,1.517,1.517,0,0,1,1.517,1.517" transform="translate(-1322.406 -270.793)" fill="#f9e8dc"/>
          <path id="Trazado_704864" data-name="Trazado 704864" d="M1573.309,312.485a1.517,1.517,0,1,1-1.517-1.517,1.517,1.517,0,0,1,1.517,1.517" transform="translate(-1367.405 -270.793)" fill="#f9e8dc"/>
          <path id="Trazado_704865" data-name="Trazado 704865" d="M1624.984,312.485a1.517,1.517,0,1,1-1.518-1.517,1.517,1.517,0,0,1,1.518,1.517" transform="translate(-1412.404 -270.793)" fill="#f9e8dc"/>
          <path id="Trazado_704866" data-name="Trazado 704866" d="M1676.658,312.485a1.517,1.517,0,1,1-1.517-1.517,1.517,1.517,0,0,1,1.517,1.517" transform="translate(-1457.403 -270.793)" fill="#f9e8dc"/>
          <path id="Trazado_704867" data-name="Trazado 704867" d="M1469.959,361.811a1.517,1.517,0,1,1-1.517-1.517,1.517,1.517,0,0,1,1.517,1.517" transform="translate(-1277.407 -313.747)" fill="#f9e8dc"/>
          <path id="Trazado_704868" data-name="Trazado 704868" d="M1521.634,361.811a1.517,1.517,0,1,1-1.517-1.517,1.517,1.517,0,0,1,1.517,1.517" transform="translate(-1322.406 -313.747)" fill="#f9e8dc"/>
          <path id="Trazado_704869" data-name="Trazado 704869" d="M1573.309,361.811a1.517,1.517,0,1,1-1.517-1.517,1.517,1.517,0,0,1,1.517,1.517" transform="translate(-1367.405 -313.747)" fill="#f9e8dc"/>
          <path id="Trazado_704870" data-name="Trazado 704870" d="M1624.984,361.811a1.517,1.517,0,1,1-1.518-1.517,1.517,1.517,0,0,1,1.518,1.517" transform="translate(-1412.404 -313.747)" fill="#f9e8dc"/>
          <path id="Trazado_704871" data-name="Trazado 704871" d="M1676.658,361.811a1.517,1.517,0,1,1-1.517-1.517,1.517,1.517,0,0,1,1.517,1.517" transform="translate(-1457.403 -313.747)" fill="#f9e8dc"/>
          <path id="Trazado_704872" data-name="Trazado 704872" d="M1469.959,411.138a1.517,1.517,0,1,1-1.517-1.517,1.517,1.517,0,0,1,1.517,1.517" transform="translate(-1277.407 -356.701)" fill="#f9e8dc"/>
          <path id="Trazado_704873" data-name="Trazado 704873" d="M1521.634,411.138a1.517,1.517,0,1,1-1.517-1.517,1.517,1.517,0,0,1,1.517,1.517" transform="translate(-1322.406 -356.701)" fill="#f9e8dc"/>
          <path id="Trazado_704874" data-name="Trazado 704874" d="M1573.309,411.138a1.517,1.517,0,1,1-1.517-1.517,1.517,1.517,0,0,1,1.517,1.517" transform="translate(-1367.405 -356.701)" fill="#f9e8dc"/>
          <path id="Trazado_704875" data-name="Trazado 704875" d="M1624.984,411.138a1.517,1.517,0,1,1-1.518-1.517,1.517,1.517,0,0,1,1.518,1.517" transform="translate(-1412.404 -356.701)" fill="#f9e8dc"/>
          <path id="Trazado_704876" data-name="Trazado 704876" d="M1676.658,411.138a1.517,1.517,0,1,1-1.517-1.517,1.517,1.517,0,0,1,1.517,1.517" transform="translate(-1457.403 -356.701)" fill="#f9e8dc"/>
          <path id="Trazado_704877" data-name="Trazado 704877" d="M1469.959,460.464a1.517,1.517,0,1,1-1.517-1.517,1.517,1.517,0,0,1,1.517,1.517" transform="translate(-1277.407 -399.654)" fill="#f9e8dc"/>
          <path id="Trazado_704878" data-name="Trazado 704878" d="M1521.634,460.464a1.517,1.517,0,1,1-1.517-1.517,1.517,1.517,0,0,1,1.517,1.517" transform="translate(-1322.406 -399.654)" fill="#f9e8dc"/>
          <path id="Trazado_704879" data-name="Trazado 704879" d="M1573.309,460.464a1.517,1.517,0,1,1-1.517-1.517,1.517,1.517,0,0,1,1.517,1.517" transform="translate(-1367.405 -399.654)" fill="#f9e8dc"/>
          <path id="Trazado_704880" data-name="Trazado 704880" d="M1624.984,460.464a1.517,1.517,0,1,1-1.518-1.517,1.517,1.517,0,0,1,1.518,1.517" transform="translate(-1412.404 -399.654)" fill="#f9e8dc"/>
          <path id="Trazado_704881" data-name="Trazado 704881" d="M1676.658,460.464a1.517,1.517,0,1,1-1.517-1.517,1.517,1.517,0,0,1,1.517,1.517" transform="translate(-1457.403 -399.654)" fill="#f9e8dc"/>
          <path id="Trazado_704882" data-name="Trazado 704882" d="M126.511,379.645a1.517,1.517,0,1,1-1.517-1.517,1.517,1.517,0,0,1,1.517,1.517" transform="translate(-107.524 -329.277)" fill="#fff"/>
          <path id="Trazado_704883" data-name="Trazado 704883" d="M178.186,379.645a1.517,1.517,0,1,1-1.517-1.517,1.517,1.517,0,0,1,1.517,1.517" transform="translate(-152.523 -329.277)" fill="#fff"/>
          <path id="Trazado_704884" data-name="Trazado 704884" d="M229.861,379.645a1.517,1.517,0,1,1-1.517-1.517,1.517,1.517,0,0,1,1.517,1.517" transform="translate(-197.522 -329.277)" fill="#fff"/>
          <path id="Trazado_704885" data-name="Trazado 704885" d="M281.536,379.645a1.517,1.517,0,1,1-1.517-1.517,1.517,1.517,0,0,1,1.517,1.517" transform="translate(-242.521 -329.277)" fill="#fff"/>
          <path id="Trazado_704886" data-name="Trazado 704886" d="M333.211,379.645a1.517,1.517,0,1,1-1.517-1.517,1.517,1.517,0,0,1,1.517,1.517" transform="translate(-287.52 -329.277)" fill="#fff"/>
          <path id="Trazado_704887" data-name="Trazado 704887" d="M126.511,428.971a1.517,1.517,0,1,1-1.517-1.517,1.517,1.517,0,0,1,1.517,1.517" transform="translate(-107.524 -372.23)" fill="#fff"/>
          <path id="Trazado_704888" data-name="Trazado 704888" d="M178.186,428.971a1.517,1.517,0,1,1-1.517-1.517,1.517,1.517,0,0,1,1.517,1.517" transform="translate(-152.523 -372.23)" fill="#fff"/>
          <path id="Trazado_704889" data-name="Trazado 704889" d="M229.861,428.971a1.517,1.517,0,1,1-1.517-1.517,1.517,1.517,0,0,1,1.517,1.517" transform="translate(-197.522 -372.23)" fill="#fff"/>
          <path id="Trazado_704890" data-name="Trazado 704890" d="M281.536,428.971a1.517,1.517,0,1,1-1.517-1.517,1.517,1.517,0,0,1,1.517,1.517" transform="translate(-242.521 -372.23)" fill="#fff"/>
          <path id="Trazado_704891" data-name="Trazado 704891" d="M333.211,428.971a1.517,1.517,0,1,1-1.517-1.517,1.517,1.517,0,0,1,1.517,1.517" transform="translate(-287.52 -372.23)" fill="#fff"/>
          <path id="Trazado_704892" data-name="Trazado 704892" d="M126.511,478.3a1.517,1.517,0,1,1-1.517-1.517,1.517,1.517,0,0,1,1.517,1.517" transform="translate(-107.524 -415.184)" fill="#fff"/>
          <path id="Trazado_704893" data-name="Trazado 704893" d="M178.186,478.3a1.517,1.517,0,1,1-1.517-1.517,1.517,1.517,0,0,1,1.517,1.517" transform="translate(-152.523 -415.184)" fill="#fff"/>
          <path id="Trazado_704894" data-name="Trazado 704894" d="M229.861,478.3a1.517,1.517,0,1,1-1.517-1.517,1.517,1.517,0,0,1,1.517,1.517" transform="translate(-197.522 -415.184)" fill="#fff"/>
          <path id="Trazado_704895" data-name="Trazado 704895" d="M281.536,478.3a1.517,1.517,0,1,1-1.517-1.517,1.517,1.517,0,0,1,1.517,1.517" transform="translate(-242.521 -415.184)" fill="#fff"/>
          <path id="Trazado_704896" data-name="Trazado 704896" d="M333.211,478.3a1.517,1.517,0,1,1-1.517-1.517,1.517,1.517,0,0,1,1.517,1.517" transform="translate(-287.52 -415.184)" fill="#fff"/>
          <path id="Trazado_704897" data-name="Trazado 704897" d="M126.511,527.624a1.517,1.517,0,1,1-1.517-1.517,1.517,1.517,0,0,1,1.517,1.517" transform="translate(-107.524 -458.138)" fill="#fff"/>
          <path id="Trazado_704898" data-name="Trazado 704898" d="M178.186,527.624a1.517,1.517,0,1,1-1.517-1.517,1.517,1.517,0,0,1,1.517,1.517" transform="translate(-152.523 -458.138)" fill="#fff"/>
          <path id="Trazado_704899" data-name="Trazado 704899" d="M229.861,527.624a1.517,1.517,0,1,1-1.517-1.517,1.517,1.517,0,0,1,1.517,1.517" transform="translate(-197.522 -458.138)" fill="#fff"/>
          <path id="Trazado_704900" data-name="Trazado 704900" d="M281.536,527.624a1.517,1.517,0,1,1-1.517-1.517,1.517,1.517,0,0,1,1.517,1.517" transform="translate(-242.521 -458.138)" fill="#fff"/>
          <path id="Trazado_704901" data-name="Trazado 704901" d="M333.211,527.624a1.517,1.517,0,1,1-1.517-1.517,1.517,1.517,0,0,1,1.517,1.517" transform="translate(-287.52 -458.138)" fill="#fff"/>
          <path id="Trazado_704902" data-name="Trazado 704902" d="M126.511,576.95a1.517,1.517,0,1,1-1.517-1.517,1.517,1.517,0,0,1,1.517,1.517" transform="translate(-107.524 -501.091)" fill="#fff"/>
          <path id="Trazado_704903" data-name="Trazado 704903" d="M178.186,576.95a1.517,1.517,0,1,1-1.517-1.517,1.517,1.517,0,0,1,1.517,1.517" transform="translate(-152.523 -501.091)" fill="#fff"/>
          <path id="Trazado_704904" data-name="Trazado 704904" d="M229.861,576.95a1.517,1.517,0,1,1-1.517-1.517,1.517,1.517,0,0,1,1.517,1.517" transform="translate(-197.522 -501.091)" fill="#fff"/>
          <path id="Trazado_704905" data-name="Trazado 704905" d="M281.536,576.95a1.517,1.517,0,1,1-1.517-1.517,1.517,1.517,0,0,1,1.517,1.517" transform="translate(-242.521 -501.091)" fill="#fff"/>
          <path id="Trazado_704906" data-name="Trazado 704906" d="M333.211,576.95a1.517,1.517,0,1,1-1.517-1.517,1.517,1.517,0,0,1,1.517,1.517" transform="translate(-287.52 -501.091)" fill="#fff"/>
          <rect id="Rectángulo_345367" data-name="Rectángulo 345367" width="26.654" height="6.235" transform="translate(111.783 24.941)" fill="#f9e8dc"/>
          <rect id="Rectángulo_345368" data-name="Rectángulo 345368" width="26.93" height="11.454" transform="translate(12.507 8.468)" fill="#f9e8dc"/>
          <path id="Trazado_704907" data-name="Trazado 704907" d="M175.561,0h17.705a3.047,3.047,0,0,1,3.047,3.047V9.122a3.047,3.047,0,0,1-3.047,3.047H175.561a3.047,3.047,0,0,1-3.047-3.047V3.049A3.047,3.047,0,0,1,175.561,0" transform="translate(-150.226 -0.002)" fill="#eb9ba8"/>
          <path id="Trazado_704908" data-name="Trazado 704908" d="M208.633,37.115a1.48,1.48,0,1,1-1.48-1.48,1.48,1.48,0,0,1,1.48,1.48" transform="translate(-179.101 -31.031)" fill="#fff"/>
          <path id="Trazado_704909" data-name="Trazado 704909" d="M256.125,37.115a1.48,1.48,0,1,1-1.48-1.48,1.48,1.48,0,0,1,1.48,1.48" transform="translate(-220.458 -31.031)" fill="#fff"/>
          <path id="Trazado_704910" data-name="Trazado 704910" d="M303.617,37.115a1.48,1.48,0,1,1-1.48-1.48,1.48,1.48,0,0,1,1.48,1.48" transform="translate(-261.814 -31.031)" fill="#fff"/>
        </g>
      </g>
      <g id="Grupo_999775" data-name="Grupo 999775" transform="translate(24.026 23.989)" opacity="0.251">
        <g id="Grupo_999774" data-name="Grupo 999774" transform="translate(0 0)" clip-path="url(#clip-path-4)">
          <path id="Trazado_704911" data-name="Trazado 704911" d="M124.663,157.068c-1.843-.14-3.723-.22-5.649-.206-10.189.076-20.154,2.817-30.406,2.711-21.722-.224-44.077-2.476-62.851-16.388C-15.835,112.363-2.2,46.338,32.278,19.232,50.6,4.829,73.418.425,95.282.018c28.145-.524,64.244,8.378,84.409,32.07,14.049,16.508,17.542,54.967,14.258,76.759-2.614,17.346-12.425,33.7-24.819,43.226-15.457,11.874-28.562,6.2-44.467,4.995" transform="translate(0 0.004)" fill="#f1c6bd"/>
        </g>
      </g>
    </g>
    <g id="Enmascarar_grupo_927356" data-name="Enmascarar grupo 927356" transform="translate(1010 5715)" clip-path="url(#clip-path-5)">
      <g id="Grupo_999918" data-name="Grupo 999918" transform="translate(0 -50.372)">
        <g id="Grupo_999917" data-name="Grupo 999917" clip-path="url(#clip-path-6)">
          <g id="Grupo_999823" data-name="Grupo 999823" transform="translate(83.92 76.363)">
            <g id="Grupo_999822" data-name="Grupo 999822" clip-path="url(#clip-path-7)">
              <path id="Trazado_704914" data-name="Trazado 704914" d="M262.4,36.189S227.5-2.771,173.454.157,74.014,42.27,36.433,73s-46.954,77.55-24.072,113.541,57.892,20,103.308,42.791,54.205,36.044,104.194,29.358,87.032-66.16,80.167-128.647S262.4,36.189,262.4,36.189" transform="translate(0 0)" fill="#0098e8"/>
              <g id="Grupo_999821" data-name="Grupo 999821" transform="translate(0)" opacity="0.7">
                <g id="Grupo_999820" data-name="Grupo 999820">
                  <g id="Grupo_999819" data-name="Grupo 999819" clip-path="url(#clip-path-8)">
                    <path id="Trazado_704915" data-name="Trazado 704915" d="M262.4,36.189S227.5-2.771,173.454.157,74.014,42.27,36.433,73s-46.954,77.55-24.072,113.541,57.892,20,103.308,42.791,54.205,36.044,104.194,29.358,87.032-66.16,80.167-128.647S262.4,36.189,262.4,36.189" transform="translate(0 0)" fill="#fff"/>
                  </g>
                </g>
              </g>
            </g>
          </g>
          <g transform="matrix(1, 0, 0, 1, 10, 59.37)" filter="url(#Rectángulo_345373)">
            <rect id="Rectángulo_345373-2" data-name="Rectángulo 345373" width="290.202" height="188.525" transform="translate(9.89 0.62)" fill="#f6f6f6"/>
          </g>
          <rect id="Rectángulo_345374" data-name="Rectángulo 345374" width="165.009" height="104.486" transform="translate(125.902 125.066)" fill="#fff"/>
          <rect id="Rectángulo_345375" data-name="Rectángulo 345375" width="165.009" height="104.486" transform="translate(125.902 125.066)" fill="none" stroke="#263238" stroke-miterlimit="10" stroke-width="1"/>
          <path id="Trazado_704916" data-name="Trazado 704916" d="M170.742,107.129l-3.191-9.156H115.845V231.362H287.269V107.129Zm113.32,116.63H119.052V119.273H284.062Z" transform="translate(6.85 5.793)" fill="#4db1f0"/>
          <path id="Trazado_704917" data-name="Trazado 704917" d="M170.742,107.129l-3.191-9.156H115.845V231.362H287.269V107.129Zm113.32,116.63H119.052V119.273H284.062Z" transform="translate(6.85 5.793)" fill="none" stroke="#263238" stroke-miterlimit="10" stroke-width="1"/>
          <rect id="Rectángulo_345376" data-name="Rectángulo 345376" width="81.98" height="5.019" transform="translate(177.569 116.38)" fill="#fff"/>
          <rect id="Rectángulo_345377" data-name="Rectángulo 345377" width="81.98" height="5.019" transform="translate(177.569 116.38)" fill="none" stroke="#263238" stroke-miterlimit="10" stroke-width="1"/>
          <path id="Trazado_704918" data-name="Trazado 704918" d="M122.752,109.126l-2.365,2.278,2.453,2.628" transform="translate(7.119 6.453)" fill="none" stroke="#263238" stroke-linecap="round" stroke-linejoin="round" stroke-width="1"/>
          <line id="Línea_588" data-name="Línea 588" x2="5.256" transform="translate(127.505 117.857)" fill="none" stroke="#263238" stroke-linecap="round" stroke-linejoin="round" stroke-width="1"/>
          <path id="Trazado_704919" data-name="Trazado 704919" d="M135.28,109.126l2.365,2.278-2.453,2.628" transform="translate(7.994 6.453)" fill="none" stroke="#263238" stroke-linecap="round" stroke-linejoin="round" stroke-width="1"/>
          <line id="Línea_589" data-name="Línea 589" x1="5.256" transform="translate(140.383 117.857)" fill="none" stroke="#263238" stroke-linecap="round" stroke-linejoin="round" stroke-width="1"/>
          <g id="Grupo_999831" data-name="Grupo 999831">
            <g id="Grupo_999830" data-name="Grupo 999830" clip-path="url(#clip-path-6)">
              <path id="Trazado_704920" data-name="Trazado 704920" d="M148.438,111.093a2.582,2.582,0,0,0-2.407-1.883,2.365,2.365,0,1,0,1.5,4.2" transform="translate(8.495 6.458)" fill="none" stroke="#263238" stroke-linecap="round" stroke-linejoin="round" stroke-width="1"/>
              <path id="Trazado_704921" data-name="Trazado 704921" d="M146.667,111.361h1.84v-2.188" transform="translate(8.673 6.455)" fill="none" stroke="#263238" stroke-linecap="round" stroke-linejoin="round" stroke-width="1"/>
              <path id="Trazado_704922" data-name="Trazado 704922" d="M160.24,110.6l-2.182-1.767L155.98,110.6v3.844h4.26Z" transform="translate(9.223 6.436)" fill="none" stroke="#263238" stroke-linecap="round" stroke-linejoin="round" stroke-width="1"/>
              <rect id="Rectángulo_345378" data-name="Rectángulo 345378" width="1.662" height="2.667" transform="translate(166.451 118.079)" fill="#263238"/>
              <line id="Línea_590" data-name="Línea 590" x1="1.247" y2="1.143" transform="translate(163.957 117.04)" fill="none" stroke="#263238" stroke-linecap="round" stroke-linejoin="round" stroke-width="1"/>
              <line id="Línea_591" data-name="Línea 591" x2="1.174" y2="1.042" transform="translate(169.463 117.04)" fill="none" stroke="#263238" stroke-linecap="round" stroke-linejoin="round" stroke-width="1"/>
              <line id="Línea_592" data-name="Línea 592" x2="3.322" y2="3.426" transform="translate(168.677 108.506)" fill="none" stroke="#263238" stroke-linecap="round" stroke-linejoin="round" stroke-width="1"/>
              <line id="Línea_593" data-name="Línea 593" x1="3.426" y2="3.323" transform="translate(168.625 108.558)" fill="none" stroke="#263238" stroke-linecap="round" stroke-linejoin="round" stroke-width="1"/>
              <line id="Línea_594" data-name="Línea 594" x2="6.575" transform="translate(282.22 117.301)" fill="none" stroke="#263238" stroke-linecap="round" stroke-linejoin="round" stroke-width="1"/>
              <line id="Línea_595" data-name="Línea 595" x2="6.575" transform="translate(282.22 118.783)" fill="none" stroke="#263238" stroke-linecap="round" stroke-linejoin="round" stroke-width="1"/>
              <line id="Línea_596" data-name="Línea 596" x2="6.575" transform="translate(282.22 120.266)" fill="none" stroke="#263238" stroke-linecap="round" stroke-linejoin="round" stroke-width="1"/>
              <line id="Línea_597" data-name="Línea 597" x2="6.575" transform="translate(282.22 121.749)" fill="none" stroke="#263238" stroke-linecap="round" stroke-linejoin="round" stroke-width="1"/>
              <line id="Línea_598" data-name="Línea 598" x2="8.288" transform="translate(247.706 137.398)" fill="#fff"/>
              <line id="Línea_599" data-name="Línea 599" x2="8.288" transform="translate(247.706 137.398)" fill="none" stroke="#263238" stroke-linecap="round" stroke-linejoin="round" stroke-width="1"/>
              <line id="Línea_600" data-name="Línea 600" x2="7.274" transform="translate(236.986 137.398)" fill="#fff"/>
              <line id="Línea_601" data-name="Línea 601" x2="7.274" transform="translate(236.986 137.398)" fill="none" stroke="#263238" stroke-linecap="round" stroke-linejoin="round" stroke-width="1"/>
              <line id="Línea_602" data-name="Línea 602" x2="15.14" transform="translate(219.166 137.398)" fill="#fff"/>
              <line id="Línea_603" data-name="Línea 603" x2="15.14" transform="translate(219.166 137.398)" fill="none" stroke="#263238" stroke-linecap="round" stroke-linejoin="round" stroke-width="1"/>
              <line id="Línea_604" data-name="Línea 604" x2="36.828" transform="translate(219.166 142.455)" fill="#fff"/>
              <line id="Línea_605" data-name="Línea 605" x2="36.828" transform="translate(219.166 142.455)" fill="none" stroke="#263238" stroke-linecap="round" stroke-linejoin="round" stroke-width="1"/>
              <line id="Línea_606" data-name="Línea 606" x2="5.416" transform="translate(250.578 147.512)" fill="#fff"/>
              <line id="Línea_607" data-name="Línea 607" x2="5.416" transform="translate(250.578 147.512)" fill="none" stroke="#263238" stroke-linecap="round" stroke-linejoin="round" stroke-width="1"/>
              <line id="Línea_608" data-name="Línea 608" x2="22.014" transform="translate(225.117 147.512)" fill="#fff"/>
              <line id="Línea_609" data-name="Línea 609" x2="22.014" transform="translate(225.117 147.512)" fill="none" stroke="#263238" stroke-linecap="round" stroke-linejoin="round" stroke-width="1"/>
              <line id="Línea_610" data-name="Línea 610" x2="2.889" transform="translate(219.166 147.512)" fill="#fff"/>
              <line id="Línea_611" data-name="Línea 611" x2="2.889" transform="translate(219.166 147.512)" fill="none" stroke="#263238" stroke-linecap="round" stroke-linejoin="round" stroke-width="1"/>
              <line id="Línea_612" data-name="Línea 612" x2="36.828" transform="translate(219.166 152.569)" fill="#fff"/>
              <line id="Línea_613" data-name="Línea 613" x2="36.828" transform="translate(219.166 152.569)" fill="none" stroke="#263238" stroke-linecap="round" stroke-linejoin="round" stroke-width="1"/>
              <rect id="Rectángulo_345379" data-name="Rectángulo 345379" width="8.191" height="25.159" transform="translate(223.814 194.741)" fill="#263238"/>
              <rect id="Rectángulo_345380" data-name="Rectángulo 345380" width="8.191" height="25.159" transform="translate(223.814 194.741)" fill="none" stroke="#263238" stroke-linecap="round" stroke-linejoin="round" stroke-width="1"/>
              <rect id="Rectángulo_345381" data-name="Rectángulo 345381" width="8.191" height="54.999" transform="translate(235.516 164.901)" fill="#0098e8"/>
              <rect id="Rectángulo_345382" data-name="Rectángulo 345382" width="8.191" height="54.999" transform="translate(235.516 164.901)" fill="none" stroke="#263238" stroke-miterlimit="10" stroke-width="1"/>
              <rect id="Rectángulo_345383" data-name="Rectángulo 345383" width="8.191" height="38.616" transform="translate(247.217 181.284)" fill="#263238"/>
              <rect id="Rectángulo_345384" data-name="Rectángulo 345384" width="8.191" height="38.616" transform="translate(247.217 181.284)" fill="none" stroke="#263238" stroke-linecap="round" stroke-linejoin="round" stroke-width="1"/>
              <rect id="Rectángulo_345385" data-name="Rectángulo 345385" width="8.191" height="54.999" transform="translate(258.919 164.901)" fill="#0098e8"/>
              <rect id="Rectángulo_345386" data-name="Rectángulo 345386" width="8.191" height="54.999" transform="translate(258.919 164.901)" fill="none" stroke="#263238" stroke-miterlimit="10" stroke-width="1"/>
              <rect id="Rectángulo_345387" data-name="Rectángulo 345387" width="8.191" height="78.987" transform="translate(270.621 140.913)" fill="#263238"/>
              <rect id="Rectángulo_345388" data-name="Rectángulo 345388" width="8.191" height="78.987" transform="translate(270.621 140.913)" fill="none" stroke="#263238" stroke-linecap="round" stroke-linejoin="round" stroke-width="1"/>
              <rect id="Rectángulo_345389" data-name="Rectángulo 345389" width="165.009" height="104.486" transform="translate(32.897 93.287)" fill="#fff"/>
              <rect id="Rectángulo_345390" data-name="Rectángulo 345390" width="165.009" height="104.486" transform="translate(32.897 93.287)" fill="none" stroke="#263238" stroke-miterlimit="10" stroke-width="1"/>
              <path id="Trazado_704923" data-name="Trazado 704923" d="M82.929,77.123l-3.192-9.155h-51.7V201.357H199.456V77.123Zm113.32,116.632H31.239V89.268H196.248Z" transform="translate(1.658 4.019)" fill="#0098e8"/>
              <path id="Trazado_704924" data-name="Trazado 704924" d="M82.929,77.123l-3.192-9.155h-51.7V201.357H199.456V77.123Zm113.32,116.632H31.239V89.268H196.248Z" transform="translate(1.658 4.019)" fill="none" stroke="#263238" stroke-miterlimit="10" stroke-width="1"/>
              <rect id="Rectángulo_345391" data-name="Rectángulo 345391" width="81.98" height="5.019" transform="translate(84.563 84.601)" fill="#fff"/>
              <rect id="Rectángulo_345392" data-name="Rectángulo 345392" width="81.98" height="5.019" transform="translate(84.563 84.601)" fill="none" stroke="#263238" stroke-miterlimit="10" stroke-width="1"/>
              <path id="Trazado_704925" data-name="Trazado 704925" d="M34.938,79.121,32.573,81.4l2.453,2.628" transform="translate(1.926 4.679)" fill="none" stroke="#263238" stroke-linecap="round" stroke-linejoin="round" stroke-width="1"/>
              <line id="Línea_614" data-name="Línea 614" x2="5.256" transform="translate(34.499 86.077)" fill="none" stroke="#263238" stroke-linecap="round" stroke-linejoin="round" stroke-width="1"/>
              <path id="Trazado_704926" data-name="Trazado 704926" d="M47.467,79.121,49.832,81.4l-2.453,2.628" transform="translate(2.802 4.679)" fill="none" stroke="#263238" stroke-linecap="round" stroke-linejoin="round" stroke-width="1"/>
              <line id="Línea_615" data-name="Línea 615" x1="5.256" transform="translate(47.378 86.077)" fill="none" stroke="#263238" stroke-linecap="round" stroke-linejoin="round" stroke-width="1"/>
              <path id="Trazado_704927" data-name="Trazado 704927" d="M60.625,81.087A2.582,2.582,0,0,0,58.217,79.2a2.365,2.365,0,1,0,1.5,4.2" transform="translate(3.303 4.683)" fill="none" stroke="#263238" stroke-linecap="round" stroke-linejoin="round" stroke-width="1"/>
              <path id="Trazado_704928" data-name="Trazado 704928" d="M58.854,81.355h1.84V79.167" transform="translate(3.48 4.681)" fill="none" stroke="#263238" stroke-linecap="round" stroke-linejoin="round" stroke-width="1"/>
              <path id="Trazado_704929" data-name="Trazado 704929" d="M72.427,80.6l-2.182-1.767L68.167,80.6v3.844h4.26Z" transform="translate(4.031 4.661)" fill="none" stroke="#263238" stroke-linecap="round" stroke-linejoin="round" stroke-width="1"/>
              <rect id="Rectángulo_345393" data-name="Rectángulo 345393" width="1.662" height="2.667" transform="translate(73.444 86.3)" fill="#263238"/>
              <line id="Línea_616" data-name="Línea 616" x1="1.247" y2="1.143" transform="translate(70.951 85.261)" fill="none" stroke="#263238" stroke-linecap="round" stroke-linejoin="round" stroke-width="1"/>
              <line id="Línea_617" data-name="Línea 617" x2="1.174" y2="1.042" transform="translate(76.457 85.261)" fill="none" stroke="#263238" stroke-linecap="round" stroke-linejoin="round" stroke-width="1"/>
              <line id="Línea_618" data-name="Línea 618" x2="3.322" y2="3.426" transform="translate(75.671 76.727)" fill="none" stroke="#263238" stroke-linecap="round" stroke-linejoin="round" stroke-width="1"/>
              <line id="Línea_619" data-name="Línea 619" x1="3.426" y2="3.323" transform="translate(75.619 76.778)" fill="none" stroke="#263238" stroke-linecap="round" stroke-linejoin="round" stroke-width="1"/>
              <line id="Línea_620" data-name="Línea 620" x2="6.575" transform="translate(189.214 85.521)" fill="none" stroke="#263238" stroke-linecap="round" stroke-linejoin="round" stroke-width="1"/>
              <line id="Línea_621" data-name="Línea 621" x2="6.575" transform="translate(189.214 87.004)" fill="none" stroke="#263238" stroke-linecap="round" stroke-linejoin="round" stroke-width="1"/>
              <line id="Línea_622" data-name="Línea 622" x2="6.575" transform="translate(189.214 88.486)" fill="none" stroke="#263238" stroke-linecap="round" stroke-linejoin="round" stroke-width="1"/>
              <line id="Línea_623" data-name="Línea 623" x2="6.575" transform="translate(189.214 89.969)" fill="none" stroke="#263238" stroke-linecap="round" stroke-linejoin="round" stroke-width="1"/>
              <path id="Trazado_704930" data-name="Trazado 704930" d="M39.07,179.226V143.134l11.478,24.312,9.756-4.261,11.044,8.721,18.8-12.23,11.477,16.041,8.035-4.01,6.886,4.01,8.609-1,11.477,2.758,12.052-1,7.665,2.757Z" transform="translate(2.31 8.464)" fill="#263238"/>
              <line id="Línea_624" data-name="Línea 624" x2="12.518" transform="translate(162.223 125.066)" fill="#fff"/>
              <line id="Línea_625" data-name="Línea 625" x2="12.518" transform="translate(162.223 125.066)" fill="none" stroke="#263238" stroke-linecap="round" stroke-linejoin="round" stroke-width="1"/>
              <line id="Línea_626" data-name="Línea 626" x2="10.987" transform="translate(146.031 125.066)" fill="#fff"/>
              <line id="Línea_627" data-name="Línea 627" x2="10.987" transform="translate(146.031 125.066)" fill="none" stroke="#263238" stroke-linecap="round" stroke-linejoin="round" stroke-width="1"/>
              <line id="Línea_628" data-name="Línea 628" x2="22.868" transform="translate(119.115 125.066)" fill="#fff"/>
              <line id="Línea_629" data-name="Línea 629" x2="22.868" transform="translate(119.115 125.066)" fill="none" stroke="#263238" stroke-linecap="round" stroke-linejoin="round" stroke-width="1"/>
              <line id="Línea_630" data-name="Línea 630" x2="55.626" transform="translate(119.115 130.123)" fill="#fff"/>
              <line id="Línea_631" data-name="Línea 631" x2="55.626" transform="translate(119.115 130.123)" fill="none" stroke="#263238" stroke-linecap="round" stroke-linejoin="round" stroke-width="1"/>
              <line id="Línea_632" data-name="Línea 632" x2="8.181" transform="translate(166.56 135.18)" fill="#fff"/>
              <line id="Línea_633" data-name="Línea 633" x2="8.181" transform="translate(166.56 135.18)" fill="none" stroke="#263238" stroke-linecap="round" stroke-linejoin="round" stroke-width="1"/>
              <line id="Línea_634" data-name="Línea 634" x2="33.25" transform="translate(128.105 135.18)" fill="#fff"/>
              <line id="Línea_635" data-name="Línea 635" x2="33.25" transform="translate(128.105 135.18)" fill="none" stroke="#263238" stroke-linecap="round" stroke-linejoin="round" stroke-width="1"/>
              <line id="Línea_636" data-name="Línea 636" x2="4.364" transform="translate(119.115 135.18)" fill="#fff"/>
              <line id="Línea_637" data-name="Línea 637" x2="4.364" transform="translate(119.115 135.18)" fill="none" stroke="#263238" stroke-linecap="round" stroke-linejoin="round" stroke-width="1"/>
              <line id="Línea_638" data-name="Línea 638" x2="55.626" transform="translate(119.115 140.236)" fill="#fff"/>
              <line id="Línea_639" data-name="Línea 639" x2="55.626" transform="translate(119.115 140.236)" fill="none" stroke="#263238" stroke-linecap="round" stroke-linejoin="round" stroke-width="1"/>
              <line id="Línea_640" data-name="Línea 640" x1="12.518" transform="translate(162.223 148.367)" fill="#fff"/>
              <line id="Línea_641" data-name="Línea 641" x1="12.518" transform="translate(162.223 148.367)" fill="none" stroke="#263238" stroke-linecap="round" stroke-linejoin="round" stroke-width="1"/>
              <line id="Línea_642" data-name="Línea 642" x2="10.987" transform="translate(146.031 148.367)" fill="#fff"/>
              <line id="Línea_643" data-name="Línea 643" x2="10.987" transform="translate(146.031 148.367)" fill="none" stroke="#263238" stroke-linecap="round" stroke-linejoin="round" stroke-width="1"/>
              <line id="Línea_644" data-name="Línea 644" x2="22.868" transform="translate(119.115 148.367)" fill="#fff"/>
              <line id="Línea_645" data-name="Línea 645" x2="22.868" transform="translate(119.115 148.367)" fill="none" stroke="#263238" stroke-linecap="round" stroke-linejoin="round" stroke-width="1"/>
              <line id="Línea_646" data-name="Línea 646" x2="55.626" transform="translate(119.115 153.424)" fill="#fff"/>
              <line id="Línea_647" data-name="Línea 647" x2="55.626" transform="translate(119.115 153.424)" fill="none" stroke="#263238" stroke-linecap="round" stroke-linejoin="round" stroke-width="1"/>
              <line id="Línea_648" data-name="Línea 648" x1="8.181" transform="translate(166.56 158.481)" fill="#fff"/>
              <line id="Línea_649" data-name="Línea 649" x1="8.181" transform="translate(166.56 158.481)" fill="none" stroke="#263238" stroke-linecap="round" stroke-linejoin="round" stroke-width="1"/>
              <line id="Línea_650" data-name="Línea 650" x2="33.25" transform="translate(128.105 158.481)" fill="#fff"/>
              <line id="Línea_651" data-name="Línea 651" x2="33.25" transform="translate(128.105 158.481)" fill="none" stroke="#263238" stroke-linecap="round" stroke-linejoin="round" stroke-width="1"/>
              <line id="Línea_652" data-name="Línea 652" x2="4.364" transform="translate(119.115 158.481)" fill="#fff"/>
              <line id="Línea_653" data-name="Línea 653" x2="4.364" transform="translate(119.115 158.481)" fill="none" stroke="#263238" stroke-linecap="round" stroke-linejoin="round" stroke-width="1"/>
              <line id="Línea_654" data-name="Línea 654" x2="55.626" transform="translate(119.115 163.537)" fill="#fff"/>
              <line id="Línea_655" data-name="Línea 655" x2="55.626" transform="translate(119.115 163.537)" fill="none" stroke="#263238" stroke-linecap="round" stroke-linejoin="round" stroke-width="1"/>
              <path id="Trazado_704931" data-name="Trazado 704931" d="M53.447,126.854l-6.578,14.774a16.173,16.173,0,0,1-8.2-21.352,15.969,15.969,0,0,1,14.774-9.594Z" transform="translate(2.204 6.545)" fill="#0098e8"/>
              <path id="Trazado_704933" data-name="Trazado 704933" d="M52.911,125.951,60.5,140.23a15.729,15.729,0,0,1-14.17.495Z" transform="translate(2.74 7.448)" fill="#263238"/>
              <path id="Trazado_704934" data-name="Trazado 704934" d="M52.544,126.519l12.568-10.177a16.171,16.171,0,0,1-2.39,22.745,15.3,15.3,0,0,1-2.585,1.712Z" transform="translate(3.107 6.879)" fill="#4db1f0"/>
              <path id="Trazado_704935" data-name="Trazado 704935" d="M52.544,126.854V110.682a15.442,15.442,0,0,1,12.568,5.995Z" transform="translate(3.107 6.545)" fill="#263238"/>
              <path id="Trazado_704936" data-name="Trazado 704936" d="M61.835,126.466a8.8,8.8,0,1,0-8.8,8.8,8.8,8.8,0,0,0,8.8-8.8" transform="translate(2.616 6.958)" fill="#fff"/>
              <path id="Trazado_704937" data-name="Trazado 704937" d="M94.82,126.854l-6.578,14.774a16.173,16.173,0,0,1-8.2-21.352,15.969,15.969,0,0,1,14.774-9.594Z" transform="translate(4.65 6.545)" fill="#4db1f0"/>
              <path id="Trazado_704939" data-name="Trazado 704939" d="M94.284,125.951l7.593,14.279a15.732,15.732,0,0,1-14.171.495Z" transform="translate(5.186 7.448)" fill="#263238"/>
              <path id="Trazado_704940" data-name="Trazado 704940" d="M93.917,126.519l12.568-10.177a16.171,16.171,0,0,1-2.39,22.745,15.332,15.332,0,0,1-2.584,1.712Z" transform="translate(5.553 6.879)" fill="#0098e8"/>
              <path id="Trazado_704941" data-name="Trazado 704941" d="M93.917,126.854V110.682a15.442,15.442,0,0,1,12.568,5.995Z" transform="translate(5.553 6.545)" fill="#263238"/>
              <path id="Trazado_704942" data-name="Trazado 704942" d="M103.209,126.466a8.8,8.8,0,1,0-8.8,8.8,8.8,8.8,0,0,0,8.8-8.8" transform="translate(5.062 6.958)" fill="#fff"/>
              <line id="Línea_656" data-name="Línea 656" x2="103.894" transform="translate(40.809 104.683)" fill="#fff"/>
              <line id="Línea_657" data-name="Línea 657" x2="103.894" transform="translate(40.809 104.683)" fill="none" stroke="#263238" stroke-linecap="round" stroke-linejoin="round" stroke-width="1"/>
              <line id="Línea_658" data-name="Línea 658" x2="123.202" transform="translate(40.809 109.74)" fill="#fff"/>
              <line id="Línea_659" data-name="Línea 659" x2="123.202" transform="translate(40.809 109.74)" fill="none" stroke="#263238" stroke-linecap="round" stroke-linejoin="round" stroke-width="1"/>
            </g>
          </g>
          <g id="Grupo_999833" data-name="Grupo 999833">
            <g id="Grupo_999832" data-name="Grupo 999832" clip-path="url(#clip-path-6)">
              <path id="Trazado_704943" data-name="Trazado 704943" d="M258.272,197.315s-5.14,5.951-4.6,7.034,4.869,3.786,5.14,2.164a68.691,68.691,0,0,0,1.081-7.845c0-1.894.271-2.435-1.623-1.353" transform="translate(14.998 11.635)" fill="#fff"/>
              <path id="Trazado_704944" data-name="Trazado 704944" d="M258.272,197.315s-5.14,5.951-4.6,7.034,4.869,3.786,5.14,2.164a68.691,68.691,0,0,0,1.081-7.845C259.895,196.774,260.166,196.232,258.272,197.315Z" transform="translate(14.998 11.635)" fill="none" stroke="#263238" stroke-linecap="round" stroke-linejoin="round" stroke-width="1"/>
              <path id="Trazado_704945" data-name="Trazado 704945" d="M260.825,185.428s-3.516,7.574-3.787,9.2,1.353,3.787,1.353,4.6-2.164,3.246-2.164,7.033-.27,12.444,2.976,14.608,8.656-.27,8.656-.27L273,230.6l20.559-11.9-2.975-4.6s4.328-11.631,1.082-20.559-14.879-10.279-19.477-10.55-9.738-.811-11.361,2.435" transform="translate(15.151 10.808)" fill="#fff"/>
            </g>
          </g>
          <g id="Grupo_999838" data-name="Grupo 999838" transform="translate(271.37 193.591)">
            <g id="Grupo_999837" data-name="Grupo 999837" clip-path="url(#clip-path-11)">
              <path id="Trazado_704946" data-name="Trazado 704946" d="M290.34,214.1s4.329-11.631,1.082-20.559-14.879-10.28-19.477-10.55c-.758-.044-1.532-.1-2.3-.137l-6.013,4.718s-4.943,7.06-2.825,9.885,3.531,5.648,2.825,10.239-5.4,12.522-.706,12.71c.971.038,2.5.167,4.3.347.245-.1.394-.161.394-.161l.108.211c6.928.705,17.44,2.074,17.44,2.074l1.037-.06,7.114-4.118Z" transform="translate(-255.98 -182.779)" fill="#bfe5f9"/>
              <g id="Grupo_999836" data-name="Grupo 999836" transform="translate(4.298 0.073)" opacity="0.5">
                <g id="Grupo_999835" data-name="Grupo 999835">
                  <g id="Grupo_999834" data-name="Grupo 999834" clip-path="url(#clip-path-12)">
                    <path id="Trazado_704947" data-name="Trazado 704947" d="M290.34,214.1s4.329-11.631,1.082-20.559-14.879-10.28-19.477-10.55c-.758-.044-1.532-.1-2.3-.137l-6.013,4.718s-4.943,7.06-2.825,9.885,3.531,5.648,2.825,10.239-5.4,12.522-.706,12.71c.971.038,2.5.167,4.3.347.245-.1.394-.161.394-.161l.108.211c6.928.705,17.44,2.074,17.44,2.074l1.037-.06,7.114-4.118Z" transform="translate(-260.278 -182.852)" fill="#bfe5f9"/>
                  </g>
                </g>
              </g>
            </g>
          </g>
          <g id="Grupo_999840" data-name="Grupo 999840">
            <g id="Grupo_999839" data-name="Grupo 999839" clip-path="url(#clip-path-6)">
              <path id="Trazado_704949" data-name="Trazado 704949" d="M260.825,185.428s-3.516,7.574-3.787,9.2,1.353,3.787,1.353,4.6-2.164,3.246-2.164,7.033-.27,12.444,2.976,14.608,8.656-.27,8.656-.27L273,230.6l20.559-11.9-2.975-4.6s4.328-11.631,1.082-20.559-14.879-10.279-19.477-10.55S262.449,182.181,260.825,185.428Z" transform="translate(15.151 10.808)" fill="none" stroke="#263238" stroke-linecap="round" stroke-linejoin="round" stroke-width="1"/>
              <path id="Trazado_704950" data-name="Trazado 704950" d="M289.124,177.514s-10.009-2.975-18.665-2.705-17.313,2.705-17.042,7.3,8.386,6.221,8.386,6.221,4.6.271,3.246,1.624-4.87,4.058-2.165,7.3,5.411,5.951,4.6,7.033.271,3.517,1.353,2.705-.54-4.058,2.435-5.139,5.951,3.516,4.869,6.492-2.975,2.705-1.894,4.869,7.845,5.68,12.444,5.68,5.951-5.951,10.821-15.419,1.623-23.264-8.386-25.969" transform="translate(14.984 10.336)" fill="#263238"/>
              <path id="Trazado_704951" data-name="Trazado 704951" d="M289.124,177.514s-10.009-2.975-18.665-2.705-17.313,2.705-17.042,7.3,8.386,6.221,8.386,6.221,4.6.271,3.246,1.624-4.87,4.058-2.165,7.3,5.411,5.951,4.6,7.033.271,3.517,1.353,2.705-.54-4.058,2.435-5.139,5.951,3.516,4.869,6.492-2.975,2.705-1.894,4.869,7.845,5.68,12.444,5.68,5.951-5.951,10.821-15.419S299.133,180.219,289.124,177.514Z" transform="translate(14.984 10.336)" fill="none" stroke="#263238" stroke-linecap="round" stroke-linejoin="round" stroke-width="1"/>
              <path id="Trazado_704952" data-name="Trazado 704952" d="M262.866,231.229l2.705,5.14,29.756-19.477-2.975-3.516s-24.887,13.8-29.486,17.854" transform="translate(15.544 12.617)" fill="#fff"/>
              <path id="Trazado_704953" data-name="Trazado 704953" d="M262.866,231.229l2.705,5.14,29.756-19.477-2.975-3.516S267.465,227.171,262.866,231.229Z" transform="translate(15.544 12.617)" fill="none" stroke="#263238" stroke-linecap="round" stroke-linejoin="round" stroke-width="1"/>
              <path id="Trazado_704954" data-name="Trazado 704954" d="M269.857,231.844s-5.951,8.115-8.115,12.173-11.361,27.863-15.42,36.249a80.313,80.313,0,0,0-5.612,15.063h56.74s6.491-32.376,6.491-46.442-3.246-24.616-4.328-27.322-5.14-4.869-5.14-4.869Z" transform="translate(14.233 12.813)" fill="#fff"/>
            </g>
          </g>
          <g id="Grupo_999842" data-name="Grupo 999842" transform="translate(254.944 229.509)">
            <g id="Grupo_999841" data-name="Grupo 999841" clip-path="url(#clip-path-14)">
              <path id="Trazado_704955" data-name="Trazado 704955" d="M269.857,231.844s-5.951,8.115-8.115,12.173-11.361,27.863-15.42,36.249a80.313,80.313,0,0,0-5.612,15.063h56.74s6.491-32.376,6.491-46.442-3.246-24.616-4.328-27.322-5.14-4.869-5.14-4.869Z" transform="translate(-240.71 -216.696)" fill="#bdbdbd"/>
              <path id="Trazado_704956" data-name="Trazado 704956" d="M269.857,231.844s-5.951,8.115-8.115,12.173-11.361,27.863-15.42,36.249a80.313,80.313,0,0,0-5.612,15.063h56.74s6.491-32.376,6.491-46.442-3.246-24.616-4.328-27.322-5.14-4.869-5.14-4.869Z" transform="translate(-240.71 -216.696)" fill="none" stroke="#263238" stroke-linecap="round" stroke-linejoin="round" stroke-width="1"/>
              <path id="Trazado_704957" data-name="Trazado 704957" d="M253.546,262.314s12.694-19.9,17.5-25.043,28.526-17.331,28.526-17.331l-3.741-4.061s-24.442,12.128-28.215,15.9-14.752,26.073-14.065,30.533" transform="translate(-239.953 -216.744)" fill="#bdbdbd"/>
              <path id="Trazado_704958" data-name="Trazado 704958" d="M253.546,262.314s12.694-19.9,17.5-25.043,28.526-17.331,28.526-17.331l-3.741-4.061s-24.442,12.128-28.215,15.9S252.859,257.854,253.546,262.314Z" transform="translate(-239.953 -216.744)" fill="none" stroke="#263238" stroke-linecap="round" stroke-linejoin="round" stroke-width="1"/>
            </g>
          </g>
          <g id="Grupo_999844" data-name="Grupo 999844">
            <g id="Grupo_999843" data-name="Grupo 999843" clip-path="url(#clip-path-6)">
              <path id="Trazado_704960" data-name="Trazado 704960" d="M269.857,231.844s-5.951,8.115-8.115,12.173-11.361,27.863-15.42,36.249a80.313,80.313,0,0,0-5.612,15.063h56.74s6.491-32.376,6.491-46.442-3.246-24.616-4.328-27.322-5.14-4.869-5.14-4.869Z" transform="translate(14.233 12.813)" fill="none" stroke="#263238" stroke-linecap="round" stroke-linejoin="round" stroke-width="1"/>
              <path id="Trazado_704961" data-name="Trazado 704961" d="M284.78,231s-14.878,9.739-17.042,13.525-.27,9.739-.27,10.55S265.3,258.59,265.3,259.4v2.7l-11.632,31.379h26.51s11.361-27.591,13.525-33,3.246-15.149,2.165-20.56" transform="translate(15 13.659)" fill="none" stroke="#263238" stroke-linecap="round" stroke-linejoin="round" stroke-width="1"/>
              <path id="Trazado_704962" data-name="Trazado 704962" d="M269,253.446s6.492-7.574,16.23-8.656" transform="translate(15.906 14.475)" fill="none" stroke="#263238" stroke-linecap="round" stroke-linejoin="round" stroke-width="1"/>
            </g>
          </g>
          <g id="Grupo_999846" data-name="Grupo 999846">
            <g id="Grupo_999845" data-name="Grupo 999845" clip-path="url(#clip-path-6)">
              <path id="Trazado_704963" data-name="Trazado 704963" d="M330.278,200.7s-18.684-3.737-23.916.748-2.242,31.762-3.737,38.863-5.231,14.574-3.737,22.047,4.858,12.705,6.353,16.443-.374,17.563-.374,17.563h54.558s9.715-25.783,9.715-45.215-5.979-36.248-14.948-42.6-23.915-7.847-23.915-7.847" transform="translate(17.653 11.781)" fill="#0098e8"/>
            </g>
          </g>
          <g id="Grupo_999851" data-name="Grupo 999851" transform="translate(316.195 211.019)">
            <g id="Grupo_999850" data-name="Grupo 999850" clip-path="url(#clip-path-17)">
              <g id="Grupo_999849" data-name="Grupo 999849" transform="translate(6.325 9.47)" opacity="0.26">
                <g id="Grupo_999848" data-name="Grupo 999848">
                  <g id="Grupo_999847" data-name="Grupo 999847" clip-path="url(#clip-path-18)">
                    <path id="Trazado_704964" data-name="Trazado 704964" d="M309.923,211.845c-5.3,8.826.706,57.193,2.118,61.782s-8.826.354-5.648,2.825,9.178,6.707,9.178,6.707a110.1,110.1,0,0,0-10.4-3.862,20,20,0,0,1,.289,3.346,100.884,100.884,0,0,0,11.17,7.577l-11.6.967c-.251,2.664-.519,4.644-.519,4.644h54.558s9.715-25.784,9.715-45.215a82.19,82.19,0,0,0-3.361-23.917l-32.556-13.8s-17.652-9.885-22.948-1.059" transform="translate(-304.514 -208.179)" fill="#0098e8"/>
                  </g>
                </g>
              </g>
            </g>
          </g>
          <g id="Grupo_999853" data-name="Grupo 999853">
            <g id="Grupo_999852" data-name="Grupo 999852" clip-path="url(#clip-path-6)">
              <path id="Trazado_704966" data-name="Trazado 704966" d="M330.278,200.7s-18.684-3.737-23.916.748-2.242,31.762-3.737,38.863-5.231,14.574-3.737,22.047,4.858,12.705,6.353,16.443-.374,17.563-.374,17.563h54.558s9.715-25.783,9.715-45.215-5.979-36.248-14.948-42.6S330.278,200.7,330.278,200.7Z" transform="translate(17.653 11.781)" fill="none" stroke="#263238" stroke-linecap="round" stroke-linejoin="round" stroke-width="1"/>
              <path id="Trazado_704967" data-name="Trazado 704967" d="M330.162,137.311s-8.221-6.727-16.068-1.868-21.3,27.279-19.806,38.489,14.948,21.674,5.979,27.653-5.6,16.816-1.121,19.806l2.616.373s0-10.836,7.473-13.826,18.31-.374,20.926,2.99-2.242,20.552,4.11,25.037,15.321,5.231,13.453,9.715-8.222,11.584-4.111,17.936,14.2,12.705,17.563,10.463-1.494-4.857.374-6.353,17.19-6.725,14.574-13.078-8.221-9.716-5.6-12.331,12.331-8.969,11.21-17.937-22.421-15.694-23.168-25.411,12.705-10.836,8.221-32.884-18.31-31.763-25.037-31.763a24.092,24.092,0,0,0-11.584,2.99" transform="translate(17.395 7.905)" fill="#263238"/>
              <path id="Trazado_704968" data-name="Trazado 704968" d="M330.162,137.311s-8.221-6.727-16.068-1.868-21.3,27.279-19.806,38.489,14.948,21.674,5.979,27.653-5.6,16.816-1.121,19.806l2.616.373s0-10.836,7.473-13.826,18.31-.374,20.926,2.99-2.242,20.552,4.11,25.037,15.321,5.231,13.453,9.715-8.222,11.584-4.111,17.936,14.2,12.705,17.563,10.463-1.494-4.857.374-6.353,17.19-6.725,14.574-13.078-8.221-9.716-5.6-12.331,12.331-8.969,11.21-17.937-22.421-15.694-23.168-25.411,12.705-10.836,8.221-32.884-18.31-31.763-25.037-31.763A24.092,24.092,0,0,0,330.162,137.311Z" transform="translate(17.395 7.905)" fill="none" stroke="#263238" stroke-linecap="round" stroke-linejoin="round" stroke-width="1"/>
              <path id="Trazado_704969" data-name="Trazado 704969" d="M334.967,148.182c5.638,7.809,12.74,19.324,12.952,28.032.354,14.5-12.377,20.511-10.256,31.828s26.845,13.261,28.644,23.339-9.548,6.365-6.719,12.023,13.792,10.608,9.2,16.975" transform="translate(19.807 8.762)" fill="none" stroke="#fff" stroke-linecap="round" stroke-linejoin="round" stroke-width="1"/>
              <path id="Trazado_704970" data-name="Trazado 704970" d="M328.5,139.924s1.186,1.359,2.978,3.624" transform="translate(19.424 8.274)" fill="none" stroke="#fff" stroke-linecap="round" stroke-linejoin="round" stroke-width="1"/>
              <path id="Trazado_704971" data-name="Trazado 704971" d="M323.208,194.046c1.293,1.359,2.066,2.619,2.066,3.856" transform="translate(19.112 11.474)" fill="none" stroke="#fff" stroke-linecap="round" stroke-linejoin="round" stroke-width="1"/>
              <path id="Trazado_704972" data-name="Trazado 704972" d="M302.892,153.28s-5.658,15.56,2.829,26.169c4.521,5.652,10.148,9.8,14.417,13.187" transform="translate(17.801 9.064)" fill="none" stroke="#fff" stroke-linecap="round" stroke-linejoin="round" stroke-width="1"/>
              <path id="Trazado_704973" data-name="Trazado 704973" d="M350.885,214.173c1.641.6,3.432,1.1,5.288,1.635" transform="translate(20.748 12.664)" fill="none" stroke="#fff" stroke-linecap="round" stroke-linejoin="round" stroke-width="1"/>
              <path id="Trazado_704974" data-name="Trazado 704974" d="M353.464,150.275s12.023,15.206,7.78,28.29-18.39,20.157-18.39,28.644a10.013,10.013,0,0,0,2.406,7.087" transform="translate(20.273 8.886)" fill="none" stroke="#fff" stroke-linecap="round" stroke-linejoin="round" stroke-width="1"/>
              <path id="Trazado_704975" data-name="Trazado 704975" d="M218.115,279.241s-2.244,2.761-2.244,4.488-.863,5.177.174,5.35,1.725-3.624,2.76-5,3.624-1.726,3.453-3.624-2.588-3.624-4.142-1.208" transform="translate(12.745 16.442)" fill="#fff"/>
              <path id="Trazado_704976" data-name="Trazado 704976" d="M218.115,279.241s-2.244,2.761-2.244,4.488-.863,5.177.174,5.35,1.725-3.624,2.76-5,3.624-1.726,3.453-3.624S219.669,276.825,218.115,279.241Z" transform="translate(12.745 16.442)" fill="none" stroke="#263238" stroke-linecap="round" stroke-linejoin="round" stroke-width="1"/>
              <path id="Trazado_704977" data-name="Trazado 704977" d="M242.771,281.962s-9.665-8.112-12.083-8.975-7.249,4.66-10.182,10.011-1.38,6.558.173,6.731,8.285-2.762,8.285-2.762a20.97,20.97,0,0,0,8.112,3.97c4.659,1.036,11.391-1.725,11.563-4.486s-5.867-4.488-5.867-4.488" transform="translate(12.941 16.137)" fill="#fff"/>
              <path id="Trazado_704978" data-name="Trazado 704978" d="M242.771,281.962s-9.665-8.112-12.083-8.975-7.249,4.66-10.182,10.011-1.38,6.558.173,6.731,8.285-2.762,8.285-2.762a20.97,20.97,0,0,0,8.112,3.97c4.659,1.036,11.391-1.725,11.563-4.486S242.771,281.962,242.771,281.962Z" transform="translate(12.941 16.137)" fill="none" stroke="#263238" stroke-linecap="round" stroke-linejoin="round" stroke-width="1"/>
              <path id="Trazado_704979" data-name="Trazado 704979" d="M332.931,230.671s.374,56.452-1.122,60.936-6.725,4.484-15.32,4.858-60.911-1.121-60.911-1.121a70.021,70.021,0,0,1-8.969.747c-4.111,0-11.21-.747-13.826-2.616s-4.858-2.241-5.979-1.868-4.11,4.11-6.727,4.11-5.6-1.121-3.737-1.494,11.958-11.211,14.2-11.211,18.31,4.111,21.3,3.738,56.426-10.837,56.426-10.837L306.4,217.618s-1.868-10.089,7.473-13.827" transform="translate(12.758 12.05)" fill="#0098e8"/>
            </g>
          </g>
          <g id="Grupo_999858" data-name="Grupo 999858" transform="translate(228.517 215.841)">
            <g id="Grupo_999857" data-name="Grupo 999857" clip-path="url(#clip-path-20)">
              <g id="Grupo_999856" data-name="Grupo 999856" transform="translate(45.777 5.641)" opacity="0.26">
                <g id="Grupo_999855" data-name="Grupo 999855">
                  <g id="Grupo_999854" data-name="Grupo 999854" clip-path="url(#clip-path-21)">
                    <path id="Trazado_704980" data-name="Trazado 704980" d="M315.487,209.117a6.956,6.956,0,0,0-2.871,2.672c-5.3,8.826.706,57.193,2.118,61.782s-8.826.354-5.648,2.825,9.178,6.707,9.178,6.707-17.3-7.414-12.71-2.824,13.769,9.885,13.769,9.885l-60.343,5.029c13.964.378,48.151,1.252,54.954.956,8.593-.374,13.825-.374,15.32-4.858s1.121-62.031,1.121-62.031Z" transform="translate(-258.98 -209.117)" fill="#12263f"/>
                  </g>
                </g>
              </g>
            </g>
          </g>
          <g id="Grupo_999860" data-name="Grupo 999860">
            <g id="Grupo_999859" data-name="Grupo 999859" clip-path="url(#clip-path-6)">
              <path id="Trazado_704982" data-name="Trazado 704982" d="M332.931,230.671s.374,56.452-1.122,60.936-6.725,4.484-15.32,4.858-60.911-1.121-60.911-1.121a70.021,70.021,0,0,1-8.969.747c-4.111,0-11.21-.747-13.826-2.616s-4.858-2.241-5.979-1.868-4.11,4.11-6.727,4.11-5.6-1.121-3.737-1.494,11.958-11.211,14.2-11.211,18.31,4.111,21.3,3.738,56.426-10.837,56.426-10.837L306.4,217.618s-1.868-10.089,7.473-13.827" transform="translate(12.758 12.05)" fill="none" stroke="#263238" stroke-linecap="round" stroke-linejoin="round" stroke-width="1"/>
              <path id="Trazado_704983" data-name="Trazado 704983" d="M271.14,291.339a20.091,20.091,0,0,1,.734-12.771c-10.21,1.968-18.879,3.615-20.032,3.76-2.99.374-19.058-3.737-21.3-3.737s-12.331,10.836-14.2,11.21,1.122,1.494,3.737,1.494,5.6-3.737,6.727-4.11,3.363,0,5.979,1.868,9.715,2.616,13.826,2.616a70,70,0,0,0,8.969-.747s6.633.19,15.562.416" transform="translate(12.758 16.472)" fill="#fff"/>
              <path id="Trazado_704984" data-name="Trazado 704984" d="M271.14,291.339a20.091,20.091,0,0,1,.734-12.771c-10.21,1.968-18.879,3.615-20.032,3.76-2.99.374-19.058-3.737-21.3-3.737s-12.331,10.836-14.2,11.21,1.122,1.494,3.737,1.494,5.6-3.737,6.727-4.11,3.363,0,5.979,1.868,9.715,2.616,13.826,2.616a70,70,0,0,0,8.969-.747S262.211,291.112,271.14,291.339Z" transform="translate(12.758 16.472)" fill="none" stroke="#263238" stroke-linecap="round" stroke-linejoin="round" stroke-width="1"/>
              <path id="Trazado_704985" data-name="Trazado 704985" d="M221.963,275.427s-2.934,1.726-3.97,3.97,0,9.147,1.726,9.147,2.934-1.9,2.934-4.314-.691-8.8-.691-8.8" transform="translate(12.866 16.286)" fill="#fff"/>
              <path id="Trazado_704986" data-name="Trazado 704986" d="M221.963,275.427s-2.934,1.726-3.97,3.97,0,9.147,1.726,9.147,2.934-1.9,2.934-4.314S221.963,275.427,221.963,275.427Z" transform="translate(12.866 16.286)" fill="none" stroke="#263238" stroke-linecap="round" stroke-linejoin="round" stroke-width="1"/>
              <path id="Trazado_704987" data-name="Trazado 704987" d="M224.248,274.124s-2.761.173-3.8,2.243-.863,10.873.863,11.218S223.73,285,223.73,283.1s.518-8.974.518-8.974" transform="translate(12.998 16.209)" fill="#fff"/>
              <path id="Trazado_704988" data-name="Trazado 704988" d="M224.248,274.124s-2.761.173-3.8,2.243-.863,10.873.863,11.218S223.73,285,223.73,283.1,224.248,274.124,224.248,274.124Z" transform="translate(12.998 16.209)" fill="none" stroke="#263238" stroke-linecap="round" stroke-linejoin="round" stroke-width="1"/>
              <path id="Trazado_704989" data-name="Trazado 704989" d="M230.445,272.994s-4.142-.691-5.868.518-2.072,11.909-.863,12.771,3.279-1.38,3.279-2.589,2.416-7.767,2.416-7.767" transform="translate(13.186 16.131)" fill="#fff"/>
              <path id="Trazado_704990" data-name="Trazado 704990" d="M230.445,272.994s-4.142-.691-5.868.518-2.072,11.909-.863,12.771,3.279-1.38,3.279-2.589,2.416-7.767,2.416-7.767" transform="translate(13.186 16.131)" fill="none" stroke="#263238" stroke-linecap="round" stroke-linejoin="round" stroke-width="1"/>
            </g>
          </g>
          <g id="Grupo_999862" data-name="Grupo 999862" transform="translate(67.075 121.041)">
            <g id="Grupo_999861" data-name="Grupo 999861" clip-path="url(#clip-path-23)">
              <path id="Trazado_704991" data-name="Trazado 704991" d="M132.3,241.782s-4.953,7.52-2.866,11.171,9.65,11.215,25.3,10.172,6.259-27.386,8.085-43.557-4.956-18.518-10.434-14.345-12.257,24.256-14.866,27.647a60.019,60.019,0,0,0-5.219,8.913" transform="translate(-59.452 -109.013)" fill="#0098e8"/>
            </g>
          </g>
          <g id="Grupo_999867" data-name="Grupo 999867" transform="translate(136.236 215.44)">
            <g id="Grupo_999866" data-name="Grupo 999866" clip-path="url(#clip-path-24)">
              <g id="Grupo_999865" data-name="Grupo 999865" transform="translate(-0.529 -0.53)" opacity="0.42">
                <g id="Grupo_999864" data-name="Grupo 999864">
                  <g id="Grupo_999863" data-name="Grupo 999863" clip-path="url(#clip-path-25)">
                    <path id="Trazado_704992" data-name="Trazado 704992" d="M132.3,241.782s-4.953,7.52-2.866,11.171,9.65,11.215,25.3,10.172,6.259-27.386,8.085-43.557-4.956-18.518-10.434-14.345-12.257,24.256-14.866,27.647a60.019,60.019,0,0,0-5.219,8.913" transform="translate(-128.39 -202.882)"/>
                    <path id="Trazado_704993" data-name="Trazado 704993" d="M132.3,241.782s-4.953,7.52-2.866,11.171,9.65,11.215,25.3,10.172,6.259-27.386,8.085-43.557-4.956-18.518-10.434-14.345-12.257,24.256-14.866,27.647A60.019,60.019,0,0,0,132.3,241.782Z" transform="translate(-128.39 -202.882)" fill="none" stroke="#263238" stroke-linecap="round" stroke-linejoin="round" stroke-width="1"/>
                  </g>
                </g>
              </g>
            </g>
          </g>
          <g id="Grupo_999869" data-name="Grupo 999869" transform="translate(67.075 121.041)">
            <g id="Grupo_999868" data-name="Grupo 999868" clip-path="url(#clip-path-23)">
              <path id="Trazado_704995" data-name="Trazado 704995" d="M132.3,241.782s-4.953,7.52-2.866,11.171,9.65,11.215,25.3,10.172,6.259-27.386,8.085-43.557-4.956-18.518-10.434-14.345-12.257,24.256-14.866,27.647A60.019,60.019,0,0,0,132.3,241.782Z" transform="translate(-59.452 -109.013)" fill="none" stroke="#263238" stroke-linecap="round" stroke-linejoin="round" stroke-width="1"/>
              <path id="Trazado_704996" data-name="Trazado 704996" d="M150.09,243.785s0,23.213.261,30.516,1.3,25.039,1.3,25.039h49.034l-2.609-52.946-.782-2.609Z" transform="translate(-58.2 -106.625)" fill="#263238"/>
              <path id="Trazado_704997" data-name="Trazado 704997" d="M150.09,243.785s0,23.213.261,30.516,1.3,25.039,1.3,25.039h49.034l-2.609-52.946-.782-2.609Z" transform="translate(-58.2 -106.625)" fill="none" stroke="#263238" stroke-linecap="round" stroke-linejoin="round" stroke-width="1"/>
              <path id="Trazado_704998" data-name="Trazado 704998" d="M177.042,249.933l19.675.787-.213-4.328-.783-2.608H176.735Z" transform="translate(-56.624 -106.625)" fill="#fff"/>
              <path id="Trazado_704999" data-name="Trazado 704999" d="M177.042,249.933l19.675.787-.213-4.328-.783-2.608H176.735Z" transform="translate(-56.624 -106.625)" fill="none" stroke="#263238" stroke-linecap="round" stroke-linejoin="round" stroke-width="1"/>
              <path id="Trazado_705000" data-name="Trazado 705000" d="M155.306,243.785H150.09s0,2,.006,5.008l5.21.209Z" transform="translate(-58.2 -106.625)" fill="#fff"/>
              <path id="Trazado_705001" data-name="Trazado 705001" d="M155.306,243.785H150.09s0,2,.006,5.008l5.21.209Z" transform="translate(-58.2 -106.625)" fill="none" stroke="#263238" stroke-linecap="round" stroke-linejoin="round" stroke-width="1"/>
              <path id="Trazado_705002" data-name="Trazado 705002" d="M156.586,243.785l.286,5.295,17.818.713-.182-6.007Z" transform="translate(-57.816 -106.625)" fill="#fff"/>
              <path id="Trazado_705003" data-name="Trazado 705003" d="M156.586,243.785l.286,5.295,17.818.713-.182-6.007Z" transform="translate(-57.816 -106.625)" fill="none" stroke="#263238" stroke-linecap="round" stroke-linejoin="round" stroke-width="1"/>
              <path id="Trazado_705004" data-name="Trazado 705004" d="M150.362,208.016s-.261,29.995,0,34.689-2.086,6.259,1.826,7.042,35.732,1.565,38.862,1.043,3.13-2.087,3.912-3.651,11.215-68.6,8.868-70.422-17.214-7.3-18.519-7.3-20.6,1.043-24.256,1.565-7.824-.522-8.085,1.564-2.608,35.471-2.608,35.471" transform="translate(-58.211 -111.023)" fill="#fff"/>
            </g>
          </g>
          <g id="Grupo_999871" data-name="Grupo 999871" transform="translate(158.762 179.433)">
            <g id="Grupo_999870" data-name="Grupo 999870" clip-path="url(#clip-path-27)">
              <path id="Trazado_705005" data-name="Trazado 705005" d="M166.349,178.819s-6.109-.291-7.272.291c-.659.328-4.669,10.154-8.027,18.625-.393,5.518-.689,9.729-.689,9.729s-.261,29.994,0,34.689c.172,3.081-.771,4.809-.34,5.858,1.314-4.592,3.426-12.532,5.856-23.811,4.073-18.909,10.473-45.381,10.473-45.381" transform="translate(-149.898 -168.863)" fill="#bdbdbd"/>
            </g>
          </g>
          <g id="Grupo_999873" data-name="Grupo 999873" transform="translate(67.075 121.041)">
            <g id="Grupo_999872" data-name="Grupo 999872" clip-path="url(#clip-path-23)">
              <path id="Trazado_705007" data-name="Trazado 705007" d="M150.362,208.016s-.261,29.995,0,34.689-2.086,6.259,1.826,7.042,35.732,1.565,38.862,1.043,3.13-2.087,3.912-3.651,11.215-68.6,8.868-70.422-17.214-7.3-18.519-7.3-20.6,1.043-24.256,1.565-7.824-.522-8.085,1.564S150.362,208.016,150.362,208.016Z" transform="translate(-58.211 -111.023)" fill="none" stroke="#263238" stroke-linecap="round" stroke-linejoin="round" stroke-width="1"/>
              <path id="Trazado_705008" data-name="Trazado 705008" d="M100.687,190.8s-9.389-4.7-12.781-5.477-14.345-3.391-15.128-2.348.262,2.087,1.3,2.087,7.825,2.869,7.825,2.869-.783,6.259-.783,7.825,8.346,4.7,10.172,4.956,5.5-1.128,5.5-1.128l2.584-.7Z" transform="translate(-62.787 -110.236)" fill="#fff"/>
              <path id="Trazado_705009" data-name="Trazado 705009" d="M100.687,190.8s-9.389-4.7-12.781-5.477-14.345-3.391-15.128-2.348.262,2.087,1.3,2.087,7.825,2.869,7.825,2.869-.783,6.259-.783,7.825,8.346,4.7,10.172,4.956,5.5-1.128,5.5-1.128l2.584-.7Z" transform="translate(-62.787 -110.236)" fill="none" stroke="#263238" stroke-linecap="round" stroke-linejoin="round" stroke-width="1"/>
              <path id="Trazado_705010" data-name="Trazado 705010" d="M80.676,188.623s-1.043,7.042-.261,7.825,6.259,4.434,7.042,2.608.521-8.868.521-9.65-7.3-.783-7.3-.783" transform="translate(-62.337 -109.887)" fill="#fff"/>
              <path id="Trazado_705011" data-name="Trazado 705011" d="M80.676,188.623s-1.043,7.042-.261,7.825,6.259,4.434,7.042,2.608.521-8.868.521-9.65S80.676,188.623,80.676,188.623Z" transform="translate(-62.337 -109.887)" fill="none" stroke="#263238" stroke-linecap="round" stroke-linejoin="round" stroke-width="1"/>
              <path id="Trazado_705012" data-name="Trazado 705012" d="M97.216,190.782s-8.868-3.39-10.955-3.39-5.477,2.869-7.3,3.39.522,2.086,1.826,1.826,4.956-1.3,4.956-1.3a11.093,11.093,0,0,0,3.39,3.911c2.087,1.3,6.52.522,6.52.522" transform="translate(-62.445 -109.96)" fill="#fff"/>
              <path id="Trazado_705013" data-name="Trazado 705013" d="M97.216,190.782s-8.868-3.39-10.955-3.39-5.477,2.869-7.3,3.39.522,2.086,1.826,1.826,4.956-1.3,4.956-1.3a11.093,11.093,0,0,0,3.39,3.911c2.087,1.3,6.52.522,6.52.522" transform="translate(-62.445 -109.96)" fill="none" stroke="#263238" stroke-linecap="round" stroke-linejoin="round" stroke-width="1"/>
              <path id="Trazado_705014" data-name="Trazado 705014" d="M175.692,169.289s-15.641-1.343-18.819-.638-10.591,18.712-11.65,21.183-12.71,13.769-12.71,13.769L98.974,190.54l-3.53,9.885s27.184,17.653,31.774,19.771,10.944,1.766,13.062,1.766a7.924,7.924,0,0,0,4.237-1.766L134.278,243.85s16.593-19.77,21.536-29.3,16.24-37.423,17.3-38.129,2.579-7.13,2.579-7.13" transform="translate(-61.431 -111.08)" fill="#0098e8"/>
            </g>
          </g>
          <g id="Grupo_999878" data-name="Grupo 999878" transform="translate(101.087 178.406)">
            <g id="Grupo_999877" data-name="Grupo 999877" clip-path="url(#clip-path-29)">
              <g id="Grupo_999876" data-name="Grupo 999876" transform="translate(0.554 31.049)" opacity="0.26">
                <g id="Grupo_999875" data-name="Grupo 999875">
                  <g id="Grupo_999874" data-name="Grupo 999874" clip-path="url(#clip-path-30)">
                    <path id="Trazado_705015" data-name="Trazado 705015" d="M139.451,208.543c-.852,0-1.986-.567-3.121-.567s1.419,4.256.852,5.675-41.141-15.89-41.141-15.89l-.074,1.29c3.84,2.488,27.013,17.47,31.22,19.412,4.59,2.118,10.945,1.766,13.063,1.766a7.284,7.284,0,0,0,3.822-1.456c3.093-7.9,5.309-21.011,5.309-21.011s-9.079,10.782-9.93,10.782" transform="translate(-95.967 -197.762)"/>
                  </g>
                </g>
              </g>
            </g>
          </g>
          <g id="Grupo_999880" data-name="Grupo 999880" transform="translate(67.075 121.041)">
            <g id="Grupo_999879" data-name="Grupo 999879" clip-path="url(#clip-path-23)">
              <path id="Trazado_705017" data-name="Trazado 705017" d="M175.692,169.289s-15.641-1.343-18.819-.638-10.591,18.712-11.65,21.183-12.71,13.769-12.71,13.769L98.974,190.54l-3.53,9.885s27.184,17.653,31.774,19.771,10.944,1.766,13.062,1.766a7.924,7.924,0,0,0,4.237-1.766L134.278,243.85s16.593-19.77,21.536-29.3,16.24-37.423,17.3-38.129S175.692,169.289,175.692,169.289Z" transform="translate(-61.431 -111.08)" fill="none" stroke="#263238" stroke-linecap="round" stroke-linejoin="round" stroke-width="1"/>
              <path id="Trazado_705018" data-name="Trazado 705018" d="M171.455,169.242l-4.35,4.121.229,8.241,4.579-4.35Z" transform="translate(-57.194 -111.033)" fill="#fff"/>
              <path id="Trazado_705019" data-name="Trazado 705019" d="M171.455,169.242l-4.35,4.121.229,8.241,4.579-4.35Z" transform="translate(-57.194 -111.033)" fill="none" stroke="#263238" stroke-linecap="round" stroke-linejoin="round" stroke-width="1"/>
              <path id="Trazado_705020" data-name="Trazado 705020" d="M163.879,131.88s-4.687,7.195-4.386,8.7,1.074,3.041,1.074,4.245-5.288,5.419-4.687,6.322,3.613,2.408,3.613,2.408-.13,11.742,2.579,13.247,7.828-.9,7.828-.9l2.709,15.052,15.354-10.838V159.276S197,149.04,197.6,140.912s-10.537-17.161-21.676-18.666-17.16,6.021-15.354,8.43,3.312,1.2,3.312,1.2" transform="translate(-57.86 -113.824)" fill="#fff"/>
            </g>
          </g>
          <g id="Grupo_999885" data-name="Grupo 999885" transform="translate(165.048 129.265)">
            <g id="Grupo_999884" data-name="Grupo 999884" clip-path="url(#clip-path-32)">
              <path id="Trazado_705021" data-name="Trazado 705021" d="M181.756,173.928l5.729-4.044V159.046s9.032-10.236,9.634-18.365c.394-5.313-4.229-11.01-10.588-14.741l-15.969,6.615s-7.506,6.587-6.512,7.475,3.858,4.582,3.135,6.27c0,0-2.683,1.055-2.412,2.894s6.512,13.745,6.512,13.745l-1.864,2.729Z" transform="translate(-155.353 -121.818)" fill="#bfe5f9"/>
              <g id="Grupo_999883" data-name="Grupo 999883" transform="translate(8.606 4.122)" opacity="0.5">
                <g id="Grupo_999882" data-name="Grupo 999882">
                  <g id="Grupo_999881" data-name="Grupo 999881" clip-path="url(#clip-path-33)">
                    <path id="Trazado_705022" data-name="Trazado 705022" d="M181.756,173.928l5.729-4.044V159.046s9.032-10.236,9.634-18.365c.394-5.313-4.229-11.01-10.588-14.741l-15.969,6.615s-7.506,6.587-6.512,7.475,3.858,4.582,3.135,6.27c0,0-2.683,1.055-2.412,2.894s6.512,13.745,6.512,13.745l-1.864,2.729Z" transform="translate(-163.959 -125.94)" fill="#bfe5f9"/>
                  </g>
                </g>
              </g>
            </g>
          </g>
          <g id="Grupo_999887" data-name="Grupo 999887" transform="translate(67.075 121.041)">
            <g id="Grupo_999886" data-name="Grupo 999886" clip-path="url(#clip-path-23)">
              <path id="Trazado_705024" data-name="Trazado 705024" d="M163.879,131.88s-4.687,7.195-4.386,8.7,1.074,3.041,1.074,4.245-5.288,5.419-4.687,6.322,3.613,2.408,3.613,2.408-.13,11.742,2.579,13.247,7.828-.9,7.828-.9l2.709,15.052,15.354-10.838V159.276S197,149.04,197.6,140.912s-10.537-17.161-21.676-18.666-17.16,6.021-15.354,8.43S163.879,131.88,163.879,131.88Z" transform="translate(-57.86 -113.824)" fill="none" stroke="#263238" stroke-linecap="round" stroke-linejoin="round" stroke-width="1"/>
              <path id="Trazado_705025" data-name="Trazado 705025" d="M186.658,169.661s-3.39,12-7.563,27.125-3.391,62.075-3.391,64.682,6,12,12.781,14.606a55.015,55.015,0,0,0,13.823,3.13s-4.694-31.038-4.694-39.9,4.173-22.692,4.173-22.692,6.259,15.65,8.868,17.736,13.04,4.434,12.779-5.216-9.129-44.079-11.476-47.469-13.562-6.782-13.562-6.782Z" transform="translate(-56.689 -111.008)" fill="#0098e8"/>
            </g>
          </g>
          <g id="Grupo_999892" data-name="Grupo 999892" transform="translate(186.032 179.694)">
            <g id="Grupo_999891" data-name="Grupo 999891" clip-path="url(#clip-path-35)">
              <g id="Grupo_999890" data-name="Grupo 999890" transform="translate(11.289 11.997)" opacity="0.26">
                <g id="Grupo_999889" data-name="Grupo 999889">
                  <g id="Grupo_999888" data-name="Grupo 999888" clip-path="url(#clip-path-36)">
                    <path id="Trazado_705026" data-name="Trazado 705026" d="M196.982,235.414v-.039c-5.93,1.533-10.677,2.639-10.677,2.639s7.273,14.545,10.181,14.545c.307,0,1.032-.018,2.052-.05-.857-6.961-1.556-13.677-1.556-17.1" transform="translate(-186.305 -177.773)"/>
                    <path id="Trazado_705027" data-name="Trazado 705027" d="M201.716,195.558c3.2,3.491,9.89,1.745,9.89,2.909s-5.236,3.781-3.2,7.853,13.964,21.527,10.473,24.727c-1.008.924-4.226,2.163-8.287,3.458,3.794,1.669,11.556,2.294,11.331-6.049-.261-9.65-9.129-44.078-11.476-47.468,0,0-11.931,11.079-8.731,14.569" transform="translate(-185.426 -180.989)"/>
                    <path id="Trazado_705028" data-name="Trazado 705028" d="M194.1,198.594a5.992,5.992,0,0,0-1.8,6.291c1.2,3.894,5.692,7.79,4.494,9.887s-10.187.6-9.887,3.595,9.587,12.882,9.587,12.882l3.894-17.676Z" transform="translate(-186.27 -179.948)"/>
                  </g>
                </g>
              </g>
            </g>
          </g>
          <g id="Grupo_999894" data-name="Grupo 999894" transform="translate(67.075 121.041)">
            <g id="Grupo_999893" data-name="Grupo 999893" clip-path="url(#clip-path-23)">
              <path id="Trazado_705030" data-name="Trazado 705030" d="M186.658,169.661s-3.39,12-7.563,27.125-3.391,62.075-3.391,64.682,6,12,12.781,14.606a55.015,55.015,0,0,0,13.823,3.13s-4.694-31.038-4.694-39.9,4.173-22.692,4.173-22.692,6.259,15.65,8.868,17.736,13.04,4.434,12.779-5.216-9.129-44.079-11.476-47.469-13.562-6.782-13.562-6.782Z" transform="translate(-56.689 -111.008)" fill="none" stroke="#263238" stroke-linecap="round" stroke-linejoin="round" stroke-width="1"/>
              <path id="Trazado_705031" data-name="Trazado 705031" d="M186.88,164.7l-13.507,9.615.916,8.471,14.88-13.507Z" transform="translate(-56.823 -111.302)" fill="#fff"/>
              <path id="Trazado_705032" data-name="Trazado 705032" d="M186.88,164.7l-13.507,9.615.916,8.471,14.88-13.507Z" transform="translate(-56.823 -111.302)" fill="none" stroke="#263238" stroke-linecap="round" stroke-linejoin="round" stroke-width="1"/>
              <path id="Trazado_705033" data-name="Trazado 705033" d="M191.5,231.474s-9.911-4.434-10.694-4.434-8.606,4.173-10.172,4.173-2.347,1.043-1.3,1.826a5.676,5.676,0,0,0,2.869.782s-3.652,2.086-3.391,3.13,2.347,1.826,2.347,1.826,1.826,2.869,4.435,3.652,11.737-2.347,11.737-2.347l7.042-.522Z" transform="translate(-57.094 -107.616)" fill="#fff"/>
            </g>
          </g>
          <g id="Grupo_999899" data-name="Grupo 999899" transform="translate(178.773 240.464)">
            <g id="Grupo_999898" data-name="Grupo 999898" clip-path="url(#clip-path-38)">
              <path id="Trazado_705034" data-name="Trazado 705034" d="M180.647,231.326c-3.177.706-9.626,7.217-9.626,7.217s1.826,2.869,4.435,3.652,11.736-2.348,11.736-2.348l7.042-.521-2.869-8.085s-7.54-.621-10.717.086" transform="translate(-168.661 -226.806)" fill="#bfe5f9"/>
              <g id="Grupo_999897" data-name="Grupo 999897" transform="translate(2.36 4.182)" opacity="0.5">
                <g id="Grupo_999896" data-name="Grupo 999896">
                  <g id="Grupo_999895" data-name="Grupo 999895" clip-path="url(#clip-path-39)">
                    <path id="Trazado_705035" data-name="Trazado 705035" d="M180.647,231.326c-3.177.706-9.626,7.217-9.626,7.217s1.826,2.869,4.435,3.652,11.736-2.348,11.736-2.348l7.042-.521-2.869-8.085s-7.54-.621-10.717.086" transform="translate(-171.021 -230.988)" fill="#bfe5f9"/>
                  </g>
                </g>
              </g>
            </g>
          </g>
          <g id="Grupo_999901" data-name="Grupo 999901" transform="translate(67.075 121.041)">
            <g id="Grupo_999900" data-name="Grupo 999900" clip-path="url(#clip-path-23)">
              <path id="Trazado_705037" data-name="Trazado 705037" d="M191.5,231.474s-9.911-4.434-10.694-4.434-8.606,4.173-10.172,4.173-2.347,1.043-1.3,1.826a5.676,5.676,0,0,0,2.869.782s-3.652,2.086-3.391,3.13,2.347,1.826,2.347,1.826,1.826,2.869,4.435,3.652,11.737-2.347,11.737-2.347l7.042-.522Z" transform="translate(-57.094 -107.616)" fill="none" stroke="#263238" stroke-linecap="round" stroke-linejoin="round" stroke-width="1"/>
              <path id="Trazado_705038" data-name="Trazado 705038" d="M214.008,220.767l-24.517,9.911,1.826,10.432s32.863-4.7,34.427-7.041-4.434-15.649-4.434-15.649" transform="translate(-55.87 -108.125)" fill="#0098e8"/>
            </g>
          </g>
          <g id="Grupo_999906" data-name="Grupo 999906" transform="translate(200.695 231.335)">
            <g id="Grupo_999905" data-name="Grupo 999905" clip-path="url(#clip-path-41)">
              <g id="Grupo_999904" data-name="Grupo 999904" transform="translate(1.265 0)" opacity="0.26">
                <g id="Grupo_999903" data-name="Grupo 999903">
                  <g id="Grupo_999902" data-name="Grupo 999902" clip-path="url(#clip-path-42)">
                    <path id="Trazado_705039" data-name="Trazado 705039" d="M190.684,237.9l.562,3.211s32.863-4.694,34.427-7.042-4.434-15.649-4.434-15.649l-3.511,1.128c2.027,4.227,3.209,7.968,1.771,9.286-2.629,2.41-20.263,6.963-28.816,9.065" transform="translate(-190.684 -218.42)"/>
                  </g>
                </g>
              </g>
            </g>
          </g>
          <g id="Grupo_999908" data-name="Grupo 999908" transform="translate(67.075 121.041)">
            <g id="Grupo_999907" data-name="Grupo 999907" clip-path="url(#clip-path-23)">
              <path id="Trazado_705041" data-name="Trazado 705041" d="M214.008,220.767l-24.517,9.911,1.826,10.432s32.863-4.7,34.427-7.041-4.434-15.649-4.434-15.649" transform="translate(-55.87 -108.125)" fill="none" stroke="#263238" stroke-linecap="round" stroke-linejoin="round" stroke-width="1"/>
              <path id="Trazado_705042" data-name="Trazado 705042" d="M141.777,218.945s4.892-18.9,6.456-29.337" transform="translate(-58.691 -109.829)" fill="#fff"/>
              <path id="Trazado_705043" data-name="Trazado 705043" d="M141.777,218.945s4.892-18.9,6.456-29.337" transform="translate(-58.691 -109.829)" fill="none" stroke="#263238" stroke-linecap="round" stroke-linejoin="round" stroke-width="1"/>
              <path id="Trazado_705044" data-name="Trazado 705044" d="M162.156,268.564l7.042,5.869,1.173,23.474" transform="translate(-57.486 -105.16)" fill="none" stroke="#fff" stroke-linecap="round" stroke-linejoin="round" stroke-width="1"/>
              <path id="Trazado_705045" data-name="Trazado 705045" d="M200.74,215.219l-6.919-12.71s-2-2.669,2-9.342" transform="translate(-55.644 -109.618)" fill="none" stroke="#263238" stroke-linecap="round" stroke-linejoin="round" stroke-width="1"/>
              <path id="Trazado_705046" data-name="Trazado 705046" d="M175.73,122.245c-11.139-1.5-17.16,6.022-15.354,8.431a3.422,3.422,0,0,0,1.927,1.455l1.385-.251s10.236.3,9.634,3.613-6.624,3.613-4.214,6.322a12.483,12.483,0,0,0,2.075,1.838l-.345.018a4.983,4.983,0,0,1,1.441,2.059c.412,1.236-1.853,11.535-2.266,12.358s-2.677-.205-5.561-2.265a11.671,11.671,0,0,0-5.15-2.265l-.205,1.853s2.883.824,3.295,2.472-2.265,1.853-2.265,3.3-.2,4.043,1.755,5.624,7.828-.9,7.828-.9,4.423-3.076,5.041-6.371c.5-2.692.872-7.443,1.326-9.767a18.95,18.95,0,0,0,1.761-2.529s4.817-1.2,3.312,3.614-4.516,4.816-4.516,4.816a28.725,28.725,0,0,0,11.139,3.684v-.07s9.032-10.235,9.634-18.364-10.537-17.161-21.676-18.667" transform="translate(-57.667 -113.824)" fill="#263238"/>
              <path id="Trazado_705047" data-name="Trazado 705047" d="M175.73,122.245c-11.139-1.5-17.16,6.022-15.354,8.431a3.422,3.422,0,0,0,1.927,1.455l1.385-.251s10.236.3,9.634,3.613-6.624,3.613-4.214,6.322a12.483,12.483,0,0,0,2.075,1.838l-.345.018a4.983,4.983,0,0,1,1.441,2.059c.412,1.236-1.853,11.535-2.266,12.358s-2.677-.205-5.561-2.265a11.671,11.671,0,0,0-5.15-2.265l-.205,1.853s2.883.824,3.295,2.472-2.265,1.853-2.265,3.3-.2,4.043,1.755,5.624,7.828-.9,7.828-.9,4.423-3.076,5.041-6.371c.5-2.692.872-7.443,1.326-9.767a18.95,18.95,0,0,0,1.761-2.529s4.817-1.2,3.312,3.614-4.516,4.816-4.516,4.816a28.725,28.725,0,0,0,11.139,3.684v-.07s9.032-10.235,9.634-18.364S186.869,123.751,175.73,122.245Z" transform="translate(-57.667 -113.824)" fill="none" stroke="#263238" stroke-linecap="round" stroke-linejoin="round" stroke-width="1"/>
            </g>
          </g>
          <rect id="Rectángulo_345420" data-name="Rectángulo 345420" width="17.835" height="26.352" transform="translate(195.742 281.868)" fill="#fff"/>
          <rect id="Rectángulo_345421" data-name="Rectángulo 345421" width="17.835" height="26.352" transform="translate(195.742 281.868)" fill="none" stroke="#263238" stroke-linecap="round" stroke-linejoin="round" stroke-width="1"/>
          <g id="Grupo_999910" data-name="Grupo 999910">
            <g id="Grupo_999909" data-name="Grupo 999909" clip-path="url(#clip-path-6)">
              <path id="Trazado_705048" data-name="Trazado 705048" d="M201.115,288.621h-1.863a1.471,1.471,0,1,1,0-2.941h1.863a2.791,2.791,0,0,0,2.788-2.788V276.5a2.791,2.791,0,0,0-2.788-2.789h-2.4a1.471,1.471,0,1,1,0-2.941h2.4a5.736,5.736,0,0,1,5.729,5.73v6.389a5.735,5.735,0,0,1-5.729,5.729" transform="translate(11.664 16.011)" fill="#fff"/>
              <path id="Trazado_705049" data-name="Trazado 705049" d="M201.115,288.621h-1.863a1.471,1.471,0,1,1,0-2.941h1.863a2.791,2.791,0,0,0,2.788-2.788V276.5a2.791,2.791,0,0,0-2.788-2.789h-2.4a1.471,1.471,0,1,1,0-2.941h2.4a5.736,5.736,0,0,1,5.729,5.73v6.389A5.735,5.735,0,0,1,201.115,288.621Z" transform="translate(11.664 16.011)" fill="none" stroke="#263238" stroke-linecap="round" stroke-linejoin="round" stroke-width="1"/>
            </g>
          </g>
          <g id="Grupo_999912" data-name="Grupo 999912">
            <g id="Grupo_999911" data-name="Grupo 999911" clip-path="url(#clip-path-6)">
              <path id="Trazado_705050" data-name="Trazado 705050" d="M115.9,292.491H67.429a.942.942,0,0,1-.862-.563l-13.42-30.6a.942.942,0,0,1,.862-1.32h48.469a.942.942,0,0,1,.862.563l13.42,30.6a.942.942,0,0,1-.862,1.32" transform="translate(3.138 15.375)" fill="#fff"/>
              <path id="Trazado_705051" data-name="Trazado 705051" d="M115.9,292.491H67.429a.942.942,0,0,1-.862-.563l-13.42-30.6a.942.942,0,0,1,.862-1.32h48.469a.942.942,0,0,1,.862.563l13.42,30.6A.942.942,0,0,1,115.9,292.491Z" transform="translate(3.138 15.375)" fill="none" stroke="#263238" stroke-linecap="round" stroke-linejoin="round" stroke-width="1"/>
              <path id="Trazado_705052" data-name="Trazado 705052" d="M111.1,289.975H69.739a.8.8,0,0,1-.735-.481L57.553,263.387a.8.8,0,0,1,.736-1.126H99.645a.8.8,0,0,1,.736.481l11.45,26.108a.8.8,0,0,1-.735,1.126" transform="translate(3.399 15.508)" fill="#263238"/>
              <path id="Trazado_705053" data-name="Trazado 705053" d="M111.1,289.975H69.739a.8.8,0,0,1-.735-.481L57.553,263.387a.8.8,0,0,1,.736-1.126H99.645a.8.8,0,0,1,.736.481l11.45,26.108A.8.8,0,0,1,111.1,289.975Z" transform="translate(3.399 15.508)" fill="none" stroke="#263238" stroke-linecap="round" stroke-linejoin="round" stroke-width="1"/>
              <rect id="Rectángulo_345423" data-name="Rectángulo 345423" width="72.815" height="2.383" transform="translate(69.892 305.836)" fill="#fff"/>
              <rect id="Rectángulo_345424" data-name="Rectángulo 345424" width="72.815" height="2.383" transform="translate(69.892 305.836)" fill="none" stroke="#263238" stroke-linecap="round" stroke-linejoin="round" stroke-width="1"/>
              <rect id="Rectángulo_345425" data-name="Rectángulo 345425" width="35.299" height="2.383" transform="translate(69.892 305.836)" fill="#fff"/>
              <rect id="Rectángulo_345426" data-name="Rectángulo 345426" width="35.299" height="2.383" transform="translate(69.892 305.836)" fill="none" stroke="#263238" stroke-linecap="round" stroke-linejoin="round" stroke-width="1"/>
            </g>
          </g>
          <g id="Grupo_999914" data-name="Grupo 999914">
            <g id="Grupo_999913" data-name="Grupo 999913" clip-path="url(#clip-path-6)">
              <path id="Trazado_705054" data-name="Trazado 705054" d="M3.634,235.361a15.912,15.912,0,0,0,4.653.515c.034,0-.71-2.161-.772-2.291-.724-1.516-3.014-4.016-4.878-3.765a2.226,2.226,0,0,0-1.786,2.789,4.651,4.651,0,0,0,2.783,2.753" transform="translate(16.046 13.588)" fill="#263238"/>
              <path id="Trazado_705055" data-name="Trazado 705055" d="M4.759,245.457a15.478,15.478,0,0,0,4.579-.719,39.5,39.5,0,0,0,1.786,4.943c.406.938.844,1.87,1.294,2.8-.27-.394-.513-.744-.553-.789-1.1-1.27-3.966-3.078-5.7-2.343a2.224,2.224,0,0,0-.986,3.161,4.65,4.65,0,0,0,3.411,1.919,14.735,14.735,0,0,0,4.449-.682c.177.355.35.711.529,1.064.853,1.7,1.71,3.389,2.5,5.074.279.593.532,1.188.787,1.783-.238-.349-.443-.642-.479-.683-1.1-1.27-3.966-3.078-5.7-2.343A2.225,2.225,0,0,0,9.7,261.8a4.649,4.649,0,0,0,3.41,1.92,14.2,14.2,0,0,0,4.332-.65c.243.616.488,1.234.7,1.842.132.418.289.812.4,1.24l.35,1.251c.193.8.4,1.631.565,2.42.122.548.227,1.071.335,1.6-.271-.593-.826-1.745-.883-1.837-.894-1.421-3.456-3.643-5.279-3.178a2.224,2.224,0,0,0-1.452,2.975,4.651,4.651,0,0,0,3.08,2.415,15.311,15.311,0,0,0,4.609-.014c.175.873.337,1.724.478,2.53.492,2.792.8,5.137.985,6.778.034.291.062.551.089.8H15.75l.686,13.388h12.4l.686-13.388H24.254c.039-.08.076-.157.117-.241.724-1.507,1.726-3.673,2.811-6.324.344-.837.7-1.737,1.047-2.666a15.284,15.284,0,0,0,4.6.357,4.652,4.652,0,0,0,3.252-2.178,2.226,2.226,0,0,0-1.228-3.076c-1.783-.6-4.5,1.426-5.5,2.777-.058.079-.6,1.016-.932,1.612.142-.38.284-.748.425-1.141.285-.775.547-1.558.829-2.4q.186-.616.373-1.244c.133-.413.221-.866.335-1.3.243-1.018.438-2.061.613-3.117a14.577,14.577,0,0,0,4.363,1,4.653,4.653,0,0,0,3.545-1.66,2.226,2.226,0,0,0-.748-3.226c-1.671-.862-4.667.728-5.858,1.912-.074.074-.832,1.02-1.239,1.547.1-.635.2-1.269.283-1.915.232-1.864.408-3.759.592-5.648.055-.578.119-1.154.18-1.731a15.479,15.479,0,0,0,4.51,1.057,4.653,4.653,0,0,0,3.545-1.66,2.225,2.225,0,0,0-.748-3.226c-1.671-.862-4.667.727-5.858,1.911-.088.09-1.179,1.452-1.439,1.812.135-1.27.281-2.535.474-3.776a39.238,39.238,0,0,1,1.083-4.966,15.716,15.716,0,0,0,4.537,1.068,4.657,4.657,0,0,0,3.545-1.66,2.226,2.226,0,0,0-.749-3.227c-1.671-.861-4.668.728-5.858,1.912-.093.093-1.265,1.56-1.457,1.841.028-.094.046-.195.074-.289a28.8,28.8,0,0,1,1.968-4.7c.428-.838.883-1.613,1.343-2.359a14.957,14.957,0,0,0,4.3,1.51,4.649,4.649,0,0,0,3.7-1.26,2.224,2.224,0,0,0-.388-3.289c-1.566-1.04-4.719.21-6.033,1.256-.071.057-.733.716-1.208,1.2.213-.334.426-.681.638-1,.787-1.185,1.579-2.221,2.289-3.133.408-.516.787-.973,1.146-1.4a14.886,14.886,0,0,0,4.484-.638,4.659,4.659,0,0,0,2.709-2.827,2.227,2.227,0,0,0-1.861-2.74c-1.869-.2-4.092,2.361-4.775,3.9-.058.132-.745,2.312-.711,2.311h.041c-.355.4-.73.837-1.129,1.32-.731.9-1.55,1.92-2.364,3.093a39.2,39.2,0,0,0-2.453,3.906,28.99,28.99,0,0,0-2.095,4.715c-.006.019-.011.04-.016.059.008-.551-.016-2.092-.031-2.209-.216-1.665-1.612-4.757-3.461-5.1a2.226,2.226,0,0,0-2.566,2.094,4.649,4.649,0,0,0,1.786,3.482,15.474,15.474,0,0,0,4.217,1.927,39.41,39.41,0,0,0-1.238,5.109c-.179,1.005-.328,2.024-.466,3.048-.006-.477-.017-.9-.024-.963-.216-1.665-1.612-4.755-3.461-5.1a2.225,2.225,0,0,0-2.566,2.093,4.648,4.648,0,0,0,1.787,3.482,14.706,14.706,0,0,0,4.089,1.886c-.049.394-.1.786-.148,1.179-.226,1.887-.443,3.772-.712,5.613-.094.649-.212,1.285-.326,1.921-.007-.424-.016-.78-.023-.835-.216-1.665-1.61-4.755-3.46-5.1a2.226,2.226,0,0,0-2.567,2.094,4.655,4.655,0,0,0,1.787,3.482,14.182,14.182,0,0,0,3.971,1.847c-.137.648-.273,1.3-.435,1.92-.121.422-.207.837-.352,1.254s-.267.828-.4,1.236c-.283.776-.57,1.579-.864,2.33-.2.523-.4,1.019-.6,1.518.1-.644.274-1.912.277-2.019a8.651,8.651,0,0,0-1.159-4.2,2.649,2.649,0,0,0-.032-.492,2.225,2.225,0,0,0-2.721-1.887c-1.816.484-2.97,3.673-3.056,5.351-.005.1.06,1.178.112,1.859-.092-.4-.176-.781-.275-1.186-.191-.8-.4-1.6-.631-2.458q-.186-.615-.376-1.242c-.117-.418-.293-.845-.44-1.272-.359-.982-.771-1.96-1.207-2.937a14.623,14.623,0,0,0,4.192-1.57,4.655,4.655,0,0,0,2.041-3.34,2.226,2.226,0,0,0-2.4-2.278c-1.869.2-3.492,3.181-3.831,4.825-.021.1-.132,1.31-.18,1.974-.266-.585-.531-1.169-.821-1.753-.835-1.682-1.734-3.36-2.622-5.037-.272-.514-.537-1.028-.8-1.543a15.471,15.471,0,0,0,4.345-1.607,4.653,4.653,0,0,0,2.041-3.339,2.225,2.225,0,0,0-2.4-2.278c-1.87.2-3.492,3.181-3.832,4.825-.025.124-.182,1.861-.2,2.3-.588-1.133-1.164-2.268-1.688-3.41a39.239,39.239,0,0,1-1.834-4.74,15.688,15.688,0,0,0,4.371-1.613,4.648,4.648,0,0,0,2.041-3.339,2.226,2.226,0,0,0-2.4-2.278c-1.868.2-3.492,3.181-3.831,4.825-.028.129-.195,2-.2,2.34-.03-.094-.07-.189-.1-.282a28.683,28.683,0,0,1-.952-5.005c-.1-.934-.153-1.832-.179-2.707a14.974,14.974,0,0,0,4.416-1.11,4.661,4.661,0,0,0,2.4-3.1,2.225,2.225,0,0,0-2.14-2.528c-1.879,0-3.819,2.778-4.336,4.375-.03.087-.218,1-.345,1.67-.006-.4-.02-.8-.019-1.182,0-1.422.094-2.724.182-3.876.055-.656.12-1.247.184-1.8a14.862,14.862,0,0,0,3.388-3.007,4.649,4.649,0,0,0,.7-3.851A2.224,2.224,0,0,0,9.89,221c-1.67.863-2.109,4.226-1.833,5.882.024.143.655,2.339.684,2.32l.033-.022c-.073.53-.147,1.1-.213,1.723-.114,1.152-.234,2.456-.267,3.884a39.064,39.064,0,0,0,.11,4.61,29.006,29.006,0,0,0,.854,5.089c.005.019.013.039.018.058-.3-.464-1.166-1.736-1.243-1.826-1.1-1.27-3.967-3.078-5.7-2.343a2.226,2.226,0,0,0-.986,3.162,4.654,4.654,0,0,0,3.413,1.919M23.4,270.1a16.266,16.266,0,0,0,3.748,2.417c-.336.825-.67,1.625-1,2.375-1.13,2.6-2.17,4.724-2.917,6.2-.151.3-.286.559-.412.8H22.7c-.037-.287-.078-.6-.126-.955-.229-1.655-.587-4.016-1.145-6.824-.175-.888-.378-1.833-.6-2.8A24.292,24.292,0,0,0,23.4,270.1" transform="translate(16.062 13.054)" fill="#263238"/>
              <path id="Trazado_705056" data-name="Trazado 705056" d="M35.252,236.2c.029.018.6-2.193.621-2.337.231-1.663-.3-5.013-1.992-5.831a2.226,2.226,0,0,0-3.028,1.341,4.652,4.652,0,0,0,.8,3.831,15.936,15.936,0,0,0,3.6,3" transform="translate(17.815 13.472)" fill="#263238"/>
            </g>
          </g>
          <g id="Grupo_999916" data-name="Grupo 999916">
            <g id="Grupo_999915" data-name="Grupo 999915" clip-path="url(#clip-path-6)">
              <line id="Línea_660" data-name="Línea 660" x2="388.792" transform="translate(14.5 308.221)" fill="none" stroke="#263238" stroke-linecap="round" stroke-linejoin="round" stroke-width="2"/>
            </g>
          </g>
        </g>
      </g>
    </g>
  </g>
</svg>
