<svg xmlns="http://www.w3.org/2000/svg" xmlns:xlink="http://www.w3.org/1999/xlink" width="143" height="143" viewBox="0 0 143 143">
  <defs>
    <filter id="Elipse_4796" x="0" y="0" width="143" height="143" filterUnits="userSpaceOnUse">
      <feOffset dy="3" input="SourceAlpha"/>
      <feGaussianBlur stdDeviation="3" result="blur"/>
      <feFlood flood-opacity="0.161"/>
      <feComposite operator="in" in2="blur"/>
      <feComposite in="SourceGraphic"/>
    </filter>
  </defs>
  <g id="Grupo_1003699" data-name="Grupo 1003699" transform="translate(-730 -4157)">
    <g transform="matrix(1, 0, 0, 1, 730, 4157)" filter="url(#Elipse_4796)">
      <circle id="Elipse_4796-2" data-name="Elipse 4796" cx="62.5" cy="62.5" r="62.5" transform="translate(9 6)" fill="#0098e8"/>
    </g>
    <g id="archivo_1_" data-name="archivo (1)" transform="translate(742.819 4182)">
      <g id="Grupo_999693" data-name="Grupo 999693" transform="translate(26.191 1.254)">
        <path id="Trazado_704642" data-name="Trazado 704642" d="M123.513,12.9H66.091V9.189A1.689,1.689,0,0,1,67.78,7.5h54.044a1.689,1.689,0,0,1,1.689,1.689V12.9Z" transform="translate(-66.091 -7.5)" fill="#d3effb"/>
      </g>
      <g id="Grupo_999694" data-name="Grupo 999694" transform="translate(24.502 6.658)">
        <path id="Trazado_704643" data-name="Trazado 704643" d="M116.789,45.229h-60.8V41.514a1.689,1.689,0,0,1,1.689-1.689H115.1a1.689,1.689,0,0,1,1.689,1.689Z" transform="translate(-55.989 -39.825)" fill="#cbe2ff"/>
      </g>
      <g id="Grupo_999695" data-name="Grupo 999695" transform="translate(19.435 62.392)">
        <path id="Trazado_704644" data-name="Trazado 704644" d="M96.618,395.135H25.871l-.187-21.956H96.618Z" transform="translate(-25.684 -373.179)" fill="#9d66d5"/>
      </g>
      <g id="Grupo_999696" data-name="Grupo 999696" transform="translate(36.594 62.392)">
        <path id="Trazado_704645" data-name="Trazado 704645" d="M182.09,384.278l-10.23-10.229q.194-.432.368-.869H128.316a23.657,23.657,0,0,0,31.6,12.81l9.146,9.146H182.09V384.278Z" transform="translate(-128.316 -373.179)" fill="#8659b9"/>
      </g>
      <g id="Grupo_999697" data-name="Grupo 999697" transform="translate(22.813 12.063)">
        <path id="Trazado_704646" data-name="Trazado 704646" d="M110.065,122.479H45.887V73.839a1.689,1.689,0,0,1,1.689-1.689h60.8a1.689,1.689,0,0,1,1.689,1.689v48.64Z" transform="translate(-45.887 -72.15)" fill="#f4fbff"/>
      </g>
      <g id="Grupo_999698" data-name="Grupo 999698" transform="translate(28.218 17.467)">
        <path id="Trazado_704647" data-name="Trazado 704647" d="M0,0H20.942V16.889H0Z" transform="translate(16.889 0) rotate(90)" fill="#ed9aa9"/>
      </g>
      <g id="Grupo_999699" data-name="Grupo 999699" transform="translate(80.851 12.063)">
        <path id="Trazado_704648" data-name="Trazado 704648" d="M397.474,72.15h-4.451a1.689,1.689,0,0,1,1.689,1.689v48.64h4.451V73.839A1.689,1.689,0,0,0,397.474,72.15Z" transform="translate(-393.023 -72.15)" fill="#e4f6ff"/>
      </g>
      <g id="Grupo_999708" data-name="Grupo 999708" transform="translate(38.279 33.343)">
        <g id="Grupo_999700" data-name="Grupo 999700" transform="translate(30.524 30.537)">
          <path id="Trazado_704649" data-name="Trazado 704649" d="M0,0H10.133V6.08H0Z" transform="translate(0 7.164) rotate(-45)" fill="#2b4d66"/>
        </g>
        <g id="Grupo_999701" data-name="Grupo 999701" transform="translate(36.255 36.269)">
          <path id="Trazado_704650" data-name="Trazado 704650" d="M0,0H6.08V6.08H0Z" transform="translate(0 4.299) rotate(-45)" fill="#4a80aa"/>
        </g>
        <g id="Grupo_999702" data-name="Grupo 999702" transform="translate(39.136 39.136)">
          <path id="Trazado_704651" data-name="Trazado 704651" d="M391.506,445.38H377.175l-4.7-4.7,7.165-7.165Z" transform="translate(-372.472 -433.511)" fill="#407093"/>
        </g>
        <g id="Grupo_999703" data-name="Grupo 999703" transform="translate(43.912 39.136)">
          <path id="Trazado_704652" data-name="Trazado 704652" d="M403.432,433.511l-2.388,2.388,9.48,9.48H415.3Z" transform="translate(-401.044 -433.511)" fill="#365e7d"/>
        </g>
        <g id="Grupo_999704" data-name="Grupo 999704" transform="translate(0)">
          <circle id="Elipse_4863" data-name="Elipse 4863" cx="20.267" cy="20.267" r="20.267" fill="#407093"/>
        </g>
        <g id="Grupo_999705" data-name="Grupo 999705" transform="translate(4.126 4.126)">
          <path id="Trazado_704653" data-name="Trazado 704653" d="M191.469,224.113a20.267,20.267,0,0,1-28.4,28.4,20.267,20.267,0,1,0,28.4-28.4Z" transform="translate(-163.072 -224.113)" fill="#365e7d"/>
        </g>
        <g id="Grupo_999706" data-name="Grupo 999706" transform="translate(5.405 5.405)">
          <circle id="Elipse_4864" data-name="Elipse 4864" cx="14.862" cy="14.862" r="14.862" fill="#e4f6ff"/>
        </g>
        <g id="Grupo_999707" data-name="Grupo 999707" transform="translate(8.421 8.421)">
          <path id="Trazado_704654" data-name="Trazado 704654" d="M209.581,249.8a14.862,14.862,0,0,1-20.821,20.821A14.862,14.862,0,1,0,209.581,249.8Z" transform="translate(-188.76 -249.798)" fill="#d3effb"/>
        </g>
      </g>
      <g id="Grupo_999709" data-name="Grupo 999709" transform="translate(18.181 0)">
        <path id="Trazado_704655" data-name="Trazado 704655" d="M39.644,46.84A1.254,1.254,0,0,0,40.9,45.586V13.751a.435.435,0,0,1,.434-.435h60.8a.435.435,0,0,1,.434.435V28.867a1.254,1.254,0,1,0,2.508,0V13.751a2.944,2.944,0,0,0-1.689-2.658V8.347A2.944,2.944,0,0,0,101.7,5.689V2.943A2.946,2.946,0,0,0,98.755,0H44.71a2.946,2.946,0,0,0-2.943,2.943V5.689a2.944,2.944,0,0,0-1.689,2.658v2.746a2.943,2.943,0,0,0-1.688,2.658V45.586A1.254,1.254,0,0,0,39.644,46.84ZM42.586,8.347a.435.435,0,0,1,.435-.435h57.422a.435.435,0,0,1,.435.435v2.462H42.586Zm1.689-5.4a.435.435,0,0,1,.435-.435H98.755a.435.435,0,0,1,.435.435V5.4H44.275Z" transform="translate(-35.011 0)"/>
        <path id="Trazado_704656" data-name="Trazado 704656" d="M190.732,228.979a16.116,16.116,0,1,0,4.72,11.4A16.01,16.01,0,0,0,190.732,228.979ZM188.959,250a13.608,13.608,0,1,1,3.986-9.623A13.52,13.52,0,0,1,188.959,250Z" transform="translate(-138.971 -186.765)"/>
        <path id="Trazado_704657" data-name="Trazado 704657" d="M97.335,164.223l-5.713-5.713V143.155a1.254,1.254,0,0,0-1.254-1.254H88.245V115.481a1.254,1.254,0,0,0-2.508,0V141.9H78.7A21.52,21.52,0,0,0,46.36,116.633V98.23a1.254,1.254,0,0,0-1.254-1.254H28.217a1.254,1.254,0,0,0-1.254,1.254v20.942a1.254,1.254,0,0,0,1.254,1.254H42.156A21.565,21.565,0,0,0,38.387,141.9H24.068v-9.7a1.254,1.254,0,1,0-2.508,0v9.7H19.435a1.254,1.254,0,0,0-1.254,1.265l.187,21.955a1.254,1.254,0,0,0,1.254,1.243h7.45a1.254,1.254,0,1,0,0-2.508H20.865L20.7,144.408H39.507a21.555,21.555,0,0,0,29.117,8.981l3.6,3.6a1.254,1.254,0,0,0,1.773,0l.546-.547,2.526,2.526-.546.546a1.254,1.254,0,0,0,0,1.773l2.563,2.563H32.924a1.254,1.254,0,1,0,0,2.508h49.2a1.254,1.254,0,0,0,.884-2.14l-3.817-3.817,5.392-5.392L95.562,166a1.254,1.254,0,1,0,1.773-1.773ZM29.471,99.484H43.852v18.434H29.471ZM45.1,147.817a19.013,19.013,0,1,1,26.888,0A19.034,19.034,0,0,1,45.1,147.817Zm25.726,4.23a21.659,21.659,0,0,0,5.392-5.392l2.287,2.287-5.392,5.392Zm5.494,2.628,2.526-2.526,2.526,2.526L78.848,157.2Zm7.372-2.32-.546.546-2.526-2.526.546-.547a1.254,1.254,0,0,0,0-1.773l-3.6-3.6.023-.042H89.115V156l-3.648-3.648a1.254,1.254,0,0,0-1.773,0Z" transform="translate(-18.181 -80.763)"/>
        <path id="Trazado_704658" data-name="Trazado 704658" d="M238.066,96.976H207.328a1.254,1.254,0,0,0,0,2.508h30.738a1.254,1.254,0,1,0,0-2.508Z" transform="translate(-174.66 -80.763)"/>
        <path id="Trazado_704659" data-name="Trazado 704659" d="M239.32,130.555a1.254,1.254,0,0,0-1.254-1.254H207.328a1.254,1.254,0,0,0,0,2.508h30.738A1.254,1.254,0,0,0,239.32,130.555Z" transform="translate(-174.66 -107.683)"/>
        <path id="Trazado_704660" data-name="Trazado 704660" d="M207.329,161.626a1.254,1.254,0,1,0,0,2.508h20.6a1.254,1.254,0,0,0,0-2.508Z" transform="translate(-174.661 -134.604)"/>
      </g>
    </g>
  </g>
</svg>
