<svg xmlns="http://www.w3.org/2000/svg" width="135.053" height="135.053" viewBox="0 0 135.053 135.053">
  <g id="Grupo_895882" data-name="Grupo 895882" transform="translate(0 0)">
    <g id="Grupo_896020" data-name="Grupo 896020" transform="translate(0 0)">
      <path id="Trazado_113701" data-name="Trazado 113701" d="M135.053,67.526A67.526,67.526,0,1,1,67.526,0a67.526,67.526,0,0,1,67.526,67.526" transform="translate(0 0)" fill="#4db1f0"/>
      <g id="traductor_2_" data-name="traductor(2)" transform="translate(31.672 29.838)">
        <path id="Trazado_694881" data-name="Trazado 694881" d="M2.336,215.169A2.336,2.336,0,0,1,0,212.833v-47.5A2.336,2.336,0,0,1,2.336,163h46.1a2.336,2.336,0,0,1,2.336,2.336v39.09a2.336,2.336,0,0,1-2.336,2.336H17.528L3.5,214.856A2.334,2.334,0,0,1,2.336,215.169Z" transform="translate(0 -139.793)" fill="#ff5b5b"/>
        <path id="Trazado_694882" data-name="Trazado 694882" d="M94.647,242.889h-6.7v-.815a2.336,2.336,0,0,0-4.672,0v.815H76.627a2.336,2.336,0,0,0,0,4.672H87.481l-1.737,2.132-.48-.619a2.336,2.336,0,1,0-3.69,2.866l1.142,1.471-4.693,5.761a2.336,2.336,0,0,0,3.622,2.951l4.012-4.924,2.5,3.223a2.336,2.336,0,1,0,3.69-2.866l-3.165-4.075,4.623-5.675a2.355,2.355,0,0,0,.172-.245h1.168a2.336,2.336,0,0,0,0-4.673Z" transform="translate(-62.721 -204.582)" fill="#fcced3"/>
        <path id="Trazado_694883" data-name="Trazado 694883" d="M218.392,68.991a2.331,2.331,0,0,1-.81-.145L206.3,64.678a26.87,26.87,0,1,1,10.322-9.543l3.958,10.71a2.336,2.336,0,0,1-2.191,3.146Z" transform="translate(-140.992 -13.998)" fill="#f1f6ff"/>
        <path id="Trazado_694884" data-name="Trazado 694884" d="M366.406,65.849l-3.958-10.71A26.866,26.866,0,0,0,339.722,14V67.729a26.875,26.875,0,0,0,12.4-3.048l11.279,4.169a2.336,2.336,0,0,0,3-3Z" transform="translate(-286.815 -14.001)" fill="#fff"/>
        <path id="Trazado_694885" data-name="Trazado 694885" d="M287.249,121.357l-9.5-20.753a2.336,2.336,0,0,0-2.124-1.363h0a2.336,2.336,0,0,0-2.124,1.365l-9.462,20.7a2.336,2.336,0,1,0,4.249,1.943l2.563-5.606h9.561L283,123.3a2.336,2.336,0,0,0,4.248-1.946Zm-14.267-8.391,2.64-5.775,2.645,5.775Z" transform="translate(-222.736 -85.966)" fill="#a8ebfa"/>
        <path id="Trazado_694886" data-name="Trazado 694886" d="M351.328,121.361l-9.5-20.753a2.336,2.336,0,0,0-2.1-1.363v7.991l2.625,5.732h-2.625v4.672h4.765l2.594,5.665a2.336,2.336,0,1,0,4.248-1.945Z" transform="translate(-286.815 -85.97)" fill="#76e2f8"/>
      </g>
    </g>
  </g>
</svg>
