<svg id="Grupo_897184" data-name="Grupo 897184" xmlns="http://www.w3.org/2000/svg" xmlns:xlink="http://www.w3.org/1999/xlink" width="102.026" height="102.026" viewBox="0 0 102.026 102.026">
  <defs>
    <clipPath id="clip-path">
      <rect id="Rect치ngulo_33847" data-name="Rect치ngulo 33847" width="102.026" height="102.026" fill="none"/>
    </clipPath>
    <clipPath id="clip-path-2">
      <rect id="Rect치ngulo_34577" data-name="Rect치ngulo 34577" width="47.018" height="74.399" fill="none"/>
    </clipPath>
  </defs>
  <g id="Grupo_895964" data-name="Grupo 895964" transform="translate(0 0)">
    <g id="Grupo_156639" data-name="Grupo 156639" transform="translate(0 0)">
      <g id="Grupo_80331" data-name="Grupo 80331" transform="translate(0 0)" clip-path="url(#clip-path)">
        <path id="Trazado_113698" data-name="Trazado 113698" d="M102.026,51.013A51.013,51.013,0,1,1,51.013,0a51.013,51.013,0,0,1,51.013,51.013" fill="#4db1f0"/>
      </g>
    </g>
  </g>
  <g id="Grupo_897183" data-name="Grupo 897183" transform="translate(27.503 13.814)">
    <g id="Grupo_82197" data-name="Grupo 82197" clip-path="url(#clip-path-2)">
      <path id="Trazado_114095" data-name="Trazado 114095" d="M90.6,19.159c2.365,3.018,4.484,10.3,5.454,14.132a8.815,8.815,0,0,1,.733,1.365c.132-3.793.121-10.32-1.075-13.379C93.966,16.825,82.1,3.245,79.977,2.285a2.511,2.511,0,0,0-1.047-.226,3,3,0,0,0-2.394,1.277A2.755,2.755,0,0,0,76.2,5.913a25.261,25.261,0,0,0,2.267,3.935c5.11,3.285,10.5,7.234,12.132,9.312" transform="translate(-50.599 -1.37)" fill="#ffdcad"/>
      <path id="Trazado_114096" data-name="Trazado 114096" d="M45.75,19.656C44.048,15.3,32.19,1.434,29.662.287A3.2,3.2,0,0,0,28.331,0a3.692,3.692,0,0,0-2.957,1.569,3.428,3.428,0,0,0-.425,3.2A17.434,17.434,0,0,0,26.488,7.6c-3.917-2.45-7.441-4.359-8.652-4.523a3.7,3.7,0,0,0-3.711,2.065,3.652,3.652,0,0,0,.322,3.878c.885,1.206,3.664,3.486,6.607,5.9A67.019,67.019,0,0,1,27.9,20.981c-3.339-1.431-6.918-2.638-9.5-2.638a4.814,4.814,0,0,0-2.339.5C12.17,21.005.7,31.37.383,33.874A5.966,5.966,0,0,0,1.87,38.253,3.464,3.464,0,0,0,4.4,39.566h0a2.588,2.588,0,0,0,.481-.045c1-.187,2.788-1.6,5.055-3.4,3.23-2.557,7.271-5.775,9.469-5.52,1.136.131,2.339,1.195,3.388,2.994,1.876,3.217,2.675,7.791,1.746,9.987-1.494,3.532-3.313,5.884-7.333,5.884a13.143,13.143,0,0,1-2.38-.238c-5.017-.934-6.153-3.95-6.983-6.153-.175-.463-.339-.9-.523-1.268a5.386,5.386,0,0,0-4.443-2.391A2.29,2.29,0,0,0,.389,41.156a26.341,26.341,0,0,0,1.332,13.8,19.378,19.378,0,0,0,12.505,11.76,15.566,15.566,0,0,1,6.551,4.227c1.469,1.408,2.857,2.738,5.028,3.239a9.579,9.579,0,0,0,2.131.216A24.179,24.179,0,0,0,43.083,68.1c3.992-3.669,3.594-8.866,3.209-13.893a39.5,39.5,0,0,1-.174-5.644c.121-1.733.295-3.317.463-4.849.366-3.336.665-6.089.2-8.484.189-3.051.469-11.749-1.03-15.579M27.936,73.711a8.878,8.878,0,0,1-1.976-.2c-1.987-.458-3.247-1.667-4.706-3.065a16.149,16.149,0,0,0-6.824-4.388A18.7,18.7,0,0,1,2.362,54.709a25.985,25.985,0,0,1-1.3-13.4,1.646,1.646,0,0,1,1.818-1.2,4.7,4.7,0,0,1,3.827,2.011c.168.336.327.757.495,1.2.838,2.223,2.1,5.583,7.5,6.587a13.8,13.8,0,0,0,2.506.25c4.658,0,6.581-3.03,7.966-6.3,1.142-2.7-.037-7.6-1.785-10.6-1.161-1.992-2.548-3.175-3.9-3.331-2.445-.288-6.461,2.883-9.975,5.664-2.018,1.6-3.925,3.106-4.755,3.262a1.939,1.939,0,0,1-.354.033h0A2.8,2.8,0,0,1,2.386,37.8a5.317,5.317,0,0,1-1.32-3.838c.269-2.149,11.227-12.236,15.33-14.515a4.159,4.159,0,0,1,2.005-.413c5.816,0,17.02,6.408,18.279,7.138l.823.476c4.092,2.365,7.048,4.074,8.242,7.388.925,2.57.584,5.677.153,9.61-.169,1.539-.343,3.13-.465,4.876a40.049,40.049,0,0,0,.174,5.744c.372,4.863.757,9.891-2.989,13.334a23.8,23.8,0,0,1-14.681,6.113m.919-52.584c-.759-1.313-3.967-3.945-7.363-6.732C18.712,12.113,15.837,9.754,15,8.618a2.939,2.939,0,0,1-.263-3.16,3.011,3.011,0,0,1,3-1.693c2.438.329,18.593,10.47,21.711,14.449,2.005,2.559,3.869,8.454,4.938,12.384a28.843,28.843,0,0,0-6.546-4.548l-.821-.476c-.662-.384-4.044-2.319-7.981-4.091-.064-.127-.128-.248-.191-.357M25.937,1.966A3,3,0,0,1,28.331.688a2.516,2.516,0,0,1,1.047.226c2.118.96,13.989,14.54,15.731,18.992,1.2,3.059,1.207,9.587,1.075,13.38a8.8,8.8,0,0,0-.733-1.365c-.97-3.827-3.089-11.114-5.454-14.132-1.628-2.077-7.022-6.026-12.132-9.311A25.278,25.278,0,0,1,25.6,4.543a2.756,2.756,0,0,1,.339-2.577" transform="translate(0)" fill="#d79054"/>
      <path id="Trazado_114097" data-name="Trazado 114097" d="M65.683,33.022l.822.476a28.85,28.85,0,0,1,6.546,4.548c-1.068-3.93-2.933-9.825-4.938-12.384C64.995,21.682,48.84,11.54,46.4,11.212a3.011,3.011,0,0,0-3,1.693,2.939,2.939,0,0,0,.263,3.16c.834,1.136,3.709,3.495,6.489,5.777,3.4,2.787,6.6,5.419,7.363,6.732.063.108.127.229.191.357,3.937,1.772,7.318,3.707,7.98,4.091" transform="translate(-28.658 -7.447)" fill="#ffdcad"/>
      <path id="Trazado_114098" data-name="Trazado 114098" d="M46.987,92.144a40.051,40.051,0,0,1-.174-5.744c.122-1.747.3-3.338.465-4.876.431-3.933.772-7.04-.153-9.61-1.193-3.314-4.15-5.023-8.241-7.388l-.823-.476C36.8,63.319,25.6,56.911,19.782,56.911a4.159,4.159,0,0,0-2.005.413C13.675,59.6,2.716,69.69,2.447,71.839a5.317,5.317,0,0,0,1.32,3.838,2.8,2.8,0,0,0,2.016,1.079h0a1.944,1.944,0,0,0,.354-.033c.83-.156,2.736-1.665,4.755-3.262,3.514-2.782,7.531-5.953,9.975-5.664,1.356.157,2.743,1.339,3.9,3.331,1.747,3,2.927,7.9,1.785,10.6-1.385,3.274-3.309,6.3-7.966,6.3a13.8,13.8,0,0,1-2.506-.25c-5.4-1-6.664-4.364-7.5-6.587-.168-.446-.327-.867-.495-1.2A4.7,4.7,0,0,0,4.26,77.984a1.646,1.646,0,0,0-1.818,1.2,25.988,25.988,0,0,0,1.3,13.4A18.7,18.7,0,0,0,15.81,103.939a16.151,16.151,0,0,1,6.824,4.388c1.459,1.4,2.719,2.607,4.706,3.065a8.878,8.878,0,0,0,1.976.2A23.8,23.8,0,0,0,44,105.477c3.746-3.443,3.361-8.471,2.989-13.334" transform="translate(-1.381 -37.879)" fill="#ffdcad"/>
      <path id="Trazado_114099" data-name="Trazado 114099" d="M62.376,29.88c-1.065-.721-2.183-1.361-3.283-2.029A74.461,74.461,0,0,1,45.6,17.357a7.207,7.207,0,0,1-1.533-1.917,3.17,3.17,0,0,1-.282-.908,3.248,3.248,0,0,0-.392.6,2.939,2.939,0,0,0,.263,3.16c.834,1.136,3.709,3.495,6.488,5.776,3.4,2.787,6.6,5.419,7.363,6.732.063.108.126.23.191.357,3.937,1.772,7.319,3.707,7.98,4.091l.822.476c1.245.72,2.382,1.381,3.407,2.047a26.052,26.052,0,0,0-7.536-7.89" transform="translate(-28.658 -9.672)" fill="#fcca92"/>
      <path id="Trazado_114100" data-name="Trazado 114100" d="M96.782,35.266c.015-.428.028-.892.037-1.38q-.431-1.65-.877-3.3l-.9-3.361a26.965,26.965,0,0,0-1.066-3.367c-2-4.814-6.534-8-10-11.891a63.283,63.283,0,0,1-5.832-8.131,5.114,5.114,0,0,1-.462-.866,3.068,3.068,0,0,0-1.141.971A2.756,2.756,0,0,0,76.2,6.523a25.285,25.285,0,0,0,2.267,3.935c5.11,3.285,10.5,7.234,12.132,9.312,2.365,3.017,4.483,10.3,5.454,14.132a8.8,8.8,0,0,1,.733,1.365" transform="translate(-50.599 -1.98)" fill="#fcca92"/>
      <path id="Trazado_114101" data-name="Trazado 114101" d="M32.525,90.639a14.91,14.91,0,0,0-.661-3.593,15.855,15.855,0,0,0-1.415-2.782,11.543,11.543,0,0,0-3.53-4.193,7.873,7.873,0,0,0-7.111-.132,23.268,23.268,0,0,0-6,4.263L8.752,88.675a12.325,12.325,0,0,1-2.13,1.592c.057.073.111.148.171.217a2.8,2.8,0,0,0,2.016,1.08h0a1.914,1.914,0,0,0,.354-.033c.83-.155,2.736-1.664,4.755-3.262,3.514-2.782,7.531-5.952,9.975-5.664,1.357.156,2.743,1.34,3.9,3.331,1.748,3,2.927,7.9,1.785,10.6-1.385,3.274-3.309,6.3-7.967,6.3a13.691,13.691,0,0,1-2.384-.229,9.874,9.874,0,0,0,3.539.87,9.636,9.636,0,0,0,6.894-1.7,8.6,8.6,0,0,0,2.809-5.16,21.787,21.787,0,0,0,.051-5.979" transform="translate(-4.408 -52.686)" fill="#fcca92"/>
      <path id="Trazado_114102" data-name="Trazado 114102" d="M29.317,154.03a23.767,23.767,0,0,0,13.844-5.385,26.925,26.925,0,0,1-5.832,1.1,22.06,22.06,0,0,1-14.149-3.664,17.6,17.6,0,0,0-3.507-2.233c-1.525-.6-3.218-.548-4.818-.893-3.531-.761-6.42-3.431-8.232-6.555a34.479,34.479,0,0,1-3.443-10.225c-.389-1.82-.734-3.79-.044-5.5a1.37,1.37,0,0,0-.693.95,25.985,25.985,0,0,0,1.3,13.4,18.7,18.7,0,0,0,12.068,11.351,16.148,16.148,0,0,1,6.824,4.388c1.46,1.4,2.72,2.607,4.707,3.065a8.876,8.876,0,0,0,1.976.2" transform="translate(-1.382 -80.319)" fill="#fcca92"/>
      <path id="Trazado_114103" data-name="Trazado 114103" d="M24,73.634a6.9,6.9,0,0,0-2.482,2.082,13.627,13.627,0,0,0-2.155,2.795.162.162,0,0,0,.253.2c.9-.726,1.655-1.611,2.474-2.418a9.545,9.545,0,0,0,2.16-2.33c.075-.161-.049-.391-.249-.324" transform="translate(-12.876 -49.002)" fill="#fff9df"/>
      <path id="Trazado_114104" data-name="Trazado 114104" d="M37.324,67.686a1.134,1.134,0,0,0-.693.434,3.087,3.087,0,0,0-.539.687.222.222,0,0,0,.3.3,3.11,3.11,0,0,0,.7-.529,1.122,1.122,0,0,0,.443-.685.209.209,0,0,0-.21-.21" transform="translate(-24.003 -45.051)" fill="#fff9df"/>
      <path id="Trazado_114105" data-name="Trazado 114105" d="M76.112,27.237a8.946,8.946,0,0,0-2.723-1.993c-1.2-.739-2.461-1.348-3.719-1.978a.065.065,0,0,0-.065.112c1.05.676,2.074,1.4,3.1,2.1a12.516,12.516,0,0,0,3.2,2.023c.144.042.3-.135.206-.269" transform="translate(-46.308 -15.481)" fill="#fff9df"/>
      <path id="Trazado_114106" data-name="Trazado 114106" d="M93.666,38.144a1.862,1.862,0,0,0-.5-.632,2.8,2.8,0,0,0-.827-.446c-.2-.064-.419.19-.286.371a2.251,2.251,0,0,0,1.446.928.152.152,0,0,0,.17-.221" transform="translate(-61.24 -24.664)" fill="#fff9df"/>
      <path id="Trazado_114107" data-name="Trazado 114107" d="M98.558,16.128a8.93,8.93,0,0,0-2.519-3.074c-.109-.084-.253.076-.184.184a17.487,17.487,0,0,0,2.492,3.053.135.135,0,0,0,.211-.163" transform="translate(-63.788 -8.673)" fill="#fff9df"/>
      <path id="Trazado_114108" data-name="Trazado 114108" d="M19.066,132.027c-.367-.781-.9-1.472-1.311-2.232a7.98,7.98,0,0,0-1.1-2.03c-.047-.045-.151-.033-.162.043a3.918,3.918,0,0,0,.584,2.052,7.132,7.132,0,0,0,1.638,2.441.227.227,0,0,0,.355-.274" transform="translate(-10.965 -85.022)" fill="#fff9df"/>
      <path id="Trazado_114109" data-name="Trazado 114109" d="M28,144.958a6.046,6.046,0,0,0-1.183-.887c-.315-.243-.737.141-.449.449a2.006,2.006,0,0,0,1.479.806.218.218,0,0,0,.152-.367" transform="translate(-17.487 -95.841)" fill="#fff9df"/>
      <path id="Trazado_114110" data-name="Trazado 114110" d="M116.791,87.331a6.094,6.094,0,0,0-1.9-1.214,17.153,17.153,0,0,0-2.352-1.023c-.1-.031-.188.11-.1.18a15.07,15.07,0,0,0,1.845,1.266,7.078,7.078,0,0,0,2.32,1.125.2.2,0,0,0,.194-.333" transform="translate(-74.812 -56.635)" fill="#fff9df"/>
      <path id="Trazado_114111" data-name="Trazado 114111" d="M129.148,96.109c-.077-.3-.3-.412-.537-.581-.269-.187-.557-.342-.825-.533-.145-.1-.361.105-.25.25.334.435.862,1.208,1.488,1.081a.179.179,0,0,0,.124-.218" transform="translate(-84.866 -63.209)" fill="#fff9df"/>
      <path id="Trazado_114112" data-name="Trazado 114112" d="M76.967,135.367c-1.019.875-1.506,2.342-2.164,3.491-.913,1.593-2.27,3.02-4.211,3.106-.11.005-.145.181-.027.2a4.328,4.328,0,0,0,3.813-1.4,10.211,10.211,0,0,0,1.586-2.265,8.659,8.659,0,0,0,1.389-2.91.233.233,0,0,0-.387-.225" transform="translate(-46.919 -90.056)" fill="#fcca92"/>
      <path id="Trazado_114113" data-name="Trazado 114113" d="M93.895,130.727a.237.237,0,0,0-.473,0,10.874,10.874,0,0,1-.2,2.05,8.585,8.585,0,0,0-.323,1.633c0,.168.238.3.358.148.78-.972.727-2.656.634-3.831" transform="translate(-61.835 -86.859)" fill="#fcca92"/>
      <path id="Trazado_114114" data-name="Trazado 114114" d="M109.413,199.437c-1.847.347-4.119,1.615-5.986.906-.174-.066-.258.192-.12.285,1.757,1.188,4.709.366,6.268-.808a.211.211,0,0,0-.162-.383" transform="translate(-68.714 -132.74)" fill="#fcca92"/>
      <path id="Trazado_114115" data-name="Trazado 114115" d="M121.5,194.742c-.32-.13-.623.067-.914.2a6.9,6.9,0,0,0-.979.577.242.242,0,0,0,.244.418c.313-.136.633-.251.946-.385s.669-.212.816-.529a.193.193,0,0,0-.112-.277" transform="translate(-79.533 -129.589)" fill="#fcca92"/>
      <path id="Trazado_114116" data-name="Trazado 114116" d="M107.945,61.236a5.523,5.523,0,0,0-1.586-1.408,20.889,20.889,0,0,0-2.3-1.623.13.13,0,0,0-.156.2,18.842,18.842,0,0,0,1.849,1.741,6.273,6.273,0,0,0,1.917,1.443.244.244,0,0,0,.273-.355" transform="translate(-69.136 -38.728)" fill="#fcca92"/>
      <path id="Trazado_114117" data-name="Trazado 114117" d="M113.21,61.262a3.7,3.7,0,0,1-.777-.77c-.111-.165-.376-.015-.269.158a1.856,1.856,0,0,0,.926.82.124.124,0,0,0,.12-.207" transform="translate(-74.639 -40.215)" fill="#fcca92"/>
      <path id="Trazado_114118" data-name="Trazado 114118" d="M125.826,53.248a1.083,1.083,0,0,0-.16-.451,5.881,5.881,0,0,0-.412-.449,2.905,2.905,0,0,0-.96-.6c-.2-.079-.33.244-.145.344a2.287,2.287,0,0,1,.722.643c.111.142.213.288.315.437a1.22,1.22,0,0,0,.38.281.179.179,0,0,0,.261-.2" transform="translate(-82.573 -34.432)" fill="#fcca92"/>
    </g>
  </g>
</svg>
