<svg xmlns="http://www.w3.org/2000/svg" xmlns:xlink="http://www.w3.org/1999/xlink" width="1240" height="408" viewBox="0 0 1240 408">
  <defs>
    <clipPath id="clip-path">
      <rect id="Rectangle" width="1240" height="408" rx="20" fill="#f6f6f6"/>
    </clipPath>
    <clipPath id="clip-path-2">
      <rect id="Rectángulo_344393" data-name="Rectángulo 344393" width="1240.996" height="408" rx="20" fill="#fceae8"/>
    </clipPath>
    <clipPath id="clip-path-3">
      <path id="Trazado_695617" data-name="Trazado 695617" d="M730.119,0c11.189.09,19.589,3.99,23.854,11.029,4.1,6.628,4.384,16.08,0,27.774-15.432,40.342-75.86,77.665-112.1,129.319-36.1,51.647-37.507,58.753-37.507,58.753l3.245,17.739s46.992-13.644,96.675-51.55c49.683-38,142.245-85.264,165.741-98.325s57.747-22.117,79.962,0c7.933,7.9,7.087,17.343,1.129,27.385-10.744,18.03-38.353,38-62.554,54.77-37.789,25.913-122.428,79.9-144.513,91.989-22.215,12.172-71.888,39.856-82.642,57.886-8.074,13.442-22.226,34.005-24.494,68.011a169.8,169.8,0,0,0,2.691,40.058c10.9,59.246,93.56,38.683,46.851,90.532C639.608,577.107,536.7,629.344,463.547,645.716c-63.694,43.854-134.192,153.97-134.192,153.97s-58.311,3.99-131.772-17.148c-50.66-14.526-108.7-41.126-159.642-89.366A358.8,358.8,0,0,1,0,651.268c100.354-50.377,189.1-138.084,189.1-138.084-40.057-64.32-46.134-144.122-48.826-194.02,12.871-30.792,59.733-59.44,44.018-136.231-17.125-84.2,11.319-79.809,59.158-54.965,1.281.687,2.55,1.367,3.679,2.047,45.722,26.22,72.463,88.387,43.313,155.337,0,0,1.281,8.376,9.062,10.424,100.918-1.853,170.125-62.467,209.336-105.439C548.175,147.454,620.638,58,674,21.355,695.152,6.74,714.567.127,729.305,0Z" transform="translate(0)" fill="none"/>
    </clipPath>
    <linearGradient id="linear-gradient" x1="0.168" y1="0.061" x2="0.176" y2="0.061" gradientUnits="objectBoundingBox">
      <stop offset="0" stop-color="#f8c5a1"/>
      <stop offset="0.699" stop-color="#f9bb9a"/>
      <stop offset="1" stop-color="#fab597"/>
    </linearGradient>
    <clipPath id="clip-path-4">
      <path id="Trazado_695618" data-name="Trazado 695618" d="M303.369,30.75c1.281.687,2.55,1.367,3.679,2.047-38.071-8.473-51.94-2.63-51.94,21.049,0,27.968,40.621,51.259,25.753,67.144-15,15.886-49.238,76.791-45.147,133.407,3.972,56.616,2.691,75.625,24.777,115.668,22.215,40.148,28.868,70.365,104.869,104.856C236.572,465.274,190,495.1,155.329,519.073c-24.494,16.857-46.427,55.443-57.464,76.88a358.8,358.8,0,0,1-37.941-41.9c100.354-50.377,189.1-138.084,189.1-138.084-40.057-64.32-46.134-144.122-48.826-194.02,12.871-30.793,59.733-59.44,44.018-136.231-10.722-52.693-3.592-70.693,14.977-70.693,11.091,0,26.285,6.433,44.181,15.729" transform="translate(-59.924 -15.021)" fill="none"/>
    </clipPath>
    <linearGradient id="linear-gradient-2" x1="3.129" y1="1.184" x2="3.094" y2="1.184" gradientUnits="objectBoundingBox">
      <stop offset="0" stop-color="#f7b08a"/>
      <stop offset="0.394" stop-color="#f0a582"/>
      <stop offset="1" stop-color="#e38c72"/>
    </linearGradient>
    <clipPath id="clip-path-5">
      <path id="Trazado_695619" data-name="Trazado 695619" d="M436.373,108.8c4.254,2.436,13.739,4.289,26.47,5.649a169.8,169.8,0,0,0,2.691,40.058c10.9,59.246,93.56,38.683,46.851,90.532C465.534,296.775,362.63,349.012,289.472,365.384c-63.694,43.854-134.192,153.97-134.192,153.97S96.969,523.344,23.508,502.2c78.128-6.142,128.94-26.317,160.228-67.832,38.635-51.259,28.456-100.761,28.456-100.761s76.142,7.211,161.91-21.243,88.036-80.684,88.036-80.684-45.006-8.869-53.08-27.482c-8.2-18.71-18.688-15.886-33.252-21.729C361.219,176.624,345.927,158.4,350.041,147c4.243-11.3,47.133-28.446,47.133-28.446l-2.409-28.461,8.5,9.362s3.527-20.862-9.485-56.138c13.87,33.527,20.1,52.432,42.6,65.485" transform="translate(-23.508 -43.314)" fill="none"/>
    </clipPath>
    <linearGradient id="linear-gradient-3" x1="1.416" y1="0.992" x2="1.395" y2="0.992" xlink:href="#linear-gradient-2"/>
    <clipPath id="clip-path-6">
      <path id="Trazado_695621" data-name="Trazado 695621" d="M192.378,76.427c4.677,5.163,17.277,18.912,11.189,30.6-2.55,5.066-9.908,15.109-22.226,25.442a131.986,131.986,0,0,1-44.3,24.456,144.484,144.484,0,0,1-30.713,6.037C49.72,157.6,16.175,134.313,16.175,97.969,62.461,101.765,157.421,54.5,157.421,54.5c20.392,4.483,30.159,16.857,34.956,21.923" transform="translate(-16.175 -54.504)" fill="none"/>
    </clipPath>
    <linearGradient id="linear-gradient-4" x1="-0.669" y1="-1.511" x2="-0.621" y2="-1.511" xlink:href="#linear-gradient"/>
    <clipPath id="clip-path-7">
      <path id="Trazado_695622" data-name="Trazado 695622" d="M449.214,0C460.4.09,468.8,3.99,473.068,11.029c-43.031-9.549-83.652,11.208-83.652,37.323,0,29.627-18.959,32.354-36.1,39.856s-51.094,27.385-51.094,44.145c0,16.857-21.651.291-35.662,38.885s-17.125,22.409-43.313,47.948c-26.177,25.428-42.032,59.343-84.5,69.573-42.466,10.326-81.242,21.826-96.675,20.563-15.28-1.27-23.485-13.547-23.485-13.547,100.918-1.853,170.125-62.467,209.336-105.439C267.27,147.454,339.733,58,393.1,21.355,414.247,6.74,433.662.127,448.4,0Z" transform="translate(-18.594)" fill="none"/>
    </clipPath>
    <linearGradient id="linear-gradient-5" x1="1.444" y1="2.576" x2="1.42" y2="2.576" xlink:href="#linear-gradient-2"/>
    <clipPath id="clip-path-8">
      <path id="Trazado_695623" data-name="Trazado 695623" d="M342.378,24.29c7.933,7.9,7.087,17.343,1.129,27.385-2.681-22.125-20.935-26.406-42.738-26.406-25.189,0-65.962,19.584-76.283,39.169-10.484,19.592-23.919,32.653-55.62,38.2-31.57,5.649-66.385,26.795-69.077,41.709S36.1,170.758,23.507,191.612C10.755,212.467,0,174.165,0,174.165s46.992-13.644,96.675-51.55c49.683-38,142.245-85.264,165.741-98.325,13.2-7.33,29.769-13.4,45.711-13.4,12.448,0,24.505,3.706,34.251,13.4" transform="translate(0 -10.885)" fill="none"/>
    </clipPath>
    <linearGradient id="linear-gradient-6" x1="0.994" y1="3.564" x2="0.963" y2="3.564" xlink:href="#linear-gradient-2"/>
    <clipPath id="clip-path-9">
      <path id="Trazado_695624" data-name="Trazado 695624" d="M192.378,76.427c4.677,5.163,17.277,18.912,11.189,30.6-2.55,5.066-9.908,15.109-22.226,25.442-2.116-34.992-19.947-48.143-44.018-42.494C109.735,96.5,76.9,102.938,76.9,117.456c0,11.589,30.138,29.231,60.145,39.468a144.484,144.484,0,0,1-30.713,6.037C49.72,157.6,16.175,134.313,16.175,97.969,62.461,101.765,157.421,54.5,157.421,54.5c20.392,4.483,30.159,16.857,34.956,21.923" transform="translate(-16.175 -54.504)" fill="none"/>
    </clipPath>
    <linearGradient id="linear-gradient-7" x1="1.884" y1="3.621" x2="1.828" y2="3.621" xlink:href="#linear-gradient-2"/>
    <clipPath id="clip-path-10">
      <path id="Trazado_695626" data-name="Trazado 695626" d="M217.714,54.13s25.471,19.592,29.432,29.627c2.127,5.066,1.7,14.227-.847,23.29-2.4,9.064-7.076,17.836-13.729,22.416-10.191,7.009-54.068,27.669-91.433,39.079a195.073,195.073,0,0,1-30.854,7.106c-22.79,2.832-45.993-.777-62.978-7.4-12.177-4.67-20.956-10.812-24.342-17.343-3.679-6.919-5.947-15.206-2.127-22.708,4.808-9.355,19.383-17.343,53.221-19.495,0-16.558,44.441-25.622,44.441-25.622S111,59.981,148.638,43.9A240.293,240.293,0,0,1,217.714,54.13" transform="translate(-18.86 -43.901)" fill="none"/>
    </clipPath>
    <linearGradient id="linear-gradient-8" x1="-0.602" y1="-1.45" x2="-0.565" y2="-1.45" xlink:href="#linear-gradient"/>
    <clipPath id="clip-path-11">
      <path id="Trazado_695627" data-name="Trazado 695627" d="M217.714,54.13s25.471,19.592,29.432,29.627c2.127,5.066,1.7,14.227-.847,23.29-23.767-38.5-40.187-38.2-63.119-36.74-24.918,1.562-33.263,5.559-41.2,24.561-7.781,19-56.477,12.568-56.477,33.326,0,16.76,28.455,32.257,55.63,40.349a195.073,195.073,0,0,1-30.854,7.106c-22.79,2.832-45.993-.777-62.978-7.4-12.177-4.67-20.956-10.812-24.342-17.343-3.679-6.919-5.947-15.206-2.127-22.708,4.808-9.355,19.383-17.343,53.221-19.495,0-16.558,44.441-25.622,44.441-25.622S111,59.981,148.638,43.9A240.293,240.293,0,0,1,217.714,54.13" transform="translate(-18.86 -43.901)" fill="none"/>
    </clipPath>
    <linearGradient id="linear-gradient-9" x1="1.878" y1="3.507" x2="1.831" y2="3.507" xlink:href="#linear-gradient-2"/>
    <clipPath id="clip-path-12">
      <path id="Trazado_695629" data-name="Trazado 695629" d="M52.672,62.49S48.439,80.228,65.847,95.232C53.67,90.562,44.89,84.42,41.5,77.89c-3.679-6.919-5.947-15.206-2.127-22.708,5.513,5.358,13.294,7.308,13.294,7.308" transform="translate(-37.4 -55.182)" fill="none"/>
    </clipPath>
    <linearGradient id="linear-gradient-10" x1="-6.473" y1="-14.843" x2="-6.293" y2="-14.843" xlink:href="#linear-gradient-2"/>
    <clipPath id="clip-path-13">
      <path id="Trazado_695631" data-name="Trazado 695631" d="M44.585,238.72C90.926,192.258,94.1,131.54,52.714,82.9c17.787,3.31,31.852,12.673,37.268,24.8,3.788-20.877.955-42.068-8.3-62.123C141.825,107.188,125.926,190,44.585,238.72" transform="translate(-44.585 -45.581)" fill="none"/>
    </clipPath>
    <linearGradient id="linear-gradient-11" x1="-2.662" y1="-1.28" x2="-2.595" y2="-1.28" xlink:href="#linear-gradient-2"/>
    <clipPath id="clip-path-14">
      <rect id="Rectángulo_344392" data-name="Rectángulo 344392" width="955.755" height="799.985" fill="none"/>
    </clipPath>
  </defs>
  <g id="Grupo_999582" data-name="Grupo 999582" transform="translate(6048 5783)">
    <rect id="Rectángulo_344384" data-name="Rectángulo 344384" width="1240" height="408" transform="translate(-6048 -5783)" fill="#fff"/>
    <g id="Rectángulo_344385" data-name="Rectángulo 344385" transform="translate(-6048 -5783)" fill="#112e4c" stroke="#707070" stroke-width="1">
      <rect width="1240" height="408" stroke="none"/>
      <rect x="0.5" y="0.5" width="1239" height="407" fill="none"/>
    </g>
    <g id="Enmascarar_grupo_89" data-name="Enmascarar grupo 89" transform="translate(-6048 -5783)" clip-path="url(#clip-path)">
      <g id="Grupo_896341" data-name="Grupo 896341" transform="translate(0 0)">
        <g id="Enmascarar_grupo_88" data-name="Enmascarar grupo 88" clip-path="url(#clip-path-2)">
          <g id="Grupo_896340" data-name="Grupo 896340" transform="translate(468.552 -72.085)" opacity="0.07">
            <g id="Grupo_896317" data-name="Grupo 896317" transform="translate(0)">
              <g id="Grupo_896316" data-name="Grupo 896316" clip-path="url(#clip-path-3)">
                <path id="Trazado_695616" data-name="Trazado 695616" d="M0,1416.66l1049.705-152.708L1189.874,0,140.169,152.708Z" transform="translate(38.09 1215.049) rotate(-111.509)" fill="url(#linear-gradient)"/>
              </g>
            </g>
            <g id="Grupo_896319" data-name="Grupo 896319" transform="translate(0 112.238)">
              <g id="Grupo_896318" data-name="Grupo 896318" clip-path="url(#clip-path-4)">
                <rect id="Rectángulo_344386" data-name="Rectángulo 344386" width="305.435" height="580.933" transform="translate(0 0)" fill="url(#linear-gradient-2)"/>
              </g>
            </g>
            <g id="Grupo_896321" data-name="Grupo 896321" transform="translate(197.582 323.646)">
              <g id="Grupo_896320" data-name="Grupo 896320" clip-path="url(#clip-path-5)">
                <rect id="Rectángulo_344387" data-name="Rectángulo 344387" width="535.586" height="480.03" transform="translate(0 0)" fill="url(#linear-gradient-3)"/>
              </g>
            </g>
            <g id="Grupo_896323" data-name="Grupo 896323" transform="translate(591.206 407.259)">
              <g id="Grupo_896322" data-name="Grupo 896322" clip-path="url(#clip-path-6)">
                <path id="Trazado_695620" data-name="Trazado 695620" d="M0,257.387l173.049-29.273L204.27,0,31.221,29.273Z" transform="matrix(-0.463, -0.887, 0.887, -0.463, 29.887, 204.309)" fill="url(#linear-gradient-4)"/>
              </g>
            </g>
            <g id="Grupo_896325" data-name="Grupo 896325" transform="translate(299.499)">
              <g id="Grupo_896324" data-name="Grupo 896324" clip-path="url(#clip-path-7)">
                <rect id="Rectángulo_344388" data-name="Rectángulo 344388" width="454.474" height="310.585" transform="translate(0)" fill="url(#linear-gradient-5)"/>
              </g>
            </g>
            <g id="Grupo_896327" data-name="Grupo 896327" transform="translate(607.615 81.334)">
              <g id="Grupo_896326" data-name="Grupo 896326" clip-path="url(#clip-path-8)">
                <rect id="Rectángulo_344389" data-name="Rectángulo 344389" width="350.311" height="201.582" transform="translate(0 0)" fill="url(#linear-gradient-6)"/>
              </g>
            </g>
            <g id="Grupo_896329" data-name="Grupo 896329" transform="translate(591.206 407.259)">
              <g id="Grupo_896328" data-name="Grupo 896328" clip-path="url(#clip-path-9)">
                <rect id="Rectángulo_344390" data-name="Rectángulo 344390" width="193.48" height="108.457" transform="translate(0 0)" fill="url(#linear-gradient-7)"/>
              </g>
            </g>
            <g id="Grupo_896331" data-name="Grupo 896331" transform="translate(521.433 328.032)">
              <g id="Grupo_896330" data-name="Grupo 896330" clip-path="url(#clip-path-10)">
                <path id="Trazado_695625" data-name="Trazado 695625" d="M0,314.734l226.716-41.3L269.554,0,42.838,41.3Z" transform="matrix(-0.544, -0.839, 0.839, -0.544, 55.605, 266)" fill="url(#linear-gradient-8)"/>
              </g>
            </g>
            <g id="Grupo_896333" data-name="Grupo 896333" transform="translate(521.433 328.032)">
              <g id="Grupo_896332" data-name="Grupo 896332" clip-path="url(#clip-path-11)">
                <rect id="Rectángulo_344391" data-name="Rectángulo 344391" width="232.256" height="134.58" transform="translate(-1.843 0)" fill="url(#linear-gradient-9)"/>
              </g>
            </g>
            <g id="Grupo_896335" data-name="Grupo 896335" transform="translate(521.433 412.325)">
              <g id="Grupo_896334" data-name="Grupo 896334" clip-path="url(#clip-path-12)">
                <path id="Trazado_695628" data-name="Trazado 695628" d="M0,36.212l41.693-1.483L42.547,0,.855,1.483Z" transform="translate(-3.065 42.665) rotate(-94.538)" fill="url(#linear-gradient-10)"/>
              </g>
            </g>
            <g id="Grupo_896337" data-name="Grupo 896337" transform="translate(398.442 340.585)">
              <g id="Grupo_896336" data-name="Grupo 896336" clip-path="url(#clip-path-13)">
                <path id="Trazado_695630" data-name="Trazado 695630" d="M0,220.184l158.074-11.526L179.249,0,21.175,11.526Z" transform="matrix(-0.972, -0.237, 0.237, -0.972, 109.635, 224.749)" fill="url(#linear-gradient-11)"/>
              </g>
            </g>
            <g id="Grupo_896339" data-name="Grupo 896339" transform="translate(0.011)">
              <g id="Grupo_896338" data-name="Grupo 896338" clip-path="url(#clip-path-14)">
                <path id="Trazado_695632" data-name="Trazado 695632" d="M143.924,40.47c-2.854-1.569-5.936-2.892-8.964-4.341-3.234-1.151-6.446-2.369-9.778-3.43a116.951,116.951,0,0,0-21.152-4.409,103.373,103.373,0,0,0-22.237-.149c-7.315.844-14.673,2.354-20.533,5.485a122.832,122.832,0,0,1,20.978-1.748A191.885,191.885,0,0,1,102.9,33.1c6.881.65,13.587,1.965,20.446,3.116Z" transform="translate(147.001 178.671)" fill="#e08172"/>
                <path id="Trazado_695633" data-name="Trazado 695633" d="M103.069,50.343c-12.991-3.026-25.677-5.44-37.55-9.123A137.21,137.21,0,0,1,48.35,35.047a59.225,59.225,0,0,1-14.727-8.966C35.24,30.781,39.9,34.741,45.007,38a70.619,70.619,0,0,0,17.679,7.689,117.539,117.539,0,0,0,19.882,4l10.223.785c3.451-.045,6.848.067,10.277-.127" transform="translate(487.79 168.799)" fill="#e08172"/>
                <path id="Trazado_695634" data-name="Trazado 695634" d="M81.578,42.03c-9.778-3.8-19.133-7.039-27.859-11.036A115.805,115.805,0,0,1,29.627,16.842c1.031,3.863,4.1,7.3,7.6,10.371a53.245,53.245,0,0,0,12.611,7.846,77.417,77.417,0,0,0,15.259,4.976,81.515,81.515,0,0,0,16.485,2" transform="translate(552.647 109.003)" fill="#e08172"/>
                <path id="Trazado_695635" data-name="Trazado 695635" d="M72.225,29.112c-5.676-5.32-13.284-9.206-21.239-12.441A97.748,97.748,0,0,0,24.8,10.14c7.174,4.341,14.868,7.584,22.671,10.752,3.983,1.487,7.868,3.056,12.025,4.371,4.113,1.352,8.183,2.765,12.73,3.848" transform="translate(614.397 65.627)" fill="#e08172"/>
                <path id="Trazado_695636" data-name="Trazado 695636" d="M64.149,54.42c-5.708-2.234-11.363-4.072-16.485-6.5A112.712,112.712,0,0,1,33.154,40.2,99.466,99.466,0,0,1,9.94,20.213c.543,4.521,2.974,8.839,6.132,12.837A47.314,47.314,0,0,0,28.389,43.8,74.294,74.294,0,0,0,64.149,54.42" transform="translate(783.732 130.82)" fill="#e08172"/>
                <path id="Trazado_695637" data-name="Trazado 695637" d="M62.051,68.51c-4.015-3.37-8.237-6.321-11.97-9.594C46.315,55.7,42.593,52.5,39.2,49.12A274.745,274.745,0,0,1,19.6,28.079c.434,4.356,2.333,8.526,4.7,12.531a52.423,52.423,0,0,0,9.149,11.35A71.673,71.673,0,0,0,62.051,68.51" transform="translate(681.037 181.73)" fill="#e08172"/>
                <path id="Trazado_695638" data-name="Trazado 695638" d="M52.453,68.632c-1.519-3.22-3.527-6.1-5.285-9.056l-5.491-8.683c-3.8-5.739-7.347-11.462-11.808-17.4a21.773,21.773,0,0,0,.944,9.938,35.937,35.937,0,0,0,4.406,9.445A47.112,47.112,0,0,0,52.453,68.632" transform="translate(581.772 216.757)" fill="#e08172"/>
                <path id="Trazado_695639" data-name="Trazado 695639" d="M55.076,84.377c.89-7.547-2.648-15.28-8.812-21.632A46.817,46.817,0,0,0,35.1,54.3a50.031,50.031,0,0,0-14.347-5.537c7.423,5.522,14.054,10.8,19.643,16.693A93.017,93.017,0,0,1,48.239,74.5c2.529,3.123,4.363,6.463,6.837,9.878" transform="translate(675.358 315.612)" fill="#e08172"/>
                <path id="Trazado_695640" data-name="Trazado 695640" d="M64.738,90.118c-3.028-2.944-6.284-5.47-9.105-8.227-2.854-2.72-5.589-5.432-8.1-8.242A134.683,134.683,0,0,1,33.884,55.716c-.76,3.587.054,7.188,1.389,10.648a31.468,31.468,0,0,0,6.262,9.856,49.868,49.868,0,0,0,23.2,13.9" transform="translate(526.457 360.599)" fill="#e08172"/>
                <path id="Trazado_695641" data-name="Trazado 695641" d="M63.256,97.257C59.6,94.47,56.017,92,52.848,89.247c-3.082-2.787-6.273-5.447-9.073-8.361-5.85-5.709-11.07-11.686-17.1-17.843a27.222,27.222,0,0,0,3.733,10.8,44.909,44.909,0,0,0,7.575,9.833A51.5,51.5,0,0,0,63.256,97.257" transform="translate(603.039 408.014)" fill="#e08172"/>
                <path id="Trazado_695642" data-name="Trazado 695642" d="M42.07,94.908c.695-7.24-2.464-14.279-6.62-20.7A60.175,60.175,0,0,0,17.673,56.965c3.1,6.867,7.26,13.054,11.363,19.285,4.276,6.2,8.335,12.247,13.034,18.658" transform="translate(721.79 368.683)" fill="#e08172"/>
                <path id="Trazado_695643" data-name="Trazado 695643" d="M123.323,110.622l-19.546-6.874c-6.349-2.4-12.8-4.61-19.057-7.083-12.708-4.737-25.124-9.774-38.3-14.5a102.1,102.1,0,0,0,16.3,10.394,161.611,161.611,0,0,0,18.59,8.369c13,4.842,27.164,8.63,42.01,9.691" transform="translate(328.633 531.799)" fill="#e08172"/>
                <path id="Trazado_695644" data-name="Trazado 695644" d="M59,69.587c4.981,7.816,13.164,14.578,22.1,20.5A192.109,192.109,0,0,0,110.66,105.67,292.152,292.152,0,0,0,178.934,125.1c-22.2-7.36-44-14.705-64.529-23.567C93.969,92.668,74.044,83.014,59,69.587" transform="translate(136.497 450.373)" fill="#e08172"/>
              </g>
            </g>
          </g>
        </g>
      </g>
    </g>
  </g>
</svg>
