<svg xmlns="http://www.w3.org/2000/svg" xmlns:xlink="http://www.w3.org/1999/xlink" width="136.546" height="136.546" viewBox="0 0 136.546 136.546">
  <defs>
    <filter id="Elipse_4874" x="0" y="0" width="136.546" height="136.546" filterUnits="userSpaceOnUse">
      <feOffset dy="3" input="SourceAlpha"/>
      <feGaussianBlur stdDeviation="3" result="blur"/>
      <feFlood flood-opacity="0.161"/>
      <feComposite operator="in" in2="blur"/>
      <feComposite in="SourceGraphic"/>
    </filter>
  </defs>
  <g id="Grupo_1003704" data-name="Grupo 1003704" transform="translate(-679 -5672)">
    <g transform="matrix(1, 0, 0, 1, 679, 5672)" filter="url(#Elipse_4874)">
      <circle id="Elipse_4874-2" data-name="Elipse 4874" cx="59.273" cy="59.273" r="59.273" transform="translate(9 6)" fill="#0098e8"/>
    </g>
    <g id="Layer_26" transform="translate(703.975 5696.075)">
      <g id="Grupo_999963" data-name="Grupo 999963" transform="translate(0.025 -0.075)">
        <g id="Grupo_999941" data-name="Grupo 999941" transform="translate(19.401 19.417)">
          <g id="Grupo_999937" data-name="Grupo 999937">
            <path id="Trazado_705304" data-name="Trazado 705304" d="M129.594,123.5h32.98a6.09,6.09,0,0,1,6.094,6.094v32.98a6.09,6.09,0,0,1-6.094,6.094h-32.98a6.09,6.09,0,0,1-6.094-6.094v-32.98a6.09,6.09,0,0,1,6.094-6.094Z" transform="translate(-122.509 -122.509)" fill="#d1d3d4"/>
            <path id="Trazado_705305" data-name="Trazado 705305" d="M157.548,164.633H124.585a7.083,7.083,0,0,1-7.085-7.085V124.585a7.083,7.083,0,0,1,7.085-7.085h32.963a7.083,7.083,0,0,1,7.085,7.085v32.963A7.083,7.083,0,0,1,157.548,164.633Zm-32.963-45.151a5.1,5.1,0,0,0-5.1,5.1v32.963a5.1,5.1,0,0,0,5.1,5.1h32.963a5.1,5.1,0,0,0,5.1-5.1V124.585a5.1,5.1,0,0,0-5.1-5.1Z" transform="translate(-117.5 -117.5)"/>
          </g>
          <g id="Grupo_999938" data-name="Grupo 999938" transform="translate(4.987 6.573)">
            <circle id="Elipse_4880" data-name="Elipse 4880" cx="2.031" cy="2.031" r="2.031" transform="translate(1.008 1.008)" fill="#112e4c"/>
            <path id="Trazado_705306" data-name="Trazado 705306" d="M150.738,163.344a3.022,3.022,0,1,1,3.006-3.039v.033A3.038,3.038,0,0,1,150.738,163.344Zm0-4.046a1.041,1.041,0,1,0,1.024,1.057v-.017A1.054,1.054,0,0,0,150.738,159.3Z" transform="translate(-147.699 -157.299)"/>
          </g>
          <g id="Grupo_999939" data-name="Grupo 999939" transform="translate(34.78 6.573)">
            <circle id="Elipse_4881" data-name="Elipse 4881" cx="2.031" cy="2.031" r="2.031" transform="translate(0.991 1.007)" fill="#112e4c"/>
            <path id="Trazado_705307" data-name="Trazado 705307" d="M331.122,163.344a3.022,3.022,0,1,1,3.022-3.022v.017A3.02,3.02,0,0,1,331.122,163.344Zm0-4.046a1.04,1.04,0,1,0,1.04,1.04A1.036,1.036,0,0,0,331.122,159.3Z" transform="translate(-328.1 -157.3)"/>
          </g>
          <g id="Grupo_999940" data-name="Grupo 999940" transform="translate(4.987 35.308)">
            <circle id="Elipse_4882" data-name="Elipse 4882" cx="2.031" cy="2.031" r="2.031" transform="translate(1.008 0.991)" fill="#112e4c"/>
            <path id="Trazado_705308" data-name="Trazado 705308" d="M150.738,337.344a3.022,3.022,0,1,1,3.006-3.039v.017A3.02,3.02,0,0,1,150.738,337.344Zm0-4.046a1.041,1.041,0,1,0,1.024,1.057v-.033A1.051,1.051,0,0,0,150.738,333.3Z" transform="translate(-147.699 -331.299)"/>
          </g>
        </g>
        <g id="Grupo_999942" data-name="Grupo 999942" transform="translate(8.668 8.708)">
          <path id="Trazado_705309" data-name="Trazado 705309" d="M303.482,66.48H301.5V58.866h7.267l-.066-3.633,1.982-.033.1,5.648h-7.3Z" transform="translate(-260.381 -54.78)"/>
          <path id="Trazado_705310" data-name="Trazado 705310" d="M159.347,66.48h-1.982V60.848H150.1l-.1-5.615,1.982-.033.066,3.666h7.3Z" transform="translate(-133.9 -54.78)"/>
          <path id="Trazado_705311" data-name="Trazado 705311" d="M0,0H1.982V11.692H0Z" transform="translate(32.129 0.014) rotate(-0.401)"/>
          <path id="Trazado_705312" data-name="Trazado 705312" d="M402.515,298.865v-7.283H396.9V289.6h7.6v7.25l3.633-.066.05,1.982Z" transform="translate(-340.025 -250.469)"/>
          <path id="Trazado_705313" data-name="Trazado 705313" d="M404.5,147.431h-7.6v-1.982h5.615V138.2l5.615-.1.05,1.982-3.683.066Z" transform="translate(-340.025 -123.989)"/>
          <path id="Trazado_705314" data-name="Trazado 705314" d="M0,0H11.709V1.982H0Z" transform="translate(56.854 30.237) rotate(-0.401)"/>
          <path id="Trazado_705315" data-name="Trazado 705315" d="M60.848,298.581l-5.648-.1.033-1.982,3.633.066V289.3H66.48v1.982H60.848Z" transform="translate(-54.756 -250.219)"/>
          <path id="Trazado_705316" data-name="Trazado 705316" d="M66.48,147.147H58.866v-7.3l-3.666-.066.033-1.982,5.615.1v7.266H66.48Z" transform="translate(-54.756 -123.739)"/>
          <path id="Trazado_705317" data-name="Trazado 705317" d="M0,0H1.982V11.709H0Z" transform="translate(0 32.058) rotate(-89.599)"/>
        </g>
        <g id="Grupo_999952" data-name="Grupo 999952" transform="translate(0)">
          <g id="Grupo_999943" data-name="Grupo 999943" transform="translate(21.135 0.012)">
            <path id="Trazado_705345" data-name="Trazado 705345" d="M3.633,0A3.633,3.633,0,1,1,0,3.633,3.633,3.633,0,0,1,3.633,0Z" transform="translate(0.991 0.991)" fill="#8019e8"/>
            <path id="Trazado_705318" data-name="Trazado 705318" d="M132.624,9.265A4.632,4.632,0,0,1,132.607,0h.017a4.584,4.584,0,0,1,3.27,1.354,4.7,4.7,0,0,1,1.371,3.27,4.652,4.652,0,0,1-4.624,4.641Zm0-7.283a2.651,2.651,0,1,0,2.659,2.642,2.661,2.661,0,0,0-2.659-2.642Z" transform="translate(-127.999 0)"/>
          </g>
          <g id="Grupo_999944" data-name="Grupo 999944" transform="translate(53.132)">
            <path id="Trazado_705344" data-name="Trazado 705344" d="M3.633,0A3.633,3.633,0,1,1,0,3.633,3.633,3.633,0,0,1,3.633,0Z" transform="translate(1.296 1.003)" fill="#8019e8"/>
            <path id="Trazado_705319" data-name="Trazado 705319" d="M326.681,9.2h-.016a4.64,4.64,0,1,1-.529-9.265,3,3,0,0,1,.545,0,4.617,4.617,0,0,1,4.624,4.624v.017A4.617,4.617,0,0,1,326.681,9.2Zm0-7.283a2.66,2.66,0,0,0-.446,5.3,1.726,1.726,0,0,0,.413,0h.017a2.661,2.661,0,0,0,2.444-2.857,2.626,2.626,0,0,0-2.428-2.444Z" transform="translate(-321.752 0.075)"/>
          </g>
          <g id="Grupo_999945" data-name="Grupo 999945" transform="translate(37.154 0.425)">
            <path id="Trazado_705346" data-name="Trazado 705346" d="M3.633,0A3.633,3.633,0,1,1,0,3.633,3.633,3.633,0,0,1,3.633,0Z" transform="translate(0.991 1.007)" fill="#8019e8"/>
            <path id="Trazado_705320" data-name="Trazado 705320" d="M229.624,11.765h-.017a4.6,4.6,0,0,1-3.27-1.371A4.666,4.666,0,0,1,225,7.124,4.617,4.617,0,0,1,229.624,2.5h.017a4.632,4.632,0,0,1-.017,9.265Zm0-7.283a2.65,2.65,0,0,0-2.642,2.642,2.622,2.622,0,0,0,2.593,2.659h.05a2.66,2.66,0,0,0,.446-5.3,1.726,1.726,0,0,0-.413,0Z" transform="translate(-225 -2.5)"/>
          </g>
          <g id="Grupo_999946" data-name="Grupo 999946" transform="translate(76.93 19.17)">
            <circle id="Elipse_4886" data-name="Elipse 4886" cx="3.633" cy="3.633" r="3.633" transform="translate(0.735 1.007)" fill="#8019e8"/>
            <path id="Trazado_705321" data-name="Trazado 705321" d="M470.22,125.265a4.624,4.624,0,1,1,.033,0Zm0-7.283a2.659,2.659,0,0,0,0,5.3h.017a2.654,2.654,0,0,0,2.642-2.659,2.573,2.573,0,0,0-.793-1.866A2.652,2.652,0,0,0,470.22,117.982Z" transform="translate(-465.852 -116)"/>
          </g>
          <g id="Grupo_999947" data-name="Grupo 999947" transform="translate(76.93 51.472)">
            <circle id="Elipse_4887" data-name="Elipse 4887" cx="3.633" cy="3.633" r="3.633" transform="translate(0.735 0.991)" fill="#8019e8"/>
            <path id="Trazado_705322" data-name="Trazado 705322" d="M470.22,320.865a4.64,4.64,0,0,1,0-9.265h.017a4.571,4.571,0,0,1,3.27,1.371,4.641,4.641,0,0,1-3.286,7.894Zm-3.633-4.641h.991a2.639,2.639,0,0,0,4.509,1.883,2.572,2.572,0,0,0,.793-1.866,2.65,2.65,0,0,0-2.642-2.659h-.016a2.65,2.65,0,0,0-2.642,2.642Z" transform="translate(-465.852 -311.6)"/>
          </g>
          <g id="Grupo_999948" data-name="Grupo 999948" transform="translate(76.261 35.181)">
            <circle id="Elipse_4888" data-name="Elipse 4888" cx="3.633" cy="3.633" r="3.633" transform="translate(0.991 1.015)" fill="#8019e8"/>
            <path id="Trazado_705323" data-name="Trazado 705323" d="M466.422,222.225h-.017a4.6,4.6,0,0,1-4.608-4.641,4.659,4.659,0,0,1,4.624-4.624h.017a4.64,4.64,0,1,1,.545,9.265A3.188,3.188,0,0,1,466.422,222.225Zm-2.642-4.641a2.651,2.651,0,0,0,4.509,1.9,2.61,2.61,0,0,0,.793-1.883,2.654,2.654,0,0,0-2.642-2.659h-.017A2.65,2.65,0,0,0,463.78,217.584Z" transform="translate(-461.797 -212.952)"/>
          </g>
          <g id="Grupo_999949" data-name="Grupo 999949" transform="translate(0 19.136)">
            <circle id="Elipse_4889" data-name="Elipse 4889" cx="3.633" cy="3.633" r="3.633" transform="translate(0.987 0.991)" fill="#8019e8"/>
            <path id="Trazado_705324" data-name="Trazado 705324" d="M4.645,125.065a4.7,4.7,0,0,1-3.27-1.371,4.624,4.624,0,0,1,3.27-7.894h.017a4.617,4.617,0,0,1,4.624,4.624v.017a4.641,4.641,0,0,1-4.641,4.624Zm0-7.283A2.622,2.622,0,0,0,2,120.424a2.557,2.557,0,0,0,.776,1.866,2.639,2.639,0,0,0,1.866.793,2.659,2.659,0,0,0,.017-5.3Z" transform="translate(-0.025 -115.8)"/>
          </g>
          <g id="Grupo_999950" data-name="Grupo 999950" transform="translate(0.252 51.423)">
            <circle id="Elipse_4890" data-name="Elipse 4890" cx="3.633" cy="3.633" r="3.633" transform="translate(0.735 1.007)" fill="#8019e8"/>
            <path id="Trazado_705325" data-name="Trazado 705325" d="M5.92,320.565a4.64,4.64,0,0,1,0-9.265,4.632,4.632,0,0,1,.033,9.265Zm0-7.283a2.572,2.572,0,0,0-1.866.793,2.557,2.557,0,0,0-.776,1.866,2.662,2.662,0,0,0,.776,1.883,2.579,2.579,0,0,0,1.883.76,2.651,2.651,0,1,0-.017-5.3Z" transform="translate(-1.552 -311.3)"/>
          </g>
          <g id="Grupo_999951" data-name="Grupo 999951" transform="translate(0.409 35.156)">
            <circle id="Elipse_4891" data-name="Elipse 4891" cx="3.633" cy="3.633" r="3.633" transform="translate(0.93 1.088) rotate(-1.375)" fill="#8019e8"/>
            <path id="Trazado_705326" data-name="Trazado 705326" d="M7.141,222.065a4.636,4.636,0,0,1-3.286-7.911,4.584,4.584,0,0,1,3.27-1.354h.017a4.632,4.632,0,0,1,0,9.265Zm0-7.283H7.124a2.643,2.643,0,0,0-1.833,4.542,2.6,2.6,0,0,0,1.85.76,2.686,2.686,0,0,0,2.642-2.659A2.65,2.65,0,0,0,7.141,214.782Z" transform="translate(-2.5 -212.8)"/>
          </g>
        </g>
        <g id="Grupo_999962" data-name="Grupo 999962" transform="translate(30.697 23.098)">
          <g id="Grupo_999960" data-name="Grupo 999960" transform="translate(0 4.075)">
            <g id="Grupo_999957" data-name="Grupo 999957" transform="translate(0 8.726)">
              <g id="Grupo_999953" data-name="Grupo 999953" transform="translate(14.649 14.318)">
                <path id="Trazado_705327" data-name="Trazado 705327" d="M282.867,350.464V348.1a6.766,6.766,0,0,1-1.767-3.947h6.722a2.023,2.023,0,0,0,2.015-2.015V319.4l8.158,8.918a2.182,2.182,0,0,1,.462,1.371v20.776" transform="translate(-280.026 -316.857)" fill="#efcdb1"/>
                <path id="Trazado_705328" data-name="Trazado 705328" d="M294.021,337.608H292.04V316.832a1.267,1.267,0,0,0-.231-.727l-6.408-7v20.181a3,3,0,0,1-3.006,3.006h-5.532a6.193,6.193,0,0,0,1.272,2.246l.3.3v2.774H276.45v-1.982a7.885,7.885,0,0,1-1.767-4.261l-.083-1.057h7.795a1.029,1.029,0,0,0,1.024-1.024V304l9.942,10.867a3.239,3.239,0,0,1,.661,1.965Z" transform="translate(-274.6 -304)"/>
              </g>
              <g id="Grupo_999955" data-name="Grupo 999955">
                <path id="Trazado_705329" data-name="Trazado 705329" d="M215.367,225.314v36.6a2.023,2.023,0,0,1-2.015,2.015H193.915a2.023,2.023,0,0,1-2.015-2.015v-36.6a2.023,2.023,0,0,1,2.015-2.015h19.438a2,2,0,0,1,2.015,1.982Z" transform="translate(-190.909 -222.308)" fill="#3860af"/>
                <g id="Grupo_999954" data-name="Grupo 999954" transform="translate(6.193 0.264)">
                  <path id="Trazado_705330" data-name="Trazado 705330" d="M239.827,222.3l-1.916,2.774a1.088,1.088,0,0,1-.875.462h-6.011a1.068,1.068,0,0,1-.892-.479l-1.833-2.675" transform="translate(-227.491 -221.738)" fill="#8019e8"/>
                  <path id="Trazado_705331" data-name="Trazado 705331" d="M232.946,223.689h-6.011a2.07,2.07,0,0,1-1.7-.908l-1.833-2.675,1.635-1.123,1.833,2.675c.017.033.033.05.066.05h6.011c.033,0,.05-.017.066-.05l1.916-2.758,1.635,1.14L234.63,222.8A2.025,2.025,0,0,1,232.946,223.689Z" transform="translate(-223.4 -218.9)"/>
                </g>
                <path id="Trazado_705332" data-name="Trazado 705332" d="M208.344,259.907H188.906A3.038,3.038,0,0,1,185.9,256.9V220.3a3,3,0,0,1,3.006-3.006h19.438a2.988,2.988,0,0,1,3.006,2.973V256.9A3,3,0,0,1,208.344,259.907Zm-19.438-40.626a1.029,1.029,0,0,0-1.024,1.024v36.6a1.029,1.029,0,0,0,1.024,1.024h19.438a1.029,1.029,0,0,0,1.024-1.024V220.3a1.029,1.029,0,0,0-1.024-1.024Z" transform="translate(-185.9 -217.299)"/>
                <path id="Trazado_705333" data-name="Trazado 705333" d="M246.6,428.1h4.624v1.982H246.6Z" transform="translate(-236.576 -393.287)"/>
              </g>
              <g id="Grupo_999956" data-name="Grupo 999956" transform="translate(15.249 21.667)">
                <path id="Trazado_705334" data-name="Trazado 705334" d="M294.642,377.133a8.4,8.4,0,0,1-5.318-5.929,16.172,16.172,0,0,1-.066-6.226l-4.509-6.309a2.546,2.546,0,0,1,.644-3.6,2.8,2.8,0,0,1,3.765.462l5.747,6.7a6.077,6.077,0,0,1,3.286,3.584" transform="translate(-283.269 -353.549)" fill="#efcdb1"/>
                <path id="Trazado_705335" data-name="Trazado 705335" d="M289.194,372.97l-.2-.1a9.179,9.179,0,0,1-5.648-6.424,16.109,16.109,0,0,1-.165-6.292l-4.261-5.962a3.4,3.4,0,0,1-.644-2.593,3.648,3.648,0,0,1,1.519-2.395,3.777,3.777,0,0,1,5.1.644l5.565,6.507a7.32,7.32,0,0,1,3.633,4.063l-1.866.694a5.158,5.158,0,0,0-2.708-3.006l-.231-.1-.182-.182-5.747-6.721a1.821,1.821,0,0,0-2.428-.281,1.727,1.727,0,0,0-.694,1.09,1.457,1.457,0,0,0,.264,1.107h.017l4.756,6.639-.083.429a14.767,14.767,0,0,0,.05,5.747,7.294,7.294,0,0,0,4.558,5.219l.215.1Z" transform="translate(-278.234 -348.494)"/>
              </g>
            </g>
            <g id="Grupo_999958" data-name="Grupo 999958" transform="translate(6.325)">
              <path id="Trazado_705336" data-name="Trazado 705336" d="M241.922,194.871,240.7,193.3a5.8,5.8,0,0,1,7.151-.066l-1.239,1.552A3.8,3.8,0,0,0,241.922,194.871Z" transform="translate(-237.975 -187.482)"/>
              <path id="Trazado_705337" data-name="Trazado 705337" d="M225.571,168.58l-1.371-1.42a9.076,9.076,0,0,1,12.832-.083l-1.42,1.387A7.1,7.1,0,0,0,225.571,168.58Z" transform="translate(-224.2 -164.461)"/>
            </g>
            <g id="Grupo_999959" data-name="Grupo 999959" transform="translate(5.417 17.793)">
              <path id="Trazado_705338" data-name="Trazado 705338" d="M225.9,295.093a7.216,7.216,0,0,1-3.848-13.311l1.057,1.685a5.226,5.226,0,1,0,5.351-.149l.974-1.718a7.2,7.2,0,0,1-3.534,13.493Z" transform="translate(-218.7 -280.048)"/>
              <path id="Trazado_705339" data-name="Trazado 705339" d="M256.3,272.2h1.982v5.1H256.3Z" transform="translate(-250.09 -272.2)"/>
              <path id="Trazado_705340" data-name="Trazado 705340" d="M256.3,316.9h1.982v2.362H256.3Z" transform="translate(-250.09 -309.518)"/>
            </g>
          </g>
          <g id="Grupo_999961" data-name="Grupo 999961" transform="translate(3.121)">
            <path id="Trazado_705341" data-name="Trazado 705341" d="M242.006,195.339,240.8,193.77a5.757,5.757,0,0,1,7.134-.066l-1.222,1.552A3.822,3.822,0,0,0,242.006,195.339Z" transform="translate(-234.855 -183.793)"/>
            <path id="Trazado_705342" data-name="Trazado 705342" d="M225.587,169.025l-1.387-1.437a9.449,9.449,0,0,1,6.49-2.692,8.742,8.742,0,0,1,6.358,2.626l-1.437,1.387a6.748,6.748,0,0,0-4.9-2.031,7.383,7.383,0,0,0-5.12,2.147Z" transform="translate(-220.996 -160.748)"/>
            <path id="Trazado_705343" data-name="Trazado 705343" d="M206.187,145.206l-1.387-1.42a13.943,13.943,0,0,1,9.628-4,12.752,12.752,0,0,1,9.38,3.864l-1.42,1.387a10.794,10.794,0,0,0-7.944-3.27A11.9,11.9,0,0,0,206.187,145.206Z" transform="translate(-204.8 -139.787)"/>
          </g>
        </g>
      </g>
    </g>
  </g>
</svg>
