<svg id="ok" xmlns="http://www.w3.org/2000/svg" width="77" height="77.429" viewBox="0 0 77 77.429">
  <g id="Grupo_894393" data-name="Grupo 894393">
    <g id="Grupo_894392" data-name="Grupo 894392">
      <g id="Grupo_894391" data-name="Grupo 894391">
        <g id="Grupo_894390" data-name="Grupo 894390">
          <g id="Grupo_894389" data-name="Grupo 894389">
            <g id="Grupo_894388" data-name="Grupo 894388">
              <g id="Grupo_894387" data-name="Grupo 894387">
                <circle id="Elipse_4753" data-name="Elipse 4753" cx="38.5" cy="38.5" r="38.5" fill="#005b8b"/>
              </g>
            </g>
          </g>
        </g>
      </g>
    </g>
  </g>
  <path id="Trazado_689571" data-name="Trazado 689571" d="M160.833,105.751l-13.69-13.69-5.03,6.217L120.6,72.69l-.855,4.066-4.752-4.8,3.032,17.409-9.869-10.009L98.8,80.676V98.852l7.8,15.7L102.545,126.7l10.664,10.664a38.758,38.758,0,0,0,47.624-31.61Z" transform="translate(-83.86 -61.073)" fill="#0b3b54"/>
  <g id="Grupo_894395" data-name="Grupo 894395" transform="translate(32.112 10.726)">
    <g id="Grupo_894394" data-name="Grupo 894394">
      <path id="Trazado_689572" data-name="Trazado 689572" d="M221.413,96.749a2.648,2.648,0,0,1-2.648-2.648V82.185l-5.806-6.9a2.648,2.648,0,1,1,4.052-3.409l6.427,7.64a2.648,2.648,0,0,1,.622,1.7V94.1a2.647,2.647,0,0,1-2.648,2.648Z" transform="translate(-212.338 -70.931)" fill="#ffbeaa"/>
    </g>
  </g>
  <g id="Grupo_894397" data-name="Grupo 894397" transform="translate(26.332 9.197)">
    <g id="Grupo_894396" data-name="Grupo 894396">
      <path id="Trazado_689573" data-name="Trazado 689573" d="M184.59,88.167a2.648,2.648,0,0,1-2.648-2.648V73.734l-7.2-8.562a2.648,2.648,0,1,1,4.052-3.409l7.824,9.3a2.648,2.648,0,0,1,.622,1.7V85.52A2.648,2.648,0,0,1,184.59,88.167Z" transform="translate(-174.119 -60.82)" fill="#ffcdbe"/>
    </g>
  </g>
  <g id="Grupo_894399" data-name="Grupo 894399" transform="translate(12.819 17.448)">
    <g id="Grupo_894398" data-name="Grupo 894398">
      <path id="Trazado_689574" data-name="Trazado 689574" d="M98.363,134.475a2.648,2.648,0,0,1-2.648-2.648v-7.648l-2.7-3.505h-5.6a2.648,2.648,0,1,1,0-5.3h6.9a2.648,2.648,0,0,1,2.1,1.03l4.05,5.25a2.648,2.648,0,0,1,.551,1.617v8.551a2.648,2.648,0,0,1-2.648,2.648Z" transform="translate(-84.765 -115.379)" fill="#ffcdbe"/>
    </g>
  </g>
  <g id="Grupo_894401" data-name="Grupo 894401" transform="translate(21.174 9.197)">
    <g id="Grupo_894400" data-name="Grupo 894400">
      <path id="Trazado_689575" data-name="Trazado 689575" d="M150.483,88.167a2.371,2.371,0,0,1-2.648-2.3V73.734l-7.2-8.562a2.648,2.648,0,1,1,4.052-3.409l7.824,9.3a2.648,2.648,0,0,1,.622,1.7V85.52A2.648,2.648,0,0,1,150.483,88.167Z" transform="translate(-140.012 -60.82)" fill="#ffbeaa"/>
    </g>
  </g>
  <g id="Grupo_894402" data-name="Grupo 894402" transform="translate(10.487 21.198)">
    <path id="Trazado_689576" data-name="Trazado 689576" d="M76.394,152.971l-1.756-3.179v-6.968a2.648,2.648,0,1,0-5.3,0v7.651a2.647,2.647,0,0,0,.33,1.28l7.868,18.672H99.293l3.347-17.036Z" transform="translate(-69.343 -140.176)" fill="#ffbeaa"/>
  </g>
  <g id="Grupo_894403" data-name="Grupo 894403" transform="translate(28.983 34.176)">
    <path id="Trazado_689577" data-name="Trazado 689577" d="M206.45,226.229l-14.786-.236-.015,17.272H203.1Z" transform="translate(-191.649 -225.993)" fill="#faa68e"/>
  </g>
  <g id="Grupo_894405" data-name="Grupo 894405" transform="translate(18.685 51.448)">
    <g id="Grupo_894404" data-name="Grupo 894404">
      <path id="Trazado_689578" data-name="Trazado 689578" d="M123.552,340.2h21.677v14.176H123.552Z" transform="translate(-123.552 -340.203)" fill="#636978"/>
    </g>
  </g>
  <g id="Grupo_894407" data-name="Grupo 894407" transform="translate(28.983 51.448)">
    <g id="Grupo_894406" data-name="Grupo 894406">
      <path id="Trazado_689579" data-name="Trazado 689579" d="M191.649,340.2h11.378v14.176H191.649Z" transform="translate(-191.649 -340.203)" fill="#414952"/>
    </g>
  </g>
  <g id="Grupo_894408" data-name="Grupo 894408" transform="translate(26.332 18.745)">
    <circle id="Elipse_4754" data-name="Elipse 4754" cx="17.465" cy="17.465" r="17.465" transform="translate(0 24.695) rotate(-45)" fill="#2fddd0"/>
  </g>
  <g id="Grupo_894409" data-name="Grupo 894409" transform="translate(51.092 25.975)">
    <path id="Trazado_689580" data-name="Trazado 689580" d="M355.258,189.229a17.465,17.465,0,0,0-17.411-17.464v34.929A17.465,17.465,0,0,0,355.258,189.229Z" transform="translate(-337.847 -171.765)" fill="#11bfae"/>
  </g>
  <g id="Grupo_894410" data-name="Grupo 894410" transform="translate(40.9 35.709)">
    <path id="Trazado_689581" data-name="Trazado 689581" d="M276.83,253.9l-6.376-6.376,3.208-3.208,3.168,3.168,11.35-11.35,3.208,3.208Z" transform="translate(-270.454 -236.131)" fill="#636978"/>
  </g>
  <g id="Grupo_894411" data-name="Grupo 894411" transform="translate(51.092 35.709)">
    <path id="Trazado_689582" data-name="Trazado 689582" d="M345.382,236.131l-7.535,7.534v6.416l10.743-10.743Z" transform="translate(-337.847 -236.131)" fill="#414952"/>
  </g>
</svg>
