<svg xmlns="http://www.w3.org/2000/svg" xmlns:xlink="http://www.w3.org/1999/xlink" width="136.546" height="136.546" viewBox="0 0 136.546 136.546">
  <defs>
    <filter id="Elipse_4877" x="0" y="0" width="136.546" height="136.546" filterUnits="userSpaceOnUse">
      <feOffset dy="3" input="SourceAlpha"/>
      <feGaussianBlur stdDeviation="3" result="blur"/>
      <feFlood flood-opacity="0.161"/>
      <feComposite operator="in" in2="blur"/>
      <feComposite in="SourceGraphic"/>
    </filter>
    <clipPath id="clip-path">
      <path id="path2031" d="M0-682.665H55.915v75.43H0Z" transform="translate(0 682.665)"/>
    </clipPath>
    <clipPath id="clip-path-2">
      <path id="path3134" d="M0-682.665H33.084v33.084H0Z" transform="translate(0 682.665)"/>
    </clipPath>
  </defs>
  <g id="Grupo_1003707" data-name="Grupo 1003707" transform="translate(1164 6022.124)">
    <g transform="matrix(1, 0, 0, 1, -1164, -6022.12)" filter="url(#Elipse_4877)">
      <circle id="Elipse_4877-2" data-name="Elipse 4877" cx="59.273" cy="59.273" r="59.273" transform="translate(9 6)" fill="#0098e8"/>
    </g>
    <g id="Grupo_1000009" data-name="Grupo 1000009" transform="translate(0 36)">
      <g id="g2025" transform="translate(-1129.116 -5347.9)">
        <g id="g2027" transform="translate(0 -682.665)">
          <g id="g2029" clip-path="url(#clip-path)">
            <g id="g2035" transform="translate(19.801 32.513)">
              <path id="path2037" d="M-67.324-112.72a12.762,12.762,0,0,0,7.957-2.915,4.515,4.515,0,0,1-3.306-4.349v-6.738H-73.046v6.738a4.516,4.516,0,0,1-2.641,4.108,12.833,12.833,0,0,0,8.363,3.157" transform="translate(75.686 126.722)" fill="#fff0dc"/>
            </g>
            <g id="g2039" transform="translate(14.423 10.902)">
              <path id="path2041" d="M-212.532-103a1.867,1.867,0,0,0-1.864-1.87l-.7,0-.012-2.817c-.025-5.9-4.9-8.072-10.3-8.11-5.377.084-10.236,2.273-10.212,8.2l.008,1.986,0,.831h-.662a2.669,2.669,0,0,0-2.668,2.671l0,2.42a2.669,2.669,0,0,0,2.67,2.667h.685a9.706,9.706,0,0,0,3.264,7.118,10.676,10.676,0,0,0,7.028,2.692,10.678,10.678,0,0,0,7.005-2.751,9.709,9.709,0,0,0,3.2-7.146l.7,0A1.868,1.868,0,0,0-212.524-99Z" transform="translate(238.933 115.798)" fill="#fff0dc"/>
            </g>
            <g id="g2043" transform="translate(24.488 11.05)">
              <path id="path2045" d="M-131.513-101.815a1.867,1.867,0,0,0-1.864-1.87l-.7,0-.012-2.817c-.021-5.075-3.626-7.389-8.069-7.963a7.878,7.878,0,0,1,.992,3.984l.033,14.554a9.708,9.708,0,0,1-3.2,7.146,11.123,11.123,0,0,1-3.513,2.112,10.56,10.56,0,0,0,3.585.639,10.678,10.678,0,0,0,7.005-2.751,9.708,9.708,0,0,0,3.2-7.146l.7,0a1.868,1.868,0,0,0,1.848-1.886Z" transform="translate(147.849 114.462)" fill="#ffe4c0"/>
            </g>
            <g id="g2047" transform="translate(2.901 43.09)">
              <path id="path2049" d="M-285-7.719c-.284-.055-1.02-.2-1.864-.372a4.461,4.461,0,0,1-.94-.3A11.446,11.446,0,0,1-295.2-5.551a11.476,11.476,0,0,1-7.554-2.893c-.087-.075-.17-.155-.255-.233a4.5,4.5,0,0,1-1.48.587c-.844.17-1.58.317-1.864.372A17.325,17.325,0,0,0-320.4,9.295v8.433a3.539,3.539,0,0,0,3.539,3.539h42.375a3.539,3.539,0,0,0,3.539-3.539V9.295A17.325,17.325,0,0,0-285-7.719" transform="translate(320.403 8.677)" fill="#7aabdc"/>
            </g>
            <g id="g2051" transform="translate(32.516 43.375)">
              <path id="path2053" d="M-46.591-5.426c-.284-.055-1.02-.2-1.864-.372a4.461,4.461,0,0,1-.94-.3,12.087,12.087,0,0,1-2.983,1.889,17.329,17.329,0,0,1,10.211,15.8V20.02a3.539,3.539,0,0,1-3.539,3.539h9.628A3.539,3.539,0,0,0-32.54,20.02V11.587A17.325,17.325,0,0,0-46.591-5.426" transform="translate(52.379 6.1)" fill="#5f98d5"/>
            </g>
            <g id="g2055" transform="translate(15.214 8.308)">
              <path id="path2057" d="M-175.056-19.907h0a2.512,2.512,0,0,0-2.512-2.473H-188.71a8.09,8.09,0,0,0-8.09,8.091v5.347A1.846,1.846,0,0,0-195.562-7.2l1.993.694a1.071,1.071,0,0,0,1.423-1.013l0-3.77q0-.091,0-.181A2.584,2.584,0,0,1-187.628-13c1.838,2.054,5.612,5.184,10.8,3.932a1.3,1.3,0,0,1,1.47.674h0A2.4,2.4,0,0,0-172.428-7.2a1.846,1.846,0,0,0,1.239-1.743V-16a2.468,2.468,0,0,0-2.428-2.468,1.462,1.462,0,0,1-1.438-1.439" transform="translate(196.801 22.38)" fill="#8f818f"/>
            </g>
            <g id="g2059" transform="translate(27.253 8.308)">
              <path id="path2061" d="M-89.713-31.493h0a1.462,1.462,0,0,1-1.438-1.439,2.512,2.512,0,0,0-2.512-2.473h-7.194a7.141,7.141,0,0,1,3.919,6.725l.015,6.729a9.693,9.693,0,0,0,4-.143,1.3,1.3,0,0,1,1.47.674h0a2.4,2.4,0,0,0,2.934,1.194,1.846,1.846,0,0,0,1.239-1.743v-7.057a2.468,2.468,0,0,0-2.428-2.468" transform="translate(100.857 35.405)" fill="#786e79"/>
            </g>
            <g id="g2063" transform="translate(6.764 43.126)">
              <path id="path2065" d="M-335.933-240.29h-41.729v-27.119a2.73,2.73,0,0,1,2.73-2.73h36.27a2.73,2.73,0,0,1,2.73,2.73Z" transform="translate(377.662 270.138)" fill="#f9f5f8"/>
            </g>
            <g id="g2067" transform="translate(36.123 43.126)">
              <path id="path2069" d="M-77.6,0h-9.64a2.73,2.73,0,0,1,2.73,2.73V29.848h9.64V2.73A2.73,2.73,0,0,0-77.6,0" transform="translate(87.241)" fill="#f0ecef"/>
            </g>
            <g id="g2071" transform="translate(1.123 69.591)">
              <path id="path2073" d="M-407.695-38.108h-48.276a2.367,2.367,0,0,1-2.367-2.367h0a2.367,2.367,0,0,1,2.367-2.367h48.276a2.367,2.367,0,0,1,2.367,2.367h0a2.367,2.367,0,0,1-2.367,2.367" transform="translate(458.338 42.841)" fill="#d5ced5"/>
            </g>
            <g id="g2075" transform="translate(42.139 69.591)">
              <path id="path2077" d="M-77.506,0h-9.628a2.367,2.367,0,0,1,2.367,2.367h0a2.367,2.367,0,0,1-2.367,2.367h9.628a2.367,2.367,0,0,0,2.367-2.367h0A2.367,2.367,0,0,0-77.506,0" transform="translate(87.133)" fill="#c5bec7"/>
            </g>
            <g id="g2079" transform="translate(23.005 52.65)">
              <path id="path2081" d="M-74.434-37.217a4.623,4.623,0,0,1-4.623,4.623,4.623,4.623,0,0,1-4.623-4.623,4.623,4.623,0,0,1,4.623-4.623,4.623,4.623,0,0,1,4.623,4.623" transform="translate(83.68 41.84)" fill="#c1e2ff"/>
            </g>
            <g id="g2115" transform="translate(15.214 8.308)">
              <path id="path2117" d="M-175.056-19.907h0a2.512,2.512,0,0,0-2.512-2.473H-188.71a8.09,8.09,0,0,0-8.09,8.091v5.347A1.846,1.846,0,0,0-195.562-7.2l1.993.694a1.071,1.071,0,0,0,1.423-1.013l0-3.77q0-.091,0-.181A2.584,2.584,0,0,1-187.628-13c1.838,2.054,5.612,5.184,10.8,3.932a1.3,1.3,0,0,1,1.47.674h0A2.4,2.4,0,0,0-172.428-7.2a1.846,1.846,0,0,0,1.239-1.743V-16a2.468,2.468,0,0,0-2.428-2.468A1.462,1.462,0,0,1-175.056-19.907Z" transform="translate(196.801 22.38)" fill="none" stroke="#000" stroke-linecap="round" stroke-linejoin="round" stroke-miterlimit="10" stroke-width="2"/>
            </g>
            <g id="g2119" transform="translate(14.424 22.53)">
              <path id="path2121" d="M-7.784,0a2.663,2.663,0,0,0-.967,2.058l0,2.42a2.669,2.669,0,0,0,2.67,2.667h.685a9.706,9.706,0,0,0,3.264,7.118A10.676,10.676,0,0,0,4.9,16.954,10.678,10.678,0,0,0,11.9,14.2a9.709,9.709,0,0,0,3.2-7.146l.7,0a1.868,1.868,0,0,0,1.848-1.886l-.009-4a1.885,1.885,0,0,0-.278-.977" transform="translate(8.751)" fill="none" stroke="#000" stroke-linecap="round" stroke-linejoin="round" stroke-miterlimit="10" stroke-width="2"/>
            </g>
            <g id="g2123" transform="translate(1.123 69.591)">
              <path id="path2125" d="M-407.695-38.108h-48.276a2.367,2.367,0,0,1-2.367-2.367h0a2.367,2.367,0,0,1,2.367-2.367h48.276a2.367,2.367,0,0,1,2.367,2.367h0A2.367,2.367,0,0,1-407.695-38.108Z" transform="translate(458.338 42.841)" fill="none" stroke="#000" stroke-linecap="round" stroke-linejoin="round" stroke-miterlimit="10" stroke-width="2"/>
            </g>
            <g id="g2127" transform="translate(6.764 64.479)">
              <path id="path2129" d="M0,0V5.112" fill="none" stroke="#000" stroke-linecap="round" stroke-linejoin="round" stroke-miterlimit="10" stroke-width="2"/>
            </g>
            <g id="g2131" transform="translate(6.764 43.126)">
              <path id="path2133" d="M-335.933-213.054V-236.79a2.73,2.73,0,0,0-2.73-2.73h-36.27a2.73,2.73,0,0,0-2.73,2.73v13.457" transform="translate(377.662 239.519)" fill="none" stroke="#000" stroke-linecap="round" stroke-linejoin="round" stroke-miterlimit="10" stroke-width="2"/>
            </g>
            <g id="g2135" transform="translate(32.815 38.292)">
              <path id="path2137" d="M-17.746-38.912a4.513,4.513,0,0,1-2.2-3.876v-.958" transform="translate(19.951 43.745)" fill="none" stroke="#000" stroke-linecap="round" stroke-linejoin="round" stroke-miterlimit="10" stroke-width="2"/>
            </g>
            <g id="g2139" transform="translate(20.237 37.832)">
              <path id="path2141" d="M-17.747,0V1.418a4.513,4.513,0,0,1-2.2,3.876" transform="translate(19.952)" fill="none" stroke="#000" stroke-linecap="round" stroke-linejoin="round" stroke-miterlimit="10" stroke-width="2"/>
            </g>
            <g id="g2143" transform="translate(48.492 50.159)">
              <path id="path2145" d="M-31.058-157.045c0-.057,0-.114,0-.172v-8.433a17.29,17.29,0,0,0-3.862-10.9" transform="translate(34.916 176.553)" fill="none" stroke="#000" stroke-linecap="round" stroke-linejoin="round" stroke-miterlimit="10" stroke-width="2"/>
            </g>
            <g id="g2147" transform="translate(2.901 50.159)">
              <path id="path2149" d="M-31.092,0a17.289,17.289,0,0,0-3.862,10.9v8.433c0,.058,0,.115,0,.172" transform="translate(34.955)" fill="none" stroke="#000" stroke-linecap="round" stroke-linejoin="round" stroke-miterlimit="10" stroke-width="2"/>
            </g>
            <g id="g2151" transform="translate(23.005 52.65)">
              <path id="path2153" d="M-74.434-37.217a4.623,4.623,0,0,1-4.623,4.623,4.623,4.623,0,0,1-4.623-4.623,4.623,4.623,0,0,1,4.623-4.623A4.623,4.623,0,0,1-74.434-37.217Z" transform="translate(83.68 41.84)" fill="none" stroke="#000" stroke-linecap="round" stroke-linejoin="round" stroke-miterlimit="10" stroke-width="2"/>
            </g>
          </g>
        </g>
      </g>
      <g id="g3120" transform="translate(-1085.744 -5340.209)">
        <g id="g3122" transform="translate(23.567 -675.911)">
          <path id="path3124" d="M0-48.754,2.484-46.5,4.74-48.983,2.255-51.237Z" transform="translate(0 51.237)" fill="#727997"/>
        </g>
        <g id="g3126" transform="translate(4.861 -675.911)">
          <path id="path3128" d="M-93.059-48.754-95.543-46.5-97.8-48.983l2.484-2.254Z" transform="translate(97.798 51.237)" fill="#727997"/>
        </g>
        <g id="g3130" transform="translate(0 -682.665)">
          <g id="g3132" clip-path="url(#clip-path-2)">
            <g id="g3138" transform="translate(3.942 7.26)">
              <path id="path3140" d="M-494.8-247.259a12.6,12.6,0,0,1-12.6,12.593A12.6,12.6,0,0,1-520-247.259a12.6,12.6,0,0,1,12.6-12.593,12.6,12.6,0,0,1,12.6,12.593" transform="translate(519.999 259.853)" fill="#727997"/>
            </g>
            <g id="g3142" transform="translate(6.526 9.844)">
              <path id="path3144" d="M-393.3-196.539a10.013,10.013,0,0,1-10.016,10.01,10.013,10.013,0,0,1-10.016-10.01,10.013,10.013,0,0,1,10.016-10.01,10.013,10.013,0,0,1,10.016,10.01" transform="translate(413.332 206.549)" fill="#fff"/>
            </g>
            <g id="g3146" transform="translate(12.348 0.655)">
              <path id="path3148" d="M0-26.337v2.012l1.678.838.839,2.515H5.872l.839-2.515,1.678-.838v-2.012a1.342,1.342,0,0,0-1.342-1.341h-5.7A1.342,1.342,0,0,0,0-26.337" transform="translate(0 27.679)" fill="#727997"/>
            </g>
            <g id="g3150" transform="translate(16.542 9.844)">
              <path id="path3152" d="M-196.65-196.539a10,10,0,0,1-4.663,8.462l-5.352-8.48v-9.992a10.013,10.013,0,0,1,10.016,10.01" transform="translate(206.666 206.549)" fill="#b4dd7f"/>
            </g>
            <g id="g3154" transform="translate(5.88 9.197)">
              <path id="path3156" d="M-196.65-25.82v9.51l5.094,8.071A9.317,9.317,0,0,1-196-7.114a9.377,9.377,0,0,1-9.37-9.364,9.393,9.393,0,0,1,8.723-9.341m10.016,9.341a9.355,9.355,0,0,1-3.831,7.547l-4.584-7.262,6.142-2.548a.646.646,0,0,0,.349-.844.646.646,0,0,0-.844-.349l-5.956,2.471V-25.82a9.393,9.393,0,0,1,8.723,9.341M-196-5.822a10.671,10.671,0,0,0,10.662-10.656A10.671,10.671,0,0,0-196-27.135a10.671,10.671,0,0,0-10.662,10.656A10.671,10.671,0,0,0-196-5.822" transform="translate(206.666 27.135)"/>
            </g>
            <g id="g3158" transform="translate(3.295 0)">
              <path id="path3160" d="M-415.945-180.5l1.386-1.526,1.527,1.385-1.386,1.526Zm-10.414-5.047-1.078-.537v-1.613a.709.709,0,0,1,.7-.7h5.7a.709.709,0,0,1,.7.7v1.613l-1.082.54a7.977,7.977,0,0,0-4.948,0m3.688,2.574h-2.424l-.484-1.453a6.782,6.782,0,0,1,3.391,0Zm-10.578,3.772-.049.05-1.353-1.49,1.527-1.385,1.386,1.526a13.347,13.347,0,0,0-1.512,1.3m22.344,6.693a13.176,13.176,0,0,0-.771-2.485,13.255,13.255,0,0,0-1.221-2.249c-.207-.307-.429-.6-.662-.894l1.921-2.115a.646.646,0,0,0,.167-.466.646.646,0,0,0-.211-.447l-2.484-2.254a.646.646,0,0,0-.913.044l-1.982,2.183a13.25,13.25,0,0,0-1.664-.848,13.163,13.163,0,0,0-2.487-.772l-.141-.027.516-1.549,1.441-.719a.65.65,0,0,0,.36-.579v-2.012a2,2,0,0,0-1.994-2h-5.7a2,2,0,0,0-1.994,2v2.012a.649.649,0,0,0,.36.578l1.44.719.517,1.551-.14.026a13.165,13.165,0,0,0-2.487.772,13.29,13.29,0,0,0-1.61.815l-1.953-2.15a.646.646,0,0,0-.913-.044L-436-181.162a.646.646,0,0,0-.211.447.646.646,0,0,0,.167.466l1.876,2.066c-.248.3-.482.619-.7.943a13.249,13.249,0,0,0-1.221,2.249,13.177,13.177,0,0,0-.772,2.485,13.307,13.307,0,0,0-.27,2.669,13.167,13.167,0,0,0,.907,4.824.643.643,0,0,0,.242.3.65.65,0,0,0,.6.065.647.647,0,0,0,.366-.837,11.89,11.89,0,0,1-.818-4.353,11.873,11.873,0,0,1,3.5-8.448,11.877,11.877,0,0,1,6.856-3.393h3.195a11.877,11.877,0,0,1,6.856,3.393,11.873,11.873,0,0,1,3.5,8.448,11.87,11.87,0,0,1-3.5,8.447,11.885,11.885,0,0,1-8.453,3.5,11.935,11.935,0,0,1-8.029-3.1.646.646,0,0,0-.434-.167.649.649,0,0,0-.479.212.648.648,0,0,0,.045.913,13.321,13.321,0,0,0,1.9,1.435,13.223,13.223,0,0,0,2.146,1.075,13.182,13.182,0,0,0,4.85.912h0a13.31,13.31,0,0,0,2.669-.265,13.12,13.12,0,0,0,2.486-.769,13.226,13.226,0,0,0,2.25-1.219,13.314,13.314,0,0,0,1.961-1.616,13.383,13.383,0,0,0,1.618-1.959,13.282,13.282,0,0,0,1.221-2.249,13.146,13.146,0,0,0,.772-2.485,13.3,13.3,0,0,0,.269-2.668,13.3,13.3,0,0,0-.269-2.669" transform="translate(437.13 189.692)"/>
            </g>
            <g id="g3162" transform="translate(8.465 19.216)">
              <path id="path3164" d="M-12.674,0a.646.646,0,0,0-.646.647.646.646,0,0,0,.647.646.646.646,0,0,0,.646-.647A.646.646,0,0,0-12.674,0" transform="translate(13.32 0)"/>
            </g>
            <g id="g3166" transform="translate(15.901 26.634)">
              <path id="path3168" d="M-12.687-25.374a.646.646,0,0,0,.646-.646.647.647,0,0,0-.647-.646.646.646,0,0,0-.646.647.645.645,0,0,0,.646.646" transform="translate(13.333 26.667)"/>
            </g>
            <g id="g3170" transform="translate(23.327 19.191)">
              <path id="path3172" d="M0-12.713v.016a.646.646,0,0,0,.646.646.646.646,0,0,0,.646-.646v-.019a.645.645,0,0,0-.648-.644A.646.646,0,0,0,0-12.713" transform="translate(0 13.36)"/>
            </g>
            <g id="g3174" transform="translate(5.521 26.356)">
              <path id="path3176" d="M-12.687,0a.646.646,0,0,0-.646.646.646.646,0,0,0,.646.646.646.646,0,0,0,.646-.646A.646.646,0,0,0-12.687,0" transform="translate(13.333 0)"/>
            </g>
          </g>
        </g>
      </g>
    </g>
  </g>
</svg>
