<svg xmlns="http://www.w3.org/2000/svg" xmlns:xlink="http://www.w3.org/1999/xlink" width="85" height="73.691" viewBox="0 0 85 73.691">
  <defs>
    <filter id="Elipse_7687" x="6.059" y="0.81" width="72.882" height="72.882" filterUnits="userSpaceOnUse">
      <feOffset dy="3" input="SourceAlpha"/>
      <feGaussianBlur stdDeviation="3" result="blur"/>
      <feFlood flood-opacity="0.161"/>
      <feComposite operator="in" in2="blur"/>
      <feComposite in="SourceGraphic"/>
    </filter>
  </defs>
  <g id="Grupo_1003711" data-name="Grupo 1003711" transform="translate(-180 -4620)">
    <g id="Grupo_991062" data-name="Grupo 991062" transform="translate(180 4614)">
      <rect id="Rectángulo_33792" data-name="Rectángulo 33792" width="85" height="72" rx="5" transform="translate(0 6)" fill="#4db1f0"/>
      <g id="profesor_1_" data-name="profesor (1)" transform="translate(-10.992 -14)">
        <path id="Trazado_701717" data-name="Trazado 701717" d="M176.523,55.562l-.336,3.019-.226,2.034H147.486l-.226-2.034-.336-3.019a15.648,15.648,0,0,1,1.17-7.89,15.662,15.662,0,0,0,1.246-6.945l-.177-3.519a12.577,12.577,0,1,1,25.122,0l-.177,3.519a15.663,15.663,0,0,0,1.246,6.945,15.64,15.64,0,0,1,1.17,7.89Z" transform="translate(-107.214 -0.005)" fill="#4db1f0"/>
        <path id="Trazado_701718" data-name="Trazado 701718" d="M257.2,55.557l-.336,3.019H245.456V47.389l2.034-4.068V35.186a11.2,11.2,0,0,0-8.23-10.791A12.59,12.59,0,0,1,254.966,37.2l-.177,3.519a15.662,15.662,0,0,0,1.246,6.945A15.639,15.639,0,0,1,257.2,55.557Z" transform="translate(-187.896 0)" fill="#4db1f0"/>
        <path id="Trazado_701719" data-name="Trazado 701719" d="M220.61,224.136a1.423,1.423,0,0,1-1.424-1.424V216h-8.136v6.712a1.423,1.423,0,0,1-1.424,1.424H208v6.1h14.238v-6.1Z" transform="translate(-160.61 -167.594)" fill="#4db1f0"/>
        <path id="Trazado_701720" data-name="Trazado 701720" d="M236.681,221.085a5.58,5.58,0,0,0,3.455-1.247V216H232v3.838a5.58,5.58,0,0,0,3.455,1.247Z" transform="translate(-181.559 -167.594)" fill="#4db1f0"/>
        <path id="Trazado_701721" data-name="Trazado 701721" d="M210.306,86.1v5.085a9.153,9.153,0,0,1-18.305,0V86.1a13.8,13.8,0,0,0,4.691-5.314l.394-.788.577.482a25.392,25.392,0,0,0,12.644,5.62Z" transform="translate(-146.644 -48.882)" fill="#4db1f0"/>
        <path id="Trazado_701722" data-name="Trazado 701722" d="M285.159,121.619V126.7a9.157,9.157,0,0,1-7.4,8.986,11.146,11.146,0,0,0,3.336-7.969V120.69A25.363,25.363,0,0,0,285.159,121.619Z" transform="translate(-221.498 -84.4)" fill="#4db1f0"/>
        <path id="Trazado_701723" data-name="Trazado 701723" d="M217.525,139.051a1.525,1.525,0,1,1,1.525-1.525A1.525,1.525,0,0,1,217.525,139.051Z" transform="translate(-167.593 -97.763)" fill="#4db1f0"/>
        <path id="Trazado_701724" data-name="Trazado 701724" d="M289.525,139.051a1.525,1.525,0,1,1,1.525-1.525A1.525,1.525,0,0,1,289.525,139.051Z" transform="translate(-230.44 -97.763)" fill="#4db1f0"/>
        <path id="Trazado_701725" data-name="Trazado 701725" d="M243.051,179.051A3.054,3.054,0,0,1,240,176h2.034a1.017,1.017,0,0,0,2.034,0H246.1A3.054,3.054,0,0,1,243.051,179.051Z" transform="translate(-188.542 -132.678)" fill="#4db1f0"/>
        <path id="Trazado_701726" data-name="Trazado 701726" d="M224,312h10.17v7.119H224Z" transform="translate(-174.576 -251.39)" fill="#4db1f0"/>
        <path id="Trazado_701727" data-name="Trazado 701727" d="M124.051,306.4a3.087,3.087,0,0,1-3.428-2.048l-6.717-12.6a7.92,7.92,0,0,1-1.419,7.573v8.136H94.181v-8.136a7.932,7.932,0,0,1-1.4-7.667l-6.826,12.7a3.086,3.086,0,1,1-5.859-1.937l7.467-18.586A6.1,6.1,0,0,1,93.221,280h4.011l6.1,11.187,6.1-11.187h4a6.107,6.107,0,0,1,5.67,3.848l7.382,18.566a3.087,3.087,0,0,1-2.432,3.985Z" transform="translate(-48.825 -223.458)" fill="#4db1f0"/>
        <path id="Trazado_701728" data-name="Trazado 701728" d="M74.161,393.535,74.894,384H81v9.8a3.423,3.423,0,1,1-6.835-.263Z" transform="translate(-43.775 -314.237)" fill="#4db1f0"/>
        <path id="Trazado_701729" data-name="Trazado 701729" d="M33.511,266.892a1.978,1.978,0,0,0-1.29,2.8l.931,1.861H29.508a6.1,6.1,0,0,1-2.729-.644l-1.013-.507A1.22,1.22,0,0,0,24,271.5v2.87a2.034,2.034,0,0,0,1.124,1.819l1.655.828a6.1,6.1,0,0,0,2.729.644h7.712v-6.1l-1.393-3.482A1.978,1.978,0,0,0,33.511,266.892Z" transform="translate(0 -211.964)" fill="#4db1f0"/>
        <path id="Trazado_701730" data-name="Trazado 701730" d="M80,352h6.1v4.068H80Z" transform="translate(-48.881 -286.305)" fill="#4db1f0"/>
        <path id="Trazado_701731" data-name="Trazado 701731" d="M224.165,310.1a3.087,3.087,0,0,1-3.428-2.048l-6.717-12.6a7.92,7.92,0,0,1-1.419,7.573v8.136H194.63c8.394-5.481,15.476-12.438,21.42-26.919a6.092,6.092,0,0,1,3.165,3.309l7.382,18.566a3.087,3.087,0,0,1-2.432,3.985Z" transform="translate(-148.939 -227.159)" fill="#4db1f0"/>
        <path id="Trazado_701732" data-name="Trazado 701732" d="M306.17,352.272,296,350.238V336l10.17,2.034Z" transform="translate(-237.423 -272.339)" fill="#4db1f0"/>
        <path id="Trazado_701733" data-name="Trazado 701733" d="M408,352.272l10.17-2.034V336L408,338.034Z" transform="translate(-335.185 -272.339)" fill="#4db1f0"/>
        <path id="Trazado_701734" data-name="Trazado 701734" d="M376,352h4.068v14.238H376Z" transform="translate(-307.253 -286.305)" fill="#4db1f0"/>
        <path id="Trazado_701735" data-name="Trazado 701735" d="M308.2,317.085a3.6,3.6,0,0,0-3.009-3.553L296,312v3.051l10.17,2.034H308.2a3.6,3.6,0,0,1,3.009-3.553L320.407,312v3.051l-10.17,2.034Z" transform="translate(-237.423 -251.39)" fill="#4db1f0"/>
        <path id="Trazado_701736" data-name="Trazado 701736" d="M437.252,422.007l-4.068.678a1.017,1.017,0,0,1-1.184-1V417.9a1.324,1.324,0,0,1,1.106-1.306l3.454-.576a1.324,1.324,0,0,1,1.542,1.306V421a1.017,1.017,0,0,1-.85,1Z" transform="translate(-356.134 -342.171)" fill="#4db1f0"/>
      </g>
    </g>
    <g id="Grupo_1003781" data-name="Grupo 1003781" transform="translate(2.07 2.191)">
      <g transform="matrix(1, 0, 0, 1, 177.93, 4617.81)" filter="url(#Elipse_7687)">
        <circle id="Elipse_7687-2" data-name="Elipse 7687" cx="27.441" cy="27.441" r="27.441" transform="translate(15.06 6.81)" fill="#bfe5f9"/>
      </g>
      <g id="Filled_outline" data-name="Filled outline" transform="translate(192.844 4627.829)">
        <path id="Trazado_701737" data-name="Trazado 701737" d="M173.677,52.538l-.3,2.73-.2,1.839H147.423l-.2-1.839-.3-2.73a14.148,14.148,0,0,1,1.057-7.134,14.161,14.161,0,0,0,1.126-6.279l-.16-3.182a11.371,11.371,0,1,1,22.715,0l-.16,3.182A14.162,14.162,0,0,0,172.62,45.4a14.141,14.141,0,0,1,1.057,7.134Z" transform="translate(-131.791 -23.085)" fill="#8f4d2e"/>
        <path id="Trazado_701738" data-name="Trazado 701738" d="M255.485,52.533l-.3,2.73H244.862V45.148L246.7,41.47V34.114a10.125,10.125,0,0,0-7.441-9.757,11.384,11.384,0,0,1,14.2,11.581l-.16,3.182a14.162,14.162,0,0,0,1.126,6.279A14.141,14.141,0,0,1,255.485,52.533Z" transform="translate(-213.598 -23.08)" fill="#82462a"/>
        <path id="Trazado_701739" data-name="Trazado 701739" d="M219.4,223.356a1.287,1.287,0,0,1-1.287-1.287V216h-7.356v6.069a1.287,1.287,0,0,1-1.287,1.287H208v5.517h12.873v-5.517Z" transform="translate(-185.931 -193.012)" fill="#fec9a3"/>
        <path id="Trazado_701740" data-name="Trazado 701740" d="M236.233,220.6a5.045,5.045,0,0,0,3.124-1.127V216H232v3.47a5.045,5.045,0,0,0,3.124,1.128Z" transform="translate(-207.173 -193.012)" fill="#feb784"/>
        <path id="Trazado_701741" data-name="Trazado 701741" d="M208.551,85.517v4.6a8.276,8.276,0,1,1-16.551,0v-4.6a12.475,12.475,0,0,0,4.241-4.8L196.6,80l.522.436a22.959,22.959,0,0,0,11.432,5.082Z" transform="translate(-171.77 -72.644)" fill="#fec9a3"/>
        <path id="Trazado_701742" data-name="Trazado 701742" d="M284.45,121.53v4.6a8.279,8.279,0,0,1-6.695,8.125,10.078,10.078,0,0,0,3.017-7.205V120.69A22.932,22.932,0,0,0,284.45,121.53Z" transform="translate(-247.669 -108.657)" fill="#fec093"/>
        <path id="Trazado_701743" data-name="Trazado 701743" d="M224,312h9.2v6.437H224Z" transform="translate(-200.092 -277.978)" fill="#e0e0de"/>
        <path id="Trazado_701744" data-name="Trazado 701744" d="M119.824,303.87a2.791,2.791,0,0,1-3.1-1.852l-6.073-11.394a7.161,7.161,0,0,1-1.283,6.847v7.356H92.816v-7.356a7.172,7.172,0,0,1-1.269-6.932l-6.172,11.479a2.79,2.79,0,1,1-5.3-1.752l6.752-16.805A5.515,5.515,0,0,1,91.948,280h3.626l5.517,10.115L106.609,280h3.613a5.522,5.522,0,0,1,5.126,3.479l6.675,16.787a2.792,2.792,0,0,1-2.2,3.6Z" transform="translate(-72.587 -249.656)" fill="#ec8c8c"/>
        <path id="Trazado_701745" data-name="Trazado 701745" d="M74.16,392.622,74.823,384H80.34v8.859a3.095,3.095,0,1,1-6.18-.237Z" transform="translate(-67.467 -341.702)" fill="#f59898"/>
        <path id="Trazado_701746" data-name="Trazado 701746" d="M32.6,266.886a1.789,1.789,0,0,0-1.166,2.535l.842,1.683h-3.3a5.517,5.517,0,0,1-2.467-.582l-.916-.458a1.1,1.1,0,0,0-1.6.987v2.6a1.839,1.839,0,0,0,1.017,1.645l1.5.748a5.517,5.517,0,0,0,2.467.582h6.973V271.1l-1.259-3.148A1.789,1.789,0,0,0,32.6,266.886Z" transform="translate(-23.08 -238.002)" fill="#fec9a3"/>
        <path id="Trazado_701747" data-name="Trazado 701747" d="M80,352h5.517v3.678H80Z" transform="translate(-72.644 -313.38)" fill="#e0e0de"/>
        <path id="Trazado_701748" data-name="Trazado 701748" d="M221.335,307.622a2.791,2.791,0,0,1-3.1-1.852l-6.073-11.394a7.161,7.161,0,0,1-1.283,6.847v7.356H194.63c7.59-4.956,13.993-11.246,19.367-24.34a5.508,5.508,0,0,1,2.862,2.992l6.675,16.787a2.791,2.791,0,0,1-2.2,3.6Z" transform="translate(-174.098 -253.408)" fill="#e07f7f"/>
        <path id="Trazado_701749" data-name="Trazado 701749" d="M305.2,350.712l-9.2-1.839V336l9.2,1.839Z" transform="translate(-263.817 -299.219)" fill="#a36548"/>
        <path id="Trazado_701750" data-name="Trazado 701750" d="M408,350.712l9.2-1.839V336l-9.2,1.839Z" transform="translate(-362.943 -299.219)" fill="#8f4d2e"/>
        <path id="Trazado_701751" data-name="Trazado 701751" d="M376,352h3.678v12.873H376Z" transform="translate(-334.621 -313.38)" fill="#95573a"/>
        <path id="Trazado_701752" data-name="Trazado 701752" d="M307.034,316.6a3.257,3.257,0,0,0-2.721-3.212L296,312v2.759l9.2,1.839h1.839a3.257,3.257,0,0,1,2.721-3.212L318.069,312v2.759l-9.2,1.839Z" transform="translate(-263.817 -277.978)" fill="#d4bd81"/>
        <path id="Trazado_701753" data-name="Trazado 701753" d="M436.749,421.431l-3.678.613a.92.92,0,0,1-1.071-.907v-3.418a1.2,1.2,0,0,1,1-1.181l3.123-.521a1.2,1.2,0,0,1,1.394,1.181v3.325a.92.92,0,0,1-.768.907Z" transform="translate(-384.185 -370.025)" fill="#fec9a3"/>
        <path id="Trazado_701757" data-name="Trazado 701757" d="M70.846,49.321a.921.921,0,0,0-.745-.206L61.787,50.5a4.184,4.184,0,0,0-1.54.584l-.634-1.6a6.125,6.125,0,0,0-1.055-1.762l.24-2.174a15.926,15.926,0,0,0,.1-1.669,15.007,15.007,0,0,0-1.224-5.925,13.282,13.282,0,0,1-1.049-5.873l.156-3.183c.01-.2.019-.408.019-.614a12.292,12.292,0,1,0-24.568.615l.156,3.172c.009.237.018.461.018.682a13.108,13.108,0,0,1-1.066,5.2,15.026,15.026,0,0,0-1.126,7.6l.239,2.144a6.243,6.243,0,0,0-.728,1.053l-1.255-3.138a2.708,2.708,0,1,0-4.937,2.217l.177.352H21.9a4.621,4.621,0,0,1-2.056-.485l-.916-.458A2.023,2.023,0,0,0,16,49.049v2.6a2.743,2.743,0,0,0,1.525,2.467l1.5.748a6.469,6.469,0,0,0,2.878.68h.537v2.723l-.661,8.587a4.014,4.014,0,0,0,4,4.322q.1,0,.2-.005c.059,0,.117.005.175.005a3.7,3.7,0,0,0,3.477-2.432l4.2-7.8a8.043,8.043,0,0,0,1.479,3.2v7.034h1.839V63.815a.92.92,0,0,0-.213-.589,6.269,6.269,0,0,1,.8-8.82L36.56,52.994a8.105,8.105,0,0,0-1.142,1.166.947.947,0,0,0-.1.115h0L35.3,54.3l-.011.02a8.052,8.052,0,0,0-1.2,2.235l-4.3,8V53.391L31.1,50.137a4.407,4.407,0,0,1,.968-1.484,4.654,4.654,0,0,1,3.3-1.389h3.077L43.7,56.9a.92.92,0,0,0,1.614,0l1.951-3.577V65.654a.92.92,0,0,0,.739.9l3.858.772v3.844H53.7V67.7l3.518.7c.023,0,.13.015.16.015h1.74l.177.329a3.725,3.725,0,0,0,3.491,2.43,3.462,3.462,0,0,0,.606-.05,3.727,3.727,0,0,0,2.878-2.4l2.445-.408a1.831,1.831,0,0,0,1.533-1.72l.184-.037a.92.92,0,0,0,.74-.9V50.022a.92.92,0,0,0-.325-.7ZM40.433,47.074a2.209,2.209,0,0,0,1.314-2.017V42.243a9.2,9.2,0,0,0,5.517,0v2.814a2.209,2.209,0,0,0,1.314,2.016L47.471,49.1H41.54Zm4.072-6.246a7.364,7.364,0,0,1-7.356-7.356V29.354a13.433,13.433,0,0,0,3.98-4.556,23.818,23.818,0,0,0,10.733,4.859v3.814a7.364,7.364,0,0,1-7.356,7.356Zm12.427,7.842.017.017a4.261,4.261,0,0,1,.954,1.472l.4,1a4.182,4.182,0,0,0-1.65-.655l-7.191-1.2,1.112-2.039h3.068A4.556,4.556,0,0,1,56.932,48.669ZM57.47,53.7l-4.184-.837L49.1,52.027v-.92l7.243,1.207A2.329,2.329,0,0,1,58.111,53.7Zm4.621-1.385,7.242-1.207v.92l-4.325.865-4.042.808h-.642a2.329,2.329,0,0,1,1.766-1.385Zm-42.246.9-1.5-.748a.915.915,0,0,1-.508-.823v-2.6a.184.184,0,0,1,.266-.164l.916.458a6.469,6.469,0,0,0,2.878.68h3.3a.92.92,0,0,0,.822-1.331l-.842-1.684A.869.869,0,1,1,26.76,46.3l1.194,2.984V53.7H21.9A4.62,4.62,0,0,1,19.844,53.215Zm8.11,2.324v1.839H24.276V55.54ZM23.61,66.99l.6-7.773h3.746v7.94a2.177,2.177,0,0,1-2.018,2.167.941.941,0,0,0-.1.005l-.054,0A2.175,2.175,0,0,1,23.61,66.99ZM35.325,54.276a.917.917,0,0,1,.059-.071l-.056.073Zm-3.179-7.983-.105-.945a13.184,13.184,0,0,1,.988-6.669,14.936,14.936,0,0,0,1.215-5.926c0-.257-.01-.509-.02-.762l-.156-3.182a10.453,10.453,0,1,1,20.893-.524c0,.162-.008.339-.017.525l-.156,3.179a15.128,15.128,0,0,0,1.194,6.689,13.179,13.179,0,0,1,1.075,5.2,14.085,14.085,0,0,1-.086,1.471l-.1.948a6.431,6.431,0,0,0-3.23-.874H49.471a.373.373,0,0,1-.368-.368V41.429a9.2,9.2,0,0,0,4.6-7.958v-4.6a.92.92,0,0,0-.79-.91,21.985,21.985,0,0,1-10.973-4.878l-.522-.435a.92.92,0,0,0-1.411.3l-.356.713a11.584,11.584,0,0,1-3.929,4.451.92.92,0,0,0-.41.765v4.6a9.2,9.2,0,0,0,4.6,7.958v3.628a.373.373,0,0,1-.368.368H35.365a6.478,6.478,0,0,0-3.22.869Zm12.36,8.245-1.962-3.6h3.924Zm4.6-.636,7.356,1.471v11L49.1,64.9Zm9.2,1.637h1.839V66.574H58.3Zm4.778,13.77a1.644,1.644,0,0,1-.291.023,1.884,1.884,0,0,1-1.621-.927l.052-.008.02,0h.008l1.89-.378a1.815,1.815,0,0,0,.926.806A1.917,1.917,0,0,1,63.076,69.309ZM68.413,66.5l-3.678.613V63.694a.277.277,0,0,1,.232-.274L68.09,62.9a.3.3,0,0,1,.047,0,.278.278,0,0,1,.276.278V66.5Zm-.626-5.413-3.123.52A2.11,2.11,0,0,0,62.9,63.694v2.494l-.92.184v-11L69.332,53.9v7.526a2.11,2.11,0,0,0-1.545-.343Z" transform="translate(-16 -16)"/>
      </g>
    </g>
  </g>
</svg>
