<svg xmlns="http://www.w3.org/2000/svg" xmlns:xlink="http://www.w3.org/1999/xlink" width="352" height="287" viewBox="0 0 352 287">
  <defs>
    <clipPath id="clip-path">
      <rect id="Rectángulo_348664" data-name="Rectángulo 348664" width="352" height="287" transform="translate(972 6056)" fill="#fff" opacity="0.68"/>
    </clipPath>
    <clipPath id="clip-path-2">
      <rect id="Rectángulo_348568" data-name="Rectángulo 348568" width="352" height="288" transform="translate(972 6055)" fill="#fff" stroke="#707070" stroke-width="1" opacity="0.67"/>
    </clipPath>
    <clipPath id="clip-path-3">
      <rect id="Rectángulo_347710" data-name="Rectángulo 347710" width="342.351" height="299.557" fill="#fff" opacity="0.43"/>
    </clipPath>
    <clipPath id="clip-path-4">
      <rect id="Rectángulo_347556" data-name="Rectángulo 347556" width="395.334" height="420.807" fill="none"/>
    </clipPath>
    <clipPath id="clip-path-5">
      <rect id="Rectángulo_348515" data-name="Rectángulo 348515" width="219.031" height="287.363" fill="none"/>
    </clipPath>
    <clipPath id="clip-path-7">
      <rect id="Rectángulo_348499" data-name="Rectángulo 348499" width="25.472" height="32.487" fill="none"/>
    </clipPath>
    <clipPath id="clip-path-8">
      <rect id="Rectángulo_348500" data-name="Rectángulo 348500" width="21.697" height="6.435" fill="none"/>
    </clipPath>
    <clipPath id="clip-path-9">
      <rect id="Rectángulo_348501" data-name="Rectángulo 348501" width="16.859" height="25.696" fill="none"/>
    </clipPath>
    <clipPath id="clip-path-10">
      <rect id="Rectángulo_348502" data-name="Rectángulo 348502" width="27.392" height="39.675" fill="none"/>
    </clipPath>
    <clipPath id="clip-path-11">
      <rect id="Rectángulo_348503" data-name="Rectángulo 348503" width="32.495" height="15.71" fill="none"/>
    </clipPath>
    <clipPath id="clip-path-12">
      <rect id="Rectángulo_348504" data-name="Rectángulo 348504" width="13.232" height="8.929" fill="none"/>
    </clipPath>
    <clipPath id="clip-path-13">
      <rect id="Rectángulo_348505" data-name="Rectángulo 348505" width="64.036" height="51.34" fill="none"/>
    </clipPath>
    <clipPath id="clip-path-14">
      <rect id="Rectángulo_348506" data-name="Rectángulo 348506" width="15.383" height="12.41" fill="none"/>
    </clipPath>
    <clipPath id="clip-path-15">
      <rect id="Rectángulo_348507" data-name="Rectángulo 348507" width="12.28" height="57.377" fill="none"/>
    </clipPath>
    <clipPath id="clip-path-16">
      <rect id="Rectángulo_348508" data-name="Rectángulo 348508" width="40.501" height="42.58" fill="none"/>
    </clipPath>
    <clipPath id="clip-path-17">
      <rect id="Rectángulo_348509" data-name="Rectángulo 348509" width="22.29" height="12.388" fill="none"/>
    </clipPath>
    <clipPath id="clip-path-18">
      <rect id="Rectángulo_348510" data-name="Rectángulo 348510" width="17.082" height="14.235" fill="none"/>
    </clipPath>
    <clipPath id="clip-path-19">
      <rect id="Rectángulo_348631" data-name="Rectángulo 348631" width="42.347" height="56.147" fill="#d3d4d4"/>
    </clipPath>
    <clipPath id="clip-path-20">
      <rect id="Rectángulo_348629" data-name="Rectángulo 348629" width="19.344" height="52.156" fill="#f1f0f2"/>
    </clipPath>
  </defs>
  <g id="Enmascarar_grupo_1000243" data-name="Enmascarar grupo 1000243" transform="translate(-972 -6056)" clip-path="url(#clip-path)">
    <g id="Enmascarar_grupo_1000238" data-name="Enmascarar grupo 1000238" clip-path="url(#clip-path-2)">
      <g id="Set_of_a_man_character_pointing_his_finger_in_different_directions__up_and_down_and_looking_out_Convertido_" data-name="Set_of_a_man_character_pointing_his_finger_in_different_directions,_up_and_down_and_looking_out [Convertido]" transform="translate(948 6004.789)">
        <g id="Bg">
          <rect id="Rectángulo_348516" data-name="Rectángulo 348516" width="392" height="392" transform="translate(0 0.211)" fill="#fff" opacity="0"/>
        </g>
        <g id="Ñëîé_1" data-name="Ñëîé 1" transform="translate(25.177 51.575)">
          <g id="Grupo_1013234" data-name="Grupo 1013234" transform="translate(0 9.375)">
            <circle id="Elipse_8005" data-name="Elipse 8005" cx="16.332" cy="16.332" r="16.332" transform="translate(12.462 83.836) rotate(-45)" fill="#fdc8d0"/>
            <circle id="Elipse_8006" data-name="Elipse 8006" cx="6.173" cy="6.173" r="6.173" transform="translate(28.789 31.256)" fill="#fdc8d0"/>
            <circle id="Elipse_8007" data-name="Elipse 8007" cx="17.328" cy="17.328" r="17.328" transform="translate(310.409 43.603)" fill="#fdc8d0"/>
            <circle id="Elipse_8008" data-name="Elipse 8008" cx="3.983" cy="3.983" r="3.983" transform="matrix(0.526, -0.851, 0.851, 0.526, 297.369, 16.227)" fill="#fdc8d0"/>
            <circle id="Elipse_8009" data-name="Elipse 8009" cx="7.966" cy="7.966" r="7.966" transform="translate(326.69 162.096) rotate(-22.5)" fill="#fdc8d0"/>
            <circle id="Elipse_8010" data-name="Elipse 8010" cx="4.381" cy="4.381" r="4.381" transform="translate(0 192.635) rotate(-68.37)" fill="#fdc8d0"/>
            <circle id="Elipse_8011" data-name="Elipse 8011" cx="6.373" cy="6.373" r="6.373" transform="translate(6.48 118.49)" fill="#fdc8d0"/>
            <circle id="Elipse_8012" data-name="Elipse 8012" cx="6.772" cy="6.772" r="6.772" transform="translate(245.29 13.181) rotate(-76.72)" fill="#fdc8d0"/>
          </g>
          <path id="Trazado_729295" data-name="Trazado 729295" d="M526.081,361.534c-10.845-4.355-24.807.724-34.216-6.032-7.627-5.475-8.383-16.02-7.909-25.139s1.155-19.279-4.981-26.264c-4.954-5.636-13.167-7.6-20.856-7.8s-15.406,1.01-23.06.273c-16.475-1.589-30.373-11.819-44.918-19.395-18.848-9.817-40.4-15.545-61.785-13.9s-42.478,11.172-55.51,27.5-16.922,39.58-7.7,58.13c4.763,9.578,12.951,19.232,10.066,29.473-1.99,7.072-8.913,11.894-16.026,14.58s-14.8,3.828-21.813,6.752a43.683,43.683,0,0,0-24.647,26.449,40.618,40.618,0,0,0-1.679,16.406,44.356,44.356,0,0,0-.173,4.842,64.1,64.1,0,0,0,9.958,32.657c6.519,10.5,6.707,25.7,8.876,37.656,1.8,9.917,3.769,20.238,9.921,28.286,7.4,9.682,19.875,14.527,32.122,15.682s24.537-.908,36.723-2.583a585.876,585.876,0,0,1,127.378-3.491c18.506,1.514,37.49,3.871,55.378-1.035s34.644-19.33,35.436-37.605a34.7,34.7,0,0,0-.879-9.272c-2.753-12.049-11.286-22.88-18.967-33.087-9.6-12.761-18.83-28.447-14.276-43.682.006-.024.014-.045.02-.069a14.49,14.49,0,0,1,7.858-8.968c9.084-4.155,27.545-13.435,33.728-22.662,8.248-12.306,6.007-32.046-8.076-37.7Z" transform="translate(-194.673 -262.999)" fill="#fdc8d0"/>
          <path id="Trazado_729320" data-name="Trazado 729320" d="M483.708,348.289c-9.387-3.77-21.473.626-29.617-5.221-6.6-4.739-7.257-13.867-6.846-21.76s1-16.688-4.312-22.734c-4.288-4.879-11.4-6.574-18.052-6.751s-13.335.874-19.961.236c-14.26-1.375-26.29-10.231-38.88-16.788-16.314-8.5-34.969-13.456-53.48-12.03s-36.769,9.67-48.048,23.8-14.647,34.26-6.661,50.316c4.123,8.29,11.21,16.647,8.713,25.511-1.723,6.121-7.715,10.3-13.872,12.621s-12.812,3.314-18.881,5.844a37.811,37.811,0,0,0-21.334,22.894,35.158,35.158,0,0,0-1.453,14.2,38.392,38.392,0,0,0-.149,4.191,55.486,55.486,0,0,0,8.62,28.268c5.642,9.088,5.805,22.244,7.683,32.595,1.557,8.584,3.263,17.518,8.587,24.484,6.406,8.38,17.2,12.575,27.8,13.575s21.239-.786,31.787-2.236a507.128,507.128,0,0,1,110.257-3.021c16.019,1.31,32.45,3.351,47.935-.9s29.987-16.732,30.673-32.551a30.032,30.032,0,0,0-.76-8.026c-2.383-10.429-9.769-19.8-16.418-28.64-8.311-11.045-16.3-24.623-12.357-37.811.005-.02.012-.039.017-.059a12.542,12.542,0,0,1,6.8-7.762c7.863-3.6,23.843-11.629,29.195-19.616,7.14-10.652,5.2-27.738-6.99-32.634Z" transform="translate(-172.623 -242.902)" fill="#fceff1"/>
        </g>
      </g>
    </g>
    <g id="Grupo_1013326" data-name="Grupo 1013326" transform="translate(976.824 6050.738)">
      <g id="Enmascarar_grupo_1000237" data-name="Enmascarar grupo 1000237" transform="translate(0 0)" clip-path="url(#clip-path-3)">
        <g id="reading_2_Convertido_" data-name="reading_2 [Convertido]" transform="translate(-52.983 -88.645)">
          <g id="BACK" transform="translate(0 0)">
            <g id="Grupo_1010891" data-name="Grupo 1010891" transform="translate(0)" clip-path="url(#clip-path-4)">
              <g id="Grupo_1010890" data-name="Grupo 1010890" transform="translate(41.796 31.413)">
                <g id="Grupo_1010873" data-name="Grupo 1010873">
                  <path id="Trazado_721019" data-name="Trazado 721019" d="M1316.542,929.173h0a7.756,7.756,0,0,1-8.624-6.778h0a3.212,3.212,0,0,0-2.807,3.573l.923,7.7,7.7-.923a3.213,3.213,0,0,0,2.807-3.572Z" transform="translate(-1100.766 -778.641)" fill="#f0f2f5"/>
                  <path id="Trazado_721022" data-name="Trazado 721022" d="M382.966,369h0a4.684,4.684,0,0,1-5.847,3.116h0a1.942,1.942,0,0,0,1.29,2.423l4.482,1.367,1.366-4.482a1.942,1.942,0,0,0-1.29-2.423Z" transform="translate(-349.344 -330.522)" fill="#f0f2f5"/>
                  <path id="Trazado_721023" data-name="Trazado 721023" d="M1329.772,511.687h0a4.686,4.686,0,0,1-6.338-1.932h0a1.941,1.941,0,0,0-.8,2.625l2.2,4.136,4.135-2.2a1.942,1.942,0,0,0,.8-2.625Z" transform="translate(-1114.786 -444.367)" fill="#f0f2f5"/>
                  <path id="Trazado_721024" data-name="Trazado 721024" d="M1626.167,321.9h0a4.684,4.684,0,0,1-6.1-2.588h0a1.94,1.94,0,0,0-1.072,2.526l1.757,4.343,4.343-1.757a1.94,1.94,0,0,0,1.072-2.526Z" transform="translate(-1354.814 -290.237)" fill="#f0f2f5"/>
                  <path id="Trazado_721026" data-name="Trazado 721026" d="M1709.482,1137.007h0a6.821,6.821,0,0,0,8.6,4.368h0a2.825,2.825,0,0,1-1.81,3.565l-6.486,2.119-2.119-6.486A2.826,2.826,0,0,1,1709.482,1137.007Z" transform="translate(-1426.613 -952.309)" fill="#f0f2f5"/>
                  <path id="Trazado_721027" data-name="Trazado 721027" d="M1785.451,805.25h0a4.332,4.332,0,0,1-3.034-5.322h0a1.794,1.794,0,0,0-2.2,1.256l-1.144,4.177,4.177,1.144A1.794,1.794,0,0,0,1785.451,805.25Z" transform="translate(-1484.537 -679.451)" fill="#f0f2f5"/>
                  <path id="Trazado_721028" data-name="Trazado 721028" d="M235.861,740.219h0a2.725,2.725,0,0,0-.365,5.023,2.726,2.726,0,0,0-3.81,3.293h0a2.727,2.727,0,0,0,3.445,1.73l6.245-2.069-2.069-6.245a2.727,2.727,0,0,0-3.445-1.73Z" transform="translate(-231.54 -631.047)" fill="#f0f2f5"/>
                  <path id="Trazado_721029" data-name="Trazado 721029" d="M780.3,181.046h0a4.669,4.669,0,0,0-6.719,5.413,4.669,4.669,0,0,0-8.578-.923h0a4.67,4.67,0,0,0,1.86,6.336l9.893,5.4,5.4-9.893A4.668,4.668,0,0,0,780.3,181.046Z" transform="translate(-663.012 -177.935)" fill="#f0f2f5"/>
                  <path id="Trazado_721030" data-name="Trazado 721030" d="M1257.3,171.38h0a3.748,3.748,0,0,0-6.893.666,3.748,3.748,0,0,0-5.344-4.4h0a3.75,3.75,0,0,0-1.549,5.068l4.25,7.988,7.988-4.25A3.749,3.749,0,0,0,1257.3,171.38Z" transform="translate(-1050.554 -167.191)" fill="#f0f2f5"/>
                </g>
                <g id="Grupo_1010889" data-name="Grupo 1010889" transform="translate(21.569 170.618)">
                  <g id="Grupo_1010879" data-name="Grupo 1010879" transform="translate(20 128.345)">
                    <g id="Grupo_1010876" data-name="Grupo 1010876" transform="translate(0 29.757)">
                      <path id="Trazado_721275" data-name="Trazado 721275" d="M0,0H39.73V19.059H0Z" transform="translate(50.088)" fill="#112e4c"/>
                      <path id="Trazado_721274" data-name="Trazado 721274" d="M0,0H50.088V19.059H0Z" fill="#112e4c"/>
                      <rect id="Rectángulo_347539" data-name="Rectángulo 347539" width="41.009" height="1.566" transform="translate(50.088)" fill="#f0f2f5"/>
                      <rect id="Rectángulo_347540" data-name="Rectángulo 347540" width="18.391" height="0.392" transform="translate(72.038 5.087)" fill="#f0f2f5"/>
                      <rect id="Rectángulo_347541" data-name="Rectángulo 347541" width="41.009" height="1.566" transform="translate(50.088 17.493)" fill="#f0f2f5"/>
                      <rect id="Rectángulo_347542" data-name="Rectángulo 347542" width="3.692" height="19.059" transform="translate(5.047)" fill="#fff"/>
                      <rect id="Rectángulo_347543" data-name="Rectángulo 347543" width="0.923" height="19.059" transform="translate(43.364)" fill="#fff"/>
                      <rect id="Rectángulo_347544" data-name="Rectángulo 347544" width="0.923" height="19.059" transform="translate(40.261)" fill="#fff"/>
                      <path id="Trazado_721040" data-name="Trazado 721040" d="M781.283,1930.082h-4.147l-3.856-6.952h4.147Z" transform="translate(-691.743 -1917.653)" fill="#f0f2f5"/>
                    </g>
                    <g id="Grupo_1010877" data-name="Grupo 1010877" transform="translate(10.984)">
                      <rect id="Rectángulo_347545" data-name="Rectángulo 347545" width="34.11" height="16.362" transform="translate(43)" fill="#fff"/>
                      <rect id="Rectángulo_347546" data-name="Rectángulo 347546" width="43" height="16.362" fill="#112e4c"/>
                      <rect id="Rectángulo_347547" data-name="Rectángulo 347547" width="35.208" height="1.344" transform="translate(43)" fill="#f0f2f5"/>
                      <rect id="Rectángulo_347548" data-name="Rectángulo 347548" width="15.787" height="0.337" transform="translate(61.844 4.368)" fill="#f0f2f5"/>
                      <rect id="Rectángulo_347549" data-name="Rectángulo 347549" width="35.208" height="1.344" transform="translate(43 15.019)" fill="#f0f2f5"/>
                      <rect id="Rectángulo_347550" data-name="Rectángulo 347550" width="3.171" height="11.659" transform="translate(4.334 2.352)" fill="#fff"/>
                      <rect id="Rectángulo_347551" data-name="Rectángulo 347551" width="21.25" height="11.659" transform="translate(15.011 2.352)" fill="#fff"/>
                      <path id="Trazado_721048" data-name="Trazado 721048" d="M777.241,1768.679H773.68l-3.31-5.969h3.561Z" transform="translate(-700.37 -1758.007)" fill="#f0f2f5"/>
                    </g>
                    <g id="Grupo_1010878" data-name="Grupo 1010878" transform="translate(16.809 16.36)">
                      <path id="Trazado_721049" data-name="Trazado 721049" d="M439.823,1823.962h55.3v13.4h-55.3a6.638,6.638,0,0,1-6.635-6.635v-.127a6.638,6.638,0,0,1,6.635-6.635Z" transform="translate(-433.19 -1823.96)" fill="#005b8b"/>
                      <path id="Trazado_721050" data-name="Trazado 721050" d="M623.747,1829.76h22.327v11.2H623.747a5.6,5.6,0,0,1-5.6-5.6h0A5.6,5.6,0,0,1,623.747,1829.76Z" transform="translate(-582.948 -1828.656)" fill="#fff"/>
                      <rect id="Rectángulo_347552" data-name="Rectángulo 347552" width="28.823" height="1.1" transform="translate(35.202 0.002)" fill="#f0f2f5"/>
                      <rect id="Rectángulo_347553" data-name="Rectángulo 347553" width="12.925" height="0.276" transform="translate(50.63 3.578)" fill="#f0f2f5"/>
                      <rect id="Rectángulo_347554" data-name="Rectángulo 347554" width="28.823" height="1.1" transform="translate(35.202 12.297)" fill="#f0f2f5"/>
                      <path id="Trazado_721051" data-name="Trazado 721051" d="M474.629,1844.618H450.8a4.469,4.469,0,0,1,0-8.937h23.829a5.962,5.962,0,0,0-.586.51,5.6,5.6,0,0,0,.588,8.425Z" transform="translate(-443.829 -1833.449)" fill="#fff"/>
                      <path id="Trazado_721052" data-name="Trazado 721052" d="M567.3,1842.435a.287.287,0,0,1-.179-.061,6.361,6.361,0,0,1-.668-9.581,6.863,6.863,0,0,1,.664-.58.3.3,0,1,1,.36.474,5.9,5.9,0,0,0-.6.527,5.768,5.768,0,0,0,.605,8.685.3.3,0,0,1-.181.535Z" transform="translate(-539.581 -1830.593)" fill="#f0f2f5"/>
                    </g>
                  </g>
                  <g id="Grupo_1013233" data-name="Grupo 1013233" transform="translate(185.067)">
                    <path id="Trazado_721031" data-name="Trazado 721031" d="M1231.59,1331.18a68.56,68.56,0,0,1,21.606,14.57,104.548,104.548,0,0,1,15.516,19.328,58.325,58.325,0,0,1-37.121-33.895Z" transform="translate(-1231.59 -1280.262)" fill="#f0f2f5"/>
                    <path id="Trazado_721032" data-name="Trazado 721032" d="M1300.117,1521.028a39.3,39.3,0,0,1,16.864,4.671h0a39.6,39.6,0,0,1-34.091-1.61,39.281,39.281,0,0,1,17.226-3.061Z" transform="translate(-1273.126 -1433.942)" fill="#f0f2f5"/>
                    <path id="Trazado_721033" data-name="Trazado 721033" d="M1452.306,1355.69a39.552,39.552,0,0,1-7.969,33.185,39.59,39.59,0,0,1,7.967-33.185Z" transform="translate(-1403.137 -1300.108)" fill="#f0f2f5"/>
                    <path id="Trazado_721034" data-name="Trazado 721034" d="M1349.911,1671.7c-7.04-3.909-8.325-8.305-4.967-13.412a39.335,39.335,0,0,1,12.6-12.135,34.984,34.984,0,0,1-6.141,16.385C1348.6,1666.486,1348.144,1669.4,1349.911,1671.7Z" transform="translate(-1321.935 -1535.286)" fill="#f0f2f5"/>
                    <path id="Trazado_721035" data-name="Trazado 721035" d="M1327.835,1167.495c.161-.046.323-.092.487-.133l.835-.219c.28-.07.559-.133.84-.2l.42-.1.422-.09.845-.179q1.693-.334,3.405-.571a60.692,60.692,0,0,1,6.882-.5,48.214,48.214,0,0,1,6.817.333l-.152-.205q-2.307-3.052-4.762-5.984t-5.061-5.735c-.864-.938-1.746-1.859-2.636-2.771s-1.8-1.808-2.731-2.678c.94.863,1.85,1.757,2.75,2.659s1.785,1.821,2.657,2.754q2.612,2.8,5.076,5.725t4.779,5.976q.642.848,1.275,1.705a20.185,20.185,0,0,1,.4-2.282c.185-.771.4-1.536.651-2.288s.529-1.5.835-2.227.636-1.454,1.009-2.153c-.165.36-.328.722-.481,1.087s-.307.731-.451,1.1c-.29.737-.563,1.479-.809,2.231s-.472,1.509-.672,2.274l-.143.577c-.046.192-.084.386-.125.58-.09.367-.141.74-.211,1.11,1.092,1.481,2.162,2.979,3.19,4.5.363.525.71,1.06,1.06,1.593s.7,1.064,1.039,1.606l1.018,1.62.986,1.639c.164.274.331.546.49.822l.474.83.474.83c.158.278.319.552.468.834l.912,1.682.228.421.217.426.436.851c.594,1.129,1.13,2.286,1.686,3.436.272.576.526,1.163.788,1.743l.392.874c.13.291.248.588.369.883l.729,1.768.679,1.789.339.895.312.9.4,1.153h.076q-.069-2.353-.162-4.7-.237-6.044-.611-12.08t-.889-12.061q-.308-3.588-.675-7.171a11.041,11.041,0,0,1-2.37,1.2c-5.314,1.835-11.048-.335-11.048-.335a23.667,23.667,0,0,1,12.824-6.423l-.261-2.307-.367-3c-.027-.23-.057-.459-.086-.689a34.593,34.593,0,0,1-10.215,7.514h0a39.331,39.331,0,0,1,7.135-15.976,12.712,12.712,0,0,1,1.633-1.812l-.156-1.011-.234-1.494-.251-1.49-.251-1.49c-.084-.5-.166-.993-.259-1.49l-.543-2.975c-.087-.5-.186-.99-.283-1.485l-.293-1.483-.293-1.483c-.1-.495-.207-.985-.312-1.479l-.057-.265a35,35,0,0,1-14.921-9.111c-3.352-3.5-6.133-4.5-8.717-3.193,5.165-6.181,9.723-6.614,14.106-2.356a39.345,39.345,0,0,1,9.514,14.577l-.557-2.609q-.8-3.592-1.715-7.158l-.031.019h0s.008-.025.019-.065q-.58-2.27-1.2-4.53h0a104.68,104.68,0,0,1-13.021-21.09,68.537,68.537,0,0,1-6.5-25.235,58.326,58.326,0,0,1,19.518,46.325q.631,2.238,1.212,4.492a70.7,70.7,0,0,1,6.766-15.007,45.843,45.843,0,0,1,11.534-13.053,38.981,38.981,0,0,1-18.281,28.132q.925,3.566,1.747,7.158l.637,2.956c.1.493.215.984.314,1.479l.3,1.482.3,1.483c.1.495.2.987.286,1.485l.546,2.975q.613,3.454,1.153,6.924c3.358-2.973,7.436-2.506,12.6,2-2.758-.883-5.348.533-8.111,4.518a33.022,33.022,0,0,1-3.028,3.736q.391,3.032.735,6.072a23.34,23.34,0,0,1,6.376-.1,24.966,24.966,0,0,1-5.792,5.613q.363,3.611.67,7.227.5,6.026.872,12.064c.337,5.592.594,11.187.735,16.787h.154l.082-1.426.031-.52.015-.26.025-.259.1-1.038.1-1.037.047-.52.065-.518.257-2.069.032-.259.04-.257.08-.516.162-1.03.162-1.03.188-1.026c.13-.683.248-1.368.385-2.05l.432-2.04a141.491,141.491,0,0,1,4.589-16.029q1.384-3.934,2.946-7.8t3.3-7.658c1.534-3.35,3.152-6.663,4.882-9.916a39.545,39.545,0,0,1-16.657-29.734,39.591,39.591,0,0,1,16.691,29.67q1.3-2.45,2.7-4.852c-.7,1.2-1.366,2.419-2.023,3.645-.227.422-.45.849-.672,1.273a.126.126,0,0,0,0,.027h0l-.011-.01q-.628,1.2-1.239,2.408-1.882,3.72-3.607,7.516-1.307,2.884-2.524,5.807a49.121,49.121,0,0,1,6.5-2.086,62.835,62.835,0,0,1,6.77-1.321q1.71-.223,3.432-.351l.86-.053.43-.025.43-.015c.288-.01.575-.023.863-.031l.862-.012c.288-.007.575,0,.863,0s.574,0,.862.014c.574.023,1.149.034,1.722.078,1.147.067,2.291.2,3.43.349a39.557,39.557,0,0,1,33.952,3.475c.244,0-9.855,5.446-17.355,4.724-9.372-.9-16.594-8.2-16.594-8.2h0c-1.142-.131-2.286-.247-3.434-.3-.572-.04-1.148-.048-1.72-.069-.288-.007-.575-.005-.862-.007s-.575-.005-.863,0l-.86.017c-.287.007-.573.023-.86.034l-.43.019-.43.026-.859.057q-1.715.137-3.424.367a62.818,62.818,0,0,0-6.766,1.283c-1.115.276-2.223.58-3.319.921-1.077.329-2.151.683-3.2,1.1q-.385.925-.761,1.856-1.558,3.865-2.929,7.8a140.9,140.9,0,0,0-4.621,16.008l-.436,2.038c-.139.682-.259,1.365-.39,2.048l-.192,1.024-.163,1.03-.164,1.029-.081.514-.04.257-.034.259-.27,2.067-.067.516-.051.518-.1,1.037-.1,1.037-.024.259-.017.261-.032.52-.091,1.425h21.168v7.227h0v.322h0v34.873h-42.42V1198.4h20.979l-.4-1.149-.318-.9-.344-.892-.691-1.783-.74-1.762c-.126-.293-.242-.59-.373-.881l-.394-.872c-.265-.581-.52-1.165-.792-1.741-.557-1.146-1.1-2.3-1.692-3.43l-.438-.851-.219-.425-.228-.42-.916-1.679c-.15-.282-.312-.556-.47-.832l-.476-.83-.476-.829c-.16-.276-.327-.546-.491-.82l-.989-1.637-1.021-1.618c-.335-.542-.694-1.07-1.043-1.6s-.7-1.066-1.062-1.589c-1.374-2.046-2.817-4.044-4.3-6.013-1.119-.13-2.244-.2-3.371-.236-1.147-.046-2.3-.052-3.447-.029q-1.8.035-3.586.183a23.975,23.975,0,0,0-1.859,1.9c-.442.5-.872,1.013-1.281,1.542a19.785,19.785,0,0,1,8.954,14.465,19.776,19.776,0,0,1-8.991-14.417c-.141.183-.279.367-.415.556s-.272.371-.4.559-.268.373-.392.568l-.377.579c-.065.1-.124.194-.183.293l-.179.295c-.485.783-.908,1.6-1.325,2.421l.29-.628c.1-.209.19-.419.3-.623l.322-.613c.1-.206.229-.4.341-.6a25.47,25.47,0,0,1,1.517-2.313,25.934,25.934,0,0,1,1.757-2.135c.312-.341.634-.67.963-.994.308-.291.622-.581.952-.849q-1.642.134-3.278.35-1.707.231-3.4.552l-.843.173-.422.088-.421.1c-.28.065-.56.128-.839.2l-.836.215c-.15.036-.3.078-.449.12a19.777,19.777,0,0,1-16.353,4.677,19.784,19.784,0,0,1,16.3-4.731Z" transform="translate(-1296.323 -1063.65)" fill="#112e4c"/>
                    <path id="Trazado_721036" data-name="Trazado 721036" d="M1737.535,1220.48a58.331,58.331,0,0,1-26.5,42.72,104.609,104.609,0,0,1,9.671-22.82,68.545,68.545,0,0,1,16.825-19.9Z" transform="translate(-1619.789 -1190.631)" fill="#112e4c"/>
                    <path id="Trazado_721037" data-name="Trazado 721037" d="M1687.592,1442.117a39.551,39.551,0,0,1,32.364-10.828,39.6,39.6,0,0,1-32.367,10.826Z" transform="translate(-1600.802 -1361.071)" fill="#112e4c"/>
                    <path id="Trazado_721038" data-name="Trazado 721038" d="M1706.325,1549.313a19.681,19.681,0,0,1,4.18-7.622c-.536-.4-1.09-.773-1.652-1.135a24.8,24.8,0,0,0-2.4-1.366c.425.179.835.391,1.243.6s.805.451,1.2.693a25.74,25.74,0,0,1,4.362,3.39c.164.162.335.316.491.485l.476.5c.162.166.308.343.459.518l.449.525c-.624-.677-1.254-1.35-1.934-1.969l-.253-.234c-.083-.08-.168-.158-.255-.232l-.52-.453c-.171-.153-.354-.293-.531-.439s-.356-.292-.541-.428-.365-.283-.55-.423a19.771,19.771,0,0,1-4.728,16.32,19.656,19.656,0,0,1,.5-8.734Z" transform="translate(-1615.342 -1448.683)" fill="#112e4c"/>
                    <path id="Trazado_721039" data-name="Trazado 721039" d="M1770.223,1596.986c1.075-2.689-.154-5.373-3.934-8.411a34.991,34.991,0,0,1-10.369-14.1,39.366,39.366,0,0,1,15.432,8.247c4.619,4,4.581,8.58-1.131,14.259Z" transform="translate(-1656.127 -1477.257)" fill="#112e4c"/>
                  </g>
                </g>
              </g>
            </g>
          </g>
          <g id="FRONT" transform="translate(52.387 119.983)">
            <g id="Grupo_1010930" data-name="Grupo 1010930">
              <rect id="Rectángulo_347568" data-name="Rectángulo 347568" width="291.92" height="0.571" transform="translate(0 258.924)" fill="#1b1a2e"/>
            </g>
          </g>
          <g id="Grupo_1013191" data-name="Grupo 1013191" transform="translate(111.408 91.83)">
            <g id="Grupo_1013229" data-name="Grupo 1013229" clip-path="url(#clip-path-5)">
              <g id="Grupo_1013228" data-name="Grupo 1013228" transform="translate(0 0.001)">
                <g id="Grupo_1013227" data-name="Grupo 1013227" clip-path="url(#clip-path-5)">
                  <path id="Trazado_729197" data-name="Trazado 729197" d="M212.654,626.914c-7.781-36.706-11.9-89.111-22.041-87.35.1-6.943-28.645-11.036-47.286-24.438,0,0-1.076-7.558-6.775-8.319-6.339-.848-9.584,5.37-25.589,5.37-14.937,0-22.4-7.736-30.294-3.735a15,15,0,0,0-7.487,9.732c-20.659,14.378-44.337,18.839-43.772,23.15-5.161.606-13.589,22.064-16.017,56.689,0,0-8.661,4.875-3.022,14.522L5.536,637.893S-2.592,645.426.85,654.477A40.833,40.833,0,0,0,.333,666.1a.237.237,0,0,0,0,.025c.029.258.061.519.1.778a.026.026,0,0,1,0,.012c1.017,7.219,4.9,14.714,16.859,13.7,0,0,13.637,10.962,26.385-3.569l-.892,20.38H177.452V664.776s3.754,14.891,17.824,17.076c0,0,25.41,11.4,22.813-33.985,0,0,4.288-13.539-5.436-20.953m-169.869,10.5s2.383-3.014,3.062-9.074a96.068,96.068,0,0,0,.475,12.753Z" transform="translate(0 -410.056)" fill="#f9a21b"/>
                  <path id="Trazado_729198" data-name="Trazado 729198" d="M486.293,538.856a41.464,41.464,0,0,1-5.461,12.978,49.153,49.153,0,0,0-8.117,29.41L478.948,704.7h-22.9l4.659-115.853a48.663,48.663,0,0,0-9.786-31.227,132.5,132.5,0,0,1-8.24-12.244c-3.935-6.666-7.344-14.049-8.832-21.316l-.014-.07a6.216,6.216,0,0,1,8.535-6.931c5.057,2.168,11.234,6.319,20.069,7.031,5.941.48,11.825-3.866,16.511-7.278a5.63,5.63,0,0,1,8.939,4.314c0,.048,0,.1.006.145a64.907,64.907,0,0,1-1.6,17.587" transform="translate(-350.964 -417.335)" fill="#1f4168"/>
                  <path id="Trazado_729199" data-name="Trazado 729199" d="M486.9,529.477a43.976,43.976,0,0,1-20.861,22.862s-11.888-3.579-22.752-16.344c-3.935-6.666-7.344-14.049-8.832-21.316,2.962-1.553,7.075-4.769,6.7-10.547l43.774.158s-.217,5.4,3.57,7.6a64.9,64.9,0,0,1-1.6,17.587" transform="translate(-351.57 -407.956)" fill="#ffc89f"/>
                  <rect id="Rectángulo_348498" data-name="Rectángulo 348498" width="43.773" height="47.575" transform="translate(89.587 75.166)" fill="#ffc89f"/>
                  <path id="Trazado_729200" data-name="Trazado 729200" d="M460.657,156.068h0a29.152,29.152,0,0,1-29.152-29.152V91.3a29.152,29.152,0,0,1,58.3,0v35.613a29.152,29.152,0,0,1-29.152,29.152" transform="translate(-349.184 -50.294)" fill="#ffc89f"/>
                  <path id="Trazado_729201" data-name="Trazado 729201" d="M478.019,494.005a26.229,26.229,0,0,1-7.515-.74c-.617-.143-1.22-.341-1.829-.516-.307-.081-.6-.208-.9-.313l-.893-.329c-.3-.1-.583-.249-.874-.375l-.867-.393c-.294-.122-.565-.289-.847-.433l-.84-.448-.209-.113-.2-.127-.4-.254-.805-.507c-.136-.082-.266-.173-.393-.268l-.386-.279-.77-.559c-.5-.388-.978-.808-1.467-1.211-.474-.421-.922-.87-1.38-1.307a26.089,26.089,0,0,1-4.483-6.077,33.357,33.357,0,0,0,4.817,5.737l.7.622c.234.205.455.425.7.62.49.384.966.785,1.466,1.155.513.352,1.007.731,1.529,1.068l.793.491.4.245.2.123.206.11a30.77,30.77,0,0,0,6.866,2.879,33.491,33.491,0,0,0,7.394,1.2" transform="translate(-366.545 -388.231)" fill="#ff9b6c"/>
                  <path id="Trazado_729202" data-name="Trazado 729202" d="M676.075,470.346a20.245,20.245,0,0,1-1.827,3.544c-.183.279-.368.557-.557.831l-.592.808c-.205.263-.419.52-.628.78l-.657.757-.692.725-.717.7-.749.665c-.256.214-.515.425-.775.633a20.2,20.2,0,0,1-3.358,2.15c1.052-.811,2.075-1.639,3.052-2.515q.359-.337.724-.665l.706-.684.69-.7.668-.719.654-.732.631-.752.615-.766c.195-.263.4-.523.6-.783.781-1.055,1.509-2.151,2.218-3.275" transform="translate(-538.556 -380.615)" fill="#ff9b6c"/>
                  <path id="Trazado_729203" data-name="Trazado 729203" d="M403.169,308.5h1.517a5.423,5.423,0,0,0,5.423-5.423v-9.682a5.423,5.423,0,0,0-5.423-5.423h-1.517a5.423,5.423,0,0,0-5.423,5.423v9.682a5.423,5.423,0,0,0,5.423,5.423" transform="translate(-321.865 -233.032)" fill="#ffc89f"/>
                  <path id="Trazado_729204" data-name="Trazado 729204" d="M711.5,308.5h1.516a5.423,5.423,0,0,0,5.423-5.423v-9.682a5.423,5.423,0,0,0-5.423-5.423H711.5a5.423,5.423,0,0,0-5.423,5.423v9.682A5.423,5.423,0,0,0,711.5,308.5" transform="translate(-571.375 -233.032)" fill="#ffc89f"/>
                  <path id="Trazado_729205" data-name="Trazado 729205" d="M413.125,318.089a2.144,2.144,0,0,0-1.312,1.064,3.822,3.822,0,0,0-.347.783,5.591,5.591,0,0,0-.207.836,7.55,7.55,0,0,0-.093,1.721,6.894,6.894,0,0,0,.288,1.686,4.273,4.273,0,0,0,.754,1.479,1.854,1.854,0,0,0,.574.5c.1.037.142.042.2.014a.538.538,0,0,0,.182-.241,3.329,3.329,0,0,0,.207-.806c.044-.287.066-.581.085-.877.036-.591.039-1.189.036-1.79a12.439,12.439,0,0,1,.249,1.789,8.253,8.253,0,0,1,.011.915,3.221,3.221,0,0,1-.162.943,1,1,0,0,1-.332.478.642.642,0,0,1-.341.118.813.813,0,0,1-.321-.055,1.676,1.676,0,0,1-.457-.278,3.5,3.5,0,0,1-.353-.339,4.483,4.483,0,0,1-.908-1.67,7.01,7.01,0,0,1-.088-3.688,4.655,4.655,0,0,1,.774-1.69,2.61,2.61,0,0,1,.692-.63,1.775,1.775,0,0,1,.874-.262" transform="translate(-332.251 -257.406)" fill="#ff9b6c"/>
                  <path id="Trazado_729206" data-name="Trazado 729206" d="M424.1,316.787c-.063-.367-.091-.716-.12-1.059s-.052-.677-.1-1a2.211,2.211,0,0,0-.254-.848.719.719,0,0,0-.3-.272,1.648,1.648,0,0,0-.492-.127,1.014,1.014,0,0,1,.552-.167.914.914,0,0,1,.6.242,1.779,1.779,0,0,1,.5,1.086,3.534,3.534,0,0,1-.028,1.107,3.243,3.243,0,0,1-.358,1.034" transform="translate(-342.166 -253.545)" fill="#ff9b6c"/>
                  <path id="Trazado_729207" data-name="Trazado 729207" d="M743.241,318.089a1.777,1.777,0,0,1,.874.262,2.613,2.613,0,0,1,.692.63,4.648,4.648,0,0,1,.774,1.69,7.011,7.011,0,0,1-.088,3.688,4.484,4.484,0,0,1-.908,1.67,3.559,3.559,0,0,1-.353.339,1.676,1.676,0,0,1-.457.278.814.814,0,0,1-.321.055.643.643,0,0,1-.341-.118,1,1,0,0,1-.333-.478,3.237,3.237,0,0,1-.162-.943,8.3,8.3,0,0,1,.011-.915,12.486,12.486,0,0,1,.249-1.789c0,.6,0,1.2.037,1.79.019.3.041.59.085.877a3.329,3.329,0,0,0,.207.806.54.54,0,0,0,.182.241c.053.028.1.023.2-.014a1.852,1.852,0,0,0,.574-.5,4.277,4.277,0,0,0,.754-1.479,6.889,6.889,0,0,0,.288-1.686,7.552,7.552,0,0,0-.093-1.721,5.583,5.583,0,0,0-.207-.836,3.827,3.827,0,0,0-.347-.783,2.145,2.145,0,0,0-1.312-1.064" transform="translate(-600.938 -257.406)" fill="#ff9b6c"/>
                  <path id="Trazado_729208" data-name="Trazado 729208" d="M738.592,316.787a3.238,3.238,0,0,1-.359-1.034,3.544,3.544,0,0,1-.029-1.107,1.781,1.781,0,0,1,.5-1.086.914.914,0,0,1,.6-.242,1.015,1.015,0,0,1,.552.167,1.647,1.647,0,0,0-.492.127.716.716,0,0,0-.3.272,2.2,2.2,0,0,0-.254.848c-.047.318-.07.654-.1,1s-.057.692-.12,1.059" transform="translate(-597.347 -253.545)" fill="#ff9b6c"/>
                  <path id="Trazado_729209" data-name="Trazado 729209" d="M661.223,318.139a2.624,2.624,0,1,1-2.624-2.624,2.624,2.624,0,0,1,2.624,2.624" transform="translate(-530.83 -255.323)" fill="#1b1b2f"/>
                  <path id="Trazado_729210" data-name="Trazado 729210" d="M648.624,305.107a9.5,9.5,0,0,0-2.576-1.318,8.4,8.4,0,0,0-2.817-.44,7.75,7.75,0,0,0-1.422.141,3.482,3.482,0,0,0-.351.071l-.349.083c-.228.073-.463.127-.688.212a14.356,14.356,0,0,0-2.625,1.25,9.406,9.406,0,0,1,2.513-1.548,7.859,7.859,0,0,1,2.916-.617,7.534,7.534,0,0,1,2.932.549,7.138,7.138,0,0,1,2.467,1.615" transform="translate(-516.119 -245.148)" fill="#1b1b2f"/>
                  <path id="Trazado_729211" data-name="Trazado 729211" d="M516.862,318.139a2.624,2.624,0,1,1-2.624-2.624,2.624,2.624,0,0,1,2.624,2.624" transform="translate(-414.01 -255.323)" fill="#1b1b2f"/>
                  <path id="Trazado_729212" data-name="Trazado 729212" d="M504.264,305.107a9.5,9.5,0,0,0-2.576-1.318,8.4,8.4,0,0,0-2.817-.44,7.748,7.748,0,0,0-1.421.141,3.463,3.463,0,0,0-.351.071l-.349.083c-.228.073-.463.127-.688.212a14.355,14.355,0,0,0-2.625,1.25,9.406,9.406,0,0,1,2.513-1.548,7.86,7.86,0,0,1,2.916-.617,7.534,7.534,0,0,1,2.932.549,7.14,7.14,0,0,1,2.467,1.615" transform="translate(-399.3 -245.148)" fill="#1b1b2f"/>
                  <path id="Trazado_729213" data-name="Trazado 729213" d="M602.381,353.72q.354,1.669.632,3.349c.191,1.119.357,2.242.52,3.365.036.284.081.555.108.853a4.974,4.974,0,0,1,0,.882,4.681,4.681,0,0,1-.458,1.7,2.958,2.958,0,0,1-1.173,1.3c-.507.261-1.006.529-1.519.776.465-.327.947-.63,1.416-.948a2.341,2.341,0,0,0,.582-.561,3.3,3.3,0,0,0,.406-.7,4.673,4.673,0,0,0,.362-1.588,5.053,5.053,0,0,0-.016-.818c-.026-.266-.077-.556-.115-.834-.154-1.124-.3-2.249-.43-3.378s-.238-2.259-.318-3.394" transform="translate(-485.934 -286.239)" fill="#1b1b2f"/>
                  <path id="Trazado_729214" data-name="Trazado 729214" d="M562.146,432.783a6.268,6.268,0,0,1-.515.886,8.118,8.118,0,0,1-.658.77,6.571,6.571,0,0,1-.78.66c-.141.1-.285.2-.432.293s-.306.169-.465.251a6.706,6.706,0,0,1-1,.4,6.43,6.43,0,0,1-1.09.216,6.04,6.04,0,0,1-2.265-.163,6.4,6.4,0,0,1-2.035-.957,6.6,6.6,0,0,1-1.526-1.5,6.869,6.869,0,0,1-.949-1.815,6.555,6.555,0,0,1-.247-.986,4.137,4.137,0,0,1-.051-1.031c.293.193.562.377.821.558l.762.518c.118.079.234.157.35.232.371.244.729.47,1.08.676a10.441,10.441,0,0,0,2.626,1.155,7.347,7.347,0,0,0,1.322.222c.228.031.466.02.711.039.244-.017.5,0,.758-.027.523-.017,1.077-.1,1.67-.163l.238-.033c.22-.035.442-.069.678-.09a8.976,8.976,0,0,1,.994-.114" transform="translate(-445.172 -347.812)" fill="#e43f5a"/>
                  <path id="Trazado_729215" data-name="Trazado 729215" d="M568.731,438.533a3.993,3.993,0,0,1-.5.464c-.112.088-.228.173-.346.259s-.251.151-.379.222a5.177,5.177,0,0,1-.825.361,5.393,5.393,0,0,1-.911.2,4.9,4.9,0,0,1-1.911-.126,5.2,5.2,0,0,1-2.945-2.1,4.983,4.983,0,0,1-.587-1.151c.371.244.729.471,1.08.676a10.448,10.448,0,0,0,2.626,1.155,7.369,7.369,0,0,0,1.322.222c.228.031.466.02.711.039.245-.016.5,0,.758-.026.523-.016,1.078-.1,1.67-.163l.238-.033" transform="translate(-453.429 -353.358)" fill="#fff"/>
                  <path id="Trazado_729216" data-name="Trazado 729216" d="M651.4,259.634l-1.542-.43c-.468-.132-.911-.242-1.329-.347-.841-.2-1.6-.367-2.362-.483-.383-.058-.768-.119-1.168-.161-.2-.032-.4-.039-.611-.07-.208-.012-.421-.047-.64-.06-.109-.008-.221-.022-.333-.033s-.226-.015-.343-.028c-.233-.027-.471-.04-.719-.066s-.5-.04-.773-.08a7.5,7.5,0,0,1-.843-.122,4.5,4.5,0,0,1,.5-.718,5.8,5.8,0,0,1,.6-.6,5.623,5.623,0,0,1,.684-.491c.12-.074.243-.142.367-.211s.255-.121.386-.176a6.119,6.119,0,0,1,.809-.282c.139-.035.28-.066.422-.093l.213-.041.217-.025a6.23,6.23,0,0,1,4.881,1.527,5.3,5.3,0,0,1,1.069,1.336,4.567,4.567,0,0,1,.349.786,3.015,3.015,0,0,1,.169.865" transform="translate(-518.495 -206.412)" fill="#1b1b2f"/>
                  <path id="Trazado_729217" data-name="Trazado 729217" d="M499.6,258.738l-1.6.123c-.485.036-.939.085-1.368.129-.859.1-1.625.2-2.385.354-.38.076-.762.15-1.153.248-.2.038-.392.1-.6.143-.2.06-.412.1-.622.163-.105.03-.215.055-.325.083s-.218.063-.331.092c-.228.054-.457.124-.7.184s-.485.134-.753.189a7.5,7.5,0,0,1-.834.174,4.478,4.478,0,0,1,.221-.845,5.845,5.845,0,0,1,.361-.765,5.641,5.641,0,0,1,.475-.7c.088-.11.18-.217.273-.324s.2-.2.3-.3a6.112,6.112,0,0,1,.664-.542c.119-.081.241-.157.365-.232l.186-.112.194-.1a6.229,6.229,0,0,1,5.109-.235,5.3,5.3,0,0,1,1.462.89,4.572,4.572,0,0,1,.6.62,2.993,2.993,0,0,1,.455.755" transform="translate(-395.661 -207.186)" fill="#1b1b2f"/>
                  <path id="Trazado_729218" data-name="Trazado 729218" d="M391.747,40.567l1.168-.6-1.168,7.1-3.5,3.562s.584,13.858.389,13.858-4.867-13.258-4.867-24.118c0,0-3.492,3.161,1.051,8.225,0,0-6.334-.935-3.348-6.387a42.8,42.8,0,0,0,2.808-6.091q.041-.114.084-.23l-1.686,2.282s-1.226-2.282,1.38-6.216c0,0-5.748,4.327-5.825,10.464A11.174,11.174,0,0,1,383.057,30.3s-.8-4.243,3.584-10.8a11.9,11.9,0,0,0-4.23,5.527s-2.065-7.9,10.5-10.738c0,0,2.186-6.238,10.492-3.158,0,0-2.814-9.667,8.839-11.128,0,0-8.718,2.466-7.117,10.229,0,0,3.736-12.786,16.013-8.037,0,0,3.825-.731,5.782,3.653,0,0,6.583,3.379,10.586,0,0,0-1.512,4.2-6.049,2.1A9.855,9.855,0,0,0,437.51,9.41c3.38-.365,4.8,3.2,4.8,3.2s8.336-.8,8.07,9.163c0,0,11.3,6.485,7.979,15.427,0,0,.465-7.782-8.777-12.082,0,0,10.4,11.178,5.744,16.706,0,0,.946-3.511-2.765-7.171l-2.11,6.8s3.711,5.752,1.892,8.217c0,0-.728-5.752-2.183-7.769,0,0,1,11.859-4.1,18.353l.246-9.192-3.2-4.972-.821-10.123s-7.147-4.554-6.9-4.554a20.136,20.136,0,0,0,2.053-.675s-3.286-6.494-12.65-3.289l.246-1.1-3.614,1.6.739-2.193-3.039,2.193-3.039-1.012.667,1.181-6.006-1.6.739.928s-11.172.506-18.4,8.1l1.889-.59Z" transform="translate(-305.802 -0.003)" fill="#1b1b2f"/>
                  <path id="Trazado_729219" data-name="Trazado 729219" d="M509.957,39.675a9.277,9.277,0,0,0,.2,2.569c.066.425.2.836.3,1.252.126.41.267.816.4,1.222a21.509,21.509,0,0,0,2.409,4.536,34.5,34.5,0,0,0,3.22,4.028l1.819,1.843c.634.587,1.277,1.165,1.906,1.764-.687-.527-1.358-1.076-2.04-1.616q-.968-.869-1.914-1.77l-.891-.954c-.294-.321-.6-.631-.866-.978l-.816-1.022a6.382,6.382,0,0,1-.386-.528l-.37-.54a19.264,19.264,0,0,1-2.369-4.657c-.124-.419-.256-.836-.362-1.259l-.134-.642a5.792,5.792,0,0,1-.106-.646,8.509,8.509,0,0,1-.007-2.6" transform="translate(-412.59 -32.107)" fill="#1f4068"/>
                  <path id="Trazado_729220" data-name="Trazado 729220" d="M536.377,34.2a8.449,8.449,0,0,0-.574,2.165,12.715,12.715,0,0,0-.123,2.227,16.218,16.218,0,0,0,.8,4.373c.12.352.224.71.355,1.058l.434,1.031c.074.171.137.347.218.515l.254.5.5,1c.174.331.381.644.566.969l.572.969c.415.624.843,1.242,1.251,1.877-.481-.579-.943-1.175-1.417-1.765-.422-.625-.851-1.25-1.249-1.893l-.546-1-.271-.5c-.087-.168-.156-.345-.235-.518l-.453-1.045c-.136-.354-.247-.719-.372-1.078a14.606,14.606,0,0,1-.725-4.492,11.249,11.249,0,0,1,.244-2.266,7.622,7.622,0,0,1,.769-2.129" transform="translate(-433.228 -27.679)" fill="#1f4068"/>
                  <path id="Trazado_729221" data-name="Trazado 729221" d="M606.52,68.62a28.99,28.99,0,0,0,2.356-2.965,24.027,24.027,0,0,0,1.914-3.241,17.15,17.15,0,0,0,.737-1.727,15.372,15.372,0,0,0,.546-1.8,13.817,13.817,0,0,0,.374-3.746,9.453,9.453,0,0,1,.111.947c.008.159.024.318.027.478l0,.479a11.416,11.416,0,0,1-.2,1.908,14.576,14.576,0,0,1-1.227,3.634c-.284.574-.593,1.135-.93,1.678s-.7,1.068-1.094,1.572a17.975,17.975,0,0,1-2.612,2.778" transform="translate(-490.81 -44.625)" fill="#1f4068"/>
                  <path id="Trazado_729222" data-name="Trazado 729222" d="M587.966,91.186a10.923,10.923,0,0,1-.434-1.94,14.956,14.956,0,0,1-.138-1.987,12.642,12.642,0,0,1,.155-1.989,8.793,8.793,0,0,1,.525-1.92c-.082.66-.169,1.305-.209,1.957-.018.326-.042.65-.048.976l-.016.488v.489c0,1.3.075,2.606.165,3.927" transform="translate(-475.333 -67.449)" fill="#1f4068"/>
                  <path id="Trazado_729223" data-name="Trazado 729223" d="M620.683,75.375a37.2,37.2,0,0,1,4.042-3.814c.717-.59,1.46-1.148,2.216-1.688s1.544-1.037,2.343-1.513a27.145,27.145,0,0,1,2.477-1.29,19.281,19.281,0,0,1,2.616-.985,12.464,12.464,0,0,1,5.519-.48,14.063,14.063,0,0,0-5.424.783c-.437.138-.863.312-1.291.474-.422.179-.845.356-1.258.558-.829.392-1.644.819-2.433,1.291a44.973,44.973,0,0,0-4.569,3.1q-1.1.841-2.158,1.732c-.712.589-1.4,1.2-2.081,1.833" transform="translate(-502.271 -52.989)" fill="#1f4068"/>
                  <path id="Trazado_729224" data-name="Trazado 729224" d="M670.821,98.143a13.022,13.022,0,0,1,4.761-1.1,20.543,20.543,0,0,1,9.586,1.826,16.624,16.624,0,0,1,4.108,2.657,21.044,21.044,0,0,0-4.236-2.365,23.837,23.837,0,0,0-9.446-1.8,18.764,18.764,0,0,0-2.413.2l-.6.093-.591.138-.3.07c-.1.023-.193.062-.29.092Z" transform="translate(-542.844 -78.506)" fill="#1f4068"/>
                  <path id="Trazado_729225" data-name="Trazado 729225" d="M739.48,160.306a24.323,24.323,0,0,0-2-2.58,25.3,25.3,0,0,0-2.292-2.3,24.468,24.468,0,0,0-2.554-2.005,32.635,32.635,0,0,0-2.786-1.7,16.457,16.457,0,0,1,2.96,1.438c.48.273.921.6,1.372.921.226.159.431.343.648.513l.321.26c.105.089.206.183.309.274.2.188.41.369.606.563l.582.588c.37.408.74.817,1.077,1.253a14.141,14.141,0,0,1,1.756,2.782" transform="translate(-590.61 -122.772)" fill="#1f4068"/>
                  <path id="Trazado_729226" data-name="Trazado 729226" d="M436.268,75.2a9.926,9.926,0,0,1,2.645-1.053c.233-.053.465-.11.7-.155l.709-.113a13.314,13.314,0,0,1,1.433-.091l.359,0c.12,0,.239.015.359.022.239.019.479.026.717.055a11.274,11.274,0,0,1,1.41.271A10.415,10.415,0,0,1,447.24,75.2a17.752,17.752,0,0,0-2.71-.755c-.455-.1-.92-.142-1.381-.2-.231-.02-.464-.027-.7-.041-.116-.005-.232-.015-.348-.016l-.349.006a15.01,15.01,0,0,0-2.777.261,16.249,16.249,0,0,0-2.713.744" transform="translate(-353.038 -59.71)" fill="#1f4068"/>
                  <path id="Trazado_729227" data-name="Trazado 729227" d="M476.894,121.11c-.685-.354-1.375-.692-2.082-.993s-1.415-.593-2.134-.855-1.448-.5-2.186-.686a18.647,18.647,0,0,0-2.235-.461,13.22,13.22,0,0,0-2.266-.129,8.493,8.493,0,0,0-2.228.35,7.015,7.015,0,0,0-2.032.977,8.106,8.106,0,0,0-1.633,1.6,7.389,7.389,0,0,1,1.512-1.757,6.741,6.741,0,0,1,2.056-1.12,8.244,8.244,0,0,1,2.308-.433,13.13,13.13,0,0,1,2.34.111,19.438,19.438,0,0,1,4.478,1.255,23.5,23.5,0,0,1,4.1,2.144" transform="translate(-372.322 -95.155)" fill="#1f4068"/>
                  <path id="Trazado_729228" data-name="Trazado 729228" d="M438.9,141.216c-1.238-.157-2.481-.252-3.726-.294s-2.489-.049-3.73,0-2.481.148-3.711.311a32.122,32.122,0,0,0-3.657.668,28.247,28.247,0,0,0-3.543,1.1,23.841,23.841,0,0,0-3.327,1.633,19.8,19.8,0,0,0-2.968,2.224,19.231,19.231,0,0,0-2.463,2.8,16.794,16.794,0,0,1,1.083-1.529l.293-.367a4.073,4.073,0,0,1,.305-.357l.643-.687a18.492,18.492,0,0,1,2.939-2.349,22.451,22.451,0,0,1,3.352-1.722,27.8,27.8,0,0,1,3.59-1.142,34.43,34.43,0,0,1,7.455-.9c1.252-.02,2.5.022,3.751.12a33.523,33.523,0,0,1,3.714.492" transform="translate(-333.218 -113.776)" fill="#1f4068"/>
                  <path id="Trazado_729229" data-name="Trazado 729229" d="M393.229,151.127a10.449,10.449,0,0,1,1.964-1.813c.183-.129.365-.26.553-.382l.572-.353c.392-.217.787-.432,1.2-.613s.833-.336,1.253-.492a12.615,12.615,0,0,1,1.3-.338,10.614,10.614,0,0,1,2.665-.217,20.483,20.483,0,0,0-2.591.526c-.425.1-.836.259-1.251.394-.405.164-.82.3-1.212.5a18.036,18.036,0,0,0-2.314,1.238,19.715,19.715,0,0,0-2.142,1.551" transform="translate(-318.21 -118.885)" fill="#1f4068"/>
                  <path id="Trazado_729230" data-name="Trazado 729230" d="M706.31,182.649a24.393,24.393,0,0,1,2.434,1.265c.79.46,1.562.952,2.318,1.466s1.495,1.054,2.208,1.626,1.412,1.163,2.073,1.8c-.767-.5-1.511-1.026-2.262-1.54l-2.249-1.546c-.747-.518-1.5-1.021-2.256-1.534Z" transform="translate(-571.563 -147.804)" fill="#1f4068"/>
                  <path id="Trazado_729231" data-name="Trazado 729231" d="M404.089,197.524a3.682,3.682,0,0,1,.368-.859,6.739,6.739,0,0,1,.524-.779,9.311,9.311,0,0,1,1.307-1.341,12.057,12.057,0,0,1,1.516-1.087c.266-.16.541-.305.813-.452.282-.131.562-.264.85-.379-.244.194-.5.372-.746.55s-.493.365-.74.545-.492.361-.724.558l-.358.282c-.118.1-.231.2-.347.294a16.644,16.644,0,0,0-1.33,1.237,8.927,8.927,0,0,0-1.132,1.432" transform="translate(-326.998 -155.879)" fill="#1f4068"/>
                  <path id="Trazado_729232" data-name="Trazado 729232" d="M423.326,213.615c.423-.8.883-1.578,1.358-2.346s.968-1.523,1.469-2.274,1.023-1.487,1.56-2.212,1.087-1.443,1.674-2.132c-.448.787-.926,1.552-1.411,2.312s-.983,1.511-1.485,2.26-1.016,1.488-1.542,2.221-1.058,1.462-1.622,2.17" transform="translate(-342.565 -165.609)" fill="#1f4068"/>
                  <g id="Grupo_1013193" data-name="Grupo 1013193" transform="translate(13.331 192.174)" opacity="0.4" style="mix-blend-mode: multiply;isolation: isolate">
                    <g id="Grupo_1013192" data-name="Grupo 1013192">
                      <g id="Grupo_1013191-2" data-name="Grupo 1013191" clip-path="url(#clip-path-7)">
                        <path id="Trazado_729233" data-name="Trazado 729233" d="M95.348,1039.812s-26.729-14.088-25.425-32.487c0,0,4.868,21.542,25.425,32.487" transform="translate(-69.876 -1007.325)" fill="#a65b3c"/>
                      </g>
                    </g>
                  </g>
                  <g id="Grupo_1013196" data-name="Grupo 1013196" transform="translate(5.406 221.528)" opacity="0.4" style="mix-blend-mode: multiply;isolation: isolate">
                    <g id="Grupo_1013195" data-name="Grupo 1013195">
                      <g id="Grupo_1013194" data-name="Grupo 1013194" clip-path="url(#clip-path-8)">
                        <path id="Trazado_729234" data-name="Trazado 729234" d="M28.337,1167.627s7.3-8.342,21.7-1.8c0,0-8.134-11.533-21.7,1.8" transform="translate(-28.337 -1161.193)" fill="#a65b3c"/>
                      </g>
                    </g>
                  </g>
                  <g id="Grupo_1013199" data-name="Grupo 1013199" transform="translate(0.435 244.949)" opacity="0.4" style="mix-blend-mode: multiply;isolation: isolate">
                    <g id="Grupo_1013198" data-name="Grupo 1013198">
                      <g id="Grupo_1013197" data-name="Grupo 1013197" clip-path="url(#clip-path-9)">
                        <path id="Trazado_729235" data-name="Trazado 729235" d="M19.137,1309.563c-11.961,1.019-15.842-6.476-16.859-13.7,0,.022.009.044.011.067.631,5.3,6.852,11.485,7.466-.626a43.783,43.783,0,0,1,1.8-11.348,26.247,26.247,0,0,0,7.587,25.6" transform="translate(-2.278 -1283.961)" fill="#a65b3c"/>
                      </g>
                    </g>
                  </g>
                  <g id="Grupo_1013202" data-name="Grupo 1013202" transform="translate(137.948 247.687)" opacity="0.4" style="mix-blend-mode: multiply;isolation: isolate">
                    <g id="Grupo_1013201" data-name="Grupo 1013201">
                      <g id="Grupo_1013200" data-name="Grupo 1013200" clip-path="url(#clip-path-10)">
                        <path id="Trazado_729236" data-name="Trazado 729236" d="M750.479,1298.312s-6.488,19.838-24.11,39.675h-3.282s21.922-23.431,27.392-39.675" transform="translate(-723.087 -1298.312)" fill="#a65b3c"/>
                      </g>
                    </g>
                  </g>
                  <g id="Grupo_1013205" data-name="Grupo 1013205" transform="translate(180.158 210.632)" opacity="0.4" style="mix-blend-mode: multiply;isolation: isolate">
                    <g id="Grupo_1013204" data-name="Grupo 1013204">
                      <g id="Grupo_1013203" data-name="Grupo 1013203" clip-path="url(#clip-path-11)">
                        <path id="Trazado_729237" data-name="Trazado 729237" d="M944.338,1119.789s9.4-24.131,32.5-9.484c0,0-20.075-19.044-32.5,9.484" transform="translate(-944.338 -1104.079)" fill="#a65b3c"/>
                      </g>
                    </g>
                  </g>
                  <g id="Grupo_1013208" data-name="Grupo 1013208" transform="translate(202.294 231.328)" opacity="0.4" style="mix-blend-mode: multiply;isolation: isolate">
                    <g id="Grupo_1013207" data-name="Grupo 1013207">
                      <g id="Grupo_1013206" data-name="Grupo 1013206" clip-path="url(#clip-path-12)">
                        <path id="Trazado_729238" data-name="Trazado 729238" d="M1060.374,1212.83s9.788,1.918,12.972,8.658c0,0,3.21-10.754-12.972-8.658" transform="translate(-1060.373 -1212.559)" fill="#a65b3c"/>
                      </g>
                    </g>
                  </g>
                  <g id="Grupo_1013211" data-name="Grupo 1013211" transform="translate(42.786 236.023)" opacity="0.4" style="mix-blend-mode: multiply;isolation: isolate">
                    <g id="Grupo_1013210" data-name="Grupo 1013210">
                      <g id="Grupo_1013209" data-name="Grupo 1013209" clip-path="url(#clip-path-13)">
                        <path id="Trazado_729239" data-name="Trazado 729239" d="M253.684,1288.512l-10.612-6.063a15.57,15.57,0,0,1-7.4-17.232,25.063,25.063,0,0,1,7.66-12.731l10.845-9.67,34.013,5.317.116-2.892-30.78-8.07-28.583,24.251a35.118,35.118,0,0,1-3.788,6.708l-.885,20.38Z" transform="translate(-224.275 -1237.172)" fill="#a65b3c"/>
                      </g>
                    </g>
                  </g>
                  <g id="Grupo_1013214" data-name="Grupo 1013214" transform="translate(45.724 218.284)" opacity="0.4" style="mix-blend-mode: multiply;isolation: isolate">
                    <g id="Grupo_1013213" data-name="Grupo 1013213">
                      <g id="Grupo_1013212" data-name="Grupo 1013212" clip-path="url(#clip-path-14)">
                        <path id="Trazado_729240" data-name="Trazado 729240" d="M239.673,1144.188s1.582,13.81,15.383,5.887L239.94,1156.6Z" transform="translate(-239.673 -1144.188)" fill="#a65b3c"/>
                      </g>
                    </g>
                  </g>
                  <g id="Grupo_1013217" data-name="Grupo 1013217" transform="translate(33.444 169.981)" opacity="0.4" style="mix-blend-mode: multiply;isolation: isolate">
                    <g id="Grupo_1013216" data-name="Grupo 1013216">
                      <g id="Grupo_1013215" data-name="Grupo 1013215" clip-path="url(#clip-path-15)">
                        <path id="Trazado_729241" data-name="Trazado 729241" d="M184.646,948.376a17.271,17.271,0,0,0,2.939-9.074s-.682-12.183-1.553-21.786h0v0c-.323-3.56-.672-6.767-1.023-8.865l.006.053-.006-.053c-5.815-6.937-9.7-17.649-9.7-17.649a106.743,106.743,0,0,0,4.178,11.86,84.061,84.061,0,0,1,5.31,44.6q-.071.46-.148.915" transform="translate(-175.306 -890.999)" fill="#a65b3c"/>
                      </g>
                    </g>
                  </g>
                  <g id="Grupo_1013220" data-name="Grupo 1013220" transform="translate(137.967 212.14)" opacity="0.4" style="mix-blend-mode: multiply;isolation: isolate">
                    <g id="Grupo_1013219" data-name="Grupo 1013219">
                      <g id="Grupo_1013218" data-name="Grupo 1013218" clip-path="url(#clip-path-16)">
                        <path id="Trazado_729242" data-name="Trazado 729242" d="M762.669,1154.561a59.214,59.214,0,0,1-2.486-18.007c.05-11.075,3.5-24.572,3.5-24.572-7.206,23.2-40.5,40.335-40.5,40.335l34.885-12.63a34.527,34.527,0,0,0,4.6,14.874" transform="translate(-723.184 -1111.981)" fill="#a65b3c"/>
                      </g>
                    </g>
                  </g>
                  <g id="Grupo_1013223" data-name="Grupo 1013223" transform="translate(85.084 150.724)" opacity="0.4" style="mix-blend-mode: multiply;isolation: isolate">
                    <g id="Grupo_1013222" data-name="Grupo 1013222">
                      <g id="Grupo_1013221" data-name="Grupo 1013221" clip-path="url(#clip-path-17)">
                        <path id="Trazado_729243" data-name="Trazado 729243" d="M445.985,798.922s18.463-22.122,22.289,3.522c0,0-8.05-17.5-22.289-3.522" transform="translate(-445.985 -790.056)" fill="#a65b3c"/>
                      </g>
                    </g>
                  </g>
                  <g id="Grupo_1013226" data-name="Grupo 1013226" transform="translate(122.941 154.743)" opacity="0.4" style="mix-blend-mode: multiply;isolation: isolate">
                    <g id="Grupo_1013225" data-name="Grupo 1013225">
                      <g id="Grupo_1013224" data-name="Grupo 1013224" clip-path="url(#clip-path-18)">
                        <path id="Trazado_729244" data-name="Trazado 729244" d="M661.5,815.972s-15-15.688-17.082,9.388c0,0,2.452-18.623,17.082-9.388" transform="translate(-644.421 -811.126)" fill="#a65b3c"/>
                      </g>
                    </g>
                  </g>
                  <path id="Trazado_729245" data-name="Trazado 729245" d="M574.742,1355.517s-18.413-7.434-17.109-25.832c0,0,1.425,17.392,17.109,25.832" transform="translate(-451.196 -1076.013)" fill="#112e4c"/>
                  <path id="Trazado_729246" data-name="Trazado 729246" d="M579.343,1309.871l-.754-14.935-19.4-4.65-.073,1.808,9.1,4.442A21.212,21.212,0,0,1,579.343,1309.871Z" transform="translate(-452.45 -1044.13)" fill="#112e4c"/>
                  <path id="Trazado_729247" data-name="Trazado 729247" d="M212.759,875.047c.4,2.495.748,5,1.1,7.5s.665,5.009.978,7.516q.241,1.879.453,3.762c.145,1.255.291,2.51.424,3.766l.405,3.768.383,3.771.339,3.775c.116,1.258.217,2.517.314,3.777q.311,3.778.536,7.561c.076,1.261.129,2.524.2,3.785l.092,1.893.063,1.894.055,1.894.028.947.01.948.028,3.789-.129-3.787-.031-.946-.049-.946-.1-1.891-.091-1.892-.118-1.89c-.083-1.26-.154-2.52-.247-3.779q-.541-7.555-1.276-15.1c-.468-5.029-1.017-10.049-1.576-15.069q-.416-3.765-.872-7.526c-.288-2.509-.6-5.015-.915-7.522" transform="translate(-172.169 -708.109)" fill="#a65b3c"/>
                  <path id="Trazado_729248" data-name="Trazado 729248" d="M764.4,1298.312c-.593,1.854-1.317,3.663-2.055,5.465-.39.892-.762,1.792-1.177,2.673s-.807,1.772-1.243,2.644-.847,1.755-1.311,2.61l-.681,1.293-.34.646-.356.638-1.429,2.549-1.5,2.508c-.493.841-1.04,1.647-1.564,2.468s-1.044,1.645-1.609,2.439l-1.661,2.4c-.552.8-1.155,1.568-1.735,2.35l-.877,1.168c-.148.194-.289.392-.442.581l-.458.569-1.835,2.272c-.6.764-1.263,1.481-1.9,2.214l-1.935,2.185,1.857-2.251c.617-.751,1.255-1.486,1.835-2.266l1.79-2.3.447-.575c.148-.193.286-.393.43-.588l.854-1.181c2.31-3.125,4.447-6.375,6.48-9.685l1.509-2.492,1.44-2.533.359-.634.343-.642.687-1.285c.465-.853.9-1.723,1.341-2.588s.866-1.739,1.287-2.615.816-1.764,1.224-2.646c.795-1.774,1.552-3.565,2.226-5.391" transform="translate(-599.06 -1050.625)" fill="#a65b3c"/>
                  <path id="Trazado_729249" data-name="Trazado 729249" d="M233.414,1243.685a30.167,30.167,0,0,1,1.7,7.615,31.743,31.743,0,0,1-.944,11.663c-.182.628-.357,1.258-.578,1.874-.2.624-.453,1.227-.694,1.833a29.983,29.983,0,0,1-3.947,6.731l.535-.816c.178-.271.366-.536.526-.82.332-.558.675-1.109.967-1.689a31.118,31.118,0,0,0,1.647-3.517,36.555,36.555,0,0,0,1.209-3.686,34.222,34.222,0,0,0,.754-3.8,35.611,35.611,0,0,0,.234-7.745,35.232,35.232,0,0,0-.494-3.855,29.287,29.287,0,0,0-.913-3.785" transform="translate(-185.271 -1006.419)" fill="#a65b3c"/>
                  <path id="Trazado_729250" data-name="Trazado 729250" d="M530.526,870.921l-.859,15.157-.9,15.155-1.859,30.306-1.947,30.3-1.005,15.148-1.045,15.145.859-15.158.9-15.155,1.86-30.305,1.948-30.3,1-15.148Z" transform="translate(-423.152 -704.77)" fill="#a65b3c"/>
                  <path id="Trazado_729251" data-name="Trazado 729251" d="M644.421,894.421l1.751,29.2.89,14.6.93,14.595c.3,4.866.627,9.729.948,14.593l1.014,14.589.256,3.648.274,3.646c.186,2.43.354,4.862.557,7.29l.577,7.29.632,7.285-.725-7.276-.67-7.283c-.224-2.427-.407-4.858-.612-7.287l-.3-3.644-.282-3.645c-.758-9.721-1.409-19.45-2.05-29.179q-.917-14.6-1.732-29.2l-.771-14.6Z" transform="translate(-521.48 -723.787)" fill="#a65b3c"/>
                  <path id="Trazado_729252" data-name="Trazado 729252" d="M38.057,1197.491a23.546,23.546,0,0,0-4.682-2.729,24.58,24.58,0,0,0-5.15-1.637,24.226,24.226,0,0,0-5.371-.476,20.438,20.438,0,0,0-5.312.836,17.427,17.427,0,0,0-4.86,2.272,17.6,17.6,0,0,0-3.93,3.657,19.269,19.269,0,0,0-2.719,4.656,28.8,28.8,0,0,0-1.579,5.188A27.071,27.071,0,0,1,5.86,1204a19.418,19.418,0,0,1,2.661-4.765,17.071,17.071,0,0,1,3.967-3.764,17.737,17.737,0,0,1,4.946-2.349,20.8,20.8,0,0,1,5.412-.817,22.9,22.9,0,0,1,5.439.536,24.659,24.659,0,0,1,5.167,1.755,22.38,22.38,0,0,1,4.6,2.9" transform="translate(-3.605 -964.836)" fill="#a65b3c"/>
                  <path id="Trazado_729253" data-name="Trazado 729253" d="M46.979,1283.8a23.35,23.35,0,0,0-.535,3.457,29.039,29.039,0,0,0-.1,3.489,27.714,27.714,0,0,0,1.069,6.868,26.4,26.4,0,0,0,2.8,6.357,30.592,30.592,0,0,0,4.344,5.462,25.99,25.99,0,0,1-4.6-5.3l-.46-.753-.228-.378-.209-.389c-.138-.26-.28-.518-.414-.78l-.378-.8a24.873,24.873,0,0,1-1.225-3.311,26.89,26.89,0,0,1-.741-3.452,26.479,26.479,0,0,1-.049-7.032c.073-.582.174-1.16.288-1.735a15.577,15.577,0,0,1,.432-1.7" transform="translate(-37.263 -1038.882)" fill="#a65b3c"/>
                  <path id="Trazado_729254" data-name="Trazado 729254" d="M28.337,1175.862a8.667,8.667,0,0,1,1.04-1.013,13.9,13.9,0,0,1,1.164-.876,14.855,14.855,0,0,1,2.574-1.371,15.856,15.856,0,0,1,2.793-.862,18.4,18.4,0,0,1,2.9-.356,20.314,20.314,0,0,1,2.92.11c.482.069.967.119,1.443.219.239.046.479.086.717.136l.709.172a26.078,26.078,0,0,1,5.435,2.036,33.6,33.6,0,0,0-5.5-1.746l-.7-.149c-.236-.044-.473-.08-.709-.121-.471-.089-.95-.13-1.425-.189a20.731,20.731,0,0,0-2.867-.088,17.661,17.661,0,0,0-5.6,1.112,16.216,16.216,0,0,0-2.584,1.253,12.315,12.315,0,0,0-2.3,1.732" transform="translate(-22.931 -947.899)" fill="#a65b3c"/>
                  <path id="Trazado_729255" data-name="Trazado 729255" d="M95.236,1039.812A68.2,68.2,0,0,1,86.1,1034a60.674,60.674,0,0,1-8.09-7.219,42.586,42.586,0,0,1-3.418-4.222,30.225,30.225,0,0,1-2.748-4.688,25,25,0,0,1-1.012-2.524,20.492,20.492,0,0,1-.712-2.623,18.847,18.847,0,0,1-.308-5.4,21.4,21.4,0,0,0,.06,2.7,19.192,19.192,0,0,0,.431,2.66,20.646,20.646,0,0,0,.757,2.583,24.668,24.668,0,0,0,1.049,2.478,36.744,36.744,0,0,0,6.182,8.779c1.211,1.328,2.5,2.586,3.836,3.792s2.731,2.345,4.15,3.453,2.886,2.158,4.38,3.166,3.016,1.977,4.581,2.876" transform="translate(-56.433 -815.151)" fill="#a65b3c"/>
                  <path id="Trazado_729256" data-name="Trazado 729256" d="M59.807,1069.038c-.568-.552-1.095-1.141-1.6-1.744s-.995-1.227-1.461-1.864-.908-1.295-1.311-1.976a15.129,15.129,0,0,1-1.074-2.116c.434.662.876,1.309,1.323,1.953.229.319.449.643.682.959s.457.638.688.954l1.386,1.906c.463.635.923,1.274,1.37,1.927" transform="translate(-43.987 -858.86)" fill="#a65b3c"/>
                  <path id="Trazado_729257" data-name="Trazado 729257" d="M574.564,1355.517a30.67,30.67,0,0,1-7.129-4.18,29.575,29.575,0,0,1-3.1-2.764c-.237-.253-.485-.495-.714-.756l-.688-.78-.653-.811c-.221-.267-.414-.556-.622-.834a22.785,22.785,0,0,1-4.207-15.708l-.011,1.033c0,.344-.02.688.006,1.032l.049,1.03a5.116,5.116,0,0,0,.043.513l.058.512.055.512.028.256.044.253.174,1.013a5.134,5.134,0,0,0,.106.5l.12.5c.081.333.152.668.262.992l.3.981.353.963c.062.16.112.323.183.479l.206.47c.143.311.263.632.427.932l.466.914.515.887c.165.3.364.578.548.867l.281.429c.1.142.2.277.3.416a29.679,29.679,0,0,0,5.645,5.937,34.941,34.941,0,0,0,3.342,2.4,30.841,30.841,0,0,0,3.605,2" transform="translate(-451.018 -1076.013)" fill="#1b1a2e"/>
                  <path id="Trazado_729258" data-name="Trazado 729258" d="M541.263,747.84a24.111,24.111,0,0,1-4.126-1.256,28.862,28.862,0,0,1-3.883-1.9l-.465-.277c-.156-.091-.31-.185-.458-.288l-.9-.6c-.3-.206-.579-.432-.868-.647l-.431-.327c-.14-.114-.274-.235-.411-.353l-.817-.71-.764-.765-.376-.387-.35-.411q-.351-.41-.692-.826.388.375.766.757l.379.379.4.354.8.712.839.666c.14.11.277.224.419.331l.435.311c.292.205.575.422.873.618l.9.583c.148.1.3.192.455.28l.461.271a37.864,37.864,0,0,0,3.8,1.957l.985.422c.332.132.662.27,1,.4.666.264,1.344.495,2.029.711" transform="translate(-426.234 -598.091)" fill="#1b1a2e"/>
                  <path id="Trazado_729259" data-name="Trazado 729259" d="M615.293,727.252a35.316,35.316,0,0,1-2.53,3.331,38.891,38.891,0,0,1-2.874,3.049,28.743,28.743,0,0,1-3.239,2.666,16.319,16.319,0,0,1-3.7,1.961,22.238,22.238,0,0,0,3.522-2.2l.818-.639c.27-.216.529-.448.793-.67.13-.114.266-.221.395-.337l.384-.35c.254-.236.518-.46.762-.706l.75-.719.731-.74c.248-.242.481-.5.722-.749s.476-.5.711-.76.47-.511.7-.771.464-.517.692-.779c.465-.517.911-1.051,1.359-1.585" transform="translate(-487.923 -588.51)" fill="#1b1a2e"/>
                  <path id="Trazado_729260" data-name="Trazado 729260" d="M175.306,891c.313.784.626,1.567.968,2.337s.68,1.542,1.029,2.308c.709,1.527,1.457,3.035,2.254,4.517s1.649,2.932,2.545,4.355l.689,1.057c.232.352.482.69.721,1.037l.358.521c.122.172.253.336.38.5q.385.5.76,1.013a35.074,35.074,0,0,1-3.156-3.968,46.337,46.337,0,0,1-2.633-4.339c-.8-1.494-1.533-3.018-2.189-4.577A44.906,44.906,0,0,1,175.306,891" transform="translate(-141.862 -721.018)" fill="#a65b3c"/>
                  <path id="Trazado_729261" data-name="Trazado 729261" d="M445.985,798.12a35.6,35.6,0,0,1,5.967-5.772,20.287,20.287,0,0,1,3.557-2.187,10.567,10.567,0,0,1,4.05-1.094,6.473,6.473,0,0,1,2.108.283,6.129,6.129,0,0,1,1.885.982,7.949,7.949,0,0,1,1.484,1.5c.1.142.213.28.31.426l.285.442c.093.149.172.3.259.457l.128.23.115.235a19.662,19.662,0,0,1,1.4,3.925,34.656,34.656,0,0,1,.738,4.088,40.155,40.155,0,0,0-.919-4.04,19.574,19.574,0,0,0-1.485-3.839,9.276,9.276,0,0,0-2.528-3.153,5.764,5.764,0,0,0-1.783-.91,6.12,6.12,0,0,0-1.988-.251,10.21,10.21,0,0,0-3.916,1.027,22.2,22.2,0,0,0-3.53,2.108,34.947,34.947,0,0,0-3.2,2.614q-1.539,1.386-2.939,2.922" transform="translate(-360.901 -638.531)" fill="#a65b3c"/>
                  <path id="Trazado_729262" data-name="Trazado 729262" d="M158.352,694.222c.676,1.124,1.266,2.3,1.851,3.473.279.594.565,1.184.827,1.786s.536,1.2.785,1.806l.381.908c.128.3.238.612.357.918.231.614.479,1.223.691,1.844l.656,1.857.611,1.873.149.469.136.473.272.947c.18.631.369,1.26.525,1.9l.489,1.908c.161.636.29,1.281.43,1.922.294,1.28.509,2.575.747,3.865.122.645.2,1.3.291,1.946s.179,1.3.263,1.949c-.481-2.578-.959-5.154-1.587-7.7-.589-2.55-1.3-5.071-2.078-7.568-.757-2.5-1.654-4.965-2.6-7.4-.232-.612-.482-1.216-.735-1.821s-.516-1.2-.776-1.8c-.526-1.2-1.082-2.385-1.682-3.551" transform="translate(-128.142 -561.781)" fill="#a65b3c"/>
                  <path id="Trazado_729263" data-name="Trazado 729263" d="M378.413,566.729a48.836,48.836,0,0,0-.838,6.722,66.147,66.147,0,0,0-.072,6.769,68.95,68.95,0,0,0,1.823,13.391c.243,1.1.548,2.188.841,3.277.157.541.328,1.079.491,1.619.083.269.162.54.25.808l.276.8c.7,2.145,1.58,4.227,2.476,6.3.484,1.019.933,2.056,1.466,3.052l.775,1.506.831,1.477.412.74c.135.249.291.485.435.727l.882,1.448c.285.489.615.948.923,1.422l.933,1.417-.981-1.384c-.32-.466-.662-.918-.96-1.4l-.92-1.427c-.151-.239-.313-.472-.454-.717l-.432-.732-.857-1.467-.8-1.5c-.551-.991-1.017-2.024-1.519-3.041a65.132,65.132,0,0,1-2.538-6.307l-.281-.8c-.089-.269-.17-.541-.255-.811-.167-.542-.341-1.081-.5-1.625-.3-1.094-.613-2.184-.862-3.291a66.221,66.221,0,0,1-1.213-6.691,65.115,65.115,0,0,1-.531-6.778,54.251,54.251,0,0,1,1.2-13.5" transform="translate(-305.232 -458.611)" fill="#a65b3c"/>
                  <path id="Trazado_729264" data-name="Trazado 729264" d="M661.5,815.218A23.364,23.364,0,0,0,658.748,813a16.872,16.872,0,0,0-3.069-1.716,8.427,8.427,0,0,0-3.376-.727,5.2,5.2,0,0,0-3.171,1.129,8.262,8.262,0,0,0-2.134,2.7,17.819,17.819,0,0,0-1.279,3.267,32.576,32.576,0,0,0-.788,3.445c-.214,1.161-.365,2.334-.51,3.509a34.867,34.867,0,0,1,1.011-7.034,17.134,17.134,0,0,1,1.245-3.354,8.552,8.552,0,0,1,2.219-2.836,5.547,5.547,0,0,1,3.4-1.189,8.507,8.507,0,0,1,3.5.814,15.9,15.9,0,0,1,3.061,1.837q.711.539,1.375,1.131a17.262,17.262,0,0,1,1.272,1.241" transform="translate(-521.48 -655.628)" fill="#a65b3c"/>
                  <path id="Trazado_729265" data-name="Trazado 729265" d="M737.266,550.749a93.388,93.388,0,0,1,1.776,13.673,119.1,119.1,0,0,1,.04,13.8c-.132,2.3-.35,4.59-.61,6.877-.148,1.141-.282,2.284-.465,3.421-.09.568-.162,1.139-.267,1.705l-.3,1.7c-.434,2.26-.913,4.511-1.5,6.737-.569,2.229-1.249,4.428-1.976,6.608.645-2.206,1.288-4.412,1.795-6.653.281-1.114.511-2.238.752-3.36.128-.56.219-1.127.329-1.69s.223-1.126.309-1.693c.383-2.263.716-4.534.98-6.814.249-2.281.452-4.567.574-6.859s.205-4.585.215-6.88-.061-4.59-.166-6.882-.284-4.584-.529-6.867-.538-4.563-.956-6.823" transform="translate(-593.939 -445.679)" fill="#a65b3c"/>
                  <path id="Trazado_729266" data-name="Trazado 729266" d="M935.178,951.793c-.034-.778-.055-1.557-.067-2.336s-.023-1.558-.026-2.337c0-1.558.022-3.117.058-4.675.077-3.116.256-6.229.483-9.339l.213-2.329c.067-.776.166-1.55.247-2.325l.128-1.162c.044-.387.1-.773.15-1.16.1-.773.2-1.546.32-2.317.259-1.538.49-3.08.812-4.606.29-1.532.672-3.044,1.045-4.556-.288,1.532-.633,3.049-.861,4.59-.283,1.53-.482,3.074-.7,4.613-.391,3.087-.734,6.179-.968,9.282-.259,3.1-.432,6.209-.572,9.318q-.106,2.332-.164,4.667c-.054,1.556-.074,3.113-.093,4.671" transform="translate(-756.693 -740.158)" fill="#a65b3c"/>
                  <path id="Trazado_729267" data-name="Trazado 729267" d="M944.338,1125.457a27.084,27.084,0,0,1,5.315-8.345,20.856,20.856,0,0,1,3.809-3.215,17.433,17.433,0,0,1,4.52-2.123,16.772,16.772,0,0,1,2.448-.531,18.4,18.4,0,0,1,2.5-.16,19.813,19.813,0,0,1,4.94.68,27.813,27.813,0,0,1,4.661,1.74,35.365,35.365,0,0,1,4.3,2.469,39.154,39.154,0,0,0-4.383-2.3,27.712,27.712,0,0,0-4.654-1.625c-.4-.087-.8-.19-1.2-.255-.2-.035-.4-.081-.605-.11l-.609-.089a19.093,19.093,0,0,0-2.45-.163,18.163,18.163,0,0,0-2.446.174,16.627,16.627,0,0,0-2.39.535,17.045,17.045,0,0,0-4.44,2.049,22.11,22.11,0,0,0-3.787,3.126,27.165,27.165,0,0,0-3.1,3.833,28.323,28.323,0,0,0-2.426,4.309" transform="translate(-764.18 -899.115)" fill="#a65b3c"/>
                  <path id="Trazado_729268" data-name="Trazado 729268" d="M1066.91,1142.1a23.986,23.986,0,0,1,5.25,3.583,28.8,28.8,0,0,1,4.3,4.713,28.38,28.38,0,0,1,5,11.63,36.6,36.6,0,0,0-2.111-5.968c-.457-.949-.92-1.9-1.467-2.8a29.319,29.319,0,0,0-1.73-2.64,32.267,32.267,0,0,0-4.188-4.717c-.774-.716-1.579-1.4-2.42-2.038a23.708,23.708,0,0,0-2.632-1.765" transform="translate(-863.368 -924.212)" fill="#a65b3c"/>
                  <path id="Trazado_729269" data-name="Trazado 729269" d="M1060.374,1213.979a20.826,20.826,0,0,1,3.9,1.045,21.751,21.751,0,0,1,3.657,1.742,19.676,19.676,0,0,1,1.675,1.151,15.1,15.1,0,0,1,1.512,1.36,12.39,12.39,0,0,1,1.279,1.578,10.914,10.914,0,0,1,.951,1.783,13.3,13.3,0,0,0-1.1-1.673,14.837,14.837,0,0,0-1.338-1.477,18.379,18.379,0,0,0-3.174-2.395,27.148,27.148,0,0,0-3.568-1.791,32.976,32.976,0,0,0-3.79-1.322" transform="translate(-858.079 -982.38)" fill="#a65b3c"/>
                  <path id="Trazado_729270" data-name="Trazado 729270" d="M920.1,1111.981q-.622,2.623-1.111,5.273-.506,2.646-.9,5.311c-.522,3.551-.929,7.12-1.113,10.7a76.752,76.752,0,0,0,.077,10.748,45.578,45.578,0,0,0,2.028,10.544,37.594,37.594,0,0,1-1.51-5.178l-.261-1.325c-.078-.443-.143-.89-.214-1.334s-.129-.891-.183-1.338-.118-.893-.153-1.343a72.664,72.664,0,0,1-.166-10.8c.1-1.8.267-3.591.466-5.38s.436-3.573.739-5.348.629-3.543,1-5.3.795-3.509,1.293-5.236" transform="translate(-741.637 -899.842)" fill="#a65b3c"/>
                  <path id="Trazado_729271" data-name="Trazado 729271" d="M974.383,685.24c.092.772.156,1.546.208,2.322s.093,1.552.125,2.328q.078,2.331.036,4.665a82.035,82.035,0,0,1-.71,9.306,63.441,63.441,0,0,1-1.94,9.131c-.443,1.493-.97,2.961-1.546,4.406a41.182,41.182,0,0,1-2.033,4.2c.683-1.4,1.318-2.812,1.86-4.265s1.031-2.923,1.438-4.419.785-3,1.079-4.519.565-3.047.765-4.583.388-3.075.52-4.619.208-3.093.275-4.643.083-3.1.07-4.653-.053-3.1-.148-4.654" transform="translate(-783.752 -554.513)" fill="#a65b3c"/>
                  <path id="Trazado_729272" data-name="Trazado 729272" d="M954.513,897.789a50.487,50.487,0,0,1-1.989,5.047c-.742,1.65-1.549,3.271-2.4,4.867-.869,1.587-1.761,3.163-2.734,4.689-.471.772-.982,1.519-1.482,2.273-.249.377-.518.741-.778,1.111s-.524.736-.791,1.1c.942-1.543,1.888-3.081,2.8-4.64l.683-1.168.664-1.178q.337-.587.659-1.181c.215-.4.436-.789.647-1.187.858-1.586,1.675-3.193,2.47-4.812s1.559-3.254,2.257-4.921" transform="translate(-764.18 -726.512)" fill="#a65b3c"/>
                  <path id="Trazado_729273" data-name="Trazado 729273" d="M388.83,793.464l4.95-2.356s40.769,5.881,53.627,15.35a118.52,118.52,0,0,1,45.055-19.736l7.21,1.241-49.106,30.168Z" transform="translate(-314.65 -636.634)" fill="#f0f2f5"/>
                  <path id="Trazado_729274" data-name="Trazado 729274" d="M418.977,890.132l-54.9-17.336V795.445l2.678-.706L422.1,808.375c2.347,2.374,7.806,5.538,12.721.522l46.744-19.976,1.974.189-6.1,80.714-44.854,21.065c-.428,1.82-5.793,5.761-13.612-.756" transform="translate(-294.623 -638.413)" fill="#253b46"/>
                  <path id="Trazado_729275" data-name="Trazado 729275" d="M364.082,823.122c2.409.513,4.813,1.05,7.219,1.575l7.21,1.614c4.806,1.079,9.6,2.193,14.407,3.287l14.387,3.374,7.186,1.717c2.392.586,4.787,1.159,7.177,1.757-2.409-.513-4.813-1.05-7.219-1.574l-7.21-1.614-14.407-3.288c-4.8-1.126-9.595-2.233-14.386-3.374l-7.186-1.717c-2.392-.586-4.788-1.159-7.177-1.756" transform="translate(-294.624 -666.09)" fill="#1b1a2e"/>
                  <path id="Trazado_729276" data-name="Trazado 729276" d="M651.832,975.778l.294-10.131.334-10.13.73-20.257.818-20.253.441-10.126.481-10.124-.294,10.131-.334,10.129-.731,20.257-.819,20.253-.44,10.126Z" transform="translate(-527.478 -724.059)" fill="#1b1a2e"/>
                  <path id="Trazado_729277" data-name="Trazado 729277" d="M568.428,1293.106q-2.491-.671-4.961-1.411c-1.648-.488-3.289-1-4.928-1.511s-3.274-1.046-4.9-1.593-3.255-1.106-4.871-1.694q2.491.671,4.96,1.41c1.648.489,3.289,1,4.928,1.513s3.274,1.046,4.9,1.593,3.255,1.106,4.871,1.694" transform="translate(-444.073 -1041.387)" fill="#1b1a2e"/>
                  <path id="Trazado_729278" data-name="Trazado 729278" d="M723.184,978.079l.184-10.179.224-10.178.51-20.355.6-20.352.33-10.175.371-10.174-.184,10.179-.224,10.178-.511,20.355-.6,20.352-.33,10.175Z" transform="translate(-585.217 -725.603)" fill="#1b1a2e"/>
                  <path id="Trazado_729279" data-name="Trazado 729279" d="M736.753,809.947c2-.875,4.007-1.727,6.01-2.59l6.025-2.554c4.018-1.7,8.05-3.366,12.074-5.05,4.036-1.656,8.066-3.327,12.108-4.968l6.066-2.455c2.027-.806,4.049-1.623,6.081-2.418-2,.875-4.006,1.727-6.01,2.591l-6.025,2.553c-4.019,1.7-8.05,3.366-12.074,5.05-4.036,1.655-8.066,3.327-12.108,4.968l-6.066,2.455c-2.027.805-4.05,1.624-6.081,2.419" transform="translate(-596.198 -639.215)" fill="#1b1a2e"/>
                  <path id="Trazado_729280" data-name="Trazado 729280" d="M462.864,923.474l-29.491-6.807v-17.9l29.491,6.807Z" transform="translate(-350.695 -727.306)" fill="#f0f2f5"/>
                  <path id="Trazado_729281" data-name="Trazado 729281" d="M779.741,936.978l0-.146,1.138-60.1.056-.024,29.632-12.89-3.2,61.611-.055.023Zm1.329-60.119-1.133,59.83L807.182,925.3l3.182-61.183Z" transform="translate(-630.985 -699.023)" fill="#f0f2f5"/>
                  <path id="Trazado_729282" data-name="Trazado 729282" d="M82.935,1127.742c-.229-9.1,2.607-21,18.62-22.336l20.614-8.483s-.659-2.344,1.831-6.517v-3.133a8.656,8.656,0,0,1,7.271-8.556,21.944,21.944,0,0,1,6.422.046l10.764.879c12.425-1.629,17.95,4.392,12.2,8.344,0,0,12.756-1.572,14.11,4.066.741,3.089-2.972,4.771-2.972,4.771s6,1.935,4.541,5.614c-1.5,3.8-7.044,3.3-7.044,3.3l-1.02,1.424a14.847,14.847,0,0,1-9.872,6.033l-8.191,1.225-6.022,2.424s-3.064,5.961-11.5,3.989c0,0-13.791,7.259-23.8,17.333a15.089,15.089,0,0,1-9.77,4.418l-.251.015a15.2,15.2,0,0,1-15.938-14.856" transform="translate(-67.103 -872.751)" fill="#ffc89f"/>
                  <path id="Trazado_729283" data-name="Trazado 729283" d="M861.066,1074.023s21.436,16.145,10.826,30.844c-11.074,15.342-31.538,6.155-32.069-14.605,0,0-5.786.155-7.224-8.56l-4.323-1.686s-5.406-1.916-8.44-4.543c-4.48-3.88-.594-6.853,2.433-6.247,0,0-7.3-3.241-4.291-7.918,1.49-2.316,7.036.056,10.318,1.741a21.909,21.909,0,0,0,5.865,2.019l4.075.785a22.192,22.192,0,0,1,4,1.177,20.426,20.426,0,0,0,6.52,1.531,26.032,26.032,0,0,0-7.218-3.672,19.167,19.167,0,0,1-3.916-1.679l-1.526-.866a19.087,19.087,0,0,0-6.72-2.307c-3.431-.488-8.507-1.891-8.773-5.918-.368-5.575,8.916-3.238,8.916-3.238s-2.34-4.278.363-6.351c2.988-2.292,7.275.951,12.78,1.563a13.834,13.834,0,0,1,5.936,2.155,51.392,51.392,0,0,0,11.124,5.428,5.4,5.4,0,0,1,2.156,8.9q-.1.1-.2.193s5.192,5.564-.6,11.252" transform="translate(-661.337 -844.602)" fill="#ffc89f"/>
                  <rect id="Rectángulo_348511" data-name="Rectángulo 348511" width="2.831" height="7.797" transform="translate(129.039 202.44) rotate(-88.302)" fill="#f0f2f5"/>
                  <rect id="Rectángulo_348512" data-name="Rectángulo 348512" width="2.831" height="7.797" transform="matrix(0.03, -1, 1, 0.03, 128.812, 210.075)" fill="#f0f2f5"/>
                  <rect id="Rectángulo_348513" data-name="Rectángulo 348513" width="2.831" height="7.797" transform="matrix(0.03, -1, 1, 0.03, 128.586, 217.71)" fill="#f0f2f5"/>
                  <path id="Trazado_729284" data-name="Trazado 729284" d="M288.643,1175.048a6.249,6.249,0,0,0,.514,1.473,6.412,6.412,0,0,0,.863,1.287c.085.1.17.194.259.287a3.7,3.7,0,0,1,.27.3,2.32,2.32,0,0,1,.387.726,2.278,2.278,0,0,1,.1.821,3.438,3.438,0,0,1-.162.8,7.971,7.971,0,0,0-.245,3.044,5.3,5.3,0,0,0,.4,1.457c.055.113.1.234.163.341l.19.327c.066.107.147.2.219.308l.111.153.127.141c.085.093.167.189.254.281l.281.255c.091.084.19.171.294.259s.2.182.3.272a6.865,6.865,0,0,1,1.012,1.253,6.426,6.426,0,0,1,.668,1.465,5.986,5.986,0,0,1,.185.785c.025.132.035.267.052.4l.043.384a7.964,7.964,0,0,0,.934,2.928,5.632,5.632,0,0,0,.941,1.226,6.17,6.17,0,0,0,1.247.934,5.607,5.607,0,0,1-2.349-2.063,7.849,7.849,0,0,1-1.069-2.981l-.056-.394c-.021-.126-.033-.253-.06-.378a5.8,5.8,0,0,0-.188-.739,6.059,6.059,0,0,0-.655-1.373,6.739,6.739,0,0,0-.966-1.177c-.094-.086-.184-.176-.283-.256s-.194-.166-.3-.259l-.3-.271c-.094-.1-.183-.2-.274-.3l-.135-.152-.119-.165c-.077-.111-.163-.218-.234-.333l-.2-.353c-.07-.117-.115-.245-.173-.368a5.483,5.483,0,0,1-.419-1.56,8.019,8.019,0,0,1,.317-3.17,3.188,3.188,0,0,0,.174-.734,2.108,2.108,0,0,0-.069-.731,2.082,2.082,0,0,0-.322-.666c-.144-.194-.343-.388-.5-.6a6,6,0,0,1-1.232-2.877" transform="translate(-233.577 -950.877)" fill="#ff9b6c"/>
                  <path id="Trazado_729285" data-name="Trazado 729285" d="M366.972,1223.259c1.326-.24,2.657-.44,3.99-.634s2.667-.365,4.006-.5l2.011-.186c.671-.059,1.341-.119,2.011-.188l4.018-.418q2.01-.21,4.027-.332c1.344-.084,2.69-.159,4.036-.2,2.693-.075,5.387-.089,8.08.022v.038c-2.69.131-5.378.233-8.065.345l-4.031.153-4.03.185c-.671.04-1.344.069-2.014.131s-1.34.112-2.008.2-1.334.174-2,.273l-2,.293q-4,.536-8.029.861Z" transform="translate(-296.962 -987.852)" fill="#ff9b6c"/>
                  <path id="Trazado_729286" data-name="Trazado 729286" d="M348.522,1172.112q4.8-.231,9.575-.637c1.593-.127,3.187-.264,4.776-.451s3.162-.483,4.738-.77c.788-.145,1.577-.286,2.368-.416s1.587-.237,2.384-.333c1.595-.181,3.2-.312,4.805-.339.8-.017,1.608,0,2.411.028s1.6.094,2.4.173a36.294,36.294,0,0,1,4.745.8l-.007.037q-1.188-.179-2.378-.317c-.794-.09-1.59-.152-2.385-.212s-1.593-.085-2.39-.1-1.595-.015-2.391,0a77.162,77.162,0,0,0-9.538.845c-3.163.483-6.319,1.066-9.511,1.389a79.4,79.4,0,0,1-9.6.343Z" transform="translate(-282.032 -946.111)" fill="#ff9b6c"/>
                  <path id="Trazado_729287" data-name="Trazado 729287" d="M367.906,1127a31.044,31.044,0,0,1-3.617.252c-1.209.013-2.42-.014-3.624-.119s-2.4-.293-3.6-.314c-.6-.02-1.2,0-1.8.029s-1.2.093-1.8.169-1.189.169-1.78.272-1.186.227-1.785.313a25.89,25.89,0,0,1-3.626.3c-2.42-.014-4.826-.06-7.24-.173v-.038c1.206-.059,2.412-.09,3.618-.124l3.614-.062c1.2-.041,2.394-.119,3.583-.27.6-.071,1.182-.179,1.786-.262s1.2-.147,1.808-.187,1.209-.067,1.813-.079,1.209-.013,1.813-.009,1.208.023,1.813.049,1.2.059,1.806.077c1.2.045,2.4.1,3.606.129s2.406.028,3.613.009Z" transform="translate(-274.351 -911.749)" fill="#ff9b6c"/>
                  <path id="Trazado_729288" data-name="Trazado 729288" d="M383.319,1279.472c-.39.217-.789.4-1.19.583s-.807.345-1.213.51-.816.319-1.229.465-.827.3-1.256.419a8.066,8.066,0,0,1,1.137-.692c.393-.2.8-.379,1.207-.546s.827-.309,1.25-.434a9.608,9.608,0,0,1,1.294-.305" transform="translate(-306.235 -1035.379)" fill="#ff9b6c"/>
                  <path id="Trazado_729289" data-name="Trazado 729289" d="M935.572,1287.39a10.6,10.6,0,0,1,1.739-.058,13.718,13.718,0,0,1,1.733.175,10.748,10.748,0,0,1,1.7.424,5.908,5.908,0,0,1,1.558.787,14.326,14.326,0,0,0-1.643-.5c-.139-.03-.278-.062-.415-.1l-.419-.084c-.278-.059-.559-.108-.84-.154l-.422-.072-.424-.062c-.282-.045-.566-.081-.85-.122Z" transform="translate(-757.086 -1041.73)" fill="#ff9b6c"/>
                  <path id="Trazado_729290" data-name="Trazado 729290" d="M997.357,1202.532a3.517,3.517,0,0,0-.238,1.46l.026,1.512a9.255,9.255,0,0,1-.1,1.534,4.373,4.373,0,0,1-.5,1.478,3.689,3.689,0,0,1-1.042,1.157,6.361,6.361,0,0,1-1.353.716,3.137,3.137,0,0,0-.632.387,3.1,3.1,0,0,0-.514.533,2.955,2.955,0,0,0-.559,1.347,5.675,5.675,0,0,0-.032.742c0,.255-.014.509-.035.763a12.089,12.089,0,0,1-.2,1.519,8.163,8.163,0,0,1-1.1,2.878,5.379,5.379,0,0,1-1.035,1.173,4.732,4.732,0,0,1-1.35.784,6.093,6.093,0,0,1-3.035.259l0-.038a6.738,6.738,0,0,0,2.917-.5,4.74,4.74,0,0,0,1.223-.787,5.307,5.307,0,0,0,.935-1.114,8.646,8.646,0,0,0,1.093-2.731q.161-.728.252-1.473c.03-.248.053-.5.076-.747a5.756,5.756,0,0,1,.086-.766,3.413,3.413,0,0,1,1.859-2.343l.342-.164a2.968,2.968,0,0,0,.329-.176l.16-.1.152-.107a3.086,3.086,0,0,0,.291-.228,3.46,3.46,0,0,0,.894-1.142,4.966,4.966,0,0,0,.447-1.384,11.125,11.125,0,0,0,.139-1.482c.02-.5.025-1.007.067-1.516a5.181,5.181,0,0,1,.117-.76,2.115,2.115,0,0,1,.291-.711Z" transform="translate(-797.612 -973.101)" fill="#ff9b6c"/>
                  <path id="Trazado_729291" data-name="Trazado 729291" d="M897.706,1242.814c1.007.3,2,.656,2.97,1.052s1.933.827,2.875,1.3c.468.241.933.489,1.391.75s.906.541,1.34.842a11.44,11.44,0,0,1,1.249.978,4.884,4.884,0,0,1,1.005,1.219,5.554,5.554,0,0,0-1.125-1.076,15.093,15.093,0,0,0-1.291-.871c-.89-.539-1.809-1.032-2.741-1.5s-1.875-.919-2.821-1.365Z" transform="translate(-726.445 -1005.714)" fill="#ff9b6c"/>
                  <path id="Trazado_729292" data-name="Trazado 729292" d="M871.583,1188.077a70.926,70.926,0,0,0-6.756-3.276c-1.147-.5-2.3-1.008-3.472-1.444s-2.371-.82-3.574-1.175l-3.61-1.063c-1.2-.36-2.408-.708-3.6-1.091a57.914,57.914,0,0,1-7.049-2.667l.015-.035c2.362.853,4.758,1.58,7.156,2.314q1.8.557,3.589,1.136t3.569,1.207l3.552,1.256.89.31c.3.1.6.2.892.306.589.217,1.185.423,1.77.651s1.163.481,1.735.743,1.134.548,1.695.833c.552.3,1.1.618,1.646.927q.8.507,1.578,1.035Z" transform="translate(-682.594 -952.72)" fill="#ff9b6c"/>
                  <path id="Trazado_729293" data-name="Trazado 729293" d="M987.513,1176.131c-.621-.232-1.24-.448-1.862-.658s-1.244-.409-1.871-.6c-.314-.093-.626-.192-.943-.276l-.472-.137c-.159-.041-.317-.085-.474-.13-.632-.177-1.269-.338-1.905-.528a14.344,14.344,0,0,1,1.972.238,18.542,18.542,0,0,1,1.932.468,17.9,17.9,0,0,1,1.868.684,10.708,10.708,0,0,1,1.755.935" transform="translate(-793.028 -949.873)" fill="#ff9b6c"/>
                  <path id="Trazado_729294" data-name="Trazado 729294" d="M881.519,1081.151c1.3.193,2.594.455,3.88.732s2.565.594,3.831.953c.631.186,1.264.369,1.89.58s1.242.444,1.854.689,1.219.5,1.817.777,1.187.575,1.776.865c2.368,1.141,4.741,2.265,7.148,3.307,1.2.525,2.407,1.043,3.63,1.517s2.455.925,3.715,1.3l-.009.037a29.553,29.553,0,0,1-3.809-1.056q-1.869-.647-3.689-1.423c-1.212-.517-2.4-1.084-3.583-1.665s-2.348-1.193-3.5-1.83c-.58-.313-1.145-.647-1.737-.929s-1.189-.554-1.8-.783a29.737,29.737,0,0,0-3.782-1.077c-2.547-.641-5.089-1.3-7.637-1.955Z" transform="translate(-713.34 -874.893)" fill="#ff9b6c"/>
                  <path id="Trazado_729803" data-name="Trazado 729803" d="M64.041,84.456,63.03,86.228l-.225,2.03-1.86.838-1.371,1.511-2-.417-2,.417L54.2,89.1l-1.86-.838-.223-2.03L51.11,84.456l1.011-1.772.223-2.03,1.861-.837,1.371-1.512,2,.417,2-.417,1.371,1.512,1.861.837.224,2.03Z" transform="translate(107.22 100.92)" fill="#f0f2f5"/>
                  <path id="Trazado_729804" data-name="Trazado 729804" d="M7.473-5.978a2.952,2.952,0,0,1-.994,2.12,3.491,3.491,0,0,1-2.364.774,3.139,3.139,0,0,1-2.524-1.08A4.429,4.429,0,0,1,.672-7.13v-.51A5,5,0,0,1,1.1-9.76a3.178,3.178,0,0,1,1.212-1.407,3.4,3.4,0,0,1,1.831-.49,3.4,3.4,0,0,1,2.326.774,3.173,3.173,0,0,1,1.02,2.172H5.766a1.742,1.742,0,0,0-.45-1.172,1.666,1.666,0,0,0-1.177-.364,1.461,1.461,0,0,0-1.286.616A3.452,3.452,0,0,0,2.414-7.72v.63a3.7,3.7,0,0,0,.41,1.977,1.433,1.433,0,0,0,1.292.625A1.7,1.7,0,0,0,5.3-4.852a1.643,1.643,0,0,0,.45-1.126Zm.762-.378A3.677,3.677,0,0,1,8.591-8,2.6,2.6,0,0,1,9.613-9.118a2.984,2.984,0,0,1,1.55-.4,2.823,2.823,0,0,1,2.048.768A3.082,3.082,0,0,1,14.1-6.66l.011.424a3.24,3.24,0,0,1-.8,2.289,2.768,2.768,0,0,1-2.137.862,2.782,2.782,0,0,1-2.14-.859,3.3,3.3,0,0,1-.8-2.338Zm1.656.118a2.317,2.317,0,0,0,.332,1.351,1.1,1.1,0,0,0,.951.468,1.1,1.1,0,0,0,.94-.462,2.536,2.536,0,0,0,.338-1.478A2.294,2.294,0,0,0,12.115-7.7a1.1,1.1,0,0,0-.951-.476,1.081,1.081,0,0,0-.94.473A2.579,2.579,0,0,0,9.891-6.238Zm4.979-.106a3.736,3.736,0,0,1,.65-2.309A2.11,2.11,0,0,1,17.3-9.513a1.9,1.9,0,0,1,1.5.676V-12h1.662v8.8h-1.5l-.08-.659a1.949,1.949,0,0,1-1.593.774,2.1,2.1,0,0,1-1.756-.862A3.857,3.857,0,0,1,14.871-6.345Zm1.656.123a2.447,2.447,0,0,0,.3,1.337.989.989,0,0,0,.882.465A1.108,1.108,0,0,0,18.8-5.068v-2.45a1.092,1.092,0,0,0-1.071-.648Q16.527-8.167,16.527-6.221Zm8.068,3.137a3.044,3.044,0,0,1-2.22-.837,2.974,2.974,0,0,1-.857-2.229v-.16a3.745,3.745,0,0,1,.361-1.67A2.649,2.649,0,0,1,22.9-9.115a2.871,2.871,0,0,1,1.51-.4,2.573,2.573,0,0,1,2,.8,3.26,3.26,0,0,1,.731,2.275v.676H23.2a1.538,1.538,0,0,0,.484.974,1.464,1.464,0,0,0,1.023.367,1.787,1.787,0,0,0,1.5-.693l.814.911A2.486,2.486,0,0,1,26-3.379,3.309,3.309,0,0,1,24.594-3.084Zm-.189-5.094a1.035,1.035,0,0,0-.8.334,1.729,1.729,0,0,0-.392.955h2.3v-.132a1.233,1.233,0,0,0-.3-.855A1.068,1.068,0,0,0,24.405-8.178Z" transform="translate(82.175 188.036) rotate(13)" fill="#253b46"/>
                </g>
              </g>
            </g>
          </g>
        </g>
      </g>
    </g>
    <g id="Grupo_1013381" data-name="Grupo 1013381" transform="translate(1196.956 6098.126)">
      <g id="Grupo_1013345" data-name="Grupo 1013345" transform="translate(0 47.567)">
        <rect id="Rectángulo_348611" data-name="Rectángulo 348611" width="33.854" height="9.992" transform="translate(3.923 2.524)" fill="#be7d28"/>
        <path id="Trazado_729684" data-name="Trazado 729684" d="M251.325,424.208a2,2,0,0,1-2,2H211.618a2,2,0,0,1-2-2h0a2,2,0,0,1,2-2h37.708a2,2,0,0,1,2,2Z" transform="translate(-209.62 -422.21)" fill="#845318"/>
        <path id="Trazado_729685" data-name="Trazado 729685" d="M251.325,443.548a2,2,0,0,1-2,2H211.618a2,2,0,0,1-2-2h0a2,2,0,0,1,2-2h37.708a2,2,0,0,1,2,2Z" transform="translate(-209.62 -430.507)" fill="#845318"/>
        <path id="Trazado_729686" data-name="Trazado 729686" d="M216.49,436.256l29.822-3.523-3.9-3.523h7.931v7.851Z" transform="translate(-212.567 -425.213)" fill="#845318"/>
      </g>
      <g id="Grupo_1013346" data-name="Grupo 1013346" transform="translate(9.6 0)">
        <path id="Trazado_729687" data-name="Trazado 729687" d="M262.035,374.5a3,3,0,0,1,4.242,0l40,40a3,3,0,0,1,0,4.242h0a3,3,0,0,1-4.237,0l-40-40a3,3,0,0,1,0-4.242h0Z" transform="translate(-241.332 -353.798)" fill="#845318"/>
        <path id="Trazado_729688" data-name="Trazado 729688" d="M330.655,436.223a2.709,2.709,0,0,1,0,3.837l-3.066,3.072a2.709,2.709,0,0,1-3.837,0h0a2.709,2.709,0,0,1,0-3.837l3.066-3.072a2.714,2.714,0,0,1,3.837,0Z" transform="translate(-267.842 -380.314)" fill="#be7d28"/>
        <rect id="Rectángulo_348612" data-name="Rectángulo 348612" width="36.526" height="15.434" transform="translate(2.539 28.364) rotate(-45)" fill="#be7d28"/>
        <path id="Trazado_729689" data-name="Trazado 729689" d="M227.173,386.673a2.533,2.533,0,0,1,3.58,0l9.889,9.889a2.533,2.533,0,0,1,0,3.58h0a2.533,2.533,0,0,1-3.58,0l-9.889-9.889a2.533,2.533,0,0,1,0-3.58Z" transform="translate(-226.433 -359.079)" fill="#845318"/>
        <path id="Trazado_729690" data-name="Trazado 729690" d="M236.557,382.89s-.257,2.41,3.329,5.99,5.881,5.453,3.494,7.84c.3.3,2.044-.874,2.044-.874l2.758-2.758-11.625-10.2Z" transform="translate(-230.774 -357.774)" fill="#845318"/>
        <path id="Trazado_729691" data-name="Trazado 729691" d="M270.42,349.026s2.41-.257,5.99,3.323,5.459,5.881,7.845,3.494c.3.3-.874,2.044-.874,2.044l-2.758,2.758-10.2-11.625Z" transform="translate(-245.304 -343.243)" fill="#845318"/>
        <path id="Trazado_729692" data-name="Trazado 729692" d="M274.2,339.643a2.533,2.533,0,0,1,3.58,0l9.889,9.889a2.533,2.533,0,0,1,0,3.58h0a2.533,2.533,0,0,1-3.58,0l-9.889-9.889a2.533,2.533,0,0,1,0-3.58Z" transform="translate(-246.609 -338.902)" fill="#845318"/>
        <path id="Trazado_729693" data-name="Trazado 729693" d="M264.714,356.109a7.234,7.234,0,0,1,0,10.232l-10.843,10.843a7.234,7.234,0,0,1-10.232,0l-5.2-5.2a7.233,7.233,0,0,1,0-10.232l10.843-10.843a7.227,7.227,0,0,1,10.226,0l5.2,5.2Z" transform="translate(-230.673 -343.143)" fill="#be7d28"/>
        <path id="Trazado_729694" data-name="Trazado 729694" d="M268.825,370.442l-10.843,10.843a7.234,7.234,0,0,1-10.232,0l.976.976a7.227,7.227,0,0,0,10.226,0L269.8,371.418a7.234,7.234,0,0,0,0-10.232l-.976-.976a7.234,7.234,0,0,1,0,10.232Z" transform="translate(-235.578 -348.044)" fill="#845318"/>
      </g>
    </g>
    <g id="Grupo_1013382" data-name="Grupo 1013382" transform="translate(-411.506 -14.884)">
      <rect id="Rectángulo_348626" data-name="Rectángulo 348626" width="42.347" height="56.147" transform="translate(1464 6113.01)" fill="#253b46"/>
      <rect id="Rectángulo_348627" data-name="Rectángulo 348627" width="38.689" height="52.189" transform="translate(1465.828 6114.989)" fill="#f1f0f2"/>
      <g id="Grupo_1013380" data-name="Grupo 1013380" transform="translate(1464 6113.01)">
        <g id="Grupo_1013379" data-name="Grupo 1013379" transform="translate(0 0)" clip-path="url(#clip-path-19)">
          <path id="Trazado_729799" data-name="Trazado 729799" d="M40.994,39.183a1.35,1.35,0,0,1-1.35,1.35H18.289a1.35,1.35,0,0,1,0-2.7H39.645a1.35,1.35,0,0,1,1.35,1.35" transform="translate(-7.794 -17.408)" fill="#253b46"/>
          <path id="Trazado_729800" data-name="Trazado 729800" d="M40.994,50.349a1.349,1.349,0,0,1-1.35,1.35H18.289a1.35,1.35,0,1,1,0-2.7H39.645a1.35,1.35,0,0,1,1.35,1.35" transform="translate(-7.794 -22.545)" fill="#253b46"/>
          <path id="Trazado_729801" data-name="Trazado 729801" d="M40.994,61.516a1.35,1.35,0,0,1-1.35,1.35H18.289a1.35,1.35,0,0,1,0-2.7H39.645a1.35,1.35,0,0,1,1.35,1.35" transform="translate(-7.794 -27.684)" fill="#253b46"/>
          <g id="Grupo_1013378" data-name="Grupo 1013378" transform="translate(21.173 2.012)" style="mix-blend-mode: multiply;isolation: isolate">
            <g id="Grupo_1013377" data-name="Grupo 1013377">
              <g id="Grupo_1013376" data-name="Grupo 1013376" clip-path="url(#clip-path-20)">
                <rect id="Rectángulo_348628" data-name="Rectángulo 348628" width="19.344" height="52.156" transform="translate(0)" fill="#f1f0f2"/>
              </g>
            </g>
          </g>
          <rect id="Rectángulo_348630" data-name="Rectángulo 348630" width="21.337" height="5.353" transform="translate(10.505)" fill="#253b46"/>
          <path id="Trazado_729802" data-name="Trazado 729802" d="M59.606,82.347l-.664,1.165-.148,1.333-1.222.551-.9.993-1.313-.274-1.314.274-.9-.993-1.222-.551-.147-1.333-.664-1.165.664-1.165.147-1.334,1.223-.55.9-.993,1.314.274,1.313-.274.9.993,1.223.55.147,1.334Z" transform="translate(-23.517 -36.03)" fill="#ffc336"/>
        </g>
      </g>
    </g>
  </g>
</svg>
