<svg xmlns="http://www.w3.org/2000/svg" xmlns:xlink="http://www.w3.org/1999/xlink" width="136.546" height="136.546" viewBox="0 0 136.546 136.546">
  <defs>
    <filter id="Elipse_4873" x="0" y="0" width="136.546" height="136.546" filterUnits="userSpaceOnUse">
      <feOffset dy="3" input="SourceAlpha"/>
      <feGaussianBlur stdDeviation="3" result="blur"/>
      <feFlood flood-opacity="0.161"/>
      <feComposite operator="in" in2="blur"/>
      <feComposite in="SourceGraphic"/>
    </filter>
  </defs>
  <g id="Grupo_1003703" data-name="Grupo 1003703" transform="translate(-364 -5671.876)">
    <g transform="matrix(1, 0, 0, 1, 364, 5671.88)" filter="url(#Elipse_4873)">
      <circle id="Elipse_4873-2" data-name="Elipse 4873" cx="59.273" cy="59.273" r="59.273" transform="translate(9 6)" fill="#0098e8"/>
    </g>
    <g id="capacitacion" transform="translate(395 5700)">
      <path id="Trazado_705202" data-name="Trazado 705202" d="M49,48h7.065v5.887H49Z" transform="translate(8.516 8.339)" fill="#eeb8ab"/>
      <path id="Trazado_705203" data-name="Trazado 705203" d="M51.355,50.124A3.808,3.808,0,0,1,49,49.3v4.353h7.065V49.3a3.808,3.808,0,0,1-2.355.821Z" transform="translate(8.516 8.57)" fill="#ffe1d3"/>
      <path id="Trazado_705204" data-name="Trazado 705204" d="M9,48h7.065v5.887H9Z" transform="translate(1.419 8.339)" fill="#eeb8ab"/>
      <path id="Trazado_705205" data-name="Trazado 705205" d="M11.355,50.124A3.808,3.808,0,0,1,9,49.3v4.353h7.065V49.3a3.808,3.808,0,0,1-2.355.821Z" transform="translate(1.419 8.57)" fill="#ffe1d3"/>
      <path id="Trazado_705206" data-name="Trazado 705206" d="M20,40H48.258V67.081H20Z" transform="translate(3.371 6.919)" fill="#893b1b"/>
      <path id="Trazado_705207" data-name="Trazado 705207" d="M47.726,41H23V58.661a4.71,4.71,0,0,0,4.71,4.71H47.726Z" transform="translate(3.903 7.097)" fill="#a44b2f"/>
      <path id="Trazado_705208" data-name="Trazado 705208" d="M42.194,42.839V35.774l2.5,2.5a3.519,3.519,0,0,0,4.173.6L59.36,33.154a3.208,3.208,0,0,0,1.672-2.818,2.805,2.805,0,0,0-4.168-2.453L46.9,33.419l-2.277-5.7c-.051-.128-.107-.253-.17-.377A4.959,4.959,0,0,0,40.991,24.7L37.484,24H30.419l-4.85,1.213A6.031,6.031,0,0,0,21,31.065V42.839" transform="translate(3.548 4.081)" fill="#b4b4b4"/>
      <path id="Trazado_705209" data-name="Trazado 705209" d="M57.7,27.531a2.8,2.8,0,0,0-1.363.353L46.37,33.419l-2.277-5.7c-.051-.128-.107-.253-.17-.377A4.959,4.959,0,0,0,40.459,24.7L36.952,24H29.887l-4.85,1.213a6.074,6.074,0,0,0-.652.223,6,6,0,0,0-.385,2.1v8.242a3.532,3.532,0,0,0,3.532,3.532H41.661V35.774l2.5,2.5a3.519,3.519,0,0,0,4.173.6l10.492-5.722A3.208,3.208,0,0,0,60.5,30.337a2.806,2.806,0,0,0-2.8-2.806Z" transform="translate(4.081 4.081)" fill="#c8c8c8"/>
      <path id="Trazado_705210" data-name="Trazado 705210" d="M35.532,28.71l3.887-3.887c-.128-.037-.246-.1-.378-.121L35.532,24,32,25.177Z" transform="translate(5.5 4.081)" fill="#b4b4b4"/>
      <path id="Trazado_705211" data-name="Trazado 705211" d="M33.1,25.177,29.568,24l-3.768.942,3.768,3.768Z" transform="translate(4.4 4.081)" fill="#b4b4b4"/>
      <path id="Trazado_705212" data-name="Trazado 705212" d="M34.981,27.59,33.568,29.71H31.213L29.8,27.59,32.39,25Z" transform="translate(5.11 4.258)" fill="#e66967"/>
      <path id="Trazado_705213" data-name="Trazado 705213" d="M29,21.2v3.3l3.532,1.177L36.065,24.5V21.2Z" transform="translate(4.968 3.583)" fill="#eeb8ab"/>
      <path id="Trazado_705214" data-name="Trazado 705214" d="M24,13.833V7.887A5.888,5.888,0,0,1,29.887,2h5.887a3.532,3.532,0,0,1,3.532,3.532,3.532,3.532,0,0,1,3.532,3.532v4.769" transform="translate(4.081 0.177)" fill="#3f4042"/>
      <path id="Trazado_705215" data-name="Trazado 705215" d="M42.484,9.065a3.532,3.532,0,0,0-3.532-3.532A3.532,3.532,0,0,0,35.419,2H29.532a5.848,5.848,0,0,0-3.386,1.083A5.879,5.879,0,0,0,26,4.355,5.946,5.946,0,0,0,31.946,10.3H42.484Z" transform="translate(4.435 0.177)" fill="#5a5b5d"/>
      <g id="Grupo_999933" data-name="Grupo 999933" transform="translate(25.726 9.242)">
        <path id="Trazado_705216" data-name="Trazado 705216" d="M40.129,11.532v5.887a7.065,7.065,0,1,1-14.129,0V11.532h4A7.934,7.934,0,0,0,36.6,8Z" transform="translate(-21.29 -8)" fill="#eeb8ab"/>
        <path id="Trazado_705217" data-name="Trazado 705217" d="M26.71,12H24.944a2.944,2.944,0,1,0,0,5.887h1.864" transform="translate(-22 -7.29)" fill="#eeb8ab"/>
        <path id="Trazado_705218" data-name="Trazado 705218" d="M38.015,12h1.766a2.944,2.944,0,0,1,0,5.887H37.917" transform="translate(-19.176 -7.29)" fill="#eeb8ab"/>
      </g>
      <path id="Trazado_705219" data-name="Trazado 705219" d="M34.71,41.952,33.532,29H31.177L30,41.952Z" transform="translate(5.145 4.968)" fill="#e66967"/>
      <path id="Trazado_705220" data-name="Trazado 705220" d="M33.476,24.454a7.062,7.062,0,0,0,6.476-7.035V11.532L36.419,8a7.934,7.934,0,0,1-6.6,3.532H27v5.887A7.062,7.062,0,0,0,33.476,24.454Z" transform="translate(4.613 1.242)" fill="#ffe1d3"/>
      <path id="Trazado_705221" data-name="Trazado 705221" d="M35.887,22.191A7,7,0,0,1,30,22.733v1.588l2.944.981,2.944-.981Z" transform="translate(5.145 3.76)" fill="#ffe1d3"/>
      <path id="Trazado_705222" data-name="Trazado 705222" d="M32.177,29,31,41.952h3.532L33.355,29Z" transform="translate(5.323 4.968)" fill="#ee8382"/>
      <path id="Trazado_705223" data-name="Trazado 705223" d="M24,32h2.355v9.419H24Z" transform="translate(4.081 5.5)" fill="#959595"/>
      <path id="Trazado_705224" data-name="Trazado 705224" d="M11.71,51.129A3.81,3.81,0,0,1,8.3,49.023l-.3-.6a9.481,9.481,0,0,1-1-4.24V41.216A4.218,4.218,0,0,1,11.216,37h3.342a4.218,4.218,0,0,1,4.216,4.216v2.965a9.481,9.481,0,0,1-1,4.24l-.3.6a3.813,3.813,0,0,1-3.409,2.106Z" transform="translate(1.065 6.387)" fill="#893b1b"/>
      <path id="Trazado_705225" data-name="Trazado 705225" d="M29,48h7.065v5.887H29Z" transform="translate(4.968 8.339)" fill="#eeb8ab"/>
      <path id="Trazado_705226" data-name="Trazado 705226" d="M48.355,7H62.484a2.354,2.354,0,0,1,2.355,2.355v9.419a2.354,2.354,0,0,1-2.355,2.355H55.419l-7.065,5.887,1.177-5.887H48.355A2.354,2.354,0,0,1,46,18.774V9.355A2.354,2.354,0,0,1,48.355,7Z" transform="translate(7.984 1.065)" fill="#6ac4e8"/>
      <path id="Trazado_705227" data-name="Trazado 705227" d="M62.129,7H48v8.242a3.532,3.532,0,0,0,3.532,3.532H64.484V9.355A2.354,2.354,0,0,0,62.129,7Z" transform="translate(8.339 1.065)" fill="#8edff8"/>
      <path id="Trazado_705228" data-name="Trazado 705228" d="M57,14h2.355v2.355H57Z" transform="translate(9.935 2.306)" fill="#fff"/>
      <path id="Trazado_705229" data-name="Trazado 705229" d="M53,14h2.355v2.355H53Z" transform="translate(9.226 2.306)" fill="#fff"/>
      <path id="Trazado_705230" data-name="Trazado 705230" d="M49,14h2.355v2.355H49Z" transform="translate(8.516 2.306)" fill="#fff"/>
      <path id="Trazado_705231" data-name="Trazado 705231" d="M53.209,27a2.8,2.8,0,0,0-1.363.353l-2.556,1.42,2.878,5.036,2.175-1.186A3.208,3.208,0,0,0,56.013,29.8,2.806,2.806,0,0,0,53.209,27Z" transform="translate(8.567 4.613)" fill="#ffe1d3"/>
      <path id="Trazado_705232" data-name="Trazado 705232" d="M15.713,37.217A4.2,4.2,0,0,0,14.38,37H11.039a4.211,4.211,0,0,0-2.989,1.246A4.1,4.1,0,0,0,8,38.861v2.965a9.481,9.481,0,0,0,1,4.24l.3.6a3.813,3.813,0,0,0,3.409,2.106h2.355a3.8,3.8,0,0,0,3-1.473,9.491,9.491,0,0,0,.535-3.12V41.216a4.215,4.215,0,0,0-2.884-4Z" transform="translate(1.242 6.387)" fill="#a44b2f"/>
      <path id="Trazado_705233" data-name="Trazado 705233" d="M31.71,51.129A3.81,3.81,0,0,1,28.3,49.023l-.3-.6a9.481,9.481,0,0,1-1-4.24V41.216A4.218,4.218,0,0,1,31.216,37h3.342a4.218,4.218,0,0,1,4.216,4.216v2.965a9.481,9.481,0,0,1-1,4.24l-.3.6a3.813,3.813,0,0,1-3.409,2.106Z" transform="translate(4.613 6.387)" fill="#3f4042"/>
      <path id="Trazado_705234" data-name="Trazado 705234" d="M51.71,51.129A3.81,3.81,0,0,1,48.3,49.023l-.3-.6a9.481,9.481,0,0,1-1-4.24V41.216A4.218,4.218,0,0,1,51.216,37h3.342a4.218,4.218,0,0,1,4.216,4.216v2.965a9.481,9.481,0,0,1-1,4.24l-.3.6a3.813,3.813,0,0,1-3.409,2.106Z" transform="translate(8.161 6.387)" fill="#c99728"/>
      <path id="Trazado_705235" data-name="Trazado 705235" d="M55.713,37.217A4.2,4.2,0,0,0,54.38,37H51.039a4.211,4.211,0,0,0-2.989,1.246,4.1,4.1,0,0,0-.049.616v2.965a9.481,9.481,0,0,0,1,4.24l.3.6a3.813,3.813,0,0,0,3.409,2.106h2.355a3.8,3.8,0,0,0,3-1.473,9.491,9.491,0,0,0,.535-3.12V41.216a4.215,4.215,0,0,0-2.883-4Z" transform="translate(8.339 6.387)" fill="#e7b532"/>
      <path id="Trazado_705236" data-name="Trazado 705236" d="M35.713,37.217A4.2,4.2,0,0,0,34.38,37H31.039a4.211,4.211,0,0,0-2.989,1.246,4.1,4.1,0,0,0-.049.616v2.965a9.481,9.481,0,0,0,1,4.24l.3.6a3.813,3.813,0,0,0,3.409,2.106h2.355a3.8,3.8,0,0,0,3-1.473,9.491,9.491,0,0,0,.535-3.12V41.216a4.215,4.215,0,0,0-2.884-4Z" transform="translate(4.79 6.387)" fill="#5a5b5d"/>
      <path id="Trazado_705237" data-name="Trazado 705237" d="M4,64.774V56.532A3.532,3.532,0,0,1,7.532,53H19.306a3.532,3.532,0,0,1,3.532,3.532v8.242" transform="translate(0.532 9.226)" fill="#6bb566"/>
      <path id="Trazado_705238" data-name="Trazado 705238" d="M10.532,61.242H22.306v-4.71A3.532,3.532,0,0,0,18.774,53H7v4.71A3.532,3.532,0,0,0,10.532,61.242Z" transform="translate(1.065 9.226)" fill="#89c683"/>
      <path id="Trazado_705239" data-name="Trazado 705239" d="M24,64.774V56.532A3.532,3.532,0,0,1,27.532,53H39.306a3.532,3.532,0,0,1,3.532,3.532v8.242" transform="translate(4.081 9.226)" fill="#6bb566"/>
      <path id="Trazado_705240" data-name="Trazado 705240" d="M30.532,61.242H42.306v-4.71A3.532,3.532,0,0,0,38.774,53H27v4.71A3.532,3.532,0,0,0,30.532,61.242Z" transform="translate(4.613 9.226)" fill="#89c683"/>
      <path id="Trazado_705241" data-name="Trazado 705241" d="M44,64.774V56.532A3.532,3.532,0,0,1,47.532,53H59.306a3.532,3.532,0,0,1,3.532,3.532v8.242" transform="translate(7.629 9.226)" fill="#6bb566"/>
      <path id="Trazado_705242" data-name="Trazado 705242" d="M50.532,61.242H62.306v-4.71A3.532,3.532,0,0,0,58.774,53H47v4.71A3.532,3.532,0,0,0,50.532,61.242Z" transform="translate(8.161 9.226)" fill="#89c683"/>
      <path id="Trazado_705243" data-name="Trazado 705243" d="M31.355,50.124A3.808,3.808,0,0,1,29,49.3v4.353h7.065V49.3a3.808,3.808,0,0,1-2.355.821Z" transform="translate(4.968 8.57)" fill="#ffe1d3"/>
      <path id="Trazado_705244" data-name="Trazado 705244" d="M18.484,2H4.355A2.354,2.354,0,0,0,2,4.355v9.419a2.354,2.354,0,0,0,2.355,2.355h7.065l7.065,5.887-1.177-5.887h1.177a2.354,2.354,0,0,0,2.355-2.355V4.355A2.354,2.354,0,0,0,18.484,2Z" transform="translate(0.177 0.177)" fill="#6ac4e8"/>
      <path id="Trazado_705245" data-name="Trazado 705245" d="M18.129,2H4v8.242a3.532,3.532,0,0,0,3.532,3.532H20.484V4.355A2.354,2.354,0,0,0,18.129,2Z" transform="translate(0.532 0.177)" fill="#8edff8"/>
      <path id="Trazado_705246" data-name="Trazado 705246" d="M5,9H7.355v2.355H5Z" transform="translate(0.71 1.419)" fill="#fff"/>
      <path id="Trazado_705247" data-name="Trazado 705247" d="M9,9h2.355v2.355H9Z" transform="translate(1.419 1.419)" fill="#fff"/>
      <path id="Trazado_705248" data-name="Trazado 705248" d="M13,9h2.355v2.355H13Z" transform="translate(2.129 1.419)" fill="#fff"/>
      <path id="Trazado_705249" data-name="Trazado 705249" d="M21.839,61.7a4.661,4.661,0,0,0-2.355-.655H18.306v-3.83a5,5,0,0,0,.929-1.282l.3-.6a10.713,10.713,0,0,0,1.126-4.766V47.6a5.394,5.394,0,0,0-5.394-5.394H11.926A5.393,5.393,0,0,0,6.532,47.6v2.965a10.713,10.713,0,0,0,1.126,4.766l.3.6a4.983,4.983,0,0,0,.929,1.282v3.83H7.71A4.714,4.714,0,0,0,3,65.758V74H5.355V65.758A2.357,2.357,0,0,1,7.71,63.4H19.484a2.357,2.357,0,0,1,2.355,2.355V74h2.355V48.1h5.887v2.471a10.713,10.713,0,0,0,1.126,4.766l.3.6a5,5,0,0,0,.929,1.282v3.83H31.258a4.714,4.714,0,0,0-4.71,4.71V74H28.9V65.758A2.357,2.357,0,0,1,31.258,63.4H43.032a2.357,2.357,0,0,1,2.355,2.355V74h2.355V65.758a4.714,4.714,0,0,0-4.71-4.71H41.855v-3.83a5,5,0,0,0,.929-1.282l.3-.6a10.713,10.713,0,0,0,1.126-4.766V48.1H50.1V74h2.355V65.758A2.357,2.357,0,0,1,54.806,63.4H66.581a2.357,2.357,0,0,1,2.355,2.355V74H71.29V65.758a4.714,4.714,0,0,0-4.71-4.71H65.4v-3.83a5,5,0,0,0,.929-1.282l.3-.6a10.713,10.713,0,0,0,1.126-4.766V47.6a5.394,5.394,0,0,0-5.394-5.394H59.023A5.393,5.393,0,0,0,53.629,47.6v2.965a10.713,10.713,0,0,0,1.126,4.766l.3.6a5,5,0,0,0,.929,1.282v3.83H54.806a4.661,4.661,0,0,0-2.355.655V46.919a1.178,1.178,0,0,0-1.177-1.177h-4.71V42.7l.491.491a4.783,4.783,0,0,0,5.569.8l10.492-5.722A4.384,4.384,0,0,0,65.4,34.418a3.983,3.983,0,0,0-5.918-3.482l-8.793,4.885-1.779-4.448c-.064-.159-.133-.316-.211-.471a6.1,6.1,0,0,0-4.286-3.273l-2.562-.513v-1.7a8.265,8.265,0,0,0,3.185-4.4h.936a4.111,4.111,0,0,0,1.766-7.829V9.242a4.717,4.717,0,0,0-3.652-4.59A4.717,4.717,0,0,0,39.5,1H33.613a7.072,7.072,0,0,0-7.065,7.065v5.123a4.111,4.111,0,0,0,1.766,7.829h.936a8.261,8.261,0,0,0,3.185,4.4v1.746l-3.958.989a7.2,7.2,0,0,0-5.461,7v10.6a1.178,1.178,0,0,0-1.177,1.177ZM8.887,47.6a3.037,3.037,0,0,1,3.039-3.039h3.342A3.037,3.037,0,0,1,18.306,47.6v2.965a8.332,8.332,0,0,1-.877,3.714l-.3.6a2.618,2.618,0,0,1-2.355,1.455H12.419a2.618,2.618,0,0,1-2.355-1.455l-.3-.6a8.332,8.332,0,0,1-.877-3.714Zm2.355,10.941a5.009,5.009,0,0,0,1.177.15h2.355a5.009,5.009,0,0,0,1.177-.15v2.5h-4.71ZM55.984,47.6a3.037,3.037,0,0,1,3.039-3.039h3.342A3.037,3.037,0,0,1,65.4,47.6v2.965a8.332,8.332,0,0,1-.877,3.714l-.3.6a2.618,2.618,0,0,1-2.355,1.455H59.516a2.618,2.618,0,0,1-2.355-1.455l-.3-.6a8.332,8.332,0,0,1-.877-3.714Zm2.355,10.941a5.009,5.009,0,0,0,1.177.15h2.355a5.009,5.009,0,0,0,1.177-.15v2.5h-4.71ZM39.5,61.048H34.79v-2.5a5.009,5.009,0,0,0,1.177.15h2.355a5.009,5.009,0,0,0,1.177-.15Zm2.355-10.48a8.332,8.332,0,0,1-.877,3.714l-.3.6a2.618,2.618,0,0,1-2.355,1.455H35.968a2.618,2.618,0,0,1-2.355-1.455l-.3-.6a8.332,8.332,0,0,1-.877-3.714V47.6a3.037,3.037,0,0,1,3.039-3.039h3.342A3.037,3.037,0,0,1,41.855,47.6ZM33.566,29.306l1.4.466-1.353,1.353-1.465-1.465Zm7.188-.009,1.461.292-1.538,1.537-1.353-1.353Zm-3.711,5.848h.2l.642,7.065H36.4Zm.1-4.222L38.22,32l-.527.792H36.6L36.069,32ZM60.63,32.994a1.628,1.628,0,0,1,2.418,1.423A2.033,2.033,0,0,1,61.99,36.2l-1.161.633-1.714-3ZM46.6,31.952c.046.094.089.188.13.29L49,37.937a1.177,1.177,0,0,0,.7.672,1.191,1.191,0,0,0,.967-.08l6.389-3.55,1.7,2.982L51.5,41.924a2.382,2.382,0,0,1-2.778-.4l-2.5-2.5a1.177,1.177,0,0,0-2.01.834v5.887h-.343a5.378,5.378,0,0,0-3.346-3.256c-.081-.027-.165-.038-.247-.061l-.741-8.15.4-.6a1.146,1.146,0,0,0,1.58-.057l3.365-3.365a3.757,3.757,0,0,1,1.72,1.694Zm-.619-13.291h-.589V15.129h.589a1.766,1.766,0,0,1,0,3.532ZM28.9,8.065a4.714,4.714,0,0,1,4.71-4.71H39.5A2.357,2.357,0,0,1,41.855,5.71a1.178,1.178,0,0,0,1.177,1.177,2.357,2.357,0,0,1,2.355,2.355v3.532a1.174,1.174,0,0,0-.345-.832L41.51,8.409a1.178,1.178,0,0,0-1.812.179,6.74,6.74,0,0,1-5.62,3.008h-4A1.178,1.178,0,0,0,28.9,12.774Zm-.589,10.6a1.766,1.766,0,0,1,0-3.532H28.9v3.532Zm2.944,0v-4.71h2.82a9.087,9.087,0,0,0,6.7-2.941l2.25,2.251v5.4a5.887,5.887,0,1,1-11.774,0ZM37.145,26.9a8.19,8.19,0,0,0,2.355-.347v.676l-2.355.785-2.355-.785v-.676A8.19,8.19,0,0,0,37.145,26.9ZM25.371,35.145a4.847,4.847,0,0,1,3.677-4.71l.436-.11,3.3,3.3a1.146,1.146,0,0,0,1.58.057l.4.6-.741,8.15c-.082.024-.166.034-.247.061a5.379,5.379,0,0,0-3.345,3.256h-.344V37.5H27.726v8.242H25.371Z" transform="translate(0.355 0)"/>
      <path id="Trazado_705250" data-name="Trazado 705250" d="M4.532,17.484h6.638L17.908,23.1a1.177,1.177,0,0,0,1.907-1.136l-.9-4.488a3.535,3.535,0,0,0,3.276-3.522V4.532A3.537,3.537,0,0,0,18.661,1H4.532A3.537,3.537,0,0,0,1,4.532v9.419A3.537,3.537,0,0,0,4.532,17.484ZM3.355,4.532A1.179,1.179,0,0,1,4.532,3.355H18.661a1.179,1.179,0,0,1,1.177,1.177v9.419a1.179,1.179,0,0,1-1.177,1.177H17.484a1.177,1.177,0,0,0-1.154,1.408l.523,2.616L12.35,15.4a1.176,1.176,0,0,0-.754-.273H4.532a1.179,1.179,0,0,1-1.177-1.177Z" transform="translate(0 0)"/>
      <path id="Trazado_705251" data-name="Trazado 705251" d="M5,9H7.355v2.355H5Z" transform="translate(0.71 1.419)"/>
      <path id="Trazado_705252" data-name="Trazado 705252" d="M9,9h2.355v2.355H9Z" transform="translate(1.419 1.419)"/>
      <path id="Trazado_705253" data-name="Trazado 705253" d="M13,9h2.355v2.355H13Z" transform="translate(2.129 1.419)"/>
      <path id="Trazado_705254" data-name="Trazado 705254" d="M62.661,6H48.532A3.537,3.537,0,0,0,45,9.532v9.419a3.537,3.537,0,0,0,3.276,3.523l-.9,4.488A1.177,1.177,0,0,0,49.286,28.1l6.737-5.614h6.638a3.537,3.537,0,0,0,3.532-3.532V9.532A3.537,3.537,0,0,0,62.661,6Zm1.177,12.952a1.179,1.179,0,0,1-1.177,1.177H55.6a1.176,1.176,0,0,0-.754.273l-4.5,3.751.523-2.616a1.177,1.177,0,0,0-1.154-1.408H48.532a1.179,1.179,0,0,1-1.177-1.177V9.532a1.179,1.179,0,0,1,1.177-1.177H62.661a1.179,1.179,0,0,1,1.177,1.177Z" transform="translate(7.806 0.887)"/>
      <path id="Trazado_705255" data-name="Trazado 705255" d="M57,14h2.355v2.355H57Z" transform="translate(9.935 2.306)"/>
      <path id="Trazado_705256" data-name="Trazado 705256" d="M53,14h2.355v2.355H53Z" transform="translate(9.226 2.306)"/>
      <path id="Trazado_705257" data-name="Trazado 705257" d="M49,14h2.355v2.355H49Z" transform="translate(8.516 2.306)"/>
    </g>
  </g>
</svg>
