<svg xmlns="http://www.w3.org/2000/svg" xmlns:xlink="http://www.w3.org/1999/xlink" width="1241" height="581" viewBox="0 0 1241 581">
  <defs>
    <clipPath id="clip-path">
      <rect id="Rectángulo_343796" data-name="Rectángulo 343796" width="1241" height="581" rx="15" transform="translate(180 1262)" fill="#005b8b" opacity="0.22"/>
    </clipPath>
    <clipPath id="clip-path-2">
      <path id="Trazado_690250" data-name="Trazado 690250" d="M225.648,0c-11.189.13-19.589,5.8-23.854,16.018-4.1,9.626-4.384,23.355,0,40.339,15.432,58.593,75.86,112.8,112.1,187.826,36.1,75.013,37.507,85.334,37.507,85.334l-3.245,25.764s-46.992-19.817-96.675-74.872C201.794,225.213,109.232,156.57,85.736,137.6s-57.747-32.124-79.962,0c-7.933,11.471-7.087,25.189-1.129,39.775C15.389,203.562,43,232.571,67.2,256.924c37.789,37.637,122.428,116.047,144.513,133.606,22.215,17.679,71.888,57.888,82.643,84.075,8.074,19.524,22.226,49.39,24.494,98.78a356.372,356.372,0,0,1-2.691,58.181c-10.9,86.05-93.56,56.184-46.851,131.49C316.158,838.2,419.062,914.07,492.22,937.848c63.694,63.694,134.192,223.629,134.192,223.629s58.311,5.8,131.772-24.907c50.66-21.1,108.7-59.733,159.642-129.8a504.024,504.024,0,0,0,37.941-60.861c-100.354-73.168-189.1-200.556-189.1-200.556,40.057-93.419,46.134-209.325,48.826-281.8-12.871-44.724-59.733-86.332-44.018-197.864,17.125-122.287-11.319-115.917-59.158-79.832-1.281,1-2.55,1.986-3.679,2.974C662.92,226.917,636.179,317.21,665.329,414.45c0,0-1.281,12.166-9.062,15.139C555.349,426.9,486.142,338.861,446.932,276.448c-39.341-62.283-111.8-192.21-165.166-245.431C260.615,9.789,241.2.184,226.462,0Z" transform="translate(0)" fill="none"/>
    </clipPath>
    <linearGradient id="linear-gradient" x1="0.168" y1="0.939" x2="0.176" y2="0.939" gradientUnits="objectBoundingBox">
      <stop offset="0" stop-color="#f8c5a1"/>
      <stop offset="0.699" stop-color="#f9bb9a"/>
      <stop offset="1" stop-color="#fab597"/>
    </linearGradient>
    <clipPath id="clip-path-3">
      <path id="Trazado_690251" data-name="Trazado 690251" d="M121.914,37.866c-1.281,1-2.55,1.986-3.679,2.974,38.071-12.307,51.94-3.82,51.94,30.572,0,40.621-40.621,74.449-25.753,97.521,15,23.073,49.238,111.532,45.147,193.762-3.972,82.23-2.691,109.839-24.777,168C142.577,589,135.925,632.891,59.924,682.987c128.788-14.011,175.356,29.3,210.03,64.128,24.494,24.483,46.427,80.526,57.464,111.662a504.02,504.02,0,0,0,37.941-60.861c-100.354-73.168-189.1-200.556-189.1-200.556,40.057-93.419,46.134-209.325,48.826-281.8-12.871-44.724-59.733-86.332-44.018-197.864,10.722-76.532,3.592-102.676-14.977-102.676-11.091,0-26.285,9.344-44.181,22.845" transform="translate(-59.924 -15.021)" fill="none"/>
    </clipPath>
    <linearGradient id="linear-gradient-2" x1="-2.129" y1="1.184" x2="-2.094" y2="1.184" gradientUnits="objectBoundingBox">
      <stop offset="0" stop-color="#f7b08a"/>
      <stop offset="0.394" stop-color="#f0a582"/>
      <stop offset="1" stop-color="#e38c72"/>
    </linearGradient>
    <clipPath id="clip-path-4">
      <path id="Trazado_690252" data-name="Trazado 690252" d="M113.706,138.426c-4.254,3.538-13.739,6.229-26.47,8.2a356.374,356.374,0,0,1-2.691,58.181C73.649,290.862-9.015,261,37.695,336.3,84.545,411.445,187.45,487.315,260.607,511.093,324.3,574.787,394.8,734.722,394.8,734.722s58.311,5.8,131.772-24.907c-78.128-8.921-128.94-38.223-160.228-98.52-38.635-74.449-28.456-146.347-28.456-146.347s-76.142,10.473-161.91-30.854S87.942,316.908,87.942,316.908s45.006-12.882,53.08-39.916c8.2-27.175,18.688-23.073,33.252-31.559,14.586-8.5,29.877-34.967,25.764-51.528-4.243-16.409-47.133-41.316-47.133-41.316l2.409-41.337-8.5,13.6s-3.527-30.3,9.485-81.536c-13.87,48.7-20.1,76.153-42.6,95.112" transform="translate(-23.508 -43.314)" fill="none"/>
    </clipPath>
    <linearGradient id="linear-gradient-3" x1="-0.416" y1="0.992" x2="-0.395" y2="0.992" xlink:href="#linear-gradient-2"/>
    <clipPath id="clip-path-5">
      <path id="Trazado_690253" data-name="Trazado 690253" d="M28.993,86.346c-4.677,7.5-17.277,27.468-11.189,44.441,2.55,7.358,9.908,21.944,22.226,36.953,10.9,13.294,25.612,26.741,44.3,35.52a106.062,106.062,0,0,0,30.713,8.769c56.607-7.781,90.152-41.609,90.152-94.4C158.909,123.147,63.949,54.5,63.949,54.5,43.557,61.016,33.79,78.987,28.993,86.346" transform="translate(-16.175 -54.504)" fill="none"/>
    </clipPath>
    <linearGradient id="linear-gradient-4" x1="-0.669" y1="2.511" x2="-0.621" y2="2.511" xlink:href="#linear-gradient"/>
    <clipPath id="clip-path-6">
      <path id="Trazado_690254" data-name="Trazado 690254" d="M42.448,0C31.259.13,22.859,5.8,18.594,16.018,61.625,2.149,102.246,32.3,102.246,70.227c0,43.031,18.959,46.992,36.1,57.888s51.094,39.775,51.094,64.117c0,24.483,21.651.423,35.662,56.477s17.125,32.547,43.313,69.641c26.176,36.931,42.032,86.191,84.5,101.048,42.466,15,81.242,31.7,96.675,29.866,15.281-1.845,23.485-19.676,23.485-19.676C372.15,426.9,302.943,338.861,263.732,276.448c-39.341-62.283-111.8-192.21-165.166-245.431C77.415,9.789,58,.184,43.262,0Z" transform="translate(-18.594)" fill="none"/>
    </clipPath>
    <linearGradient id="linear-gradient-5" x1="-0.444" y1="2.576" x2="-0.42" y2="2.576" xlink:href="#linear-gradient-2"/>
    <clipPath id="clip-path-7">
      <path id="Trazado_690255" data-name="Trazado 690255" d="M5.774,30.355C-2.159,41.826-1.313,55.543,4.645,70.129,7.326,37.995,25.58,31.776,47.383,31.776c25.189,0,65.962,28.445,76.283,56.889,10.484,28.455,23.919,47.426,55.62,55.489,31.57,8.2,66.385,38.917,69.077,60.579s63.694,38.353,76.283,68.643c12.752,30.29,23.507-25.341,23.507-25.341s-46.992-19.817-96.675-74.872C201.794,117.968,109.232,49.325,85.736,30.355c-13.2-10.646-29.769-19.47-45.711-19.47-12.448,0-24.505,5.383-34.251,19.47" transform="translate(0 -10.885)" fill="none"/>
    </clipPath>
    <linearGradient id="linear-gradient-6" x1="0.006" y1="3.564" x2="0.037" y2="3.564" xlink:href="#linear-gradient-2"/>
    <clipPath id="clip-path-8">
      <path id="Trazado_690256" data-name="Trazado 690256" d="M28.993,86.346c-4.677,7.5-17.277,27.468-11.189,44.441,2.55,7.358,9.908,21.944,22.226,36.953,2.116-50.823,19.947-69.923,44.018-61.719,27.587,9.474,60.427,18.829,60.427,39.916,0,16.832-30.138,42.455-60.145,57.323a106.062,106.062,0,0,0,30.713,8.769c56.607-7.781,90.152-41.609,90.152-94.4C158.909,123.147,63.949,54.5,63.949,54.5,43.557,61.016,33.79,78.987,28.993,86.346" transform="translate(-16.175 -54.504)" fill="none"/>
    </clipPath>
    <linearGradient id="linear-gradient-7" x1="-0.884" y1="3.621" x2="-0.828" y2="3.621" xlink:href="#linear-gradient-2"/>
    <clipPath id="clip-path-9">
      <path id="Trazado_690257" data-name="Trazado 690257" d="M49.656,58.758S24.185,87.214,20.223,101.789c-2.127,7.358-1.7,20.663.846,33.828,2.4,13.164,7.076,25.905,13.729,32.558,10.191,10.18,54.068,40.187,91.433,56.759,11.178,4.949,21.792,8.628,30.854,10.321A96.282,96.282,0,0,0,220.063,224.5c12.177-6.783,20.956-15.7,24.342-25.189,3.679-10.049,5.947-22.085,2.127-32.981-4.808-13.587-19.383-25.189-53.221-28.314,0-24.049-44.441-37.214-44.441-37.214s7.5-33.545-30.138-56.9C80.1,43.9,49.656,58.758,49.656,58.758" transform="translate(-18.86 -43.901)" fill="none"/>
    </clipPath>
    <linearGradient id="linear-gradient-8" x1="-0.602" y1="2.45" x2="-0.565" y2="2.45" xlink:href="#linear-gradient"/>
    <clipPath id="clip-path-10">
      <path id="Trazado_690258" data-name="Trazado 690258" d="M49.656,58.758S24.185,87.214,20.223,101.789c-2.127,7.358-1.7,20.663.846,33.828C44.837,79.7,61.257,80.138,84.189,82.254c24.918,2.268,33.263,8.074,41.2,35.672,7.781,27.6,56.477,18.254,56.477,48.4,0,24.342-28.455,46.851-55.63,58.6,11.178,4.949,21.792,8.628,30.854,10.321A96.282,96.282,0,0,0,220.063,224.5c12.177-6.783,20.956-15.7,24.342-25.189,3.679-10.049,5.947-22.085,2.127-32.981-4.808-13.587-19.383-25.189-53.221-28.314,0-24.049-44.441-37.214-44.441-37.214s7.5-33.545-30.138-56.9C80.1,43.9,49.656,58.758,49.656,58.758" transform="translate(-18.86 -43.901)" fill="none"/>
    </clipPath>
    <linearGradient id="linear-gradient-9" x1="-0.878" y1="3.507" x2="-0.831" y2="3.507" xlink:href="#linear-gradient-2"/>
    <clipPath id="clip-path-11">
      <path id="Trazado_690259" data-name="Trazado 690259" d="M50.575,65.8S54.808,91.56,37.4,113.352c12.177-6.783,20.956-15.7,24.342-25.189,3.679-10.05,5.947-22.085,2.127-32.981A31.246,31.246,0,0,1,50.575,65.8" transform="translate(-37.4 -55.182)" fill="none"/>
    </clipPath>
    <linearGradient id="linear-gradient-10" x1="-6.473" y1="15.843" x2="-6.293" y2="15.843" xlink:href="#linear-gradient-2"/>
    <clipPath id="clip-path-12">
      <path id="Trazado_690260" data-name="Trazado 690260" d="M118.042,326.1A211.2,211.2,0,0,1,109.913,99.79a53.627,53.627,0,0,0-37.268,36.02,211.375,211.375,0,0,1,8.3-90.228A213.763,213.763,0,0,0,118.042,326.1" transform="translate(-44.585 -45.581)" fill="none"/>
    </clipPath>
    <linearGradient id="linear-gradient-11" x1="-2.662" y1="2.28" x2="-2.595" y2="2.28" xlink:href="#linear-gradient-2"/>
    <clipPath id="clip-path-13">
      <rect id="Rectángulo_343795" data-name="Rectángulo 343795" width="955.755" height="1161.911" fill="none"/>
    </clipPath>
  </defs>
  <g id="Grupo_990763" data-name="Grupo 990763" transform="translate(-180 -1262)">
    <rect id="Rectángulo_33759" data-name="Rectángulo 33759" width="1240" height="581" rx="15" transform="translate(180 1262)" fill="#e1f3fc"/>
    <g id="Enmascarar_grupo_103" data-name="Enmascarar grupo 103" clip-path="url(#clip-path)">
      <g id="Grupo_895080" data-name="Grupo 895080" transform="translate(-8.318 1145.302)" opacity="0.07">
        <g id="Grupo_895057" data-name="Grupo 895057" transform="translate(0)">
          <g id="Grupo_895056" data-name="Grupo 895056" clip-path="url(#clip-path-2)">
            <rect id="Rectángulo_343784" data-name="Rectángulo 343784" width="1437.203" height="1319.191" transform="matrix(0.367, -0.93, 0.93, 0.367, -400.329, 1010.359)" fill="url(#linear-gradient)"/>
          </g>
        </g>
        <g id="Grupo_895059" data-name="Grupo 895059" transform="translate(650.331 163.017)">
          <g id="Grupo_895058" data-name="Grupo 895058" clip-path="url(#clip-path-3)">
            <rect id="Rectángulo_343785" data-name="Rectángulo 343785" width="305.435" height="843.757" transform="translate(0 0)" fill="url(#linear-gradient-2)"/>
          </g>
        </g>
        <g id="Grupo_895061" data-name="Grupo 895061" transform="translate(255.121 470.069)">
          <g id="Grupo_895060" data-name="Grupo 895060" clip-path="url(#clip-path-4)">
            <rect id="Rectángulo_343786" data-name="Rectángulo 343786" width="535.586" height="697.203" transform="translate(-32.523 0)" fill="url(#linear-gradient-3)"/>
          </g>
        </g>
        <g id="Grupo_895063" data-name="Grupo 895063" transform="translate(175.54 591.51)">
          <g id="Grupo_895062" data-name="Grupo 895062" clip-path="url(#clip-path-5)">
            <rect id="Rectángulo_343787" data-name="Rectángulo 343787" width="229.157" height="244.402" transform="translate(-69.061 123.82) rotate(-62.447)" fill="url(#linear-gradient-4)"/>
          </g>
        </g>
        <g id="Grupo_895065" data-name="Grupo 895065" transform="translate(201.794)">
          <g id="Grupo_895064" data-name="Grupo 895064" clip-path="url(#clip-path-6)">
            <rect id="Rectángulo_343788" data-name="Rectángulo 343788" width="454.474" height="451.099" transform="translate(0)" fill="url(#linear-gradient-5)"/>
          </g>
        </g>
        <g id="Grupo_895067" data-name="Grupo 895067" transform="translate(0 118.13)">
          <g id="Grupo_895066" data-name="Grupo 895066" clip-path="url(#clip-path-7)">
            <rect id="Rectángulo_343789" data-name="Rectángulo 343789" width="350.311" height="292.781" transform="translate(-2.159 0)" fill="url(#linear-gradient-6)"/>
          </g>
        </g>
        <g id="Grupo_895069" data-name="Grupo 895069" transform="translate(175.54 591.51)">
          <g id="Grupo_895068" data-name="Grupo 895068" clip-path="url(#clip-path-8)">
            <rect id="Rectángulo_343790" data-name="Rectángulo 343790" width="193.48" height="157.525" transform="translate(-4.459 0)" fill="url(#linear-gradient-7)"/>
          </g>
        </g>
        <g id="Grupo_895071" data-name="Grupo 895071" transform="translate(204.685 476.44)">
          <g id="Grupo_895070" data-name="Grupo 895070" clip-path="url(#clip-path-9)">
            <rect id="Rectángulo_343791" data-name="Rectángulo 343791" width="290.38" height="301.225" transform="translate(-90.005 137.58) rotate(-57.031)" fill="url(#linear-gradient-8)"/>
          </g>
        </g>
        <g id="Grupo_895073" data-name="Grupo 895073" transform="translate(204.685 476.44)">
          <g id="Grupo_895072" data-name="Grupo 895072" clip-path="url(#clip-path-10)">
            <rect id="Rectángulo_343792" data-name="Rectángulo 343792" width="232.256" height="195.466" transform="translate(-0.764 0)" fill="url(#linear-gradient-9)"/>
          </g>
        </g>
        <g id="Grupo_895075" data-name="Grupo 895075" transform="translate(405.888 598.868)">
          <g id="Grupo_895074" data-name="Grupo 895074" clip-path="url(#clip-path-11)">
            <rect id="Rectángulo_343793" data-name="Rectángulo 343793" width="60.384" height="34.797" transform="matrix(0.079, -0.997, 0.997, 0.079, -4.588, 57.806)" fill="url(#linear-gradient-10)"/>
          </g>
        </g>
        <g id="Grupo_895077" data-name="Grupo 895077" transform="translate(483.868 494.672)">
          <g id="Grupo_895076" data-name="Grupo 895076" clip-path="url(#clip-path-12)">
            <rect id="Rectángulo_343794" data-name="Rectángulo 343794" width="160.882" height="295.564" transform="matrix(0.972, -0.237, 0.237, 0.972, -88.302, 15.721)" fill="url(#linear-gradient-11)"/>
          </g>
        </g>
        <g id="Grupo_895079" data-name="Grupo 895079" transform="translate(0.001)">
          <g id="Grupo_895078" data-name="Grupo 895078" clip-path="url(#clip-path-13)">
            <path id="Trazado_690261" data-name="Trazado 690261" d="M61.26,46.29c2.854-2.279,5.936-4.2,8.964-6.305C73.458,38.314,76.671,36.545,80,35a86.349,86.349,0,0,1,21.152-6.4,71.408,71.408,0,0,1,22.237-.217c7.315,1.226,14.673,3.419,20.533,7.966a85.706,85.706,0,0,0-20.978-2.54,132.983,132.983,0,0,0-20.663,1.769C95.4,36.523,88.7,38.433,81.837,40.1Z" transform="translate(603.57 271.995)" fill="#e08172"/>
            <path id="Trazado_690262" data-name="Trazado 690262" d="M33.623,61.319c12.991-4.4,25.677-7.9,37.55-13.251A113.121,113.121,0,0,0,88.342,39.1a60.529,60.529,0,0,0,14.727-13.023c-1.617,6.826-6.273,12.578-11.384,17.31A62.225,62.225,0,0,1,74.006,54.558a86.369,86.369,0,0,1-19.882,5.806L43.9,61.5c-3.451-.065-6.848.1-10.277-.185" transform="translate(331.274 256.965)" fill="#e08172"/>
            <path id="Trazado_690263" data-name="Trazado 690263" d="M29.627,53.426C39.405,47.913,48.76,43.2,57.486,37.4A116.191,116.191,0,0,0,81.578,16.842c-1.031,5.611-4.1,10.6-7.6,15.063A55.04,55.04,0,0,1,61.371,43.3a62.185,62.185,0,0,1-15.259,7.228,57.636,57.636,0,0,1-16.485,2.9" transform="translate(291.903 165.937)" fill="#e08172"/>
            <path id="Trazado_690264" data-name="Trazado 690264" d="M24.8,37.695c5.676-7.727,13.284-13.37,21.239-18.07,8.1-4.493,16.68-8.215,26.187-9.485-7.174,6.305-14.868,11.015-22.671,15.617-3.983,2.16-7.868,4.439-12.025,6.349A121.133,121.133,0,0,1,24.8,37.695" transform="translate(244.334 99.905)" fill="#e08172"/>
            <path id="Trazado_690265" data-name="Trazado 690265" d="M9.94,69.9c5.708-3.245,11.363-5.915,16.485-9.442a107.848,107.848,0,0,0,14.51-11.211c9.094-8.15,16.572-17.885,23.214-29.031-.543,6.566-2.974,12.839-6.132,18.645A58.694,58.694,0,0,1,45.7,54.475C35.823,63.428,22.963,69.191,9.94,69.9" transform="translate(97.935 199.15)" fill="#e08172"/>
            <path id="Trazado_690266" data-name="Trazado 690266" d="M19.6,86.8c4.015-4.895,8.237-9.181,11.97-13.935,3.766-4.677,7.488-9.322,10.885-14.228,7.065-9.648,13.2-19.806,19.6-30.561a59.321,59.321,0,0,1-4.7,18.2A78.023,78.023,0,0,1,48.2,62.764C40.845,72.954,31.111,81.745,19.6,86.8" transform="translate(193.071 276.651)" fill="#e08172"/>
            <path id="Trazado_690267" data-name="Trazado 690267" d="M29.627,84.531c1.519-4.677,3.527-8.856,5.285-13.153L40.4,58.767c3.8-8.335,7.347-16.648,11.808-25.276a45.29,45.29,0,0,1-.944,14.434,65.245,65.245,0,0,1-4.406,13.718c-3.994,8.7-9.5,16.908-17.234,22.888" transform="translate(291.903 329.973)" fill="#e08172"/>
            <path id="Trazado_690268" data-name="Trazado 690268" d="M20.885,100.488C20,89.527,23.534,78.295,29.7,69.07A53.66,53.66,0,0,1,40.865,56.807a42.316,42.316,0,0,1,14.347-8.042c-7.423,8.02-14.054,15.693-19.643,24.245a133.6,133.6,0,0,0-7.846,13.132c-2.529,4.536-4.363,9.388-6.837,14.347" transform="translate(204.436 480.462)" fill="#e08172"/>
            <path id="Trazado_690269" data-name="Trazado 690269" d="M33.592,105.681c3.028-4.276,6.284-7.944,9.105-11.949,2.854-3.95,5.589-7.89,8.1-11.97A205.816,205.816,0,0,0,64.446,55.716a38.615,38.615,0,0,1-1.389,15.465A51.789,51.789,0,0,1,56.795,85.5c-5.6,8.8-13.566,16.29-23.2,20.186" transform="translate(330.968 548.947)" fill="#e08172"/>
            <path id="Trazado_690270" data-name="Trazado 690270" d="M26.672,112.736c3.657-4.048,7.239-7.64,10.408-11.634,3.082-4.048,6.273-7.912,9.073-12.144,5.85-8.291,11.07-16.973,17.1-25.916a52.394,52.394,0,0,1-3.733,15.682,68.263,68.263,0,0,1-7.575,14.282c-6.219,8.758-14.8,16.594-25.276,19.73" transform="translate(262.788 621.127)" fill="#e08172"/>
            <path id="Trazado_690271" data-name="Trazado 690271" d="M17.769,112.074c-.695-10.516,2.464-20.739,6.62-30.062,4.45-9.236,9.974-18.026,17.777-25.048-3.1,9.974-7.26,18.96-11.363,28.011-4.276,9.008-8.335,17.787-13.034,27.1" transform="translate(174.126 561.253)" fill="#e08172"/>
            <path id="Trazado_690272" data-name="Trazado 690272" d="M46.422,123.495l19.546-9.984c6.349-3.484,12.8-6.7,19.057-10.288,12.708-6.881,25.124-14.2,38.3-21.054a106.77,106.77,0,0,1-16.3,15.1,143.979,143.979,0,0,1-18.59,12.155c-13,7.033-27.164,12.535-42.01,14.076" transform="translate(457.377 809.568)" fill="#e08172"/>
            <path id="Trazado_690273" data-name="Trazado 690273" d="M178.934,69.587c-4.981,11.352-13.164,21.173-22.1,29.769a183.1,183.1,0,0,1-29.562,22.639A227.474,227.474,0,0,1,59,150.222c22.2-10.69,44-21.358,64.529-34.229,20.435-12.882,40.361-26.9,55.4-46.406" transform="translate(581.323 685.612)" fill="#e08172"/>
          </g>
        </g>
      </g>
    </g>
  </g>
</svg>
