<svg xmlns="http://www.w3.org/2000/svg" xmlns:xlink="http://www.w3.org/1999/xlink" width="295" height="154" viewBox="0 0 295 154">
  <defs>
    <clipPath id="clip-path">
      <rect id="Rectángulo_33768" data-name="Rectángulo 33768" width="175.044" height="137.289" fill="none" stroke="#707070" stroke-width="1"/>
    </clipPath>
    <clipPath id="clip-path-2">
      <rect id="Rectángulo_33845" data-name="Rectángulo 33845" width="175.044" height="120.05" fill="none"/>
    </clipPath>
    <clipPath id="clip-path-3">
      <rect id="Rectángulo_33841" data-name="Rectángulo 33841" width="151.059" height="123.561" fill="none"/>
    </clipPath>
    <clipPath id="clip-path-4">
      <rect id="Rectángulo_33768-2" data-name="Rectángulo 33768" width="133.181" height="104.456" fill="none" stroke="#707070" stroke-width="1"/>
    </clipPath>
    <clipPath id="clip-path-5">
      <rect id="Rectángulo_33845-2" data-name="Rectángulo 33845" width="133.181" height="91.339" fill="none"/>
    </clipPath>
    <clipPath id="clip-path-6">
      <rect id="Rectángulo_33841-2" data-name="Rectángulo 33841" width="114.932" height="94.011" fill="none"/>
    </clipPath>
    <clipPath id="clip-path-7">
      <rect id="Rectángulo_345538" data-name="Rectángulo 345538" width="217.351" height="131.206" fill="none"/>
    </clipPath>
    <clipPath id="clip-path-9">
      <rect id="Rectángulo_345445" data-name="Rectángulo 345445" width="12.005" height="25.481" fill="none"/>
    </clipPath>
    <clipPath id="clip-path-11">
      <rect id="Rectángulo_345449" data-name="Rectángulo 345449" width="12.006" height="25.481" fill="none"/>
    </clipPath>
    <clipPath id="clip-path-13">
      <rect id="Rectángulo_345455" data-name="Rectángulo 345455" width="29.014" height="20.237" fill="none"/>
    </clipPath>
    <clipPath id="clip-path-18">
      <path id="Trazado_705485" data-name="Trazado 705485" d="M213.988,163.029c-.948.189.114,1.1-.189.986s-3.072-.38-4.475.986-2.465,3.3-2.124,5.119a6.332,6.332,0,0,0,2.692,3.83,5.216,5.216,0,0,1,2.427,2.579,5.332,5.332,0,0,1-.076,3.223l2.313,1.9a18.16,18.16,0,0,1,.038-2.844c.152-.986,1.668-1.82,2.465-3.375a6.3,6.3,0,0,0,.569-3.3s.8-.265.872-.493-.227-.417-.569-1.138-1.9-4.4-1.9-4.4a2.939,2.939,0,0,0,.152-1.858c-.177-.463-.354-.245-.478-.027-.089.156-.151.313-.167.218-.035-.213-.535-1.421-1.375-1.421a.918.918,0,0,0-.179.018" transform="translate(-207.136 -163.011)" fill="none"/>
    </clipPath>
    <clipPath id="clip-path-19">
      <rect id="Rectángulo_345532" data-name="Rectángulo 345532" width="7.087" height="16.429" fill="#f5b3bf"/>
    </clipPath>
    <clipPath id="clip-path-21">
      <path id="Trazado_705511" data-name="Trazado 705511" d="M210.094,212.818a106.872,106.872,0,0,0,1.138,14.827s.569.91,4.285,1.061a18.215,18.215,0,0,0,6.863-1.137,9.192,9.192,0,0,1-.834-2.2c-.38-1.441-.872-8.418-1.479-11.111a27.79,27.79,0,0,0-2.92-7.774,13.641,13.641,0,0,0-3.943-3.678s-3,3.451-3.11,10.011" transform="translate(-210.086 -202.807)" fill="#fbe6e9"/>
    </clipPath>
    <clipPath id="clip-path-22">
      <rect id="Rectángulo_345534" data-name="Rectángulo 345534" width="7.586" height="23.858" fill="#f5b3bf"/>
    </clipPath>
    <clipPath id="clip-path-24">
      <path id="Trazado_705527" data-name="Trazado 705527" d="M214.249,220.444c.341,2.769,3.11,12.1,4.1,13.235s10.579-5.233,10.579-5.233l-1.175-3.641s-6.485,2.541-7.015,2.655-2.048-8.153-2.579-9.177l-3.261-.872s-.986.265-.645,3.033" transform="translate(-214.177 -217.411)" fill="#f5b3bf"/>
    </clipPath>
    <clipPath id="clip-path-25">
      <rect id="Rectángulo_345536" data-name="Rectángulo 345536" width="14.746" height="15.624" fill="#f5b3bf"/>
    </clipPath>
  </defs>
  <g id="Grupo_1003611" data-name="Grupo 1003611" transform="translate(-180 -6426)">
    <rect id="portrait-woman-teaching-sign-language" width="295" height="154" rx="9" transform="translate(180 6426)" fill="#eeedeb"/>
    <g id="Grupo_951800" data-name="Grupo 951800" transform="translate(287.904 6426.036)">
      <g id="Grupo_951798" data-name="Grupo 951798" transform="translate(0 13.938)">
        <g id="Enmascarar_grupo_80327" data-name="Enmascarar grupo 80327" clip-path="url(#clip-path-2)">
          <path id="Trazado_113636" data-name="Trazado 113636" d="M0,201.59a52.572,52.572,0,1,1,52.572,52.572A52.572,52.572,0,0,1,0,201.59" transform="translate(69.9 -149.018)" fill="#4db1f0"/>
          <path id="Sustracción_2" data-name="Sustracción 2" d="M68.676,38.094A30.582,30.582,0,1,1,38.094,7.511,30.582,30.582,0,0,1,68.676,38.094" transform="translate(76.188 76.188) rotate(180)" fill="#ffa031" stroke="rgba(0,0,0,0)" stroke-miterlimit="10" stroke-width="1"/>
          <path id="Trazado_113639" data-name="Trazado 113639" d="M551.265,652.053a18.589,18.589,0,1,1,18.589,18.589,18.589,18.589,0,0,1-18.589-18.589" transform="translate(-468.544 -613.959)" fill="#fff"/>
          <path id="Trazado_113640" data-name="Trazado 113640" d="M1466.924,262.817a1.175,1.175,0,1,1,1.175,1.175,1.175,1.175,0,0,1-1.175-1.175" transform="translate(-1440.97 -170.114)" fill="#f9e8dc"/>
          <path id="Trazado_113641" data-name="Trazado 113641" d="M1518.6,262.817a1.175,1.175,0,1,1,1.175,1.175,1.175,1.175,0,0,1-1.175-1.175" transform="translate(-1497.814 -170.114)" fill="#f9e8dc"/>
          <path id="Trazado_113642" data-name="Trazado 113642" d="M1570.274,262.817a1.175,1.175,0,1,1,1.175,1.175,1.175,1.175,0,0,1-1.175-1.175" transform="translate(-1554.659 -170.114)" fill="#f9e8dc"/>
          <path id="Trazado_113643" data-name="Trazado 113643" d="M1621.949,262.817a1.175,1.175,0,1,1,1.175,1.175,1.175,1.175,0,0,1-1.175-1.175" transform="translate(-1611.503 -170.114)" fill="#f9e8dc"/>
          <path id="Trazado_113644" data-name="Trazado 113644" d="M1673.624,262.817a1.175,1.175,0,1,1,1.175,1.175,1.175,1.175,0,0,1-1.175-1.175" transform="translate(-1668.347 -170.114)" fill="#f9e8dc"/>
          <path id="Trazado_113645" data-name="Trazado 113645" d="M1466.924,312.143a1.175,1.175,0,1,1,1.175,1.175,1.175,1.175,0,0,1-1.175-1.175" transform="translate(-1440.97 -224.375)" fill="#f9e8dc"/>
          <path id="Trazado_113646" data-name="Trazado 113646" d="M1518.6,312.143a1.175,1.175,0,1,1,1.175,1.175,1.175,1.175,0,0,1-1.175-1.175" transform="translate(-1497.814 -224.375)" fill="#f9e8dc"/>
          <path id="Trazado_113647" data-name="Trazado 113647" d="M1570.274,312.143a1.175,1.175,0,1,1,1.175,1.175,1.175,1.175,0,0,1-1.175-1.175" transform="translate(-1554.659 -224.375)" fill="#f9e8dc"/>
          <path id="Trazado_113648" data-name="Trazado 113648" d="M1621.949,312.143a1.175,1.175,0,1,1,1.175,1.175,1.175,1.175,0,0,1-1.175-1.175" transform="translate(-1611.503 -224.375)" fill="#f9e8dc"/>
          <path id="Trazado_113649" data-name="Trazado 113649" d="M1673.624,312.143a1.175,1.175,0,1,1,1.175,1.175,1.175,1.175,0,0,1-1.175-1.175" transform="translate(-1668.347 -224.375)" fill="#f9e8dc"/>
          <path id="Trazado_113650" data-name="Trazado 113650" d="M1466.924,361.469a1.175,1.175,0,1,1,1.175,1.175,1.175,1.175,0,0,1-1.175-1.175" transform="translate(-1440.97 -278.635)" fill="#f9e8dc"/>
          <path id="Trazado_113651" data-name="Trazado 113651" d="M1518.6,361.469a1.175,1.175,0,1,1,1.175,1.175,1.175,1.175,0,0,1-1.175-1.175" transform="translate(-1497.814 -278.635)" fill="#f9e8dc"/>
          <path id="Trazado_113652" data-name="Trazado 113652" d="M1570.274,361.469a1.175,1.175,0,1,1,1.175,1.175,1.175,1.175,0,0,1-1.175-1.175" transform="translate(-1554.659 -278.635)" fill="#f9e8dc"/>
          <path id="Trazado_113653" data-name="Trazado 113653" d="M1621.949,361.469a1.175,1.175,0,1,1,1.175,1.175,1.175,1.175,0,0,1-1.175-1.175" transform="translate(-1611.503 -278.635)" fill="#f9e8dc"/>
          <path id="Trazado_113654" data-name="Trazado 113654" d="M1673.624,361.469a1.175,1.175,0,1,1,1.175,1.175,1.175,1.175,0,0,1-1.175-1.175" transform="translate(-1668.347 -278.635)" fill="#f9e8dc"/>
          <path id="Trazado_113655" data-name="Trazado 113655" d="M1466.924,410.8a1.175,1.175,0,1,1,1.175,1.175,1.175,1.175,0,0,1-1.175-1.175" transform="translate(-1440.97 -332.896)" fill="#f9e8dc"/>
          <path id="Trazado_113656" data-name="Trazado 113656" d="M1518.6,410.8a1.175,1.175,0,1,1,1.175,1.175,1.175,1.175,0,0,1-1.175-1.175" transform="translate(-1497.814 -332.896)" fill="#f9e8dc"/>
          <path id="Trazado_113657" data-name="Trazado 113657" d="M1570.274,410.8a1.175,1.175,0,1,1,1.175,1.175,1.175,1.175,0,0,1-1.175-1.175" transform="translate(-1554.659 -332.896)" fill="#f9e8dc"/>
          <path id="Trazado_113658" data-name="Trazado 113658" d="M1621.949,410.8a1.175,1.175,0,1,1,1.175,1.175,1.175,1.175,0,0,1-1.175-1.175" transform="translate(-1611.503 -332.896)" fill="#f9e8dc"/>
          <path id="Trazado_113659" data-name="Trazado 113659" d="M1673.624,410.8a1.175,1.175,0,1,1,1.175,1.175,1.175,1.175,0,0,1-1.175-1.175" transform="translate(-1668.347 -332.896)" fill="#f9e8dc"/>
          <path id="Trazado_113660" data-name="Trazado 113660" d="M1466.924,460.122a1.175,1.175,0,1,1,1.175,1.175,1.175,1.175,0,0,1-1.175-1.175" transform="translate(-1440.97 -387.156)" fill="#f9e8dc"/>
          <path id="Trazado_113661" data-name="Trazado 113661" d="M1518.6,460.122a1.175,1.175,0,1,1,1.175,1.175,1.175,1.175,0,0,1-1.175-1.175" transform="translate(-1497.814 -387.156)" fill="#f9e8dc"/>
          <path id="Trazado_113662" data-name="Trazado 113662" d="M1570.274,460.122a1.175,1.175,0,1,1,1.175,1.175,1.175,1.175,0,0,1-1.175-1.175" transform="translate(-1554.659 -387.156)" fill="#f9e8dc"/>
          <path id="Trazado_113663" data-name="Trazado 113663" d="M1621.949,460.122a1.175,1.175,0,1,1,1.175,1.175,1.175,1.175,0,0,1-1.175-1.175" transform="translate(-1611.503 -387.156)" fill="#f9e8dc"/>
          <path id="Trazado_113664" data-name="Trazado 113664" d="M1673.624,460.122a1.175,1.175,0,1,1,1.175,1.175,1.175,1.175,0,0,1-1.175-1.175" transform="translate(-1668.347 -387.156)" fill="#f9e8dc"/>
          <path id="Trazado_113665" data-name="Trazado 113665" d="M123.476,379.3a1.175,1.175,0,1,1,1.175,1.175,1.175,1.175,0,0,1-1.175-1.175" transform="translate(36.867 -298.253)" fill="#fff"/>
          <path id="Trazado_113666" data-name="Trazado 113666" d="M175.151,379.3a1.175,1.175,0,1,1,1.175,1.175,1.175,1.175,0,0,1-1.175-1.175" transform="translate(-19.978 -298.253)" fill="#fff"/>
          <path id="Trazado_113667" data-name="Trazado 113667" d="M226.826,379.3A1.175,1.175,0,1,1,228,380.478a1.175,1.175,0,0,1-1.175-1.175" transform="translate(-76.822 -298.253)" fill="#fff"/>
          <path id="Trazado_113668" data-name="Trazado 113668" d="M278.5,379.3a1.175,1.175,0,1,1,1.175,1.175A1.175,1.175,0,0,1,278.5,379.3" transform="translate(-133.666 -298.253)" fill="#fff"/>
          <path id="Trazado_113669" data-name="Trazado 113669" d="M330.176,379.3a1.175,1.175,0,1,1,1.175,1.175,1.175,1.175,0,0,1-1.175-1.175" transform="translate(-190.51 -298.253)" fill="#fff"/>
          <path id="Trazado_113670" data-name="Trazado 113670" d="M123.476,428.629a1.175,1.175,0,1,1,1.175,1.175,1.175,1.175,0,0,1-1.175-1.175" transform="translate(36.867 -352.513)" fill="#fff"/>
          <path id="Trazado_113671" data-name="Trazado 113671" d="M175.151,428.629a1.175,1.175,0,1,1,1.175,1.175,1.175,1.175,0,0,1-1.175-1.175" transform="translate(-19.978 -352.513)" fill="#fff"/>
          <path id="Trazado_113672" data-name="Trazado 113672" d="M226.826,428.629A1.175,1.175,0,1,1,228,429.8a1.175,1.175,0,0,1-1.175-1.175" transform="translate(-76.822 -352.513)" fill="#fff"/>
          <path id="Trazado_113673" data-name="Trazado 113673" d="M278.5,428.629a1.175,1.175,0,1,1,1.175,1.175,1.175,1.175,0,0,1-1.175-1.175" transform="translate(-133.666 -352.513)" fill="#fff"/>
          <path id="Trazado_113674" data-name="Trazado 113674" d="M330.176,428.629a1.175,1.175,0,1,1,1.175,1.175,1.175,1.175,0,0,1-1.175-1.175" transform="translate(-190.51 -352.513)" fill="#fff"/>
          <path id="Trazado_113675" data-name="Trazado 113675" d="M123.476,477.956a1.175,1.175,0,1,1,1.175,1.175,1.175,1.175,0,0,1-1.175-1.175" transform="translate(36.867 -406.774)" fill="#fff"/>
          <path id="Trazado_113676" data-name="Trazado 113676" d="M175.151,477.956a1.175,1.175,0,1,1,1.175,1.175,1.175,1.175,0,0,1-1.175-1.175" transform="translate(-19.978 -406.774)" fill="#fff"/>
          <path id="Trazado_113677" data-name="Trazado 113677" d="M226.826,477.956A1.175,1.175,0,1,1,228,479.131a1.175,1.175,0,0,1-1.175-1.175" transform="translate(-76.822 -406.774)" fill="#fff"/>
          <path id="Trazado_113678" data-name="Trazado 113678" d="M278.5,477.956a1.175,1.175,0,1,1,1.175,1.175,1.175,1.175,0,0,1-1.175-1.175" transform="translate(-133.666 -406.774)" fill="#fff"/>
          <path id="Trazado_113679" data-name="Trazado 113679" d="M330.176,477.956a1.175,1.175,0,1,1,1.175,1.175,1.175,1.175,0,0,1-1.175-1.175" transform="translate(-190.51 -406.774)" fill="#fff"/>
          <path id="Trazado_113680" data-name="Trazado 113680" d="M123.476,527.282a1.175,1.175,0,1,1,1.175,1.175,1.175,1.175,0,0,1-1.175-1.175" transform="translate(36.867 -461.034)" fill="#fff"/>
          <path id="Trazado_113681" data-name="Trazado 113681" d="M175.151,527.282a1.175,1.175,0,1,1,1.175,1.175,1.175,1.175,0,0,1-1.175-1.175" transform="translate(-19.978 -461.034)" fill="#fff"/>
          <path id="Trazado_113682" data-name="Trazado 113682" d="M226.826,527.282A1.175,1.175,0,1,1,228,528.457a1.175,1.175,0,0,1-1.175-1.175" transform="translate(-76.822 -461.034)" fill="#fff"/>
          <path id="Trazado_113683" data-name="Trazado 113683" d="M278.5,527.282a1.175,1.175,0,1,1,1.175,1.175,1.175,1.175,0,0,1-1.175-1.175" transform="translate(-133.666 -461.034)" fill="#fff"/>
          <path id="Trazado_113684" data-name="Trazado 113684" d="M330.176,527.282a1.175,1.175,0,1,1,1.175,1.175,1.175,1.175,0,0,1-1.175-1.175" transform="translate(-190.51 -461.034)" fill="#fff"/>
          <path id="Trazado_113685" data-name="Trazado 113685" d="M123.476,576.608a1.175,1.175,0,1,1,1.175,1.175,1.175,1.175,0,0,1-1.175-1.175" transform="translate(36.867 -515.295)" fill="#fff"/>
          <path id="Trazado_113686" data-name="Trazado 113686" d="M175.151,576.608a1.175,1.175,0,1,1,1.175,1.175,1.175,1.175,0,0,1-1.175-1.175" transform="translate(-19.978 -515.295)" fill="#fff"/>
          <path id="Trazado_113687" data-name="Trazado 113687" d="M226.826,576.608A1.175,1.175,0,1,1,228,577.783a1.175,1.175,0,0,1-1.175-1.175" transform="translate(-76.822 -515.295)" fill="#fff"/>
          <path id="Trazado_113688" data-name="Trazado 113688" d="M278.5,576.608a1.175,1.175,0,1,1,1.175,1.175,1.175,1.175,0,0,1-1.175-1.175" transform="translate(-133.666 -515.295)" fill="#fff"/>
          <path id="Trazado_113689" data-name="Trazado 113689" d="M330.176,576.608a1.175,1.175,0,1,1,1.175,1.175,1.175,1.175,0,0,1-1.175-1.175" transform="translate(-190.51 -515.295)" fill="#fff"/>
          <rect id="Rectángulo_33843" data-name="Rectángulo 33843" width="20.638" height="4.828" transform="translate(67.854 95.91)" fill="#f9e8dc"/>
          <rect id="Rectángulo_33844" data-name="Rectángulo 33844" width="20.852" height="8.869" transform="translate(144.509 104.625)" fill="#f9e8dc"/>
          <path id="Trazado_113690" data-name="Trazado 113690" d="M188.582,9.423H174.873a2.359,2.359,0,0,1-2.359-2.359v-4.7A2.359,2.359,0,0,1,174.873,0h13.709a2.359,2.359,0,0,1,2.359,2.359v4.7a2.359,2.359,0,0,1-2.359,2.359" transform="translate(-33.155 110.627)" fill="#eb9ba8"/>
          <path id="Trazado_113691" data-name="Trazado 113691" d="M205.673,36.781a1.146,1.146,0,1,1,1.146,1.146,1.146,1.146,0,0,1-1.146-1.146" transform="translate(-53.495 78.558)" fill="#fff"/>
          <path id="Trazado_113692" data-name="Trazado 113692" d="M253.165,36.781a1.146,1.146,0,1,1,1.146,1.146,1.146,1.146,0,0,1-1.146-1.146" transform="translate(-105.738 78.558)" fill="#fff"/>
          <path id="Trazado_113693" data-name="Trazado 113693" d="M300.657,36.781a1.146,1.146,0,1,1,1.146,1.146,1.146,1.146,0,0,1-1.146-1.146" transform="translate(-157.981 78.558)" fill="#fff"/>
        </g>
      </g>
      <g id="Grupo_951799" data-name="Grupo 951799" transform="translate(5.627 0)" opacity="0.251">
        <g id="Grupo_80323" data-name="Grupo 80323" clip-path="url(#clip-path-3)">
          <path id="Trazado_113615" data-name="Trazado 113615" d="M54.534,1.938c1.427.108,2.883.17,4.374.159C66.8,2.039,74.513-.084,82.451,0c16.819.174,34.129,1.917,48.664,12.689,32.2,23.866,21.648,74.988-5.049,95.976-14.186,11.152-31.855,14.562-48.783,14.877-21.792.406-49.743-6.487-65.357-24.832C1.048,85.927-1.657,56.148.886,39.275,2.91,25.844,10.507,13.178,20.1,5.806,32.071-3.388,42.218,1,54.534,1.938" transform="translate(0 12.004)" fill="#f1c6bd"/>
        </g>
      </g>
    </g>
    <g id="Grupo_1000115" data-name="Grupo 1000115" transform="translate(319.563 6536.829) rotate(180)">
      <g id="Grupo_951798-2" data-name="Grupo 951798" transform="translate(0 10.604)">
        <g id="Grupo_80327" data-name="Grupo 80327" transform="translate(0)" clip-path="url(#clip-path-5)">
          <path id="Sustracción_2-2" data-name="Sustracción 2" d="M28.983,57.967a29.22,29.22,0,0,1-5.841-.589,28.827,28.827,0,0,1-10.364-4.361,29.063,29.063,0,0,1-10.5-12.752,28.81,28.81,0,0,1-1.689-5.44,29.268,29.268,0,0,1,0-11.682A28.829,28.829,0,0,1,4.95,12.779,29.063,29.063,0,0,1,17.7,2.278,28.835,28.835,0,0,1,23.142.589a29.267,29.267,0,0,1,11.682,0A28.829,28.829,0,0,1,45.188,4.95,29.066,29.066,0,0,1,55.689,17.7a28.822,28.822,0,0,1,1.689,5.44,29.268,29.268,0,0,1,0,11.682,28.836,28.836,0,0,1-4.361,10.364,29.071,29.071,0,0,1-12.752,10.5,28.847,28.847,0,0,1-5.441,1.689A29.221,29.221,0,0,1,28.983,57.967Zm0-52.252A23.269,23.269,0,1,0,52.251,28.984,23.295,23.295,0,0,0,28.983,5.715Z" transform="translate(57.967 57.967) rotate(180)" fill="#ffa031" stroke="rgba(0,0,0,0)" stroke-miterlimit="10" stroke-width="1"/>
          <path id="Trazado_113639-2" data-name="Trazado 113639" d="M0,14.143A14.143,14.143,0,1,1,14.143,28.287,14.143,14.143,0,0,1,0,14.143" transform="translate(62.938 14.84)" fill="#fff"/>
          <path id="Trazado_113640-2" data-name="Trazado 113640" d="M0,.894a.894.894,0,1,1,.894.894A.894.894,0,0,1,0,.894" transform="translate(19.747 69.638)" fill="#f9e8dc"/>
          <path id="Trazado_113641-2" data-name="Trazado 113641" d="M0,.894a.894.894,0,1,1,.894.894A.894.894,0,0,1,0,.894" transform="translate(15.814 69.638)" fill="#f9e8dc"/>
          <path id="Trazado_113642-2" data-name="Trazado 113642" d="M0,.894a.894.894,0,1,1,.894.894A.894.894,0,0,1,0,.894" transform="translate(11.881 69.638)" fill="#f9e8dc"/>
          <path id="Trazado_113643-2" data-name="Trazado 113643" d="M0,.894a.894.894,0,1,1,.894.894A.894.894,0,0,1,0,.894" transform="translate(7.948 69.638)" fill="#f9e8dc"/>
          <path id="Trazado_113644-2" data-name="Trazado 113644" d="M0,.894a.894.894,0,1,1,.894.894A.894.894,0,0,1,0,.894" transform="translate(4.015 69.638)" fill="#f9e8dc"/>
          <path id="Trazado_113645-2" data-name="Trazado 113645" d="M0,.894a.894.894,0,1,1,.894.894A.894.894,0,0,1,0,.894" transform="translate(19.747 65.884)" fill="#f9e8dc"/>
          <path id="Trazado_113646-2" data-name="Trazado 113646" d="M0,.894a.894.894,0,1,1,.894.894A.894.894,0,0,1,0,.894" transform="translate(15.814 65.884)" fill="#f9e8dc"/>
          <path id="Trazado_113647-2" data-name="Trazado 113647" d="M0,.894a.894.894,0,1,1,.894.894A.894.894,0,0,1,0,.894" transform="translate(11.881 65.884)" fill="#f9e8dc"/>
          <path id="Trazado_113648-2" data-name="Trazado 113648" d="M0,.894a.894.894,0,1,1,.894.894A.894.894,0,0,1,0,.894" transform="translate(7.948 65.884)" fill="#f9e8dc"/>
          <path id="Trazado_113649-2" data-name="Trazado 113649" d="M0,.894a.894.894,0,1,1,.894.894A.894.894,0,0,1,0,.894" transform="translate(4.015 65.884)" fill="#f9e8dc"/>
          <path id="Trazado_113650-2" data-name="Trazado 113650" d="M0,.894a.894.894,0,1,1,.894.894A.894.894,0,0,1,0,.894" transform="translate(19.747 62.13)" fill="#f9e8dc"/>
          <path id="Trazado_113651-2" data-name="Trazado 113651" d="M0,.894a.894.894,0,1,1,.894.894A.894.894,0,0,1,0,.894" transform="translate(15.814 62.13)" fill="#f9e8dc"/>
          <path id="Trazado_113652-2" data-name="Trazado 113652" d="M0,.894a.894.894,0,1,1,.894.894A.894.894,0,0,1,0,.894" transform="translate(11.881 62.13)" fill="#f9e8dc"/>
          <path id="Trazado_113653-2" data-name="Trazado 113653" d="M0,.894a.894.894,0,1,1,.894.894A.894.894,0,0,1,0,.894" transform="translate(7.948 62.13)" fill="#f9e8dc"/>
          <path id="Trazado_113654-2" data-name="Trazado 113654" d="M0,.894a.894.894,0,1,1,.894.894A.894.894,0,0,1,0,.894" transform="translate(4.015 62.13)" fill="#f9e8dc"/>
          <path id="Trazado_113655-2" data-name="Trazado 113655" d="M0,.894a.894.894,0,1,1,.894.894A.894.894,0,0,1,0,.894" transform="translate(19.747 58.376)" fill="#f9e8dc"/>
          <path id="Trazado_113656-2" data-name="Trazado 113656" d="M0,.894a.894.894,0,1,1,.894.894A.894.894,0,0,1,0,.894" transform="translate(15.814 58.376)" fill="#f9e8dc"/>
          <path id="Trazado_113657-2" data-name="Trazado 113657" d="M0,.894a.894.894,0,1,1,.894.894A.894.894,0,0,1,0,.894" transform="translate(11.881 58.376)" fill="#f9e8dc"/>
          <path id="Trazado_113658-2" data-name="Trazado 113658" d="M0,.894a.894.894,0,1,1,.894.894A.894.894,0,0,1,0,.894" transform="translate(7.948 58.376)" fill="#f9e8dc"/>
          <path id="Trazado_113659-2" data-name="Trazado 113659" d="M0,.894a.894.894,0,1,1,.894.894A.894.894,0,0,1,0,.894" transform="translate(4.015 58.376)" fill="#f9e8dc"/>
          <path id="Trazado_113660-2" data-name="Trazado 113660" d="M0,.894a.894.894,0,1,1,.894.894A.894.894,0,0,1,0,.894" transform="translate(19.747 54.622)" fill="#f9e8dc"/>
          <path id="Trazado_113661-2" data-name="Trazado 113661" d="M0,.894a.894.894,0,1,1,.894.894A.894.894,0,0,1,0,.894" transform="translate(15.814 54.622)" fill="#f9e8dc"/>
          <path id="Trazado_113662-2" data-name="Trazado 113662" d="M0,.894a.894.894,0,1,1,.894.894A.894.894,0,0,1,0,.894" transform="translate(11.881 54.622)" fill="#f9e8dc"/>
          <path id="Trazado_113663-2" data-name="Trazado 113663" d="M0,.894a.894.894,0,1,1,.894.894A.894.894,0,0,1,0,.894" transform="translate(7.948 54.622)" fill="#f9e8dc"/>
          <path id="Trazado_113664-2" data-name="Trazado 113664" d="M0,.894a.894.894,0,1,1,.894.894A.894.894,0,0,1,0,.894" transform="translate(4.015 54.622)" fill="#f9e8dc"/>
          <path id="Trazado_113665-2" data-name="Trazado 113665" d="M0,.894a.894.894,0,1,1,.894.894A.894.894,0,0,1,0,.894" transform="translate(121.995 60.773)" fill="#fff"/>
          <path id="Trazado_113666-2" data-name="Trazado 113666" d="M0,.894a.894.894,0,1,1,.894.894A.894.894,0,0,1,0,.894" transform="translate(118.062 60.773)" fill="#fff"/>
          <path id="Trazado_113667-2" data-name="Trazado 113667" d="M0,.894a.894.894,0,1,1,.894.894A.894.894,0,0,1,0,.894" transform="translate(114.13 60.773)" fill="#fff"/>
          <path id="Trazado_113668-2" data-name="Trazado 113668" d="M0,.894a.894.894,0,1,1,.894.894A.894.894,0,0,1,0,.894" transform="translate(110.197 60.773)" fill="#fff"/>
          <path id="Trazado_113669-2" data-name="Trazado 113669" d="M0,.894a.894.894,0,1,1,.894.894A.894.894,0,0,1,0,.894" transform="translate(106.264 60.773)" fill="#fff"/>
          <path id="Trazado_113670-2" data-name="Trazado 113670" d="M0,.894a.894.894,0,1,1,.894.894A.894.894,0,0,1,0,.894" transform="translate(121.995 57.019)" fill="#fff"/>
          <path id="Trazado_113671-2" data-name="Trazado 113671" d="M0,.894a.894.894,0,1,1,.894.894A.894.894,0,0,1,0,.894" transform="translate(118.062 57.019)" fill="#fff"/>
          <path id="Trazado_113672-2" data-name="Trazado 113672" d="M0,.894a.894.894,0,1,1,.894.894A.894.894,0,0,1,0,.894" transform="translate(114.13 57.019)" fill="#fff"/>
          <path id="Trazado_113673-2" data-name="Trazado 113673" d="M0,.894a.894.894,0,1,1,.894.894A.894.894,0,0,1,0,.894" transform="translate(110.197 57.019)" fill="#fff"/>
          <path id="Trazado_113674-2" data-name="Trazado 113674" d="M0,.894a.894.894,0,1,1,.894.894A.894.894,0,0,1,0,.894" transform="translate(106.264 57.019)" fill="#fff"/>
          <path id="Trazado_113675-2" data-name="Trazado 113675" d="M0,.894a.894.894,0,1,1,.894.894A.894.894,0,0,1,0,.894" transform="translate(121.995 53.264)" fill="#fff"/>
          <path id="Trazado_113676-2" data-name="Trazado 113676" d="M0,.894a.894.894,0,1,1,.894.894A.894.894,0,0,1,0,.894" transform="translate(118.062 53.264)" fill="#fff"/>
          <path id="Trazado_113677-2" data-name="Trazado 113677" d="M0,.894a.894.894,0,1,1,.894.894A.894.894,0,0,1,0,.894" transform="translate(114.13 53.264)" fill="#fff"/>
          <path id="Trazado_113678-2" data-name="Trazado 113678" d="M0,.894a.894.894,0,1,1,.894.894A.894.894,0,0,1,0,.894" transform="translate(110.197 53.264)" fill="#fff"/>
          <path id="Trazado_113679-2" data-name="Trazado 113679" d="M0,.894a.894.894,0,1,1,.894.894A.894.894,0,0,1,0,.894" transform="translate(106.264 53.264)" fill="#fff"/>
          <path id="Trazado_113680-2" data-name="Trazado 113680" d="M0,.894a.894.894,0,1,1,.894.894A.894.894,0,0,1,0,.894" transform="translate(121.995 49.51)" fill="#fff"/>
          <path id="Trazado_113681-2" data-name="Trazado 113681" d="M0,.894a.894.894,0,1,1,.894.894A.894.894,0,0,1,0,.894" transform="translate(118.062 49.51)" fill="#fff"/>
          <path id="Trazado_113682-2" data-name="Trazado 113682" d="M0,.894a.894.894,0,1,1,.894.894A.894.894,0,0,1,0,.894" transform="translate(114.13 49.51)" fill="#fff"/>
          <path id="Trazado_113683-2" data-name="Trazado 113683" d="M0,.894a.894.894,0,1,1,.894.894A.894.894,0,0,1,0,.894" transform="translate(110.197 49.51)" fill="#fff"/>
          <path id="Trazado_113684-2" data-name="Trazado 113684" d="M0,.894a.894.894,0,1,1,.894.894A.894.894,0,0,1,0,.894" transform="translate(106.264 49.51)" fill="#fff"/>
          <path id="Trazado_113685-2" data-name="Trazado 113685" d="M0,.894a.894.894,0,1,1,.894.894A.894.894,0,0,1,0,.894" transform="translate(121.995 45.756)" fill="#fff"/>
          <path id="Trazado_113686-2" data-name="Trazado 113686" d="M0,.894a.894.894,0,1,1,.894.894A.894.894,0,0,1,0,.894" transform="translate(118.062 45.756)" fill="#fff"/>
          <path id="Trazado_113687-2" data-name="Trazado 113687" d="M0,.894a.894.894,0,1,1,.894.894A.894.894,0,0,1,0,.894" transform="translate(114.13 45.756)" fill="#fff"/>
          <path id="Trazado_113688-2" data-name="Trazado 113688" d="M0,.894a.894.894,0,1,1,.894.894A.894.894,0,0,1,0,.894" transform="translate(110.197 45.756)" fill="#fff"/>
          <path id="Trazado_113689-2" data-name="Trazado 113689" d="M0,.894a.894.894,0,1,1,.894.894A.894.894,0,0,1,0,.894" transform="translate(106.264 45.756)" fill="#fff"/>
          <rect id="Rectángulo_33843-2" data-name="Rectángulo 33843" width="15.702" height="3.673" transform="translate(51.626 72.973)" fill="#f9e8dc"/>
          <rect id="Rectángulo_33844-2" data-name="Rectángulo 33844" width="15.865" height="6.748" transform="translate(109.948 79.603)" fill="#f9e8dc"/>
          <path id="Trazado_113690-2" data-name="Trazado 113690" d="M12.225,7.168H1.8A1.8,1.8,0,0,1,0,5.373V1.795A1.8,1.8,0,0,1,1.8,0h10.43A1.8,1.8,0,0,1,14.02,1.795V5.373a1.8,1.8,0,0,1-1.795,1.8" transform="translate(106.031 84.171)" fill="#eb9ba8"/>
          <path id="Trazado_113691-2" data-name="Trazado 113691" d="M0,.872a.872.872,0,1,1,.872.872A.872.872,0,0,1,0,.872" transform="translate(115.783 86.883)" fill="#fff"/>
          <path id="Trazado_113692-2" data-name="Trazado 113692" d="M0,.872a.872.872,0,1,1,.872.872A.872.872,0,0,1,0,.872" transform="translate(112.169 86.883)" fill="#fff"/>
          <path id="Trazado_113693-2" data-name="Trazado 113693" d="M0,.872a.872.872,0,1,1,.872.872A.872.872,0,0,1,0,.872" transform="translate(108.554 86.883)" fill="#fff"/>
        </g>
      </g>
      <g id="Grupo_951799-2" data-name="Grupo 951799" transform="translate(4.282 0)" opacity="0.251">
        <g id="Grupo_80323-2" data-name="Grupo 80323" transform="translate(0)" clip-path="url(#clip-path-6)">
          <path id="Trazado_113615-2" data-name="Trazado 113615" d="M41.492,1.478c1.086.082,2.193.129,3.328.121,6-.044,11.873-1.66,17.913-1.6C75.528.134,88.7,1.46,99.758,9.656c24.5,18.158,16.47,57.054-3.841,73.023C85.124,91.164,71.68,93.758,58.8,94c-16.58.309-37.847-4.935-49.726-18.893C.8,65.38-1.26,42.723.674,29.885,2.214,19.666,7.994,10.03,15.3,4.42c9.106-7,16.826-3.653,26.2-2.942" transform="translate(0 0)" fill="#f1c6bd"/>
        </g>
      </g>
    </g>
    <g id="Grupo_1000114" data-name="Grupo 1000114" transform="translate(214.948 6442.437)">
      <g id="Grupo_1000113" data-name="Grupo 1000113" transform="translate(0)" clip-path="url(#clip-path-7)">
        <rect id="Rectángulo_345443" data-name="Rectángulo 345443" width="12.005" height="25.481" transform="translate(77.426 63.68)" fill="#c6ff00"/>
        <g id="Grupo_1000015" data-name="Grupo 1000015">
          <g id="Grupo_1000014" data-name="Grupo 1000014" clip-path="url(#clip-path-7)">
            <g id="Grupo_1000013" data-name="Grupo 1000013" transform="translate(77.426 63.68)" opacity="0.6">
              <g id="Grupo_1000012" data-name="Grupo 1000012">
                <g id="Grupo_1000011" data-name="Grupo 1000011" clip-path="url(#clip-path-9)">
                  <rect id="Rectángulo_345444" data-name="Rectángulo 345444" width="12.005" height="25.481" transform="translate(0 0)" fill="#fff"/>
                </g>
              </g>
            </g>
          </g>
        </g>
        <rect id="Rectángulo_345447" data-name="Rectángulo 345447" width="12.005" height="25.481" transform="translate(90.518 63.68)" fill="#c6ff00"/>
        <g id="Grupo_1000020" data-name="Grupo 1000020">
          <g id="Grupo_1000019" data-name="Grupo 1000019" clip-path="url(#clip-path-7)">
            <g id="Grupo_1000018" data-name="Grupo 1000018" transform="translate(90.518 63.68)" opacity="0.6">
              <g id="Grupo_1000017" data-name="Grupo 1000017">
                <g id="Grupo_1000016" data-name="Grupo 1000016" clip-path="url(#clip-path-11)">
                  <rect id="Rectángulo_345448" data-name="Rectángulo 345448" width="12.005" height="25.481" transform="translate(0 0)" fill="#fff"/>
                </g>
              </g>
            </g>
          </g>
        </g>
        <rect id="Rectángulo_345451" data-name="Rectángulo 345451" width="12.005" height="25.481" transform="translate(80.116 82.132)" fill="#fff"/>
        <rect id="Rectángulo_345452" data-name="Rectángulo 345452" width="12.005" height="25.481" transform="translate(80.116 82.132)" fill="none" stroke="#263238" stroke-linecap="round" stroke-linejoin="round" stroke-width="0.75"/>
        <rect id="Rectángulo_345453" data-name="Rectángulo 345453" width="29.014" height="20.237" transform="translate(80.297 57.763)" fill="#c6ff00"/>
        <g id="Grupo_1000025" data-name="Grupo 1000025">
          <g id="Grupo_1000024" data-name="Grupo 1000024" clip-path="url(#clip-path-7)">
            <g id="Grupo_1000023" data-name="Grupo 1000023" transform="translate(80.297 57.763)" opacity="0.6">
              <g id="Grupo_1000022" data-name="Grupo 1000022">
                <g id="Grupo_1000021" data-name="Grupo 1000021" clip-path="url(#clip-path-13)">
                  <rect id="Rectángulo_345454" data-name="Rectángulo 345454" width="29.014" height="20.237" transform="translate(0 0)" fill="#fff"/>
                </g>
              </g>
            </g>
          </g>
        </g>
        <rect id="Rectángulo_345461" data-name="Rectángulo 345461" width="71.027" height="90.096" transform="translate(26.488 26.915)" fill="#fff"/>
        <rect id="Rectángulo_345462" data-name="Rectángulo 345462" width="71.027" height="90.096" transform="translate(26.488 26.915)" fill="none" stroke="#263238" stroke-linecap="round" stroke-linejoin="round" stroke-width="0.75"/>
        <rect id="Rectángulo_345463" data-name="Rectángulo 345463" width="71.027" height="5.377" transform="translate(26.488 26.915)" fill="#263238"/>
        <rect id="Rectángulo_345464" data-name="Rectángulo 345464" width="71.027" height="5.377" transform="translate(26.488 26.915)" fill="none" stroke="#263238" stroke-linecap="round" stroke-linejoin="round" stroke-width="0.75"/>
        <rect id="Rectángulo_345465" data-name="Rectángulo 345465" width="24.942" height="46.624" transform="translate(48.649 39.673)" fill="#263238"/>
        <rect id="Rectángulo_345469" data-name="Rectángulo 345469" width="66.968" height="25.481" transform="translate(28.517 89.748)" fill="#f9dce1"/>
        <rect id="Rectángulo_345473" data-name="Rectángulo 345473" width="66.968" height="6.175" transform="translate(28.517 29.039)" fill="#ed9aa9"/>
        <rect id="Rectángulo_345477" data-name="Rectángulo 345477" width="64.822" height="2.735" transform="translate(29.459 30.239)" fill="#fff"/>
        <rect id="Rectángulo_345478" data-name="Rectángulo 345478" width="7.341" height="2.735" transform="translate(29.459 30.239)" fill="#263238"/>
        <rect id="Rectángulo_345479" data-name="Rectángulo 345479" width="7.341" height="2.735" transform="translate(29.459 30.239)" fill="none" stroke="#263238" stroke-linecap="round" stroke-linejoin="round" stroke-width="0.75"/>
        <g id="Grupo_1000053" data-name="Grupo 1000053">
          <g id="Grupo_1000116" data-name="Grupo 1000116">
            <path id="Trazado_705406" data-name="Trazado 705406" d="M197.561,102.289h17.092a.528.528,0,0,0,0-1.056H197.561a.528.528,0,0,0,0,1.056" transform="translate(-119.779 -61.541)" fill="#263238"/>
            <path id="Trazado_705407" data-name="Trazado 705407" d="M197.561,111.705h17.092a.528.528,0,0,0,0-1.056H197.561a.528.528,0,0,0,0,1.056" transform="translate(-119.779 -67.265)" fill="#263238"/>
            <path id="Trazado_705408" data-name="Trazado 705408" d="M197.561,121.12h17.092a.528.528,0,0,0,0-1.056H197.561a.528.528,0,0,0,0,1.056" transform="translate(-119.779 -72.988)" fill="#263238"/>
            <path id="Trazado_705409" data-name="Trazado 705409" d="M197.561,130.536h17.092a.528.528,0,0,0,0-1.057H197.561a.528.528,0,0,0,0,1.057" transform="translate(-119.779 -78.712)" fill="#263238"/>
            <path id="Trazado_705410" data-name="Trazado 705410" d="M197.561,139.952h17.092a.528.528,0,0,0,0-1.056H197.561a.528.528,0,0,0,0,1.056" transform="translate(-119.779 -84.437)" fill="#263238"/>
            <path id="Trazado_705411" data-name="Trazado 705411" d="M197.561,149.368h17.092a.528.528,0,0,0,0-1.056H197.561a.528.528,0,0,0,0,1.056" transform="translate(-119.779 -90.161)" fill="#263238"/>
            <path id="Trazado_705412" data-name="Trazado 705412" d="M197.561,158.784h17.092a.528.528,0,0,0,0-1.056H197.561a.528.528,0,0,0,0,1.056" transform="translate(-119.779 -95.885)" fill="#263238"/>
            <path id="Trazado_705413" data-name="Trazado 705413" d="M197.561,167.154h17.092a.528.528,0,0,0,0-1.057H197.561a.528.528,0,0,0,0,1.057" transform="translate(-119.779 -100.972)" fill="#263238"/>
            <path id="Trazado_705414" data-name="Trazado 705414" d="M197.561,176.569h17.092a.528.528,0,0,0,0-1.057H197.561a.528.528,0,0,0,0,1.057" transform="translate(-119.779 -106.696)" fill="#263238"/>
            <path id="Trazado_705415" data-name="Trazado 705415" d="M197.561,185.985h17.092a.528.528,0,0,0,0-1.056H197.561a.528.528,0,0,0,0,1.056" transform="translate(-119.779 -112.421)" fill="#263238"/>
            <path id="Trazado_705416" data-name="Trazado 705416" d="M197.561,195.4h17.092a.528.528,0,1,0,0-1.056H197.561a.528.528,0,1,0,0,1.056" transform="translate(-119.779 -118.145)" fill="#263238"/>
            <path id="Trazado_705417" data-name="Trazado 705417" d="M197.561,204.816h17.092a.528.528,0,0,0,0-1.056H197.561a.528.528,0,0,0,0,1.056" transform="translate(-119.779 -123.868)" fill="#263238"/>
            <path id="Trazado_705418" data-name="Trazado 705418" d="M197.561,214.232h17.092a.528.528,0,1,0,0-1.056H197.561a.528.528,0,1,0,0,1.056" transform="translate(-119.779 -129.592)" fill="#263238"/>
            <path id="Trazado_705419" data-name="Trazado 705419" d="M197.561,223.648h17.092a.528.528,0,0,0,0-1.056H197.561a.528.528,0,0,0,0,1.056" transform="translate(-119.779 -135.316)" fill="#263238"/>
            <path id="Trazado_705420" data-name="Trazado 705420" d="M72.236,102.289H89.328a.528.528,0,0,0,0-1.056H72.236a.528.528,0,1,0,0,1.056" transform="translate(-43.592 -61.541)" fill="#263238"/>
            <path id="Trazado_705421" data-name="Trazado 705421" d="M72.236,111.705H89.328a.528.528,0,0,0,0-1.056H72.236a.528.528,0,1,0,0,1.056" transform="translate(-43.592 -67.265)" fill="#263238"/>
            <path id="Trazado_705422" data-name="Trazado 705422" d="M72.236,121.12H89.328a.528.528,0,0,0,0-1.056H72.236a.528.528,0,1,0,0,1.056" transform="translate(-43.592 -72.988)" fill="#263238"/>
            <path id="Trazado_705423" data-name="Trazado 705423" d="M72.236,130.536H89.328a.528.528,0,0,0,0-1.057H72.236a.528.528,0,0,0,0,1.057" transform="translate(-43.592 -78.712)" fill="#263238"/>
            <path id="Trazado_705424" data-name="Trazado 705424" d="M72.236,139.952H89.328a.528.528,0,0,0,0-1.056H72.236a.528.528,0,1,0,0,1.056" transform="translate(-43.592 -84.437)" fill="#263238"/>
            <path id="Trazado_705425" data-name="Trazado 705425" d="M72.236,149.368H89.328a.528.528,0,0,0,0-1.056H72.236a.528.528,0,1,0,0,1.056" transform="translate(-43.592 -90.161)" fill="#263238"/>
            <path id="Trazado_705426" data-name="Trazado 705426" d="M72.236,158.784H89.328a.528.528,0,1,0,0-1.056H72.236a.528.528,0,1,0,0,1.056" transform="translate(-43.592 -95.885)" fill="#263238"/>
            <rect id="Rectángulo_345480" data-name="Rectángulo 345480" width="17.639" height="20.237" transform="translate(28.507 65.379)" fill="#ed9aa9"/>
          </g>
        </g>
        <g id="Grupo_1000091" data-name="Grupo 1000091">
          <g id="Grupo_1000090" data-name="Grupo 1000090" clip-path="url(#clip-path-7)">
            <path id="Trazado_705429" data-name="Trazado 705429" d="M179.789,26.225c-6.186,8.311-10.161,20.525-7.147,30.754,5.152,17.484,27.017,18.8,41.989,20.826,10.322,1.4,20.581,9.509,29.393,14.543,11.749,6.713,30.682,17.3,44.25,10.425,11.244-5.7,17.29-19.478,20.742-30.913,5.4-17.905,5.926-39.5-5.844-55.1-15.987-21.182-44.015-17.646-67.3-14.02-15.584,2.427-30.733,4.791-44.591,13.051a39.761,39.761,0,0,0-11.492,10.431" transform="translate(-104.326 0)" fill="#ed9aa9"/>
            <path id="Trazado_705431" data-name="Trazado 705431" d="M0,317.725c0,1.4,48.656,2.529,108.675,2.529s108.675-1.132,108.675-2.529S168.7,315.2,108.675,315.2,0,316.328,0,317.725" transform="translate(0 -191.612)" fill="#112e4c"/>
            <rect id="Rectángulo_345487" data-name="Rectángulo 345487" width="71.027" height="90.096" transform="translate(75.402 0.847)" fill="#fff"/>
            <rect id="Rectángulo_345488" data-name="Rectángulo 345488" width="71.027" height="90.096" transform="translate(75.402 0.847)" fill="none" stroke="#263238" stroke-linecap="round" stroke-linejoin="round" stroke-width="0.75"/>
            <rect id="Rectángulo_345489" data-name="Rectángulo 345489" width="71.027" height="5.377" transform="translate(75.402 0.847)" fill="#263238"/>
            <rect id="Rectángulo_345490" data-name="Rectángulo 345490" width="71.027" height="5.377" transform="translate(75.402 0.847)" fill="none" stroke="#263238" stroke-linecap="round" stroke-linejoin="round" stroke-width="0.75"/>
            <rect id="Rectángulo_345491" data-name="Rectángulo 345491" width="12.005" height="25.481" transform="translate(104.429 63.68)" fill="#f9dce1"/>
            <rect id="Rectángulo_345494" data-name="Rectángulo 345494" width="12.005" height="25.481" transform="translate(118.339 63.68)" fill="#f9dce1"/>
            <rect id="Rectángulo_345497" data-name="Rectángulo 345497" width="66.968" height="6.175" transform="translate(77.432 2.97)" fill="#ed9aa9"/>
            <rect id="Rectángulo_345500" data-name="Rectángulo 345500" width="64.822" height="2.735" transform="translate(78.636 4.171)" fill="#fff"/>
            <rect id="Rectángulo_345501" data-name="Rectángulo 345501" width="7.341" height="2.735" transform="translate(136.116 4.171)" fill="#263238"/>
            <rect id="Rectángulo_345502" data-name="Rectángulo 345502" width="7.341" height="2.735" transform="translate(136.116 4.171)" fill="none" stroke="#263238" stroke-linecap="round" stroke-linejoin="round" stroke-width="0.75"/>
            <path id="Trazado_705433" data-name="Trazado 705433" d="M251.378,35.8H237.65a.528.528,0,1,1,0-1.056h13.727a.528.528,0,0,1,0,1.056" transform="translate(-144.149 -21.124)" fill="#263238"/>
            <path id="Trazado_705434" data-name="Trazado 705434" d="M251.378,45.22H237.65a.528.528,0,0,1,0-1.057h13.727a.528.528,0,0,1,0,1.057" transform="translate(-144.149 -26.847)" fill="#263238"/>
            <path id="Trazado_705435" data-name="Trazado 705435" d="M251.378,54.635H237.65a.528.528,0,1,1,0-1.056h13.727a.528.528,0,0,1,0,1.056" transform="translate(-144.149 -32.571)" fill="#263238"/>
            <path id="Trazado_705436" data-name="Trazado 705436" d="M228.519,64.051H200.048a.528.528,0,0,1,0-1.056h28.471a.528.528,0,1,1,0,1.056" transform="translate(-121.291 -38.295)" fill="#263238"/>
            <path id="Trazado_705437" data-name="Trazado 705437" d="M228.519,73.467H200.048a.528.528,0,0,1,0-1.056h28.471a.528.528,0,1,1,0,1.056" transform="translate(-121.291 -44.02)" fill="#263238"/>
            <path id="Trazado_705438" data-name="Trazado 705438" d="M228.519,82.883H200.048a.528.528,0,0,1,0-1.056h28.471a.528.528,0,1,1,0,1.056" transform="translate(-121.291 -49.744)" fill="#263238"/>
            <path id="Trazado_705439" data-name="Trazado 705439" d="M228.519,92.3H200.048a.528.528,0,0,1,0-1.057h28.471a.528.528,0,0,1,0,1.057" transform="translate(-121.291 -55.467)" fill="#263238"/>
            <path id="Trazado_705440" data-name="Trazado 705440" d="M228.519,100.668H200.048a.528.528,0,0,1,0-1.057h28.471a.528.528,0,0,1,0,1.057" transform="translate(-121.291 -60.555)" fill="#263238"/>
            <path id="Trazado_705441" data-name="Trazado 705441" d="M228.519,110.084H200.048a.528.528,0,0,1,0-1.057h28.471a.528.528,0,0,1,0,1.057" transform="translate(-121.291 -66.279)" fill="#263238"/>
            <path id="Trazado_705442" data-name="Trazado 705442" d="M228.519,119.5H200.048a.528.528,0,0,1,0-1.056h28.471a.528.528,0,1,1,0,1.056" transform="translate(-121.291 -72.004)" fill="#263238"/>
            <path id="Trazado_705443" data-name="Trazado 705443" d="M228.519,128.915H200.048a.528.528,0,0,1,0-1.057h28.471a.528.528,0,0,1,0,1.057" transform="translate(-121.291 -77.726)" fill="#263238"/>
            <path id="Trazado_705444" data-name="Trazado 705444" d="M228.519,138.331H200.048a.528.528,0,0,1,0-1.057h28.471a.528.528,0,0,1,0,1.057" transform="translate(-121.291 -83.451)" fill="#263238"/>
            <path id="Trazado_705445" data-name="Trazado 705445" d="M228.519,147.747H200.048a.528.528,0,0,1,0-1.056h28.471a.528.528,0,1,1,0,1.056" transform="translate(-121.291 -89.175)" fill="#263238"/>
            <path id="Trazado_705446" data-name="Trazado 705446" d="M322.045,35.8H293.574a.528.528,0,0,1,0-1.056h28.471a.528.528,0,0,1,0,1.056" transform="translate(-178.146 -21.124)" fill="#263238"/>
            <path id="Trazado_705447" data-name="Trazado 705447" d="M322.045,45.22H293.574a.528.528,0,0,1,0-1.057h28.471a.528.528,0,0,1,0,1.057" transform="translate(-178.146 -26.847)" fill="#263238"/>
            <path id="Trazado_705448" data-name="Trazado 705448" d="M322.045,54.635H293.574a.528.528,0,0,1,0-1.056h28.471a.528.528,0,0,1,0,1.056" transform="translate(-178.146 -32.571)" fill="#263238"/>
            <path id="Trazado_705449" data-name="Trazado 705449" d="M322.045,64.051H293.574a.528.528,0,0,1,0-1.056h28.471a.528.528,0,0,1,0,1.056" transform="translate(-178.146 -38.295)" fill="#263238"/>
            <path id="Trazado_705450" data-name="Trazado 705450" d="M322.045,73.467H293.574a.528.528,0,0,1,0-1.056h28.471a.528.528,0,0,1,0,1.056" transform="translate(-178.146 -44.02)" fill="#263238"/>
            <path id="Trazado_705451" data-name="Trazado 705451" d="M322.045,82.883H293.574a.528.528,0,0,1,0-1.056h28.471a.528.528,0,0,1,0,1.056" transform="translate(-178.146 -49.744)" fill="#263238"/>
            <path id="Trazado_705452" data-name="Trazado 705452" d="M322.045,92.3H293.574a.528.528,0,0,1,0-1.057h28.471a.528.528,0,0,1,0,1.057" transform="translate(-178.146 -55.467)" fill="#263238"/>
            <path id="Trazado_705453" data-name="Trazado 705453" d="M208.959,37.043a2.518,2.518,0,0,0,.124-.763c0-.943-.957-1-1.9-1h-.236V35.06h4.105v.222c-1.068,0-1.442.679-1.789,1.692l-2.178,6.532c-.167.485-.305.846-.818.846h-.042L204.3,38.111l-1.8,5.395c-.167.485-.305.846-.819.846h-.042l-2.8-9.07h-.985V35.06h3.606v.222H200.43l2.08,7.156h.083l1.567-4.771-.735-2.385h-.985V35.06h3.606v.222H205.02l2.08,7.156h.084Z" transform="translate(-120.275 -21.313)" fill="#263238"/>
            <rect id="Rectángulo_345503" data-name="Rectángulo 345503" width="12.005" height="25.481" transform="translate(132.585 63.68)" fill="#fff"/>
            <rect id="Rectángulo_345504" data-name="Rectángulo 345504" width="12.005" height="25.481" transform="translate(132.585 63.68)" fill="none" stroke="#263238" stroke-linecap="round" stroke-linejoin="round" stroke-width="0.75"/>
            <rect id="Rectángulo_345505" data-name="Rectángulo 345505" width="29.014" height="20.237" transform="translate(115.396 39.311)" fill="#263238"/>
            <rect id="Rectángulo_345508" data-name="Rectángulo 345508" width="29.57" height="79.324" transform="translate(124.981 11.433)" fill="#df6d82"/>
            <rect id="Rectángulo_345511" data-name="Rectángulo 345511" width="71.027" height="90.096" transform="translate(127.192 8.463)" fill="#fff"/>
            <rect id="Rectángulo_345512" data-name="Rectángulo 345512" width="71.027" height="90.096" transform="translate(127.192 8.463)" fill="none" stroke="#263238" stroke-linecap="round" stroke-linejoin="round" stroke-width="0.75"/>
            <rect id="Rectángulo_345513" data-name="Rectángulo 345513" width="71.027" height="5.377" transform="translate(127.192 8.463)" fill="#263238"/>
            <rect id="Rectángulo_345514" data-name="Rectángulo 345514" width="71.027" height="5.377" transform="translate(127.192 8.463)" fill="none" stroke="#263238" stroke-linecap="round" stroke-linejoin="round" stroke-width="0.75"/>
            <rect id="Rectángulo_345515" data-name="Rectángulo 345515" width="24.942" height="46.624" transform="translate(151.116 21.221)" fill="#f5b3bf"/>
            <rect id="Rectángulo_345518" data-name="Rectángulo 345518" width="66.968" height="25.481" transform="translate(129.222 71.296)" fill="#f9dce1"/>
            <rect id="Rectángulo_345521" data-name="Rectángulo 345521" width="66.968" height="6.175" transform="translate(129.222 10.587)" fill="#ed9aa9"/>
            <rect id="Rectángulo_345524" data-name="Rectángulo 345524" width="64.822" height="2.735" transform="translate(130.425 11.787)" fill="#fff"/>
            <rect id="Rectángulo_345525" data-name="Rectángulo 345525" width="7.341" height="2.735" transform="translate(187.905 11.787)" fill="#263238"/>
            <rect id="Rectángulo_345526" data-name="Rectángulo 345526" width="7.341" height="2.735" transform="translate(187.905 11.787)" fill="none" stroke="#263238" stroke-linecap="round" stroke-linejoin="round" stroke-width="0.75"/>
            <path id="Trazado_705454" data-name="Trazado 705454" d="M347.4,55.228H330.31a.528.528,0,0,1,0-1.056H347.4a.528.528,0,0,1,0,1.056" transform="translate(-200.478 -32.932)" fill="#263238"/>
            <path id="Trazado_705455" data-name="Trazado 705455" d="M347.4,64.644H330.31a.528.528,0,0,1,0-1.056H347.4a.528.528,0,0,1,0,1.056" transform="translate(-200.478 -38.656)" fill="#263238"/>
            <path id="Trazado_705456" data-name="Trazado 705456" d="M347.4,74.06H330.31a.528.528,0,0,1,0-1.056H347.4a.528.528,0,0,1,0,1.056" transform="translate(-200.478 -44.38)" fill="#263238"/>
            <path id="Trazado_705457" data-name="Trazado 705457" d="M347.4,83.475H330.31a.528.528,0,0,1,0-1.056H347.4a.528.528,0,0,1,0,1.056" transform="translate(-200.478 -50.104)" fill="#263238"/>
            <path id="Trazado_705458" data-name="Trazado 705458" d="M347.4,92.891H330.31a.528.528,0,0,1,0-1.057H347.4a.528.528,0,0,1,0,1.057" transform="translate(-200.478 -55.827)" fill="#263238"/>
            <path id="Trazado_705459" data-name="Trazado 705459" d="M347.4,102.307H330.31a.528.528,0,0,1,0-1.056H347.4a.528.528,0,0,1,0,1.056" transform="translate(-200.478 -61.552)" fill="#263238"/>
            <path id="Trazado_705460" data-name="Trazado 705460" d="M347.4,111.723H330.31a.528.528,0,0,1,0-1.056H347.4a.528.528,0,0,1,0,1.056" transform="translate(-200.478 -67.276)" fill="#263238"/>
            <path id="Trazado_705461" data-name="Trazado 705461" d="M347.4,120.093H330.31a.528.528,0,0,1,0-1.057H347.4a.528.528,0,0,1,0,1.057" transform="translate(-200.478 -72.363)" fill="#263238"/>
            <path id="Trazado_705462" data-name="Trazado 705462" d="M347.4,129.508H330.31a.528.528,0,0,1,0-1.057H347.4a.528.528,0,0,1,0,1.057" transform="translate(-200.478 -78.087)" fill="#263238"/>
            <path id="Trazado_705463" data-name="Trazado 705463" d="M347.4,138.924H330.31a.528.528,0,0,1,0-1.056H347.4a.528.528,0,0,1,0,1.056" transform="translate(-200.478 -83.812)" fill="#263238"/>
            <path id="Trazado_705464" data-name="Trazado 705464" d="M347.4,148.34H330.31a.528.528,0,0,1,0-1.056H347.4a.528.528,0,1,1,0,1.056" transform="translate(-200.478 -89.536)" fill="#263238"/>
            <path id="Trazado_705465" data-name="Trazado 705465" d="M347.4,157.755H330.31a.528.528,0,0,1,0-1.056H347.4a.528.528,0,0,1,0,1.056" transform="translate(-200.478 -95.259)" fill="#263238"/>
            <path id="Trazado_705466" data-name="Trazado 705466" d="M347.4,167.171H330.31a.528.528,0,0,1,0-1.056H347.4a.528.528,0,0,1,0,1.056" transform="translate(-200.478 -100.983)" fill="#263238"/>
            <path id="Trazado_705467" data-name="Trazado 705467" d="M347.4,176.587H330.31a.528.528,0,0,1,0-1.057H347.4a.528.528,0,0,1,0,1.057" transform="translate(-200.478 -106.707)" fill="#263238"/>
            <path id="Trazado_705468" data-name="Trazado 705468" d="M472.727,55.228H455.635a.528.528,0,1,1,0-1.056h17.092a.528.528,0,0,1,0,1.056" transform="translate(-276.665 -32.932)" fill="#263238"/>
            <path id="Trazado_705469" data-name="Trazado 705469" d="M472.727,64.644H455.635a.528.528,0,1,1,0-1.056h17.092a.528.528,0,0,1,0,1.056" transform="translate(-276.665 -38.656)" fill="#263238"/>
            <path id="Trazado_705470" data-name="Trazado 705470" d="M472.727,74.06H455.635a.528.528,0,1,1,0-1.056h17.092a.528.528,0,0,1,0,1.056" transform="translate(-276.665 -44.38)" fill="#263238"/>
            <path id="Trazado_705471" data-name="Trazado 705471" d="M472.727,83.475H455.635a.528.528,0,1,1,0-1.056h17.092a.528.528,0,0,1,0,1.056" transform="translate(-276.665 -50.104)" fill="#263238"/>
            <path id="Trazado_705472" data-name="Trazado 705472" d="M472.727,92.891H455.635a.528.528,0,0,1,0-1.057h17.092a.528.528,0,0,1,0,1.057" transform="translate(-276.665 -55.827)" fill="#263238"/>
            <path id="Trazado_705473" data-name="Trazado 705473" d="M472.727,102.307H455.635a.528.528,0,1,1,0-1.056h17.092a.528.528,0,0,1,0,1.056" transform="translate(-276.665 -61.552)" fill="#263238"/>
            <path id="Trazado_705474" data-name="Trazado 705474" d="M472.727,111.723H455.635a.528.528,0,1,1,0-1.056h17.092a.528.528,0,0,1,0,1.056" transform="translate(-276.665 -67.276)" fill="#263238"/>
            <rect id="Rectángulo_345527" data-name="Rectángulo 345527" width="17.638" height="20.237" transform="translate(178.56 46.927)" fill="#263238"/>
            <path id="Trazado_705575" data-name="Trazado 705575" d="M1.616,0" transform="translate(197.934 79.499)" fill="none" stroke="#c6ff00" stroke-linecap="round" stroke-width="1.727"/>
            <path id="Trazado_705477" data-name="Trazado 705477" d="M222.829,323.8c0,1.459-13.9,2.642-31.045,2.642s-31.045-1.183-31.045-2.642,13.9-2.642,31.045-2.642,31.045,1.183,31.045,2.642" transform="translate(-97.716 -195.235)" fill="#253b46"/>
            <path id="Trazado_705478" data-name="Trazado 705478" d="M198.372,203.186s2.4-1.217,3.441-.174.626,12.2.939,15.745a33.624,33.624,0,0,0,1.147,6.256,25.117,25.117,0,0,1-6.048-1.981s-2.294-11.122.521-19.846" transform="translate(-119.74 -123.157)" fill="#263238"/>
            <path id="Trazado_705479" data-name="Trazado 705479" d="M198.372,203.186s2.4-1.217,3.441-.174.626,12.2.939,15.745a33.624,33.624,0,0,0,1.147,6.256,25.117,25.117,0,0,1-6.048-1.981S195.557,211.91,198.372,203.186Z" transform="translate(-119.74 -123.157)" fill="none" stroke="#263238" stroke-linecap="round" stroke-linejoin="round" stroke-width="0.75"/>
            <path id="Trazado_705480" data-name="Trazado 705480" d="M320.408,240.588a1.252,1.252,0,0,1-.553-2.374l11.339-5.1,8.8-10.123a1.251,1.251,0,1,1,1.914,1.613l-8.967,10.323a1.258,1.258,0,0,1-.4.317l-11.574,5.214a1.247,1.247,0,0,1-.551.129" transform="translate(-194.019 -135.29)" fill="#fff"/>
            <path id="Trazado_705481" data-name="Trazado 705481" d="M320.408,240.588a1.252,1.252,0,0,1-.553-2.374l11.339-5.1,8.8-10.123a1.251,1.251,0,1,1,1.914,1.613l-8.967,10.323a1.258,1.258,0,0,1-.4.317l-11.574,5.214A1.247,1.247,0,0,1,320.408,240.588Z" transform="translate(-194.019 -135.29)" fill="none" stroke="#263238" stroke-linecap="round" stroke-linejoin="round" stroke-width="0.75"/>
            <line id="Línea_673" data-name="Línea 673" y1="0.565" x2="1.242" transform="translate(134.142 100.315)" fill="none" stroke="#263238" stroke-linecap="round" stroke-linejoin="round" stroke-width="0.75"/>
            <line id="Línea_674" data-name="Línea 674" y1="2.233" x2="4.913" transform="translate(128.409 101.253)" fill="none" stroke="#263238" stroke-linecap="round" stroke-linejoin="round" stroke-width="0.75"/>
            <line id="Línea_675" data-name="Línea 675" x1="3.276" y2="3.699" transform="translate(141.937 91.015)" fill="none" stroke="#263238" stroke-linecap="round" stroke-linejoin="round" stroke-width="0.75"/>
            <line id="Línea_676" data-name="Línea 676" x1="0.74" y2="0.845" transform="translate(140.668 95.242)" fill="none" stroke="#263238" stroke-linecap="round" stroke-linejoin="round" stroke-width="0.75"/>
            <path id="Trazado_705482" data-name="Trazado 705482" d="M294,254.826a10.915,10.915,0,1,1-10.915-10.915A10.914,10.914,0,0,1,294,254.826" transform="translate(-165.456 -148.277)" fill="#ed9aa9"/>
            <ellipse id="Elipse_4895" data-name="Elipse 4895" cx="10.915" cy="10.915" rx="10.915" ry="10.915" transform="translate(106.715 95.634)" fill="none" stroke="#263238" stroke-linecap="round" stroke-linejoin="round" stroke-width="0.75"/>
            <path id="Trazado_705483" data-name="Trazado 705483" d="M216.036,166.1s1.555,3.678,1.9,4.4.645.91.569,1.137-.872.493-.872.493a6.3,6.3,0,0,1-.569,3.3c-.8,1.555-2.313,2.389-2.465,3.375a18.177,18.177,0,0,0-.038,2.844l-2.313-1.9a5.334,5.334,0,0,0,.076-3.223,5.213,5.213,0,0,0-2.427-2.578,6.332,6.332,0,0,1-2.692-3.83c-.342-1.82.72-3.754,2.124-5.119s4.171-1.1,4.475-.986-.758-.8.189-.986,1.517,1.175,1.555,1.4.341-.986.645-.19a2.936,2.936,0,0,1-.152,1.858" transform="translate(-125.921 -99.097)" fill="#fff"/>
            <g id="Grupo_1000120" data-name="Grupo 1000120">
              <path id="Trazado_705427" data-name="Trazado 705427" d="M17.35,182.883c.107-3.986-.2-10.785,3.294-13.583,3.07-2.458,5.457.878,6.317,3.567,2.089,6.529,1.868,31.1,1.326,36.046,0,0,.531-4.958,4.427-2.834s-1.948,13.281-1.948,13.281,4.6-3.365,6.729-.531-2.656,6.021-2.656,6.021,4.427-1.239,4.427,0-1.417,2.3-5.49,2.834H11.819s-3.542-1.948-2.834-4.073,4.427-.885,4.427-.885S7.746,215.82,8.1,212.81s7.615.531,7.615.531-5.667-14.344-4.6-20.719c.837-5.021,4.735-1.584,6.857.345a57.841,57.841,0,0,1-.618-10.083" transform="translate(-4.915 -102.398)" fill="#112e4c"/>
              <line id="Línea_661" data-name="Línea 661" x1="1.616" y1="48.403" transform="translate(17.883 76.411)" fill="none" stroke="#ed9aa9" stroke-linecap="round" stroke-linejoin="round" stroke-width="1.727"/>
              <line id="Línea_662" data-name="Línea 662" x1="8.323" y1="7.792" transform="translate(10.269 96.953)" fill="none" stroke="#ed9aa9" stroke-linecap="round" stroke-linejoin="round" stroke-width="1.727"/>
              <line id="Línea_663" data-name="Línea 663" x1="1.771" y1="4.958" transform="translate(12.925 96.244)" fill="none" stroke="#ed9aa9" stroke-linecap="round" stroke-linejoin="round" stroke-width="1.727"/>
              <line id="Línea_664" data-name="Línea 664" x1="6.256" y2="6.668" transform="translate(19.242 110.765)" fill="none" stroke="#ed9aa9" stroke-linecap="round" stroke-linejoin="round" stroke-width="1.727"/>
              <line id="Línea_665" data-name="Línea 665" x2="10.625" y2="5.49" transform="translate(8.498 114.661)" fill="none" stroke="#ed9aa9" stroke-linecap="round" stroke-linejoin="round" stroke-width="1.727"/>
              <line id="Línea_666" data-name="Línea 666" x1="3.582" y2="0.303" transform="translate(10.269 117.369)" fill="none" stroke="#ed9aa9" stroke-linecap="round" stroke-linejoin="round" stroke-width="1.727"/>
            </g>
            <g id="Grupo_1000316" data-name="Grupo 1000316" transform="translate(182.627 66.871)">
              <path id="Trazado_705427-2" data-name="Trazado 705427" d="M30,182.883c-.107-3.986.2-10.785-3.294-13.583-3.07-2.458-5.457.878-6.317,3.567-2.089,6.529-1.868,31.1-1.326,36.046,0,0-.531-4.958-4.427-2.834s1.948,13.281,1.948,13.281-4.6-3.365-6.729-.531,2.656,6.021,2.656,6.021-4.427-1.239-4.427,0,1.417,2.3,5.49,2.834H35.532s3.542-1.948,2.834-4.073-4.427-.885-4.427-.885,5.667-6.906,5.313-9.917-7.615.531-7.615.531S37.3,199,36.241,192.622c-.837-5.021-4.735-1.584-6.857.345A57.841,57.841,0,0,0,30,182.883" transform="translate(-8.084 -168.443)" fill="#112e4c"/>
              <line id="Línea_661-2" data-name="Línea 661" y1="48.403" x2="1.616" transform="translate(14.853 10.366)" fill="none" stroke="#ed9aa9" stroke-linecap="round" stroke-linejoin="round" stroke-width="1.727"/>
              <line id="Línea_662-2" data-name="Línea 662" y1="7.792" x2="8.323" transform="translate(15.76 30.908)" fill="none" stroke="#ed9aa9" stroke-linecap="round" stroke-linejoin="round" stroke-width="1.727"/>
              <line id="Línea_663-2" data-name="Línea 663" y1="4.958" x2="1.771" transform="translate(19.656 30.2)" fill="none" stroke="#ed9aa9" stroke-linecap="round" stroke-linejoin="round" stroke-width="1.727"/>
              <line id="Línea_664-2" data-name="Línea 664" x2="6.256" y2="6.668" transform="translate(8.854 44.721)" fill="none" stroke="#ed9aa9" stroke-linecap="round" stroke-linejoin="round" stroke-width="1.727"/>
              <line id="Línea_665-2" data-name="Línea 665" x1="10.625" y2="5.49" transform="translate(15.229 48.616)" fill="none" stroke="#ed9aa9" stroke-linecap="round" stroke-linejoin="round" stroke-width="1.727"/>
              <line id="Línea_666-2" data-name="Línea 666" x2="3.582" y2="0.303" transform="translate(20.501 51.324)" fill="none" stroke="#ed9aa9" stroke-linecap="round" stroke-linejoin="round" stroke-width="1.727"/>
            </g>
          </g>
        </g>
        <g id="Grupo_1000096" data-name="Grupo 1000096" transform="translate(81.215 63.915)">
          <g id="Grupo_1000095" data-name="Grupo 1000095" clip-path="url(#clip-path-18)">
            <g id="Grupo_1000094" data-name="Grupo 1000094" transform="translate(0 1.102)" opacity="0.5" style="mix-blend-mode: multiply;isolation: isolate">
              <g id="Grupo_1000093" data-name="Grupo 1000093">
                <g id="Grupo_1000092" data-name="Grupo 1000092" clip-path="url(#clip-path-19)">
                  <path id="Trazado_705484" data-name="Trazado 705484" d="M213.207,182.25a6.024,6.024,0,0,0-.09-.79c-.153-.69.767-2.838,1.074-5.369s-1.687-6.059-1.687-6.059l-1.45-4.211a3.761,3.761,0,0,0-1.73.888c-1.4,1.365-2.465,3.3-2.124,5.119a6.334,6.334,0,0,0,2.692,3.83,5.214,5.214,0,0,1,2.427,2.579,5.335,5.335,0,0,1-.076,3.223Z" transform="translate(-207.136 -165.821)" fill="#f5b3bf"/>
                </g>
              </g>
            </g>
          </g>
        </g>
        <g id="Grupo_1000098" data-name="Grupo 1000098">
          <g id="Grupo_1000097" data-name="Grupo 1000097" clip-path="url(#clip-path-7)">
            <path id="Trazado_705486" data-name="Trazado 705486" d="M216.036,166.1s1.555,3.678,1.9,4.4.645.91.569,1.137-.872.493-.872.493a6.3,6.3,0,0,1-.569,3.3c-.8,1.555-2.313,2.389-2.465,3.375a18.177,18.177,0,0,0-.038,2.844l-2.313-1.9a5.334,5.334,0,0,0,.076-3.223,5.213,5.213,0,0,0-2.427-2.578,6.332,6.332,0,0,1-2.692-3.83c-.342-1.82.72-3.754,2.124-5.119s4.171-1.1,4.475-.986-.758-.8.189-.986,1.517,1.175,1.555,1.4.341-.986.645-.19A2.936,2.936,0,0,1,216.036,166.1Z" transform="translate(-125.921 -99.097)" fill="none" stroke="#263238" stroke-linecap="round" stroke-linejoin="round" stroke-width="0.75"/>
            <path id="Trazado_705487" data-name="Trazado 705487" d="M228.624,175.84s-.683-.19-.91.379a1.006,1.006,0,0,0-.038.872" transform="translate(-138.362 -106.877)" fill="none" stroke="#263238" stroke-linecap="round" stroke-linejoin="round" stroke-width="0.75"/>
            <path id="Trazado_705488" data-name="Trazado 705488" d="M230.547,190.444s-.683.342-1.1-.113" transform="translate(-139.484 -115.705)" fill="none" stroke="#263238" stroke-linecap="round" stroke-linejoin="round" stroke-width="0.75"/>
            <line id="Línea_677" data-name="Línea 677" x1="3.16" y2="1.367" transform="translate(86.566 71.562)" fill="none" stroke="#263238" stroke-linecap="round" stroke-linejoin="round" stroke-width="0.75"/>
            <path id="Trazado_705489" data-name="Trazado 705489" d="M215.254,190.246a3.326,3.326,0,0,0-.567,2.142c.094,1.292.063,3.056-.6,2.9s.315-2.142.315-2.962a5.652,5.652,0,0,0-.424-1.818" transform="translate(-130.007 -115.653)" fill="none" stroke="#263238" stroke-linecap="round" stroke-linejoin="round" stroke-width="0.75"/>
            <line id="Línea_678" data-name="Línea 678" x1="0.744" y2="0.322" transform="translate(91.286 70.565)" fill="none" stroke="#263238" stroke-linecap="round" stroke-linejoin="round" stroke-width="0.75"/>
            <path id="Trazado_705490" data-name="Trazado 705490" d="M230.958,180.991c.1.334.1.629,0,.657s-.255-.22-.352-.554-.1-.629,0-.657.255.22.352.554" transform="translate(-140.143 -109.688)" fill="#263238"/>
            <path id="Trazado_705491" data-name="Trazado 705491" d="M230.433,179.954c.263.783.2,1.512-.149,1.628s-.838-.425-1.1-1.209-.2-1.512.149-1.628S230.17,179.17,230.433,179.954Z" transform="translate(-139.225 -108.652)" fill="none" stroke="#263238" stroke-linecap="round" stroke-linejoin="round" stroke-width="0.75"/>
            <path id="Trazado_705492" data-name="Trazado 705492" d="M218.805,188.532s-.626-.752-.063-.689a1,1,0,0,1,.752.689" transform="translate(-132.833 -114.19)" fill="none" stroke="#263238" stroke-linecap="round" stroke-linejoin="round" stroke-width="0.5"/>
            <path id="Trazado_705493" data-name="Trazado 705493" d="M260.565,222.439l-2.2,1.555.341,1.82,2.5-.986Z" transform="translate(-157.064 -135.224)" fill="#fff"/>
            <path id="Trazado_705494" data-name="Trazado 705494" d="M260.565,222.439l-2.2,1.555.341,1.82,2.5-.986Z" transform="translate(-157.064 -135.224)" fill="none" stroke="#263238" stroke-linecap="round" stroke-linejoin="round" stroke-width="0.75"/>
            <path id="Trazado_705495" data-name="Trazado 705495" d="M243.131,225.244l.986,3.678s-6.636,3.034-7.963,3.982a3.033,3.033,0,0,1-2.351.683l-.872-4.247s.948.455,2.958-.417,7.243-3.678,7.243-3.678" transform="translate(-141.601 -136.929)" fill="#fff"/>
            <path id="Trazado_705496" data-name="Trazado 705496" d="M243.131,225.244l.986,3.678s-6.636,3.034-7.963,3.982a3.033,3.033,0,0,1-2.351.683l-.872-4.247s.948.455,2.958-.417S243.131,225.244,243.131,225.244Z" transform="translate(-141.601 -136.929)" fill="none" stroke="#263238" stroke-linecap="round" stroke-linejoin="round" stroke-width="0.75"/>
            <path id="Trazado_705497" data-name="Trazado 705497" d="M265.132,225.354a.564.564,0,0,1-.505-.534l-.879-14.549a.564.564,0,1,1,1.126-.054l.879,14.55a.564.564,0,0,1-.537.59.552.552,0,0,1-.085,0" transform="translate(-160.335 -127.467)" fill="#263238"/>
            <path id="Trazado_705498" data-name="Trazado 705498" d="M265.132,225.354a.564.564,0,0,1-.505-.534l-.879-14.549a.564.564,0,1,1,1.126-.054l.879,14.55a.564.564,0,0,1-.537.59A.552.552,0,0,1,265.132,225.354Z" transform="translate(-160.335 -127.467)" fill="none" stroke="#263238" stroke-linecap="round" stroke-linejoin="round" stroke-width="0.75"/>
            <path id="Trazado_705499" data-name="Trazado 705499" d="M262.133,219.4a.564.564,0,0,1-.067-1.123l2.2-.265a.564.564,0,0,1,.135,1.119l-2.2.266a.682.682,0,0,1-.068,0" transform="translate(-159.012 -132.528)" fill="#fff"/>
            <path id="Trazado_705500" data-name="Trazado 705500" d="M262.133,219.4a.564.564,0,0,1-.067-1.123l2.2-.265a.564.564,0,0,1,.135,1.119l-2.2.266A.682.682,0,0,1,262.133,219.4Z" transform="translate(-159.012 -132.528)" fill="none" stroke="#263238" stroke-linecap="round" stroke-linejoin="round" stroke-width="0.75"/>
            <path id="Trazado_705501" data-name="Trazado 705501" d="M262.423,222.3a.564.564,0,0,1-.067-1.123l2.2-.265a.564.564,0,1,1,.135,1.119l-2.2.266a.664.664,0,0,1-.068,0" transform="translate(-159.188 -134.292)" fill="#fff"/>
            <path id="Trazado_705502" data-name="Trazado 705502" d="M262.423,222.3a.564.564,0,0,1-.067-1.123l2.2-.265a.564.564,0,1,1,.135,1.119l-2.2.266A.664.664,0,0,1,262.423,222.3Z" transform="translate(-159.188 -134.292)" fill="none" stroke="#263238" stroke-linecap="round" stroke-linejoin="round" stroke-width="0.75"/>
            <path id="Trazado_705503" data-name="Trazado 705503" d="M262.771,225.023a.54.54,0,0,1-.064-1.076l2.107-.254a.54.54,0,0,1,.129,1.072l-2.106.254a.615.615,0,0,1-.065,0" transform="translate(-159.414 -135.984)" fill="#fff"/>
            <path id="Trazado_705504" data-name="Trazado 705504" d="M262.771,225.023a.54.54,0,0,1-.064-1.076l2.107-.254a.54.54,0,0,1,.129,1.072l-2.106.254A.615.615,0,0,1,262.771,225.023Z" transform="translate(-159.414 -135.984)" fill="none" stroke="#263238" stroke-linecap="round" stroke-linejoin="round" stroke-width="0.75"/>
            <path id="Trazado_705505" data-name="Trazado 705505" d="M263.95,227.709a.436.436,0,0,1-.378-.441.49.49,0,0,1,.333-.558l1.489-.236c.21-.029.4.162.425.438a.491.491,0,0,1-.333.558l-1.489.236a.312.312,0,0,1-.046,0" transform="translate(-160.227 -137.674)" fill="#fff"/>
            <path id="Trazado_705506" data-name="Trazado 705506" d="M263.95,227.709a.436.436,0,0,1-.378-.441.49.49,0,0,1,.333-.558l1.489-.236c.21-.029.4.162.425.438a.491.491,0,0,1-.333.558l-1.489.236A.312.312,0,0,1,263.95,227.709Z" transform="translate(-160.227 -137.674)" fill="none" stroke="#263238" stroke-linecap="round" stroke-linejoin="round" stroke-width="0.75"/>
            <path id="Trazado_705507" data-name="Trazado 705507" d="M260.351,222.247c.014.19-.16.368-.412.411a.491.491,0,0,1-.581-.291l-.347-1.467c-.045-.207.132-.41.4-.456a.491.491,0,0,1,.581.291l.347,1.467a.31.31,0,0,1,.007.046" transform="translate(-157.451 -134.005)" fill="#fff"/>
            <path id="Trazado_705508" data-name="Trazado 705508" d="M260.351,222.247c.014.19-.16.368-.412.411a.491.491,0,0,1-.581-.291l-.347-1.467c-.045-.207.132-.41.4-.456a.491.491,0,0,1,.581.291l.347,1.467A.31.31,0,0,1,260.351,222.247Z" transform="translate(-157.451 -134.005)" fill="none" stroke="#263238" stroke-linecap="round" stroke-linejoin="round" stroke-width="0.75"/>
            <path id="Trazado_705509" data-name="Trazado 705509" d="M213.2,202.807a13.647,13.647,0,0,1,3.944,3.678,27.8,27.8,0,0,1,2.92,7.774c.607,2.692,1.1,9.67,1.479,11.111a9.193,9.193,0,0,0,.834,2.2,18.211,18.211,0,0,1-6.864,1.138c-3.716-.152-4.285-1.062-4.285-1.062a106.93,106.93,0,0,1-1.138-14.827c.114-6.56,3.11-10.011,3.11-10.011" transform="translate(-127.713 -123.289)" fill="#fff"/>
          </g>
        </g>
        <g id="Grupo_1000103" data-name="Grupo 1000103" transform="translate(82.372 79.518)">
          <g id="Grupo_1000102" data-name="Grupo 1000102" clip-path="url(#clip-path-21)">
            <g id="Grupo_1000101" data-name="Grupo 1000101" transform="translate(0)" opacity="0.5" style="mix-blend-mode: multiply;isolation: isolate">
              <g id="Grupo_1000100" data-name="Grupo 1000100">
                <g id="Grupo_1000099" data-name="Grupo 1000099" clip-path="url(#clip-path-22)">
                  <path id="Trazado_705510" data-name="Trazado 705510" d="M211.613,210.233s-.383.614-.077-1a12.188,12.188,0,0,1,1.227-3.221l1.841,2.071,1.15.076-.307.537,2.224,1.381-1.056-1.244.076-1.9-1.781.532s-1.151-2.071-1.457-2.761c-.205-.461.48-.853.957-1.063-.688-.526-1.208-.841-1.208-.841s-3,3.451-3.109,10.011a102.322,102.322,0,0,0,1,13.847l5.889-.325Z" transform="translate(-210.086 -202.806)" fill="#f5b3bf"/>
                </g>
              </g>
            </g>
          </g>
        </g>
        <g id="Grupo_1000105" data-name="Grupo 1000105">
          <g id="Grupo_1000104" data-name="Grupo 1000104" clip-path="url(#clip-path-7)">
            <path id="Trazado_705512" data-name="Trazado 705512" d="M213.2,202.807a13.647,13.647,0,0,1,3.944,3.678,27.8,27.8,0,0,1,2.92,7.774c.607,2.692,1.1,9.67,1.479,11.111a9.193,9.193,0,0,0,.834,2.2,18.211,18.211,0,0,1-6.864,1.138c-3.716-.152-4.285-1.062-4.285-1.062a106.93,106.93,0,0,1-1.138-14.827C210.207,206.258,213.2,202.807,213.2,202.807Z" transform="translate(-127.713 -123.289)" fill="none" stroke="#263238" stroke-linecap="round" stroke-linejoin="round" stroke-width="0.75"/>
            <path id="Trazado_705513" data-name="Trazado 705513" d="M216,206.191l2.806,3.375,1.479-.569-.076,1.9,2.237,2.692" transform="translate(-131.312 -125.346)" fill="none" stroke="#263238" stroke-linecap="round" stroke-linejoin="round" stroke-width="0.75"/>
            <path id="Trazado_705514" data-name="Trazado 705514" d="M211.6,224.426s.313,3.131,1.252,3.883" transform="translate(-128.634 -136.431)" fill="none" stroke="#263238" stroke-linecap="round" stroke-linejoin="round" stroke-width="0.5"/>
            <path id="Trazado_705515" data-name="Trazado 705515" d="M212.08,233.051a2.662,2.662,0,0,0,1.378,1.566" transform="translate(-128.926 -141.675)" fill="none" stroke="#263238" stroke-linecap="round" stroke-linejoin="round" stroke-width="0.5"/>
            <path id="Trazado_705516" data-name="Trazado 705516" d="M230.319,228.739l-1.628.626.251.689,1.5-.563" transform="translate(-139.024 -139.053)" fill="none" stroke="#263238" stroke-linecap="round" stroke-linejoin="round" stroke-width="0.5"/>
            <path id="Trazado_705517" data-name="Trazado 705517" d="M256.814,236.671a.564.564,0,0,1-.557-.48L254.226,223a.564.564,0,1,1,1.115-.168l2.031,13.188a.563.563,0,0,1-.558.648" transform="translate(-154.543 -135.172)" fill="#263238"/>
            <path id="Trazado_705518" data-name="Trazado 705518" d="M256.814,236.671a.564.564,0,0,1-.557-.48L254.226,223a.564.564,0,1,1,1.115-.168l2.031,13.188a.563.563,0,0,1-.558.648Z" transform="translate(-154.543 -135.172)" fill="none" stroke="#263238" stroke-linecap="round" stroke-linejoin="round" stroke-width="0.75"/>
            <path id="Trazado_705519" data-name="Trazado 705519" d="M216.036,166.1a2.936,2.936,0,0,0,.152-1.858c-.3-.8-.607.417-.645.19s-.607-1.593-1.555-1.4.114,1.1-.189.986-3.072-.379-4.475.986-2.465,3.3-2.124,5.119a6.332,6.332,0,0,0,2.692,3.83,5.363,5.363,0,0,1,1.809,1.518,7.437,7.437,0,0,0,1.111-1.1,1.319,1.319,0,0,1-1.175-.19,1.476,1.476,0,0,1-.152-2.237c.759-.607,1.479.758,1.479.758.8.417.493-.683.19-1.175s.114-1.024.227-1.744-.872-.986-.758-1.706,3.413-1.972,3.413-1.972" transform="translate(-125.921 -99.097)" fill="#263238"/>
            <path id="Trazado_705520" data-name="Trazado 705520" d="M216.036,166.1a2.936,2.936,0,0,0,.152-1.858c-.3-.8-.607.417-.645.19s-.607-1.593-1.555-1.4.114,1.1-.189.986-3.072-.379-4.475.986-2.465,3.3-2.124,5.119a6.332,6.332,0,0,0,2.692,3.83,5.363,5.363,0,0,1,1.809,1.518,7.437,7.437,0,0,0,1.111-1.1,1.319,1.319,0,0,1-1.175-.19,1.476,1.476,0,0,1-.152-2.237c.759-.607,1.479.758,1.479.758.8.417.493-.683.19-1.175s.114-1.024.227-1.744-.872-.986-.758-1.706S216.036,166.1,216.036,166.1Z" transform="translate(-125.921 -99.097)" fill="none" stroke="#263238" stroke-linecap="round" stroke-linejoin="round" stroke-width="0.75"/>
            <path id="Trazado_705521" data-name="Trazado 705521" d="M217.118,171.857a1.908,1.908,0,0,0-2.255.376c-.877,1.065-.689,2.881-1.378,3.946a2.253,2.253,0,0,1-1.566,1.127" transform="translate(-128.829 -104.341)" fill="none" stroke="#fff" stroke-linecap="round" stroke-linejoin="round" stroke-width="0.5"/>
            <path id="Trazado_705522" data-name="Trazado 705522" d="M209.844,173.141a1.592,1.592,0,0,0,1.753-1.378c.313-1.566,2.067-3.82,3.82-3.883s1.628,1.19,1.628,1.19" transform="translate(-127.567 -102.055)" fill="none" stroke="#fff" stroke-linecap="round" stroke-linejoin="round" stroke-width="0.5"/>
            <path id="Trazado_705523" data-name="Trazado 705523" d="M248.5,231.223l1.1-.721s.948-1.744,1.024-1.858a9.121,9.121,0,0,1,2.579-1.1.9.9,0,0,1,.3.758c-.076.189-.341.379-.341.569s.3,1.63.3,2.01-1.555,1.024-2.2,1.213-1.479.19-1.668.342-.531.417-.531.417Z" transform="translate(-151.066 -138.319)" fill="#fff"/>
            <path id="Trazado_705524" data-name="Trazado 705524" d="M248.5,231.223l1.1-.721s.948-1.744,1.024-1.858a9.121,9.121,0,0,1,2.579-1.1.9.9,0,0,1,.3.758c-.076.189-.341.379-.341.569s.3,1.63.3,2.01-1.555,1.024-2.2,1.213-1.479.19-1.668.342-.531.417-.531.417Z" transform="translate(-151.066 -138.319)" fill="none" stroke="#263238" stroke-linecap="round" stroke-linejoin="round" stroke-width="0.75"/>
            <path id="Trazado_705525" data-name="Trazado 705525" d="M214.893,217.41s-.986.265-.645,3.034,3.109,12.1,4.1,13.234,10.58-5.233,10.58-5.233l-1.175-3.641s-6.484,2.541-7.015,2.654-2.048-8.153-2.579-9.177" transform="translate(-130.201 -132.166)" fill="#fff"/>
          </g>
        </g>
        <g id="Grupo_1000110" data-name="Grupo 1000110" transform="translate(83.976 85.244)">
          <g id="Grupo_1000109" data-name="Grupo 1000109" clip-path="url(#clip-path-24)">
            <g id="Grupo_1000108" data-name="Grupo 1000108" transform="translate(0.001 0.78)" opacity="0.5" style="mix-blend-mode: multiply;isolation: isolate">
              <g id="Grupo_1000107" data-name="Grupo 1000107">
                <g id="Grupo_1000106" data-name="Grupo 1000106" clip-path="url(#clip-path-25)">
                  <path id="Trazado_705526" data-name="Trazado 705526" d="M228.755,229.126a62.508,62.508,0,0,1-7.215,2.009c-.767-.077-1-.537-1.457-1.15s-1.15,1.841-1.764,2.071-.154-2.761.076-3.375-.537.307-.537.307-1.534-3.145-2.3-5.292a30.46,30.46,0,0,1-1.15-4.3l-.173.424a6.675,6.675,0,0,0,.016,1.83c.341,2.768,3.109,12.1,4.1,13.235s10.58-5.233,10.58-5.233Z" transform="translate(-214.179 -219.399)" fill="#f5b3bf"/>
                </g>
              </g>
            </g>
          </g>
        </g>
        <g id="Grupo_1000112" data-name="Grupo 1000112">
          <g id="Grupo_1000111" data-name="Grupo 1000111" clip-path="url(#clip-path-7)">
            <path id="Trazado_705528" data-name="Trazado 705528" d="M214.893,217.41s-.986.265-.645,3.034,3.109,12.1,4.1,13.234,10.58-5.233,10.58-5.233l-1.175-3.641s-6.484,2.541-7.015,2.654-2.048-8.153-2.579-9.177" transform="translate(-130.201 -132.166)" fill="none" stroke="#263238" stroke-linecap="round" stroke-linejoin="round" stroke-width="0.75"/>
            <path id="Trazado_705529" data-name="Trazado 705529" d="M228.585,243.04a3.388,3.388,0,0,0-1.492,2.221" transform="translate(-138.053 -147.747)" fill="none" stroke="#263238" stroke-linecap="round" stroke-linejoin="round" stroke-width="0.5"/>
            <path id="Trazado_705530" data-name="Trazado 705530" d="M225.986,245.19a2.775,2.775,0,0,0-.814,2" transform="translate(-136.883 -149.054)" fill="none" stroke="#263238" stroke-linecap="round" stroke-linejoin="round" stroke-width="0.5"/>
            <path id="Trazado_705531" data-name="Trazado 705531" d="M172.611,223.211s-1.043-3.476-.9-10.705.556-7.925.209-8.481-6.673,3.163-11.365,8.585c-3,3.466-6.83,8.6-7.091,16.683-.209,6.465,2.866,11.69,4.8,13.138,3.337,2.5,7.89,2.329,8.377,2.329h46.575s2.989-1.043,3.684-3.754a25.324,25.324,0,0,0-1.877-19.673c-3.237-6.065-9.037-12.582-10.01-12.1s-4.623,7.438-9.593,11.818a19.949,19.949,0,0,1-22.8,2.155" transform="translate(-93.284 -123.996)" fill="#ed9aa9"/>
            <path id="Trazado_705532" data-name="Trazado 705532" d="M172.611,223.211s-1.043-3.476-.9-10.705.556-7.925.209-8.481-6.673,3.163-11.365,8.585c-3,3.466-6.83,8.6-7.091,16.683-.209,6.465,2.866,11.69,4.8,13.138,3.337,2.5,7.89,2.329,8.377,2.329h46.575s2.989-1.043,3.684-3.754a25.324,25.324,0,0,0-1.877-19.673c-3.237-6.065-9.037-12.582-10.01-12.1s-4.623,7.438-9.593,11.818A19.949,19.949,0,0,1,172.611,223.211Z" transform="translate(-93.284 -123.996)" fill="none" stroke="#263238" stroke-linecap="round" stroke-linejoin="round" stroke-width="0.75"/>
            <path id="Trazado_705533" data-name="Trazado 705533" d="M283.862,242.255a44.4,44.4,0,0,0-2.351-3.87c-2.721.936-9.544,3.738-13.325,9.327-3.247,4.8-1.088,12.415,5.687,17.969h8.181s2.989-1.043,3.684-3.754a25.324,25.324,0,0,0-1.877-19.673" transform="translate(-162.131 -144.917)" fill="#fff"/>
            <path id="Trazado_705534" data-name="Trazado 705534" d="M283.862,242.255a44.4,44.4,0,0,0-2.351-3.87c-2.721.936-9.544,3.738-13.325,9.327-3.247,4.8-1.088,12.415,5.687,17.969h8.181s2.989-1.043,3.684-3.754A25.324,25.324,0,0,0,283.862,242.255Z" transform="translate(-162.131 -144.917)" fill="none" stroke="#263238" stroke-linecap="round" stroke-linejoin="round" stroke-width="0.75"/>
            <path id="Trazado_705535" data-name="Trazado 705535" d="M313.81,285.563c-.077.68-.184,1.377-.326,2.089" transform="translate(-190.571 -173.597)" fill="none" stroke="#263238" stroke-linecap="round" stroke-linejoin="round" stroke-width="0.75"/>
            <path id="Trazado_705536" data-name="Trazado 705536" d="M308.362,251.267a23.3,23.3,0,0,1,2.458,11.944" transform="translate(-187.457 -152.748)" fill="none" stroke="#263238" stroke-linecap="round" stroke-linejoin="round" stroke-width="0.75"/>
            <path id="Trazado_705537" data-name="Trazado 705537" d="M171.52,243.771v-6.946a35.705,35.705,0,0,1-8.155-3.882c-3.128-1.877-5.329-6.938-3.858-10.219,1.356-3.024,5.11-4.38,7.091-3.024a68.521,68.521,0,0,0,6.013,3.511s-1.043-3.476-.9-10.706.556-7.924.208-8.481-6.673,3.163-11.365,8.585c-3,3.466-6.83,8.6-7.091,16.684-.209,6.465,2.866,11.69,4.8,13.138,3.337,2.5,7.89,2.329,8.377,2.329h4.875c0-.358,0-.688.013-.989Z" transform="translate(-93.284 -123.996)" fill="#fff"/>
            <path id="Trazado_705538" data-name="Trazado 705538" d="M171.52,243.771v-6.946a35.705,35.705,0,0,1-8.155-3.882c-3.128-1.877-5.329-6.938-3.858-10.219,1.356-3.024,5.11-4.38,7.091-3.024a68.521,68.521,0,0,0,6.013,3.511s-1.043-3.476-.9-10.706.556-7.924.208-8.481-6.673,3.163-11.365,8.585c-3,3.466-6.83,8.6-7.091,16.684-.209,6.465,2.866,11.69,4.8,13.138,3.337,2.5,7.89,2.329,8.377,2.329h4.875c0-.358,0-.688.013-.989Z" transform="translate(-93.284 -123.996)" fill="none" stroke="#263238" stroke-linecap="round" stroke-linejoin="round" stroke-width="0.75"/>
            <path id="Trazado_705539" data-name="Trazado 705539" d="M157.269,272.029a19.866,19.866,0,0,0,.276,2.551" transform="translate(-95.606 -165.37)" fill="none" stroke="#263238" stroke-linecap="round" stroke-linejoin="round" stroke-width="0.75"/>
            <path id="Trazado_705540" data-name="Trazado 705540" d="M168.466,217.5a44.133,44.133,0,0,0-3.861,3.412c-3,3.466-7.1,8.418-7.358,16.5" transform="translate(-95.593 -132.219)" fill="none" stroke="#263238" stroke-linecap="round" stroke-linejoin="round" stroke-width="0.75"/>
            <path id="Trazado_705541" data-name="Trazado 705541" d="M186.292,288.848c0,3.823-5.9,4.171-13.173,4.171s-13.173-.139-13.173-4.171c0-5.567,5.9-10.983,13.173-10.983s13.173,5.416,13.173,10.983" transform="translate(-97.233 -168.918)" fill="#ed9aa9"/>
            <path id="Trazado_705542" data-name="Trazado 705542" d="M186.292,288.848c0,3.823-5.9,4.171-13.173,4.171s-13.173-.139-13.173-4.171c0-5.567,5.9-10.983,13.173-10.983S186.292,283.281,186.292,288.848Z" transform="translate(-97.233 -168.918)" fill="none" stroke="#263238" stroke-linecap="round" stroke-linejoin="round" stroke-width="0.75"/>
            <path id="Trazado_705543" data-name="Trazado 705543" d="M173.276,277.864c-6.73,0-12.278,4.636-13.072,9.737.794,3.21,6.342,3.331,13.072,3.331s12.26-.3,13.068-3.356c-.808-5.092-6.349-9.712-13.068-9.712" transform="translate(-97.39 -168.917)" fill="#263238"/>
            <path id="Trazado_705544" data-name="Trazado 705544" d="M173.276,277.864c-6.73,0-12.278,4.636-13.072,9.737.794,3.21,6.342,3.331,13.072,3.331s12.26-.3,13.068-3.356C185.536,282.485,180,277.864,173.276,277.864Z" transform="translate(-97.39 -168.917)" fill="none" stroke="#263238" stroke-linecap="round" stroke-linejoin="round" stroke-width="0.75"/>
            <path id="Trazado_705545" data-name="Trazado 705545" d="M277.024,291.5c0,3.463-5.341,3.777-11.93,3.777s-11.93-.126-11.93-3.777c0-5.041,5.341-9.947,11.93-9.947s11.93,4.905,11.93,9.947" transform="translate(-153.902 -171.157)" fill="#c6ff00"/>
            <path id="Trazado_705546" data-name="Trazado 705546" d="M277.024,291.5c0,3.463-5.341,3.777-11.93,3.777s-11.93-.126-11.93-3.777c0-5.041,5.341-9.947,11.93-9.947S277.024,286.454,277.024,291.5Z" transform="translate(-153.902 -171.157)" fill="#ed9aa9" stroke="#263238" stroke-linecap="round" stroke-linejoin="round" stroke-width="0.75"/>
            <path id="Trazado_705547" data-name="Trazado 705547" d="M265.237,281.55c-6.1,0-11.119,4.2-11.838,8.818.719,2.907,5.743,3.017,11.838,3.017s11.1-.271,11.834-3.039c-.732-4.611-5.749-8.8-11.834-8.8" transform="translate(-154.044 -171.158)" fill="#263238"/>
            <path id="Trazado_705548" data-name="Trazado 705548" d="M265.237,281.55c-6.1,0-11.119,4.2-11.838,8.818.719,2.907,5.743,3.017,11.838,3.017s11.1-.271,11.834-3.039C276.339,285.735,271.322,281.55,265.237,281.55Z" transform="translate(-154.044 -171.158)" fill="none" stroke="#263238" stroke-linecap="round" stroke-linejoin="round" stroke-width="0.75"/>
            <path id="Trazado_705549" data-name="Trazado 705549" d="M400.149,174.179a1.877,1.877,0,0,1-1.1-2.416l5.293-14.151a1.877,1.877,0,0,1,3.516,1.315l-5.293,14.151a1.877,1.877,0,0,1-2.415,1.1" transform="translate(-242.514 -95.073)" fill="#fff"/>
            <path id="Trazado_705550" data-name="Trazado 705550" d="M400.149,174.179a1.877,1.877,0,0,1-1.1-2.416l5.293-14.151a1.877,1.877,0,0,1,3.516,1.315l-5.293,14.151A1.877,1.877,0,0,1,400.149,174.179Z" transform="translate(-242.514 -95.073)" fill="none" stroke="#263238" stroke-linecap="round" stroke-linejoin="round" stroke-width="0.75"/>
            <line id="Línea_679" data-name="Línea 679" x1="2.971" y2="7.813" transform="translate(160.758 65.088)" fill="none" stroke="#263238" stroke-linecap="round" stroke-linejoin="round" stroke-width="0.75"/>
            <path id="Trazado_705551" data-name="Trazado 705551" d="M378.1,215.429a3.337,3.337,0,0,1-1.957-4.294l7.558-20.206a3.337,3.337,0,1,1,6.25,2.338l-7.557,20.206a3.337,3.337,0,0,1-4.294,1.956" transform="translate(-228.533 -114.75)" fill="#263238"/>
            <path id="Trazado_705552" data-name="Trazado 705552" d="M378.1,215.429a3.337,3.337,0,0,1-1.957-4.294l7.558-20.206a3.337,3.337,0,1,1,6.25,2.338l-7.557,20.206A3.337,3.337,0,0,1,378.1,215.429Z" transform="translate(-228.533 -114.75)" fill="none" stroke="#263238" stroke-linecap="round" stroke-linejoin="round" stroke-width="0.75"/>
            <path id="Trazado_705553" data-name="Trazado 705553" d="M410.457,64.93A20.333,20.333,0,1,0,422.378,91.1,20.333,20.333,0,0,0,410.457,64.93M397.443,99.724a16.815,16.815,0,1,1,21.64-9.859,16.815,16.815,0,0,1-21.64,9.859" transform="translate(-232.827 -38.685)" fill="#263238"/>
            <path id="Trazado_705554" data-name="Trazado 705554" d="M410.457,64.93A20.333,20.333,0,1,0,422.378,91.1,20.333,20.333,0,0,0,410.457,64.93ZM397.443,99.724a16.815,16.815,0,1,1,21.64-9.859A16.815,16.815,0,0,1,397.443,99.724Z" transform="translate(-232.827 -38.685)" fill="none" stroke="#263238" stroke-linecap="round" stroke-linejoin="round" stroke-width="0.75"/>
            <path id="Trazado_705555" data-name="Trazado 705555" d="M400.092,87.552a14.942,14.942,0,0,1,8.422-7.847" transform="translate(-243.221 -48.454)" fill="none" stroke="#263238" stroke-linecap="round" stroke-linejoin="round" stroke-width="0.75"/>
            <path id="Trazado_705556" data-name="Trazado 705556" d="M396.666,108.659a14.911,14.911,0,0,1,.68-4.5" transform="translate(-241.138 -63.321)" fill="none" stroke="#263238" stroke-linecap="round" stroke-linejoin="round" stroke-width="0.75"/>
            <path id="Trazado_705557" data-name="Trazado 705557" d="M385,89.112a19.728,19.728,0,0,1,36.743-13.369" transform="translate(-233.767 -39.625)" fill="none" stroke="#fff" stroke-miterlimit="10" stroke-width="1"/>
            <path id="Trazado_705558" data-name="Trazado 705558" d="M426.5,109.514a19.729,19.729,0,0,1-37.625,10.346" transform="translate(-236.4 -66.575)" fill="none" stroke="#fff" stroke-miterlimit="10" stroke-width="1"/>
            <path id="Trazado_705559" data-name="Trazado 705559" d="M481.437,96.463a19.819,19.819,0,0,1,1.141,3.872" transform="translate(-292.671 -58.641)" fill="none" stroke="#fff" stroke-miterlimit="10" stroke-width="1"/>
            <path id="Trazado_705560" data-name="Trazado 705560" d="M230.385,269.1a5.658,5.658,0,1,0-5.659,5.659,5.659,5.659,0,0,0,5.659-5.659" transform="translate(-133.174 -160.152)" fill="#263238"/>
            <path id="Trazado_705561" data-name="Trazado 705561" d="M230.871,270.474a4.775,4.775,0,1,0-4.774,4.774,4.775,4.775,0,0,0,4.774-4.774" transform="translate(-134.544 -161.522)" fill="#fff"/>
            <path id="Trazado_705562" data-name="Trazado 705562" d="M230.871,270.474a4.775,4.775,0,1,0-4.774,4.774A4.775,4.775,0,0,0,230.871,270.474Z" transform="translate(-134.544 -161.522)" fill="none" stroke="#263238" stroke-linecap="round" stroke-linejoin="round" stroke-width="0.75"/>
            <path id="Trazado_705563" data-name="Trazado 705563" d="M229.7,278.877a.227.227,0,0,1,0-.321l1.291-1.291a.227.227,0,0,1,.321.321l-1.291,1.291a.227.227,0,0,1-.321,0" transform="translate(-139.599 -168.513)" fill="#263238"/>
            <path id="Trazado_705564" data-name="Trazado 705564" d="M224.6,282.574a.4.4,0,0,1,0-.57l1.843-1.844a.4.4,0,1,1,.57.571l-1.844,1.843a.4.4,0,0,1-.57,0" transform="translate(-136.467 -170.241)" fill="#263238"/>
            <path id="Trazado_705565" data-name="Trazado 705565" d="M235.664,271.568a2.457,2.457,0,1,0-3.475,0,2.457,2.457,0,0,0,3.475,0" transform="translate(-140.713 -162.54)" fill="#263238"/>
            <path id="Trazado_705566" data-name="Trazado 705566" d="M236.227,272.13a1.79,1.79,0,1,0-2.532,0,1.79,1.79,0,0,0,2.532,0" transform="translate(-141.747 -163.573)" fill="#fff"/>
            <path id="Trazado_705567" data-name="Trazado 705567" d="M386.149,223.509a1.877,1.877,0,0,1-1.877,1.877H371.03a1.877,1.877,0,1,1,0-3.754h13.242a1.877,1.877,0,0,1,1.877,1.877" transform="translate(-224.413 -134.733)" fill="#ed9aa9"/>
            <path id="Trazado_705568" data-name="Trazado 705568" d="M386.149,223.509a1.877,1.877,0,0,1-1.877,1.877H371.03a1.877,1.877,0,1,1,0-3.754h13.242A1.877,1.877,0,0,1,386.149,223.509Z" transform="translate(-224.413 -134.733)" fill="none" stroke="#263238" stroke-linecap="round" stroke-linejoin="round" stroke-width="0.75"/>
            <path id="Trazado_705569" data-name="Trazado 705569" d="M391.716,225.454a1.043,1.043,0,1,0-1.043,1.043,1.043,1.043,0,0,0,1.043-1.043" transform="translate(-236.861 -136.422)" fill="#fff"/>
            <path id="Trazado_705570" data-name="Trazado 705570" d="M391.716,225.454a1.043,1.043,0,1,0-1.043,1.043A1.043,1.043,0,0,0,391.716,225.454Z" transform="translate(-236.861 -136.422)" fill="none" stroke="#263238" stroke-linecap="round" stroke-linejoin="round" stroke-width="0.75"/>
            <path id="Trazado_705571" data-name="Trazado 705571" d="M350.468,247.865a2.539,2.539,0,1,0-2.539,2.539,2.539,2.539,0,0,0,2.539-2.539" transform="translate(-209.967 -149.137)" fill="#ed9aa9"/>
            <ellipse id="Elipse_4896" data-name="Elipse 4896" cx="2.539" cy="2.539" rx="2.539" ry="2.539" transform="translate(135.25 96.376) rotate(-4.065)" fill="none" stroke="#263238" stroke-linecap="round" stroke-linejoin="round" stroke-width="0.75"/>
            <path id="Trazado_705572" data-name="Trazado 705572" d="M351.343,250.33a.95.95,0,1,0-.95.95.949.949,0,0,0,.95-.95" transform="translate(-212.431 -151.601)" fill="#fff"/>
            <ellipse id="Elipse_4897" data-name="Elipse 4897" cx="0.95" cy="0.95" rx="0.95" ry="0.95" transform="translate(137.013 97.779)" fill="none" stroke="#263238" stroke-linecap="round" stroke-linejoin="round" stroke-width="0.75"/>
            <path id="Trazado_705573" data-name="Trazado 705573" d="M372.541,222.6A2.539,2.539,0,1,0,370,225.14a2.539,2.539,0,0,0,2.539-2.539" transform="translate(-223.385 -133.778)" fill="#ed9aa9"/>
            <ellipse id="Elipse_4898" data-name="Elipse 4898" cx="2.539" cy="2.539" rx="2.539" ry="2.539" transform="translate(143.904 86.47) rotate(-4.065)" fill="none" stroke="#263238" stroke-linecap="round" stroke-linejoin="round" stroke-width="0.75"/>
            <path id="Trazado_705574" data-name="Trazado 705574" d="M373.4,225.021a.978.978,0,1,0-.978.978.978.978,0,0,0,.978-.978" transform="translate(-225.806 -136.199)" fill="#fff"/>
            <ellipse id="Elipse_4899" data-name="Elipse 4899" cx="0.978" cy="0.978" rx="0.978" ry="0.978" transform="translate(145.639 87.844)" fill="none" stroke="#263238" stroke-linecap="round" stroke-linejoin="round" stroke-width="0.75"/>
          </g>
        </g>
      </g>
    </g>
  </g>
</svg>
