<svg xmlns="http://www.w3.org/2000/svg" xmlns:xlink="http://www.w3.org/1999/xlink" width="352" height="289" viewBox="0 0 352 289">
  <defs>
    <clipPath id="clip-path">
      <rect id="Rectángulo_348663" data-name="Rectángulo 348663" width="352" height="289" transform="translate(-6785 -4863)" fill="#fff" opacity="0.68"/>
    </clipPath>
    <clipPath id="clip-path-2">
      <rect id="Rectángulo_348637" data-name="Rectángulo 348637" width="352" height="288" transform="translate(972 6055)" fill="#fff" stroke="#707070" stroke-width="1" opacity="0.67"/>
    </clipPath>
    <clipPath id="clip-path-3">
      <rect id="Rectángulo_347710" data-name="Rectángulo 347710" width="342.351" height="299.557" fill="#fff" opacity="0.43"/>
    </clipPath>
    <clipPath id="clip-path-4">
      <rect id="Rectángulo_347556" data-name="Rectángulo 347556" width="395.334" height="420.807" fill="none"/>
    </clipPath>
    <clipPath id="clip-path-5">
      <rect id="Rectángulo_348635" data-name="Rectángulo 348635" width="167.997" height="270.741" fill="none"/>
    </clipPath>
    <clipPath id="clip-path-7">
      <rect id="Rectángulo_348633" data-name="Rectángulo 348633" width="113.451" height="67.926" fill="none"/>
    </clipPath>
    <clipPath id="clip-path-8">
      <rect id="Rectángulo_348639" data-name="Rectángulo 348639" width="358" height="358" transform="translate(-0.331 -0.332)" fill="none"/>
    </clipPath>
    <clipPath id="clip-path-9">
      <rect id="Rectángulo_348638" data-name="Rectángulo 348638" width="327.527" height="288.924" fill="none"/>
    </clipPath>
    <clipPath id="clip-path-10">
      <rect id="Rectángulo_348659" data-name="Rectángulo 348659" width="47.32" height="52.255" fill="none"/>
    </clipPath>
    <clipPath id="clip-path-11">
      <rect id="Rectángulo_348675" data-name="Rectángulo 348675" width="29.063" height="32.094" fill="none"/>
    </clipPath>
  </defs>
  <g id="Enmascarar_grupo_1000242" data-name="Enmascarar grupo 1000242" transform="translate(6785 4863)" clip-path="url(#clip-path)">
    <g id="Enmascarar_grupo_1000240" data-name="Enmascarar grupo 1000240" transform="translate(-7757 -10919)" clip-path="url(#clip-path-2)">
      <g id="Set_of_a_man_character_pointing_his_finger_in_different_directions__up_and_down_and_looking_out_Convertido_" data-name="Set_of_a_man_character_pointing_his_finger_in_different_directions,_up_and_down_and_looking_out [Convertido]" transform="translate(948 6004.789)">
        <g id="Bg">
          <rect id="Rectángulo_348636" data-name="Rectángulo 348636" width="392" height="392" transform="translate(0 0.211)" fill="#fff" opacity="0"/>
        </g>
        <g id="Ñëîé_1" data-name="Ñëîé 1" transform="translate(25.177 51.575)">
          <g id="Grupo_1013392" data-name="Grupo 1013392" transform="translate(0 9.375)">
            <circle id="Elipse_8041" data-name="Elipse 8041" cx="16.332" cy="16.332" r="16.332" transform="translate(12.462 83.836) rotate(-45)" fill="#fdc8d0"/>
            <circle id="Elipse_8042" data-name="Elipse 8042" cx="6.173" cy="6.173" r="6.173" transform="translate(28.789 31.256)" fill="#fdc8d0"/>
            <circle id="Elipse_8043" data-name="Elipse 8043" cx="17.328" cy="17.328" r="17.328" transform="translate(310.409 43.603)" fill="#fdc8d0"/>
            <circle id="Elipse_8044" data-name="Elipse 8044" cx="3.983" cy="3.983" r="3.983" transform="matrix(0.526, -0.851, 0.851, 0.526, 297.369, 16.227)" fill="#fdc8d0"/>
            <circle id="Elipse_8045" data-name="Elipse 8045" cx="7.966" cy="7.966" r="7.966" transform="translate(326.69 162.096) rotate(-22.5)" fill="#fdc8d0"/>
            <circle id="Elipse_8046" data-name="Elipse 8046" cx="4.381" cy="4.381" r="4.381" transform="translate(0 192.635) rotate(-68.37)" fill="#fdc8d0"/>
            <circle id="Elipse_8047" data-name="Elipse 8047" cx="6.373" cy="6.373" r="6.373" transform="translate(6.48 118.49)" fill="#fdc8d0"/>
            <circle id="Elipse_8048" data-name="Elipse 8048" cx="6.772" cy="6.772" r="6.772" transform="translate(245.29 13.181) rotate(-76.72)" fill="#fdc8d0"/>
          </g>
          <path id="Trazado_729864" data-name="Trazado 729864" d="M526.081,361.534c-10.845-4.355-24.807.724-34.216-6.032-7.627-5.475-8.383-16.02-7.909-25.139s1.155-19.279-4.981-26.264c-4.954-5.636-13.167-7.6-20.856-7.8s-15.406,1.01-23.06.273c-16.475-1.589-30.373-11.819-44.918-19.395-18.848-9.817-40.4-15.545-61.785-13.9s-42.478,11.172-55.51,27.5-16.922,39.58-7.7,58.13c4.763,9.578,12.951,19.232,10.066,29.473-1.99,7.072-8.913,11.894-16.026,14.58s-14.8,3.828-21.813,6.752a43.683,43.683,0,0,0-24.647,26.449,40.618,40.618,0,0,0-1.679,16.406,44.356,44.356,0,0,0-.173,4.842,64.1,64.1,0,0,0,9.958,32.657c6.519,10.5,6.707,25.7,8.876,37.656,1.8,9.917,3.769,20.238,9.921,28.286,7.4,9.682,19.875,14.527,32.122,15.682s24.537-.908,36.723-2.583a585.876,585.876,0,0,1,127.378-3.491c18.506,1.514,37.49,3.871,55.378-1.035s34.644-19.33,35.436-37.605a34.7,34.7,0,0,0-.879-9.272c-2.753-12.049-11.286-22.88-18.967-33.087-9.6-12.761-18.83-28.447-14.276-43.682.006-.024.014-.045.02-.069a14.49,14.49,0,0,1,7.858-8.968c9.084-4.155,27.545-13.435,33.728-22.662,8.248-12.306,6.007-32.046-8.076-37.7Z" transform="translate(-194.673 -262.999)" fill="#fdc8d0"/>
          <path id="Trazado_729865" data-name="Trazado 729865" d="M483.708,348.289c-9.387-3.77-21.473.626-29.617-5.221-6.6-4.739-7.257-13.867-6.846-21.76s1-16.688-4.312-22.734c-4.288-4.879-11.4-6.574-18.052-6.751s-13.335.874-19.961.236c-14.26-1.375-26.29-10.231-38.88-16.788-16.314-8.5-34.969-13.456-53.48-12.03s-36.769,9.67-48.048,23.8-14.647,34.26-6.661,50.316c4.123,8.29,11.21,16.647,8.713,25.511-1.723,6.121-7.715,10.3-13.872,12.621s-12.812,3.314-18.881,5.844a37.811,37.811,0,0,0-21.334,22.894,35.158,35.158,0,0,0-1.453,14.2,38.392,38.392,0,0,0-.149,4.191,55.486,55.486,0,0,0,8.62,28.268c5.642,9.088,5.805,22.244,7.683,32.595,1.557,8.584,3.263,17.518,8.587,24.484,6.406,8.38,17.2,12.575,27.8,13.575s21.239-.786,31.787-2.236a507.128,507.128,0,0,1,110.257-3.021c16.019,1.31,32.45,3.351,47.935-.9s29.987-16.732,30.673-32.551a30.032,30.032,0,0,0-.76-8.026c-2.383-10.429-9.769-19.8-16.418-28.64-8.311-11.045-16.3-24.623-12.357-37.811.005-.02.012-.039.017-.059a12.542,12.542,0,0,1,6.8-7.762c7.863-3.6,23.843-11.629,29.195-19.616,7.14-10.652,5.2-27.738-6.99-32.634Z" transform="translate(-172.623 -242.902)" fill="#fceff1"/>
        </g>
      </g>
    </g>
    <g id="Grupo_1013393" data-name="Grupo 1013393" transform="translate(-6780.176 -4868.262)">
      <g id="Enmascarar_grupo_1000237" data-name="Enmascarar grupo 1000237" transform="translate(0 0)" clip-path="url(#clip-path-3)">
        <g id="reading_2_Convertido_" data-name="reading_2 [Convertido]" transform="translate(-52.983 -88.645)">
          <g id="BACK" transform="translate(0 0)">
            <g id="Grupo_1010891" data-name="Grupo 1010891" transform="translate(0)" clip-path="url(#clip-path-4)">
              <g id="Grupo_1010890" data-name="Grupo 1010890" transform="translate(41.796 31.413)">
                <g id="Grupo_1010873" data-name="Grupo 1010873">
                  <path id="Trazado_721019" data-name="Trazado 721019" d="M1316.542,929.173h0a7.756,7.756,0,0,1-8.624-6.778h0a3.212,3.212,0,0,0-2.807,3.573l.923,7.7,7.7-.923a3.213,3.213,0,0,0,2.807-3.572Z" transform="translate(-1100.766 -778.641)" fill="#f0f2f5"/>
                  <path id="Trazado_721022" data-name="Trazado 721022" d="M382.966,369h0a4.684,4.684,0,0,1-5.847,3.116h0a1.942,1.942,0,0,0,1.29,2.423l4.482,1.367,1.366-4.482a1.942,1.942,0,0,0-1.29-2.423Z" transform="translate(-349.344 -330.522)" fill="#f0f2f5"/>
                  <path id="Trazado_721023" data-name="Trazado 721023" d="M1329.772,511.687h0a4.686,4.686,0,0,1-6.338-1.932h0a1.941,1.941,0,0,0-.8,2.625l2.2,4.136,4.135-2.2a1.942,1.942,0,0,0,.8-2.625Z" transform="translate(-1114.786 -444.367)" fill="#f0f2f5"/>
                  <path id="Trazado_721024" data-name="Trazado 721024" d="M1626.167,321.9h0a4.684,4.684,0,0,1-6.1-2.588h0a1.94,1.94,0,0,0-1.072,2.526l1.757,4.343,4.343-1.757a1.94,1.94,0,0,0,1.072-2.526Z" transform="translate(-1354.814 -290.237)" fill="#f0f2f5"/>
                  <path id="Trazado_721026" data-name="Trazado 721026" d="M1709.482,1137.007h0a6.821,6.821,0,0,0,8.6,4.368h0a2.825,2.825,0,0,1-1.81,3.565l-6.486,2.119-2.119-6.486A2.826,2.826,0,0,1,1709.482,1137.007Z" transform="translate(-1426.613 -952.309)" fill="#f0f2f5"/>
                  <path id="Trazado_721027" data-name="Trazado 721027" d="M1785.451,805.25h0a4.332,4.332,0,0,1-3.034-5.322h0a1.794,1.794,0,0,0-2.2,1.256l-1.144,4.177,4.177,1.144A1.794,1.794,0,0,0,1785.451,805.25Z" transform="translate(-1484.537 -679.451)" fill="#f0f2f5"/>
                  <path id="Trazado_721028" data-name="Trazado 721028" d="M235.861,740.219h0a2.725,2.725,0,0,0-.365,5.023,2.726,2.726,0,0,0-3.81,3.293h0a2.727,2.727,0,0,0,3.445,1.73l6.245-2.069-2.069-6.245a2.727,2.727,0,0,0-3.445-1.73Z" transform="translate(-231.54 -631.047)" fill="#f0f2f5"/>
                  <path id="Trazado_721029" data-name="Trazado 721029" d="M780.3,181.046h0a4.669,4.669,0,0,0-6.719,5.413,4.669,4.669,0,0,0-8.578-.923h0a4.67,4.67,0,0,0,1.86,6.336l9.893,5.4,5.4-9.893A4.668,4.668,0,0,0,780.3,181.046Z" transform="translate(-663.012 -177.935)" fill="#f0f2f5"/>
                  <path id="Trazado_721030" data-name="Trazado 721030" d="M1257.3,171.38h0a3.748,3.748,0,0,0-6.893.666,3.748,3.748,0,0,0-5.344-4.4h0a3.75,3.75,0,0,0-1.549,5.068l4.25,7.988,7.988-4.25A3.749,3.749,0,0,0,1257.3,171.38Z" transform="translate(-1050.554 -167.191)" fill="#f0f2f5"/>
                </g>
                <g id="Grupo_1010889" data-name="Grupo 1010889" transform="translate(21.569 170.618)">
                  <g id="Grupo_1010879" data-name="Grupo 1010879" transform="translate(17 130.345)">
                    <g id="Grupo_1010876" data-name="Grupo 1010876" transform="translate(0 29.757)">
                      <path id="Trazado_721275" data-name="Trazado 721275" d="M0,0H39.73V19.059H0Z" transform="translate(50.088)" fill="#fff"/>
                      <path id="Trazado_721274" data-name="Trazado 721274" d="M0,0H50.088V19.059H0Z" fill="#112e4c"/>
                      <rect id="Rectángulo_347539" data-name="Rectángulo 347539" width="41.009" height="1.566" transform="translate(50.088)" fill="#112e4c"/>
                      <rect id="Rectángulo_347540" data-name="Rectángulo 347540" width="18.391" height="0.392" transform="translate(72.038 5.087)" fill="#112e4c"/>
                      <rect id="Rectángulo_347541" data-name="Rectángulo 347541" width="41.009" height="1.566" transform="translate(50.088 17.493)" fill="#112e4c"/>
                      <rect id="Rectángulo_347542" data-name="Rectángulo 347542" width="3.692" height="19.059" transform="translate(5.047)" fill="#fff"/>
                      <rect id="Rectángulo_347543" data-name="Rectángulo 347543" width="0.923" height="19.059" transform="translate(43.364)" fill="#fff"/>
                      <rect id="Rectángulo_347544" data-name="Rectángulo 347544" width="0.923" height="19.059" transform="translate(40.261)" fill="#fff"/>
                      <path id="Trazado_721040" data-name="Trazado 721040" d="M781.283,1930.082h-4.147l-3.856-6.952h4.147Z" transform="translate(-691.743 -1917.653)" fill="#112e4c"/>
                    </g>
                    <g id="Grupo_1010877" data-name="Grupo 1010877" transform="translate(10.984)">
                      <rect id="Rectángulo_347545" data-name="Rectángulo 347545" width="34.11" height="16.362" transform="translate(43)" fill="#fff"/>
                      <rect id="Rectángulo_347546" data-name="Rectángulo 347546" width="43" height="16.362" fill="#112e4c"/>
                      <rect id="Rectángulo_347547" data-name="Rectángulo 347547" width="35.208" height="1.344" transform="translate(43)" fill="#f0f2f5"/>
                      <rect id="Rectángulo_347548" data-name="Rectángulo 347548" width="15.787" height="0.337" transform="translate(61.844 4.368)" fill="#f0f2f5"/>
                      <rect id="Rectángulo_347549" data-name="Rectángulo 347549" width="35.208" height="1.344" transform="translate(43 15.019)" fill="#f0f2f5"/>
                      <rect id="Rectángulo_347550" data-name="Rectángulo 347550" width="3.171" height="11.659" transform="translate(4.334 2.352)" fill="#fff"/>
                      <rect id="Rectángulo_347551" data-name="Rectángulo 347551" width="21.25" height="11.659" transform="translate(15.011 2.352)" fill="#fff"/>
                      <path id="Trazado_721048" data-name="Trazado 721048" d="M777.241,1768.679H773.68l-3.31-5.969h3.561Z" transform="translate(-700.37 -1758.007)" fill="#f0f2f5"/>
                    </g>
                    <g id="Grupo_1010878" data-name="Grupo 1010878" transform="translate(16.809 16.36)">
                      <path id="Trazado_721049" data-name="Trazado 721049" d="M439.823,1823.962h55.3v13.4h-55.3a6.638,6.638,0,0,1-6.635-6.635v-.127a6.638,6.638,0,0,1,6.635-6.635Z" transform="translate(-433.19 -1823.96)" fill="#005b8b"/>
                      <path id="Trazado_721050" data-name="Trazado 721050" d="M623.747,1829.76h22.327v11.2H623.747a5.6,5.6,0,0,1-5.6-5.6h0A5.6,5.6,0,0,1,623.747,1829.76Z" transform="translate(-582.948 -1828.656)" fill="#fff"/>
                      <path id="Trazado_730139" data-name="Trazado 730139" d="M0,0H28.823V1.1H0Z" transform="translate(35.202 0.002)" fill="#005b8b"/>
                      <rect id="Rectángulo_347553" data-name="Rectángulo 347553" width="12.925" height="0.276" transform="translate(50.63 3.578)" fill="#f0f2f5"/>
                      <path id="Trazado_730138" data-name="Trazado 730138" d="M0,0H28.823V1.1H0Z" transform="translate(35.202 12.297)" fill="#005b8b"/>
                      <path id="Trazado_721051" data-name="Trazado 721051" d="M474.629,1844.618H450.8a4.469,4.469,0,0,1,0-8.937h23.829a5.962,5.962,0,0,0-.586.51,5.6,5.6,0,0,0,.588,8.425Z" transform="translate(-443.829 -1833.449)" fill="#fff"/>
                      <path id="Trazado_721052" data-name="Trazado 721052" d="M567.3,1842.435a.287.287,0,0,1-.179-.061,6.361,6.361,0,0,1-.668-9.581,6.863,6.863,0,0,1,.664-.58.3.3,0,1,1,.36.474,5.9,5.9,0,0,0-.6.527,5.768,5.768,0,0,0,.605,8.685.3.3,0,0,1-.181.535Z" transform="translate(-539.581 -1830.593)" fill="#f0f2f5"/>
                    </g>
                  </g>
                  <g id="Grupo_1013233" data-name="Grupo 1013233" transform="translate(185.067)">
                    <path id="Trazado_721031" data-name="Trazado 721031" d="M1231.59,1331.18a68.56,68.56,0,0,1,21.606,14.57,104.548,104.548,0,0,1,15.516,19.328,58.325,58.325,0,0,1-37.121-33.895Z" transform="translate(-1231.59 -1280.262)" fill="#f0f2f5"/>
                    <path id="Trazado_721032" data-name="Trazado 721032" d="M1300.117,1521.028a39.3,39.3,0,0,1,16.864,4.671h0a39.6,39.6,0,0,1-34.091-1.61,39.281,39.281,0,0,1,17.226-3.061Z" transform="translate(-1273.126 -1433.942)" fill="#f0f2f5"/>
                    <path id="Trazado_721033" data-name="Trazado 721033" d="M1452.306,1355.69a39.552,39.552,0,0,1-7.969,33.185,39.59,39.59,0,0,1,7.967-33.185Z" transform="translate(-1403.137 -1300.108)" fill="#f0f2f5"/>
                    <path id="Trazado_721034" data-name="Trazado 721034" d="M1349.911,1671.7c-7.04-3.909-8.325-8.305-4.967-13.412a39.335,39.335,0,0,1,12.6-12.135,34.984,34.984,0,0,1-6.141,16.385C1348.6,1666.486,1348.144,1669.4,1349.911,1671.7Z" transform="translate(-1321.935 -1535.286)" fill="#f0f2f5"/>
                    <path id="Trazado_721035" data-name="Trazado 721035" d="M1327.835,1167.495c.161-.046.323-.092.487-.133l.835-.219c.28-.07.559-.133.84-.2l.42-.1.422-.09.845-.179q1.693-.334,3.405-.571a60.692,60.692,0,0,1,6.882-.5,48.214,48.214,0,0,1,6.817.333l-.152-.205q-2.307-3.052-4.762-5.984t-5.061-5.735c-.864-.938-1.746-1.859-2.636-2.771s-1.8-1.808-2.731-2.678c.94.863,1.85,1.757,2.75,2.659s1.785,1.821,2.657,2.754q2.612,2.8,5.076,5.725t4.779,5.976q.642.848,1.275,1.705a20.185,20.185,0,0,1,.4-2.282c.185-.771.4-1.536.651-2.288s.529-1.5.835-2.227.636-1.454,1.009-2.153c-.165.36-.328.722-.481,1.087s-.307.731-.451,1.1c-.29.737-.563,1.479-.809,2.231s-.472,1.509-.672,2.274l-.143.577c-.046.192-.084.386-.125.58-.09.367-.141.74-.211,1.11,1.092,1.481,2.162,2.979,3.19,4.5.363.525.71,1.06,1.06,1.593s.7,1.064,1.039,1.606l1.018,1.62.986,1.639c.164.274.331.546.49.822l.474.83.474.83c.158.278.319.552.468.834l.912,1.682.228.421.217.426.436.851c.594,1.129,1.13,2.286,1.686,3.436.272.576.526,1.163.788,1.743l.392.874c.13.291.248.588.369.883l.729,1.768.679,1.789.339.895.312.9.4,1.153h.076q-.069-2.353-.162-4.7-.237-6.044-.611-12.08t-.889-12.061q-.308-3.588-.675-7.171a11.041,11.041,0,0,1-2.37,1.2c-5.314,1.835-11.048-.335-11.048-.335a23.667,23.667,0,0,1,12.824-6.423l-.261-2.307-.367-3c-.027-.23-.057-.459-.086-.689a34.593,34.593,0,0,1-10.215,7.514h0a39.331,39.331,0,0,1,7.135-15.976,12.712,12.712,0,0,1,1.633-1.812l-.156-1.011-.234-1.494-.251-1.49-.251-1.49c-.084-.5-.166-.993-.259-1.49l-.543-2.975c-.087-.5-.186-.99-.283-1.485l-.293-1.483-.293-1.483c-.1-.495-.207-.985-.312-1.479l-.057-.265a35,35,0,0,1-14.921-9.111c-3.352-3.5-6.133-4.5-8.717-3.193,5.165-6.181,9.723-6.614,14.106-2.356a39.345,39.345,0,0,1,9.514,14.577l-.557-2.609q-.8-3.592-1.715-7.158l-.031.019h0s.008-.025.019-.065q-.58-2.27-1.2-4.53h0a104.68,104.68,0,0,1-13.021-21.09,68.537,68.537,0,0,1-6.5-25.235,58.326,58.326,0,0,1,19.518,46.325q.631,2.238,1.212,4.492a70.7,70.7,0,0,1,6.766-15.007,45.843,45.843,0,0,1,11.534-13.053,38.981,38.981,0,0,1-18.281,28.132q.925,3.566,1.747,7.158l.637,2.956c.1.493.215.984.314,1.479l.3,1.482.3,1.483c.1.495.2.987.286,1.485l.546,2.975q.613,3.454,1.153,6.924c3.358-2.973,7.436-2.506,12.6,2-2.758-.883-5.348.533-8.111,4.518a33.022,33.022,0,0,1-3.028,3.736q.391,3.032.735,6.072a23.34,23.34,0,0,1,6.376-.1,24.966,24.966,0,0,1-5.792,5.613q.363,3.611.67,7.227.5,6.026.872,12.064c.337,5.592.594,11.187.735,16.787h.154l.082-1.426.031-.52.015-.26.025-.259.1-1.038.1-1.037.047-.52.065-.518.257-2.069.032-.259.04-.257.08-.516.162-1.03.162-1.03.188-1.026c.13-.683.248-1.368.385-2.05l.432-2.04a141.491,141.491,0,0,1,4.589-16.029q1.384-3.934,2.946-7.8t3.3-7.658c1.534-3.35,3.152-6.663,4.882-9.916a39.545,39.545,0,0,1-16.657-29.734,39.591,39.591,0,0,1,16.691,29.67q1.3-2.45,2.7-4.852c-.7,1.2-1.366,2.419-2.023,3.645-.227.422-.45.849-.672,1.273a.126.126,0,0,0,0,.027h0l-.011-.01q-.628,1.2-1.239,2.408-1.882,3.72-3.607,7.516-1.307,2.884-2.524,5.807a49.121,49.121,0,0,1,6.5-2.086,62.835,62.835,0,0,1,6.77-1.321q1.71-.223,3.432-.351l.86-.053.43-.025.43-.015c.288-.01.575-.023.863-.031l.862-.012c.288-.007.575,0,.863,0s.574,0,.862.014c.574.023,1.149.034,1.722.078,1.147.067,2.291.2,3.43.349a39.557,39.557,0,0,1,33.952,3.475c.244,0-9.855,5.446-17.355,4.724-9.372-.9-16.594-8.2-16.594-8.2h0c-1.142-.131-2.286-.247-3.434-.3-.572-.04-1.148-.048-1.72-.069-.288-.007-.575-.005-.862-.007s-.575-.005-.863,0l-.86.017c-.287.007-.573.023-.86.034l-.43.019-.43.026-.859.057q-1.715.137-3.424.367a62.818,62.818,0,0,0-6.766,1.283c-1.115.276-2.223.58-3.319.921-1.077.329-2.151.683-3.2,1.1q-.385.925-.761,1.856-1.558,3.865-2.929,7.8a140.9,140.9,0,0,0-4.621,16.008l-.436,2.038c-.139.682-.259,1.365-.39,2.048l-.192,1.024-.163,1.03-.164,1.029-.081.514-.04.257-.034.259-.27,2.067-.067.516-.051.518-.1,1.037-.1,1.037-.024.259-.017.261-.032.52-.091,1.425h21.168v7.227h0v.322h0v34.873h-42.42V1198.4h20.979l-.4-1.149-.318-.9-.344-.892-.691-1.783-.74-1.762c-.126-.293-.242-.59-.373-.881l-.394-.872c-.265-.581-.52-1.165-.792-1.741-.557-1.146-1.1-2.3-1.692-3.43l-.438-.851-.219-.425-.228-.42-.916-1.679c-.15-.282-.312-.556-.47-.832l-.476-.83-.476-.829c-.16-.276-.327-.546-.491-.82l-.989-1.637-1.021-1.618c-.335-.542-.694-1.07-1.043-1.6s-.7-1.066-1.062-1.589c-1.374-2.046-2.817-4.044-4.3-6.013-1.119-.13-2.244-.2-3.371-.236-1.147-.046-2.3-.052-3.447-.029q-1.8.035-3.586.183a23.975,23.975,0,0,0-1.859,1.9c-.442.5-.872,1.013-1.281,1.542a19.785,19.785,0,0,1,8.954,14.465,19.776,19.776,0,0,1-8.991-14.417c-.141.183-.279.367-.415.556s-.272.371-.4.559-.268.373-.392.568l-.377.579c-.065.1-.124.194-.183.293l-.179.295c-.485.783-.908,1.6-1.325,2.421l.29-.628c.1-.209.19-.419.3-.623l.322-.613c.1-.206.229-.4.341-.6a25.47,25.47,0,0,1,1.517-2.313,25.934,25.934,0,0,1,1.757-2.135c.312-.341.634-.67.963-.994.308-.291.622-.581.952-.849q-1.642.134-3.278.35-1.707.231-3.4.552l-.843.173-.422.088-.421.1c-.28.065-.56.128-.839.2l-.836.215c-.15.036-.3.078-.449.12a19.777,19.777,0,0,1-16.353,4.677,19.784,19.784,0,0,1,16.3-4.731Z" transform="translate(-1296.323 -1063.65)" fill="#112e4c"/>
                    <path id="Trazado_721036" data-name="Trazado 721036" d="M1737.535,1220.48a58.331,58.331,0,0,1-26.5,42.72,104.609,104.609,0,0,1,9.671-22.82,68.545,68.545,0,0,1,16.825-19.9Z" transform="translate(-1619.789 -1190.631)" fill="#112e4c"/>
                    <path id="Trazado_721037" data-name="Trazado 721037" d="M1687.592,1442.117a39.551,39.551,0,0,1,32.364-10.828,39.6,39.6,0,0,1-32.367,10.826Z" transform="translate(-1600.802 -1361.071)" fill="#112e4c"/>
                    <path id="Trazado_721038" data-name="Trazado 721038" d="M1706.325,1549.313a19.681,19.681,0,0,1,4.18-7.622c-.536-.4-1.09-.773-1.652-1.135a24.8,24.8,0,0,0-2.4-1.366c.425.179.835.391,1.243.6s.805.451,1.2.693a25.74,25.74,0,0,1,4.362,3.39c.164.162.335.316.491.485l.476.5c.162.166.308.343.459.518l.449.525c-.624-.677-1.254-1.35-1.934-1.969l-.253-.234c-.083-.08-.168-.158-.255-.232l-.52-.453c-.171-.153-.354-.293-.531-.439s-.356-.292-.541-.428-.365-.283-.55-.423a19.771,19.771,0,0,1-4.728,16.32,19.656,19.656,0,0,1,.5-8.734Z" transform="translate(-1615.342 -1448.683)" fill="#112e4c"/>
                    <path id="Trazado_721039" data-name="Trazado 721039" d="M1770.223,1596.986c1.075-2.689-.154-5.373-3.934-8.411a34.991,34.991,0,0,1-10.369-14.1,39.366,39.366,0,0,1,15.432,8.247c4.619,4,4.581,8.58-1.131,14.259Z" transform="translate(-1656.127 -1477.257)" fill="#112e4c"/>
                  </g>
                </g>
              </g>
            </g>
          </g>
        </g>
      </g>
    </g>
    <g id="Grupo_1013391" data-name="Grupo 1013391" transform="translate(-6697.327 -4846.741)">
      <g id="Grupo_1013390" data-name="Grupo 1013390" clip-path="url(#clip-path-5)">
        <g id="Grupo_1013389" data-name="Grupo 1013389">
          <g id="Grupo_1013388" data-name="Grupo 1013388" clip-path="url(#clip-path-5)">
            <path id="Trazado_729818" data-name="Trazado 729818" d="M59.5,8.511c-.479-2.7-1.668-5.435-3.928-7C52.8-.4,49.119-.151,45.8.383c-4.757.765-9.875,2.247-12.584,6.232a12.707,12.707,0,0,0-1.924,7.951A26.423,26.423,0,0,0,33.354,22.6L45.9,27.878c2.978-4.736,9.648-6.176,12.466-11.009A12.371,12.371,0,0,0,59.5,8.511" transform="translate(84.979 0)" fill="#263238"/>
            <path id="Trazado_729819" data-name="Trazado 729819" d="M74.956,114.735c-.452-1.221-1.817-1.778-2.968-2.387a12.8,12.8,0,0,1,.217-22.736,9.733,9.733,0,0,0,2.943-1.768c1.944-2.105.715-5.481,1.153-8.313.923-6,8.94-8.333,11.093-14.007,1.312-3.462.132-7.295-.571-10.93s-.651-8,2.253-10.3c1.563-1.236,3.686-1.612,5.2-2.909,3.12-2.675,2.239-7.584,2.938-11.634A14.031,14.031,0,0,1,111,18.493s-3.328-5.144,2.894-8.941c7.511-4.583,8.881,1.1,12.038-3.031a12.226,12.226,0,0,1,14.9-3.291,35.689,35.689,0,0,0,4.508,2.507c1.984.7,4.152.482,6.25.632,8,.572,22.519,8.056,19.522,18.76l-41.163,95.585a93.507,93.507,0,0,0-16.442,7.955c-1.525,1-2.033,14.293-3.764,14.863a11.669,11.669,0,0,1-6.719-.1,19.24,19.24,0,0,1-11.408-8.851,12.3,12.3,0,0,1-17.682-15.749c.635-1.306,1.525-2.736,1.021-4.1" transform="translate(-52.038 -0.502)" fill="#263238"/>
            <path id="Trazado_729820" data-name="Trazado 729820" d="M124.843,46.13l.491-6.142-36.5-9.245c-11.314-1.889-24.313,8.781-25.72,20.165-1.563,12.648-2.974,28.151-2.039,37.713C62.949,107.85,77.4,111.153,77.4,111.153l-1.057,18.912,42.092,3.064Z" transform="translate(-2.578 -7.801)" fill="#ffc09d"/>
            <path id="Trazado_729821" data-name="Trazado 729821" d="M128.558,81.022a2.447,2.447,0,0,0,2.207,2.606,2.34,2.34,0,0,0,2.65-2.051,2.448,2.448,0,0,0-2.2-2.608,2.343,2.343,0,0,0-2.654,2.052" transform="translate(-61.125 -20.177)" fill="#263238"/>
            <path id="Trazado_729822" data-name="Trazado 729822" d="M126.653,68.313c.284.336,2.217-.922,4.846-.756,2.627.127,4.475,1.6,4.779,1.29.149-.133-.125-.727-.928-1.389a6.709,6.709,0,0,0-3.8-1.427,6.435,6.435,0,0,0-3.879,1c-.846.571-1.155,1.131-1.014,1.283" transform="translate(-62.58 -16.872)" fill="#263238"/>
            <path id="Trazado_729823" data-name="Trazado 729823" d="M96.727,81.958a2.447,2.447,0,0,0,2.207,2.606,2.341,2.341,0,0,0,2.65-2.051,2.448,2.448,0,0,0-2.2-2.608,2.342,2.342,0,0,0-2.653,2.052" transform="translate(-5.598 -20.417)" fill="#263238"/>
            <path id="Trazado_729824" data-name="Trazado 729824" d="M91.982,71.06c.285.336,2.219-.921,4.846-.756,2.627.127,4.476,1.6,4.78,1.29.149-.133-.122-.727-.928-1.389a6.7,6.7,0,0,0-3.8-1.427,6.456,6.456,0,0,0-3.881,1c-.842.572-1.152,1.132-1.013,1.283" transform="translate(-2.1 -17.574)" fill="#263238"/>
            <path id="Trazado_729825" data-name="Trazado 729825" d="M122.491,89.768c.022-.148-1.6-.529-4.223-1.027-.667-.11-1.295-.281-1.38-.747a3.426,3.426,0,0,1,.568-1.962q1.093-2.38,2.293-4.992c3.194-7.111,5.55-12.975,5.262-13.1s-3.111,5.535-6.3,12.647q-1.157,2.631-2.211,5.027a3.889,3.889,0,0,0-.507,2.613,1.69,1.69,0,0,0,1.045,1.048,4.576,4.576,0,0,0,1.13.226c2.656.3,4.308.415,4.327.267" transform="translate(-43.321 -17.362)" fill="#263238"/>
            <path id="Trazado_729826" data-name="Trazado 729826" d="M89.731,137.091a50.522,50.522,0,0,0,26.571-5.27s-7.236,12.949-26.844,10.019Z" transform="translate(-14.901 -33.689)" fill="#ff9b6c"/>
            <path id="Trazado_729827" data-name="Trazado 729827" d="M97.905,64.424c-.045-.76-2.663-1.181-5.519-2.416-2.881-1.179-5.012-2.753-5.588-2.255-.263.243-.038,1.012.73,1.964a10.474,10.474,0,0,0,8.462,3.558c1.218-.115,1.925-.494,1.915-.851" transform="translate(5.555 -15.246)" fill="#263238"/>
            <path id="Trazado_729828" data-name="Trazado 729828" d="M135.619,55.137c-.667-.356-2.07.951-4.05,1.867-1.947.986-3.842,1.277-3.975,2.022-.045.354.465.782,1.432.969a6.458,6.458,0,0,0,6.465-3.133c.453-.876.433-1.542.127-1.726" transform="translate(-62.828 -14.076)" fill="#263238"/>
            <path id="Trazado_729829" data-name="Trazado 729829" d="M12.264,35.563A31.974,31.974,0,0,1,29.653,24.082L60.492,27.96l8.428,5.071c.578-1.943-.986-4.153-.986-4.153,2.9-2.221,12.8-5.795,19.791,1.519,2.524,2.638,4.634,9.658,4.692,13.309.022,1.382-.109,3.065,1.045,3.824a3.986,3.986,0,0,0,1.368.456c7.843,1.717,13.414,10.426,11.682,18.267a4.149,4.149,0,0,0-.169,1.569,4.286,4.286,0,0,0,1.375,2.043,13.614,13.614,0,0,1,2.16,15.149c-.765,1.493-1.831,2.889-2.1,4.546-.476,2.966,1.691,5.61,3.369,8.1,5.031,7.471,6.113,18.325.2,25.126-1.435,1.653-3.285,3.128-3.823,5.251a12.628,12.628,0,0,0-.17,3.2c.037,5.427-2.823,11.5-8.128,12.644-2.945.635-6.521-.2-8.617,1.968a12.793,12.793,0,0,0-1.879,3.437,11.006,11.006,0,0,1-12.683,5.458c-4.785-1.475-6.372-20.89-5.678-25.849-5.8-2.107-10.086-2.48-9.815-8.642,0,0,.9-10.6-.82-15.769s1.727-16.158,3.689-21.5-.376-17.767-.9-22.708a17.953,17.953,0,0,1,.409-4.228l0,0,.005-.015c.214-1.2.5-2.553.827-4a38.272,38.272,0,0,0,.109-3.981,7.037,7.037,0,0,0-9.2-6.529,11.422,11.422,0,0,1-3.322.6,11.831,11.831,0,0,1-9.524-4.514A17.021,17.021,0,0,1,25.03,42.2c-2.381,3.324-4.8,6.69-7.971,9.274s-7.231,4.336-11.3,3.883a31.973,31.973,0,0,1,6.5-19.8" transform="translate(48.341 -6.154)" fill="#263238"/>
            <path id="Trazado_729830" data-name="Trazado 729830" d="M76.288,40.559c.056,0-.034-.694.069-1.94a12.326,12.326,0,0,1,1.577-5.028,11.318,11.318,0,0,1,5.9-5.07,11.9,11.9,0,0,1,9.589.592l.224.119.162-.2a17.632,17.632,0,0,1,4.2-3.678,17.851,17.851,0,0,1,11.46-2.6,17.492,17.492,0,0,1,8.881,3.837,18.712,18.712,0,0,1,4.3,5.016c.781,1.367,1.08,2.2,1.14,2.172a2.417,2.417,0,0,0-.185-.612,13.488,13.488,0,0,0-.741-1.678,17.92,17.92,0,0,0-13.322-9.308,18.144,18.144,0,0,0-16.212,6.466l.384-.077a12.362,12.362,0,0,0-10.071-.554,11.607,11.607,0,0,0-6.064,5.379,11.893,11.893,0,0,0-1.443,5.211,8.347,8.347,0,0,0,.055,1.457,1.71,1.71,0,0,0,.094.5" transform="translate(-12.476 -5.631)" fill="#455a64"/>
            <path id="Trazado_729831" data-name="Trazado 729831" d="M65.932,43.934c-.115.062-.682-1.192-2.151-2.767a13.084,13.084,0,0,0-15.29-3.013c-1.958.9-2.958,1.844-3.041,1.743-.03-.033.186-.3.647-.717a10.931,10.931,0,0,1,2.17-1.483A12.8,12.8,0,0,1,64.16,40.83a10.922,10.922,0,0,1,1.446,2.2c.268.56.366.89.326.908" transform="translate(68.225 -9.251)" fill="#455a64"/>
            <path id="Trazado_729832" data-name="Trazado 729832" d="M66.073,103.166a7.36,7.36,0,0,1-2.44-1.609A11.457,11.457,0,0,1,60.2,94.431a11.123,11.123,0,0,1,.753-5.509,11.373,11.373,0,0,1,1.642-2.659,7.109,7.109,0,0,0,1.556-2.638,3.265,3.265,0,0,0-.9-2.839c-.721-.846-1.658-1.578-2.519-2.466A6.316,6.316,0,0,1,58.9,74.963a9.246,9.246,0,0,1,.182-3.907c.652-2.574,2.026-4.72,2.882-6.928a13.8,13.8,0,0,0-4.74-16.3,14.444,14.444,0,0,0-7.29-2.571c-1.856-.125-2.884.109-2.893.03a3.017,3.017,0,0,1,.737-.174,12.1,12.1,0,0,1,2.169-.135,14.229,14.229,0,0,1,7.564,2.432A13.961,13.961,0,0,1,63.523,57.4a14.176,14.176,0,0,1-.9,6.989c-.884,2.285-2.236,4.428-2.84,6.842a8.577,8.577,0,0,0-.178,3.6,5.607,5.607,0,0,0,1.632,3c.813.848,1.753,1.586,2.538,2.512a3.939,3.939,0,0,1,1.018,3.425,7.607,7.607,0,0,1-1.708,2.888A10.033,10.033,0,0,0,60.7,94.381a11.453,11.453,0,0,0,3.127,6.975,19.512,19.512,0,0,0,2.244,1.81" transform="translate(66.899 -11.493)" fill="#455a64"/>
            <path id="Trazado_729833" data-name="Trazado 729833" d="M69.434,30.24A14.5,14.5,0,0,0,65.846,26.2a13.185,13.185,0,0,0-5.326-2.285,17.954,17.954,0,0,0-7.124.232,11.236,11.236,0,0,0-1.4.447l-.421.161-.131-.421a19.711,19.711,0,0,0-6.889-9.707,46.3,46.3,0,0,0-4.248-2.613,3.975,3.975,0,0,1,1.3.383A16.526,16.526,0,0,1,44.89,14.17a19.188,19.188,0,0,1,7.347,9.918l-.551-.259a11.92,11.92,0,0,1,1.506-.487,17.922,17.922,0,0,1,7.467-.179A13.155,13.155,0,0,1,66.2,25.73a10.182,10.182,0,0,1,2.682,3.113,3.653,3.653,0,0,1,.552,1.4" transform="translate(68.548 -3.068)" fill="#455a64"/>
            <path id="Trazado_729834" data-name="Trazado 729834" d="M106.554,105.16a4.651,4.651,0,0,1,4.077-1.934,4.245,4.245,0,0,1,3.008,1.424,2.692,2.692,0,0,1,.359,3.063,3.121,3.121,0,0,1-3.337,1.024,9.777,9.777,0,0,1-3.394-1.8,2.862,2.862,0,0,1-.774-.726.864.864,0,0,1-.045-.96" transform="translate(-25.481 -26.379)" fill="#ff9b6c"/>
            <path id="Trazado_729835" data-name="Trazado 729835" d="M115.547,99.439c-.421,0-.285,2.795-2.581,4.9s-5.289,1.948-5.291,2.34c-.03.178.692.511,1.952.482a6.975,6.975,0,0,0,4.425-1.795,6.071,6.071,0,0,0,1.985-4.1c.048-1.174-.3-1.852-.489-1.826" transform="translate(-28.2 -25.413)" fill="#263238"/>
            <path id="Trazado_729836" data-name="Trazado 729836" d="M145.39,164.251l-20.713-8.3s-22.67,8.647-34.123,7.946-21.969-7.946-21.969-7.946l-31.056,9.271-1.912,35.968L37.97,262.58s-5.259,20.765-4.616,28,7.157,10.7,7.157,10.7L38.972,310.6H137.9l-2.025-9.5s12.965-1.089,9.649-20.584c-.995-5.85-10.045-17.1-6.157-40.817,4.12-25.126,6.028-75.447,6.028-75.447" transform="translate(-2.854 -39.856)" fill="#f9a21b"/>
            <g id="Grupo_1013387" data-name="Grupo 1013387" transform="translate(30.101 182.375)" opacity="0.3">
              <g id="Grupo_1013386" data-name="Grupo 1013386">
                <g id="Grupo_1013385" data-name="Grupo 1013385" clip-path="url(#clip-path-7)">
                  <path id="Trazado_729837" data-name="Trazado 729837" d="M47.226,260.084c2.329-4.227,4.945-8.495,8.918-11.234,4.167-2.872,9.4-3.75,14.459-3.856,7.516-.156,15.2,1.3,21.656,5.148,8.92,5.323,14.643,14.589,19.693,23.666s10,18.6,18.09,25.116l16.245,11.933a48,48,0,0,1-44.593-17.3c-8.849-11.239-12.684-26.579-24.167-35.11a24.1,24.1,0,0,0-7.313-3.788c-3.9-1.185-8.394-1.081-11.776,1.2-4.291,2.892-5.815,8.4-6.912,13.455C48.3,284.192,45.7,300.037,35.953,311.733c-.658.79-1.82,1.6-2.589.921a1.977,1.977,0,0,1-.465-1.439c-.774-17.909,5.676-35.431,14.327-51.131" transform="translate(-32.836 -244.983)"/>
                </g>
              </g>
            </g>
            <path id="Trazado_729838" data-name="Trazado 729838" d="M191.052,168.352s-14.084.543-21.645,33.161c-3.366,14.523-18.625,64.334-11.175,78.9,6.85,13.388,13.546,14.744,22.35,13.976s19.554-32.262,19.554-32.262v-7.788L207.73,236.6l-11.271-26.611" transform="translate(-156.019 -43.024)" fill="#ee9916"/>
            <path id="Trazado_729839" data-name="Trazado 729839" d="M196.465,209.991s.055.16.179.468l.558,1.362,2.192,5.258,8.227,19.571v-.1L200,254.273l-.013.029v.031c0,2.431-.006,5.073-.009,7.789l.009-.053c-1.588,4.5-3.44,9.173-5.6,13.925-1.082,2.375-2.256,4.766-3.561,7.136a49.045,49.045,0,0,1-4.484,6.9,17.018,17.018,0,0,1-2.965,2.939,5.62,5.62,0,0,1-.876.566,5.057,5.057,0,0,1-.944.429,5.872,5.872,0,0,1-1,.229l-1.073.077a28.509,28.509,0,0,1-4.324.007A20.747,20.747,0,0,1,173,294a16.321,16.321,0,0,1-2.107-.572,16.872,16.872,0,0,1-7.19-5.023,37.231,37.231,0,0,1-5.018-7.581,18.127,18.127,0,0,1-1.851-5.935,42.636,42.636,0,0,1-.424-6.184,98.714,98.714,0,0,1,.878-12.122c1.024-7.915,2.574-15.47,4.179-22.628s3.345-13.917,4.986-20.235l2.365-9.148c.708-2.952,1.436-5.76,2.129-8.446a78.6,78.6,0,0,1,5.37-13.934,35.681,35.681,0,0,1,6.523-9.152,18.458,18.458,0,0,1,5.827-4.025c.378-.15.721-.257,1.012-.363l.753-.2c.41-.08.623-.109.623-.109s-.054,0-.16,0l-.47.066-.762.179c-.293.1-.642.2-1.024.348a18.221,18.221,0,0,0-5.9,3.989,35.568,35.568,0,0,0-6.611,9.159,78.335,78.335,0,0,0-5.442,13.96c-.7,2.688-1.443,5.508-2.156,8.448q-1.148,4.4-2.386,9.14c-1.655,6.315-3.4,13.074-5.023,20.237s-3.175,14.724-4.208,22.659a98.83,98.83,0,0,0-.887,12.17,42.818,42.818,0,0,0,.427,6.241,18.517,18.517,0,0,0,1.89,6.057,37.577,37.577,0,0,0,5.072,7.657,17.246,17.246,0,0,0,7.355,5.13,16.607,16.607,0,0,0,2.158.586,21.318,21.318,0,0,0,2.2.281,28.849,28.849,0,0,0,4.379-.01l1.082-.078a6.159,6.159,0,0,0,1.09-.249,5.426,5.426,0,0,0,1-.456,6,6,0,0,0,.916-.593,17.349,17.349,0,0,0,3.033-3.009,49.266,49.266,0,0,0,4.512-6.962c1.309-2.383,2.483-4.782,3.564-7.165,2.159-4.768,4-9.445,5.588-13.966l.009-.025v-.028c0-2.716-.006-5.358-.009-7.789l-.013.06,7.567-17.743.022-.049-.021-.049-8.332-19.527c-.978-2.273-1.735-4.031-2.252-5.232l-.59-1.35c-.135-.3-.211-.453-.211-.453" transform="translate(-156.024 -43.024)" fill="#263238"/>
            <path id="Trazado_729840" data-name="Trazado 729840" d="M175.343,193.38a6.377,6.377,0,0,0,.18,1.122c.152.785.348,1.805.586,3.032a74.634,74.634,0,0,1,1.239,10.087,51.1,51.1,0,0,1-.567,10.13c-.208,1.284-.4,2.322-.555,3.034a6.342,6.342,0,0,0-.191,1.12,6.365,6.365,0,0,0,.337-1.085c.2-.7.435-1.737.679-3.022a45.688,45.688,0,0,0,.684-10.193,63.267,63.267,0,0,0-1.357-10.124c-.275-1.277-.518-2.306-.708-3.012a6.313,6.313,0,0,0-.327-1.088" transform="translate(-140.311 -49.421)" fill="#263238"/>
            <path id="Trazado_729841" data-name="Trazado 729841" d="M124.892,160.913c2.64-1.757,3.357-5.842,2.149-8.927a12.35,12.35,0,0,0-6.786-6.486c-4.764-2.084-10.1-2.092-15.19-1.336A58.606,58.606,0,0,0,76.835,156.9a114.142,114.142,0,0,0-26.446-16.677c-2.176-.982-4.615-1.9-6.838-1.053a7.18,7.18,0,0,0-3.884,4.669,23.4,23.4,0,0,0-.8,6.41c-.1,3.124-.036,6.684,2.121,8.768,1.391,1.343,3.34,1.727,5.181,2.058,13.236,2.375,26.807,4.748,39.985,2.021,6.473-1.34,12.7-3.887,19.189-5.116s12.941,1.839,19.547,2.928" transform="translate(11.473 -35.482)" fill="#dc8b0e"/>
            <path id="Trazado_729842" data-name="Trazado 729842" d="M177.457,204.518c-.024.065,1.188.5,3.051,1.392a36.586,36.586,0,0,1,12.553,9.926c1.3,1.605,2,2.685,2.058,2.647a4.069,4.069,0,0,0-.438-.791,23.751,23.751,0,0,0-1.4-2.026,32.818,32.818,0,0,0-12.652-10.005,23.931,23.931,0,0,0-2.3-.9,4.018,4.018,0,0,0-.871-.244" transform="translate(-159.228 -52.266)" fill="#263238"/>
            <path id="Trazado_729843" data-name="Trazado 729843" d="M101.187,166.429a2.339,2.339,0,0,0-.267-.408c-.188-.258-.473-.633-.867-1.1a16.212,16.212,0,0,0-3.861-3.389,10.751,10.751,0,0,0-1.531-.777,3.448,3.448,0,0,0-.9-.275,1.2,1.2,0,0,0-1,.294,1.639,1.639,0,0,0-.15,2.026,5.534,5.534,0,0,0,1.566,1.468,15.271,15.271,0,0,0,17.674-.032,5.13,5.13,0,0,0,.849-.7,1.058,1.058,0,0,0,.261-.552.8.8,0,0,0-.18-.607,1.485,1.485,0,0,0-1.024-.421,4,4,0,0,0-1,.083,17.285,17.285,0,0,0-3.4,1.059,38.444,38.444,0,0,0-4.587,2.3c-.522.309-.92.558-1.187.735a2.352,2.352,0,0,0-.394.287,2.308,2.308,0,0,0,.435-.22l1.219-.669a45.146,45.146,0,0,1,4.616-2.182,17.467,17.467,0,0,1,3.354-1,3.719,3.719,0,0,1,.925-.069,1.177,1.177,0,0,1,.788.309.534.534,0,0,1-.086.715,4.946,4.946,0,0,1-.789.634,15.049,15.049,0,0,1-17.263.031,5.245,5.245,0,0,1-1.479-1.351,1.315,1.315,0,0,1,.079-1.617c.4-.4,1.045-.193,1.563.026a10.567,10.567,0,0,1,1.5.736,17.123,17.123,0,0,1,3.887,3.252c.409.444.711.8.919,1.044a2.31,2.31,0,0,0,.328.36" transform="translate(-13.713 -41.01)" fill="#263238"/>
            <path id="Trazado_729844" data-name="Trazado 729844" d="M106.878,196.187a5.978,5.978,0,0,0,.089-1.1c.035-.709.053-1.735.048-3a91.278,91.278,0,0,0-2.289-19.653c-.287-1.235-.54-2.23-.737-2.911a5.929,5.929,0,0,0-.339-1.049,6.145,6.145,0,0,0,.193,1.085l.616,2.932c.5,2.478,1.113,5.92,1.562,9.752s.642,7.321.721,9.848c.031,1.21.056,2.216.075,3a5.975,5.975,0,0,0,.062,1.1" transform="translate(-16.175 -43.055)" fill="#263238"/>
            <path id="Trazado_729845" data-name="Trazado 729845" d="M110.257,184.88a13.789,13.789,0,0,0,.959-2.039c.6-1.385,1.344-3.09,2.166-4.977.839-1.878,1.6-3.577,2.214-4.956a13.674,13.674,0,0,0,.858-2.083,12.3,12.3,0,0,0-1.105,1.965c-.633,1.239-1.464,2.973-2.322,4.917s-1.575,3.727-2.064,5.029a12.279,12.279,0,0,0-.7,2.143" transform="translate(-30.537 -43.657)" fill="#263238"/>
            <path id="Trazado_729846" data-name="Trazado 729846" d="M42.149,168.589a2.019,2.019,0,0,0,.43-.153l1.2-.507c.517-.229,1.152-.5,1.905-.781s1.593-.642,2.555-.951c.954-.332,2-.692,3.144-1.011,1.132-.36,2.367-.651,3.661-.978a72.559,72.559,0,0,1,8.557-1.43,72.4,72.4,0,0,1,8.673-.293c1.333.065,2.6.1,3.782.233,1.184.086,2.281.232,3.281.368,1,.112,1.9.3,2.693.427s1.47.266,2.023.388l1.277.259a2,2,0,0,0,.452.065,2.016,2.016,0,0,0-.433-.141l-1.263-.33c-.548-.146-1.222-.309-2.014-.454s-1.688-.354-2.693-.485c-1-.155-2.1-.317-3.292-.418-1.186-.143-2.46-.2-3.8-.27a68.708,68.708,0,0,0-8.724.265,68.756,68.756,0,0,0-8.6,1.468c-1.3.339-2.538.642-3.671,1.018-1.146.335-2.192.711-3.144,1.062-.961.328-1.8.7-2.544,1.008s-1.376.593-1.885.844l-1.172.574a2.031,2.031,0,0,0-.4.224" transform="translate(50.836 -41.424)" fill="#263238"/>
            <path id="Trazado_729847" data-name="Trazado 729847" d="M111.161,159.951a8.513,8.513,0,0,0,1.223.471c.8.281,1.955.66,3.4,1.105,2.879.89,6.9,2,11.39,3s8.606,1.688,11.593,2.1c1.493.207,2.7.354,3.544.435a8.428,8.428,0,0,0,1.307.092,8.493,8.493,0,0,0-1.288-.241l-3.522-.556c-2.972-.48-7.066-1.213-11.55-2.206s-8.5-2.066-11.4-2.888l-3.427-.986a8.5,8.5,0,0,0-1.269-.327" transform="translate(-58.369 -40.877)" fill="#263238"/>
            <path id="Trazado_729848" data-name="Trazado 729848" d="M113.4,230.447s11.175-14.824,14.649-16.474S155.537,201.6,157.5,200.7s4.761.517,4.193,1.618-2.23,3.669-2.23,3.669l3.948-1.813,3.15,9.8s-11.577,14.7-14.927,18.776-16.938,7.229-16.938,7.229l-2.657,5.329c-13.329-.546-18.637-14.86-18.637-14.86" transform="translate(-82.985 -51.217)" fill="#ffc09d"/>
            <path id="Trazado_729849" data-name="Trazado 729849" d="M158.511,221.486s-3.269-13.337-4.779-15.9-7.551-9.665-8.306-12.233-.561-4.531-1.64-4.833-3.8,2.265-3.8,4.984,3.8,10.873,3.8,10.873-13.009-4.833-16.936-6.191-15.1-1.813-15.1-1.813-1.813,2.719.6,4.531l-6.041-.6s-.6,3.322,1.359,4.228l-3.323-.906s-2.265,3.625,2.416,5.739l1.36.6s-1.662,2.568.453,4.38,11.024,6.041,12.534,7.7,10.572,10.27,14.8,11.629a106.565,106.565,0,0,1,10.539,4.4Z" transform="translate(-67.785 -48.172)" fill="#ffc09d"/>
            <path id="Trazado_729850" data-name="Trazado 729850" d="M158.7,221.435s-.081.095-.224.282l-.629.838-2.4,3.249c-2.085,2.844-5.11,6.969-8.9,12.143l.151-.038c-2.814-1.334-5.928-2.762-9.408-4.035a15.056,15.056,0,0,1-2.593-1.047,24.559,24.559,0,0,1-2.458-1.54c-1.61-1.139-3.2-2.423-4.793-3.789s-3.194-2.821-4.777-4.368c-.395-.386-.792-.779-1.169-1.184a7.85,7.85,0,0,0-1.351-1.081c-.954-.636-1.951-1.212-2.96-1.791-2.019-1.153-4.116-2.27-6.189-3.506-.517-.309-1.029-.631-1.523-.975a3.96,3.96,0,0,1-1.238-1.227,3.368,3.368,0,0,1,.237-3.353l.109-.185-.191-.089a8.683,8.683,0,0,1-3.485-2.151,3.2,3.2,0,0,1-.719-1.9,4.007,4.007,0,0,1,.514-2.021l-.211.083,3.322.907,1.79.489-1.659-.849a2.147,2.147,0,0,1-.782-.67,3.205,3.205,0,0,1-.421-1.018,6.41,6.41,0,0,1-.047-2.331l-.209.158,6.04.6.606.061-.47-.409-.023-.02a2.752,2.752,0,0,1-1.143-1.984,3.95,3.95,0,0,1,.607-2.264l-.169.086c2.952.136,5.868.345,8.725.655,1.427.158,2.841.348,4.222.616a17.761,17.761,0,0,1,2.027.5l1.968.714,15.041,5.487.4.145-.178-.386c-.846-1.84-1.627-3.674-2.321-5.49-.349-.908-.666-1.816-.944-2.722a9.248,9.248,0,0,1-.52-2.715,5.175,5.175,0,0,1,.811-2.519,5.892,5.892,0,0,1,1.78-1.889c.35-.211.775-.412,1.092-.258a1.356,1.356,0,0,1,.619.942c.219.809.321,1.663.506,2.482.086.412.191.817.3,1.216.067.2.147.4.222.594l.276.555a23.92,23.92,0,0,0,1.264,2.043c.881,1.3,1.786,2.512,2.658,3.676l2.513,3.348a13.534,13.534,0,0,1,1.963,3.234c.872,2.252,1.464,4.348,2,6.159s.948,3.375,1.289,4.64.594,2.226.773,2.9l.2.744a1.985,1.985,0,0,0,.077.25,1.715,1.715,0,0,0-.048-.257l-.173-.752c-.167-.674-.407-1.648-.72-2.911s-.731-2.832-1.24-4.656-1.094-3.916-1.96-6.193a13.715,13.715,0,0,0-1.971-3.293l-2.5-3.363c-.866-1.167-1.764-2.381-2.635-3.677a10.649,10.649,0,0,1-2.008-4.316c-.181-.812-.275-1.65-.5-2.505a1.635,1.635,0,0,0-.785-1.139,1.041,1.041,0,0,0-.747-.024,2.754,2.754,0,0,0-.635.3,6.209,6.209,0,0,0-1.888,1.987,5.483,5.483,0,0,0-.866,2.676,9.541,9.541,0,0,0,.526,2.821q.42,1.377.945,2.747,1.044,2.744,2.32,5.519l.222-.24-15.04-5.511-1.972-.717a17.947,17.947,0,0,0-2.075-.52c-1.4-.272-2.82-.464-4.254-.624-2.869-.313-5.788-.523-8.752-.661l-.114-.005-.055.092a4.326,4.326,0,0,0-.671,2.509,3.145,3.145,0,0,0,1.295,2.262l.026.022.135-.348-6.041-.6-.183-.018-.026.176a6.762,6.762,0,0,0,.051,2.488,3.57,3.57,0,0,0,.479,1.149,2.535,2.535,0,0,0,.939.8l.131-.36-3.322-.905-.144-.039-.068.123a4.358,4.358,0,0,0-.572,2.236,3.587,3.587,0,0,0,.8,2.122,5.284,5.284,0,0,0,.8.788,7.443,7.443,0,0,0,.928.585c.64.352,1.28.6,1.9.884l-.082-.274a4.57,4.57,0,0,0-.625,1.842,3.093,3.093,0,0,0,.382,1.9,4.335,4.335,0,0,0,1.347,1.343c.508.354,1.027.677,1.548.988,2.087,1.241,4.184,2.353,6.2,3.5,1.006.575,2,1.149,2.941,1.772a7.559,7.559,0,0,1,1.292,1.025c.389.416.786.807,1.184,1.2,1.594,1.55,3.2,3,4.8,4.37s3.2,2.651,4.829,3.794a24.879,24.879,0,0,0,2.5,1.551,15.348,15.348,0,0,0,2.635,1.054c3.466,1.253,6.588,2.667,9.4,3.983l.092.043.059-.081,8.833-12.245,2.342-3.274.6-.846c.133-.19.191-.289.191-.289" transform="translate(-67.97 -48.121)" fill="#ff9b6c"/>
            <path id="Trazado_729851" data-name="Trazado 729851" d="M137.428,205.15a3.834,3.834,0,0,0,.867.124c.559.052,1.368.137,2.361.267a56.125,56.125,0,0,1,7.672,1.528c1.472.411,2.854.87,4.1,1.327,1.233.481,2.337.934,3.234,1.38,1.806.866,2.856,1.534,2.893,1.476a3.782,3.782,0,0,0-.706-.52c-.232-.162-.525-.343-.873-.542s-.74-.434-1.192-.66a33.872,33.872,0,0,0-3.228-1.468c-1.245-.48-2.637-.953-4.121-1.368a45.724,45.724,0,0,0-7.744-1.426c-1-.1-1.819-.139-2.383-.144a3.792,3.792,0,0,0-.876.027" transform="translate(-92.862 -52.421)" fill="#ff9b6c"/>
            <path id="Trazado_729852" data-name="Trazado 729852" d="M164.793,216.847a3.112,3.112,0,0,0-.611-.5,21.254,21.254,0,0,0-1.8-1.189,31.917,31.917,0,0,0-6.488-2.907,46.259,46.259,0,0,0-6.919-1.622c-.9-.141-1.627-.237-2.133-.288a3.069,3.069,0,0,0-.79-.042,3.151,3.151,0,0,0,.768.191l2.107.409a60.535,60.535,0,0,1,6.847,1.721,37.738,37.738,0,0,1,6.471,2.777c1.582.872,2.507,1.509,2.546,1.454" transform="translate(-105.525 -53.74)" fill="#ff9b6c"/>
            <path id="Trazado_729853" data-name="Trazado 729853" d="M148.732,216.619c-.01.063.989.235,2.571.639a35.817,35.817,0,0,1,11.533,5.237c1.344.925,2.131,1.563,2.172,1.515.018-.021-.162-.2-.5-.509s-.853-.734-1.51-1.228a30.2,30.2,0,0,0-11.63-5.282c-.8-.17-1.461-.279-1.918-.328a2.526,2.526,0,0,0-.715-.044" transform="translate(-107.734 -55.356)" fill="#ff9b6c"/>
            <path id="Trazado_729854" data-name="Trazado 729854" d="M65.708,167.834c.789.263,2.926.773,9.729,6.837,5.711,5.09,9.371,14.7,11.643,23.418a112.245,112.245,0,0,1,3.507,25.889c.255,11.863.725,33.892.749,36.572.048,5.46.549,26.12-24.257,28.818C49.55,291.274,20.211,264,18.9,259.528s-2.724-11.122-2.724-11.122L.235,234.1,14.96,213.849l41.543,25.1-5.126-32.464" transform="translate(76.478 -42.892)" fill="#ee9916"/>
            <path id="Trazado_729855" data-name="Trazado 729855" d="M51.382,206.488s.02.189.073.558.137.922.243,1.639l.975,6.364c.865,5.565,2.13,13.681,3.724,23.921l.171-.115L15.05,213.709l-.129-.079-.089.123L.1,233.99l-.1.131.121.109,15.932,14.316-.057-.1c.715,3.3,1.481,6.647,2.4,10.012.123.422.22.837.377,1.265a5.766,5.766,0,0,0,.66,1.187A23.248,23.248,0,0,0,21.083,263c1.163,1.339,2.411,2.612,3.694,3.863A118.32,118.32,0,0,0,41.9,280.533a65.513,65.513,0,0,0,15.618,7.785,24.88,24.88,0,0,0,8.462,1.3,35.852,35.852,0,0,0,8.292-1.532,25.826,25.826,0,0,0,7.44-3.633,21.344,21.344,0,0,0,5.593-5.886,29.35,29.35,0,0,0,4.2-15.01c.081-2.565-.039-5.079-.075-7.566q-.078-3.73-.155-7.357-.152-7.253-.3-14.068c-.112-4.54-.159-8.92-.313-13.137a116.272,116.272,0,0,0-1.147-12.073A100.417,100.417,0,0,0,84.4,189.171c-2.156-5.743-4.837-10.429-7.86-13.55-1.545-1.524-3.04-2.722-4.326-3.78a40.87,40.87,0,0,0-3.392-2.49,14.173,14.173,0,0,0-2.272-1.237,6.194,6.194,0,0,0-.837-.28s.07.029.208.078.346.123.613.238a15.064,15.064,0,0,1,2.245,1.266c.947.624,2.074,1.465,3.361,2.515s2.768,2.276,4.289,3.794c2.984,3.115,5.635,7.788,7.764,13.521A100.65,100.65,0,0,1,89.24,209.4a116.355,116.355,0,0,1,1.118,12.046c.147,4.205.186,8.594.29,13.13s.184,9.232.278,14.067q.074,3.626.147,7.357c.032,2.484.15,5.012.067,7.55a29.033,29.033,0,0,1-4.15,14.822,21.017,21.017,0,0,1-5.5,5.782,25.518,25.518,0,0,1-7.335,3.576,35.562,35.562,0,0,1-8.194,1.511,24.522,24.522,0,0,1-8.332-1.29,65.18,65.18,0,0,1-15.519-7.741,118.036,118.036,0,0,1-17.064-13.625c-1.277-1.245-2.52-2.512-3.673-3.837a23.077,23.077,0,0,1-1.62-2.052,5.553,5.553,0,0,1-.616-1.1c-.145-.391-.25-.828-.369-1.241-.921-3.35-1.69-6.7-2.4-9.987l-.013-.06-.045-.041L.36,233.963l.026.239L15.1,213.947l-.219.044,41.569,25.06.211.127-.039-.243c-1.639-10.232-2.938-18.343-3.829-23.9-.45-2.77-.8-4.9-1.033-6.355q-.18-1.072-.274-1.635c-.063-.367-.1-.552-.1-.552" transform="translate(76.472 -42.892)" fill="#263238"/>
            <path id="Trazado_729856" data-name="Trazado 729856" d="M41.764,188.492a1.345,1.345,0,0,0-.359.118l-1,.409c-.435.176-.963.4-1.556.709s-1.289.615-2.013,1.041c-.736.406-1.537.859-2.363,1.4-.846.511-1.7,1.135-2.607,1.776a46.659,46.659,0,0,0-10.154,10.228c-.634.913-1.252,1.77-1.758,2.62-.538.829-.984,1.635-1.385,2.373-.422.727-.732,1.423-1.027,2.02s-.525,1.124-.7,1.561l-.4,1a1.362,1.362,0,0,0-.115.36,1.453,1.453,0,0,0,.188-.329c.126-.263.28-.583.468-.971.194-.426.437-.943.754-1.527s.638-1.269,1.072-1.983c.415-.725.872-1.517,1.418-2.334.513-.837,1.137-1.682,1.774-2.582a49,49,0,0,1,10.079-10.152c.9-.644,1.735-1.274,2.568-1.793.813-.552,1.6-1.015,2.323-1.435.711-.44,1.391-.77,1.975-1.087s1.1-.569,1.522-.765l.969-.475a1.425,1.425,0,0,0,.328-.19" transform="translate(114.08 -48.171)" fill="#263238"/>
            <path id="Trazado_729857" data-name="Trazado 729857" d="M93.154,245.081a7.927,7.927,0,0,0-.36,1.108,30.74,30.74,0,0,1-1.082,2.971,38.074,38.074,0,0,1-5.409,8.873,85.429,85.429,0,0,1-7.115,7.646l-2.274,2.215a6.775,6.775,0,0,0-.8.846,6.643,6.643,0,0,0,.905-.736c.565-.494,1.374-1.216,2.359-2.128a71.259,71.259,0,0,0,7.23-7.6,35.283,35.283,0,0,0,5.36-9.012,23.467,23.467,0,0,0,.974-3.034c.1-.363.141-.653.18-.846a.9.9,0,0,0,.034-.3" transform="translate(18.178 -62.634)" fill="#263238"/>
            <path id="Trazado_729858" data-name="Trazado 729858" d="M180.932,278.589c.045,0,.054-.771.232-2.143a18.213,18.213,0,0,1,1.63-5.594,31.276,31.276,0,0,1,4.908-7.133l3.4-3.872c.584-.678,1.193-1.356,1.761-2.1s1.1-1.515,1.624-2.308c2.07-3.194,3.8-6.366,5.507-9.172a51.365,51.365,0,0,1,4.952-7.144,10.023,10.023,0,0,1,4.636-3.385,5.539,5.539,0,0,1,2.119-.071,2.982,2.982,0,0,0-.544-.136,4.375,4.375,0,0,0-1.609.06,9.929,9.929,0,0,0-4.807,3.349,49.4,49.4,0,0,0-5.052,7.141c-1.724,2.8-3.469,5.972-5.527,9.145-.522.787-1.043,1.561-1.606,2.285s-1.161,1.4-1.741,2.082c-1.174,1.346-2.323,2.635-3.386,3.89a30.75,30.75,0,0,0-4.886,7.25,17.486,17.486,0,0,0-1.531,5.691,13.914,13.914,0,0,0-.092,1.6,2.97,2.97,0,0,0,.009.559" transform="translate(-178.389 -60.182)" fill="#263238"/>
            <path id="Trazado_729859" data-name="Trazado 729859" d="M158.193,238.457a5.136,5.136,0,0,0,.22,1.076,19.3,19.3,0,0,0,1,2.826,21.631,21.631,0,0,0,14.671,12.329,19.294,19.294,0,0,0,2.955.5,5.074,5.074,0,0,0,1.1.031,7.163,7.163,0,0,0-1.08-.181,24.7,24.7,0,0,1-2.9-.613,22.393,22.393,0,0,1-14.491-12.178,24.715,24.715,0,0,1-1.1-2.755,7.071,7.071,0,0,0-.364-1.033" transform="translate(-127.901 -60.941)" fill="#263238"/>
            <path id="Trazado_729860" data-name="Trazado 729860" d="M167.745,263.367a1.1,1.1,0,0,0,.042.336c.046.216.092.541.208.946A18.479,18.479,0,0,0,169.219,268a20.125,20.125,0,0,0,19.064,11.567,18.5,18.5,0,0,0,3.534-.459c.412-.084.722-.194.935-.252a1.142,1.142,0,0,0,.317-.118,10.941,10.941,0,0,0-1.282.222,21.711,21.711,0,0,1-3.511.334,20.436,20.436,0,0,1-18.81-11.414,21.65,21.65,0,0,1-1.326-3.267,11.262,11.262,0,0,0-.4-1.24" transform="translate(-149.944 -67.307)" fill="#263238"/>
            <path id="Trazado_729861" data-name="Trazado 729861" d="M49.707,351.964c0,.107,20.663.194,46.145.194s46.15-.086,46.15-.194-20.658-.194-46.15-.194-46.145.086-46.145.194" transform="translate(-11.009 -89.899)" fill="#263238"/>
            <path id="Trazado_729862" data-name="Trazado 729862" d="M69.944,154.313a11.98,11.98,0,0,1-21.307-1.225,12.882,12.882,0,0,1-19.179-14.721c-4.065-.094-6.714-4.381-7.642-8.339a27.014,27.014,0,0,1,7.729-25.4" transform="translate(82.305 -26.738)" fill="#263238"/>
            <path id="Trazado_729863" data-name="Trazado 729863" d="M43.039,275.031a2.215,2.215,0,0,0-.167-.648,13.089,13.089,0,0,0-.69-1.687,18.368,18.368,0,0,0-8.348-8.409,13.077,13.077,0,0,0-1.681-.7,2.212,2.212,0,0,0-.647-.171c-.024.065.867.392,2.2,1.117a20.37,20.37,0,0,1,8.23,8.29c.715,1.341,1.036,2.234,1.1,2.21" transform="translate(101.499 -67.317)" fill="#263238"/>
          </g>
        </g>
      </g>
    </g>
    <g id="Set_of_a_man_character_pointing_his_finger_in_different_directions__up_and_down_and_looking_out_Convertido_2" data-name="Set_of_a_man_character_pointing_his_finger_in_different_directions,_up_and_down_and_looking_out [Convertido]" transform="translate(-6779.669 -4896.669)">
      <g id="SPARKLE" transform="translate(30.7 55.204)">
        <g id="Grupo_1013396" data-name="Grupo 1013396">
          <path id="Trazado_729867" data-name="Trazado 729867" d="M1763.15,789.144l-2.569,1.406,2.569,1.406a7.46,7.46,0,0,1,2.964,2.964l1.406,2.569,1.406-2.569a7.46,7.46,0,0,1,2.964-2.964l2.569-1.406-2.569-1.406a7.46,7.46,0,0,1-2.964-2.964l-1.406-2.569-1.406,2.569A7.46,7.46,0,0,1,1763.15,789.144Z" transform="translate(-1491.699 -705.474)" fill="#1f4168"/>
          <path id="Trazado_729868" data-name="Trazado 729868" d="M1854.913,1211.34l-2.1,1.15,2.1,1.15a6.1,6.1,0,0,1,2.427,2.427l1.15,2.1,1.15-2.1a6.1,6.1,0,0,1,2.426-2.427l2.1-1.15-2.1-1.15a6.1,6.1,0,0,1-2.426-2.427l-1.15-2.1-1.15,2.1A6.1,6.1,0,0,1,1854.913,1211.34Z" transform="translate(-1568.235 -1056.662)" fill="#1f4168"/>
          <path id="Trazado_729869" data-name="Trazado 729869" d="M1563.113,469.3l-2.1,1.15,2.1,1.15a6.1,6.1,0,0,1,2.427,2.426l1.15,2.1,1.15-2.1a6.1,6.1,0,0,1,2.427-2.426l2.1-1.15-2.1-1.15a6.1,6.1,0,0,1-2.427-2.426l-1.15-2.1-1.15,2.1A6.1,6.1,0,0,1,1563.113,469.3Z" transform="translate(-1312.088 -459.968)" fill="#1f4168"/>
          <path id="Trazado_729870" data-name="Trazado 729870" d="M1398.869,729.792l-1.4.766,1.4.766a4.065,4.065,0,0,1,1.613,1.613l.766,1.4.766-1.4a4.065,4.065,0,0,1,1.613-1.613l1.4-.766-1.4-.766a4.065,4.065,0,0,1-1.613-1.613l-.766-1.4-.766,1.4A4.065,4.065,0,0,1,1398.869,729.792Z" transform="translate(-1190.376 -658.314)" fill="#1f4168"/>
          <path id="Trazado_729871" data-name="Trazado 729871" d="M1629.3,1047.3l-1.266.97,1.5.543a4.054,4.054,0,0,1,1.841,1.348l.97,1.266.543-1.5a4.053,4.053,0,0,1,1.348-1.841l1.266-.97-1.5-.543a4.053,4.053,0,0,1-1.841-1.348l-.97-1.266-.543,1.5A4.053,4.053,0,0,1,1629.3,1047.3Z" transform="translate(-1381.704 -921.523)" fill="#1f4168"/>
          <path id="Trazado_729872" data-name="Trazado 729872" d="M1725.2,1502.774l-.888.487.888.487a2.578,2.578,0,0,1,1.026,1.026l.487.888.487-.888a2.578,2.578,0,0,1,1.026-1.026l.888-.487-.888-.487a2.577,2.577,0,0,1-1.026-1.026l-.487-.888-.487.888A2.577,2.577,0,0,1,1725.2,1502.774Z" transform="translate(-1461.601 -1300.676)" fill="#1f4168"/>
          <path id="Trazado_729873" data-name="Trazado 729873" d="M1327.558,326.334l-.888.487.888.487a2.578,2.578,0,0,1,1.026,1.026l.487.888.487-.888a2.577,2.577,0,0,1,1.026-1.026l.888-.487-.888-.487a2.578,2.578,0,0,1-1.026-1.026l-.487-.888-.487.888A2.577,2.577,0,0,1,1327.558,326.334Z" transform="translate(-1131.623 -324.42)" fill="#1f4168"/>
          <path id="Trazado_729874" data-name="Trazado 729874" d="M677.918,326.334l-.888.487.888.487a2.577,2.577,0,0,1,1.026,1.026l.487.888.487-.888a2.577,2.577,0,0,1,1.026-1.026l.888-.487-.888-.487a2.577,2.577,0,0,1-1.026-1.026l-.487-.888-.487.888A2.577,2.577,0,0,1,677.918,326.334Z" transform="translate(-592.527 -324.42)" fill="#1f4168"/>
          <path id="Trazado_729875" data-name="Trazado 729875" d="M432.289,1025.554l2.569,1.406-2.569,1.406a7.46,7.46,0,0,0-2.964,2.964l-1.406,2.569-1.406-2.569a7.46,7.46,0,0,0-2.964-2.964l-2.569-1.406,2.569-1.406a7.46,7.46,0,0,0,2.964-2.964l1.406-2.569,1.406,2.569A7.461,7.461,0,0,0,432.289,1025.554Z" transform="translate(-380.046 -901.656)" fill="#1f4168"/>
          <path id="Trazado_729876" data-name="Trazado 729876" d="M367.757,595.82l2.1,1.15-2.1,1.15a6.1,6.1,0,0,0-2.426,2.427l-1.15,2.1-1.15-2.1a6.1,6.1,0,0,0-2.427-2.427l-2.1-1.15,2.1-1.15a6.1,6.1,0,0,0,2.427-2.426l1.15-2.1,1.15,2.1A6.1,6.1,0,0,0,367.757,595.82Z" transform="translate(-328.198 -545.879)" fill="#1f4168"/>
          <path id="Trazado_729879" data-name="Trazado 729879" d="M300.384,1502.774l.888.487-.888.487a2.578,2.578,0,0,0-1.026,1.026l-.487.888-.487-.888a2.578,2.578,0,0,0-1.026-1.026l-.888-.487.888-.487a2.577,2.577,0,0,0,1.026-1.026l.487-.888.487.888A2.577,2.577,0,0,0,300.384,1502.774Z" transform="translate(-276.723 -1300.676)" fill="#1f4168"/>
          <path id="Trazado_729880" data-name="Trazado 729880" d="M192.154,867.084l.888.487-.888.487a2.577,2.577,0,0,0-1.026,1.026l-.487.888-.487-.888a2.577,2.577,0,0,0-1.026-1.026l-.888-.487.888-.487a2.577,2.577,0,0,0,1.026-1.026l.487-.888.487.888A2.577,2.577,0,0,0,192.154,867.084Z" transform="translate(-186.909 -773.156)" fill="#1f4168"/>
        </g>
      </g>
      <g id="FRONT" transform="translate(53.31 74.972)">
        <g id="Grupo_1013433" data-name="Grupo 1013433">
          <rect id="Rectángulo_348643" data-name="Rectángulo 348643" width="250.718" height="0.51" transform="translate(0 245.587)" fill="#1b1a2e"/>
          <g id="Grupo_1013429" data-name="Grupo 1013429" transform="translate(194.107 44.671)">
            <g id="Grupo_1013428" data-name="Grupo 1013428">
              <path id="Trazado_729983" data-name="Trazado 729983" d="M1276.318,455.584a13.741,13.741,0,0,0-23.387,13.385l-4.6,4.188,7.286.5a13.739,13.739,0,1,0,20.7-18.068Z" transform="translate(-1248.33 -450.799)" fill="#fff"/>
              <g id="Grupo_1013427" data-name="Grupo 1013427">
                <path id="Trazado_729984" data-name="Trazado 729984" d="M1248.33,561.386q.551-.551,1.118-1.082c.376-.356.759-.708,1.142-1.057s.769-.694,1.161-1.036.783-.681,1.183-1.011q-.552.551-1.118,1.082c-.376.356-.759.708-1.142,1.057s-.769.7-1.161,1.036S1248.73,561.056,1248.33,561.386Z" transform="translate(-1248.33 -539.029)" fill="#1b1a2e"/>
                <path id="Trazado_729985" data-name="Trazado 729985" d="M1255.616,582.3q-.914-.026-1.824-.075c-.607-.031-1.215-.07-1.822-.111s-1.215-.087-1.821-.138-1.213-.107-1.819-.172q.914.026,1.824.075c.607.031,1.215.07,1.822.111s1.215.087,1.821.138S1255.011,582.23,1255.616,582.3Z" transform="translate(-1248.33 -559.443)" fill="#1b1a2e"/>
                <path id="Trazado_729986" data-name="Trazado 729986" d="M1271.854,468.584a13.753,13.753,0,0,1-.711-4.982,13.785,13.785,0,0,1,18.03-12.514,13.662,13.662,0,0,1,4.443,2.418,14.206,14.206,0,0,1,1.816,1.776,13.59,13.59,0,0,1,1.465,2.076,13.86,13.86,0,0,1,1.5,9.835,13.671,13.671,0,0,1-1.974,4.656,13.755,13.755,0,0,1-21.878,1.412,13.686,13.686,0,0,0,20.174.456,14,14,0,0,0,1.571-1.957,13.53,13.53,0,0,0,1.942-4.6,13.759,13.759,0,0,0,.155-4.993,13.588,13.588,0,0,0-1.647-4.713,13.242,13.242,0,0,0-1.443-2.05,13.968,13.968,0,0,0-1.788-1.758,13.5,13.5,0,0,0-4.383-2.4,13.709,13.709,0,0,0-17.93,12.354,13.736,13.736,0,0,0,.664,4.979Z" transform="translate(-1267.251 -450.415)" fill="#1b1a2e"/>
              </g>
            </g>
            <path id="Trazado_729987" data-name="Trazado 729987" d="M1329.752,523.629l-5.792-5.792,1.77-1.769,4.023,4.02,9.166-9.166,1.77,1.77Z" transform="translate(-1314.718 -503.38)" fill="#f9a21b"/>
          </g>
          <g id="Grupo_1013432" data-name="Grupo 1013432" transform="translate(18.188 1.671)">
            <g id="Grupo_1013431" data-name="Grupo 1013431">
              <path id="Trazado_729988" data-name="Trazado 729988" d="M530.821,447.044a17.155,17.155,0,0,1,29.2,16.71l5.745,5.227-9.1.618a17.152,17.152,0,0,1-25.844-22.557Z" transform="translate(-526.483 -441.072)" fill="#fff"/>
              <g id="Grupo_1013430" data-name="Grupo 1013430">
                <path id="Trazado_729989" data-name="Trazado 729989" d="M728.775,579.1q-.687-.687-1.4-1.353c-.47-.444-.948-.883-1.424-1.32s-.961-.868-1.448-1.295-.978-.849-1.477-1.263q.687.687,1.4,1.351c.47.444.948.883,1.424,1.32s.961.868,1.448,1.295.978.849,1.477,1.263Z" transform="translate(-689.497 -551.192)" fill="#1b1a2e"/>
                <path id="Trazado_729990" data-name="Trazado 729990" d="M703.33,605.228q1.141-.033,2.278-.094c.759-.039,1.518-.087,2.275-.138s1.516-.107,2.273-.172,1.514-.133,2.27-.214q-1.141.033-2.278.094c-.759.039-1.518.087-2.275.138s-1.516.107-2.273.172S704.086,605.146,703.33,605.228Z" transform="translate(-673.149 -576.701)" fill="#1b1a2e"/>
                <path id="Trazado_729991" data-name="Trazado 729991" d="M559.493,463.273a17.7,17.7,0,0,0,.73-3.068,17.426,17.426,0,0,0,.156-3.151,17.209,17.209,0,0,0-22.507-15.621,17.05,17.05,0,0,0-5.547,3.019,17.68,17.68,0,0,0-2.267,2.219,16.793,16.793,0,0,0-1.829,2.592,17.2,17.2,0,0,0-2.073,5.968,17.388,17.388,0,0,0,.206,6.313,17.1,17.1,0,0,0,2.464,5.813,17.22,17.22,0,0,0,16.405,7.577,17.184,17.184,0,0,0,10.909-5.813,17.159,17.159,0,0,1-17.159,5.265,17,17,0,0,1-8.026-4.7,17.247,17.247,0,0,1-1.96-2.443,16.913,16.913,0,0,1-2.425-5.746,17.087,17.087,0,0,1,1.863-12.117,16.751,16.751,0,0,1,1.8-2.561,17.427,17.427,0,0,1,2.233-2.193,16.808,16.808,0,0,1,5.471-2.99,17.116,17.116,0,0,1,22.385,15.422,17.152,17.152,0,0,1-.829,6.216Z" transform="translate(-525.961 -440.593)" fill="#1b1a2e"/>
              </g>
            </g>
            <path id="Trazado_729992" data-name="Trazado 729992" d="M599.736,531.211l-6.876-6.879,2.1-2.1,4.775,4.775,10.888-10.885,2.1,2.1Z" transform="translate(-585.494 -506.321)" fill="#f9a21b"/>
          </g>
        </g>
      </g>
    </g>
    <g id="Grupo_1013476" data-name="Grupo 1013476" transform="translate(-6740.256 -4718)">
      <g id="Grupo_1013473" data-name="Grupo 1013473">
        <g id="Grupo_1013472" data-name="Grupo 1013472" clip-path="url(#clip-path-10)">
          <path id="Trazado_730106" data-name="Trazado 730106" d="M84.052,71.452l-.465-20.386s-4.54-.881-8.584-7.051c-2.677-4.083-1.69-8.409-2.2-10.2-.314-1.1-2.9-.875-4.03-.744a4.44,4.44,0,0,0-3.591,2.418c-1.381,3.146.551,10.673.551,10.673s.843,1.533-1.3,1.533H56.771a4.168,4.168,0,0,0-2.722.973,3.1,3.1,0,0,0-1.12,2.706c.23,2.912,1.763,4.215,1.763,4.829s-.843,1.686-.23,3.449,1,1.609,1,2.452a13.76,13.76,0,0,0,.69,4.292,6.252,6.252,0,0,0,1.15,1.916,10.613,10.613,0,0,0,.536,4.369c.766,1.61,3.986,2.453,5.059,2.453S71.63,73.6,73.776,73.063s8.206-2.607,10.276-1.611" transform="translate(-52.917 -22.878)" fill="#112e4c"/>
          <path id="Trazado_730107" data-name="Trazado 730107" d="M74.625,72.054V51.436s-4.54-.881-8.584-7.051a34.407,34.407,0,0,1-4.4-9.173,2.341,2.341,0,0,0-2.5-1.705,3.567,3.567,0,0,0-3.108,2.243c-1.381,3.146.727,10.782.727,10.782s.843,1.533-1.3,1.533H47.81a4.167,4.167,0,0,0-2.722.973,3.1,3.1,0,0,0-1.12,2.706c.23,2.913,1.763,4.216,1.763,4.829s-.843,1.686-.23,3.449,1,1.609,1,2.453a13.762,13.762,0,0,0,.69,4.292,6.245,6.245,0,0,0,1.15,1.916,10.614,10.614,0,0,0,.536,4.369c.766,1.609,3.985,2.452,5.058,2.452s8.737-1.533,10.884-2.069,7.741-2.376,9.81-1.38" transform="translate(-40.75 -23.248)" fill="#204266"/>
          <path id="Trazado_730108" data-name="Trazado 730108" d="M62.78,28.259a14.135,14.135,0,0,0,1.7-1.267,14.211,14.211,0,0,0,1.6-1.391,14.14,14.14,0,0,0-1.7,1.267,14.19,14.19,0,0,0-1.6,1.391" transform="translate(-37.968 -17.769)" fill="#263238"/>
          <path id="Trazado_730109" data-name="Trazado 730109" d="M72.953,13.925a5.315,5.315,0,0,0,.6-.765c.349-.488.811-1.175,1.29-1.955S75.722,9.7,76,9.168a5.34,5.34,0,0,0,.41-.88,6.522,6.522,0,0,0-.509.826c-.3.517-.718,1.23-1.194,2.008s-.923,1.473-1.247,1.975a6.524,6.524,0,0,0-.5.829" transform="translate(-51.403 -5.752)" fill="#263238"/>
          <path id="Trazado_730110" data-name="Trazado 730110" d="M93.854,0a27.861,27.861,0,0,0-.08,2.975,27.86,27.86,0,0,0,.08,2.975,27.845,27.845,0,0,0,.08-2.975A27.846,27.846,0,0,0,93.854,0" transform="translate(-75.295)" fill="#263238"/>
          <path id="Trazado_730111" data-name="Trazado 730111" d="M107.563,15.221a11.988,11.988,0,0,0,1.323,1.436,12.022,12.022,0,0,0,1.436,1.323A12.041,12.041,0,0,0,109,16.545a12.01,12.01,0,0,0-1.436-1.323" transform="translate(-95.903 -10.565)" fill="#263238"/>
          <path id="Trazado_730112" data-name="Trazado 730112" d="M116.3,27.061a7.928,7.928,0,0,0,1.065,1.178,7.951,7.951,0,0,0,1.177,1.065,7.949,7.949,0,0,0-1.065-1.177,7.962,7.962,0,0,0-1.177-1.065" transform="translate(-106.798 -18.783)" fill="#263238"/>
          <path id="Trazado_730113" data-name="Trazado 730113" d="M102.828,62.664a3.621,3.621,0,0,0,.484.616c.317.365.77.856,1.291,1.378s1.014.974,1.379,1.291a3.582,3.582,0,0,0,.617.484,4.1,4.1,0,0,0-.54-.566l-1.342-1.321L103.4,63.2a4.127,4.127,0,0,0-.567-.54" transform="translate(-90.731 -43.497)" fill="#455a64"/>
          <path id="Trazado_730114" data-name="Trazado 730114" d="M104.8,53.65a2.726,2.726,0,0,0,.445.558,14.948,14.948,0,0,0,1.241,1.192c.509.439.981.819,1.322,1.1a3.412,3.412,0,0,0,.572.425,15.975,15.975,0,0,0-1.789-1.641c-.506-.437-.95-.846-1.265-1.151a3.786,3.786,0,0,0-.525-.48" transform="translate(-93.115 -37.24)" fill="#455a64"/>
          <path id="Trazado_730115" data-name="Trazado 730115" d="M106.018,45.521a1.864,1.864,0,0,0,.355.462,7.154,7.154,0,0,0,1.046.939c.891.633,1.567,1.191,1.6,1.161a7.409,7.409,0,0,0-1.5-1.289c-.874-.64-1.457-1.309-1.5-1.273" transform="translate(-94.123 -31.597)" fill="#455a64"/>
          <path id="Trazado_730116" data-name="Trazado 730116" d="M105.858,38.74a6.668,6.668,0,0,0,1.05,1,6.655,6.655,0,0,0,1.153.881,6.682,6.682,0,0,0-1.05-1,6.673,6.673,0,0,0-1.153-.881" transform="translate(-93.12 -26.889)" fill="#455a64"/>
          <path id="Trazado_730117" data-name="Trazado 730117" d="M103.318,34.734a4.61,4.61,0,0,0,1.425.941,4.62,4.62,0,0,0-1.425-.941" transform="translate(-89.025 -24.107)" fill="#455a64"/>
          <path id="Trazado_730118" data-name="Trazado 730118" d="M105.583,74.543a14.831,14.831,0,0,0,2.33,2,14.833,14.833,0,0,0-2.33-2" transform="translate(-92.888 -51.742)" fill="#455a64"/>
          <path id="Trazado_730119" data-name="Trazado 730119" d="M138.6,98.046a50.631,50.631,0,0,0,4.689,3.212,50.731,50.731,0,0,0-4.689-3.212" transform="translate(-138.367 -68.057)" fill="#455a64"/>
          <path id="Trazado_730120" data-name="Trazado 730120" d="M144.409,86.617a18.092,18.092,0,0,0,2.793,1.921,18.077,18.077,0,0,0-2.793-1.921" transform="translate(-144.052 -60.123)" fill="#455a64"/>
          <path id="Trazado_730121" data-name="Trazado 730121" d="M138.789,114.4c-.022.041.785.519,1.738,1.171s1.694,1.226,1.724,1.191a2.195,2.195,0,0,0-.446-.427c-.291-.245-.708-.567-1.189-.895s-.932-.6-1.267-.78a2.2,2.2,0,0,0-.561-.259" transform="translate(-137.381 -79.41)" fill="#455a64"/>
          <path id="Trazado_730122" data-name="Trazado 730122" d="M135.581,126.836a31.027,31.027,0,0,0,3.552,2.665,30.937,30.937,0,0,0-3.552-2.665" transform="translate(-133.282 -88.041)" fill="#455a64"/>
          <path id="Trazado_730123" data-name="Trazado 730123" d="M130.683,142.756a2.876,2.876,0,0,0,.51.5c.332.288.805.669,1.349,1.06s1.057.718,1.436.94a2.909,2.909,0,0,0,.634.324,3.491,3.491,0,0,0-.574-.42c-.362-.245-.862-.585-1.4-.974s-1.023-.753-1.371-1.018a3.5,3.5,0,0,0-.581-.41" transform="translate(-127.264 -99.092)" fill="#455a64"/>
          <path id="Trazado_730124" data-name="Trazado 730124" d="M125.33,155.681a3.7,3.7,0,0,0,.6.569c.391.331.948.767,1.582,1.223s1.226.844,1.665,1.108a3.683,3.683,0,0,0,.732.39,5.093,5.093,0,0,0-.671-.485c-.421-.288-1-.689-1.633-1.143s-1.2-.874-1.605-1.182a5.071,5.071,0,0,0-.674-.481" transform="translate(-120.928 -108.064)" fill="#455a64"/>
          <path id="Trazado_730125" data-name="Trazado 730125" d="M130.54,48.4a8.017,8.017,0,0,0,1.593-.08,15.869,15.869,0,0,0-3.185,0,8.018,8.018,0,0,0,1.593.08" transform="translate(-124.252 -33.489)" fill="#263238"/>
        </g>
        <g id="Grupo_1013498" data-name="Grupo 1013498" transform="translate(212.499 -107.225)" clip-path="url(#clip-path-11)">
          <path id="Trazado_734896" data-name="Trazado 734896" d="M72.04,56.6,71.754,44.08s-2.788-.541-5.272-4.331c-1.644-2.508-1.038-5.165-1.354-6.266-.193-.673-1.78-.538-2.475-.457a2.727,2.727,0,0,0-2.205,1.485c-.848,1.932.339,6.555.339,6.555s.518.942-.8.942h-4.7a2.56,2.56,0,0,0-1.672.6,1.9,1.9,0,0,0-.688,1.662c.141,1.789,1.083,2.589,1.083,2.966a3.439,3.439,0,0,0-.141,2.118c.377,1.083.612.988.612,1.506A8.451,8.451,0,0,0,54.9,53.5a3.84,3.84,0,0,0,.706,1.177,6.518,6.518,0,0,0,.329,2.683c.471.989,2.448,1.506,3.107,1.506s5.366-.942,6.684-1.271,5.04-1.6,6.311-.989" transform="translate(-52.917 -26.767)" fill="#112e4c"/>
          <path id="Trazado_734897" data-name="Trazado 734897" d="M62.793,57.176V44.513S60,43.972,57.521,40.182a21.132,21.132,0,0,1-2.7-5.634A1.438,1.438,0,0,0,53.287,33.5a2.191,2.191,0,0,0-1.909,1.377c-.848,1.932.447,6.622.447,6.622s.518.942-.8.942h-4.7a2.559,2.559,0,0,0-1.672.6,1.9,1.9,0,0,0-.688,1.662c.141,1.789,1.083,2.589,1.083,2.966a3.438,3.438,0,0,0-.141,2.118c.377,1.083.612.988.612,1.506a8.453,8.453,0,0,0,.424,2.636,3.836,3.836,0,0,0,.706,1.177,6.519,6.519,0,0,0,.329,2.683c.471.988,2.448,1.506,3.107,1.506s5.366-.941,6.685-1.271,4.754-1.459,6.025-.847" transform="translate(-41.987 -27.2)" fill="#204266"/>
          <path id="Trazado_734898" data-name="Trazado 734898" d="M62.78,27.233a8.682,8.682,0,0,0,1.046-.778,8.728,8.728,0,0,0,.984-.854,8.685,8.685,0,0,0-1.046.778,8.715,8.715,0,0,0-.984.855" transform="translate(-47.54 -20.79)" fill="#263238"/>
          <path id="Trazado_734899" data-name="Trazado 734899" d="M72.953,11.75a3.264,3.264,0,0,0,.367-.47c.214-.3.5-.722.792-1.2s.541-.924.711-1.251a3.28,3.28,0,0,0,.252-.541,4.005,4.005,0,0,0-.313.507c-.185.318-.441.756-.734,1.233s-.567.9-.766,1.213a4.008,4.008,0,0,0-.31.509" transform="translate(-59.717 -6.73)" fill="#263238"/>
          <path id="Trazado_734900" data-name="Trazado 734900" d="M93.823,0a17.114,17.114,0,0,0-.049,1.827,17.114,17.114,0,0,0,.049,1.827,17.1,17.1,0,0,0,.049-1.827A17.1,17.1,0,0,0,93.823,0" transform="translate(-82.424)" fill="#263238"/>
          <path id="Trazado_734901" data-name="Trazado 734901" d="M107.563,15.221a7.362,7.362,0,0,0,.813.882,7.385,7.385,0,0,0,.882.813,7.394,7.394,0,0,0-.813-.882,7.376,7.376,0,0,0-.882-.813" transform="translate(-100.401 -12.361)" fill="#263238"/>
          <path id="Trazado_734902" data-name="Trazado 734902" d="M116.3,27.06a4.869,4.869,0,0,0,.654.723,4.884,4.884,0,0,0,.723.654,4.882,4.882,0,0,0-.654-.723,4.89,4.89,0,0,0-.723-.654" transform="translate(-110.464 -21.976)" fill="#263238"/>
          <path id="Trazado_734903" data-name="Trazado 734903" d="M102.828,62.664a2.223,2.223,0,0,0,.3.379c.195.224.473.526.793.846s.623.6.847.793a2.2,2.2,0,0,0,.379.3,2.521,2.521,0,0,0-.332-.348l-.824-.812L103.176,63a2.536,2.536,0,0,0-.348-.332" transform="translate(-95.398 -50.892)" fill="#455a64"/>
          <path id="Trazado_734904" data-name="Trazado 734904" d="M104.8,53.65a1.675,1.675,0,0,0,.273.343,9.184,9.184,0,0,0,.762.732c.312.27.6.5.812.673a2.1,2.1,0,0,0,.351.261,9.81,9.81,0,0,0-1.1-1.008c-.311-.268-.583-.52-.777-.707a2.324,2.324,0,0,0-.323-.295" transform="translate(-97.623 -43.571)" fill="#455a64"/>
          <path id="Trazado_734905" data-name="Trazado 734905" d="M106.018,45.52a1.145,1.145,0,0,0,.218.284,4.394,4.394,0,0,0,.642.577c.547.388.962.732.98.713a4.55,4.55,0,0,0-.922-.791c-.537-.393-.895-.8-.919-.782" transform="translate(-98.712 -36.968)" fill="#455a64"/>
          <path id="Trazado_734906" data-name="Trazado 734906" d="M105.858,38.739a8.128,8.128,0,0,0,1.353,1.157,8.128,8.128,0,0,0-1.353-1.157" transform="translate(-98.034 -31.46)" fill="#455a64"/>
          <path id="Trazado_734907" data-name="Trazado 734907" d="M103.318,34.732a2.832,2.832,0,0,0,.875.578,2.837,2.837,0,0,0-.875-.578" transform="translate(-94.539 -28.205)" fill="#455a64"/>
          <path id="Trazado_734908" data-name="Trazado 734908" d="M105.583,74.542a9.109,9.109,0,0,0,1.431,1.227,9.11,9.11,0,0,0-1.431-1.227" transform="translate(-97.786 -60.538)" fill="#455a64"/>
          <path id="Trazado_734909" data-name="Trazado 734909" d="M138.6,98.045a31.1,31.1,0,0,0,2.88,1.973,31.159,31.159,0,0,0-2.88-1.973" transform="translate(-138.458 -79.626)" fill="#455a64"/>
          <path id="Trazado_734910" data-name="Trazado 734910" d="M144.409,86.616a11.113,11.113,0,0,0,1.715,1.18,11.1,11.1,0,0,0-1.715-1.18" transform="translate(-144.189 -70.344)" fill="#455a64"/>
          <path id="Trazado_734911" data-name="Trazado 734911" d="M138.789,114.4c-.014.025.482.319,1.067.719s1.041.753,1.059.731a1.348,1.348,0,0,0-.274-.262c-.179-.151-.435-.348-.73-.55s-.572-.367-.778-.479a1.348,1.348,0,0,0-.344-.159" transform="translate(-137.924 -92.91)" fill="#455a64"/>
          <path id="Trazado_734912" data-name="Trazado 734912" d="M135.581,126.836a19.054,19.054,0,0,0,2.181,1.637,19,19,0,0,0-2.181-1.637" transform="translate(-134.169 -103.008)" fill="#455a64"/>
          <path id="Trazado_734913" data-name="Trazado 734913" d="M130.683,142.756a1.769,1.769,0,0,0,.313.305c.2.177.494.411.829.651s.649.441.882.577a1.785,1.785,0,0,0,.389.2,2.145,2.145,0,0,0-.352-.258c-.222-.151-.529-.359-.862-.6s-.628-.463-.842-.625a2.146,2.146,0,0,0-.357-.252" transform="translate(-128.583 -115.938)" fill="#455a64"/>
          <path id="Trazado_734914" data-name="Trazado 734914" d="M125.33,155.68a2.273,2.273,0,0,0,.371.349c.24.2.582.471.972.751s.753.518,1.023.681a2.261,2.261,0,0,0,.45.24,3.128,3.128,0,0,0-.412-.3c-.259-.177-.614-.423-1-.7s-.736-.537-.986-.726a3.117,3.117,0,0,0-.414-.3" transform="translate(-122.627 -126.434)" fill="#455a64"/>
          <path id="Trazado_734915" data-name="Trazado 734915" d="M129.925,48.343a4.924,4.924,0,0,0,.978-.049,9.746,9.746,0,0,0-1.956,0,4.924,4.924,0,0,0,.978.049" transform="translate(-126.063 -39.182)" fill="#263238"/>
        </g>
      </g>
      <g id="Grupo_1013475" data-name="Grupo 1013475">
        <g id="Grupo_1013474" data-name="Grupo 1013474" clip-path="url(#clip-path-10)">
          <path id="Trazado_730137" data-name="Trazado 730137" d="M0,0H7.878V21.172H0Z" transform="translate(35.072 27.724)" fill="#112e4c"/>
          <rect id="Rectángulo_348661" data-name="Rectángulo 348661" width="7.878" height="21.172" transform="translate(37.201 27.724)" fill="#204266"/>
          <path id="Trazado_730127" data-name="Trazado 730127" d="M13.728,103.367a1.778,1.778,0,1,0,1.778-1.778,1.778,1.778,0,0,0-1.778,1.778" transform="translate(25.838 -70.517)" fill="#fff"/>
          <path id="Trazado_730128" data-name="Trazado 730128" d="M33.06,101.053a10.926,10.926,0,0,0,.995,1.572,10.936,10.936,0,0,0,1.126,1.481,10.936,10.936,0,0,0-1-1.572,10.922,10.922,0,0,0-1.126-1.481" transform="translate(2.025 -70.145)" fill="#455a64"/>
          <path id="Trazado_730129" data-name="Trazado 730129" d="M33.06,108.711a10.948,10.948,0,0,0,.995,1.572,10.935,10.935,0,0,0,1.126,1.481,10.935,10.935,0,0,0-1-1.572,10.921,10.921,0,0,0-1.126-1.481" transform="translate(2.025 -75.461)" fill="#455a64"/>
          <path id="Trazado_730130" data-name="Trazado 730130" d="M33.06,116.369a10.929,10.929,0,0,0,.995,1.572,10.933,10.933,0,0,0,1.126,1.481,10.935,10.935,0,0,0-1-1.572,10.946,10.946,0,0,0-1.126-1.481" transform="translate(2.025 -80.776)" fill="#455a64"/>
          <path id="Trazado_730131" data-name="Trazado 730131" d="M33.06,124.027a10.928,10.928,0,0,0,.995,1.572,10.935,10.935,0,0,0,1.126,1.481,10.935,10.935,0,0,0-1-1.572,10.946,10.946,0,0,0-1.126-1.481" transform="translate(2.025 -86.092)" fill="#455a64"/>
          <path id="Trazado_730132" data-name="Trazado 730132" d="M33.06,131.686a10.949,10.949,0,0,0,.995,1.572,10.936,10.936,0,0,0,1.126,1.481,10.935,10.935,0,0,0-1-1.572,10.918,10.918,0,0,0-1.126-1.481" transform="translate(2.025 -91.409)" fill="#455a64"/>
          <path id="Trazado_730133" data-name="Trazado 730133" d="M33.06,139.344a10.93,10.93,0,0,0,.995,1.572,10.936,10.936,0,0,0,1.126,1.481,10.935,10.935,0,0,0-1-1.572,10.944,10.944,0,0,0-1.126-1.481" transform="translate(2.025 -96.724)" fill="#455a64"/>
          <path id="Trazado_730134" data-name="Trazado 730134" d="M33.06,147a10.928,10.928,0,0,0,.995,1.572,10.932,10.932,0,0,0,1.126,1.481,10.935,10.935,0,0,0-1-1.572A10.921,10.921,0,0,0,33.06,147" transform="translate(2.025 -102.04)" fill="#455a64"/>
          <path id="Trazado_730135" data-name="Trazado 730135" d="M32.99,94.3a10.949,10.949,0,0,0,.995,1.572,10.934,10.934,0,0,0,1.126,1.481,10.935,10.935,0,0,0-1-1.572A10.92,10.92,0,0,0,32.99,94.3" transform="translate(2.117 -65.456)" fill="#455a64"/>
          <path id="Trazado_730136" data-name="Trazado 730136" d="M33.193,90.639a7.638,7.638,0,0,0,1.255,1.807,3.851,3.851,0,0,0-.562-.949,3.865,3.865,0,0,0-.693-.858" transform="translate(2.717 -62.916)" fill="#455a64"/>
        </g>
      </g>
    </g>
  </g>
</svg>
