<svg xmlns="http://www.w3.org/2000/svg" xmlns:xlink="http://www.w3.org/1999/xlink" width="77" height="77" viewBox="0 0 77 77">
  <defs>
    <filter id="Trazado_715284" x="0" y="0" width="77" height="77" filterUnits="userSpaceOnUse">
      <feOffset dy="3" input="SourceAlpha"/>
      <feGaussianBlur stdDeviation="3" result="blur"/>
      <feFlood flood-opacity="0.161"/>
      <feComposite operator="in" in2="blur"/>
      <feComposite in="SourceGraphic"/>
    </filter>
    <clipPath id="clip-path">
      <rect id="Rectángulo_344624" data-name="Rectángulo 344624" width="59" height="59" fill="#12263f"/>
    </clipPath>
  </defs>
  <g id="Grupo_1003586" data-name="Grupo 1003586" transform="translate(-267 -4333.281)">
    <g transform="matrix(1, 0, 0, 1, 267, 4333.28)" filter="url(#Trazado_715284)">
      <path id="Trazado_715284-2" data-name="Trazado 715284" d="M29.5,0A29.5,29.5,0,1,1,0,29.5,29.5,29.5,0,0,1,29.5,0Z" transform="translate(9 6)" fill="#f5b3bf"/>
    </g>
    <g id="Enmascarar_grupo_93" data-name="Enmascarar grupo 93" transform="translate(276 4339.281)" clip-path="url(#clip-path)">
      <g id="outline" transform="translate(0 4.915)">
        <path id="Trazado_696361" data-name="Trazado 696361" d="M57.95,33.033V29.1a.983.983,0,0,0-1.168-.966L55,28.477,53.977,24.9a.983.983,0,0,0-1.319-.641l-7.492,3.066V25.167A13.951,13.951,0,0,0,31.4,11.4,13.465,13.465,0,0,0,17.633,25.167v2.155l-7.494-3.066a.983.983,0,0,0-1.319.641L7.8,28.477l-1.78-.342a.983.983,0,0,0-1.17.966v3.933a2.95,2.95,0,0,0-2.95,2.95v3.933a2.95,2.95,0,0,0,2.95,2.95v11.8a.983.983,0,0,0,.8.966l25.567,4.917a.975.975,0,0,0,.37,0l25.567-4.917a.983.983,0,0,0,.8-.966v-11.8a2.95,2.95,0,0,0,2.95-2.95V35.983a2.95,2.95,0,0,0-2.95-2.95Zm-5.56-6.54.673,2.36-12.139,2.33ZM19.6,25.167a11.541,11.541,0,0,1,11.8-11.8,12.108,12.108,0,0,1,11.8,11.8v2.96l-1.967.8V24.183a.983.983,0,0,0-1.222-.954c-7.328,1.834-9.94-.779-11.849-2.687a.983.983,0,0,0-1.513.149,5.343,5.343,0,0,1-4.1,2.508.983.983,0,0,0-.983.983v4.751l-1.967-.8Zm19.667.242v4.327L31.4,32.954l-7.867-3.218v-4.69a7.39,7.39,0,0,0,4.032-2.336c1.967,1.829,5.159,4.011,11.7,2.7ZM10.41,26.49l11.467,4.69L9.737,28.849ZM4.85,40.9a.983.983,0,0,1-.983-.983V35.983A.983.983,0,0,1,4.85,35H6.817a.983.983,0,0,1,.983.983v3.933a.983.983,0,0,1-.983.983Zm23.6,17.115L6.817,53.854V42.867a2.95,2.95,0,0,0,2.95-2.95V35.983a2.95,2.95,0,0,0-2.95-2.95V30.291l21.633,4.16Zm3.933.378-.983.189-.983-.189V34.833l.808.15a1.914,1.914,0,0,0,.36,0l.8-.154Zm23.6-4.538L34.35,58.015V34.451l21.633-4.16v2.743a2.95,2.95,0,0,0-2.95,2.95v3.933a2.95,2.95,0,0,0,2.95,2.95Zm2.95-13.938a.983.983,0,0,1-.983.983H55.983A.983.983,0,0,1,55,39.917V35.983A.983.983,0,0,1,55.983,35H57.95a.983.983,0,0,1,.983.983Z" transform="translate(-1.9 -11.397)" fill="#12263f"/>
        <path id="Trazado_696362" data-name="Trazado 696362" d="M25.65,27.55h1.967v1.967H25.65Z" transform="translate(-1.067 -10.83)" fill="#12263f"/>
        <path id="Trazado_696363" data-name="Trazado 696363" d="M33.25,27.55h1.967v1.967H33.25Z" transform="translate(-0.8 -10.83)" fill="#12263f"/>
        <path id="Trazado_696368" data-name="Trazado 696368" d="M8.55,44.65v5.9a.983.983,0,0,0,.812.968l16.717,2.95.342-1.935-15.9-2.807V44.65Z" transform="translate(-1.667 -10.23)" fill="#12263f"/>
        <path id="Trazado_696369" data-name="Trazado 696369" d="M50.889,49.725l-15.9,2.807.342,1.935,16.717-2.95a.983.983,0,0,0,.812-.968v-5.9H50.889Z" transform="translate(-0.739 -10.23)" fill="#12263f"/>
        <path id="Trazado_696370" data-name="Trazado 696370" d="M37.117,37.028l12.99-2.784-.413-1.923-13.767,2.95a.983.983,0,0,0-.777.962v3.933h1.967Z" transform="translate(-0.733 -10.662)" fill="#12263f"/>
        <path id="Trazado_696371" data-name="Trazado 696371" d="M24.19,43.116h1.967V36.233a.983.983,0,0,0-.777-.962l-13.767-2.95L11.2,34.244l12.99,2.784Z" transform="translate(-1.574 -10.662)" fill="#12263f"/>
        <path id="Trazado_696372" data-name="Trazado 696372" d="M23.75,48.45h1.967v1.967H23.75Z" transform="translate(-1.133 -10.097)" fill="#12263f"/>
        <path id="Trazado_696373" data-name="Trazado 696373" d="M23.75,44.65h1.967v1.967H23.75Z" transform="translate(-1.133 -10.23)" fill="#12263f"/>
      </g>
    </g>
  </g>
</svg>
