<svg xmlns="http://www.w3.org/2000/svg" xmlns:xlink="http://www.w3.org/1999/xlink" width="143" height="143" viewBox="0 0 143 143">
  <defs>
    <filter id="Elipse_4797" x="0" y="0" width="143" height="143" filterUnits="userSpaceOnUse">
      <feOffset dy="3" input="SourceAlpha"/>
      <feGaussianBlur stdDeviation="3" result="blur"/>
      <feFlood flood-opacity="0.161"/>
      <feComposite operator="in" in2="blur"/>
      <feComposite in="SourceGraphic"/>
    </filter>
  </defs>
  <g id="Grupo_1003698" data-name="Grupo 1003698" transform="translate(-379 -4156.687)">
    <g transform="matrix(1, 0, 0, 1, 379, 4156.69)" filter="url(#Elipse_4797)">
      <circle id="Elipse_4797-2" data-name="Elipse 4797" cx="62.5" cy="62.5" r="62.5" transform="translate(9 6)" fill="#0098e8"/>
    </g>
    <g id="Page-1" transform="translate(409.374 4179.198)">
      <g id="_042---Checklist-Goals" data-name="042---Checklist-Goals" transform="translate(0 0)">
        <g id="Cartoony" transform="translate(1.432 1.432)">
          <path id="Shape" d="M54.432,35.365V10.3a4.3,4.3,0,0,0-4.3-4.3H4.3A4.3,4.3,0,0,0,0,10.3V70.459a4.3,4.3,0,0,0,4.3,4.3H54.432Z" transform="translate(0 2.595)" fill="sienna"/>
          <path id="Shape-2" data-name="Shape" d="M36.3,6H32a4.3,4.3,0,0,1,4.3,4.3V74.756h4.3V10.3A4.3,4.3,0,0,0,36.3,6Z" transform="translate(13.837 2.595)" fill="#783e22"/>
          <path id="Shape-3" data-name="Shape" d="M46.973,35.984V11.432A1.432,1.432,0,0,0,45.54,10H5.432A1.432,1.432,0,0,0,4,11.432V65.864A1.432,1.432,0,0,0,5.432,67.3h41.54Z" transform="translate(1.73 4.324)" fill="#ffe0b2"/>
          <path id="Shape-4" data-name="Shape" d="M34.3,10H30a1.432,1.432,0,0,1,1.432,1.432V67.3h4.3V11.432A1.432,1.432,0,0,0,34.3,10Z" transform="translate(12.973 4.324)" fill="#dfc49c"/>
          <path id="Shape-5" data-name="Shape" d="M8,11.459v2.865a1.432,1.432,0,0,0,1.432,1.432H38.081a1.432,1.432,0,0,0,1.432-1.432V11.459a4.3,4.3,0,0,0-4.3-4.3h-5.73V5.73a5.73,5.73,0,0,0-11.459,0V7.162H12.3A4.3,4.3,0,0,0,8,11.459Z" transform="translate(3.459)" fill="#ffdc00"/>
          <path id="Shape-6" data-name="Shape" d="M28.3,5H24a4.3,4.3,0,0,1,4.3,4.3v2.865a1.432,1.432,0,0,1-1.432,1.432h4.3a1.432,1.432,0,0,0,1.432-1.432V9.3A4.3,4.3,0,0,0,28.3,5Z" transform="translate(10.378 2.162)" fill="#fec108"/>
          <path id="Shape-7" data-name="Shape" d="M21.081,5.729V7.161h4.3V5.729A5.711,5.711,0,0,0,17.5.429a5.73,5.73,0,0,1,3.581,5.3Z" transform="translate(7.567 0.001)" fill="#fec108"/>
          <circle id="Oval" cx="22.919" cy="22.919" r="22.919" transform="translate(37.243 37.243)" fill="#f44335"/>
          <path id="Shape-8" data-name="Shape" d="M42.649,26c-.725,0-1.441.043-2.149.109a22.91,22.91,0,0,1,0,45.62c.708.066,1.424.109,2.149.109a22.919,22.919,0,0,0,0-45.838Z" transform="translate(17.513 11.243)" fill="#c81e1e"/>
          <circle id="Oval-2" data-name="Oval" cx="17.189" cy="17.189" r="17.189" transform="translate(42.973 42.973)" fill="#f5f5f5"/>
          <path id="Shape-9" data-name="Shape" d="M42.649,30a17.161,17.161,0,0,0-2.149.143,17.173,17.173,0,0,1,0,34.08A17.189,17.189,0,1,0,42.649,30Z" transform="translate(17.513 12.972)" fill="#cfd8dc"/>
          <circle id="Oval-3" data-name="Oval" cx="11.459" cy="11.459" r="11.459" transform="translate(48.702 48.702)" fill="#f44335"/>
          <path id="Shape-10" data-name="Shape" d="M42.649,34a11.431,11.431,0,0,0-2.149.209,11.459,11.459,0,0,1,0,22.5A11.459,11.459,0,1,0,42.649,34Z" transform="translate(17.513 14.702)" fill="#c81e1e"/>
          <circle id="Oval-4" data-name="Oval" cx="5.73" cy="5.73" r="5.73" transform="translate(54.432 54.432)" fill="#607d8b"/>
          <path id="Shape-11" data-name="Shape" d="M42.649,38a5.68,5.68,0,0,0-2.149.43,5.717,5.717,0,0,1,0,10.6A5.73,5.73,0,1,0,42.649,38Z" transform="translate(17.513 16.432)" fill="#37474f"/>
        </g>
        <g id="Icons">
          <circle id="Oval-5" data-name="Oval" cx="1.432" cy="1.432" r="1.432" transform="translate(27.216 5.73)"/>
          <path id="Shape-12" data-name="Shape" d="M85.526,37.663a1.432,1.432,0,0,0-2.025,0l-.52.519a1.425,1.425,0,0,0-2.765.494v2.272l-2.471,2.471A24,24,0,0,0,57.3,37.645V14.324a5.73,5.73,0,0,0-5.73-5.73H43.858a5.681,5.681,0,0,0-3.75-1.432h-4.3a7.162,7.162,0,1,0-14.324,0h-4.3a5.681,5.681,0,0,0-3.75,1.432H5.73A5.73,5.73,0,0,0,0,14.324V74.486a5.73,5.73,0,0,0,5.73,5.73H45.935c.493.414,1,.8,1.533,1.175l-1.432,2.388a1.432,1.432,0,1,0,2.458,1.47l1.384-2.315a24.272,24.272,0,0,0,23.423,0l1.384,2.315a1.432,1.432,0,0,0,2.458-1.47L75.709,81.39a24.247,24.247,0,0,0,4.049-35.947l2.482-2.471h2.272a1.432,1.432,0,0,0,.494-2.766l.519-.519A1.432,1.432,0,0,0,85.526,37.663ZM54.432,14.324v24a23.922,23.922,0,0,0-2.865,1.107V17.189A2.865,2.865,0,0,0,48.7,14.324H45.837V12.892a5.642,5.642,0,0,0-.2-1.432h5.933a2.865,2.865,0,0,1,2.865,2.865ZM14.324,12.892a2.865,2.865,0,0,1,2.865-2.865h4.3v1.432a1.432,1.432,0,0,0,2.865,0v-4.3a4.3,4.3,0,1,1,8.595,0v4.3a1.432,1.432,0,1,0,2.865,0V10.027h4.3a2.865,2.865,0,0,1,2.865,2.865v2.865H14.324Zm28.648,5.73a2.855,2.855,0,0,0,2.467-1.432H48.7V40.967a24.229,24.229,0,0,0-9.274,30.654H8.595V17.189h3.263a2.855,2.855,0,0,0,2.467,1.432ZM2.865,74.486V14.324A2.865,2.865,0,0,1,5.73,11.459h5.933a5.642,5.642,0,0,0-.2,1.432v1.432H8.595A2.865,2.865,0,0,0,5.73,17.189V71.621a2.865,2.865,0,0,0,2.865,2.865H40.967a24.334,24.334,0,0,0,2.088,2.865H5.73A2.865,2.865,0,0,1,2.865,74.486ZM83.08,61.594a21.561,21.561,0,1,1-7.361-16.151l-2.025,2.025a18.677,18.677,0,1,0,2.025,2.025l2.025-2.025A21.373,21.373,0,0,1,83.08,61.594Zm-11.459,0a10.067,10.067,0,1,1-4.034-8.022l-2.05,2.05a7.184,7.184,0,1,0,2.025,2.025L69.616,55.6a9.96,9.96,0,0,1,2.005,5.993Zm-5.73,0a4.3,4.3,0,1,1-4.3-4.3,4.227,4.227,0,0,1,1.841.43L60.581,60.58a1.432,1.432,0,1,0,2.025,2.025l2.855-2.852A4.227,4.227,0,0,1,65.891,61.594Zm3.74-10.063a12.925,12.925,0,1,0,2.025,2.025L73.7,51.518a15.781,15.781,0,1,1-2.025-2.025Z" transform="translate(0 0)"/>
          <path id="Shape-13" data-name="Shape" d="M10.846,22.74a1.432,1.432,0,0,0,1.013.42H12a1.432,1.432,0,0,0,1.05-.63l2.865-4.3a1.433,1.433,0,0,0-2.384-1.59l-1.9,2.845-.2-.2a1.432,1.432,0,0,0-2.025,2.025Z" transform="translate(3.898 6.921)"/>
          <path id="Shape-14" data-name="Shape" d="M17.432,20.865H36.054a1.432,1.432,0,1,0,0-2.865H17.432a1.432,1.432,0,1,0,0,2.865Z" transform="translate(6.919 7.784)"/>
          <path id="Shape-15" data-name="Shape" d="M10.846,30.74a1.432,1.432,0,0,0,1.013.42H12a1.432,1.432,0,0,0,1.05-.63l2.865-4.3a1.433,1.433,0,0,0-2.384-1.59l-1.9,2.845-.2-.2a1.432,1.432,0,0,0-2.025,2.025Z" transform="translate(3.898 10.38)"/>
          <path id="Shape-16" data-name="Shape" d="M17.432,28.865H36.054a1.432,1.432,0,1,0,0-2.865H17.432a1.432,1.432,0,1,0,0,2.865Z" transform="translate(6.919 11.243)"/>
          <path id="Shape-17" data-name="Shape" d="M17.432,44.865h8.595a1.432,1.432,0,0,0,0-2.865H17.432a1.432,1.432,0,1,0,0,2.865Z" transform="translate(6.919 18.162)"/>
          <path id="Shape-18" data-name="Shape" d="M10.846,38.743a1.432,1.432,0,0,0,1.013.42A.979.979,0,0,0,12,39.155a1.432,1.432,0,0,0,1.05-.63l2.865-4.3a1.433,1.433,0,1,0-2.384-1.59l-1.9,2.845-.2-.2A1.432,1.432,0,0,0,9.415,37.31Z" transform="translate(3.898 13.837)"/>
          <path id="Shape-19" data-name="Shape" d="M10.846,46.743a1.432,1.432,0,0,0,1.013.42A.979.979,0,0,0,12,47.155a1.432,1.432,0,0,0,1.05-.63l2.865-4.3a1.433,1.433,0,0,0-2.384-1.59l-1.9,2.845-.2-.2A1.432,1.432,0,0,0,9.415,45.31Z" transform="translate(3.898 17.297)"/>
          <path id="Shape-20" data-name="Shape" d="M17.432,36.865H28.419a1.432,1.432,0,1,0,0-2.865H17.432a1.432,1.432,0,1,0,0,2.865Z" transform="translate(6.919 14.702)"/>
        </g>
      </g>
    </g>
  </g>
</svg>
