<svg xmlns="http://www.w3.org/2000/svg" xmlns:xlink="http://www.w3.org/1999/xlink" width="169" height="169" viewBox="0 0 169 169">
  <defs>
    <filter id="Trazado_699424" x="0" y="0" width="169" height="169" filterUnits="userSpaceOnUse">
      <feOffset dy="3" input="SourceAlpha"/>
      <feGaussianBlur stdDeviation="3" result="blur"/>
      <feFlood flood-opacity="0.161"/>
      <feComposite operator="in" in2="blur"/>
      <feComposite in="SourceGraphic"/>
    </filter>
  </defs>
  <g id="Grupo_896806" data-name="Grupo 896806" transform="translate(6224 9365)">
    <g transform="matrix(1, 0, 0, 1, -6224, -9365)" filter="url(#Trazado_699424)">
      <path id="Trazado_699424-2" data-name="Trazado 699424" d="M75.5,0A75.5,75.5,0,1,1,0,75.5,75.5,75.5,0,0,1,75.5,0Z" transform="translate(9 6)" fill="#f5b3bf"/>
    </g>
    <g id="hola_3_" data-name="hola (3)" transform="translate(-6189.942 -9327.847)">
      <path id="Trazado_708777" data-name="Trazado 708777" d="M55.077,48.274a9.8,9.8,0,0,1-3.527-7.529V39.62H34.1v1.125a9.8,9.8,0,0,1-3.527,7.528l6.435,6.439H48.641Z" transform="translate(10.973 15.079)" fill="#cf8c78"/>
      <path id="Trazado_708778" data-name="Trazado 708778" d="M55.43,47.773a9.784,9.784,0,0,1-3.5-7.048c-.19.116-.378.237-.582.346a16.67,16.67,0,0,1-14.2.977.68.68,0,0,0-.915.49l-.017.07a9.705,9.705,0,0,1-4.964,6.1l-1.454.772L33.964,55.3l3.825.637s2.915-.981,4.625-1.726h6.578Z" transform="translate(10.621 15.581)" fill="#ffccb7"/>
      <path id="Trazado_708779" data-name="Trazado 708779" d="M67.62,10.574V14A144.483,144.483,0,0,1,66.6,31.155H25.018A144.486,144.486,0,0,1,24,14V12.679Z" transform="translate(7.988 1.893)" fill="#4c4c4c"/>
      <path id="Trazado_708780" data-name="Trazado 708780" d="M28.816,24a5.816,5.816,0,0,0,0,11.632h.535" transform="translate(7.534 7.988)" fill="#cf8c78"/>
      <path id="Trazado_708781" data-name="Trazado 708781" d="M51.167,24a5.816,5.816,0,1,1,0,11.632h-.535" transform="translate(20.079 7.988)" fill="#cf8c78"/>
      <path id="Trazado_708782" data-name="Trazado 708782" d="M59.86,15.347l.087.176A18.466,18.466,0,0,1,61.9,23.78V35.412a18.029,18.029,0,0,1-9.273,15.759,16.81,16.81,0,0,1-16.349.007A18.03,18.03,0,0,1,27,35.412V23.78a18.467,18.467,0,0,1,1.952-8.264l.319-.64" transform="translate(9.35 3.846)" fill="#cf8c78"/>
      <path id="Trazado_708783" data-name="Trazado 708783" d="M38.274,51.157a16.818,16.818,0,0,0,6.72,2.025,16.818,16.818,0,0,0,6.72-2.025A18.03,18.03,0,0,0,60.988,35.4V23.765A18.467,18.467,0,0,0,59.036,15.5l-.084-.169-27.7-.422-.3.6A18.466,18.466,0,0,0,29,23.765V35.4a18.029,18.029,0,0,0,9.273,15.759Z" transform="translate(10.258 3.861)" fill="#ffccb7"/>
      <path id="Trazado_708785" data-name="Trazado 708785" d="M82.43,71.172V60.29a12.344,12.344,0,0,0-8.8-11.818L62.074,45l-.676.676a17.551,17.551,0,0,1-24.82,0L35.9,45,17,49.362V65.356L27.178,66.81v4.362Z" transform="translate(4.81 17.522)" fill="#0059bd"/>
      <path id="Trazado_708786" data-name="Trazado 708786" d="M69.509,48.468,57.95,45l-.676.676a17.551,17.551,0,0,1-24.821,0L31.778,45l-5.694,1.309a34.419,34.419,0,0,0,31.459,20.5H78.306V60.29a12.344,12.344,0,0,0-8.8-11.822Z" transform="translate(8.934 17.522)" fill="#006bda"/>
      <path id="Trazado_708787" data-name="Trazado 708787" d="M53,59h2.908v5.816H53Z" transform="translate(21.154 23.878)" fill="#004c9c"/>
      <path id="Trazado_708788" data-name="Trazado 708788" d="M13.632,6.362H12.178V2L2,9.27l10.178,7.27V12.178h.573A9.8,9.8,0,0,1,20.9,16.54l4.362-4.362A14.54,14.54,0,0,0,13.632,6.362Z" transform="translate(-2 -2)" fill="#a7d309"/>
      <path id="Trazado_708789" data-name="Trazado 708789" d="M13.632,6.362H12.178V2L2,9.27H14.4a10.508,10.508,0,0,1,8.869,4.9l1.995-1.993A14.54,14.54,0,0,0,13.632,6.362Z" transform="translate(-2 -2)" fill="#8cbe00"/>
      <path id="Trazado_708790" data-name="Trazado 708790" d="M38.523,15.018l-9.252-.145-.32.641A18.466,18.466,0,0,0,27,23.782v10.3c.375-.609.727-1.236,1.054-1.89l.214-.427,9.573-15.047a4.805,4.805,0,0,0,.682-1.7Z" transform="translate(9.35 3.844)" fill="#a0695f"/>
      <path id="Trazado_708791" data-name="Trazado 708791" d="M26.761,5.667a7.464,7.464,0,0,0,.079,13.006A40.818,40.818,0,0,0,46.664,23.81h4.369a22.912,22.912,0,0,0,10.245-2.419,14.922,14.922,0,0,0,8.25-13.347V4.908L67.62,6.816a3.414,3.414,0,0,1-2.415,1A12.471,12.471,0,0,1,59.62,6.5,42.611,42.611,0,0,0,40.569,2,27.823,27.823,0,0,0,26.76,5.668Z" transform="translate(7.534 -2)" fill="#212121"/>
      <path id="Trazado_708792" data-name="Trazado 708792" d="M64.3,7.816A12.471,12.471,0,0,1,58.712,6.5,42.611,42.611,0,0,0,39.661,2,27.832,27.832,0,0,0,25.947,5.618,7.446,7.446,0,0,0,28.84,15.765,40.818,40.818,0,0,0,48.664,20.9h4.369a22.912,22.912,0,0,0,10.245-2.419,14.775,14.775,0,0,0,2.311-1.469,15.128,15.128,0,0,0,.906-1.293A14.921,14.921,0,0,0,68.62,8.044V4.908L66.712,6.816a3.414,3.414,0,0,1-2.415,1Z" transform="translate(8.442 -2)" fill="#383838"/>
      <path id="Trazado_708793" data-name="Trazado 708793" d="M48.528,17.614a3.411,3.411,0,0,1-.553,1.876L38.35,34.626l-.247.494A22.173,22.173,0,0,1,25.264,46.258L16.54,66.614h7.27v14.54L12.44,79.642A12.051,12.051,0,0,1,3.032,62.819l10.6-23.831V37.839a19.593,19.593,0,0,1,8.721-16.3l5.586-7.81a5.644,5.644,0,0,1,4.595-2.37h2.617l.247-.422A5.149,5.149,0,0,1,39.8,8.454h2.137A3.546,3.546,0,0,1,44.82,7a2.265,2.265,0,0,1,2.254,2.254,2.2,2.2,0,0,1-.349,1.207l-1.788,2.864,2.021,1.352A3.514,3.514,0,0,1,48.528,17.614Z" transform="translate(-2 0.27)" fill="#cf8c78"/>
      <path id="Trazado_708794" data-name="Trazado 708794" d="M47.75,15.433a3.457,3.457,0,0,0-.792-.753l-2.021-1.352,1.788-2.864a2.2,2.2,0,0,0,.349-1.21A2.265,2.265,0,0,0,44.82,7a3.546,3.546,0,0,0-2.879,1.454H39.8a5.148,5.148,0,0,0-4.4,2.485l-.248.423H32.534a5.644,5.644,0,0,0-4.595,2.37L22.356,21.54a19.594,19.594,0,0,0-8.724,16.3v1.149L3.032,62.819A12.051,12.051,0,0,0,12.44,79.642l11.37,1.512V66.614H13.632l8.724-20.356A22.173,22.173,0,0,0,35.195,35.12Z" transform="translate(-2 0.27)" fill="#ffccb7"/>
      <g id="Grupo_1003779" data-name="Grupo 1003779" transform="translate(19.146 8.724)">
        <path id="Trazado_708795" data-name="Trazado 708795" d="M17.587,28.871l-2.419-1.614a14.1,14.1,0,0,1,8.1-5.8l.75,2.809a11.2,11.2,0,0,0-6.428,4.609Z" transform="translate(-15.168 -1.892)" fill="#cf8c78"/>
        <path id="Trazado_708796" data-name="Trazado 708796" d="M23.927,16.84l3.65-6.092L26.329,10h-1.7l-3.2,5.345Z" transform="translate(-12.324 -7.092)" fill="#cf8c78"/>
        <path id="Trazado_708797" data-name="Trazado 708797" d="M27.152,19.035l2.466,1.541L34.726,12.4l-1.2-.8-1.242-.776Z" transform="translate(-9.727 -6.72)" fill="#cf8c78"/>
        <path id="Trazado_708798" data-name="Trazado 708798" d="M26.668,20.339,32.92,9.088a2.206,2.206,0,0,1,.145-.215L31.9,8H30.195L24.126,18.925Z" transform="translate(-11.101 -8)" fill="#cf8c78"/>
        <path id="Trazado_708799" data-name="Trazado 708799" d="M23.362,31.992H20.454V25.549a2.086,2.086,0,0,0-.217-.919A11.767,11.767,0,0,1,19,19.4a3.394,3.394,0,0,1,6.107-2.036l1.163,1.546a14.643,14.643,0,0,1,2.908,8.724H26.27a11.721,11.721,0,0,0-2.326-6.979L22.78,19.1a.5.5,0,0,0-.872.291,8.846,8.846,0,0,0,.931,3.94,5.012,5.012,0,0,1,.523,2.216Z" transform="translate(-13.428 -4.366)" fill="#cf8c78"/>
      </g>
    </g>
  </g>
</svg>
