<svg xmlns="http://www.w3.org/2000/svg" xmlns:xlink="http://www.w3.org/1999/xlink" width="143" height="143" viewBox="0 0 143 143">
  <defs>
    <filter id="Elipse_4865" x="0" y="0" width="143" height="143" filterUnits="userSpaceOnUse">
      <feOffset dy="3" input="SourceAlpha"/>
      <feGaussianBlur stdDeviation="3" result="blur"/>
      <feFlood flood-opacity="0.161"/>
      <feComposite operator="in" in2="blur"/>
      <feComposite in="SourceGraphic"/>
    </filter>
  </defs>
  <g id="Grupo_1003700" data-name="Grupo 1003700" transform="translate(-1081 -4157)">
    <g transform="matrix(1, 0, 0, 1, 1081, 4157)" filter="url(#Elipse_4865)">
      <circle id="Elipse_4865-2" data-name="Elipse 4865" cx="62.5" cy="62.5" r="62.5" transform="translate(9 6)" fill="#0098e8"/>
    </g>
    <g id="documento" transform="translate(1107.899 4181)">
      <g id="Grupo_999717" data-name="Grupo 999717" transform="translate(2.406 2.406)">
        <g id="Grupo_999712" data-name="Grupo 999712" transform="translate(21.097 2.813)">
          <path id="Trazado_704661" data-name="Trazado 704661" d="M64.343,12.439a5.632,5.632,0,0,1-3.98-1.646L57.788,8.219H53.569A5.614,5.614,0,0,1,48.126,4H17V74.325H67.634V12.439Z" transform="translate(-17 -4)" fill="#e6e9ed"/>
        </g>
        <g id="Grupo_999713" data-name="Grupo 999713" transform="translate(26.723 8.439)">
          <path id="Trazado_704662" data-name="Trazado 704662" d="M21,8H43.5V24.878H21Z" transform="translate(-21 -8)" fill="#9d66d5"/>
        </g>
        <g id="Grupo_999714" data-name="Grupo 999714" transform="translate(43.601 47.821)">
          <path id="Trazado_704663" data-name="Trazado 704663" d="M33,36H55.5V55.691H33Z" transform="translate(-33 -36)" fill="#ed9aa9"/>
        </g>
        <g id="Grupo_999715" data-name="Grupo 999715" transform="translate(0 53.447)">
          <path id="Trazado_704664" data-name="Trazado 704664" d="M41.382,65.317a2.833,2.833,0,0,1,2.813,2.813,2.821,2.821,0,0,1-2.813,2.813H14.5a11.366,11.366,0,0,1-5.035-1.181L3.406,66.723H2v-21.1H3.406L8.3,42.363A14,14,0,0,1,16.107,40H32.943a1.411,1.411,0,0,1,1.406,1.406,5.624,5.624,0,0,1-5.626,5.626H23.1V59.691h21.1A2.821,2.821,0,0,1,47.008,62.5a2.833,2.833,0,0,1-2.813,2.813Z" transform="translate(-2 -40)" fill="#f0d0b4"/>
        </g>
        <g id="Grupo_999716" data-name="Grupo 999716" transform="translate(52.04)">
          <path id="Trazado_704665" data-name="Trazado 704665" d="M71.349,7.626V27.317H69.943l-6.062,3.038a11.366,11.366,0,0,1-5.035,1.181h-.155V13.252H55.4a5.632,5.632,0,0,1-3.98-1.646L48.845,9.032H44.626a5.614,5.614,0,0,1-5.443-4.219A5.144,5.144,0,0,1,39,3.406,1.411,1.411,0,0,1,40.406,2H57.242a14,14,0,0,1,7.806,2.363l4.895,3.263Z" transform="translate(-39 -2)" fill="#f0d0b4"/>
        </g>
      </g>
      <g id="Grupo_999718" data-name="Grupo 999718" transform="translate(1 1)">
        <path id="Trazado_704666" data-name="Trazado 704666" d="M85.816,6.626,81.274,3.6A15.416,15.416,0,0,0,72.693,1H55.853A2.816,2.816,0,0,0,53.04,3.813H22.1V54.447H16.509a15.42,15.42,0,0,0-8.582,2.6l-4.54,3.027H1v23.91H3.481l5.767,2.883A12.729,12.729,0,0,0,14.909,88.2h26.88a4.206,4.206,0,0,0,3.91-5.789,4.149,4.149,0,0,0,2.864-5.463H75.544V33.287a12.74,12.74,0,0,0,4.412-1.274l5.767-2.883H88.2V6.626ZM46.008,78.357A1.408,1.408,0,0,1,44.6,79.764H27.723v2.813H41.788a1.406,1.406,0,0,1,0,2.813H14.909a9.889,9.889,0,0,1-4.4-1.039l-6.36-3.18H3.813V62.886h.426l5.249-3.5a12.621,12.621,0,0,1,7.021-2.127h16.84a4.225,4.225,0,0,1-4.219,4.219H22.922l-2.159,2.159A6.99,6.99,0,0,1,15.789,65.7h-.724v2.813h.724A9.769,9.769,0,0,0,22.1,66.221v10.73H44.6A1.408,1.408,0,0,1,46.008,78.357Zm26.723-4.219H24.91V64.292H29.13a7.04,7.04,0,0,0,7.032-7.032,2.816,2.816,0,0,0-2.813-2.813H24.91V6.626H53.637a7.036,7.036,0,0,0,6.436,4.219H63.71l2.159,2.16a6.988,6.988,0,0,0,4.973,2.059h1.889ZM85.39,26.317h-.332L78.7,29.5a9.876,9.876,0,0,1-3.153.959v-18.2h-4.7a4.194,4.194,0,0,1-2.985-1.235L64.875,8.032h-4.8a4.225,4.225,0,0,1-4.219-4.219h16.84A12.618,12.618,0,0,1,79.714,5.94l5.249,3.5h.426Z" transform="translate(-1 -1)"/>
        <path id="Trazado_704667" data-name="Trazado 704667" d="M32,57.5H57.317V35H32Zm2.813-19.691H54.5V54.691H34.813Z" transform="translate(11.601 12.821)"/>
        <path id="Trazado_704668" data-name="Trazado 704668" d="M40.1,47.144l-1.819-1.819-1.989,1.989L40.1,51.122l10.84-10.84-1.989-1.989Z" transform="translate(13.346 14.159)"/>
        <path id="Trazado_704669" data-name="Trazado 704669" d="M20,49H34.065v2.813H20Z" transform="translate(6.723 18.512)"/>
        <path id="Trazado_704670" data-name="Trazado 704670" d="M28,45h2.813v2.813H28Z" transform="translate(9.975 16.886)"/>
        <path id="Trazado_704671" data-name="Trazado 704671" d="M28,41h2.813v2.813H28Z" transform="translate(9.975 15.26)"/>
        <path id="Trazado_704672" data-name="Trazado 704672" d="M45.317,7H20V26.691H45.317ZM42.5,23.878H22.813V9.813H42.5Z" transform="translate(6.723 1.439)"/>
        <path id="Trazado_704673" data-name="Trazado 704673" d="M40,19H54.065v2.813H40Z" transform="translate(14.853 6.317)"/>
        <path id="Trazado_704674" data-name="Trazado 704674" d="M40,15H54.065v2.813H40Z" transform="translate(14.853 4.691)"/>
        <path id="Trazado_704675" data-name="Trazado 704675" d="M40,11h2.813v2.813H40Z" transform="translate(14.853 3.065)"/>
        <path id="Trazado_704676" data-name="Trazado 704676" d="M44,11h8.439v2.813H44Z" transform="translate(16.479 3.065)"/>
        <path id="Trazado_704677" data-name="Trazado 704677" d="M20,23h2.813v2.813H20Z" transform="translate(6.723 7.943)"/>
        <path id="Trazado_704678" data-name="Trazado 704678" d="M24,23H60.569v2.813H24Z" transform="translate(8.349 7.943)"/>
        <path id="Trazado_704679" data-name="Trazado 704679" d="M20,27H62.195v2.813H20Z" transform="translate(6.723 9.569)"/>
        <path id="Trazado_704680" data-name="Trazado 704680" d="M20,31h2.813v2.813H20Z" transform="translate(6.723 11.195)"/>
        <path id="Trazado_704681" data-name="Trazado 704681" d="M28,31h2.813v2.813H28Z" transform="translate(9.975 11.195)"/>
        <path id="Trazado_704682" data-name="Trazado 704682" d="M24,31h2.813v2.813H24Z" transform="translate(8.349 11.195)"/>
        <path id="Trazado_704683" data-name="Trazado 704683" d="M32,31H57.317v2.813H32Z" transform="translate(11.601 11.195)"/>
        <path id="Trazado_704684" data-name="Trazado 704684" d="M20,35H34.065v2.813H20Z" transform="translate(6.723 12.821)"/>
      </g>
    </g>
  </g>
</svg>
