<svg xmlns="http://www.w3.org/2000/svg" xmlns:xlink="http://www.w3.org/1999/xlink" width="77" height="77" viewBox="0 0 77 77">
  <defs>
    <filter id="Elipse_4845" x="0" y="0" width="77" height="77" filterUnits="userSpaceOnUse">
      <feOffset dy="3" input="SourceAlpha"/>
      <feGaussianBlur stdDeviation="3" result="blur"/>
      <feFlood flood-opacity="0.161"/>
      <feComposite operator="in" in2="blur"/>
      <feComposite in="SourceGraphic"/>
    </filter>
    <clipPath id="clip-path">
      <rect id="Rectángulo_344642" data-name="Rectángulo 344642" width="59" height="59" fill="#12263f"/>
    </clipPath>
    <clipPath id="clip-path-2">
      <path id="path4905" d="M0-57H59V2H0Z" transform="translate(0 57)" fill="#12263f"/>
    </clipPath>
  </defs>
  <g id="Grupo_1003584" data-name="Grupo 1003584" transform="translate(-763 -4333.281)">
    <g transform="matrix(1, 0, 0, 1, 763, 4333.28)" filter="url(#Elipse_4845)">
      <circle id="Elipse_4845-2" data-name="Elipse 4845" cx="29.5" cy="29.5" r="29.5" transform="translate(9 6)" fill="#f5b3bf"/>
    </g>
    <g id="Enmascarar_grupo_95" data-name="Enmascarar grupo 95" transform="translate(772 4339.281)" clip-path="url(#clip-path)">
      <g id="g4899">
        <g id="g4901">
          <g id="g4903" clip-path="url(#clip-path-2)">
            <g id="g4909" transform="translate(1.152 33.85)">
              <path id="path4911" d="M1.136.2H22.414a1.9,1.9,0,0,0,1.9-1.9V-3.691a1.907,1.907,0,0,0-1.9-1.9H-30.48a1.907,1.907,0,0,0-1.9,1.9V-1.7A1.907,1.907,0,0,0-30.48.2H-9.215" transform="translate(32.381 5.592)" fill="none" stroke="#12263f" stroke-linecap="round" stroke-linejoin="round" stroke-miterlimit="10" stroke-width="2.246"/>
            </g>
            <g id="g4913" transform="translate(16.968 45.201)">
              <path id="path4915" d="M.05,0H22.173a1.474,1.474,0,0,1,1.47,1.467V5.5a1.474,1.474,0,0,1-1.47,1.47H.05A1.472,1.472,0,0,1-1.42,5.5V1.467A1.472,1.472,0,0,1,.05,0Z" transform="translate(1.42)" fill="none" stroke="#12263f" stroke-linecap="round" stroke-linejoin="round" stroke-miterlimit="10" stroke-width="2.246"/>
            </g>
            <g id="g4917" transform="translate(5.36 39.638)">
              <path id="path4919" d="M0,0,4.406,17.248c.14.555.3.846.81.846H43.064c.51,0,.666-.291.81-.846L48.281,0" fill="none" stroke="#12263f" stroke-linecap="round" stroke-linejoin="round" stroke-miterlimit="10" stroke-width="2.246"/>
            </g>
            <g id="g4921" transform="translate(54.215 27.8)">
              <path id="path4923" d="M0,0V6.05" fill="none" stroke="#12263f" stroke-linecap="round" stroke-linejoin="round" stroke-miterlimit="10" stroke-width="2.246"/>
            </g>
            <g id="g4925" transform="translate(50.913 23.857)">
              <path id="path4927" d="M0,0,3.3,3.943" fill="none" stroke="#12263f" stroke-linecap="round" stroke-linejoin="round" stroke-miterlimit="10" stroke-width="2.246"/>
            </g>
            <g id="g4929" transform="translate(45.609 18.024)">
              <path id="path4931" d="M.031.02h0A2.588,2.588,0,0,0-.286,3.653L.786,4.933A2.578,2.578,0,0,0,4.738,1.621L3.663.34A2.584,2.584,0,0,0,.031.02Z" transform="translate(0.886 0.579)" fill="none" stroke="#12263f" stroke-linecap="round" stroke-linejoin="round" stroke-miterlimit="10" stroke-width="2.246"/>
            </g>
            <g id="g4933" transform="translate(4.781 27.8)">
              <path id="path4935" d="M0,0V6.05" fill="none" stroke="#12263f" stroke-linecap="round" stroke-linejoin="round" stroke-miterlimit="10" stroke-width="2.246"/>
            </g>
            <g id="g4937" transform="translate(4.781 23.857)">
              <path id="path4939" d="M.112,0l-3.3,3.943" transform="translate(3.19)" fill="none" stroke="#12263f" stroke-linecap="round" stroke-linejoin="round" stroke-miterlimit="10" stroke-width="2.246"/>
            </g>
            <g id="g4941" transform="translate(7.166 18.024)">
              <path id="path4943" d="M.18.02h0A2.585,2.585,0,0,1,.5,3.653L-.575,4.933a2.584,2.584,0,0,1-3.632.32,2.591,2.591,0,0,1-.32-3.633L-3.453.34A2.585,2.585,0,0,1,.18.02Z" transform="translate(5.124 0.579)" fill="none" stroke="#12263f" stroke-linecap="round" stroke-linejoin="round" stroke-miterlimit="10" stroke-width="2.246"/>
            </g>
            <g id="g4945" transform="translate(21.607 11.228)">
              <path id="path4947" d="M.535,0V2.806c0,3.613-5.02,6.978-7.892,6.978s-7.892-3.368-7.892-6.978V0" transform="translate(15.248)" fill="none" stroke="#12263f" stroke-linecap="round" stroke-linejoin="round" stroke-miterlimit="10" stroke-width="2.246"/>
            </g>
            <g id="g4949" transform="translate(21.607 1.268)">
              <path id="path4951" d="M.535.338V-1.73A7.914,7.914,0,0,0-7.357-9.623,7.917,7.917,0,0,0-15.248-1.73V.338C-10.917-5.934-7.445.315.535.338Z" transform="translate(15.248 9.623)" fill="none" stroke="#12263f" stroke-linecap="round" stroke-linejoin="round" stroke-miterlimit="10" stroke-width="2.246"/>
            </g>
            <g id="g4953" transform="translate(16.344 21.727)">
              <path id="path4955" d="M.178,0c-4.55,2.107-5.262,5.014-5.262,12.123" transform="translate(5.084)" fill="none" stroke="#12263f" stroke-linecap="round" stroke-linejoin="round" stroke-miterlimit="10" stroke-width="2.246"/>
            </g>
            <g id="g4957" transform="translate(21.607 18.839)">
              <path id="path4959" d="M.1,0-2.73,2.888,2.438,7.654,5.162,2.172,7.886,7.654l5.168-4.766L10.231,0" transform="translate(2.73)" fill="none" stroke="#12263f" stroke-linecap="round" stroke-linejoin="round" stroke-miterlimit="10" stroke-width="2.246"/>
            </g>
            <g id="g4961" transform="translate(37.39 21.727)">
              <path id="path4963" d="M0,0C4.55,2.107,5.262,5.014,5.262,12.123" fill="none" stroke="#12263f" stroke-linecap="round" stroke-linejoin="round" stroke-miterlimit="10" stroke-width="2.246"/>
            </g>
            <g id="g4965" transform="translate(29.495 39.638)">
              <path id="path4967" d="M0,0H0" transform="translate(0.003)" fill="none" stroke="#12263f" stroke-linecap="round" stroke-linejoin="round" stroke-miterlimit="10" stroke-width="2.246"/>
            </g>
          </g>
        </g>
      </g>
    </g>
  </g>
</svg>
