<svg xmlns="http://www.w3.org/2000/svg" xmlns:xlink="http://www.w3.org/1999/xlink" width="143" height="143" viewBox="0 0 143 143">
  <defs>
    <filter id="Elipse_4867" x="0" y="0" width="143" height="143" filterUnits="userSpaceOnUse">
      <feOffset dy="3" input="SourceAlpha"/>
      <feGaussianBlur stdDeviation="3" result="blur"/>
      <feFlood flood-opacity="0.161"/>
      <feComposite operator="in" in2="blur"/>
      <feComposite in="SourceGraphic"/>
    </filter>
    <clipPath id="clip-path">
      <path id="path3220" d="M83.522-682.665H0v83.522H83.522Z" transform="translate(0 682.665)"/>
    </clipPath>
    <clipPath id="clip-path-2">
      <path id="path8622" d="M0-682.665H34.134v34.134H0Z" transform="translate(0 682.665)"/>
    </clipPath>
  </defs>
  <g id="Grupo_1003701" data-name="Grupo 1003701" transform="translate(1767 7545)">
    <g transform="matrix(1, 0, 0, 1, -1767, -7545)" filter="url(#Elipse_4867)">
      <circle id="Elipse_4867-2" data-name="Elipse 4867" cx="62.5" cy="62.5" r="62.5" transform="translate(9 6)" fill="#0098e8"/>
    </g>
    <g id="Grupo_999719" data-name="Grupo 999719" transform="translate(0 30)">
      <g id="g3210" transform="translate(-1739 -7546.761)">
        <g id="g3212" transform="translate(13.621 62.524)">
          <path id="path3214" d="M-102.73-106.746h6.462l7.4-14.881-24.469,5.093v4.894Z" transform="translate(113.333 121.626)" fill="#a2abb8"/>
        </g>
        <g id="g3216" transform="translate(0 0)">
          <g id="g3218" clip-path="url(#clip-path)">
            <g id="g3224" transform="translate(13.621 72.511)">
              <path id="path3226" d="M10.6-35.106H2.447A2.454,2.454,0,0,1,0-37.553V-40H10.6Z" transform="translate(0 40)" fill="#c8d2dc"/>
            </g>
            <g id="g3228" transform="translate(6.28 8.842)">
              <path id="path3230" d="M-267.765,0h-9.788A2.454,2.454,0,0,0-280,2.447V56.328a2.454,2.454,0,0,0,2.447,2.447h41.6a2.454,2.454,0,0,0,2.447-2.447V38.874Z" transform="translate(279.999)" fill="#e9edf1"/>
            </g>
            <g id="g3232" transform="translate(18.515 8.842)">
              <path id="path3234" d="M11.81,0H-20V45.263a2.454,2.454,0,0,0,2.447,2.447h6.525V58.775h4.894L14.257,2.447A2.454,2.454,0,0,0,11.81,0" transform="translate(20)" fill="#c8d2dc"/>
            </g>
            <g id="g3236" transform="translate(30.75 16.182)">
              <path id="path3238" d="M24.045,0a2.454,2.454,0,0,1,2.447,2.447V64.834a1.286,1.286,0,0,1-1.282,1.282H-18.718A1.286,1.286,0,0,1-20,64.834v-1.98Z" transform="translate(20)" fill="#ffd064"/>
            </g>
            <g id="g3240" transform="translate(30.75 16.182)">
              <path id="path3242" d="M-38.261,0h8.972V61.689a1.168,1.168,0,0,1-1.165,1.165h-42.88V37.242Z" transform="translate(73.333)" fill="#fff0af"/>
            </g>
            <g id="g3244" transform="translate(30.75 16.182)">
              <path id="path3246" d="M-264.219,0h32.626V34.8a2.454,2.454,0,0,1-2.447,2.447h-32.626V2.447A2.454,2.454,0,0,1-264.219,0" transform="translate(266.666)" fill="#ffd064"/>
            </g>
            <g id="g3248" transform="translate(20.962 1.223)">
              <path id="path3250" d="M-317.552-351.06h36.7a2.454,2.454,0,0,0,2.447-2.447v-44.045A2.454,2.454,0,0,0-280.848-400h-36.7A2.454,2.454,0,0,0-320-397.552v44.045a2.454,2.454,0,0,0,2.447,2.447" transform="translate(319.999 399.999)" fill="#dce7ef"/>
            </g>
            <g id="g3252" transform="translate(25.856 31.002)">
              <path id="path3254" d="M-162.688,0c1.487,1.083,9.107,1.083,10.594,0,2.595,3.5,10.608,1.593,10.608,10.016v4.25H-173.3v-4.25c0-8.423,8.013-6.52,10.608-10.016" transform="translate(173.296)" fill="#81a9c8"/>
            </g>
            <g id="g3256" transform="translate(36.464 28.259)">
              <path id="path3258" d="M-86.59-19.672a4.429,4.429,0,0,0,.8-2.742H-76.8a4.429,4.429,0,0,0,.8,2.742,8.968,8.968,0,0,1-5.3,1.723,8.968,8.968,0,0,1-5.3-1.723" transform="translate(86.59 22.415)" fill="#4980ac"/>
            </g>
            <g id="g3260" transform="translate(32.75 6.395)">
              <path id="path3262" d="M-147.308-64.642a9.011,9.011,0,0,1,9.011-9.011,9.011,9.011,0,0,1,9.011,9.011V-59.6a9.011,9.011,0,0,1-9.011,9.011,9.011,9.011,0,0,1-9.011-9.011Z" transform="translate(147.308 73.653)" fill="#81a9c8"/>
            </g>
            <g id="g3264" transform="translate(6.28 1.223)">
              <path id="path3266" d="M-512.658-140.424h7.341v26.916a2.454,2.454,0,0,0,2.447,2.447h36.7a2.454,2.454,0,0,0,2.447-2.447v-44.045A2.454,2.454,0,0,0-466.166-160h-36.7a2.454,2.454,0,0,0-2.447,2.447v12.235m-7.341,12.235h7.341m-7.341,7.341h7.341m-7.341,7.341h7.341m-7.341,7.341h9.788m-9.788,7.341h17.129m15.507-29.244c0,7.361,11.409,2.709,11.409,12.759v4.25h-31.81v-4.25c0-10.05,11.409-5.4,11.409-12.759m-4.516-12.853a9.011,9.011,0,0,1,9.011-9.011,9.011,9.011,0,0,1,9.011,9.011v5.045a9.011,9.011,0,0,1-9.011,9.011,9.011,9.011,0,0,1-9.011-9.011Zm-2,52.211h-22.022A2.454,2.454,0,0,1-520-96.053v-53.881a2.454,2.454,0,0,1,2.447-2.447h7.341m14.682,68.563h-14.682a2.454,2.454,0,0,1-2.447-2.447v-2.447m17.129-22.349v29.689a2.454,2.454,0,0,0,2.447,2.447h41.6a2.454,2.454,0,0,0,2.447-2.447v-61.222a2.454,2.454,0,0,0-2.447-2.447h-7.032" transform="translate(519.999 160)" fill="none" stroke="#000" stroke-linecap="round" stroke-linejoin="round" stroke-miterlimit="10" stroke-width="2"/>
            </g>
          </g>
        </g>
      </g>
      <g id="g8616" transform="translate(-1691.841 -6806.782)">
        <g id="g8618" transform="translate(0 -682.665)">
          <g id="g8620" clip-path="url(#clip-path-2)">
            <g id="g8626" transform="translate(9.328 9.418)">
              <path id="path8628" d="M-446.06-142.43l-21.707-7.422a1.331,1.331,0,0,0-1.7,1.686L-462-126.58a1.313,1.313,0,0,0,.5.658,1.246,1.246,0,0,0,1.874-.662l3.35-10.226,10.167-3.249a1.253,1.253,0,0,0,.126-2.343l-.076-.029" transform="translate(469.537 149.927)" fill="#ffa031"/>
            </g>
            <g id="g8630" transform="translate(16.93 22.535)">
              <path id="path8632" d="M-61.49-15.177l-3.236,9.583a1.307,1.307,0,0,0,.434.507,1.246,1.246,0,0,0,1.874-.662l3.35-10.226Z" transform="translate(64.727 15.976)" fill="#ffbe72"/>
            </g>
            <g id="g8634" transform="translate(9.329 9.418)">
              <path id="path8636" d="M-447.5-142.973l-.076-.029-21.706-7.422a1.331,1.331,0,0,0-1.73,1.569l20.77,7.1.076.029a1.232,1.232,0,0,1,.616,1.709l1.924-.615a1.253,1.253,0,0,0,.126-2.343" transform="translate(471.051 150.498)" fill="#ffbe72"/>
            </g>
            <g id="g8638" transform="translate(0.5 0.5)">
              <path id="path8640" d="M-161.491-354.515a9.4,9.4,0,0,1-8.494-9.64,9.411,9.411,0,0,1,9.772-9.013,9.462,9.462,0,0,1,6.18,2.581" transform="translate(169.991 373.174)" fill="none" stroke="#060606" stroke-linecap="round" stroke-linejoin="round" stroke-miterlimit="10" stroke-width="1"/>
            </g>
            <g id="g8642" transform="translate(10.181 3.252)">
              <path id="path8644" d="M0,0A6.689,6.689,0,0,1,3.545,1.159" fill="none" stroke="#060606" stroke-linecap="round" stroke-linejoin="round" stroke-miterlimit="10" stroke-width="1"/>
            </g>
            <g id="g8646" transform="translate(3.275 3.679)">
              <path id="path8648" d="M-95.171-238.856a6.623,6.623,0,0,1-5-6.633,6.607,6.607,0,0,1,4.287-5.938" transform="translate(100.181 251.427)" fill="none" stroke="#060606" stroke-linecap="round" stroke-linejoin="round" stroke-miterlimit="10" stroke-width="1"/>
            </g>
            <g id="g8650" transform="translate(9.328 9.418)">
              <path id="path8652" d="M-230.9-313.474l1.108-3.382,10.167-3.249a1.253,1.253,0,0,0,.126-2.343l-.076-.029L-241.28-329.9a1.331,1.331,0,0,0-1.7,1.686l7.463,21.586a1.313,1.313,0,0,0,.5.658,1.246,1.246,0,0,0,1.874-.662l1.4-4.263" transform="translate(243.051 329.973)" fill="none" stroke="#060606" stroke-linecap="round" stroke-linejoin="round" stroke-miterlimit="10" stroke-width="1"/>
            </g>
          </g>
        </g>
      </g>
    </g>
  </g>
</svg>
